<?xml version="1.0" encoding="utf-8" standalone="no"?>
<!DOCTYPE svg PUBLIC "-//W3C//DTD SVG 1.1//EN"
  "http://www.w3.org/Graphics/SVG/1.1/DTD/svg11.dtd">
<!-- Created with matplotlib (https://matplotlib.org/) -->
<svg height="73.2649pt" version="1.1" viewBox="0 0 360 73.2649" width="360pt" xmlns="http://www.w3.org/2000/svg" xmlns:xlink="http://www.w3.org/1999/xlink">
 <defs>
  <style type="text/css">
*{stroke-linecap:butt;stroke-linejoin:round;}
  </style>
 </defs>
 <g id="figure_1">
  <g id="patch_1">
   <path d="M 0 73.2649 
L 360 73.2649 
L 360 0 
L 0 0 
z
" style="fill:none;"/>
  </g>
  <g id="axes_1">
   <g id="matplotlib.axis_1">
    <g id="text_1">
     <!-- Time $\tau$ -->
     <defs>
      <path d="M 57.375 63.375 
L 34.515625 63.375 
L 34.515625 0 
L 25.203125 0 
L 25.203125 63.375 
L 2.390625 63.375 
L 2.390625 71.09375 
L 57.375 71.09375 
z
" id="Roboto-Regular-84"/>
      <path d="M 16.65625 0 
L 7.625 0 
L 7.625 52.828125 
L 16.65625 52.828125 
z
M 6.890625 66.84375 
Q 6.890625 69.046875 8.234375 70.5625 
Q 9.578125 72.078125 12.203125 72.078125 
Q 14.84375 72.078125 16.203125 70.5625 
Q 17.578125 69.046875 17.578125 66.84375 
Q 17.578125 64.65625 16.203125 63.1875 
Q 14.84375 61.71875 12.203125 61.71875 
Q 9.578125 61.71875 8.234375 63.1875 
Q 6.890625 64.65625 6.890625 66.84375 
z
" id="Roboto-Regular-105"/>
      <path d="M 15.328125 52.828125 
L 15.578125 46.96875 
Q 21.390625 53.8125 31.25 53.8125 
Q 42.328125 53.8125 46.34375 45.3125 
Q 48.96875 49.125 53.1875 51.46875 
Q 57.421875 53.8125 63.1875 53.8125 
Q 80.5625 53.8125 80.859375 35.40625 
L 80.859375 0 
L 71.828125 0 
L 71.828125 34.859375 
Q 71.828125 40.53125 69.234375 43.328125 
Q 66.65625 46.140625 60.546875 46.140625 
Q 55.515625 46.140625 52.1875 43.140625 
Q 48.875 40.140625 48.34375 35.0625 
L 48.34375 0 
L 39.265625 0 
L 39.265625 34.625 
Q 39.265625 46.140625 27.984375 46.140625 
Q 19.09375 46.140625 15.828125 38.578125 
L 15.828125 0 
L 6.78125 0 
L 6.78125 52.828125 
z
" id="Roboto-Regular-109"/>
      <path d="M 28.765625 -0.984375 
Q 18.015625 -0.984375 11.28125 6.078125 
Q 4.546875 13.140625 4.546875 24.953125 
L 4.546875 26.609375 
Q 4.546875 34.46875 7.546875 40.640625 
Q 10.546875 46.828125 15.9375 50.3125 
Q 21.34375 53.8125 27.640625 53.8125 
Q 37.9375 53.8125 43.640625 47.015625 
Q 49.359375 40.234375 49.359375 27.59375 
L 49.359375 23.828125 
L 13.578125 23.828125 
Q 13.765625 16.015625 18.140625 11.203125 
Q 22.515625 6.390625 29.25 6.390625 
Q 34.03125 6.390625 37.34375 8.34375 
Q 40.671875 10.296875 43.171875 13.53125 
L 48.6875 9.234375 
Q 42.046875 -0.984375 28.765625 -0.984375 
z
M 27.640625 46.390625 
Q 22.171875 46.390625 18.453125 42.40625 
Q 14.75 38.421875 13.875 31.25 
L 40.328125 31.25 
L 40.328125 31.9375 
Q 39.9375 38.8125 36.609375 42.59375 
Q 33.296875 46.390625 27.640625 46.390625 
z
" id="Roboto-Regular-101"/>
      <path id="Roboto-Regular-32"/>
      <path d="M 15.578125 1.515625 
Q 15.578125 2.203125 15.71875 2.59375 
L 26.21875 36.921875 
L 17.1875 36.921875 
Q 13.53125 36.921875 10.34375 34.625 
Q 7.171875 32.328125 5.078125 28.8125 
Q 4.890625 28.421875 4.5 28.421875 
L 3.328125 28.421875 
Q 2.390625 28.421875 2.390625 29.390625 
Q 2.390625 29.59375 2.59375 29.984375 
Q 5.859375 35.546875 9.59375 39.328125 
Q 13.328125 43.109375 18.015625 43.109375 
L 48.6875 43.109375 
Q 49.75 43.109375 50.484375 42.375 
Q 51.21875 41.65625 51.21875 40.578125 
Q 51.21875 39.109375 50.171875 38.015625 
Q 49.125 36.921875 47.609375 36.921875 
L 29.5 36.921875 
L 22.796875 2.390625 
Q 22.40625 0.78125 21.328125 -0.265625 
Q 20.265625 -1.3125 18.609375 -1.3125 
Q 17.328125 -1.3125 16.453125 -0.5 
Q 15.578125 0.296875 15.578125 1.515625 
z
" id="Cmmi10-191"/>
     </defs>
     <g transform="translate(165.3 67.474)scale(0.1 -0.1)">
      <use transform="translate(0 0.921875)" xlink:href="#Roboto-Regular-84"/>
      <use transform="translate(59.667969 0.921875)" xlink:href="#Roboto-Regular-105"/>
      <use transform="translate(83.935547 0.921875)" xlink:href="#Roboto-Regular-109"/>
      <use transform="translate(171.582031 0.921875)" xlink:href="#Roboto-Regular-101"/>
      <use transform="translate(224.560547 0.921875)" xlink:href="#Roboto-Regular-32"/>
      <use transform="translate(249.316406 0.921875)" xlink:href="#Cmmi10-191"/>
     </g>
    </g>
   </g>
   <g id="matplotlib.axis_2"/>
   <g id="line2d_1">
    <path clip-path="url(#p25cc7c13c2)" d="M 0.225 37.480575 
L 0.9 38.1631 
L 1.575 39.458989 
L 1.8 39.699392 
L 2.7 39.995844 
L 2.925 40.200451 
L 3.825 41.9739 
L 4.05 41.979681 
L 4.725 43.0199 
L 5.175 43.726553 
L 5.4 43.815678 
L 6.75 41.876501 
L 6.975 42.190781 
L 7.425 41.779293 
L 7.65 41.648839 
L 8.325 43.30602 
L 8.775 43.585559 
L 9 43.655872 
L 9.225 43.932143 
L 9.675 45.169666 
L 9.9 44.795848 
L 10.125 44.087362 
L 10.575 41.900509 
L 10.8 41.528155 
L 11.025 41.601944 
L 11.25 41.829515 
L 11.925 40.924737 
L 12.15 40.066776 
L 13.05 38.640582 
L 13.725 36.099885 
L 13.95 35.881554 
L 14.175 36.351289 
L 15.3 41.544227 
L 15.75 42.023445 
L 15.975 42.312941 
L 16.425 43.498146 
L 16.65 43.494594 
L 16.875 43.642043 
L 17.1 43.649543 
L 17.55 43.05036 
L 18 41.284654 
L 18.675 40.188728 
L 18.9 40.02926 
L 19.125 39.557809 
L 20.475 32.361636 
L 21.15 26.057757 
L 21.825 19.352166 
L 22.725 8.729315 
L 22.95 7.997715 
L 23.625 9.306217 
L 24.075 10.086279 
L 24.525 11.068415 
L 24.975 11.835975 
L 25.2 11.577368 
L 25.425 11.12339 
L 25.65 10.956736 
L 25.875 10.645278 
L 26.1 10.032229 
L 26.325 9.827706 
L 26.775 10.871506 
L 27.225 12.822452 
L 27.675 15.157913 
L 28.575 18.984358 
L 29.025 22.618846 
L 29.475 28.953771 
L 29.925 40.093145 
L 30.375 51.01673 
L 30.6 52.398061 
L 31.05 52.757855 
L 31.275 52.9282 
L 31.5 52.94116 
L 32.175 51.56299 
L 32.4 51.350689 
L 32.625 51.344812 
L 33.075 50.587751 
L 33.525 49.97665 
L 33.975 49.169976 
L 34.2 48.777242 
L 34.425 48.672382 
L 34.65 48.712015 
L 34.875 48.411731 
L 35.325 48.665294 
L 36 49.748363 
L 36.45 49.492247 
L 36.675 49.408481 
L 36.9 49.760426 
L 37.35 49.665533 
L 37.8 49.540456 
L 38.025 49.360853 
L 38.25 48.999512 
L 38.925 47.253033 
L 39.6 45.048021 
L 40.275 42.866086 
L 40.725 40.795264 
L 40.95 39.990151 
L 41.4 39.100684 
L 41.625 38.63513 
L 41.85 37.735705 
L 42.3 33.566284 
L 42.525 30.741221 
L 42.975 20.02887 
L 43.425 5.233472 
L 43.65 3.06906 
L 43.875 2.635182 
L 44.1 2.780571 
L 44.325 3.262175 
L 44.55 3.160333 
L 45.45 4.407194 
L 45.9 5.673601 
L 46.125 5.865214 
L 46.35 6.470498 
L 47.475 6.356085 
L 47.925 8.052134 
L 48.375 8.782911 
L 48.6 9.389708 
L 49.5 12.912081 
L 49.95 14.696055 
L 50.625 19.618225 
L 51.075 25.233455 
L 51.525 36.294299 
L 51.975 50.600499 
L 52.2 52.406392 
L 52.425 52.614206 
L 52.875 52.308656 
L 53.1 52.080058 
L 53.325 52.184253 
L 53.55 52.576814 
L 54 52.350666 
L 54.225 52.522027 
L 54.9 52.002777 
L 55.125 52.185527 
L 55.575 51.517331 
L 56.25 50.882794 
L 56.475 50.510104 
L 56.925 50.338827 
L 57.15 50.694702 
L 57.375 50.426638 
L 57.6 50.396172 
L 58.05 49.898278 
L 58.275 49.859147 
L 58.725 48.75303 
L 59.4 47.316025 
L 59.625 47.002423 
L 59.85 46.907121 
L 60.3 46.032853 
L 60.975 43.980383 
L 61.2 43.892771 
L 61.65 43.210586 
L 62.1 43.171631 
L 62.55 43.933892 
L 63 45.210634 
L 63.225 45.451231 
L 63.675 44.155424 
L 64.35 42.569043 
L 65.25 40.807126 
L 65.475 40.722537 
L 65.925 39.871234 
L 66.15 39.71457 
L 66.375 39.315254 
L 66.825 37.623185 
L 67.725 30.851849 
L 68.175 24.500403 
L 69.075 7.390767 
L 69.3 6.149917 
L 69.525 5.984861 
L 69.75 6.241157 
L 70.425 7.445269 
L 70.65 7.584181 
L 70.875 7.973065 
L 71.1 8.052792 
L 71.325 8.373583 
L 71.775 10.300458 
L 72.675 16.440503 
L 73.125 21.495426 
L 73.575 29.861315 
L 74.25 52.40815 
L 74.475 54.069904 
L 75.15 55.338818 
L 76.5 53.09526 
L 76.95 51.837879 
L 77.4 51.249146 
L 77.625 51.192368 
L 77.85 50.68176 
L 78.075 50.456122 
L 78.75 48.386203 
L 78.975 47.444631 
L 80.1 45.728278 
L 80.55 45.545724 
L 81 44.705777 
L 81.45 42.788658 
L 81.9 42.964958 
L 82.125 42.645682 
L 82.35 42.583343 
L 82.575 42.361237 
L 83.025 41.597276 
L 83.25 41.704541 
L 83.475 41.390206 
L 83.925 41.130883 
L 84.375 39.669574 
L 84.825 37.629048 
L 85.05 37.048324 
L 85.275 35.57512 
L 85.725 29.540822 
L 86.175 18.389617 
L 86.625 5.698078 
L 86.85 3.695595 
L 87.075 3.483689 
L 87.3 3.551602 
L 87.525 3.895935 
L 87.975 5.470244 
L 88.65 6.815161 
L 89.1 7.175142 
L 89.775 8.790616 
L 90 8.914576 
L 90.45 9.536524 
L 90.675 9.989799 
L 91.575 13.508344 
L 92.025 15.01705 
L 92.475 18.654769 
L 92.925 25.016181 
L 93.375 34.732534 
L 93.825 48.811315 
L 94.05 52.255067 
L 94.275 53.617144 
L 94.725 54.424835 
L 94.95 54.19521 
L 95.175 54.152104 
L 95.625 53.497728 
L 95.85 53.444387 
L 96.075 53.231613 
L 96.3 53.492532 
L 96.525 53.44918 
L 96.975 53.12294 
L 97.65 53.420635 
L 98.325 52.457508 
L 98.55 52.615403 
L 98.775 52.457634 
L 99 52.50079 
L 99.675 51.687726 
L 100.575 51.542068 
L 101.025 51.260197 
L 101.475 50.413745 
L 101.925 50.14886 
L 102.15 50.226364 
L 102.375 49.820041 
L 102.6 49.067073 
L 103.05 48.748012 
L 103.275 48.485357 
L 103.5 47.938553 
L 104.4 47.03001 
L 104.625 46.639865 
L 105.975 42.012628 
L 106.2 42.005389 
L 106.425 42.132644 
L 107.1 40.945216 
L 107.325 40.875706 
L 107.55 41.168493 
L 107.775 41.865263 
L 108.675 46.420641 
L 108.9 46.806889 
L 109.125 46.604976 
L 109.35 46.963547 
L 109.8 48.140838 
L 110.25 48.931368 
L 110.475 49.108479 
L 111.15 48.555237 
L 111.6 49.556667 
L 111.825 49.525174 
L 112.05 49.226577 
L 112.275 48.342118 
L 112.5 47.925879 
L 113.175 45.038098 
L 113.625 44.316587 
L 114.525 45.225774 
L 114.75 45.068751 
L 115.425 44.052468 
L 115.65 43.789897 
L 116.55 40.744863 
L 117.9 35.241339 
L 118.35 32.052278 
L 118.8 25.616899 
L 119.25 16.057567 
L 119.7 6.23309 
L 119.925 4.565815 
L 120.15 3.937004 
L 120.6 3.553729 
L 121.05 4.017175 
L 122.175 6.584978 
L 122.4 6.869937 
L 122.625 6.486151 
L 123.525 6.443419 
L 123.75 6.836071 
L 124.2 6.60286 
L 124.65 6.769895 
L 125.775 9.32209 
L 126 10.124333 
L 126.45 13.010653 
L 127.35 20.228369 
L 127.8 26.00305 
L 128.25 35.936997 
L 128.7 47.769717 
L 128.925 51.050393 
L 129.15 52.622883 
L 129.375 53.011554 
L 129.6 52.992975 
L 130.05 52.149078 
L 130.5 51.611987 
L 131.175 49.099831 
L 131.85 46.410224 
L 132.3 45.149099 
L 132.975 41.91129 
L 133.2 40.997567 
L 133.425 40.599897 
L 133.875 40.471438 
L 134.1 40.78881 
L 134.325 41.354284 
L 134.55 41.364871 
L 134.775 41.708617 
L 135 42.3785 
L 135.45 44.575796 
L 135.9 45.549493 
L 136.125 45.904886 
L 136.35 46.00558 
L 137.7 43.632367 
L 138.15 42.819772 
L 138.375 42.879131 
L 138.825 43.802795 
L 139.05 43.997866 
L 139.5 45.097242 
L 139.725 45.049479 
L 140.4 42.730449 
L 140.625 42.487902 
L 141.3 41.264811 
L 141.75 41.111507 
L 142.2 40.139486 
L 142.425 39.738097 
L 142.65 39.686594 
L 143.1 40.138738 
L 143.55 39.824652 
L 143.775 39.783315 
L 144.225 39.934447 
L 144.45 39.89163 
L 145.125 41.899467 
L 145.35 41.894656 
L 145.575 41.384487 
L 146.025 39.859323 
L 146.475 40.032326 
L 146.925 39.688649 
L 147.15 40.07287 
L 147.375 40.846028 
L 148.05 45.180459 
L 148.275 46.000287 
L 148.5 46.349548 
L 148.725 46.27485 
L 149.175 46.404943 
L 149.4 46.215306 
L 149.85 45.389725 
L 150.075 44.843482 
L 150.3 44.651872 
L 150.75 43.787969 
L 151.2 43.286375 
L 151.425 42.789747 
L 151.875 41.50063 
L 152.325 40.557353 
L 152.55 40.294576 
L 153 40.384654 
L 153.45 41.720813 
L 153.9 41.888446 
L 154.35 41.426328 
L 155.475 40.216505 
L 157.5 44.072277 
L 157.725 44.029691 
L 158.175 44.280631 
L 158.4 44.342876 
L 158.625 44.095916 
L 158.85 44.088146 
L 159.3 43.744266 
L 159.75 42.890722 
L 160.65 43.945566 
L 161.325 43.378682 
L 162 42.571048 
L 162.225 42.335982 
L 162.675 41.116055 
L 163.575 38.478857 
L 163.8 38.55173 
L 164.025 38.471569 
L 164.475 37.801845 
L 164.925 37.937756 
L 165.15 38.342266 
L 165.825 40.649692 
L 166.275 41.844071 
L 166.5 41.810519 
L 166.95 42.066475 
L 167.4 41.879978 
L 167.625 42.023191 
L 167.85 41.829112 
L 168.075 42.028523 
L 168.75 43.062268 
L 169.2 43.002129 
L 169.65 41.450598 
L 170.1 39.784686 
L 170.325 39.224143 
L 170.775 37.28529 
L 171.225 34.197572 
L 171.675 31.11349 
L 171.9 29.962476 
L 172.35 25.389027 
L 173.475 8.970701 
L 173.7 8.438175 
L 173.925 8.474377 
L 174.15 8.836161 
L 175.5 12.938454 
L 175.95 13.80416 
L 176.175 14.622047 
L 177.525 23.863482 
L 177.975 30.738815 
L 178.875 49.61083 
L 179.1 51.004895 
L 179.55 51.822783 
L 179.775 51.416536 
L 180 51.262581 
L 180.45 50.318904 
L 180.9 50.346134 
L 181.35 50.865085 
L 181.575 50.417669 
L 181.8 50.371558 
L 182.025 50.501129 
L 182.25 50.296799 
L 182.475 50.391055 
L 183.15 50.369765 
L 183.825 49.470533 
L 184.05 49.627193 
L 184.275 49.500449 
L 184.5 49.574225 
L 184.725 49.425243 
L 184.95 49.616926 
L 185.175 49.1426 
L 185.4 48.9995 
L 185.625 49.105366 
L 185.85 48.907241 
L 186.3 49.11682 
L 186.75 48.966938 
L 187.425 48.872221 
L 187.875 48.085717 
L 188.1 47.913234 
L 188.775 46.20528 
L 189.45 44.886195 
L 189.675 44.724152 
L 190.35 43.446132 
L 190.575 43.455783 
L 191.25 45.227604 
L 191.475 45.107843 
L 191.7 44.71284 
L 192.15 43.181652 
L 192.6 40.711264 
L 193.05 38.356062 
L 193.95 30.712861 
L 194.4 25.116856 
L 195.525 6.553154 
L 195.75 6.270853 
L 195.975 6.243374 
L 196.2 6.346782 
L 196.425 6.606764 
L 197.325 9.318014 
L 197.55 9.495614 
L 198 10.133571 
L 198.225 10.386378 
L 198.45 10.237752 
L 198.9 9.590025 
L 199.125 9.810667 
L 199.35 10.30916 
L 200.025 13.504091 
L 200.7 17.248884 
L 201.15 21.559894 
L 201.6 30.959498 
L 202.275 52.980657 
L 202.5 54.041613 
L 202.725 54.04209 
L 202.95 53.847276 
L 203.175 53.505255 
L 203.4 53.489338 
L 204.3 52.110341 
L 204.525 51.435744 
L 204.75 51.209566 
L 204.975 51.278325 
L 205.875 50.227502 
L 206.325 51.075863 
L 206.55 50.922336 
L 207 50.03053 
L 207.225 49.872832 
L 208.8 47.661696 
L 209.925 46.824435 
L 210.15 46.750068 
L 210.375 46.843251 
L 210.6 47.115243 
L 210.825 46.898616 
L 211.05 46.990278 
L 211.275 46.911647 
L 211.725 47.196988 
L 211.95 47.810483 
L 212.175 47.488852 
L 212.625 46.028214 
L 213.3 44.407485 
L 213.75 44.002008 
L 213.975 43.80315 
L 214.425 42.171065 
L 214.875 39.712305 
L 215.325 37.75171 
L 215.55 36.809213 
L 216 32.812729 
L 216.45 26.400033 
L 216.9 15.60399 
L 217.35 5.626621 
L 217.575 4.252037 
L 218.025 3.384864 
L 219.15 6.117607 
L 219.375 6.520808 
L 220.275 9.643008 
L 220.5 10.762608 
L 220.95 11.53474 
L 221.85 13.056257 
L 222.075 12.960793 
L 222.3 13.126407 
L 222.75 14.172338 
L 223.425 17.254202 
L 223.875 21.783409 
L 224.1 25.161557 
L 224.55 37.071798 
L 225 49.400916 
L 225.225 51.768984 
L 225.45 52.876371 
L 225.675 53.085709 
L 226.125 52.910073 
L 226.35 52.567133 
L 227.025 50.664268 
L 227.25 50.410382 
L 227.475 49.957801 
L 227.925 50.088895 
L 228.15 49.911449 
L 228.375 49.901955 
L 228.825 48.804019 
L 229.5 48.437026 
L 229.725 48.357373 
L 230.175 47.580653 
L 230.625 47.030803 
L 231.75 43.826386 
L 231.975 43.442146 
L 232.425 43.821504 
L 233.1 44.596338 
L 233.55 45.354462 
L 234.225 45.507901 
L 234.9 45.831909 
L 235.125 45.536197 
L 235.35 45.669917 
L 235.575 45.498514 
L 236.025 44.024421 
L 236.7 43.305574 
L 237.15 42.095767 
L 237.6 42.908895 
L 238.275 43.10817 
L 238.5 42.891393 
L 240.3 36.310375 
L 240.975 32.807148 
L 241.425 29.991899 
L 241.875 25.356952 
L 242.325 17.043591 
L 242.775 7.71878 
L 243 5.728957 
L 243.225 5.034329 
L 243.45 4.948149 
L 243.675 5.101025 
L 243.9 4.778387 
L 244.125 4.247511 
L 244.35 4.476084 
L 244.575 4.476275 
L 244.8 4.28463 
L 245.025 3.823197 
L 245.25 3.838516 
L 245.7 4.459621 
L 246.15 5.115676 
L 246.6 4.713886 
L 246.825 4.599789 
L 247.275 5.766776 
L 247.725 6.83304 
L 247.95 7.711605 
L 248.175 7.890407 
L 248.4 7.875887 
L 249.3 10.360231 
L 249.975 11.643865 
L 250.425 12.991524 
L 250.875 13.427113 
L 251.1 13.323922 
L 251.325 13.876293 
L 251.775 16.036263 
L 252.45 21.041762 
L 252.9 26.071377 
L 253.35 34.007755 
L 254.025 47.93955 
L 254.25 50.148718 
L 254.475 50.962453 
L 254.925 51.244576 
L 256.05 50.345004 
L 256.5 49.439054 
L 256.725 49.239418 
L 258.075 47.140424 
L 258.3 46.859279 
L 258.75 46.904238 
L 258.975 47.097947 
L 259.875 46.133391 
L 260.1 46.14857 
L 260.325 46.019296 
L 260.775 45.494699 
L 261 45.80096 
L 261.225 45.916527 
L 261.45 45.857631 
L 262.125 44.555801 
L 262.575 43.380844 
L 262.8 43.228972 
L 263.025 43.427592 
L 263.25 43.870575 
L 263.7 43.915929 
L 264.375 42.564888 
L 265.5 40.539975 
L 265.95 39.378802 
L 266.85 35.76498 
L 267.3 32.446273 
L 267.75 26.026625 
L 268.65 5.396149 
L 268.875 3.636787 
L 269.1 3.331701 
L 269.55 3.72633 
L 270 4.260781 
L 270.9 5.800108 
L 271.125 5.626153 
L 271.35 5.76017 
L 271.575 5.455348 
L 272.7 7.837635 
L 273.15 8.396353 
L 273.825 7.910157 
L 274.05 8.326371 
L 274.275 9.026723 
L 274.5 9.150229 
L 274.95 9.143816 
L 275.4 9.508904 
L 275.85 10.910541 
L 276.975 16.061362 
L 277.425 19.816492 
L 277.875 26.777287 
L 278.325 40.303276 
L 278.55 48.62208 
L 278.775 52.105031 
L 279 53.166314 
L 279.225 53.255629 
L 279.675 52.508631 
L 279.9 52.664402 
L 280.125 52.577807 
L 280.35 51.99852 
L 281.025 51.714242 
L 281.475 51.470284 
L 281.7 51.448174 
L 281.925 51.249335 
L 282.375 51.27087 
L 283.5 51.195052 
L 284.4 48.815619 
L 284.625 48.603037 
L 285.075 47.213104 
L 285.525 46.730738 
L 285.75 46.604902 
L 286.425 46.9193 
L 286.875 46.911257 
L 287.55 45.844441 
L 287.775 45.700332 
L 288.225 45.903905 
L 288.45 45.74482 
L 288.675 45.429961 
L 289.35 45.095589 
L 289.8 45.437849 
L 290.025 45.507878 
L 290.25 45.348247 
L 290.925 44.327544 
L 291.15 44.235923 
L 291.825 44.399041 
L 292.05 44.616675 
L 292.275 45.176837 
L 292.725 47.040037 
L 293.175 46.490595 
L 293.85 44.844022 
L 294.075 44.17306 
L 294.975 43.009959 
L 295.2 42.640348 
L 296.55 34.670135 
L 297 29.632842 
L 297.45 21.040703 
L 297.9 8.272078 
L 298.125 4.991715 
L 298.35 4.012486 
L 298.575 3.644508 
L 298.8 3.708318 
L 299.025 4.117984 
L 299.25 4.162387 
L 299.925 5.435832 
L 300.6 7.421064 
L 301.275 10.329745 
L 301.5 10.981325 
L 301.725 11.269356 
L 301.95 12.123704 
L 303.075 21.411721 
L 303.525 29.63356 
L 304.2 49.865906 
L 304.425 52.406528 
L 304.65 53.187249 
L 304.875 53.155741 
L 305.1 52.885386 
L 305.325 52.965565 
L 305.775 51.915321 
L 306 51.859826 
L 306.225 51.957571 
L 307.125 50.999511 
L 307.35 50.454276 
L 307.8 50.48063 
L 309.825 47.965374 
L 310.5 45.860431 
L 310.725 45.748293 
L 311.175 45.692487 
L 311.625 46.162505 
L 312.075 46.203826 
L 312.3 45.659304 
L 312.75 43.99674 
L 314.1 40.992486 
L 314.325 40.974266 
L 314.55 40.556677 
L 314.775 40.621841 
L 315.45 42.269658 
L 316.35 44.453506 
L 316.575 44.256932 
L 317.25 42.782905 
L 317.925 42.53039 
L 318.15 42.317218 
L 318.825 41.072965 
L 319.05 40.795849 
L 319.275 40.697819 
L 319.95 39.470937 
L 320.625 38.393603 
L 321.3 35.784595 
L 321.525 34.528893 
L 321.975 30.431507 
L 322.425 23.163205 
L 323.1 6.855706 
L 323.325 5.090477 
L 323.55 4.425133 
L 323.775 4.224164 
L 324.45 5.765999 
L 324.675 5.520957 
L 324.9 5.9372 
L 325.125 5.91645 
L 325.35 6.079783 
L 326.25 9.863832 
L 327.15 14.74999 
L 327.6 18.262042 
L 328.05 21.330676 
L 328.5 26.129419 
L 328.95 35.565423 
L 329.4 47.648593 
L 329.625 50.236745 
L 329.85 51.07739 
L 330.075 50.982452 
L 330.3 50.697966 
L 330.525 50.75027 
L 330.75 50.574669 
L 330.975 50.567893 
L 332.1 49.812198 
L 332.55 49.050631 
L 332.775 49.293193 
L 333.225 48.45801 
L 333.675 48.227869 
L 334.35 47.317078 
L 334.8 47.173684 
L 335.025 46.912444 
L 336.15 47.146684 
L 336.6 46.522449 
L 337.275 44.812738 
L 337.725 45.018075 
L 337.95 44.57511 
L 338.625 41.749018 
L 339.075 39.232489 
L 339.975 31.816301 
L 340.425 26.343596 
L 340.875 17.349325 
L 341.325 7.694149 
L 341.55 5.704262 
L 342 4.454425 
L 342.225 4.230875 
L 342.45 4.578324 
L 342.675 5.150654 
L 343.575 9.49581 
L 343.8 9.810311 
L 344.25 11.503035 
L 345.6 18.74429 
L 346.5 26.810326 
L 346.95 35.055723 
L 347.4 44.916544 
L 347.625 47.877241 
L 347.85 48.912287 
L 348.3 49.629982 
L 349.2 49.145767 
L 349.65 48.040391 
L 350.1 47.408722 
L 350.325 47.581919 
L 350.55 47.473058 
L 351.225 45.984467 
L 351.9 44.270143 
L 352.125 43.935768 
L 352.35 43.885924 
L 352.575 43.563236 
L 353.025 41.867515 
L 353.475 41.302372 
L 353.7 41.370409 
L 353.925 41.268714 
L 354.6 41.451865 
L 354.825 41.584988 
L 355.05 42.125257 
L 355.725 45.119382 
L 355.95 45.289949 
L 357.075 43.438832 
L 357.3 43.645505 
L 357.75 44.52105 
L 358.2 45.727746 
L 358.425 45.722351 
L 358.875 45.521324 
L 359.325 45.559511 
L 360 43.635141 
L 360 43.635141 
" style="fill:none;stroke:#1f77b4;stroke-linecap:square;stroke-width:0.5;"/>
   </g>
   <g id="line2d_2">
    <path clip-path="url(#p25cc7c13c2)" d="M 0.225 38.969183 
L 0.675 40.026389 
L 0.9 39.195619 
L 1.125 39.993199 
L 1.35 39.324816 
L 1.575 39.572045 
L 2.025 40.468379 
L 2.25 40.315231 
L 2.475 40.741157 
L 2.7 40.126734 
L 2.925 39.876341 
L 3.15 39.32792 
L 3.375 39.762077 
L 3.6 38.690699 
L 4.05 40.342098 
L 4.275 39.015057 
L 4.5 38.761228 
L 4.725 38.924696 
L 4.95 38.367526 
L 5.175 38.136629 
L 5.4 40.205744 
L 5.625 40.887844 
L 5.85 40.244761 
L 6.075 40.860306 
L 6.3 41.953883 
L 6.525 41.915136 
L 6.75 40.043031 
L 6.975 39.948001 
L 7.2 41.6941 
L 7.425 40.792208 
L 7.65 40.39529 
L 7.875 38.325982 
L 8.1 38.064455 
L 8.325 39.645384 
L 8.55 39.272873 
L 9 39.551488 
L 9.225 37.527923 
L 9.45 36.641964 
L 10.35 44.087776 
L 10.575 43.17757 
L 10.8 39.831839 
L 11.025 40.387783 
L 11.25 40.588758 
L 11.7 41.568973 
L 11.925 43.479749 
L 12.6 41.068391 
L 13.05 43.446148 
L 13.275 43.265462 
L 13.5 42.454872 
L 14.4 36.906155 
L 14.625 37.500043 
L 14.85 37.739071 
L 15.075 37.183591 
L 15.3 39.239665 
L 15.525 40.165518 
L 16.2 37.994651 
L 16.425 37.771207 
L 16.65 39.946562 
L 16.875 38.449127 
L 17.1 40.509107 
L 17.325 40.762852 
L 17.55 41.334524 
L 17.775 44.27343 
L 18 41.864822 
L 18.225 41.721137 
L 18.45 41.057122 
L 18.675 41.518267 
L 18.9 40.777779 
L 19.125 44.013467 
L 19.35 44.255381 
L 19.575 44.212501 
L 19.8 43.115944 
L 20.475 42.086273 
L 20.925 40.64524 
L 21.6 34.867952 
L 21.825 34.146086 
L 22.275 33.843582 
L 22.5 34.28455 
L 22.725 32.034127 
L 22.95 31.154812 
L 23.175 27.919067 
L 23.625 25.898515 
L 23.85 26.825268 
L 24.3 24.81894 
L 24.525 23.889966 
L 24.75 23.977797 
L 25.2 27.623876 
L 25.65 26.434016 
L 26.1 27.713684 
L 26.325 27.103773 
L 26.55 24.864306 
L 26.775 24.685847 
L 27.225 21.234841 
L 27.45 20.541737 
L 27.675 22.043096 
L 28.35 21.781864 
L 29.025 19.975479 
L 29.25 20.841304 
L 29.475 20.994216 
L 29.7 20.506568 
L 29.925 19.444117 
L 30.15 19.014207 
L 30.375 19.732055 
L 30.6 19.862987 
L 30.825 21.871386 
L 31.05 21.741939 
L 31.5 22.776853 
L 31.95 26.147993 
L 32.4 27.396274 
L 32.625 27.233341 
L 32.85 29.708192 
L 33.075 29.570847 
L 33.3 30.327032 
L 33.75 32.947314 
L 33.975 32.983718 
L 34.2 34.596543 
L 34.425 32.852606 
L 34.65 33.028895 
L 34.875 34.239207 
L 35.1 33.609951 
L 35.325 31.710069 
L 35.55 31.160658 
L 35.775 29.989668 
L 36 29.759362 
L 36.225 31.266259 
L 36.45 31.14002 
L 36.675 31.997048 
L 36.9 30.35042 
L 37.125 31.207217 
L 37.35 30.988681 
L 37.575 32.322833 
L 37.8 30.890393 
L 38.25 34.270578 
L 38.475 36.072255 
L 38.7 36.121126 
L 39.15 39.095326 
L 39.375 39.94404 
L 39.825 40.747266 
L 40.05 41.272228 
L 40.275 44.014603 
L 40.725 43.078804 
L 40.95 42.996665 
L 41.175 42.132726 
L 41.4 42.146229 
L 42.075 46.220029 
L 42.3 45.220524 
L 42.525 47.304972 
L 42.75 48.349375 
L 42.975 48.173097 
L 43.2 49.458731 
L 43.425 46.314401 
L 44.1 42.070902 
L 44.55 40.559511 
L 45 37.868393 
L 45.225 37.127832 
L 45.675 32.725506 
L 45.9 32.38759 
L 46.125 32.976317 
L 46.35 31.297981 
L 46.575 32.402863 
L 46.8 34.38649 
L 47.025 31.939475 
L 47.25 32.123763 
L 47.475 31.830128 
L 47.7 27.74822 
L 47.925 27.564631 
L 48.15 28.106757 
L 48.6 25.939528 
L 48.825 23.698176 
L 49.05 23.548299 
L 49.275 22.354717 
L 49.5 22.760554 
L 49.725 21.890412 
L 49.95 20.295521 
L 50.175 19.64241 
L 50.4 19.465803 
L 50.625 18.757702 
L 51.075 19.076048 
L 51.3 16.819586 
L 51.525 16.302009 
L 51.75 15.505171 
L 51.975 17.148276 
L 52.2 20.479483 
L 52.65 22.970067 
L 52.875 25.48435 
L 53.325 22.698601 
L 53.55 22.274116 
L 54 23.915435 
L 54.225 23.040072 
L 54.675 25.275676 
L 54.9 24.854592 
L 55.125 23.976325 
L 55.35 26.118902 
L 55.575 26.643643 
L 55.8 27.463647 
L 56.025 28.869175 
L 56.25 28.767818 
L 56.7 30.123806 
L 57.15 27.880743 
L 57.375 30.443119 
L 57.6 29.131035 
L 57.825 31.07889 
L 58.05 31.010028 
L 58.275 31.310527 
L 58.725 34.263512 
L 58.95 35.3554 
L 59.175 35.362877 
L 59.4 36.826566 
L 59.625 36.462731 
L 60.3 38.610841 
L 60.525 41.005492 
L 60.75 41.555008 
L 60.975 40.274411 
L 61.2 39.984268 
L 61.425 41.252961 
L 61.875 39.738996 
L 62.1 40.143435 
L 62.325 37.55763 
L 62.55 38.221376 
L 62.775 36.542803 
L 63 37.120316 
L 63.225 38.373132 
L 63.45 41.45553 
L 63.675 40.933028 
L 64.125 41.413469 
L 64.35 41.76279 
L 64.575 41.698533 
L 64.8 42.153622 
L 65.025 42.179442 
L 65.25 40.691822 
L 65.475 41.933064 
L 65.7 42.263149 
L 65.925 40.825004 
L 66.15 42.422356 
L 66.375 42.117223 
L 66.6 42.878006 
L 66.825 44.836522 
L 67.05 44.667148 
L 67.275 44.137299 
L 67.5 42.781061 
L 67.725 42.852644 
L 67.95 43.597088 
L 68.4 42.169225 
L 68.85 37.771461 
L 69.075 37.502026 
L 69.75 31.718835 
L 70.65 29.006775 
L 71.1 28.68029 
L 72 20.213125 
L 72.225 20.868459 
L 72.675 17.48249 
L 72.9 16.989401 
L 73.125 17.636317 
L 73.35 17.496841 
L 73.575 14.651019 
L 73.8 14.275681 
L 74.025 14.144512 
L 74.25 12.147405 
L 74.475 13.619701 
L 74.7 14.197718 
L 74.925 13.772326 
L 75.15 11.838498 
L 75.6 17.033615 
L 76.275 20.567484 
L 76.725 25.830627 
L 77.175 28.19787 
L 77.625 27.606593 
L 77.85 30.181903 
L 78.075 30.594568 
L 78.975 37.544689 
L 79.2 36.945446 
L 79.425 38.688717 
L 79.65 37.230682 
L 79.875 37.986931 
L 80.1 37.97439 
L 80.55 39.079344 
L 80.775 39.447176 
L 81 40.235736 
L 81.225 43.182544 
L 81.675 39.105378 
L 81.9 40.391461 
L 82.125 40.087736 
L 82.35 41.362744 
L 82.575 40.259216 
L 82.8 42.001692 
L 83.025 40.685197 
L 83.25 40.978423 
L 83.475 40.837181 
L 83.7 40.157512 
L 83.925 42.474292 
L 84.15 43.02696 
L 84.6 44.807315 
L 84.825 41.857348 
L 85.05 43.258385 
L 85.5 47.232105 
L 85.725 46.665042 
L 85.95 47.546702 
L 86.175 47.703697 
L 86.625 44.309819 
L 86.85 42.600388 
L 87.075 39.52712 
L 87.3 39.672895 
L 87.975 32.283604 
L 88.425 30.546057 
L 88.65 30.96804 
L 88.875 29.885607 
L 89.1 29.604603 
L 89.55 27.036363 
L 89.775 27.829676 
L 90.225 27.218498 
L 90.45 26.476875 
L 91.35 22.260335 
L 91.575 22.190392 
L 91.8 23.585395 
L 92.025 19.569374 
L 92.25 18.547974 
L 92.475 16.935396 
L 92.7 16.185442 
L 92.925 17.990254 
L 93.375 19.413995 
L 93.825 17.610413 
L 94.05 17.619086 
L 94.275 15.818663 
L 94.5 16.566496 
L 94.725 16.666986 
L 95.625 20.896578 
L 95.85 21.366915 
L 96.075 21.573839 
L 96.525 20.874855 
L 96.75 22.139527 
L 96.975 22.007704 
L 97.425 19.632012 
L 97.65 20.111952 
L 98.325 24.556445 
L 98.55 23.873407 
L 98.775 24.388216 
L 99 23.997931 
L 99.45 26.394619 
L 99.675 26.434124 
L 99.9 25.138177 
L 100.125 25.918827 
L 100.35 26.238118 
L 100.8 27.847937 
L 101.025 28.118649 
L 101.25 29.665104 
L 101.475 29.87519 
L 101.7 30.584475 
L 101.925 30.010697 
L 102.15 28.676667 
L 102.6 33.236652 
L 102.825 33.28953 
L 103.05 34.087306 
L 103.275 34.190881 
L 103.5 35.782421 
L 103.725 35.00898 
L 104.175 36.4686 
L 104.4 36.716204 
L 104.625 37.689232 
L 105.075 40.848076 
L 105.525 43.287383 
L 105.75 42.016046 
L 105.975 41.739898 
L 106.2 40.305055 
L 106.425 40.625428 
L 106.65 41.852497 
L 106.875 41.408471 
L 107.1 41.240917 
L 107.325 39.901915 
L 107.55 39.457589 
L 107.775 37.017976 
L 108 36.387494 
L 108.225 35.04025 
L 108.675 34.176361 
L 108.9 35.225314 
L 109.125 35.695336 
L 109.35 34.99571 
L 109.8 31.7402 
L 110.025 32.913206 
L 110.25 31.574317 
L 110.475 32.228522 
L 110.7 33.405341 
L 110.925 33.228656 
L 111.15 33.40544 
L 111.375 31.240911 
L 111.6 31.500959 
L 111.825 31.979316 
L 112.275 35.173286 
L 112.5 35.75358 
L 112.725 39.22849 
L 112.95 39.696684 
L 113.175 40.503989 
L 113.4 39.425301 
L 113.625 39.80798 
L 113.85 37.500121 
L 114.525 37.63209 
L 114.75 39.164949 
L 114.975 39.804117 
L 115.2 40.013601 
L 115.425 40.00525 
L 115.875 41.823811 
L 116.325 43.537262 
L 116.55 43.049137 
L 116.775 43.88836 
L 117 43.909363 
L 117.225 43.012109 
L 117.45 42.766939 
L 117.9 43.139843 
L 118.125 43.912033 
L 118.35 43.399056 
L 118.575 45.237151 
L 119.025 41.086898 
L 119.25 42.662688 
L 119.475 43.198353 
L 119.7 40.896431 
L 119.925 40.805811 
L 120.15 40.076696 
L 120.375 38.473589 
L 120.6 39.865171 
L 120.825 37.714802 
L 121.05 37.553974 
L 121.275 34.090379 
L 121.5 33.742932 
L 121.725 31.650307 
L 121.95 30.814435 
L 122.175 31.302582 
L 122.4 31.360734 
L 122.625 33.572003 
L 122.85 32.620052 
L 123.075 33.376934 
L 123.3 32.486428 
L 123.525 30.924387 
L 123.75 31.39067 
L 123.975 32.718102 
L 124.2 31.782397 
L 124.425 31.857273 
L 124.65 30.514348 
L 124.875 30.121904 
L 125.1 30.069551 
L 125.775 24.977605 
L 126 23.943308 
L 126.45 19.622585 
L 126.675 18.436444 
L 126.9 18.770246 
L 127.125 18.433712 
L 127.35 20.293934 
L 127.575 18.224371 
L 127.8 19.295951 
L 128.025 19.499528 
L 128.475 22.382526 
L 128.7 22.065709 
L 128.925 19.59819 
L 129.15 18.757523 
L 129.825 24.885545 
L 130.05 25.175089 
L 130.5 27.578862 
L 131.175 34.666827 
L 131.625 38.542758 
L 131.85 38.14071 
L 132.075 40.273073 
L 132.3 40.696206 
L 132.525 43.402218 
L 132.75 42.92867 
L 132.975 43.688232 
L 133.425 41.671553 
L 133.65 41.46999 
L 133.875 40.622644 
L 134.1 38.333718 
L 134.325 39.772362 
L 134.55 40.351769 
L 134.775 39.459674 
L 135 37.452512 
L 135.45 36.142959 
L 135.675 35.820133 
L 135.9 37.191374 
L 136.125 36.819772 
L 136.35 38.315242 
L 136.575 38.223862 
L 136.8 38.766933 
L 137.025 40.424201 
L 137.475 40.609329 
L 137.7 39.709704 
L 137.925 41.293324 
L 138.15 40.590406 
L 138.375 38.802716 
L 138.6 37.942198 
L 138.825 39.419734 
L 139.275 36.567899 
L 139.5 37.406872 
L 139.95 41.860353 
L 140.175 42.980664 
L 140.625 40.59071 
L 140.85 41.838958 
L 141.075 42.017115 
L 141.75 40.943584 
L 141.975 42.713218 
L 142.2 41.664028 
L 142.425 42.717833 
L 142.65 39.577754 
L 142.875 39.761098 
L 143.1 41.608973 
L 143.325 40.560955 
L 143.775 41.50583 
L 144 40.523099 
L 144.225 40.475053 
L 144.45 40.203449 
L 144.675 37.004655 
L 144.9 37.943649 
L 145.125 40.068284 
L 145.35 40.912125 
L 145.8 43.727295 
L 146.025 40.50738 
L 146.475 40.35587 
L 146.7 41.960647 
L 147.15 38.617153 
L 147.375 37.855446 
L 147.6 34.633469 
L 147.825 35.189656 
L 148.05 34.46348 
L 148.5 37.147979 
L 148.725 37.501491 
L 148.95 36.486717 
L 149.175 36.667893 
L 149.4 38.197651 
L 149.625 38.238398 
L 149.85 39.693051 
L 150.075 39.201741 
L 150.3 39.466854 
L 150.525 40.759424 
L 150.75 39.802932 
L 150.975 39.835465 
L 151.425 42.797037 
L 151.65 42.679422 
L 151.875 42.188167 
L 152.1 42.945844 
L 152.325 41.811676 
L 152.55 41.63565 
L 152.775 40.27692 
L 153 39.714675 
L 153.225 38.45935 
L 153.45 38.787158 
L 153.675 40.833029 
L 153.9 40.942045 
L 154.125 41.469087 
L 154.35 41.189319 
L 154.575 41.940195 
L 155.025 40.854207 
L 155.25 42.025061 
L 155.475 39.876715 
L 155.925 38.562528 
L 156.15 39.774203 
L 156.375 39.116067 
L 156.6 37.692549 
L 156.825 39.863692 
L 157.275 38.15797 
L 157.5 38.722008 
L 157.725 38.409446 
L 157.95 38.80798 
L 158.175 38.951819 
L 158.625 39.946216 
L 158.85 39.71477 
L 159.075 40.08567 
L 159.3 40.821099 
L 159.525 42.112921 
L 159.75 39.125595 
L 160.2 38.600644 
L 160.425 39.950223 
L 160.65 39.144447 
L 160.875 40.383498 
L 161.325 39.798445 
L 161.55 40.662171 
L 161.775 40.797465 
L 162 40.761161 
L 162.45 42.680479 
L 162.675 42.257026 
L 162.9 44.423172 
L 163.125 43.922672 
L 163.35 42.470724 
L 163.575 40.048899 
L 164.25 42.164235 
L 164.475 39.983198 
L 164.7 39.869136 
L 164.925 40.123056 
L 165.375 37.7161 
L 165.6 38.81063 
L 165.825 38.219585 
L 166.275 39.570817 
L 166.5 40.064725 
L 166.725 39.968259 
L 166.95 40.092253 
L 167.175 40.913377 
L 167.4 39.715566 
L 167.625 40.350002 
L 167.85 40.571086 
L 168.3 38.426778 
L 168.525 39.386348 
L 168.75 39.633638 
L 168.975 40.526295 
L 169.2 39.088134 
L 169.425 43.50771 
L 169.65 44.020116 
L 169.875 43.565909 
L 170.1 42.573882 
L 170.325 42.664198 
L 170.775 44.026761 
L 171 44.514622 
L 171.225 44.10284 
L 171.45 42.66981 
L 171.675 38.829026 
L 171.9 39.234662 
L 172.125 40.710004 
L 172.35 38.730725 
L 172.575 39.462454 
L 172.8 37.675802 
L 173.025 34.82023 
L 173.25 34.041889 
L 173.7 30.456048 
L 174.15 27.584674 
L 174.375 24.226645 
L 174.6 23.642306 
L 174.825 25.772772 
L 175.05 22.933254 
L 175.275 22.758765 
L 175.5 22.989117 
L 175.725 23.991441 
L 176.4 19.507186 
L 176.625 20.973728 
L 176.85 20.861824 
L 177.075 20.539412 
L 177.3 21.812212 
L 177.525 21.777991 
L 177.75 20.9807 
L 177.975 21.217277 
L 178.2 22.152452 
L 178.65 24.914431 
L 178.875 23.379241 
L 179.1 24.698487 
L 179.325 24.87335 
L 179.55 25.496815 
L 179.775 27.445396 
L 180 27.337298 
L 180.225 29.339775 
L 180.45 29.865781 
L 180.9 29.720133 
L 181.35 28.801958 
L 181.575 29.380037 
L 181.8 28.962214 
L 182.025 29.14578 
L 182.25 28.973654 
L 182.475 29.308156 
L 182.7 29.333045 
L 182.925 30.500815 
L 183.15 29.342219 
L 183.6 31.978107 
L 183.825 31.953537 
L 184.05 31.120821 
L 184.275 32.006936 
L 184.725 31.178316 
L 184.95 31.718684 
L 185.175 32.99409 
L 185.4 31.267308 
L 185.625 32.411939 
L 185.85 32.391036 
L 186.075 32.102542 
L 186.3 31.113536 
L 186.525 32.757035 
L 186.75 32.535471 
L 186.975 32.488628 
L 187.2 32.156952 
L 187.425 33.307602 
L 187.65 35.327446 
L 187.875 35.446239 
L 188.1 35.320067 
L 188.325 37.833195 
L 188.55 38.925873 
L 188.775 37.292899 
L 189 39.477952 
L 189.225 39.807492 
L 189.45 39.295728 
L 189.9 40.807216 
L 190.125 40.652809 
L 190.35 39.080105 
L 190.575 38.82427 
L 191.025 35.469582 
L 191.475 39.518449 
L 191.7 39.897446 
L 192.375 44.690467 
L 192.6 43.478233 
L 193.05 45.48687 
L 193.275 45.364064 
L 193.5 45.00009 
L 193.725 43.237447 
L 193.95 42.884593 
L 194.4 40.835714 
L 194.625 39.267712 
L 194.85 39.576259 
L 195.525 36.046947 
L 195.75 32.046184 
L 195.975 33.326994 
L 196.425 30.307724 
L 196.875 27.379084 
L 197.1 26.798319 
L 197.325 25.861673 
L 197.55 26.698029 
L 197.775 25.326126 
L 198 26.986671 
L 198.225 25.21469 
L 198.45 27.403575 
L 198.9 29.088721 
L 199.35 23.648631 
L 199.575 22.361741 
L 199.8 22.279192 
L 200.025 20.929085 
L 200.25 21.542897 
L 200.475 20.034667 
L 200.7 19.98446 
L 200.925 19.27665 
L 201.15 16.951219 
L 201.375 16.377683 
L 202.05 11.345737 
L 202.5 14.635749 
L 202.725 16.571373 
L 202.95 19.822615 
L 203.4 21.940584 
L 203.625 22.478233 
L 203.85 22.644462 
L 204.075 24.011248 
L 204.525 27.501411 
L 204.975 27.323751 
L 205.425 29.65068 
L 205.65 29.905926 
L 205.875 29.705927 
L 206.1 26.926787 
L 206.325 26.82353 
L 206.775 30.618901 
L 207 30.554834 
L 207.45 31.899932 
L 207.675 33.194332 
L 208.125 33.615768 
L 208.35 35.575546 
L 208.575 34.487779 
L 208.8 35.098787 
L 209.025 35.356858 
L 209.25 36.024046 
L 209.7 36.253487 
L 209.925 36.703305 
L 210.15 36.497922 
L 210.6 34.613924 
L 210.825 36.352188 
L 211.275 36.496403 
L 211.5 36.122442 
L 211.95 32.823233 
L 212.175 37.075001 
L 212.625 39.479045 
L 212.85 39.87921 
L 213.075 40.889119 
L 213.3 39.585249 
L 213.525 39.821778 
L 213.75 39.589615 
L 214.65 44.654041 
L 214.875 45.924578 
L 215.325 42.195102 
L 216 46.771651 
L 216.225 44.617862 
L 216.45 44.992561 
L 216.675 44.309143 
L 216.9 43.218466 
L 217.125 43.16692 
L 217.575 40.833747 
L 217.8 39.720415 
L 218.025 40.795559 
L 218.25 36.462515 
L 219.375 30.051946 
L 220.275 24.262908 
L 220.5 23.654758 
L 220.95 25.220676 
L 221.175 22.472513 
L 221.4 23.756527 
L 221.625 24.201807 
L 221.85 24.106015 
L 222.075 26.176083 
L 222.3 23.227801 
L 222.525 23.335106 
L 222.75 21.757 
L 222.975 21.811907 
L 223.2 21.469257 
L 223.425 19.190062 
L 223.65 18.746192 
L 223.875 17.863988 
L 224.1 17.678754 
L 224.325 14.936717 
L 224.775 20.596301 
L 225 19.552702 
L 225.225 20.327486 
L 225.45 18.965062 
L 225.675 19.279121 
L 225.9 21.603058 
L 226.125 21.686816 
L 226.35 24.000927 
L 226.575 28.21464 
L 226.8 28.866708 
L 227.025 29.039073 
L 227.25 30.454505 
L 227.475 30.422747 
L 227.7 29.765649 
L 227.925 30.192982 
L 228.15 31.352297 
L 228.375 30.065028 
L 228.825 33.818337 
L 229.275 33.543121 
L 229.5 33.939604 
L 229.725 34.033345 
L 229.95 35.963988 
L 230.175 36.073445 
L 230.4 37.562435 
L 230.625 37.467679 
L 230.85 39.241972 
L 231.075 39.250641 
L 231.3 39.391856 
L 231.525 41.191189 
L 231.75 41.637474 
L 232.2 38.833791 
L 232.65 38.716084 
L 232.875 38.459115 
L 233.1 36.906352 
L 233.325 36.680766 
L 233.55 37.118227 
L 233.775 38.343448 
L 234 37.851494 
L 234.225 37.666615 
L 234.45 35.752545 
L 234.9 38.998636 
L 235.125 38.193531 
L 235.35 36.671057 
L 235.575 39.590123 
L 235.8 40.955984 
L 236.25 40.1026 
L 236.7 41.542946 
L 236.925 43.020417 
L 237.375 38.362438 
L 237.6 39.244154 
L 238.05 38.814009 
L 238.5 40.691097 
L 238.725 43.944267 
L 238.95 44.144807 
L 239.175 42.425639 
L 239.625 42.721848 
L 239.85 43.843283 
L 240.075 41.944028 
L 240.3 42.51792 
L 240.525 42.75588 
L 240.75 42.350211 
L 240.975 41.672458 
L 241.2 39.882229 
L 241.425 40.922459 
L 241.875 39.422494 
L 242.1 40.02215 
L 242.325 41.298865 
L 242.55 40.269071 
L 242.775 40.091907 
L 243.225 36.267166 
L 243.45 36.342472 
L 243.675 35.19624 
L 244.125 37.461437 
L 244.35 36.537388 
L 244.575 37.946431 
L 244.8 37.792242 
L 245.025 39.748856 
L 245.475 37.849578 
L 245.7 35.132762 
L 245.925 34.551735 
L 246.15 34.985085 
L 246.375 35.922425 
L 246.6 37.495373 
L 247.05 34.132203 
L 247.275 31.252713 
L 247.5 30.052737 
L 247.725 30.82174 
L 247.95 27.695505 
L 248.175 29.931501 
L 248.625 26.735153 
L 248.85 27.049187 
L 249.075 25.298375 
L 249.3 24.480582 
L 249.525 26.724538 
L 249.75 24.545009 
L 249.975 24.237957 
L 250.2 23.487651 
L 250.425 23.29222 
L 250.875 24.774659 
L 251.55 20.38377 
L 251.775 20.754798 
L 252 19.42575 
L 252.225 20.061693 
L 252.45 19.711149 
L 252.675 20.395702 
L 252.9 21.814985 
L 253.125 22.068329 
L 253.35 24.570671 
L 253.8 24.989945 
L 254.025 25.897013 
L 254.25 25.806544 
L 254.475 25.151623 
L 254.7 27.679773 
L 254.925 26.861871 
L 255.15 28.459383 
L 255.6 29.47696 
L 256.05 30.961653 
L 256.275 32.261312 
L 256.5 32.657741 
L 256.725 32.432645 
L 256.95 34.041961 
L 257.175 34.142187 
L 257.4 35.772981 
L 257.625 36.062041 
L 257.85 34.972424 
L 258.075 36.603116 
L 258.3 37.05629 
L 258.75 35.29881 
L 258.975 35.677934 
L 259.2 35.518663 
L 259.425 37.64606 
L 259.65 37.49317 
L 259.875 37.860829 
L 260.1 37.420518 
L 260.325 38.660987 
L 260.775 37.952128 
L 261 35.967026 
L 261.225 36.658153 
L 261.45 38.742405 
L 261.675 39.154666 
L 261.9 39.804108 
L 262.125 39.808071 
L 262.35 41.670037 
L 262.575 40.456904 
L 262.8 39.948754 
L 263.025 38.376295 
L 263.25 38.492585 
L 263.475 39.245482 
L 263.925 41.529204 
L 264.15 40.861847 
L 264.375 41.600956 
L 264.825 41.285422 
L 265.05 42.312745 
L 265.275 41.691953 
L 265.5 41.986546 
L 265.725 42.918273 
L 265.95 42.784381 
L 266.175 43.409388 
L 266.4 43.57748 
L 266.625 42.74472 
L 266.85 43.762083 
L 267.075 43.57563 
L 267.3 44.719197 
L 267.525 44.15206 
L 267.75 45.129981 
L 267.975 44.618703 
L 268.425 41.823262 
L 268.65 43.020125 
L 268.875 42.843841 
L 269.325 39.002843 
L 269.55 37.996556 
L 269.775 37.519389 
L 270 37.311314 
L 270.225 34.873634 
L 270.45 33.710063 
L 270.675 33.957786 
L 270.9 33.117356 
L 271.125 34.738637 
L 271.575 34.647759 
L 271.8 31.950944 
L 272.25 29.494228 
L 272.475 29.86012 
L 272.925 28.160361 
L 273.15 28.124839 
L 273.375 29.45226 
L 273.6 29.511533 
L 273.825 29.060779 
L 274.05 26.765357 
L 274.275 27.024345 
L 274.5 28.970698 
L 274.725 28.091237 
L 274.95 28.655205 
L 275.175 26.97327 
L 275.4 26.377332 
L 275.625 25.174647 
L 275.85 24.686081 
L 276.3 20.783517 
L 276.525 22.805442 
L 276.75 20.963282 
L 276.975 20.053559 
L 277.2 19.622005 
L 277.425 17.635812 
L 277.65 17.408627 
L 277.875 16.609325 
L 278.1 16.512545 
L 278.325 13.937583 
L 278.55 14.965447 
L 278.775 18.299952 
L 279 18.009207 
L 279.225 21.196786 
L 279.45 22.475601 
L 279.675 24.76188 
L 279.9 23.431132 
L 280.125 24.411654 
L 280.35 25.922369 
L 280.8 24.765759 
L 281.025 26.4443 
L 281.25 26.478746 
L 281.475 26.965187 
L 281.7 26.440425 
L 281.925 27.311292 
L 282.15 27.059198 
L 282.6 27.53404 
L 282.825 28.08171 
L 283.05 27.18609 
L 283.275 27.530836 
L 283.5 28.5274 
L 283.95 32.190384 
L 284.175 33.669475 
L 284.4 33.788553 
L 284.625 33.240174 
L 284.85 35.817372 
L 285.075 37.048803 
L 285.3 37.400131 
L 285.75 35.747057 
L 285.975 36.418956 
L 286.2 36.113887 
L 286.425 35.524814 
L 286.65 35.421506 
L 287.325 38.876133 
L 287.55 38.453879 
L 287.775 37.566584 
L 288 35.635801 
L 288.225 38.490166 
L 288.45 37.994118 
L 288.9 38.973324 
L 289.125 37.570786 
L 289.35 37.615361 
L 289.575 38.56397 
L 289.8 36.927445 
L 290.025 37.730487 
L 290.475 40.355353 
L 290.7 39.916683 
L 290.925 38.517927 
L 291.15 39.118571 
L 291.375 38.992121 
L 291.6 38.58794 
L 291.825 39.236656 
L 292.275 35.664893 
L 292.5 33.348291 
L 292.725 35.096339 
L 292.95 37.725953 
L 293.175 38.127008 
L 293.4 38.111386 
L 293.85 40.740806 
L 294.075 40.040288 
L 294.3 41.149352 
L 294.525 39.31858 
L 294.75 40.365833 
L 294.975 40.459228 
L 295.425 45.132276 
L 295.65 45.201954 
L 296.1 44.434527 
L 296.325 43.475215 
L 296.55 44.955165 
L 296.775 44.95213 
L 297 44.27835 
L 297.225 44.305993 
L 297.45 44.842189 
L 297.9 43.775332 
L 298.575 39.814246 
L 299.025 36.732016 
L 299.25 37.853691 
L 299.475 36.014436 
L 299.7 35.342848 
L 300.825 25.104909 
L 301.05 25.186207 
L 301.275 24.557923 
L 301.5 25.137394 
L 301.725 24.671734 
L 301.95 20.194119 
L 302.175 18.309015 
L 302.4 18.630004 
L 302.625 19.603499 
L 302.85 19.231563 
L 303.075 18.435869 
L 303.3 16.673744 
L 303.525 16.586267 
L 303.75 16.046469 
L 303.975 17.35277 
L 304.2 19.968157 
L 304.425 18.519015 
L 304.65 20.131356 
L 304.875 20.327238 
L 305.1 21.938835 
L 305.325 21.620471 
L 305.55 25.067629 
L 305.775 26.452321 
L 306.225 24.92357 
L 306.45 26.533588 
L 306.675 27.193414 
L 306.9 29.122721 
L 307.125 28.827165 
L 307.35 29.955707 
L 307.575 28.42578 
L 307.8 29.974818 
L 308.025 30.175613 
L 308.25 31.698033 
L 308.7 32.046259 
L 309.375 35.543714 
L 309.6 34.011714 
L 310.275 39.172054 
L 310.5 37.926516 
L 310.725 37.745948 
L 310.95 37.278991 
L 311.175 37.175349 
L 311.4 36.52667 
L 311.625 36.794526 
L 311.85 36.814321 
L 312.3 39.393259 
L 312.525 41.841559 
L 312.75 41.249107 
L 312.975 40.998222 
L 313.425 42.033245 
L 313.65 42.820012 
L 314.1 40.268981 
L 314.325 42.103825 
L 314.55 42.435135 
L 314.775 39.350449 
L 315 38.936986 
L 315.225 38.118694 
L 315.45 39.444262 
L 315.675 37.119353 
L 315.9 36.727327 
L 316.125 38.909327 
L 316.35 37.722689 
L 316.8 41.437209 
L 317.025 41.409005 
L 317.25 40.817693 
L 317.475 39.771078 
L 317.7 40.502172 
L 317.925 40.10414 
L 318.15 40.579977 
L 318.375 41.793371 
L 318.6 41.599008 
L 318.825 42.067737 
L 319.05 40.932821 
L 319.275 41.318365 
L 319.5 42.618327 
L 319.725 42.127949 
L 319.95 42.400268 
L 320.175 41.556568 
L 320.4 41.375182 
L 320.85 43.033389 
L 321.075 42.538046 
L 321.3 42.529334 
L 321.75 44.191245 
L 321.975 42.585945 
L 322.2 44.529653 
L 322.425 43.757525 
L 322.65 43.656717 
L 322.875 42.840102 
L 323.55 37.677357 
L 323.775 36.82215 
L 324.225 33.206757 
L 324.675 33.814295 
L 324.9 32.290802 
L 325.125 33.494443 
L 325.8 27.492914 
L 326.25 23.154689 
L 326.475 23.258208 
L 326.925 20.957633 
L 327.15 18.437536 
L 327.375 18.997594 
L 327.6 20.55908 
L 327.825 20.670238 
L 328.05 20.301856 
L 328.275 21.70277 
L 328.5 20.177119 
L 328.725 20.104766 
L 328.95 20.734944 
L 329.175 20.807332 
L 329.85 26.120834 
L 330.075 28.554904 
L 330.3 27.911859 
L 330.525 29.553315 
L 330.75 29.782725 
L 330.975 28.82859 
L 331.2 28.91379 
L 331.425 29.867292 
L 331.65 29.405089 
L 332.1 32.784612 
L 332.325 32.69056 
L 332.55 31.834837 
L 332.775 31.878267 
L 333 33.667562 
L 333.45 34.701881 
L 333.675 34.148022 
L 333.9 34.425486 
L 334.125 35.956495 
L 334.35 36.198355 
L 334.575 35.30819 
L 334.8 36.179453 
L 335.025 36.278463 
L 335.25 36.087853 
L 335.475 36.637615 
L 335.7 35.301176 
L 335.925 34.909136 
L 336.15 35.762566 
L 336.375 37.258952 
L 336.6 37.331983 
L 336.825 39.210412 
L 337.05 39.896273 
L 337.275 39.466133 
L 337.5 37.714982 
L 337.725 38.855481 
L 337.95 40.870561 
L 338.175 41.825203 
L 338.4 43.344192 
L 338.625 43.773483 
L 339.075 45.625261 
L 339.3 45.741228 
L 339.525 44.811525 
L 339.75 45.525432 
L 339.975 43.666325 
L 340.2 42.971008 
L 340.425 41.186287 
L 340.65 43.110745 
L 341.1 39.7016 
L 341.325 40.212686 
L 341.55 37.71584 
L 341.775 36.853083 
L 342 37.393999 
L 342.225 36.934971 
L 342.675 32.479693 
L 343.125 25.739075 
L 343.35 26.040075 
L 343.8 25.377582 
L 344.25 22.48453 
L 344.475 20.651038 
L 344.7 20.196333 
L 345.15 21.89071 
L 345.375 19.319705 
L 345.6 19.183968 
L 346.05 22.029158 
L 346.5 22.400414 
L 346.725 22.371737 
L 347.175 24.720859 
L 347.85 30.332052 
L 348.075 31.018869 
L 348.3 30.801155 
L 348.525 32.421249 
L 348.975 31.319351 
L 349.425 34.904006 
L 349.65 35.20059 
L 350.1 36.362951 
L 350.325 33.758943 
L 350.55 36.514513 
L 350.775 37.781027 
L 351 38.282868 
L 351.225 38.008785 
L 351.45 39.91396 
L 351.675 40.367791 
L 351.9 39.699073 
L 352.125 40.354897 
L 352.35 39.290178 
L 352.8 43.46346 
L 353.025 42.959712 
L 353.25 40.98208 
L 353.475 40.909282 
L 353.7 40.30612 
L 353.925 40.172517 
L 354.15 41.138504 
L 354.6 39.11575 
L 354.825 39.689745 
L 355.05 37.165346 
L 355.5 36.087432 
L 355.725 36.033798 
L 355.95 39.036754 
L 356.175 38.831198 
L 356.4 39.513734 
L 356.625 41.445994 
L 356.85 41.441189 
L 357.075 38.900991 
L 357.3 38.548015 
L 357.525 36.960382 
L 357.75 37.596485 
L 357.975 36.168048 
L 358.2 36.925044 
L 358.425 38.373007 
L 359.1 37.032893 
L 359.325 39.588331 
L 359.775 41.905689 
L 360 41.605689 
L 360 41.605689 
" style="fill:none;stroke:#ff7f0e;stroke-linecap:square;stroke-width:0.5;"/>
   </g>
   <g id="line2d_3">
    <defs>
     <path d="M 0 1 
C 0.265203 1 0.51958 0.894634 0.707107 0.707107 
C 0.894634 0.51958 1 0.265203 1 0 
C 1 -0.265203 0.894634 -0.51958 0.707107 -0.707107 
C 0.51958 -0.894634 0.265203 -1 0 -1 
C -0.265203 -1 -0.51958 -0.894634 -0.707107 -0.707107 
C -0.894634 -0.51958 -1 -0.265203 -1 0 
C -1 0.265203 -0.894634 0.51958 -0.707107 0.707107 
C -0.51958 0.894634 -0.265203 1 0 1 
z
" id="mda784eb9ca" style="stroke:#ff0000;"/>
    </defs>
    <g clip-path="url(#p25cc7c13c2)">
     <use style="fill:#ff0000;stroke:#ff0000;" x="9" xlink:href="#mda784eb9ca" y="43.655872"/>
     <use style="fill:#ff0000;stroke:#ff0000;" x="18" xlink:href="#mda784eb9ca" y="41.284654"/>
     <use style="fill:#ff0000;stroke:#ff0000;" x="27" xlink:href="#mda784eb9ca" y="11.785658"/>
     <use style="fill:#ff0000;stroke:#ff0000;" x="36" xlink:href="#mda784eb9ca" y="49.748363"/>
     <use style="fill:#ff0000;stroke:#ff0000;" x="45" xlink:href="#mda784eb9ca" y="3.82307"/>
     <use style="fill:#ff0000;stroke:#ff0000;" x="54" xlink:href="#mda784eb9ca" y="52.350666"/>
     <use style="fill:#ff0000;stroke:#ff0000;" x="63" xlink:href="#mda784eb9ca" y="45.210634"/>
     <use style="fill:#ff0000;stroke:#ff0000;" x="72" xlink:href="#mda784eb9ca" y="11.801029"/>
     <use style="fill:#ff0000;stroke:#ff0000;" x="81" xlink:href="#mda784eb9ca" y="44.705777"/>
     <use style="fill:#ff0000;stroke:#ff0000;" x="90" xlink:href="#mda784eb9ca" y="8.914576"/>
     <use style="fill:#ff0000;stroke:#ff0000;" x="99" xlink:href="#mda784eb9ca" y="52.50079"/>
     <use style="fill:#ff0000;stroke:#ff0000;" x="108" xlink:href="#mda784eb9ca" y="42.985473"/>
     <use style="fill:#ff0000;stroke:#ff0000;" x="117" xlink:href="#mda784eb9ca" y="38.965364"/>
     <use style="fill:#ff0000;stroke:#ff0000;" x="126" xlink:href="#mda784eb9ca" y="10.124333"/>
     <use style="fill:#ff0000;stroke:#ff0000;" x="135" xlink:href="#mda784eb9ca" y="42.3785"/>
     <use style="fill:#ff0000;stroke:#ff0000;" x="144" xlink:href="#mda784eb9ca" y="39.863438"/>
     <use style="fill:#ff0000;stroke:#ff0000;" x="153" xlink:href="#mda784eb9ca" y="40.384654"/>
     <use style="fill:#ff0000;stroke:#ff0000;" x="162" xlink:href="#mda784eb9ca" y="42.571048"/>
     <use style="fill:#ff0000;stroke:#ff0000;" x="171" xlink:href="#mda784eb9ca" y="35.871587"/>
     <use style="fill:#ff0000;stroke:#ff0000;" x="180" xlink:href="#mda784eb9ca" y="51.262581"/>
     <use style="fill:#ff0000;stroke:#ff0000;" x="189" xlink:href="#mda784eb9ca" y="45.687301"/>
     <use style="fill:#ff0000;stroke:#ff0000;" x="198" xlink:href="#mda784eb9ca" y="10.133571"/>
     <use style="fill:#ff0000;stroke:#ff0000;" x="207" xlink:href="#mda784eb9ca" y="50.03053"/>
     <use style="fill:#ff0000;stroke:#ff0000;" x="216" xlink:href="#mda784eb9ca" y="32.812729"/>
     <use style="fill:#ff0000;stroke:#ff0000;" x="225" xlink:href="#mda784eb9ca" y="49.400916"/>
     <use style="fill:#ff0000;stroke:#ff0000;" x="234" xlink:href="#mda784eb9ca" y="45.37888"/>
     <use style="fill:#ff0000;stroke:#ff0000;" x="243" xlink:href="#mda784eb9ca" y="5.728957"/>
     <use style="fill:#ff0000;stroke:#ff0000;" x="252" xlink:href="#mda784eb9ca" y="17.467334"/>
     <use style="fill:#ff0000;stroke:#ff0000;" x="261" xlink:href="#mda784eb9ca" y="45.80096"/>
     <use style="fill:#ff0000;stroke:#ff0000;" x="270" xlink:href="#mda784eb9ca" y="4.260781"/>
     <use style="fill:#ff0000;stroke:#ff0000;" x="279" xlink:href="#mda784eb9ca" y="53.166314"/>
     <use style="fill:#ff0000;stroke:#ff0000;" x="288" xlink:href="#mda784eb9ca" y="45.854823"/>
     <use style="fill:#ff0000;stroke:#ff0000;" x="297" xlink:href="#mda784eb9ca" y="29.632842"/>
     <use style="fill:#ff0000;stroke:#ff0000;" x="306" xlink:href="#mda784eb9ca" y="51.859826"/>
     <use style="fill:#ff0000;stroke:#ff0000;" x="315" xlink:href="#mda784eb9ca" y="41.111531"/>
     <use style="fill:#ff0000;stroke:#ff0000;" x="324" xlink:href="#mda784eb9ca" y="4.709183"/>
     <use style="fill:#ff0000;stroke:#ff0000;" x="333" xlink:href="#mda784eb9ca" y="48.748877"/>
     <use style="fill:#ff0000;stroke:#ff0000;" x="342" xlink:href="#mda784eb9ca" y="4.454425"/>
     <use style="fill:#ff0000;stroke:#ff0000;" x="351" xlink:href="#mda784eb9ca" y="46.375158"/>
     <use style="fill:#ff0000;stroke:#ff0000;" x="360" xlink:href="#mda784eb9ca" y="43.635141"/>
    </g>
   </g>
   <g id="legend_1">
    <g id="line2d_4">
     <path d="M 245.6 62.6649 
L 255.6 62.6649 
" style="fill:none;stroke:#1f77b4;stroke-linecap:square;stroke-width:0.5;"/>
    </g>
    <g id="line2d_5"/>
    <g id="text_2">
     <!-- $\mathrm{\sf x}_{0,\tau}$ -->
     <defs>
      <path d="M 0 0 
L 19.1875 22.90625 
L 0.59375 44.390625 
L 9.421875 44.390625 
L 22.703125 28.328125 
L 35.59375 44.390625 
L 44.28125 44.390625 
L 26.21875 22.90625 
L 46 0 
L 37.203125 0 
L 22.703125 18.5 
L 8.6875 0 
z
" id="Cmss10-120"/>
      <path d="M 25 -2.203125 
Q 12.75 -2.203125 8.328125 7.875 
Q 3.90625 17.96875 3.90625 31.890625 
Q 3.90625 40.578125 5.484375 48.234375 
Q 7.078125 55.90625 11.78125 61.25 
Q 16.5 66.609375 25 66.609375 
Q 31.59375 66.609375 35.78125 63.375 
Q 39.984375 60.15625 42.1875 55.046875 
Q 44.390625 49.953125 45.1875 44.109375 
Q 46 38.28125 46 31.890625 
Q 46 23.296875 44.40625 15.796875 
Q 42.828125 8.296875 38.1875 3.046875 
Q 33.546875 -2.203125 25 -2.203125 
z
M 25 0.390625 
Q 30.5625 0.390625 33.296875 6.09375 
Q 36.03125 11.8125 36.671875 18.75 
Q 37.3125 25.6875 37.3125 33.5 
Q 37.3125 41.015625 36.671875 47.359375 
Q 36.03125 53.71875 33.3125 58.859375 
Q 30.609375 64.015625 25 64.015625 
Q 19.34375 64.015625 16.609375 58.828125 
Q 13.875 53.65625 13.234375 47.328125 
Q 12.59375 41.015625 12.59375 33.5 
Q 12.59375 27.9375 12.859375 23 
Q 13.140625 18.0625 14.3125 12.8125 
Q 15.484375 7.5625 18.09375 3.96875 
Q 20.703125 0.390625 25 0.390625 
z
" id="Cmr10-48"/>
      <path d="M 9.90625 -18.015625 
Q 9.90625 -17.578125 10.296875 -17.1875 
Q 13.921875 -13.71875 15.921875 -9.171875 
Q 17.921875 -4.640625 17.921875 0.390625 
L 17.921875 1.609375 
Q 16.3125 0 13.921875 0 
Q 11.625 0 10.015625 1.609375 
Q 8.40625 3.21875 8.40625 5.515625 
Q 8.40625 7.859375 10.015625 9.421875 
Q 11.625 10.984375 13.921875 10.984375 
Q 17.484375 10.984375 19 7.6875 
Q 20.515625 4.390625 20.515625 0.390625 
Q 20.515625 -5.171875 18.28125 -10.171875 
Q 16.0625 -15.1875 12.015625 -19.1875 
Q 11.625 -19.390625 11.375 -19.390625 
Q 10.890625 -19.390625 10.390625 -18.9375 
Q 9.90625 -18.5 9.90625 -18.015625 
z
" id="Cmmi10-59"/>
     </defs>
     <g transform="translate(260.6 66.1649)scale(0.1 -0.1)">
      <use transform="translate(0 0.609375)" xlink:href="#Cmss10-120"/>
      <use transform="translate(50.557891 -16.396875)scale(0.7)" xlink:href="#Cmr10-48"/>
      <use transform="translate(85.557891 -16.396875)scale(0.7)" xlink:href="#Cmmi10-59"/>
      <use transform="translate(117.228789 -16.396875)scale(0.7)" xlink:href="#Cmmi10-191"/>
     </g>
    </g>
    <g id="line2d_6">
     <path d="M 286.1 62.6649 
L 296.1 62.6649 
" style="fill:none;stroke:#ff7f0e;stroke-linecap:square;stroke-width:0.5;"/>
    </g>
    <g id="line2d_7"/>
    <g id="text_3">
     <!-- $\mathrm{\sf x}_{1,\tau}$ -->
     <defs>
      <path d="M 9.28125 0 
L 9.28125 3.515625 
Q 21.78125 3.515625 21.78125 6.6875 
L 21.78125 59.1875 
Q 16.609375 56.6875 8.6875 56.6875 
L 8.6875 60.203125 
Q 20.953125 60.203125 27.203125 66.609375 
L 28.609375 66.609375 
Q 28.953125 66.609375 29.265625 66.328125 
Q 29.59375 66.0625 29.59375 65.71875 
L 29.59375 6.6875 
Q 29.59375 3.515625 42.09375 3.515625 
L 42.09375 0 
z
" id="Cmr10-49"/>
     </defs>
     <g transform="translate(301.1 66.1649)scale(0.1 -0.1)">
      <use transform="translate(0 0.609375)" xlink:href="#Cmss10-120"/>
      <use transform="translate(50.557891 -16.396875)scale(0.7)" xlink:href="#Cmr10-49"/>
      <use transform="translate(85.557891 -16.396875)scale(0.7)" xlink:href="#Cmmi10-59"/>
      <use transform="translate(117.228789 -16.396875)scale(0.7)" xlink:href="#Cmmi10-191"/>
     </g>
    </g>
    <g id="line2d_8"/>
    <g id="line2d_9">
     <g>
      <use style="fill:#ff0000;stroke:#ff0000;" x="331.6" xlink:href="#mda784eb9ca" y="62.6649"/>
     </g>
    </g>
    <g id="text_4">
     <!-- $\mathrm{\sf y}_{\tt t}$ -->
     <defs>
      <path d="M 4.296875 -19.671875 
L 3.71875 -12.796875 
Q 7.5625 -14.40625 12.015625 -14.40625 
Q 14.109375 -14.40625 15.453125 -12.078125 
Q 16.796875 -9.765625 18.015625 -6.5 
L 20.609375 0 
L 1.421875 44.390625 
L 9.71875 44.390625 
Q 13.28125 36.234375 16.359375 28.765625 
Q 19.4375 21.296875 21.5625 14.890625 
Q 23.6875 8.5 23.6875 5.421875 
Q 23.734375 8.546875 25.734375 15.0625 
Q 27.734375 21.578125 30.703125 29.296875 
Q 33.6875 37.015625 36.71875 44.390625 
L 44.578125 44.390625 
L 24.21875 -6.5 
Q 22.265625 -11.1875 21.046875 -13.625 
Q 19.828125 -16.0625 17.484375 -18.28125 
Q 15.140625 -20.515625 12.015625 -20.515625 
Q 11.375 -20.515625 8.046875 -20.265625 
Q 4.734375 -20.015625 4.296875 -19.671875 
z
" id="Cmss10-121"/>
      <path d="M 15.09375 12.796875 
L 15.09375 36.625 
L 5.328125 36.625 
Q 2.78125 36.921875 2.484375 39.40625 
L 2.484375 40.28125 
Q 2.78125 42.828125 5.328125 43.109375 
L 15.09375 43.109375 
L 15.09375 52.59375 
Q 15.375 55.03125 17.921875 55.421875 
L 19.578125 55.421875 
Q 22.125 55.03125 22.40625 52.59375 
L 22.40625 43.109375 
L 39.796875 43.109375 
Q 41.015625 42.96875 41.71875 42.234375 
Q 42.4375 41.5 42.578125 40.28125 
L 42.578125 39.40625 
Q 42.28125 36.921875 39.796875 36.625 
L 22.40625 36.625 
L 22.40625 13.1875 
Q 22.40625 5.90625 29.984375 5.90625 
Q 33.0625 5.90625 35.328125 8 
Q 37.59375 10.109375 37.59375 13.1875 
L 37.59375 13.71875 
Q 37.75 14.890625 38.46875 15.625 
Q 39.203125 16.359375 40.375 16.5 
L 42.09375 16.5 
Q 44.53125 16.21875 44.921875 13.71875 
L 44.921875 12.796875 
Q 44.921875 8.796875 42.640625 5.734375 
Q 40.375 2.6875 36.8125 1.046875 
Q 33.25 -0.59375 29.296875 -0.59375 
Q 25.140625 -0.59375 21.96875 1 
Q 18.796875 2.59375 16.9375 5.640625 
Q 15.09375 8.6875 15.09375 12.796875 
z
" id="Cmtt10-116"/>
     </defs>
     <g transform="translate(341.6 66.1649)scale(0.1 -0.1)">
      <use transform="translate(0 0.609375)" xlink:href="#Cmss10-121"/>
      <use transform="translate(50.557891 -16.396875)scale(0.7)" xlink:href="#Cmtt10-116"/>
     </g>
    </g>
   </g>
  </g>
 </g>
 <defs>
  <clipPath id="p25cc7c13c2">
   <rect height="57.974" width="360" x="0" y="0"/>
  </clipPath>
 </defs>
</svg>
