<?xml version="1.0" encoding="UTF-8" standalone="no"?>
<!-- Created with Inkscape (http://www.inkscape.org/) -->

<svg
   xmlns:dc="http://purl.org/dc/elements/1.1/"
   xmlns:cc="http://creativecommons.org/ns#"
   xmlns:rdf="http://www.w3.org/1999/02/22-rdf-syntax-ns#"
   xmlns:svg="http://www.w3.org/2000/svg"
   xmlns="http://www.w3.org/2000/svg"
   xmlns:sodipodi="http://sodipodi.sourceforge.net/DTD/sodipodi-0.dtd"
   xmlns:inkscape="http://www.inkscape.org/namespaces/inkscape"
   width="91.67923mm"
   height="78.247734mm"
   viewBox="0 0 91.67923 78.247734"
   version="1.1"
   id="svg843"
   inkscape:version="0.92.5 (2060ec1f9f, 2020-04-08)"
   sodipodi:docname="pyro-logo.svg">
  <defs
     id="defs837" />
  <sodipodi:namedview
     id="base"
     pagecolor="#ffffff"
     bordercolor="#666666"
     borderopacity="1.0"
     inkscape:pageopacity="0.0"
     inkscape:pageshadow="2"
     inkscape:zoom="1.979899"
     inkscape:cx="253.76884"
     inkscape:cy="114.27619"
     inkscape:document-units="mm"
     inkscape:current-layer="g817"
     showgrid="false"
     fit-margin-top="0"
     fit-margin-left="0"
     fit-margin-right="0"
     fit-margin-bottom="0"
     inkscape:window-width="1920"
     inkscape:window-height="1029"
     inkscape:window-x="0"
     inkscape:window-y="27"
     inkscape:window-maximized="1" />
  <metadata
     id="metadata840">
    <rdf:RDF>
      <cc:Work
         rdf:about="">
        <dc:format>image/svg+xml</dc:format>
        <dc:type
           rdf:resource="http://purl.org/dc/dcmitype/StillImage" />
        <dc:title></dc:title>
      </cc:Work>
    </rdf:RDF>
  </metadata>
  <g
     inkscape:label="Layer 1"
     inkscape:groupmode="layer"
     id="layer1"
     transform="translate(-41.094914,-63.596372)">
    <g
       transform="matrix(0.26458333,0,0,0.26458333,40.740892,63.576371)"
       id="g817">
      <path
         style="fill:#fcca0f"
         d="m 163.29732,294.58655 c 9.65218,-3.5164 15.86574,-10.60088 19.37137,-22.08655 1.73121,-5.67203 1.83131,-12.50482 1.83131,-125 v -119 l -2.64796,-5.647962 c -3.08239,-6.574569 -9.006,-12.8696114 -14.97642,-15.9154935 -3.71066,-1.8930384 -5.45688,-2.0987141 -14.79149,-1.7421922 -8.28465,0.31642 -11.46292,0.8640521 -14.62908,2.5206606 -5.47344,2.8638361 -12.06702,10.2249391 -13.37356,14.9302881 -0.71165,2.562944 -1.07221,26.528664 -1.07591,71.515605 -0.005,63.588014 -0.11962,68.027334 -1.90014,73.748134 -4.11978,13.23687 -15.26838,25.14387 -30.5674,32.64678 C 79.231314,206.10083 71.815801,208 61.471402,208 47.233185,208 37.754851,203.54349 32.316863,194.29216 29.899425,190.17952 29.5,188.42916 29.5,181.94814 c 0,-6.7547 0.409156,-8.37974 3.8761,-15.39462 6.817509,-13.79429 17.522994,-22.69553 37.989044,-31.58657 C 87.310359,128.03989 95.619598,118.86696 101.68096,101.5 l 2.79213,-8 0.33217,-34.647636 0.33218,-34.647636 -2.5343,-5.001183 C 97.691602,9.5110826 89.015909,5 75.286953,5 63.378758,5 48.34422,11.251267 44.935895,17.619781 c -1.277103,2.386289 -1.223073,2.764809 0.577606,4.046554 10.180514,7.246616 11.485462,8.586229 14.672228,15.061994 2.877542,5.847395 3.310954,7.729579 3.289096,14.283598 -0.02066,6.193657 -0.52439,8.569091 -2.806151,13.232842 C 50.873985,84.264393 24.330857,88.01619 9.1335957,71.529108 3.8887583,65.839131 2.3968222,62.403511 1.5214891,54 0.67414558,45.865199 2.8258299,34.927994 6.6591147,27.884987 11.719566,18.587271 23.58727,9.809241 37.724701,4.9071105 51.440102,0.15131806 55.583004,-0.00298091 167,0.09235928 c 95.61906,0.08182179 105.36702,0.2412565 114.70207,1.87603112 17.94794,3.1430841 35.86196,13.7999846 46.16361,27.4623346 5.09225,6.753499 12.17882,21.482335 14.46739,30.069275 5.16,19.360774 6.96388,47.00773 4.2592,65.27809 -6.00232,40.54626 -30.82976,73.67667 -62.00345,82.73911 -6.05669,1.76073 -13.19539,2.3347 -30.19269,2.42759 L 244.29226,210 l -0.59832,26.25 c -0.63085,27.67762 -1.69705,35.84895 -5.72733,43.89398 -2.79589,5.58101 -7.40202,10.45577 -12.46661,13.19365 -3.82447,2.06748 -5.36036,2.17268 -35,2.39735 -27.38059,0.20754 -30.55664,0.0734 -27.20268,-1.14843 z m 111.61673,-91.5427 c 4.36536,-2.22704 8.37369,-6.61936 10.87297,-11.91457 C 287.36119,187.79409 287.5,180.80913 287.5,104.9295 V 22.358998 l -3,-5.800354 C 278.31529,4.6008 268.03051,1.3255915 255.66425,7.3758388 c -7.00021,3.4248842 -11.10702,8.6230022 -12.63761,15.9958452 -0.74106,3.569651 -0.99637,30.401249 -0.80572,84.676876 0.2659,75.69798 0.36872,79.63193 2.17645,83.27189 5.75129,11.58049 20.03833,17.06905 30.51668,11.7234 z"
         id="path823"
         inkscape:connector-curvature="0" />
      <path
         style="fill:#f16621"
         d="m 232.11298,207.45536 c -9.6541,-2.09443 -15.25446,-4.17015 -21.73428,-8.0556 -11.27715,-6.76204 -17.76483,-14.9874 -22.20766,-28.15582 L 185.55835,163.5 185.02918,96 184.5,28.5 181.89889,22.954369 C 178.46859,15.64091 174.279,11.013974 167.98551,7.5886312 163.07066,4.913632 162.34196,4.8032089 152.16666,5.1915273 143.8006,5.5108 140.62758,6.0550695 137.45505,7.7150129 131.98161,10.578849 125.38803,17.939952 124.08149,22.645301 c -0.71165,2.562944 -1.07221,26.528664 -1.07591,71.515605 -0.005,63.588014 -0.11962,68.027334 -1.90014,73.748134 -4.11978,13.23687 -15.26838,25.14387 -30.5674,32.64678 C 79.231314,206.10083 71.815801,208 61.471402,208 47.233185,208 37.754851,203.54349 32.316863,194.29216 29.899425,190.17952 29.5,188.42916 29.5,181.94814 c 0,-6.7547 0.409156,-8.37974 3.8761,-15.39462 6.817509,-13.79429 17.522994,-22.69553 37.989044,-31.58657 C 87.310359,128.03989 95.619598,118.86696 101.68096,101.5 l 2.79213,-8 0.33217,-34.647636 0.33218,-34.647636 -2.5343,-5.001183 C 97.691602,9.5110826 89.015909,5 75.286953,5 63.378758,5 48.34422,11.251267 44.935895,17.619781 c -1.277103,2.386289 -1.223073,2.764809 0.577606,4.046554 10.180514,7.246616 11.485462,8.586229 14.672228,15.061994 2.877542,5.847395 3.310954,7.729579 3.289096,14.283598 -0.02066,6.193657 -0.52439,8.569091 -2.806151,13.232842 C 50.873985,84.264393 24.330857,88.01619 9.1335957,71.529108 3.8887583,65.839131 2.3968222,62.403511 1.5214891,54 0.67414558,45.865199 2.8258299,34.927994 6.6591147,27.884987 14.122192,14.172855 33.114601,3.846449 56.032715,1.0399547 67.244398,-0.33299968 265.40349,-0.03696731 268.25,1.3569888 c 2.95822,1.4486625 1.97095,2.3382606 -3.28592,2.9608599 -10.05043,1.1903241 -19.43955,8.6916063 -22.02126,17.5935153 -0.69439,2.394321 -0.94126,30.738495 -0.74179,85.167556 l 0.29897,81.57892 3.03591,4.92108 c 3.68776,5.97769 11.41167,10.95112 18.52739,11.92979 5.27148,0.72501 6.35433,1.87812 2.6867,2.861 -4.1694,1.11736 -28.19551,0.48311 -34.63702,-0.91435 z"
         id="path821"
         inkscape:connector-curvature="0" />
      <path
         style="fill:#ec1f23"
         d="m 50,205.39536 c -7.128669,-1.90922 -12.305587,-5.38893 -15.741462,-10.58078 -2.293903,-3.46624 -2.818308,-5.48221 -3.113394,-11.96881 -0.31704,-6.96919 -0.04009,-8.46893 2.598858,-14.07312 5.688595,-12.08057 16.218126,-22.353 29.009556,-28.30122 20.337825,-9.45742 22.026183,-10.46621 27.609131,-16.49646 6.227228,-6.72615 11.664631,-17.05047 14.214621,-26.990135 2.49683,-9.732459 3.30817,-66.442528 1.06046,-74.123162 C 103.72521,16.32624 99.400455,10.907832 93.17638,7.2490094 88.74896,4.6463509 87.834529,4.5 76,4.5 c -14.643465,0 -20.691397,1.8355082 -28.397094,8.618334 -6.312,5.556045 -6.172538,7.816127 0.755792,12.248126 8.953343,5.727385 13.58399,14.127351 13.61934,24.705401 0.04206,12.584374 -5.822676,22.258758 -16.727949,27.594211 C 34.772738,82.792162 20.208225,80.66835 11.868407,72.798322 5.6979321,66.975436 3.6627795,62.406022 3.1849299,53.301797 2.1312882,33.227305 10.098986,19.514806 28.077851,10.460795 34.976367,6.986758 47.6151,3 51.729901,3 52.978455,3 54,2.55 54,2 c 0,-1.10286072 90.72314,-1.43697558 97.25,-0.358152 5.86569,0.9695383 4.40069,2.357135 -2.5,2.3679209 -7.64439,0.011948 -14.58579,3.0112556 -19.95117,8.6206991 -7.10515,7.428341 -6.79819,3.928323 -6.80462,77.587413 -0.003,38.246759 -0.41783,68.798309 -0.97994,72.230969 -1.50231,9.17421 -5.43328,16.12764 -13.93447,24.64843 C 91.611188,202.60158 67.922605,210.19543 50,205.39536 Z"
         id="path819"
         inkscape:connector-curvature="0" />
    </g>
  </g>
</svg>
