<?xml version="1.0" encoding="UTF-8" standalone="no"?>
<!-- Created with Inkscape (http://www.inkscape.org/) -->

<svg
   xmlns:ns0="http://www.iki.fi/pav/software/textext/"
   xmlns:dc="http://purl.org/dc/elements/1.1/"
   xmlns:cc="http://creativecommons.org/ns#"
   xmlns:rdf="http://www.w3.org/1999/02/22-rdf-syntax-ns#"
   xmlns:svg="http://www.w3.org/2000/svg"
   xmlns="http://www.w3.org/2000/svg"
   xmlns:xlink="http://www.w3.org/1999/xlink"
   xmlns:sodipodi="http://sodipodi.sourceforge.net/DTD/sodipodi-0.dtd"
   xmlns:inkscape="http://www.inkscape.org/namespaces/inkscape"
   width="150.14223mm"
   height="113.45333mm"
   viewBox="0 0 532.00002 401.99999"
   id="svg2"
   version="1.1"
   inkscape:version="0.91 r13725"
   sodipodi:docname="constrained-step-0.svg">
  <sodipodi:namedview
     id="base"
     pagecolor="#ffffff"
     bordercolor="#666666"
     borderopacity="1.0"
     inkscape:pageopacity="0.0"
     inkscape:pageshadow="2"
     inkscape:zoom="0.98994949"
     inkscape:cx="254.78594"
     inkscape:cy="202.42743"
     inkscape:document-units="px"
     inkscape:current-layer="g11376"
     showgrid="true"
     inkscape:object-nodes="true"
     inkscape:snap-object-midpoints="true"
     inkscape:window-width="1366"
     inkscape:window-height="695"
     inkscape:window-x="0"
     inkscape:window-y="27"
     inkscape:window-maximized="1"
     inkscape:snap-global="true"
     showguides="false"
     fit-margin-top="0"
     fit-margin-left="0"
     fit-margin-right="0"
     fit-margin-bottom="0">
    <inkscape:grid
       id="grid4136"
       type="xygrid"
       originx="-59.000002"
       originy="-219.00002" />
  </sodipodi:namedview>
  <defs
     id="defs4">
    <marker
       inkscape:isstock="true"
       style="overflow:visible"
       id="marker11372"
       refX="0"
       refY="0"
       orient="auto"
       inkscape:stockid="Arrow1Mstart">
      <path
         transform="matrix(0.4,0,0,0.4,4,0)"
         style="fill:#ff0000;fill-opacity:1;fill-rule:evenodd;stroke:#ff0000;stroke-width:1pt;stroke-opacity:1"
         d="M 0,0 5,-5 -12.5,0 5,5 0,0 Z"
         id="path11374"
         inkscape:connector-curvature="0" />
    </marker>
    <marker
       inkscape:stockid="Arrow1Mend"
       orient="auto"
       refY="0"
       refX="0"
       id="marker10803"
       style="overflow:visible"
       inkscape:isstock="true">
      <path
         id="path10805"
         d="M 0,0 5,-5 -12.5,0 5,5 0,0 Z"
         style="fill:#ff0000;fill-opacity:1;fill-rule:evenodd;stroke:#ff0000;stroke-width:1pt;stroke-opacity:1"
         transform="matrix(-0.4,0,0,-0.4,-4,0)"
         inkscape:connector-curvature="0" />
    </marker>
    <marker
       inkscape:stockid="TriangleInL"
       orient="auto"
       refY="0"
       refX="0"
       id="marker18925"
       style="overflow:visible"
       inkscape:isstock="true">
      <path
         id="path18927"
         d="m 5.77,0 -8.65,5 0,-10 8.65,5 z"
         style="fill:#000000;fill-opacity:1;fill-rule:evenodd;stroke:#000000;stroke-width:1pt;stroke-opacity:1"
         transform="scale(-0.8,-0.8)"
         inkscape:connector-curvature="0" />
    </marker>
    <marker
       inkscape:isstock="true"
       style="overflow:visible"
       id="marker13458"
       refX="0"
       refY="0"
       orient="auto"
       inkscape:stockid="Arrow1Mstart">
      <path
         transform="matrix(0.4,0,0,0.4,4,0)"
         style="fill:#ff0000;fill-opacity:1;fill-rule:evenodd;stroke:#ff0000;stroke-width:1pt;stroke-opacity:1"
         d="M 0,0 5,-5 -12.5,0 5,5 0,0 Z"
         id="path13460"
         inkscape:connector-curvature="0" />
    </marker>
    <marker
       inkscape:isstock="true"
       style="overflow:visible"
       id="marker13232"
       refX="0"
       refY="0"
       orient="auto"
       inkscape:stockid="Arrow1Mend">
      <path
         transform="matrix(-0.4,0,0,-0.4,-4,0)"
         style="fill:#ff0000;fill-opacity:1;fill-rule:evenodd;stroke:#ff0000;stroke-width:1pt;stroke-opacity:1"
         d="M 0,0 5,-5 -12.5,0 5,5 0,0 Z"
         id="path13234"
         inkscape:connector-curvature="0" />
    </marker>
    <marker
       inkscape:stockid="Arrow1Mend"
       orient="auto"
       refY="0"
       refX="0"
       id="marker12882"
       style="overflow:visible"
       inkscape:isstock="true">
      <path
         id="path12884"
         d="M 0,0 5,-5 -12.5,0 5,5 0,0 Z"
         style="fill:#ff0000;fill-opacity:1;fill-rule:evenodd;stroke:#ff0000;stroke-width:1pt;stroke-opacity:1"
         transform="matrix(-0.4,0,0,-0.4,-4,0)"
         inkscape:connector-curvature="0" />
    </marker>
    <marker
       inkscape:isstock="true"
       style="overflow:visible"
       id="TriangleOutL"
       refX="0"
       refY="0"
       orient="auto"
       inkscape:stockid="TriangleOutL">
      <path
         transform="scale(0.8,0.8)"
         style="fill:#000000;fill-opacity:1;fill-rule:evenodd;stroke:#000000;stroke-width:1pt;stroke-opacity:1"
         d="m 5.77,0 -8.65,5 0,-10 8.65,5 z"
         id="path4369"
         inkscape:connector-curvature="0" />
    </marker>
    <marker
       inkscape:isstock="true"
       style="overflow:visible"
       id="Arrow2Lend"
       refX="0"
       refY="0"
       orient="auto"
       inkscape:stockid="Arrow2Lend">
      <path
         transform="matrix(-1.1,0,0,-1.1,-1.1,0)"
         d="M 8.7185878,4.0337352 -2.2072895,0.01601326 8.7185884,-4.0017078 c -1.7454984,2.3720609 -1.7354408,5.6174519 -6e-7,8.035443 z"
         style="fill:#000000;fill-opacity:1;fill-rule:evenodd;stroke:#000000;stroke-width:0.625;stroke-linejoin:round;stroke-opacity:1"
         id="path4248"
         inkscape:connector-curvature="0" />
    </marker>
    <marker
       inkscape:stockid="TriangleInL"
       orient="auto"
       refY="0"
       refX="0"
       id="marker5174"
       style="overflow:visible"
       inkscape:isstock="true">
      <path
         id="path5176"
         d="m 5.77,0 -8.65,5 0,-10 8.65,5 z"
         style="fill:#000000;fill-opacity:1;fill-rule:evenodd;stroke:#000000;stroke-width:1pt;stroke-opacity:1"
         transform="scale(-0.8,-0.8)"
         inkscape:connector-curvature="0" />
    </marker>
    <marker
       inkscape:stockid="TriangleInL"
       orient="auto"
       refY="0"
       refX="0"
       id="marker5128"
       style="overflow:visible"
       inkscape:isstock="true">
      <path
         id="path5130"
         d="m 5.77,0 -8.65,5 0,-10 8.65,5 z"
         style="fill:#000000;fill-opacity:1;fill-rule:evenodd;stroke:#000000;stroke-width:1pt;stroke-opacity:1"
         transform="scale(-0.8,-0.8)"
         inkscape:connector-curvature="0" />
    </marker>
    <marker
       inkscape:stockid="Arrow1Lend"
       orient="auto"
       refY="0"
       refX="0"
       id="marker4960"
       style="overflow:visible"
       inkscape:isstock="true">
      <path
         id="path4962"
         d="M 0,0 5,-5 -12.5,0 5,5 0,0 Z"
         style="fill:#000000;fill-opacity:1;fill-rule:evenodd;stroke:#000000;stroke-width:1pt;stroke-opacity:1"
         transform="matrix(-0.8,0,0,-0.8,-10,0)"
         inkscape:connector-curvature="0" />
    </marker>
    <marker
       inkscape:stockid="Arrow1Lstart"
       orient="auto"
       refY="0"
       refX="0"
       id="marker4588"
       style="overflow:visible"
       inkscape:isstock="true">
      <path
         id="path4590"
         d="M 0,0 5,-5 -12.5,0 5,5 0,0 Z"
         style="fill:#000000;fill-opacity:1;fill-rule:evenodd;stroke:#000000;stroke-width:1pt;stroke-opacity:1"
         transform="matrix(0.8,0,0,0.8,10,0)"
         inkscape:connector-curvature="0" />
    </marker>
  </defs>
  <metadata
     id="metadata7">
    <rdf:RDF>
      <cc:Work
         rdf:about="">
        <dc:format>image/svg+xml</dc:format>
        <dc:type
           rdf:resource="http://purl.org/dc/dcmitype/StillImage" />
        <dc:title></dc:title>
      </cc:Work>
    </rdf:RDF>
  </metadata>
  <g
     id="layer1"
     inkscape:groupmode="layer"
     inkscape:label="Layer 1"
     transform="translate(-59,-431.36218)">
    <g
       id="g11376">
      <path
         sodipodi:nodetypes="cssc"
         inkscape:connector-curvature="0"
         id="path12294"
         d="m 100,812.24082 c 30,-20 49.03288,-52.09863 60,-85 40,-120 125,-190 215,-185 80.03269,4.44626 90,-5 120,-25"
         style="fill:none;fill-rule:evenodd;stroke:#008080;stroke-width:2;stroke-linecap:butt;stroke-linejoin:miter;stroke-miterlimit:4;stroke-dasharray:none;stroke-opacity:1" />
      <g
         style="fill:#008080"
         transform="matrix(2,0,0,2,-267.15437,774.29343)"
         ns0:text="$g_{\\mathrm{y}}(\\vct{u}) = y_{\\textrm{obs}}$"
         ns0:preamble="/home/matt/Projects/continuous-tempering-paper/poster/preamble.tex"
         id="g9841">
        <defs
           id="defs9843">
          <g
             id="g9845">
            <symbol
               style="overflow:visible"
               overflow="visible"
               id="textext-a19c7203-0">
              <path
                 inkscape:connector-curvature="0"
                 style="stroke:none"
                 d=""
                 id="path9848" />
            </symbol>
            <symbol
               style="overflow:visible"
               overflow="visible"
               id="textext-a19c7203-1">
              <path
                 inkscape:connector-curvature="0"
                 style="stroke:none"
                 d="m 4.90625,-4.109375 -1.25,0 C 3.5,-4.265625 3.1875,-4.390625 2.765625,-4.390625 c -1.046875,0 -1.734375,0.78125 -1.734375,1.5625 0,0.46875 0.28125,0.9375 0.9375,1.09375 l 0,0.046875 C 1.5,-1.6875 1.125,-1.203125 1.125,-0.828125 c 0,0.171875 0.078125,0.359375 0.234375,0.46875 -0.609375,0.203125 -1.15625,0.5 -1.15625,1.078125 0,0.578125 0.5,1.140625 1.828125,1.140625 1.484375,0 2.140625,-0.796875 2.140625,-1.5 0,-1.25 -2.3125,-0.84375 -2.3125,-1.46875 0,-0.25 0.28125,-0.5 0.875,-0.578125 0.875,-0.109375 1.40625,-0.734375 1.40625,-1.484375 0,-0.21875 -0.046875,-0.34375 -0.171875,-0.5 l 0.8125,0 z m -1.5625,0.625 c 0,0.5625 -0.25,1.578125 -0.953125,1.578125 -0.4375,0 -0.5625,-0.34375 -0.5625,-0.8125 0,-0.671875 0.4375,-1.375 0.984375,-1.375 0.4375,0 0.53125,0.25 0.53125,0.609375 z M 3.484375,0.6875 c 0,0.4375 -0.359375,0.890625 -1.265625,0.890625 -0.953125,0 -1.390625,-0.484375 -1.390625,-0.953125 0,-0.28125 0.21875,-0.53125 0.484375,-0.71875 0.078125,-0.0625 0.171875,-0.109375 0.25,-0.171875 0.59375,0.21875 1.921875,0.171875 1.921875,0.953125 z m 0,0"
                 id="path9851" />
            </symbol>
            <symbol
               style="overflow:visible"
               overflow="visible"
               id="textext-a19c7203-2">
              <path
                 inkscape:connector-curvature="0"
                 style="stroke:none"
                 d="m 2.6875,-3.0625 c -0.078125,-0.734375 -0.15625,-1 -0.390625,-1.328125 l -1.484375,0.25 0.015625,0.15625 c 0.09375,0 0.25,-0.03125 0.359375,-0.03125 0.5625,0 0.640625,0.59375 0.703125,1.046875 l 0.375,3.125 C 2,0.5625 1.4375,1.171875 1.265625,1.171875 1.109375,1.171875 1.125,0.875 0.703125,0.875 c -0.140625,0 -0.40625,0.109375 -0.40625,0.40625 0,0.234375 0.1875,0.546875 0.5625,0.546875 0.671875,0 1.328125,-0.984375 2.046875,-1.890625 0.421875,-0.53125 2.03125,-2.921875 2.03125,-3.703125 0,-0.390625 -0.25,-0.625 -0.5625,-0.625 -0.28125,0 -0.46875,0.1875 -0.46875,0.40625 0,0.375 0.515625,0.46875 0.515625,0.6875 0,0.171875 -0.078125,0.375 -0.28125,0.75 -0.21875,0.40625 -0.5625,1 -1.171875,1.828125 z m 0,0"
                 id="path9854" />
            </symbol>
            <symbol
               style="overflow:visible"
               overflow="visible"
               id="textext-a19c7203-3">
              <path
                 inkscape:connector-curvature="0"
                 style="stroke:none"
                 d=""
                 id="path9857" />
            </symbol>
            <symbol
               style="overflow:visible"
               overflow="visible"
               id="textext-a19c7203-4">
              <path
                 inkscape:connector-curvature="0"
                 style="stroke:none"
                 d="m 3.546875,-3.359375 -1,0 0,0.109375 c 0.234375,0 0.34375,0.0625 0.34375,0.1875 0,0.015625 0,0.078125 -0.015625,0.125 L 2.140625,-0.875 1.3125,-2.734375 C 1.265625,-2.84375 1.203125,-2.96875 1.203125,-3.046875 c 0,-0.140625 0.109375,-0.1875 0.4375,-0.203125 l 0,-0.109375 -1.53125,0 0,0.109375 C 0.296875,-3.21875 0.421875,-3.15625 0.5,-3 l 0.984375,2.109375 c 0.140625,0.296875 0.3125,0.640625 0.3125,0.75 0,0.125 -0.140625,0.59375 -0.296875,0.8125 C 1.375,0.84375 1.234375,1 1.125,1 1.078125,1 1.015625,1 0.9375,0.953125 0.796875,0.875 0.671875,0.84375 0.546875,0.84375 c -0.1875,0 -0.328125,0.171875 -0.328125,0.34375 0,0.25 0.203125,0.4375 0.53125,0.4375 0.5625,0 0.921875,-0.375 1.296875,-1.4375 l 1.125,-3.0625 C 3.28125,-3.140625 3.375,-3.21875 3.546875,-3.25 Z m 0,0"
                 id="path9860" />
            </symbol>
            <symbol
               style="overflow:visible"
               overflow="visible"
               id="textext-a19c7203-5">
              <path
                 inkscape:connector-curvature="0"
                 style="stroke:none"
                 d=""
                 id="path9863" />
            </symbol>
            <symbol
               style="overflow:visible"
               overflow="visible"
               id="textext-a19c7203-6">
              <path
                 inkscape:connector-curvature="0"
                 style="stroke:none"
                 d="M 3.03125,1.609375 C 1.640625,0.4375 1.328125,-0.6875 1.328125,-2.546875 c 0,-1.921875 0.3125,-2.84375 1.703125,-4.03125 L 2.9375,-6.734375 c -1.59375,0.9375 -2.453125,2.375 -2.453125,4.21875 0,1.703125 0.84375,3.390625 2.421875,4.28125 z m 0,0"
                 id="path9866" />
            </symbol>
            <symbol
               style="overflow:visible"
               overflow="visible"
               id="textext-a19c7203-7">
              <path
                 inkscape:connector-curvature="0"
                 style="stroke:none"
                 d="m 0.296875,-6.578125 c 1.4375,1.140625 1.6875,2.28125 1.6875,4.140625 0,1.9375 -0.28125,2.875 -1.6875,4.046875 L 0.375,1.765625 C 1.96875,0.796875 2.84375,-0.625 2.84375,-2.46875 c 0,-1.6875 -0.90625,-3.359375 -2.4375,-4.265625 z m 0,0"
                 id="path9869" />
            </symbol>
            <symbol
               style="overflow:visible"
               overflow="visible"
               id="textext-a19c7203-8">
              <path
                 inkscape:connector-curvature="0"
                 style="stroke:none"
                 d="m 6.34375,-3.1875 0,-0.65625 -5.859375,0 0,0.65625 z m 0,1.984375 0,-0.65625 -5.859375,0 0,0.65625 z m 0,0"
                 id="path9872" />
            </symbol>
            <symbol
               style="overflow:visible"
               overflow="visible"
               id="textext-a19c7203-9">
              <path
                 inkscape:connector-curvature="0"
                 style="stroke:none"
                 d=""
                 id="path9875" />
            </symbol>
            <symbol
               style="overflow:visible"
               overflow="visible"
               id="textext-a19c7203-10">
              <path
                 inkscape:connector-curvature="0"
                 style="stroke:none"
                 d="m 4.8125,-1.03125 c -0.203125,0.25 -0.359375,0.453125 -0.546875,0.453125 -0.15625,0 -0.1875,-0.171875 -0.1875,-0.34375 C 4.078125,-1 4.09375,-1.0625 4.09375,-1.109375 L 4.875,-4.46875 l -1.125,0 -0.1875,0.890625 c -0.25,1.140625 -1.421875,2.9375 -1.890625,2.9375 -0.125,0 -0.21875,-0.046875 -0.21875,-0.234375 0,-0.078125 0.046875,-0.25 0.0625,-0.3125 L 2.296875,-4.609375 0.375,-4.28125 l 0.03125,0.25 c 0.296875,-0.0625 0.390625,-0.078125 0.4375,-0.078125 0.0625,0 0.125,0.03125 0.125,0.21875 0,0.015625 -0.015625,0.125 -0.03125,0.234375 l -0.53125,2.375 c -0.046875,0.171875 -0.078125,0.359375 -0.078125,0.5625 0,0.421875 0.15625,0.8125 0.78125,0.8125 0.953125,0 1.546875,-0.828125 1.828125,-1.28125 l 0.015625,0 C 2.796875,-0.75 2.796875,-0.5 2.796875,-0.375 c 0,0.328125 0.40625,0.46875 0.65625,0.46875 C 4.15625,0.09375 4.625,-0.265625 5,-0.9375 Z m 0,0"
                 id="path9878" />
            </symbol>
            <symbol
               style="overflow:visible"
               overflow="visible"
               id="textext-a19c7203-11">
              <path
                 inkscape:connector-curvature="0"
                 style="stroke:none"
                 d=""
                 id="path9881" />
            </symbol>
            <symbol
               style="overflow:visible"
               overflow="visible"
               id="textext-a19c7203-12">
              <path
                 inkscape:connector-curvature="0"
                 style="stroke:none"
                 d="m 3.515625,-1.71875 c 0,-1.03125 -0.703125,-1.71875 -1.625,-1.71875 -1,0 -1.671875,0.703125 -1.671875,1.734375 0,1.03125 0.703125,1.78125 1.609375,1.78125 1.015625,0 1.6875,-0.765625 1.6875,-1.796875 z m -0.671875,0.1875 c 0,0.875 -0.328125,1.390625 -0.890625,1.390625 -0.265625,0 -0.5,-0.125 -0.671875,-0.375 -0.265625,-0.390625 -0.390625,-0.9375 -0.390625,-1.515625 0,-0.75 0.34375,-1.1875 0.859375,-1.1875 0.328125,0 0.53125,0.140625 0.71875,0.359375 0.234375,0.3125 0.375,0.828125 0.375,1.328125 z m 0,0"
                 id="path9884" />
            </symbol>
            <symbol
               style="overflow:visible"
               overflow="visible"
               id="textext-a19c7203-13">
              <path
                 inkscape:connector-curvature="0"
                 style="stroke:none"
                 d="m 1.140625,-5.09375 -0.03125,0 C 0.796875,-4.984375 0.59375,-4.9375 0.25,-4.84375 l -0.234375,0.078125 0,0.125 C 0.0625,-4.65625 0.09375,-4.65625 0.15625,-4.65625 c 0.296875,0 0.359375,0.0625 0.359375,0.421875 l 0,3.8125 c 0,0.25 0.625,0.5 1.234375,0.5 0.984375,0 1.75,-0.765625 1.75,-1.875 C 3.5,-2.71875 2.953125,-3.4375 2.15625,-3.4375 c -0.453125,0 -0.859375,0.25 -1.015625,0.625 z m 0,2.71875 c 0,-0.3125 0.34375,-0.59375 0.734375,-0.59375 0.28125,0 0.515625,0.125 0.671875,0.359375 0.1875,0.25 0.296875,0.6875 0.296875,1.140625 0,0.4375 -0.109375,0.765625 -0.28125,0.984375 -0.171875,0.203125 -0.40625,0.3125 -0.703125,0.3125 -0.375,0 -0.71875,-0.140625 -0.71875,-0.375 z m 0,0"
                 id="path9887" />
            </symbol>
            <symbol
               style="overflow:visible"
               overflow="visible"
               id="textext-a19c7203-14">
              <path
                 inkscape:connector-curvature="0"
                 style="stroke:none"
                 d="M 1.171875,-2.25 C 0.953125,-2.375 0.84375,-2.59375 0.84375,-2.75 c 0,-0.359375 0.234375,-0.515625 0.5625,-0.515625 0.453125,0 0.671875,0.25 0.84375,0.921875 l 0.109375,0 -0.03125,-1.015625 -0.09375,0 C 2.1875,-3.296875 2.15625,-3.28125 2.125,-3.28125 2.0625,-3.28125 2,-3.3125 1.90625,-3.34375 1.75,-3.421875 1.59375,-3.421875 1.40625,-3.421875 c -0.609375,0 -1.03125,0.328125 -1.03125,0.90625 0,0.390625 0.28125,0.75 0.90625,1.09375 l 0.40625,0.21875 c 0.234375,0.140625 0.390625,0.328125 0.390625,0.5625 0,0.296875 -0.234375,0.546875 -0.625,0.546875 -0.515625,0 -0.78125,-0.328125 -0.9375,-1.046875 l -0.125,0 0,1.171875 0.09375,0 c 0.046875,-0.078125 0.09375,-0.09375 0.1875,-0.09375 0.078125,0 0.15625,0.015625 0.34375,0.0625 0.171875,0.0625 0.375,0.078125 0.53125,0.078125 0.578125,0 1.046875,-0.4375 1.046875,-0.9375 0,-0.421875 -0.171875,-0.625 -0.65625,-0.921875 z m 0,0"
                 id="path9890" />
            </symbol>
          </g>
        </defs>
        <g
           style="fill:#008080"
           id="textext-a19c7203-15">
          <g
             style="fill:#008080;fill-opacity:1"
             id="g9893">
            <use
               style="fill:#008080"
               height="100%"
               width="100%"
               xlink:href="#textext-a19c7203-1"
               x="194.173"
               y="21.302"
               id="use9895" />
          </g>
          <g
             style="fill:#008080;fill-opacity:1"
             id="g9897">
            <use
               style="fill:#008080"
               height="100%"
               width="100%"
               xlink:href="#textext-a19c7203-4"
               x="199.075"
               y="23.792"
               id="use9899" />
          </g>
          <g
             style="fill:#008080;fill-opacity:1"
             id="g9901">
            <use
               style="fill:#008080"
               height="100%"
               width="100%"
               xlink:href="#textext-a19c7203-6"
               x="203.45799"
               y="21.302"
               id="use9903" />
          </g>
          <g
             style="fill:#008080;fill-opacity:1"
             id="g9905">
            <use
               style="fill:#008080"
               height="100%"
               width="100%"
               xlink:href="#textext-a19c7203-10"
               x="206.776"
               y="21.302"
               id="use9907" />
          </g>
          <g
             style="fill:#008080;fill-opacity:1"
             id="g9909">
            <use
               style="fill:#008080"
               height="100%"
               width="100%"
               xlink:href="#textext-a19c7203-7"
               x="212.106"
               y="21.302"
               id="use9911" />
          </g>
          <g
             style="fill:#008080;fill-opacity:1"
             id="g9913">
            <use
               style="fill:#008080"
               height="100%"
               width="100%"
               xlink:href="#textext-a19c7203-8"
               x="218.19315"
               y="21.302"
               id="use9915" />
          </g>
          <g
             style="fill:#008080;fill-opacity:1"
             id="g9917">
            <use
               style="fill:#008080"
               height="100%"
               width="100%"
               xlink:href="#textext-a19c7203-2"
               x="227.783"
               y="21.302"
               id="use9919" />
          </g>
          <g
             style="fill:#008080;fill-opacity:1"
             id="g9921">
            <use
               style="fill:#008080"
               height="100%"
               width="100%"
               xlink:href="#textext-a19c7203-12"
               x="232.724"
               y="23.792"
               id="use9923" />
            <use
               style="fill:#008080"
               height="100%"
               width="100%"
               xlink:href="#textext-a19c7203-13"
               x="236.46001"
               y="23.792"
               id="use9925" />
            <use
               style="fill:#008080"
               height="100%"
               width="100%"
               xlink:href="#textext-a19c7203-14"
               x="240.196"
               y="23.792"
               id="use9927" />
          </g>
        </g>
      </g>
    </g>
  </g>
</svg>
