<?xml version="1.0" encoding="UTF-8" standalone="no"?>
<!-- Created with Inkscape (http://www.inkscape.org/) -->

<svg
   xmlns:dc="http://purl.org/dc/elements/1.1/"
   xmlns:cc="http://creativecommons.org/ns#"
   xmlns:rdf="http://www.w3.org/1999/02/22-rdf-syntax-ns#"
   xmlns:svg="http://www.w3.org/2000/svg"
   xmlns="http://www.w3.org/2000/svg"
   xmlns:sodipodi="http://sodipodi.sourceforge.net/DTD/sodipodi-0.dtd"
   xmlns:inkscape="http://www.inkscape.org/namespaces/inkscape"
   width="112.88889mm"
   height="72.248886mm"
   viewBox="0 0 399.99999 255.99999"
   id="svg2"
   version="1.1"
   inkscape:version="0.91 r13725"
   sodipodi:docname="tensorflow-logo.svg">
  <defs
     id="defs4" />
  <sodipodi:namedview
     id="base"
     pagecolor="#ffffff"
     bordercolor="#666666"
     borderopacity="1.0"
     inkscape:pageopacity="0.0"
     inkscape:pageshadow="2"
     inkscape:zoom="0.7"
     inkscape:cx="409.42983"
     inkscape:cy="10.11309"
     inkscape:document-units="px"
     inkscape:current-layer="layer1"
     showgrid="false"
     fit-margin-top="0"
     fit-margin-left="0"
     fit-margin-right="0"
     fit-margin-bottom="0"
     inkscape:window-width="1366"
     inkscape:window-height="695"
     inkscape:window-x="0"
     inkscape:window-y="27"
     inkscape:window-maximized="1" />
  <metadata
     id="metadata7">
    <rdf:RDF>
      <cc:Work
         rdf:about="">
        <dc:format>image/svg+xml</dc:format>
        <dc:type
           rdf:resource="http://purl.org/dc/dcmitype/StillImage" />
        <dc:title></dc:title>
      </cc:Work>
    </rdf:RDF>
  </metadata>
  <g
     inkscape:label="Layer 1"
     inkscape:groupmode="layer"
     id="layer1"
     transform="translate(-202.20849,-481.5055)">
    <g
       id="g4147"
       transform="translate(13.637059,291.42901)">
      <path
         style="fill:#fefefe"
         d="m 188.57143,318.07649 0,-128 200,0 200,0 0,128 0,128 -200,0 -200,0 0,-128 z"
         id="path4157"
         inkscape:connector-curvature="0" />
      <path
         style="fill:#a6aaac"
         d="m 493.71111,445.3563 c -3.56424,-0.67625 -10.5039,-8.19043 -11.90984,-12.89583 -1.54123,-5.15819 -1.58523,-14.02407 -0.0917,-18.48476 4.51575,-13.48737 20.90053,-18.26947 31.21704,-9.11108 8.59687,7.6318 8.59687,28.79192 0,36.42372 -4.47691,3.97434 -11.67605,5.49841 -19.21546,4.06795 z m 12.2127,-10.16848 c 4.30584,-3.73455 6.10223,-13.15522 3.70888,-19.4502 -2.23446,-5.87708 -9.60517,-8.58114 -15.21166,-5.58064 -4.75297,2.54371 -6.50096,15.34963 -2.99412,21.93511 2.9391,5.51934 9.97118,7.02099 14.4969,3.09573 z m -80.35238,-19.61133 0,-29.5 18,0 18,0 0,4.5 0,4.5 -13.5,0 -13.5,0 0,7.5 0,7.5 8.5,0 8.5,0 0,4.5 0,4.5 -8.5,0 -8.5,0 0,13 0,13 -4.5,0 -4.5,0 z m 40,1.19927 0,-28.30074 4.5,-2.18627 4.5,-2.18627 0,30.48701 0,30.487 -4.5,0 -4.5,0 z m 63.13127,16.09158 c -1.8528,-6.75997 -4.4403,-16.05369 -5.75,-20.65272 -3.2251,-11.325 -3.22678,-11.31495 1.82402,-10.94563 l 4.20528,0.3075 3.46149,14.44973 c 3.97559,16.5958 3.39561,16.84293 8.68286,-3.69973 l 2.89552,-11.25 3.70382,0 c 4.13744,0 3.2881,-1.79299 9.0003,19 1.13321,4.125 2.29448,8.175 2.58061,9 0.5779,1.66632 0.63916,1.45743 4.76527,-16.25 l 2.73794,-11.75 4.38081,0 c 2.40945,0 4.38081,0.21968 4.38081,0.48819 0,0.41112 -4.26683,15.84497 -10.57784,38.26181 -1.4613,5.19059 -1.52245,5.25 -5.40309,5.25 -4.4519,0 -3.57949,1.80823 -8.55057,-17.7227 -1.57104,-6.17248 -3.06215,-11.01698 -3.31358,-10.76555 -0.25143,0.25143 -2.11528,6.65164 -4.14188,14.2227 l -3.68474,13.76555 -3.91415,0.29085 -3.91415,0.29085 z M 369.02445,361.76032 c -4.97584,-2.8511 -10.25824,-5.97836 -11.73867,-6.94946 l -2.69169,-1.76563 -0.26133,-39.93602 -0.26133,-39.93603 -11.3451,6.31681 -11.34511,6.31681 -11.9322,-7.00566 -11.9322,-7.00565 0.27731,-13.59635 0.2773,-13.59635 47.14314,-26.8198 47.14315,-26.8198 25.85685,14.92934 c 14.22128,8.21114 30.13186,17.39851 35.35686,20.41637 l 9.5,5.48702 0.27746,13.5231 0.27745,13.52311 -11.97338,7.0238 -11.97338,7.02381 -23.12191,-13.40663 c -12.71705,-7.37364 -23.32945,-13.40662 -23.5831,-13.40662 -0.25366,0 -0.33563,5.9142 -0.18217,13.14268 l 0.27903,13.14267 11.72176,6.60733 11.72177,6.60732 0.0156,13.5 0.0156,13.5 -11.98733,6.95323 -11.98733,6.95323 0,13.5657 0,13.56569 -11.58037,6.73108 c -6.3692,3.70209 -11.8817,6.7013 -12.25,6.6649 -0.3683,-0.0364 -4.74077,-2.39889 -9.71661,-5.25 z"
         id="path4155"
         inkscape:connector-curvature="0"
         sodipodi:nodetypes="cssssccsssssccccccccccccccccccccccccccccccssscsscsscscssssssscccscscccccccccccsscccccssscccccccccsscc" />
      <path
         style="fill:#fab934"
         d="m 246.47871,443.74885 c -2.89459,-1.52873 -5.43696,-3.9902 -7.40728,-7.17158 -2.73591,-4.41753 -2.99661,-5.59909 -2.96145,-13.42236 0.0542,-12.06398 3.29463,-18.02164 11.71593,-21.54028 10.77256,-4.50107 21.94346,1.52449 24.97607,13.47203 0.60442,2.38124 0.67055,4.43374 0.15695,4.8718 -0.48812,0.41634 -6.7375,2.49051 -13.8875,4.60926 -7.15,2.11875 -13.33585,4.02552 -13.74633,4.23727 -1.14642,0.59139 1.95931,5.95706 4.46312,7.7108 2.86601,2.00743 8.04687,1.99284 11.96575,-0.0337 2.9694,-1.53554 3.17515,-1.50246 5.57362,0.89601 2.99339,2.99339 2.40554,4.26706 -3.12953,6.78054 -5.71904,2.59703 -12.31488,2.44449 -17.71935,-0.4098 z m 8.14565,-25.35062 c 4.92089,-1.47305 8.94707,-3.17292 8.94707,-3.7775 0,-2.45237 -3.26338,-5.50302 -6.54541,-6.11874 -4.7777,-0.8963 -8.98349,1.06196 -10.88443,5.06789 -1.53657,3.23809 -2.11501,7.50661 -1.01723,7.50661 0.30411,0 4.57911,-1.20522 9.5,-2.67826 z m 69.94707,26.16058 c -2.475,-0.82453 -5.32237,-2.13296 -6.3275,-2.90764 -1.75519,-1.35278 -1.75728,-1.52058 -0.0527,-4.24159 0.97616,-1.5582 1.84403,-2.95359 1.9286,-3.10086 0.0846,-0.14727 2.13327,0.63034 4.55266,1.72804 7.25698,3.29254 16.8989,1.9559 16.8989,-2.34266 0,-2.13678 -4.16985,-5.11931 -11.259,-8.05312 -8.75916,-3.62495 -11.74096,-7.0698 -11.74096,-13.56429 0,-6.38689 3.82943,-10.55216 10.64038,-11.57352 5.08341,-0.76231 13.76075,0.83162 16.74717,3.07625 1.66586,1.25208 1.73969,1.77566 0.62868,4.45789 -1.45268,3.50707 -1.57901,3.53764 -6.36199,1.53918 -3.94615,-1.64881 -9.40529,-1.9441 -11.49173,-0.6216 -0.73562,0.46628 -1.18562,1.92189 -1,3.23469 0.26663,1.88572 2.21725,3.3318 9.28981,6.88691 4.92378,2.475 9.82264,5.70201 10.88637,7.17113 3.81101,5.26343 1.96411,13.61868 -3.85287,17.43012 -3.46026,2.26725 -13.90702,2.73961 -19.48582,0.88107 z m 40.60432,0.47925 c -10.93236,-3.27148 -16.60229,-21.39964 -10.50138,-33.5755 8.32165,-16.6079 30.33194,-14.45748 35.54439,3.47272 5.53618,19.04381 -7.92537,35.22519 -25.04301,30.10278 z m 12.7837,-9.78948 c 6.11067,-5.41181 6.02949,-18.98495 -0.14643,-24.48334 -3.001,-2.67178 -9.74275,-2.50601 -12.74383,0.31336 -5.06179,4.7553 -5.17756,19.18176 -0.1908,23.77725 3.8395,3.53826 9.34276,3.70348 13.08106,0.39273 z m -161.38802,-15.17209 0,-25 -8.5,0 -8.5,0 0,-4.5 0,-4.5 21.5,0 21.5,0 0,4.5 0,4.5 -8.5,0 -8.5,0 0,25 0,25 -4.5,0 -4.5,0 0,-25 z m 62,3 0,-22 4.03138,0 c 2.48264,0 4.2325,0.5241 4.55489,1.36422 0.42414,1.1053 1.21747,1.01041 4.18006,-0.5 7.71319,-3.93241 16.1365,-1.331 19.98367,6.17166 2.06165,4.02058 2.25,5.75142 2.25,20.67601 l 0,16.28811 -4.5,0 -4.5,0 0,-15.77749 c 0,-17.71191 -0.60807,-19.68315 -6.40726,-20.77109 -3.74938,-0.70339 -8.95011,1.43154 -9.97156,4.09338 -0.34165,0.89033 -0.62118,8.55697 -0.62118,17.03699 l 0,15.41821 -4.5,0 -4.5,0 0,-22 z m 117,0 0,-22 4.5,0 c 3.33333,0 4.5,0.38889 4.5,1.5 0,1.93201 0.90284,1.8979 3.13068,-0.11826 2.24378,-2.0306 9.91576,-2.96244 12.59311,-1.52956 1.80001,0.96333 1.90437,1.49991 0.9715,4.99493 -1.01841,3.81545 -1.14149,3.90273 -4.80982,3.4107 -10.16724,-1.36371 -11.88547,1.77482 -11.88547,21.71007 l 0,14.03212 -4.5,0 -4.5,0 0,-22 z m -29,-62.8805 -11.5,-6.76653 -0.5,-40.16097 -0.5,-40.16096 -10.78161,5.98448 c -5.92989,3.29146 -11.2343,5.98448 -11.78758,5.98448 -0.55329,0 -6.17225,-3.0375 -12.48659,-6.75 l -11.48062,-6.75 0.2682,-13.46073 0.2682,-13.46073 34,-19.37328 c 18.7,-10.6553 39.94141,-22.70591 47.20313,-26.77912 l 13.20313,-7.40584 22.79687,13.16277 c 12.53828,7.23952 28.42187,16.4057 35.29687,20.3693 l 12.5,7.20655 0.27747,13.50492 0.27746,13.50493 -11.39262,6.61562 c -6.26594,3.63858 -11.86569,6.61561 -12.44388,6.61561 -1.08673,0 -10.17611,-5.06199 -32.88714,-18.31526 -7.24279,-4.22661 -13.44336,-7.68474 -13.77903,-7.68474 -0.33567,0 -0.48475,5.92883 -0.33129,13.17518 l 0.27903,13.17519 11.5,6.57481 11.5,6.57482 0.27841,13.16168 0.27841,13.16167 -2.77841,1.92307 c -1.52813,1.05769 -6.94091,4.30337 -12.02841,7.21262 l -9.25,5.28955 -0.009,13.62571 -0.009,13.6257 -11.87197,6.75 c -6.52958,3.7125 -12.03824,6.72436 -12.24145,6.69302 -0.20231,-0.0313 -5.54358,-3.10192 -11.86858,-6.82352 z"
         id="path4153"
         inkscape:connector-curvature="0" />
      <path
         style="fill:#f49020"
         d="m 249.07143,444.87477 c -12.58661,-4.37938 -17.35071,-25.42153 -8.51668,-37.61656 4.02804,-5.56054 11.80837,-8.17928 18.80921,-6.3309 6.43893,1.70003 11.06452,6.46864 12.81298,13.20914 0.75536,2.91197 1.20402,5.46385 0.99702,5.67084 -0.20699,0.20699 -6.38974,2.20019 -13.73944,4.42933 -7.3497,2.22914 -13.76748,4.43193 -14.26174,4.89508 -0.97044,0.90936 1.69155,5.62745 4.32351,7.66299 2.29901,1.77802 10.22313,1.56687 12.95294,-0.34516 2.21095,-1.54861 2.45043,-1.49843 4.97251,1.042 l 2.64969,2.66896 -2.5,1.90169 c -4.66597,3.54928 -12.81988,4.78894 -18.5,2.81259 z m 6.2471,-26.54598 c 5.0859,-1.51377 9.2484,-3.12442 9.25,-3.57922 0.002,-0.45481 -1.31249,-2.14231 -2.92018,-3.75 -4.85319,-4.8532 -12.51688,-3.84055 -15.56657,2.0569 -1.57994,3.05527 -2.05034,8.01837 -0.76035,8.02232 0.4125,10e-4 4.91119,-1.23624 9.9971,-2.75 z m 70.7529,26.35539 c -5.2541,-1.6531 -8.5,-3.43951 -8.5,-4.67806 0,-0.55 0.68997,-2.05302 1.53326,-3.34005 l 1.53327,-2.34006 3.67818,1.87524 c 4.63047,2.36075 13.45597,2.53171 15.68386,0.30381 3.53247,-3.53247 1.46353,-6.07915 -8.82404,-10.86155 -5.00749,-2.32784 -9.73452,-4.99765 -10.50451,-5.93291 -0.76999,-0.93526 -1.6059,-3.84348 -1.85757,-6.46272 -0.38841,-4.04224 -0.0674,-5.22597 2.12321,-7.82937 4.65979,-5.53784 13.13844,-6.52485 22.80946,-2.65527 4.24003,1.69652 4.68068,3.03482 2.06346,6.26694 -1.66692,2.05856 -1.92175,2.09166 -4.75,0.61695 -3.82086,-1.99229 -11.83509,-2.06298 -13.44875,-0.11863 -2.376,2.8629 -0.14762,5.21375 8.84858,9.33486 10.61409,4.86227 13.11159,7.58066 13.11159,14.27126 0,6.24649 -3.19333,10.24952 -9.42886,11.81964 -5.56356,1.40092 -8.96782,1.33558 -14.07114,-0.27008 z m 38.52975,-0.19116 c -4.96029,-2.15149 -6.99575,-4.24063 -9.66172,-9.91653 -4.37305,-9.31032 -2.79331,-21.8694 3.59462,-28.57753 8.12494,-8.53223 21.93708,-7.13059 28.70546,2.91301 6.13836,9.1087 4.74241,24.79017 -2.83674,31.86679 -5.36898,5.01299 -13.35414,6.51079 -19.80162,3.71426 z m 12.35537,-8.50483 c 3.84879,-3.02745 5.61488,-7.10416 5.61488,-12.96091 0,-8.84169 -4.70081,-14.95079 -11.50429,-14.95079 -3.96782,0 -9.06994,5.52044 -9.95751,10.7739 -1.12804,6.67681 0.25837,12.22267 3.9879,15.9522 3.88279,3.88279 7.91733,4.28614 11.85902,1.1856 z m -160.38512,-15.9117 0,-25 -8.5,0 -8.5,0 0,-4 0,-4 21.5,0 21.5,0 0,4 0,4 -8.5,0 -8.5,0 0,25 0,25 -4.5,0 -4.5,0 0,-25 z m 62,3 0,-22 4,0 c 3.42923,0 4,0.3075 4,2.15499 0,1.96801 0.15184,2.02236 1.75,0.62642 2.75715,-2.40826 9.05049,-4.04142 12.83656,-3.33115 5.08659,0.95425 9.96171,5.69868 11.29452,10.99174 0.61541,2.444 1.11892,10.99437 1.11892,19.00082 l 0,14.55718 -4,0 -4,0 0,-14.03212 c 0,-18.50503 -1.84593,-22.96788 -9.5,-22.96788 -7.65407,0 -9.5,4.46285 -9.5,22.96788 l 0,14.03212 -4,0 -4,0 0,-22 z m 118,0 0,-22 4,0 c 3.38003,0 4,0.32124 4,2.07258 l 0,2.07258 2.60145,-2.0463 c 3.32104,-2.61233 8.15823,-3.52093 11.65896,-2.18995 2.93479,1.1158 3.30427,2.47568 1.76944,6.51259 -0.8678,2.28248 -1.25539,2.44325 -3.67373,1.5238 -4.09245,-1.55595 -8.22493,-0.20815 -10.42511,3.40013 -1.66798,2.73547 -1.92403,5.11418 -1.92727,17.90457 l -0.004,14.75 -4,0 -4,0 0,-22 z m -30.23132,-63.27668 -10.73132,-6.22332 -0.0187,-40.75 c -0.0103,-22.4125 -0.22597,-40.75 -0.47932,-40.75 -0.25335,0 -5.70969,2.93713 -12.1252,6.52696 l -11.66457,6.52696 -11.37479,-6.60526 -11.3748,-6.60527 0,-13.39032 0,-13.39032 11.12955,6.46862 c 6.12126,3.55775 11.52619,6.46863 12.01098,6.46863 0.74141,0 21.77151,-11.77594 62.64398,-35.07789 l 8.2845,-4.72311 23.2155,13.52388 c 12.76852,7.43813 23.66549,13.52931 24.21549,13.53594 0.55,0.007 5.61776,-2.74889 11.2617,-6.12338 5.64393,-3.37449 10.48143,-6.13544 10.75,-6.13544 0.26856,0 0.4883,5.79059 0.4883,12.86798 l 0,12.86797 -11.57609,6.70142 -11.5761,6.70141 -8.6739,-4.95303 c -4.77065,-2.72417 -15.29886,-8.80805 -23.39601,-13.51973 l -14.72211,-8.5667 -0.27789,13.56865 -0.2779,13.56866 -10.97973,6.32088 c -6.03885,3.47648 -11.0877,6.68574 -11.21967,7.13168 -0.13196,0.44595 4.91654,3.65284 11.21889,7.12644 l 11.45882,6.31563 7.76085,-4.4076 c 4.26846,-2.42418 9.44834,-5.42316 11.51084,-6.6644 l 3.75,-2.25681 -0.006,13.34877 -0.006,13.34878 -11.48858,6.5 -11.48858,6.5 -0.006,13.65034 -0.006,13.65033 -11.36516,6.59967 c -6.25083,3.62981 -11.98833,6.58765 -12.75,6.57298 -0.76166,-0.0147 -6.21393,-2.82717 -12.11616,-6.25 z"
         id="path4151"
         inkscape:connector-curvature="0" />
      <path
         style="fill:#ee6429"
         d="m 249.07143,444.92955 c -7.63825,-2.80726 -12.74176,-11.31129 -12.77348,-21.28458 -0.0266,-8.37144 1.65921,-13.62919 5.70613,-17.79616 9.87264,-10.16554 27.08112,-5.16468 30.27634,8.79845 0.62001,2.70945 0.98991,5.06367 0.82199,5.23158 -0.16791,0.16791 -6.31857,2.11795 -13.66814,4.33341 -7.34956,2.21546 -13.74203,4.39293 -14.20548,4.83881 -1.08058,1.03964 0.95692,5.02337 3.70968,7.25319 2.76126,2.23671 10.40892,2.31789 13.51337,0.14345 2.21271,-1.54985 2.44161,-1.50349 4.72251,0.95636 1.31839,1.42183 2.39708,2.82064 2.39708,3.10846 0,0.28783 -1.83078,1.45731 -4.06839,2.59886 -4.90599,2.50285 -12.33272,3.32462 -16.43161,1.81817 z m 8.25,-27.11386 c 3.9875,-1.2091 7.25,-2.51052 7.25,-2.89205 0,-0.38154 -1.165,-2.07823 -2.58889,-3.77042 -2.09172,-2.48587 -3.35262,-3.07673 -6.56575,-3.07673 -2.18726,0 -4.8426,0.46334 -5.90075,1.02964 -2.46005,1.31658 -4.94461,6.10475 -4.94461,9.52911 0,3.03898 0.0315,3.03695 12.75,-0.81955 z m 68.75,26.86849 c -5.2541,-1.6531 -8.5,-3.43951 -8.5,-4.67806 0,-0.55 0.68997,-2.05302 1.53326,-3.34005 l 1.53327,-2.34006 3.67818,1.87524 c 4.28868,2.1865 13.01363,2.50365 15.65913,0.56921 1.09791,-0.80281 1.65318,-2.2477 1.44113,-3.75 -0.27873,-1.97469 -2.24213,-3.40405 -10.22514,-7.44397 -11.14279,-5.63897 -13.20399,-8.10807 -12.31314,-14.74984 0.69418,-5.17554 3.81494,-8.33996 9.59155,-9.72575 4.84431,-1.16213 11.07223,-0.36188 16.52746,2.12369 3.00629,1.36976 3.13351,2.0688 0.97583,5.36184 -1.51178,2.30726 -1.75315,2.35959 -4.45034,0.96482 -3.72787,-1.92776 -12.31869,-1.94181 -13.91136,-0.0228 -1.97717,2.38234 -0.22974,5.2833 4.50634,7.48113 2.44961,1.13677 6.47708,3.00615 8.94994,4.15418 6.29781,2.92377 8.50389,6.06909 8.50389,12.12446 0,4.09139 -0.48692,5.42899 -2.8288,7.77087 -4.69475,4.69475 -12.77024,6.11092 -20.6712,3.62504 z m 39.1838,-0.0565 c -5.18207,-1.84816 -7.54354,-4.14906 -10.31577,-10.05119 -4.68369,-9.97168 -2.02766,-25.04586 5.33701,-30.28997 10.34519,-7.36643 23.91663,-3.47016 28.87555,8.28997 2.21552,5.25414 2.18471,15.71723 -0.0625,21.23727 -2.10053,5.15966 -7.16257,9.79239 -12.24072,11.2026 -4.85681,1.34875 -6.91544,1.27973 -11.59353,-0.38868 z m 11.95824,-8.32343 c 5.09844,-4.11238 6.97103,-14.43137 3.93674,-21.69346 -1.46976,-3.51763 -5.89197,-6.5343 -9.57878,-6.5343 -8.57217,0 -13.67932,12.26325 -9.479,22.76089 2.60439,6.50901 10.35498,9.31117 15.12104,5.46687 z m -160.64204,-16.22776 0,-25 -8.5,0 -8.5,0 0,-4 0,-4 21.5,0 21.5,0 0,4 0,4 -8.5,0 -8.5,0 0,25 0,25 -4.5,0 -4.5,0 0,-25 z m 62,3 0,-22 4,0 c 3.22295,0 4,0.35882 4,1.84709 0,1.71543 0.35215,1.67281 4.94052,-0.59795 6.16901,-3.05301 11.63282,-2.44066 16.52143,1.8516 4.50202,3.95282 5.53805,8.88076 5.53805,26.34208 l 0,14.55718 -3.91214,0 -3.91214,0 -0.33786,-15.92145 c -0.32354,-15.24666 -0.44061,-16.03074 -2.76217,-18.5 -2.60406,-2.76972 -7.5611,-3.4595 -11.13108,-1.54891 -4.04832,2.1666 -4.94461,6.04946 -4.94461,21.4207 l 0,14.54966 -4,0 -4,0 0,-22 z m 118,0 0,-22 4,0 c 3.353,0 4,0.32834 4,2.02994 0,1.98587 0.0669,1.98044 3.08378,-0.25 2.10227,-1.55428 4.47346,-2.27994 7.45,-2.27994 5.4343,0 6.88397,1.3215 5.97743,5.44895 -0.67434,3.07026 -0.79535,3.13099 -4.98679,2.50244 -9.4996,-1.42455 -11.52442,2.44063 -11.52442,21.99895 l 0,14.54966 -4,0 -4,0 0,-22 z m -30.21814,-63.30013 -10.71814,-6.19987 -0.0319,-40.69552 -0.0319,-40.69552 11.25,-6.36171 11.25,-6.36171 0.5,13.53499 0.5,13.53499 11.75,6.51776 11.75,6.51775 0,13.28017 0,13.28016 -3.1028,-1.60452 c -1.70654,-0.88248 -6.85206,-3.81904 -11.4345,-6.52568 -4.58243,-2.70664 -8.58617,-4.92116 -8.8972,-4.92116 -0.31102,0 -0.5655,11.925 -0.5655,26.5 0,14.575 -0.3375,26.47744 -0.75,26.44987 -0.4125,-0.0276 -5.57316,-2.84008 -11.46814,-6.25 z m -46.53186,-81.36 -11.25,-6.54813 0,-12.89587 c 0,-7.09273 0.23732,-12.89587 0.52739,-12.89587 1.28604,0 21.70671,12.44649 22.09933,13.46964 0.24088,0.62771 0.31091,6.60364 0.15562,13.27983 l -0.28234,12.13853 -11.25,-6.54813 z m 115.75,-14.23814 c -7.425,-4.22308 -17.8875,-10.26332 -23.25,-13.42275 l -9.75,-5.74441 0,-13.05062 c 0,-7.17784 0.36883,-12.90062 0.81963,-12.71728 3.54367,1.44117 45.48093,26.45299 45.81549,27.32484 0.23626,0.61569 0.30251,6.55748 0.14722,13.20399 l -0.28234,12.08456 -13.5,-7.67833 z"
         id="path4149"
         inkscape:connector-curvature="0" />
    </g>
  </g>
</svg>
