<?xml version="1.0" encoding="UTF-8" standalone="no"?>
<!-- Created with matplotlib (http://matplotlib.org/) -->

<svg
   xmlns:dc="http://purl.org/dc/elements/1.1/"
   xmlns:cc="http://creativecommons.org/ns#"
   xmlns:rdf="http://www.w3.org/1999/02/22-rdf-syntax-ns#"
   xmlns:svg="http://www.w3.org/2000/svg"
   xmlns="http://www.w3.org/2000/svg"
   xmlns:xlink="http://www.w3.org/1999/xlink"
   xmlns:sodipodi="http://sodipodi.sourceforge.net/DTD/sodipodi-0.dtd"
   xmlns:inkscape="http://www.inkscape.org/namespaces/inkscape"
   height="201pt"
   version="1.1"
   viewBox="0 0 472 201"
   width="472pt"
   id="svg2"
   inkscape:version="0.91 r13725"
   sodipodi:docname="1d-gm-ext-hamiltonian-flat-base-free-energy.svg">
  <metadata
     id="metadata270">
    <rdf:RDF>
      <cc:Work
         rdf:about="">
        <dc:format>image/svg+xml</dc:format>
        <dc:type
           rdf:resource="http://purl.org/dc/dcmitype/StillImage" />
      </cc:Work>
    </rdf:RDF>
  </metadata>
  <sodipodi:namedview
     pagecolor="#ffffff"
     bordercolor="#666666"
     borderopacity="1"
     objecttolerance="10"
     gridtolerance="10"
     guidetolerance="10"
     inkscape:pageopacity="0"
     inkscape:pageshadow="2"
     inkscape:window-width="1366"
     inkscape:window-height="695"
     id="namedview268"
     showgrid="false"
     inkscape:zoom="1.2067797"
     inkscape:cx="618.71732"
     inkscape:cy="157.44025"
     inkscape:window-x="0"
     inkscape:window-y="27"
     inkscape:window-maximized="1"
     inkscape:current-layer="axes_1" />
  <defs
     id="defs4">
    <style
       type="text/css"
       id="style6">
*{stroke-linecap:butt;stroke-linejoin:round;stroke-miterlimit:100000;}
  </style>
  </defs>
  <g
     id="figure_1">
    <g
       id="patch_1">
      <path
         d="M 0 201.881875  L 472.35 201.881875  L 472.35 0  L 0 0  z "
         style="fill:#ffffff;"
         id="path10" />
    </g>
    <g
       id="axes_1">
      <g
         id="patch_2">
        <path
           d="M 19 167.4  L 465.4 167.4  L 465.4 0  L 19 0  z "
           style="fill:#ffffff;"
           id="path14" />
      </g>
      <g
         id="matplotlib.axis_1">
        <g
           id="xtick_1">
          <g
             id="line2d_1">
            <path
               clip-path="url(#p2096cc0a49)"
               d="M 19 167.4  L 19 0  "
               style="fill:none;stroke:#ffffff;stroke-linecap:round;"
               id="path19" />
          </g>
          <g
             id="line2d_2" />
          <g
             id="line2d_3" />
          <g
             id="text_1">
            <!-- −1.5 -->
            <defs
               id="defs24">
              <path
                 d="M 4.9375 29.6875  L 4.9375 36.8125  L 53.515625 36.8125  L 53.515625 29.6875  z "
                 id="LiberationSans-2212" />
              <path
                 d="M 51.421875 22.40625  Q 51.421875 17.234375 49.859375 12.9375  Q 48.296875 8.640625 45.21875 5.53125  Q 42.140625 2.4375 37.578125 0.71875  Q 33.015625 -0.984375 27 -0.984375  Q 21.578125 -0.984375 17.546875 0.28125  Q 13.53125 1.5625 10.734375 3.78125  Q 7.953125 6 6.3125 8.984375  Q 4.6875 11.96875 4 15.375  L 12.890625 16.40625  Q 13.421875 14.453125 14.390625 12.625  Q 15.375 10.796875 17.0625 9.34375  Q 18.75 7.90625 21.21875 7.046875  Q 23.6875 6.203125 27.203125 6.203125  Q 30.609375 6.203125 33.390625 7.25  Q 36.1875 8.296875 38.15625 10.34375  Q 40.140625 12.40625 41.203125 15.375  Q 42.28125 18.359375 42.28125 22.21875  Q 42.28125 25.390625 41.25 28.046875  Q 40.234375 30.71875 38.328125 32.640625  Q 36.421875 34.578125 33.65625 35.640625  Q 30.90625 36.71875 27.390625 36.71875  Q 25.203125 36.71875 23.34375 36.328125  Q 21.484375 35.9375 19.890625 35.25  Q 18.3125 34.578125 17.015625 33.671875  Q 15.71875 32.765625 14.59375 31.78125  L 6 31.78125  L 8.296875 68.796875  L 47.40625 68.796875  L 47.40625 61.328125  L 16.3125 61.328125  L 14.984375 39.5  Q 17.328125 41.3125 20.84375 42.59375  Q 24.359375 43.890625 29.203125 43.890625  Q 34.328125 43.890625 38.421875 42.328125  Q 42.53125 40.765625 45.40625 37.90625  Q 48.296875 35.0625 49.859375 31.109375  Q 51.421875 27.15625 51.421875 22.40625  "
                 id="LiberationSans-35" />
              <path
                 d="M 9.125 0  L 9.125 10.6875  L 18.65625 10.6875  L 18.65625 0  z "
                 id="LiberationSans-2e" />
              <path
                 d="M 7.625 0  L 7.625 7.46875  L 25.140625 7.46875  L 25.140625 60.40625  L 9.625 49.3125  L 9.625 57.625  L 25.875 68.796875  L 33.984375 68.796875  L 33.984375 7.46875  L 50.734375 7.46875  L 50.734375 0  z "
                 id="LiberationSans-31" />
            </defs>
            <g
               style="fill:#262626;"
               transform="translate(9.1296875 181.646875)scale(0.1 -0.1)"
               id="g30">
              <use
                 xlink:href="#LiberationSans-2212"
                 id="use32" />
              <use
                 x="58.3984375"
                 xlink:href="#LiberationSans-31"
                 id="use34" />
              <use
                 x="114.013671875"
                 xlink:href="#LiberationSans-2e"
                 id="use36" />
              <use
                 x="141.796875"
                 xlink:href="#LiberationSans-35"
                 id="use38" />
            </g>
          </g>
        </g>
        <g
           id="xtick_7">
          <g
             id="line2d_19">
            <path
               clip-path="url(#p2096cc0a49)"
               d="M 465.4 167.4  L 465.4 0  "
               style="fill:none;stroke:#ffffff;stroke-linecap:round;"
               id="path124" />
          </g>
          <g
             id="line2d_20" />
          <g
             id="line2d_21" />
          <g
             id="text_7">
            <!-- 1.5 -->
            <g
               style="fill:#262626;"
               transform="translate(458.45 181.646875)scale(0.1 -0.1)"
               id="g129">
              <use
                 xlink:href="#LiberationSans-31"
                 id="use131" />
              <use
                 x="55.615234375"
                 xlink:href="#LiberationSans-2e"
                 id="use133" />
              <use
                 x="83.3984375"
                 xlink:href="#LiberationSans-35"
                 id="use135" />
            </g>
          </g>
        </g>
        <g
           id="text_8">
          <!-- Temperature control variable $u$ -->
          <defs
             id="defs138">
            <path
               d="M 6.9375 0  L 6.9375 40.53125  Q 6.9375 42.1875 6.90625 43.921875  Q 6.890625 45.65625 6.828125 47.265625  Q 6.78125 48.875 6.734375 50.28125  Q 6.6875 51.703125 6.640625 52.828125  L 14.9375 52.828125  Q 14.984375 51.703125 15.0625 50.265625  Q 15.140625 48.828125 15.203125 47.3125  Q 15.28125 45.796875 15.296875 44.40625  Q 15.328125 43.015625 15.328125 42.046875  L 15.53125 42.046875  Q 16.453125 45.0625 17.5 47.28125  Q 18.5625 49.515625 19.96875 50.953125  Q 21.390625 52.390625 23.34375 53.09375  Q 25.296875 53.8125 28.078125 53.8125  Q 29.15625 53.8125 30.125 53.640625  Q 31.109375 53.46875 31.640625 53.328125  L 31.640625 45.265625  Q 30.765625 45.515625 29.59375 45.625  Q 28.421875 45.75 26.953125 45.75  Q 23.921875 45.75 21.796875 44.375  Q 19.671875 43.015625 18.328125 40.59375  Q 17 38.1875 16.359375 34.84375  Q 15.71875 31.5 15.71875 27.546875  L 15.71875 0  z "
               id="LiberationSans-72" />
            <path
               d="M 51.421875 26.65625  Q 51.421875 20.65625 50.4375 15.578125  Q 49.46875 10.5 47.1875 6.828125  Q 44.921875 3.171875 41.1875 1.09375  Q 37.453125 -0.984375 31.984375 -0.984375  Q 26.3125 -0.984375 22.0625 1.171875  Q 17.828125 3.328125 15.578125 8.203125  L 15.328125 8.203125  Q 15.375 8.109375 15.40625 7.328125  Q 15.4375 6.546875 15.453125 5.375  Q 15.484375 4.203125 15.5 2.75  Q 15.53125 1.3125 15.53125 -0.09375  L 15.53125 -20.75  L 6.734375 -20.75  L 6.734375 42.046875  Q 6.734375 43.953125 6.703125 45.703125  Q 6.6875 47.46875 6.640625 48.90625  Q 6.59375 50.34375 6.546875 51.359375  Q 6.5 52.390625 6.453125 52.828125  L 14.9375 52.828125  Q 14.984375 52.6875 15.0625 51.796875  Q 15.140625 50.921875 15.203125 49.671875  Q 15.28125 48.4375 15.359375 47.015625  Q 15.4375 45.609375 15.4375 44.34375  L 15.625 44.34375  Q 16.84375 46.875 18.40625 48.65625  Q 19.96875 50.4375 21.96875 51.578125  Q 23.96875 52.734375 26.4375 53.25  Q 28.90625 53.765625 31.984375 53.765625  Q 37.453125 53.765625 41.1875 51.8125  Q 44.921875 49.859375 47.1875 46.3125  Q 49.46875 42.78125 50.4375 37.765625  Q 51.421875 32.765625 51.421875 26.65625  M 42.1875 26.46875  Q 42.1875 31.34375 41.59375 35.15625  Q 41.015625 38.96875 39.578125 41.59375  Q 38.140625 44.234375 35.734375 45.59375  Q 33.34375 46.96875 29.734375 46.96875  Q 26.8125 46.96875 24.21875 46.140625  Q 21.625 45.3125 19.703125 42.96875  Q 17.78125 40.625 16.65625 36.5  Q 15.53125 32.375 15.53125 25.78125  Q 15.53125 20.171875 16.453125 16.28125  Q 17.390625 12.40625 19.171875 10.015625  Q 20.953125 7.625 23.578125 6.5625  Q 26.21875 5.515625 29.640625 5.515625  Q 33.296875 5.515625 35.71875 6.921875  Q 38.140625 8.34375 39.578125 11.03125  Q 41.015625 13.71875 41.59375 17.59375  Q 42.1875 21.484375 42.1875 26.46875  "
               id="LiberationSans-70" />
            <path
               d="M 20.21875 -0.984375  Q 12.25 -0.984375 8.25 3.21875  Q 4.25 7.421875 4.25 14.75  Q 4.25 19.96875 6.21875 23.3125  Q 8.203125 26.65625 11.390625 28.5625  Q 14.59375 30.46875 18.6875 31.203125  Q 22.796875 31.9375 27.046875 32.03125  L 38.921875 32.234375  L 38.921875 35.109375  Q 38.921875 38.375 38.234375 40.671875  Q 37.546875 42.96875 36.125 44.375  Q 34.71875 45.796875 32.59375 46.453125  Q 30.46875 47.125 27.59375 47.125  Q 25.046875 47.125 23 46.75  Q 20.953125 46.390625 19.4375 45.4375  Q 17.921875 44.484375 16.984375 42.84375  Q 16.0625 41.21875 15.765625 38.71875  L 6.59375 39.546875  Q 7.078125 42.671875 8.4375 45.28125  Q 9.8125 47.90625 12.328125 49.796875  Q 14.84375 51.703125 18.625 52.75  Q 22.40625 53.8125 27.78125 53.8125  Q 37.75 53.8125 42.765625 49.234375  Q 47.796875 44.671875 47.796875 36.03125  L 47.796875 13.28125  Q 47.796875 9.375 48.828125 7.390625  Q 49.859375 5.421875 52.734375 5.421875  Q 53.46875 5.421875 54.203125 5.515625  Q 54.9375 5.609375 55.609375 5.765625  L 55.609375 0.296875  Q 53.953125 -0.09375 52.3125 -0.28125  Q 50.6875 -0.484375 48.828125 -0.484375  Q 46.34375 -0.484375 44.5625 0.171875  Q 42.78125 0.828125 41.65625 2.171875  Q 40.53125 3.515625 39.9375 5.484375  Q 39.359375 7.46875 39.203125 10.109375  L 38.921875 10.109375  Q 37.5 7.5625 35.8125 5.515625  Q 34.125 3.46875 31.875 2.03125  Q 29.640625 0.59375 26.78125 -0.1875  Q 23.921875 -0.984375 20.21875 -0.984375  M 22.21875 5.609375  Q 26.421875 5.609375 29.5625 7.140625  Q 32.71875 8.6875 34.78125 11.078125  Q 36.859375 13.484375 37.890625 16.3125  Q 38.921875 19.140625 38.921875 21.734375  L 38.921875 26.078125  L 29.296875 25.875  Q 26.078125 25.828125 23.171875 25.40625  Q 20.265625 25 18.0625 23.78125  Q 15.875 22.5625 14.578125 20.359375  Q 13.28125 18.171875 13.28125 14.59375  Q 13.28125 10.296875 15.59375 7.953125  Q 17.921875 5.609375 22.21875 5.609375  "
               id="LiberationSans-61" />
            <path
               d="M 15.328125 52.828125  L 15.328125 19.34375  Q 15.328125 15.484375 15.890625 12.890625  Q 16.453125 10.296875 17.71875 8.703125  Q 19 7.125 21.0625 6.46875  Q 23.140625 5.8125 26.21875 5.8125  Q 29.34375 5.8125 31.859375 6.90625  Q 34.375 8.015625 36.15625 10.078125  Q 37.9375 12.15625 38.90625 15.203125  Q 39.890625 18.265625 39.890625 22.21875  L 39.890625 52.828125  L 48.6875 52.828125  L 48.6875 11.28125  Q 48.6875 9.625 48.703125 7.78125  Q 48.734375 5.953125 48.78125 4.3125  Q 48.828125 2.6875 48.875 1.515625  Q 48.921875 0.34375 48.96875 0  L 40.671875 0  Q 40.625 0.25 40.578125 1.3125  Q 40.53125 2.390625 40.453125 3.78125  Q 40.375 5.171875 40.328125 6.609375  Q 40.28125 8.0625 40.28125 9.03125  L 40.140625 9.03125  Q 38.875 6.734375 37.359375 4.875  Q 35.84375 3.03125 33.84375 1.734375  Q 31.84375 0.4375 29.25 -0.265625  Q 26.65625 -0.984375 23.25 -0.984375  Q 18.84375 -0.984375 15.671875 0.09375  Q 12.5 1.171875 10.453125 3.421875  Q 8.40625 5.671875 7.453125 9.1875  Q 6.5 12.703125 6.5 17.625  L 6.5 52.828125  z "
               id="LiberationSans-75" />
            <path
               d="M 13.484375 24.5625  Q 13.484375 20.40625 14.328125 16.90625  Q 15.1875 13.421875 16.96875 10.90625  Q 18.75 8.40625 21.53125 7  Q 24.3125 5.609375 28.21875 5.609375  Q 33.9375 5.609375 37.375 7.90625  Q 40.828125 10.203125 42.046875 13.71875  L 49.75 11.53125  Q 48.921875 9.328125 47.4375 7.109375  Q 45.953125 4.890625 43.453125 3.09375  Q 40.96875 1.3125 37.234375 0.15625  Q 33.5 -0.984375 28.21875 -0.984375  Q 16.5 -0.984375 10.375 6  Q 4.25 12.984375 4.25 26.765625  Q 4.25 34.1875 6.09375 39.328125  Q 7.953125 44.484375 11.171875 47.703125  Q 14.40625 50.921875 18.703125 52.359375  Q 23 53.8125 27.875 53.8125  Q 34.515625 53.8125 38.984375 51.65625  Q 43.453125 49.515625 46.15625 45.71875  Q 48.875 41.9375 50.015625 36.8125  Q 51.171875 31.6875 51.171875 25.734375  L 51.171875 24.5625  z M 42.09375 31.296875  Q 41.359375 39.65625 37.84375 43.484375  Q 34.328125 47.3125 27.734375 47.3125  Q 25.53125 47.3125 23.109375 46.609375  Q 20.703125 45.90625 18.65625 44.09375  Q 16.609375 42.28125 15.1875 39.171875  Q 13.765625 36.078125 13.578125 31.296875  z "
               id="LiberationSans-65" />
            <path
               d="M 51.421875 26.65625  Q 51.421875 -0.984375 31.984375 -0.984375  Q 25.984375 -0.984375 22 1.1875  Q 18.015625 3.375 15.53125 8.203125  L 15.4375 8.203125  Q 15.4375 6.9375 15.359375 5.5625  Q 15.28125 4.203125 15.203125 3.03125  Q 15.140625 1.859375 15.0625 1.03125  Q 14.984375 0.203125 14.9375 0  L 6.453125 0  Q 6.5 0.4375 6.546875 1.484375  Q 6.59375 2.546875 6.640625 4  Q 6.6875 5.46875 6.703125 7.21875  Q 6.734375 8.984375 6.734375 10.890625  L 6.734375 72.46875  L 15.53125 72.46875  L 15.53125 51.8125  Q 15.53125 50.34375 15.5 49  Q 15.484375 47.65625 15.4375 46.625  Q 15.375 45.40625 15.328125 44.34375  L 15.53125 44.34375  Q 17.96875 49.421875 22 51.609375  Q 26.03125 53.8125 31.984375 53.8125  Q 42 53.8125 46.703125 47.0625  Q 51.421875 40.328125 51.421875 26.65625  M 42.1875 26.375  Q 42.1875 31.84375 41.5 35.75  Q 40.828125 39.65625 39.3125 42.15625  Q 37.796875 44.671875 35.453125 45.84375  Q 33.109375 47.015625 29.734375 47.015625  Q 26.265625 47.015625 23.609375 45.890625  Q 20.953125 44.78125 19.171875 42.28125  Q 17.390625 39.796875 16.453125 35.734375  Q 15.53125 31.6875 15.53125 25.828125  Q 15.53125 20.171875 16.453125 16.3125  Q 17.390625 12.453125 19.171875 10.03125  Q 20.953125 7.625 23.578125 6.5625  Q 26.21875 5.515625 29.640625 5.515625  Q 32.859375 5.515625 35.203125 6.640625  Q 37.546875 7.765625 39.109375 10.25  Q 40.671875 12.75 41.421875 16.71875  Q 42.1875 20.703125 42.1875 26.375  "
               id="LiberationSans-62" />
            <path
               d="M 13.421875 26.65625  Q 13.421875 22.125 14.078125 18.3125  Q 14.75 14.5 16.3125 11.734375  Q 17.875 8.984375 20.4375 7.46875  Q 23 5.953125 26.765625 5.953125  Q 31.453125 5.953125 34.59375 8.484375  Q 37.75 11.03125 38.484375 16.3125  L 47.359375 15.71875  Q 46.921875 12.453125 45.453125 9.421875  Q 44 6.390625 41.484375 4.09375  Q 38.96875 1.8125 35.34375 0.40625  Q 31.734375 -0.984375 27 -0.984375  Q 20.796875 -0.984375 16.453125 1.109375  Q 12.109375 3.21875 9.390625 6.90625  Q 6.6875 10.59375 5.46875 15.59375  Q 4.25 20.609375 4.25 26.46875  Q 4.25 31.78125 5.125 35.859375  Q 6 39.9375 7.59375 42.984375  Q 9.1875 46.046875 11.328125 48.125  Q 13.484375 50.203125 15.984375 51.4375  Q 18.5 52.6875 21.28125 53.25  Q 24.078125 53.8125 26.90625 53.8125  Q 31.34375 53.8125 34.8125 52.59375  Q 38.28125 51.375 40.796875 49.25  Q 43.3125 47.125 44.875 44.234375  Q 46.4375 41.359375 47.078125 38.03125  L 38.03125 37.359375  Q 37.359375 41.75 34.5625 44.328125  Q 31.78125 46.921875 26.65625 46.921875  Q 22.90625 46.921875 20.390625 45.671875  Q 17.875 44.4375 16.3125 41.921875  Q 14.75 39.40625 14.078125 35.59375  Q 13.421875 31.78125 13.421875 26.65625  "
               id="LiberationSans-63" />
            <path
               d="M 27.046875 0.390625  Q 25.046875 -0.140625 22.96875 -0.453125  Q 20.90625 -0.78125 18.171875 -0.78125  Q 7.625 -0.78125 7.625 11.1875  L 7.625 46.4375  L 1.515625 46.4375  L 1.515625 52.828125  L 7.953125 52.828125  L 10.546875 64.65625  L 16.40625 64.65625  L 16.40625 52.828125  L 26.171875 52.828125  L 26.171875 46.4375  L 16.40625 46.4375  L 16.40625 13.09375  Q 16.40625 9.28125 17.640625 7.734375  Q 18.890625 6.203125 21.96875 6.203125  Q 23.25 6.203125 24.4375 6.390625  Q 25.640625 6.59375 27.046875 6.890625  z "
               id="LiberationSans-74" />
            <path
               d="M 6.6875 64.0625  L 6.6875 72.46875  L 15.484375 72.46875  L 15.484375 64.0625  z M 6.6875 0  L 6.6875 52.828125  L 15.484375 52.828125  L 15.484375 0  z "
               id="LiberationSans-69" />
            <path
               d="M 37.5 0  L 37.5 33.5  Q 37.5 37.359375 37.015625 39.9375  Q 36.53125 42.53125 35.375 44.109375  Q 34.234375 45.703125 32.375 46.359375  Q 30.515625 47.015625 27.828125 47.015625  Q 25.046875 47.015625 22.796875 45.921875  Q 20.5625 44.828125 18.96875 42.75  Q 17.390625 40.671875 16.53125 37.625  Q 15.671875 34.578125 15.671875 30.609375  L 15.671875 0  L 6.9375 0  L 6.9375 41.546875  Q 6.9375 43.21875 6.90625 45.046875  Q 6.890625 46.875 6.828125 48.5  Q 6.78125 50.140625 6.734375 51.3125  Q 6.6875 52.484375 6.640625 52.828125  L 14.9375 52.828125  Q 14.984375 52.59375 15.03125 51.515625  Q 15.09375 50.4375 15.15625 49.046875  Q 15.234375 47.65625 15.28125 46.21875  Q 15.328125 44.78125 15.328125 43.796875  L 15.484375 43.796875  Q 16.65625 46.09375 18.015625 47.953125  Q 19.390625 49.8125 21.21875 51.09375  Q 23.046875 52.390625 25.40625 53.09375  Q 27.78125 53.8125 30.90625 53.8125  Q 36.921875 53.8125 40.40625 51.421875  Q 43.890625 49.03125 45.265625 43.796875  L 45.40625 43.796875  Q 46.578125 46.09375 48.046875 47.953125  Q 49.515625 49.8125 51.46875 51.09375  Q 53.421875 52.390625 55.859375 53.09375  Q 58.296875 53.8125 61.421875 53.8125  Q 65.4375 53.8125 68.328125 52.734375  Q 71.234375 51.65625 73.09375 49.40625  Q 74.953125 47.171875 75.828125 43.625  Q 76.703125 40.09375 76.703125 35.203125  L 76.703125 0  L 68.015625 0  L 68.015625 33.5  Q 68.015625 37.359375 67.53125 39.9375  Q 67.046875 42.53125 65.890625 44.109375  Q 64.75 45.703125 62.890625 46.359375  Q 61.03125 47.015625 58.34375 47.015625  Q 55.5625 47.015625 53.3125 45.96875  Q 51.078125 44.921875 49.484375 42.875  Q 47.90625 40.828125 47.046875 37.75  Q 46.1875 34.671875 46.1875 30.609375  L 46.1875 0  z "
               id="LiberationSans-6d" />
            <path
               d="M 40.28125 0  L 40.28125 33.5  Q 40.28125 37.359375 39.71875 39.9375  Q 39.15625 42.53125 37.890625 44.109375  Q 36.625 45.703125 34.546875 46.359375  Q 32.46875 47.015625 29.390625 47.015625  Q 26.265625 47.015625 23.75 45.921875  Q 21.234375 44.828125 19.453125 42.75  Q 17.671875 40.671875 16.6875 37.625  Q 15.71875 34.578125 15.71875 30.609375  L 15.71875 0  L 6.9375 0  L 6.9375 41.546875  Q 6.9375 43.21875 6.90625 45.046875  Q 6.890625 46.875 6.828125 48.5  Q 6.78125 50.140625 6.734375 51.3125  Q 6.6875 52.484375 6.640625 52.828125  L 14.9375 52.828125  Q 14.984375 52.59375 15.03125 51.515625  Q 15.09375 50.4375 15.15625 49.046875  Q 15.234375 47.65625 15.28125 46.21875  Q 15.328125 44.78125 15.328125 43.796875  L 15.484375 43.796875  Q 16.75 46.09375 18.265625 47.953125  Q 19.78125 49.8125 21.78125 51.09375  Q 23.78125 52.390625 26.359375 53.09375  Q 28.953125 53.8125 32.375 53.8125  Q 36.765625 53.8125 39.9375 52.734375  Q 43.109375 51.65625 45.15625 49.40625  Q 47.21875 47.171875 48.171875 43.625  Q 49.125 40.09375 49.125 35.203125  L 49.125 0  z "
               id="LiberationSans-6e" />
            <path
               d="M 51.421875 26.46875  Q 51.421875 12.59375 45.3125 5.796875  Q 39.203125 -0.984375 27.59375 -0.984375  Q 22.078125 -0.984375 17.71875 0.671875  Q 13.375 2.34375 10.375 5.765625  Q 7.375 9.1875 5.78125 14.328125  Q 4.203125 19.484375 4.203125 26.46875  Q 4.203125 53.8125 27.875 53.8125  Q 34.03125 53.8125 38.5 52.09375  Q 42.96875 50.390625 45.828125 46.96875  Q 48.6875 43.5625 50.046875 38.421875  Q 51.421875 33.296875 51.421875 26.46875  M 42.1875 26.46875  Q 42.1875 32.625 41.234375 36.625  Q 40.28125 40.625 38.453125 43.015625  Q 36.625 45.40625 33.984375 46.359375  Q 31.34375 47.3125 28.03125 47.3125  Q 24.65625 47.3125 21.9375 46.3125  Q 19.234375 45.3125 17.328125 42.890625  Q 15.4375 40.484375 14.421875 36.46875  Q 13.421875 32.46875 13.421875 26.46875  Q 13.421875 20.3125 14.5 16.28125  Q 15.578125 12.25 17.453125 9.859375  Q 19.34375 7.46875 21.90625 6.484375  Q 24.46875 5.515625 27.484375 5.515625  Q 30.859375 5.515625 33.59375 6.46875  Q 36.328125 7.421875 38.234375 9.8125  Q 40.140625 12.203125 41.15625 16.25  Q 42.1875 20.3125 42.1875 26.46875  "
               id="LiberationSans-6f" />
            <path
               d="M 6.734375 0  L 6.734375 72.46875  L 15.53125 72.46875  L 15.53125 0  z "
               id="LiberationSans-6c" />
            <path
               id="LiberationSans-20" />
            <path
               d="M 35.15625 61.1875  L 35.15625 0  L 25.875 0  L 25.875 61.1875  L 2.25 61.1875  L 2.25 68.796875  L 58.796875 68.796875  L 58.796875 61.1875  z "
               id="LiberationSans-54" />
            <path
               d="M 10.59375 10.890625  Q 10.59375 14.15625 11.46875 17.59375  Q 12.359375 21.046875 13.9375 25.265625  Q 15.53125 29.5 16.703125 32.625  Q 18.015625 36.28125 18.015625 38.625  Q 18.015625 41.609375 15.828125 41.609375  Q 11.859375 41.609375 9.296875 37.53125  Q 6.734375 33.453125 5.515625 28.421875  Q 5.328125 27.78125 4.6875 27.78125  L 3.515625 27.78125  Q 2.6875 27.78125 2.6875 28.71875  L 2.6875 29  Q 4.296875 34.96875 7.609375 39.578125  Q 10.9375 44.1875 16.015625 44.1875  Q 19.578125 44.1875 22.046875 41.84375  Q 24.515625 39.5 24.515625 35.890625  Q 24.515625 34.03125 23.6875 31.984375  Q 23.25 30.765625 21.6875 26.65625  Q 20.125 22.5625 19.28125 19.875  Q 18.453125 17.1875 17.921875 14.59375  Q 17.390625 12.015625 17.390625 9.421875  Q 17.390625 6.109375 18.796875 3.8125  Q 20.21875 1.515625 23.390625 1.515625  Q 29.78125 1.515625 34.625 9.421875  Q 34.71875 9.8125 34.78125 10.171875  Q 34.859375 10.546875 34.90625 10.890625  L 42.09375 39.890625  Q 42.4375 41.21875 43.65625 42.15625  Q 44.875 43.109375 46.296875 43.109375  Q 47.515625 43.109375 48.40625 42.328125  Q 49.3125 41.546875 49.3125 40.28125  Q 49.3125 39.703125 49.21875 39.5  L 42 10.6875  Q 41.3125 7.71875 41.3125 5.8125  Q 41.3125 1.515625 44.1875 1.515625  Q 47.40625 1.515625 49 5.484375  Q 50.59375 9.46875 51.703125 14.703125  Q 51.90625 15.28125 52.484375 15.28125  L 53.71875 15.28125  Q 54.109375 15.28125 54.34375 14.9375  Q 54.59375 14.59375 54.59375 14.3125  Q 53.515625 10.015625 52.515625 6.9375  Q 51.515625 3.859375 49.359375 1.359375  Q 47.21875 -1.125 44 -1.125  Q 40.828125 -1.125 38.3125 0.609375  Q 35.796875 2.34375 34.90625 5.328125  Q 32.625 2.390625 29.59375 0.625  Q 26.5625 -1.125 23.1875 -1.125  Q 17.4375 -1.125 14.015625 2.015625  Q 10.59375 5.171875 10.59375 10.890625  "
               id="Cmmi10-75" />
            <path
               d="M 29.9375 0  L 19.53125 0  L 0.34375 52.828125  L 9.71875 52.828125  L 21.34375 18.453125  Q 21.6875 17.390625 22.140625 15.84375  Q 22.609375 14.3125 23.09375 12.640625  Q 23.578125 10.984375 24 9.4375  Q 24.421875 7.90625 24.703125 6.890625  Q 25 7.90625 25.453125 9.4375  Q 25.921875 10.984375 26.40625 12.59375  Q 26.90625 14.203125 27.421875 15.734375  Q 27.9375 17.28125 28.328125 18.359375  L 40.328125 52.828125  L 49.65625 52.828125  z "
               id="LiberationSans-76" />
          </defs>
          <g
             style="fill:#262626;"
             transform="translate(146.72 198.941875)scale(0.14 -0.14)"
             id="g157">
            <use
               transform="translate(0.0 0.53125)"
               xlink:href="#LiberationSans-54"
               id="use159" />
            <use
               transform="translate(61.083984375 0.53125)"
               xlink:href="#LiberationSans-65"
               id="use161" />
            <use
               transform="translate(116.69921875 0.53125)"
               xlink:href="#LiberationSans-6d"
               id="use163" />
            <use
               transform="translate(200.0 0.53125)"
               xlink:href="#LiberationSans-70"
               id="use165" />
            <use
               transform="translate(255.615234375 0.53125)"
               xlink:href="#LiberationSans-65"
               id="use167" />
            <use
               transform="translate(311.23046875 0.53125)"
               xlink:href="#LiberationSans-72"
               id="use169" />
            <use
               transform="translate(344.53125 0.53125)"
               xlink:href="#LiberationSans-61"
               id="use171" />
            <use
               transform="translate(400.146484375 0.53125)"
               xlink:href="#LiberationSans-74"
               id="use173" />
            <use
               transform="translate(427.9296875 0.53125)"
               xlink:href="#LiberationSans-75"
               id="use175" />
            <use
               transform="translate(483.544921875 0.53125)"
               xlink:href="#LiberationSans-72"
               id="use177" />
            <use
               transform="translate(516.845703125 0.53125)"
               xlink:href="#LiberationSans-65"
               id="use179" />
            <use
               transform="translate(572.4609375 0.53125)"
               xlink:href="#LiberationSans-20"
               id="use181" />
            <use
               transform="translate(600.244140625 0.53125)"
               xlink:href="#LiberationSans-63"
               id="use183" />
            <use
               transform="translate(650.244140625 0.53125)"
               xlink:href="#LiberationSans-6f"
               id="use185" />
            <use
               transform="translate(705.859375 0.53125)"
               xlink:href="#LiberationSans-6e"
               id="use187" />
            <use
               transform="translate(761.474609375 0.53125)"
               xlink:href="#LiberationSans-74"
               id="use189" />
            <use
               transform="translate(789.2578125 0.53125)"
               xlink:href="#LiberationSans-72"
               id="use191" />
            <use
               transform="translate(822.55859375 0.53125)"
               xlink:href="#LiberationSans-6f"
               id="use193" />
            <use
               transform="translate(878.173828125 0.53125)"
               xlink:href="#LiberationSans-6c"
               id="use195" />
            <use
               transform="translate(900.390625 0.53125)"
               xlink:href="#LiberationSans-20"
               id="use197" />
            <use
               transform="translate(928.173828125 0.53125)"
               xlink:href="#LiberationSans-76"
               id="use199" />
            <use
               transform="translate(978.173828125 0.53125)"
               xlink:href="#LiberationSans-61"
               id="use201" />
            <use
               transform="translate(1033.7890625 0.53125)"
               xlink:href="#LiberationSans-72"
               id="use203" />
            <use
               transform="translate(1067.08984375 0.53125)"
               xlink:href="#LiberationSans-69"
               id="use205" />
            <use
               transform="translate(1089.30664062 0.53125)"
               xlink:href="#LiberationSans-61"
               id="use207" />
            <use
               transform="translate(1144.921875 0.53125)"
               xlink:href="#LiberationSans-62"
               id="use209" />
            <use
               transform="translate(1200.53710938 0.53125)"
               xlink:href="#LiberationSans-6c"
               id="use211" />
            <use
               transform="translate(1222.75390625 0.53125)"
               xlink:href="#LiberationSans-65"
               id="use213" />
            <use
               transform="translate(1278.36914062 0.53125)"
               xlink:href="#LiberationSans-20"
               id="use215" />
            <use
               transform="translate(1306.15234375 0.53125)"
               xlink:href="#Cmmi10-75"
               id="use217" />
          </g>
        </g>
      </g>
      <g
         id="matplotlib.axis_2">
        <g
           id="text_9">
          <!-- $-\log\,\,\pi(u)$ -->
          <defs
             id="defs221">
            <path
               d="M 10.203125 23  Q 9.375 23 8.828125 23.625  Q 8.296875 24.265625 8.296875 25  Q 8.296875 25.734375 8.828125 26.359375  Q 9.375 27 10.203125 27  L 67.578125 27  Q 68.359375 27 68.875 26.359375  Q 69.390625 25.734375 69.390625 25  Q 69.390625 24.265625 68.875 23.625  Q 68.359375 23 67.578125 23  z "
               id="Cmsy10-a1" />
            <path
               d="M 31 -24.8125  Q 25.4375 -20.40625 21.40625 -14.71875  Q 17.390625 -9.03125 14.8125 -2.578125  Q 12.25 3.859375 10.984375 10.890625  Q 9.71875 17.921875 9.71875 25  Q 9.71875 32.171875 10.984375 39.203125  Q 12.25 46.234375 14.859375 52.734375  Q 17.484375 59.234375 21.53125 64.890625  Q 25.59375 70.5625 31 74.8125  Q 31 75 31.5 75  L 32.421875 75  Q 32.71875 75 32.953125 74.734375  Q 33.203125 74.46875 33.203125 74.125  Q 33.203125 73.6875 33.015625 73.484375  Q 28.125 68.703125 24.875 63.234375  Q 21.625 57.765625 19.640625 51.578125  Q 17.671875 45.40625 16.796875 38.78125  Q 15.921875 32.171875 15.921875 25  Q 15.921875 -6.78125 32.90625 -23.296875  Q 33.203125 -23.578125 33.203125 -24.125  Q 33.203125 -24.359375 32.9375 -24.671875  Q 32.671875 -25 32.421875 -25  L 31.5 -25  Q 31 -25 31 -24.8125  "
               id="Cmr10-28" />
            <path
               d="M 6.5 -25  Q 5.609375 -25 5.609375 -24.125  Q 5.609375 -23.6875 5.8125 -23.484375  Q 22.90625 -6.78125 22.90625 25  Q 22.90625 56.78125 6 73.296875  Q 5.609375 73.53125 5.609375 74.125  Q 5.609375 74.46875 5.875 74.734375  Q 6.15625 75 6.5 75  L 7.421875 75  Q 7.71875 75 7.90625 74.8125  Q 15.09375 69.140625 19.875 61.03125  Q 24.65625 52.9375 26.875 43.75  Q 29.109375 34.578125 29.109375 25  Q 29.109375 17.921875 27.90625 11.0625  Q 26.703125 4.203125 24.09375 -2.453125  Q 21.484375 -9.125 17.484375 -14.765625  Q 13.484375 -20.40625 7.90625 -24.8125  Q 7.71875 -25 7.421875 -25  z "
               id="Cmr10-29" />
            <path
               d="M 25 -1.125  Q 19 -1.125 13.859375 1.921875  Q 8.734375 4.984375 5.75 10.109375  Q 2.78125 15.234375 2.78125 21.296875  Q 2.78125 25.875 4.421875 30.125  Q 6.0625 34.375 9.109375 37.71875  Q 12.15625 41.0625 16.203125 42.9375  Q 20.265625 44.828125 25 44.828125  Q 31.15625 44.828125 36.203125 41.578125  Q 41.265625 38.328125 44.1875 32.875  Q 47.125 27.4375 47.125 21.296875  Q 47.125 15.28125 44.140625 10.125  Q 41.15625 4.984375 36.046875 1.921875  Q 30.953125 -1.125 25 -1.125  M 25 1.8125  Q 33.015625 1.8125 35.6875 7.609375  Q 38.375 13.421875 38.375 22.40625  Q 38.375 27.4375 37.84375 30.734375  Q 37.3125 34.03125 35.5 36.71875  Q 34.375 38.375 32.640625 39.625  Q 30.90625 40.875 28.96875 41.53125  Q 27.046875 42.1875 25 42.1875  Q 21.875 42.1875 19.0625 40.765625  Q 16.265625 39.359375 14.40625 36.71875  Q 12.546875 33.890625 12.03125 30.484375  Q 11.53125 27.09375 11.53125 22.40625  Q 11.53125 16.796875 12.5 12.328125  Q 13.484375 7.859375 16.4375 4.828125  Q 19.390625 1.8125 25 1.8125  "
               id="Cmr10-6f" />
            <path
               d="M 10.109375 1.703125  Q 10.109375 2.25 10.5 3.328125  Q 13.28125 9.125 15.6875 14.71875  Q 18.109375 20.3125 20.03125 25.609375  Q 21.96875 30.90625 23.578125 36.921875  L 17.1875 36.921875  Q 13.53125 36.921875 10.34375 34.625  Q 7.171875 32.328125 5.078125 28.8125  Q 4.890625 28.421875 4.5 28.421875  L 3.328125 28.421875  Q 2.390625 28.421875 2.390625 29.390625  Q 2.390625 29.59375 2.59375 29.984375  Q 5.859375 35.546875 9.59375 39.328125  Q 13.328125 43.109375 18.015625 43.109375  L 54.296875 43.109375  Q 55.328125 43.109375 56.046875 42.421875  Q 56.78125 41.75 56.78125 40.578125  Q 56.78125 39.109375 55.734375 38.015625  Q 54.6875 36.921875 53.21875 36.921875  L 40.484375 36.921875  Q 38.875 29.046875 38.71875 21.578125  Q 38.71875 11.96875 42.09375 4.203125  Q 42.390625 3.609375 42.390625 2.984375  Q 42.390625 1.90625 41.75 0.96875  Q 41.109375 0.046875 40.109375 -0.53125  Q 39.109375 -1.125 37.984375 -1.125  Q 35.359375 -1.125 34.375 3.171875  Q 33.40625 7.46875 33.40625 11.53125  Q 33.40625 17.234375 34.375 22.53125  Q 35.359375 27.828125 37.5 36.921875  L 26.609375 36.921875  Q 18.703125 4.890625 17.09375 1.609375  Q 15.671875 -1.125 13.1875 -1.125  Q 11.96875 -1.125 11.03125 -0.3125  Q 10.109375 0.484375 10.109375 1.703125  "
               id="Cmmi10-bc" />
            <path
               d="M 3.078125 0  L 3.078125 3.515625  Q 6.5 3.515625 8.6875 4.046875  Q 10.890625 4.59375 10.890625 6.6875  L 10.890625 59.1875  Q 10.890625 61.859375 10.078125 63.0625  Q 9.28125 64.265625 7.765625 64.53125  Q 6.25 64.796875 3.078125 64.796875  L 3.078125 68.3125  L 17.921875 69.390625  L 17.921875 6.6875  Q 17.921875 4.59375 20.109375 4.046875  Q 22.3125 3.515625 25.6875 3.515625  L 25.6875 0  z "
               id="Cmr10-6c" />
            <path
               d="M 2.78125 -7.8125  Q 2.78125 -4.25 5.359375 -1.578125  Q 7.953125 1.078125 11.53125 2.203125  Q 9.515625 3.71875 8.46875 6  Q 7.421875 8.296875 7.421875 10.890625  Q 7.421875 15.578125 10.40625 19.1875  Q 5.8125 23.6875 5.8125 29.5  Q 5.8125 32.625 7.15625 35.359375  Q 8.5 38.09375 10.890625 40.09375  Q 13.28125 42.09375 16.203125 43.140625  Q 19.140625 44.1875 22.21875 44.1875  Q 28.171875 44.1875 32.90625 40.71875  Q 34.96875 42.921875 37.765625 44.109375  Q 40.578125 45.3125 43.609375 45.3125  Q 45.75 45.3125 47.109375 43.765625  Q 48.484375 42.234375 48.484375 40.09375  Q 48.484375 38.875 47.546875 37.9375  Q 46.625 37.015625 45.40625 37.015625  Q 44.140625 37.015625 43.203125 37.9375  Q 42.28125 38.875 42.28125 40.09375  Q 42.28125 41.9375 43.5 42.671875  Q 38.328125 42.671875 34.625 39.109375  Q 36.421875 37.3125 37.515625 34.6875  Q 38.625 32.078125 38.625 29.5  Q 38.625 25.25 36.28125 21.84375  Q 33.9375 18.453125 30.09375 16.578125  Q 26.265625 14.703125 22.21875 14.703125  Q 16.75 14.703125 12.203125 17.671875  Q 10.796875 15.71875 10.796875 13.28125  Q 10.796875 10.640625 12.53125 8.65625  Q 14.265625 6.6875 16.890625 6.6875  L 25.09375 6.6875  Q 31.0625 6.6875 35.84375 5.609375  Q 40.625 4.546875 43.875 1.3125  Q 47.125 -1.90625 47.125 -7.8125  Q 47.125 -12.203125 43.40625 -15.109375  Q 39.703125 -18.015625 34.546875 -19.3125  Q 29.390625 -20.609375 25 -20.609375  Q 20.5625 -20.609375 15.375 -19.3125  Q 10.203125 -18.015625 6.484375 -15.109375  Q 2.78125 -12.203125 2.78125 -7.8125  M 8.40625 -7.8125  Q 8.40625 -11.1875 11.140625 -13.453125  Q 13.875 -15.71875 17.71875 -16.8125  Q 21.578125 -17.921875 25 -17.921875  Q 28.375 -17.921875 32.21875 -16.8125  Q 36.078125 -15.71875 38.78125 -13.453125  Q 41.5 -11.1875 41.5 -7.8125  Q 41.5 -2.59375 36.71875 -1.046875  Q 31.9375 0.484375 25.09375 0.484375  L 16.890625 0.484375  Q 14.59375 0.484375 12.671875 -0.609375  Q 10.75 -1.703125 9.578125 -3.6875  Q 8.40625 -5.671875 8.40625 -7.8125  M 22.21875 17.390625  Q 30.71875 17.390625 30.71875 29.5  Q 30.71875 34.71875 28.90625 38.109375  Q 27.09375 41.5 22.21875 41.5  Q 17.328125 41.5 15.515625 38.109375  Q 13.71875 34.71875 13.71875 29.5  Q 13.71875 26.171875 14.40625 23.484375  Q 15.09375 20.796875 16.9375 19.09375  Q 18.796875 17.390625 22.21875 17.390625  "
               id="Cmr10-67" />
          </defs>
          <g
             style="fill:#262626;"
             transform="translate(10.5 113.59)rotate(-90.0)scale(0.14 -0.14)"
             id="g230">
            <use
               xlink:href="#Cmsy10-a1"
               id="use232" />
            <use
               transform="translate(77.685546875 0.0)"
               xlink:href="#Cmr10-6c"
               id="use234" />
            <use
               transform="translate(105.37109375 0.0)"
               xlink:href="#Cmr10-6f"
               id="use236" />
            <use
               transform="translate(155.37109375 0.0)"
               xlink:href="#Cmr10-67"
               id="use238" />
            <use
               transform="translate(234.636001953 0.0)"
               xlink:href="#Cmmi10-bc"
               id="use240" />
            <use
               transform="translate(291.618423828 0.0)"
               xlink:href="#Cmr10-28"
               id="use242" />
            <use
               transform="translate(330.436783203 0.0)"
               xlink:href="#Cmmi10-75"
               id="use244" />
            <use
               transform="translate(387.614517578 0.0)"
               xlink:href="#Cmr10-29"
               id="use246" />
          </g>
        </g>
      </g>
      <g
         id="line2d_22">
        <path
           clip-path="url(#p2096cc0a49)"
           d="M 19 9.103254  L 26.812 22.055306  L 34.624 34.545961  L 42.436 46.575221  L 50.248 58.143084  L 56.944 67.691161  L 63.64 76.900254  L 70.336 85.770361  L 77.032 94.301484  L 83.728 102.493621  L 90.424 110.346774  L 97.12 117.860941  L 103.816 125.036124  L 110.512 131.872321  L 117.208 138.369534  L 123.904 144.527761  L 130.6 150.347004  L 132.832 152.062656  L 133.948 152.64232  L 135.064 152.924491  L 136.18 152.854574  L 137.296 152.406101  L 138.412 151.579478  L 139.528 150.396443  L 140.644 148.89251  L 141.76 147.109939  L 143.992 142.883187  L 146.224 138.041764  L 150.688 127.502263  L 159.616 106.209189  L 164.08 96.071819  L 168.544 86.544326  L 171.892 79.956519  L 175.24 73.980623  L 177.472 70.394912  L 179.704 67.165111  L 181.936 64.318762  L 184.168 61.877998  L 186.4 59.858214  L 188.632 58.266709  L 190.864 57.101271  L 193.096 56.348679  L 195.328 55.983105  L 197.56 55.964391  L 199.792 56.236197  L 202.024 56.724038  L 213.184 59.592308  L 218.764 60.698717  L 224.344 61.56972  L 229.924 62.205317  L 235.504 62.605508  L 241.084 62.770292  L 246.664 62.69967  L 252.244 62.393642  L 257.824 61.852208  L 263.404 61.075367  L 268.984 60.06312  L 274.564 58.815467  L 280.144 57.333238  L 283.492 56.458533  L 285.724 56.068185  L 287.956 55.93351  L 290.188 56.119668  L 292.42 56.674669  L 294.652 57.631282  L 296.884 59.008825  L 299.116 60.814821  L 301.348 63.046546  L 303.58 65.692479  L 305.812 68.73369  L 308.044 72.145175  L 310.276 75.897182  L 313.624 82.090454  L 316.972 88.855265  L 321.436 98.558258  L 325.9 108.812955  L 332.596 124.807655  L 338.176 138.041764  L 340.408 142.883187  L 342.64 147.109939  L 343.756 148.89251  L 344.872 150.396443  L 345.988 151.579478  L 347.104 152.406101  L 348.22 152.854574  L 349.336 152.924491  L 350.452 152.64232  L 351.568 152.062656  L 353.8 150.347004  L 360.496 144.527761  L 367.192 138.369534  L 373.888 131.872321  L 380.584 125.036124  L 387.28 117.860941  L 393.976 110.346774  L 400.672 102.493621  L 407.368 94.301484  L 414.064 85.770361  L 420.76 76.900254  L 427.456 67.691161  L 434.152 58.143084  L 440.848 48.256021  L 448.66 36.292676  L 456.472 23.867934  L 464.284 10.981796  L 465.4 9.103254  L 465.4 9.103254  "
           style="fill:none;stroke:#4c72b0;stroke-linecap:round;stroke-width:1.75;"
           id="path249" />
      </g>
      <g
         id="patch_3">
        <path
           d="M 19 0  L 465.4 0  "
           style="fill:none;"
           id="path252" />
      </g>
      <g
         id="patch_5">
        <path
           d="M 19 167.4  L 465.4 167.4  "
           style="fill:none;"
           id="path258" />
      </g>
    </g>
  </g>
  <defs
     id="defs263">
    <clipPath
       id="p2096cc0a49">
      <rect
         height="167.4"
         width="446.4"
         x="19.0"
         y="0.0"
         id="rect266" />
    </clipPath>
  </defs>
</svg>
