<?xml version="1.0" encoding="utf-8" standalone="no"?>
<!DOCTYPE svg PUBLIC "-//W3C//DTD SVG 1.1//EN"
  "http://www.w3.org/Graphics/SVG/1.1/DTD/svg11.dtd">
<!-- Created with matplotlib (http://matplotlib.org/) -->
<svg height="864pt" version="1.1" viewBox="0 0 1152 864" width="1152pt" xmlns="http://www.w3.org/2000/svg" xmlns:xlink="http://www.w3.org/1999/xlink">
 <defs>
  <style type="text/css">
*{stroke-linecap:butt;stroke-linejoin:round;}
  </style>
 </defs>
 <g id="figure_1">
  <g id="patch_1">
   <path d="M 0 864 
L 1152 864 
L 1152 0 
L 0 0 
z
" style="fill:#ffffff;"/>
  </g>
  <g id="axes_1">
   <g id="matplotlib.axis_1">
    <g id="xtick_1">
     <g id="line2d_1"/>
    </g>
    <g id="xtick_2">
     <g id="line2d_2"/>
    </g>
    <g id="xtick_3">
     <g id="line2d_3"/>
    </g>
    <g id="xtick_4">
     <g id="line2d_4"/>
    </g>
    <g id="xtick_5">
     <g id="line2d_5"/>
    </g>
    <g id="xtick_6">
     <g id="line2d_6"/>
    </g>
    <g id="xtick_7">
     <g id="line2d_7"/>
    </g>
    <g id="xtick_8">
     <g id="line2d_8"/>
    </g>
    <g id="xtick_9">
     <g id="line2d_9"/>
    </g>
   </g>
   <g id="matplotlib.axis_2">
    <g id="text_1">
     <!-- $\beta=1.0$ -->
     <defs>
      <path d="M 4.703125 -10.21875 
C 4.203125 -12.296875 3.203125 -16.40625 2.5 -18 
L 10.40625 -18 
C 10.90625 -16.90625 12.09375 -13.8125 12.703125 -11.03125 
L 15.5 1.109375 
C 17.59375 -0.59375 19.40625 -1 21.90625 -1 
C 30.09375 -1 36.703125 3 41.09375 8.609375 
C 44.40625 12.796875 47.40625 20.796875 47.40625 27.40625 
C 47.40625 32.109375 45.90625 36.5 41.796875 37.609375 
L 41.796875 37.703125 
C 48 40.5 51.796875 48.296875 51.796875 55.609375 
C 51.796875 62.40625 47.40625 67 41.90625 67 
C 37.296875 67 33 64.40625 29.59375 61.5 
C 22 54.921875 19.703125 51.8125 16.296875 37.640625 
z
M 26.59375 46.109375 
C 28.703125 54.609375 30.90625 62 38.40625 62 
C 42.796875 62 44.5 56.609375 44.5 52 
C 44.5 49.5 42.90625 39.609375 38.5 39.609375 
C 37.09375 39.609375 34.90625 40 34.09375 40 
C 30.5 40 29.40625 38.390625 29.40625 37.296875 
C 29.40625 36.09375 30.796875 35.09375 32.59375 35.09375 
C 34.40625 35.09375 34.90625 36 36.796875 36 
C 38.40625 36 38.90625 33.109375 38.90625 29.703125 
C 38.90625 20 33 1.90625 21.296875 1.90625 
C 20.09375 1.90625 18.09375 2.40625 16.40625 4.203125 
z
" id="STIXMath_Italic-12"/>
      <path d="M 63.703125 32 
L 63.703125 38.59375 
L 4.796875 38.59375 
L 4.796875 32 
z
M 63.703125 12 
L 63.703125 18.59375 
L 4.796875 18.59375 
L 4.796875 12 
z
" id="STIXMath_Regular-61"/>
      <path d="M 39.40625 0 
L 39.40625 1.5 
C 31.90625 1.5 29.90625 3.296875 29.90625 7.609375 
L 29.90625 67.5 
L 29 67.796875 
L 11.09375 58.703125 
L 11.09375 57.296875 
L 13.796875 58.296875 
C 15.59375 59 17.296875 59.5 18.296875 59.5 
C 20.40625 59.5 21.296875 57.984375 21.296875 54.5625 
L 21.296875 9.171875 
C 21.296875 3.609375 19.203125 1.5 11.796875 1.5 
L 11.796875 0 
z
" id="STIXMath_Regular-49"/>
      <path d="M 18.09375 4.390625 
C 18.09375 7.390625 15.5 10.09375 12.59375 10.09375 
C 9.5 10.09375 7 7.59375 7 4.5 
C 7 1.390625 9.40625 -1 12.5 -1 
C 15.5 -1 18.09375 1.5 18.09375 4.390625 
z
" id="STIXMath_Italic-58"/>
      <path d="M 47.59375 33.40625 
C 47.59375 53.90625 38.5 68 25.40625 68 
C 9.296875 68 2.40625 51.703125 2.40625 34 
C 2.40625 17.609375 7.90625 -1 25 -1 
C 41.296875 -1 47.59375 16.203125 47.59375 33.40625 
z
M 38 32.90625 
C 38 13.109375 33.5 1.609375 25 1.609375 
C 16.40625 1.609375 12 13 12 33.3125 
C 12 53.609375 16.5 65.40625 24.796875 65.40625 
C 33.59375 65.40625 38 53.703125 38 32.90625 
z
" id="STIXMath_Regular-48"/>
     </defs>
     <g transform="translate(-0 64.534284)scale(0.2 -0.2)">
      <use transform="scale(0.996264)" xlink:href="#STIXMath_Italic-12"/>
      <use transform="translate(83.265422 0)scale(0.996264)" xlink:href="#STIXMath_Regular-61"/>
      <use transform="translate(179.18347 0)scale(0.996264)" xlink:href="#STIXMath_Regular-49"/>
      <use transform="translate(228.99667 0)scale(0.996264)" xlink:href="#STIXMath_Italic-58"/>
      <use transform="translate(253.90327 0)scale(0.996264)" xlink:href="#STIXMath_Regular-48"/>
     </g>
    </g>
   </g>
   <g id="line2d_10">
    <path clip-path="url(#p962ffc55c4)" d="M 85.172887 131.303945 
L 294.50484 131.196816 
L 304.716155 130.856166 
L 309.821812 130.442313 
L 314.927469 129.711614 
L 320.033127 128.477778 
L 325.138784 126.486511 
L 330.244442 123.4174 
L 335.350099 118.904249 
L 340.455756 112.580383 
L 345.561414 104.150864 
L 350.667071 93.485563 
L 355.772729 80.716824 
L 360.878386 66.316393 
L 365.984043 51.122555 
L 371.089701 36.293757 
L 376.195358 23.180478 
L 381.301016 13.129671 
L 386.406673 7.258988 
L 391.51233 6.252569 
L 396.617988 10.229907 
L 401.723645 18.722512 
L 406.829303 30.764679 
L 411.93496 45.074054 
L 417.040617 60.275361 
L 422.146275 75.113604 
L 427.251932 88.612253 
L 432.35759 100.152495 
L 437.463247 109.473311 
L 442.568904 116.611041 
L 447.674562 121.806602 
L 452.780219 125.40805 
L 457.885877 127.78874 
L 462.991534 129.291126 
L 468.097191 130.197036 
L 473.202849 130.719326 
L 478.308506 131.007403 
L 488.519821 131.236356 
L 508.942451 131.301778 
L 616.161256 131.22674 
L 636.583886 131.007494 
L 651.900858 130.572597 
L 662.112173 130.03443 
L 672.323487 129.18751 
L 677.429145 128.612357 
L 682.534802 127.915306 
L 687.64046 127.080611 
L 692.746117 126.093212 
L 697.851774 124.939574 
L 702.957432 123.608646 
L 708.063089 122.092902 
L 713.168747 120.389406 
L 718.274404 118.500841 
L 723.380061 116.436427 
L 728.485719 114.21265 
L 738.697034 109.391652 
L 759.119663 99.397887 
L 764.225321 97.129401 
L 769.330978 95.067499 
L 774.436635 93.267338 
L 779.542293 91.779003 
L 784.64795 90.645197 
L 789.753608 89.899205 
L 794.859265 89.563274 
L 799.964922 89.647511 
L 805.07058 90.149377 
L 810.176237 91.053814 
L 815.281895 92.333994 
L 820.387552 93.952646 
L 825.493209 95.863852 
L 830.598867 98.015209 
L 835.704524 100.350211 
L 845.915839 105.339178 
L 856.127154 110.386482 
L 866.338469 115.119911 
L 871.444126 117.282409 
L 876.549783 119.278041 
L 881.655441 121.0933 
L 886.761098 122.721681 
L 891.866756 124.162865 
L 896.972413 125.421752 
L 902.07807 126.507407 
L 907.183728 127.431995 
L 912.289385 128.209769 
L 917.395043 128.856159 
L 927.606357 129.817768 
L 937.817672 130.437341 
L 948.028987 130.818629 
L 963.345959 131.115394 
L 983.768589 131.257541 
L 1034.825163 131.303257 
L 1101.198709 131.303944 
L 1101.198709 131.303944 
" style="fill:none;stroke:#0d0887;stroke-linecap:round;stroke-width:1.75;"/>
   </g>
  </g>
  <g id="axes_2">
   <g id="matplotlib.axis_3">
    <g id="xtick_10">
     <g id="line2d_11"/>
    </g>
    <g id="xtick_11">
     <g id="line2d_12"/>
    </g>
    <g id="xtick_12">
     <g id="line2d_13"/>
    </g>
    <g id="xtick_13">
     <g id="line2d_14"/>
    </g>
    <g id="xtick_14">
     <g id="line2d_15"/>
    </g>
    <g id="xtick_15">
     <g id="line2d_16"/>
    </g>
    <g id="xtick_16">
     <g id="line2d_17"/>
    </g>
    <g id="xtick_17">
     <g id="line2d_18"/>
    </g>
    <g id="xtick_18">
     <g id="line2d_19"/>
    </g>
   </g>
   <g id="matplotlib.axis_4">
    <g id="text_2">
     <!-- $\beta=0.8$ -->
     <defs>
      <path d="M 44.5 15.90625 
C 44.5 23.90625 41.296875 29.3125 29 37.5 
C 38.90625 42.8125 42.40625 46.203125 42.40625 53.703125 
C 42.40625 61.5 35.5 68 25.59375 68 
C 14.5 68 6.203125 62 6.203125 52.40625 
C 6.203125 45.90625 8.296875 42.109375 18.59375 33.609375 
C 7.90625 26.109375 5.59375 22.203125 5.59375 15.3125 
C 5.59375 5.90625 13.5 -1 24.796875 -1 
C 36.796875 -1 44.5 5.609375 44.5 15.90625 
z
M 35.5 53.703125 
C 35.5 47.5 32.90625 43.3125 26.09375 39.3125 
C 17.296875 44.5 13.59375 49.109375 13.59375 55.3125 
C 13.59375 61.5 17.90625 65.203125 24.59375 65.203125 
C 31.40625 65.203125 35.5 60.609375 35.5 53.703125 
z
M 27.09375 27.609375 
C 33.90625 23 36.90625 19 36.90625 12.8125 
C 36.90625 6.3125 32.40625 1.8125 25.90625 1.8125 
C 18.296875 1.8125 13.203125 7 13.203125 16.203125 
C 13.203125 22.703125 15.296875 26.8125 21.203125 31.609375 
z
" id="STIXMath_Regular-56"/>
     </defs>
     <g transform="translate(-0 202.090797)scale(0.2 -0.2)">
      <use transform="scale(0.996264)" xlink:href="#STIXMath_Italic-12"/>
      <use transform="translate(83.265422 0)scale(0.996264)" xlink:href="#STIXMath_Regular-61"/>
      <use transform="translate(179.18347 0)scale(0.996264)" xlink:href="#STIXMath_Regular-48"/>
      <use transform="translate(228.99667 0)scale(0.996264)" xlink:href="#STIXMath_Italic-58"/>
      <use transform="translate(253.90327 0)scale(0.996264)" xlink:href="#STIXMath_Regular-56"/>
     </g>
    </g>
   </g>
   <g id="line2d_20">
    <path clip-path="url(#pee040714e2)" d="M 85.172887 268.860458 
L 284.293525 268.750409 
L 294.50484 268.462036 
L 299.610497 268.138379 
L 304.716155 267.593585 
L 309.821812 266.708723 
L 314.927469 265.322506 
L 320.033127 263.228979 
L 325.138784 260.182841 
L 330.244442 255.915941 
L 335.350099 250.167473 
L 340.455756 242.728084 
L 345.561414 233.494414 
L 350.667071 222.526275 
L 355.772729 210.094753 
L 371.089701 170.178963 
L 376.195358 158.937655 
L 381.301016 150.325274 
L 386.406673 145.119301 
L 391.51233 143.809082 
L 396.617988 146.519976 
L 401.723645 152.99358 
L 406.829303 162.628341 
L 411.93496 174.571731 
L 417.040617 187.844398 
L 422.146275 201.471324 
L 427.251932 214.595928 
L 432.35759 226.559557 
L 437.463247 236.938421 
L 442.568904 245.539897 
L 447.674562 252.367643 
L 452.780219 257.568792 
L 457.885877 261.376547 
L 462.991534 264.058629 
L 468.097191 265.877878 
L 473.202849 267.067026 
L 478.308506 267.816494 
L 483.414164 268.272165 
L 488.519821 268.539528 
L 498.731136 268.773802 
L 519.153765 268.856019 
L 590.632969 268.782447 
L 611.055599 268.592723 
L 626.372571 268.241105 
L 636.583886 267.820687 
L 646.7952 267.171265 
L 657.006515 266.204856 
L 662.112173 265.571502 
L 667.21783 264.820391 
L 672.323487 263.93831 
L 677.429145 262.91266 
L 682.534802 261.732038 
L 687.64046 260.3869 
L 692.746117 258.870266 
L 697.851774 257.178453 
L 702.957432 255.311796 
L 708.063089 253.27531 
L 713.168747 251.079262 
L 723.380061 246.278194 
L 733.591376 241.107072 
L 748.908348 233.305109 
L 754.014006 230.873115 
L 759.119663 228.606519 
L 764.225321 226.553349 
L 769.330978 224.758913 
L 774.436635 223.264142 
L 779.542293 222.104043 
L 784.64795 221.306339 
L 789.753608 220.890363 
L 794.859265 220.866286 
L 799.964922 221.234697 
L 805.07058 221.986584 
L 810.176237 223.103699 
L 815.281895 224.559291 
L 820.387552 226.319177 
L 825.493209 228.343068 
L 830.598867 230.586106 
L 840.810182 235.537226 
L 861.232811 245.970154 
L 871.444126 250.800499 
L 876.549783 253.01508 
L 881.655441 255.071739 
L 886.761098 256.959532 
L 891.866756 258.67283 
L 896.972413 260.210761 
L 902.07807 261.576554 
L 907.183728 262.776825 
L 912.289385 263.820844 
L 917.395043 264.719822 
L 922.5007 265.486246 
L 932.712015 266.67426 
L 942.92333 267.489739 
L 953.134644 268.028791 
L 963.345959 268.372151 
L 978.662931 268.653885 
L 1004.191218 268.818667 
L 1065.459107 268.860067 
L 1101.198709 268.860443 
L 1101.198709 268.860443 
" style="fill:none;stroke:#6a00a8;stroke-linecap:round;stroke-width:1.75;"/>
   </g>
  </g>
  <g id="axes_3">
   <g id="matplotlib.axis_5">
    <g id="xtick_19">
     <g id="line2d_21"/>
    </g>
    <g id="xtick_20">
     <g id="line2d_22"/>
    </g>
    <g id="xtick_21">
     <g id="line2d_23"/>
    </g>
    <g id="xtick_22">
     <g id="line2d_24"/>
    </g>
    <g id="xtick_23">
     <g id="line2d_25"/>
    </g>
    <g id="xtick_24">
     <g id="line2d_26"/>
    </g>
    <g id="xtick_25">
     <g id="line2d_27"/>
    </g>
    <g id="xtick_26">
     <g id="line2d_28"/>
    </g>
    <g id="xtick_27">
     <g id="line2d_29"/>
    </g>
   </g>
   <g id="matplotlib.axis_6">
    <g id="text_3">
     <!-- $\beta=0.6$ -->
     <defs>
      <path d="M 44.59375 68.609375 
C 30.796875 67.109375 22.90625 64.703125 14.296875 55.703125 
C 7.203125 48.40625 3.40625 38.90625 3.40625 28.15625 
C 3.40625 21.203125 5.296875 14.125 8.09375 9.0625 
C 11.59375 2.6875 17.90625 -1 25.796875 -1 
C 32.40625 -1 38 1.6875 41.703125 6.28125 
C 45 10.265625 46.796875 15.828125 46.796875 22.203125 
C 46.796875 35.03125 39.59375 43 27.90625 43 
C 23.5 43 20.09375 42.296875 15.203125 38.5 
C 17.90625 53.609375 29.09375 64.40625 44.796875 67 
z
M 37.796875 19.109375 
C 37.796875 8.953125 34.09375 1.8125 26.90625 1.8125 
C 17.5 1.8125 12.703125 11.75 12.703125 26.859375 
C 12.703125 36.015625 18.59375 38.40625 24.296875 38.40625 
C 33.59375 38.40625 37.796875 31.828125 37.796875 19.109375 
z
" id="STIXMath_Regular-54"/>
     </defs>
     <g transform="translate(-0 339.647311)scale(0.2 -0.2)">
      <use transform="scale(0.996264)" xlink:href="#STIXMath_Italic-12"/>
      <use transform="translate(83.265422 0)scale(0.996264)" xlink:href="#STIXMath_Regular-61"/>
      <use transform="translate(179.18347 0)scale(0.996264)" xlink:href="#STIXMath_Regular-48"/>
      <use transform="translate(228.99667 0)scale(0.996264)" xlink:href="#STIXMath_Italic-58"/>
      <use transform="translate(253.90327 0)scale(0.996264)" xlink:href="#STIXMath_Regular-54"/>
     </g>
    </g>
   </g>
   <g id="line2d_30">
    <path clip-path="url(#pca05f28c9d)" d="M 85.172887 406.416971 
L 268.976553 406.31091 
L 279.187868 406.089207 
L 284.293525 405.861571 
L 289.399182 405.498612 
L 294.50484 404.9352 
L 299.610497 404.083991 
L 304.716155 402.832686 
L 309.821812 401.043489 
L 314.927469 398.5561 
L 320.033127 395.195569 
L 325.138784 390.786027 
L 330.244442 385.170591 
L 335.350099 378.236627 
L 340.455756 369.944158 
L 345.561414 360.353797 
L 350.667071 349.649429 
L 355.772729 338.150423 
L 365.984043 314.687576 
L 371.089701 303.922305 
L 376.195358 294.664888 
L 381.301016 287.519774 
L 386.406673 282.97887 
L 391.51233 281.365595 
L 396.617988 282.796799 
L 401.723645 287.168769 
L 406.829303 294.169656 
L 411.93496 303.316248 
L 417.040617 314.009074 
L 432.35759 348.976105 
L 437.463247 359.738689 
L 442.568904 369.4026 
L 447.674562 377.776015 
L 452.780219 384.791465 
L 457.885877 390.483637 
L 462.991534 394.961613 
L 468.097191 398.380372 
L 473.202849 400.915262 
L 478.308506 402.74174 
L 483.414164 404.021266 
L 488.519821 404.893112 
L 493.625478 405.471122 
L 498.731136 405.844073 
L 508.942451 406.221465 
L 524.259423 406.380376 
L 554.893367 406.333434 
L 580.421654 406.093544 
L 595.738626 405.741459 
L 605.949941 405.347524 
L 616.161256 404.766088 
L 626.372571 403.9321 
L 636.583886 402.770083 
L 641.689543 402.040559 
L 646.7952 401.198159 
L 651.900858 400.232781 
L 657.006515 399.134955 
L 662.112173 397.896214 
L 667.21783 396.509509 
L 672.323487 394.969638 
L 677.429145 393.273686 
L 682.534802 391.421461 
L 687.64046 389.415902 
L 692.746117 387.263438 
L 697.851774 384.974281 
L 708.063089 380.046791 
L 718.274404 374.79582 
L 733.591376 366.815874 
L 743.802691 361.836084 
L 748.908348 359.561966 
L 754.014006 357.481817 
L 759.119663 355.631017 
L 764.225321 354.041979 
L 769.330978 352.743212 
L 774.436635 351.758467 
L 779.542293 351.106015 
L 784.64795 350.798085 
L 789.753608 350.840484 
L 794.859265 351.232411 
L 799.964922 351.966484 
L 805.07058 353.028971 
L 810.176237 354.400221 
L 815.281895 356.05526 
L 820.387552 357.964556 
L 825.493209 360.094889 
L 830.598867 362.410312 
L 840.810182 367.445021 
L 866.338469 380.66289 
L 876.549783 385.53904 
L 881.655441 387.796327 
L 886.761098 389.914095 
L 891.866756 391.883068 
L 896.972413 393.69769 
L 902.07807 395.355814 
L 907.183728 396.858328 
L 912.289385 398.208739 
L 917.395043 399.412736 
L 922.5007 400.47775 
L 927.606357 401.412526 
L 937.817672 402.930533 
L 948.028987 404.048661 
L 958.240302 404.848321 
L 968.451617 405.40389 
L 983.768589 405.91549 
L 999.085561 406.182449 
L 1024.613848 406.358731 
L 1080.776079 406.415412 
L 1101.198709 406.416625 
L 1101.198709 406.416625 
" style="fill:none;stroke:#b12a90;stroke-linecap:round;stroke-width:1.75;"/>
   </g>
  </g>
  <g id="axes_4">
   <g id="matplotlib.axis_7">
    <g id="xtick_28">
     <g id="line2d_31"/>
    </g>
    <g id="xtick_29">
     <g id="line2d_32"/>
    </g>
    <g id="xtick_30">
     <g id="line2d_33"/>
    </g>
    <g id="xtick_31">
     <g id="line2d_34"/>
    </g>
    <g id="xtick_32">
     <g id="line2d_35"/>
    </g>
    <g id="xtick_33">
     <g id="line2d_36"/>
    </g>
    <g id="xtick_34">
     <g id="line2d_37"/>
    </g>
    <g id="xtick_35">
     <g id="line2d_38"/>
    </g>
    <g id="xtick_36">
     <g id="line2d_39"/>
    </g>
   </g>
   <g id="matplotlib.axis_8">
    <g id="text_4">
     <!-- $\beta=0.4$ -->
     <defs>
      <path d="M 47.296875 17 
L 47.296875 23.390625 
L 37 23.390625 
L 37 68 
L 32.59375 68 
L 1.203125 23.390625 
L 1.203125 17 
L 29.203125 17 
L 29.203125 0.5 
L 37 0.5 
L 37 17 
z
M 29.203125 23.390625 
L 5.203125 23.390625 
L 29.203125 57.78125 
z
" id="STIXMath_Regular-52"/>
     </defs>
     <g transform="translate(-0 477.203824)scale(0.2 -0.2)">
      <use transform="scale(0.996264)" xlink:href="#STIXMath_Italic-12"/>
      <use transform="translate(83.265422 0)scale(0.996264)" xlink:href="#STIXMath_Regular-61"/>
      <use transform="translate(179.18347 0)scale(0.996264)" xlink:href="#STIXMath_Regular-48"/>
      <use transform="translate(228.99667 0)scale(0.996264)" xlink:href="#STIXMath_Italic-58"/>
      <use transform="translate(253.90327 0)scale(0.996264)" xlink:href="#STIXMath_Regular-52"/>
     </g>
    </g>
   </g>
   <g id="line2d_40">
    <path clip-path="url(#p85c2bda42b)" d="M 85.172887 543.973485 
L 243.448266 543.876679 
L 253.659581 543.725493 
L 263.870895 543.378868 
L 268.976553 543.075309 
L 274.08221 542.639039 
L 279.187868 542.023386 
L 284.293525 541.170453 
L 289.399182 540.010565 
L 294.50484 538.462636 
L 299.610497 536.435809 
L 304.716155 533.832684 
L 309.821812 530.554399 
L 314.927469 526.507647 
L 320.033127 521.613485 
L 325.138784 515.817548 
L 330.244442 509.100908 
L 335.350099 501.490607 
L 340.455756 493.068576 
L 345.561414 483.97763 
L 355.772729 464.670061 
L 360.878386 455.032681 
L 365.984043 445.860608 
L 371.089701 437.518301 
L 376.195358 430.361679 
L 381.301016 424.713169 
L 386.406673 420.837697 
L 391.51233 418.922109 
L 396.617988 419.060237 
L 401.723645 421.245282 
L 406.829303 425.370371 
L 411.93496 431.237218 
L 417.040617 438.571921 
L 422.146275 447.046142 
L 427.251932 456.301386 
L 442.568904 485.224312 
L 447.674562 494.236411 
L 452.780219 502.556875 
L 457.885877 510.05123 
L 462.991534 516.645304 
L 468.097191 522.318765 
L 473.202849 527.0959 
L 478.308506 531.034986 
L 483.414164 534.217447 
L 488.519821 536.737801 
L 493.625478 538.695062 
L 498.731136 540.185957 
L 503.836793 541.300028 
L 508.942451 542.116399 
L 514.048108 542.701578 
L 519.153765 543.106898 
L 524.259423 543.363087 
L 529.36508 543.477145 
L 539.576395 543.379332 
L 554.893367 542.911822 
L 565.104682 542.431933 
L 575.315997 541.774222 
L 585.527312 540.890889 
L 595.738626 539.728505 
L 605.949941 538.230281 
L 616.161256 536.339481 
L 621.266913 535.230268 
L 626.372571 534.004061 
L 631.478228 532.656031 
L 636.583886 531.182403 
L 641.689543 529.58067 
L 646.7952 527.849809 
L 651.900858 525.990479 
L 657.006515 524.005217 
L 667.21783 519.677402 
L 677.429145 514.929802 
L 687.64046 509.863097 
L 718.274404 494.278921 
L 723.380061 491.874949 
L 728.485719 489.595633 
L 733.591376 487.466977 
L 738.697034 485.514029 
L 743.802691 483.760388 
L 748.908348 482.227739 
L 754.014006 480.935401 
L 759.119663 479.899924 
L 764.225321 479.13474 
L 769.330978 478.649868 
L 774.436635 478.451697 
L 779.542293 478.542849 
L 784.64795 478.922118 
L 789.753608 479.584496 
L 794.859265 480.521287 
L 799.964922 481.720294 
L 805.07058 483.166082 
L 810.176237 484.840312 
L 815.281895 486.722127 
L 820.387552 488.78858 
L 825.493209 491.015106 
L 835.704524 495.844897 
L 845.915839 501.000937 
L 866.338469 511.48528 
L 876.549783 516.46464 
L 886.761098 521.089137 
L 896.972413 525.269926 
L 902.07807 527.176282 
L 907.183728 528.954882 
L 912.289385 530.60439 
L 917.395043 532.12523 
L 922.5007 533.519386 
L 927.606357 534.790185 
L 937.817672 536.980499 
L 948.028987 538.741745 
L 958.240302 540.128017 
L 968.451617 541.196511 
L 978.662931 542.003269 
L 988.874246 542.600153 
L 1004.191218 543.200328 
L 1019.508191 543.555194 
L 1039.93082 543.800153 
L 1075.670422 543.942195 
L 1101.198709 543.965417 
L 1101.198709 543.965417 
" style="fill:none;stroke:#e16462;stroke-linecap:round;stroke-width:1.75;"/>
   </g>
  </g>
  <g id="axes_5">
   <g id="matplotlib.axis_9">
    <g id="xtick_37">
     <g id="line2d_41"/>
    </g>
    <g id="xtick_38">
     <g id="line2d_42"/>
    </g>
    <g id="xtick_39">
     <g id="line2d_43"/>
    </g>
    <g id="xtick_40">
     <g id="line2d_44"/>
    </g>
    <g id="xtick_41">
     <g id="line2d_45"/>
    </g>
    <g id="xtick_42">
     <g id="line2d_46"/>
    </g>
    <g id="xtick_43">
     <g id="line2d_47"/>
    </g>
    <g id="xtick_44">
     <g id="line2d_48"/>
    </g>
    <g id="xtick_45">
     <g id="line2d_49"/>
    </g>
   </g>
   <g id="matplotlib.axis_10">
    <g id="text_5">
     <!-- $\beta=0.2$ -->
     <defs>
      <path d="M 47.40625 13.671875 
L 46 14.265625 
C 42.703125 8.703125 40.59375 7.59375 36.40625 7.59375 
L 13 7.59375 
L 29.5 25.140625 
C 38.40625 34.5 42.296875 41.984375 42.296875 49.859375 
C 42.296875 59.734375 35.09375 67.390625 23.796875 67.390625 
C 11.5 67.390625 5.09375 59.21875 3 47.546875 
L 5.09375 47.046875 
C 9.09375 56.8125 12.59375 60 19.796875 60 
C 28.296875 60 33.703125 55.015625 33.703125 45.9375 
C 33.703125 37.46875 30.09375 29.90625 20.703125 20.03125 
L 2.90625 1.203125 
L 2.90625 0 
L 42 0 
z
" id="STIXMath_Regular-50"/>
     </defs>
     <g transform="translate(-0 614.760337)scale(0.2 -0.2)">
      <use transform="scale(0.996264)" xlink:href="#STIXMath_Italic-12"/>
      <use transform="translate(83.265422 0)scale(0.996264)" xlink:href="#STIXMath_Regular-61"/>
      <use transform="translate(179.18347 0)scale(0.996264)" xlink:href="#STIXMath_Regular-48"/>
      <use transform="translate(228.99667 0)scale(0.996264)" xlink:href="#STIXMath_Italic-58"/>
      <use transform="translate(253.90327 0)scale(0.996264)" xlink:href="#STIXMath_Regular-50"/>
     </g>
    </g>
   </g>
   <g id="line2d_50">
    <path clip-path="url(#p41a8ebc917)" d="M 85.172887 681.529998 
L 192.391692 681.423873 
L 207.708664 681.239478 
L 217.919979 680.985387 
L 228.131294 680.543549 
L 238.342608 679.8036 
L 243.448266 679.275349 
L 248.553923 678.610645 
L 253.659581 677.782301 
L 258.765238 676.760066 
L 263.870895 675.51092 
L 268.976553 673.999603 
L 274.08221 672.189381 
L 279.187868 670.043083 
L 284.293525 667.524412 
L 289.399182 664.59952 
L 294.50484 661.238823 
L 299.610497 657.418997 
L 304.716155 653.125094 
L 309.821812 648.352665 
L 314.927469 643.109793 
L 320.033127 637.418893 
L 325.138784 631.318143 
L 330.244442 624.86242 
L 335.350099 618.123599 
L 355.772729 590.323143 
L 360.878386 583.766612 
L 365.984043 577.634903 
L 371.089701 572.06282 
L 376.195358 567.178237 
L 381.301016 563.097236 
L 386.406673 559.919542 
L 391.51233 557.724469 
L 396.617988 556.567636 
L 401.723645 556.478622 
L 406.829303 557.459712 
L 411.93496 559.485795 
L 417.040617 562.505437 
L 422.146275 566.443047 
L 427.251932 571.202024 
L 432.35759 576.668692 
L 437.463247 582.716803 
L 442.568904 589.212359 
L 452.780219 603.000222 
L 462.991534 616.984749 
L 468.097191 623.762397 
L 473.202849 630.270488 
L 478.308506 636.434348 
L 483.414164 642.196281 
L 488.519821 647.515372 
L 493.625478 652.366622 
L 498.731136 656.73948 
L 503.836793 660.635674 
L 508.942451 664.065588 
L 514.048108 667.039815 
L 519.153765 669.542662 
L 524.259423 671.450106 
L 529.36508 672.425972 
L 534.470738 672.309056 
L 539.576395 671.546809 
L 544.682052 670.534112 
L 554.893367 668.17193 
L 565.104682 665.448483 
L 575.315997 662.363948 
L 585.527312 658.917583 
L 595.738626 655.119924 
L 605.949941 650.994808 
L 616.161256 646.580579 
L 626.372571 641.930687 
L 641.689543 634.667573 
L 662.112173 624.909969 
L 672.323487 620.230735 
L 682.534802 615.832512 
L 692.746117 611.82714 
L 697.851774 610.005532 
L 702.957432 608.321626 
L 708.063089 606.787268 
L 713.168747 605.413421 
L 718.274404 604.210037 
L 723.380061 603.185936 
L 728.485719 602.348698 
L 733.591376 601.70457 
L 738.697034 601.25839 
L 743.802691 601.013522 
L 748.908348 600.97182 
L 754.014006 601.133599 
L 759.119663 601.497635 
L 764.225321 602.061177 
L 769.330978 602.819986 
L 774.436635 603.768383 
L 779.542293 604.899323 
L 784.64795 606.204482 
L 789.753608 607.674359 
L 794.859265 609.298389 
L 799.964922 611.065072 
L 810.176237 614.976532 
L 820.387552 619.30331 
L 830.598867 623.934169 
L 845.915839 631.205648 
L 866.338469 640.955154 
L 876.549783 645.645349 
L 886.761098 650.112697 
L 896.972413 654.300642 
L 907.183728 658.167773 
L 917.395043 661.687362 
L 927.606357 664.846279 
L 937.817672 667.643438 
L 948.028987 670.087923 
L 958.240302 672.196955 
L 968.451617 673.99384 
L 978.662931 675.505997 
L 988.874246 676.763182 
L 999.085561 677.795949 
L 1009.296876 678.634389 
L 1024.613848 679.589805 
L 1039.93082 680.259224 
L 1055.247792 680.7164 
L 1075.670422 681.096661 
L 1101.198709 681.343732 
L 1101.198709 681.343732 
" style="fill:none;stroke:#fca636;stroke-linecap:round;stroke-width:1.75;"/>
   </g>
  </g>
  <g id="axes_6">
   <g id="matplotlib.axis_11">
    <g id="xtick_46">
     <g id="line2d_51"/>
     <g id="text_6">
      <!-- $-20$ -->
      <defs>
       <path d="M 62.078125 22 
L 62.078125 28.59375 
L 6.390625 28.59375 
L 6.390625 22 
z
" id="STIXMath_Regular-42"/>
      </defs>
      <g transform="translate(76.779367 839.4374)scale(0.1 -0.1)">
       <use transform="scale(0.996264)" xlink:href="#STIXMath_Regular-42"/>
       <use transform="translate(68.244115 0)scale(0.996264)" xlink:href="#STIXMath_Regular-50"/>
       <use transform="translate(118.057316 0)scale(0.996264)" xlink:href="#STIXMath_Regular-48"/>
      </g>
     </g>
    </g>
    <g id="xtick_47">
     <g id="line2d_52"/>
     <g id="text_7">
      <!-- $-15$ -->
      <defs>
       <path d="M 43.796875 68.796875 
L 42.90625 69.5 
C 41.296875 67.40625 40.40625 66.90625 38.09375 66.90625 
L 17.40625 66.90625 
L 6.5 43.109375 
C 6.5 43.109375 6.40625 42.8125 6.40625 42.609375 
C 6.40625 42.015625 6.703125 41.8125 7.59375 41.8125 
C 17.203125 41.8125 24.203125 38.59375 28.90625 34.78125 
C 33.40625 31.140625 35.59375 26.125 35.59375 19.703125 
C 35.59375 11.046875 29.09375 2.703125 22.09375 2.703125 
C 20.09375 2.703125 17.796875 3.609375 15 5.921875 
C 11.796875 8.53125 9.90625 9.03125 7.59375 9.03125 
C 4.796875 9.03125 3.09375 7.734375 3.09375 5.21875 
C 3.09375 1.40625 8.296875 -1 15.796875 -1 
C 22.59375 -1 28.09375 0.5 32.796875 3.9375 
C 39.59375 8.953125 42.59375 15.1875 42.59375 24.828125 
C 42.59375 30.15625 41.703125 33.984375 39.09375 37.59375 
C 33.40625 45.53125 28.40625 47.734375 14.09375 50.453125 
L 18.09375 59 
L 37.5 59 
C 39.09375 59 39.90625 59.609375 40.203125 60.296875 
z
" id="STIXMath_Regular-53"/>
      </defs>
      <g transform="translate(203.782595 839.4374)scale(0.1 -0.1)">
       <use transform="scale(0.996264)" xlink:href="#STIXMath_Regular-42"/>
       <use transform="translate(68.244115 0)scale(0.996264)" xlink:href="#STIXMath_Regular-49"/>
       <use transform="translate(118.057316 0)scale(0.996264)" xlink:href="#STIXMath_Regular-53"/>
      </g>
     </g>
    </g>
    <g id="xtick_48">
     <g id="line2d_53"/>
     <g id="text_8">
      <!-- $-10$ -->
      <g transform="translate(330.785822 839.4374)scale(0.1 -0.1)">
       <use transform="scale(0.996264)" xlink:href="#STIXMath_Regular-42"/>
       <use transform="translate(68.244115 0)scale(0.996264)" xlink:href="#STIXMath_Regular-49"/>
       <use transform="translate(118.057316 0)scale(0.996264)" xlink:href="#STIXMath_Regular-48"/>
      </g>
     </g>
    </g>
    <g id="xtick_49">
     <g id="line2d_54"/>
     <g id="text_9">
      <!-- $-5$ -->
      <g transform="translate(460.27971 839.4374)scale(0.1 -0.1)">
       <use transform="scale(0.996264)" xlink:href="#STIXMath_Regular-42"/>
       <use transform="translate(68.244115 0)scale(0.996264)" xlink:href="#STIXMath_Regular-53"/>
      </g>
     </g>
    </g>
    <g id="xtick_50">
     <g id="line2d_55"/>
     <g id="text_10">
      <!-- $0$ -->
      <g transform="translate(590.695138 839.4374)scale(0.1 -0.1)">
       <use transform="scale(0.996264)" xlink:href="#STIXMath_Regular-48"/>
      </g>
     </g>
    </g>
    <g id="xtick_51">
     <g id="line2d_56"/>
     <g id="text_11">
      <!-- $5$ -->
      <g transform="translate(717.698365 839.4374)scale(0.1 -0.1)">
       <use transform="scale(0.996264)" xlink:href="#STIXMath_Regular-53"/>
      </g>
     </g>
    </g>
    <g id="xtick_52">
     <g id="line2d_57"/>
     <g id="text_12">
      <!-- $10$ -->
      <g transform="translate(842.210933 839.4374)scale(0.1 -0.1)">
       <use transform="scale(0.996264)" xlink:href="#STIXMath_Regular-49"/>
       <use transform="translate(49.8132 0)scale(0.996264)" xlink:href="#STIXMath_Regular-48"/>
      </g>
     </g>
    </g>
    <g id="xtick_53">
     <g id="line2d_58"/>
     <g id="text_13">
      <!-- $15$ -->
      <g transform="translate(969.214161 839.4374)scale(0.1 -0.1)">
       <use transform="scale(0.996264)" xlink:href="#STIXMath_Regular-49"/>
       <use transform="translate(49.8132 0)scale(0.996264)" xlink:href="#STIXMath_Regular-53"/>
      </g>
     </g>
    </g>
    <g id="xtick_54">
     <g id="line2d_59"/>
     <g id="text_14">
      <!-- $20$ -->
      <g transform="translate(1096.217389 839.4374)scale(0.1 -0.1)">
       <use transform="scale(0.996264)" xlink:href="#STIXMath_Regular-50"/>
       <use transform="translate(49.8132 0)scale(0.996264)" xlink:href="#STIXMath_Regular-48"/>
      </g>
     </g>
    </g>
    <g id="text_15">
     <!-- $x$ -->
     <defs>
      <path d="M 30.5 28.703125 
L 28.5 34.203125 
C 27.296875 37.5 25.40625 41.609375 21 44 
L 7.796875 40.703125 
L 8.09375 38.90625 
C 9.09375 39.3125 10.59375 39.5 11.90625 39.5 
C 17.40625 39.5 20 35.40625 21.703125 30.609375 
L 25 21.40625 
L 18.5 11.3125 
C 15.296875 6.40625 12.703125 5.40625 11.5 5.40625 
C 9 5.40625 9.40625 7.40625 6.796875 7.40625 
C 4.296875 7.40625 3 5.3125 3 3.703125 
C 3 1.5 4.59375 -1 8.203125 -1 
C 13.796875 -1 16.703125 3.3125 19.90625 8.203125 
L 26.203125 18 
L 30.203125 6.703125 
C 31.5 3.109375 33.40625 -1 37.5 -1 
C 43.296875 -1 47.796875 8.609375 49 10.109375 
L 47.59375 11.109375 
C 45.5 6.8125 43.09375 5.40625 41.5 5.40625 
C 37 5.40625 34.703125 18.90625 31.703125 25.109375 
L 37.203125 33.609375 
C 38.59375 35.8125 39.703125 37.40625 42.703125 37.40625 
C 44.40625 37.40625 44.90625 36.5 47.09375 36.5 
C 49.703125 36.5 51 38.8125 51 40.703125 
C 51 42.8125 49.296875 44 46.09375 44 
C 41.09375 44 37.59375 39.609375 35 35.609375 
z
" id="STIXMath_Italic-120"/>
     </defs>
     <g transform="translate(587.706346 859.756027)scale(0.2 -0.2)">
      <use transform="scale(0.996264)" xlink:href="#STIXMath_Italic-120"/>
     </g>
    </g>
   </g>
   <g id="matplotlib.axis_12">
    <g id="text_16">
     <!-- $\beta=0.0$ -->
     <g transform="translate(-0 752.316851)scale(0.2 -0.2)">
      <use transform="scale(0.996264)" xlink:href="#STIXMath_Italic-12"/>
      <use transform="translate(83.265422 0)scale(0.996264)" xlink:href="#STIXMath_Regular-61"/>
      <use transform="translate(179.18347 0)scale(0.996264)" xlink:href="#STIXMath_Regular-48"/>
      <use transform="translate(228.99667 0)scale(0.996264)" xlink:href="#STIXMath_Italic-58"/>
      <use transform="translate(253.90327 0)scale(0.996264)" xlink:href="#STIXMath_Regular-48"/>
     </g>
    </g>
   </g>
   <g id="line2d_60">
    <path clip-path="url(#p9f7664d7fc)" d="M 85.172887 813.392841 
L 100.489859 811.713341 
L 115.806831 809.79173 
L 131.123803 807.608226 
L 146.440775 805.144407 
L 161.757748 802.383909 
L 177.07472 799.313164 
L 192.391692 795.922186 
L 207.708664 792.205362 
L 223.025636 788.162228 
L 238.342608 783.798208 
L 253.659581 779.125267 
L 268.976553 774.162452 
L 284.293525 768.936296 
L 299.610497 763.481029 
L 320.033127 755.924531 
L 345.561414 746.197047 
L 381.301016 732.567183 
L 396.617988 726.916397 
L 411.93496 721.488115 
L 427.251932 716.358605 
L 437.463247 713.142118 
L 447.674562 710.113476 
L 457.885877 707.293464 
L 468.097191 704.701808 
L 478.308506 702.356943 
L 488.519821 700.275801 
L 498.731136 698.473604 
L 508.942451 696.963677 
L 519.153765 695.757288 
L 529.36508 694.863507 
L 539.576395 694.289089 
L 549.78771 694.038394 
L 559.999025 694.113329 
L 570.210339 694.513322 
L 580.421654 695.235335 
L 590.632969 696.273897 
L 600.844284 697.621175 
L 611.055599 699.267074 
L 621.266913 701.199359 
L 631.478228 703.403812 
L 641.689543 705.8644 
L 651.900858 708.563473 
L 662.112173 711.481974 
L 672.323487 714.599661 
L 682.534802 717.895342 
L 697.851774 723.12455 
L 713.168747 728.62918 
L 733.591376 736.26544 
L 799.964922 761.468889 
L 815.281895 766.996767 
L 830.598867 772.309751 
L 845.915839 777.370825 
L 861.232811 782.150699 
L 876.549783 786.627668 
L 891.866756 790.787274 
L 907.183728 794.621809 
L 922.5007 798.129698 
L 937.817672 801.314787 
L 953.134644 804.185581 
L 968.451617 806.754449 
L 983.768589 809.036837 
L 999.085561 811.050507 
L 1014.402533 812.814829 
L 1029.719505 814.350127 
L 1045.036477 815.677109 
L 1060.35345 816.81637 
L 1080.776079 818.077953 
L 1101.198709 819.086511 
L 1101.198709 819.086511 
" style="fill:none;stroke:#f0f921;stroke-linecap:round;stroke-width:1.75;"/>
   </g>
  </g>
 </g>
 <defs>
  <clipPath id="p962ffc55c4">
   <rect height="137.556513" width="1117.628405" x="34.371595" y="0"/>
  </clipPath>
  <clipPath id="pee040714e2">
   <rect height="137.556513" width="1117.628405" x="34.371595" y="137.556513"/>
  </clipPath>
  <clipPath id="pca05f28c9d">
   <rect height="137.556513" width="1117.628405" x="34.371595" y="275.113027"/>
  </clipPath>
  <clipPath id="p85c2bda42b">
   <rect height="137.556513" width="1117.628405" x="34.371595" y="412.66954"/>
  </clipPath>
  <clipPath id="p41a8ebc917">
   <rect height="137.556513" width="1117.628405" x="34.371595" y="550.226053"/>
  </clipPath>
  <clipPath id="p9f7664d7fc">
   <rect height="137.556513" width="1117.628405" x="34.371595" y="687.782567"/>
  </clipPath>
 </defs>
</svg>
