<?xml version="1.0" encoding="utf-8" standalone="no"?>
<!DOCTYPE svg PUBLIC "-//W3C//DTD SVG 1.1//EN"
  "http://www.w3.org/Graphics/SVG/1.1/DTD/svg11.dtd">
<!-- Created with matplotlib (http://matplotlib.org/) -->
<svg height="576pt" version="1.1" viewBox="0 0 576 576" width="576pt" xmlns="http://www.w3.org/2000/svg" xmlns:xlink="http://www.w3.org/1999/xlink">
 <defs>
  <style type="text/css">
*{stroke-linecap:butt;stroke-linejoin:round;stroke-miterlimit:100000;}
  </style>
 </defs>
 <g id="figure_1">
  <g id="patch_1">
   <path d="M 0 576 
L 576 576 
L 576 0 
L 0 0 
z
" style="fill:#ffffff;"/>
  </g>
  <g id="axes_1">
   <g id="patch_2">
    <path d="M 31.8 84.033333 
L 507.684129 84.033333 
L 507.684129 15.8 
L 31.8 15.8 
z
" style="fill:#eaeaf2;"/>
   </g>
   <g id="matplotlib.axis_1">
    <g id="xtick_1">
     <g id="line2d_1">
      <path clip-path="url(#pb355fc21de)" d="M 31.8 84.033333 
L 31.8 15.8 
" style="fill:none;stroke:#ffffff;stroke-linecap:round;"/>
     </g>
     <g id="line2d_2"/>
     <g id="line2d_3"/>
    </g>
    <g id="xtick_2">
     <g id="line2d_4">
      <path clip-path="url(#pb355fc21de)" d="M 111.114021 84.033333 
L 111.114021 15.8 
" style="fill:none;stroke:#ffffff;stroke-linecap:round;"/>
     </g>
     <g id="line2d_5"/>
     <g id="line2d_6"/>
    </g>
    <g id="xtick_3">
     <g id="line2d_7">
      <path clip-path="url(#pb355fc21de)" d="M 190.428043 84.033333 
L 190.428043 15.8 
" style="fill:none;stroke:#ffffff;stroke-linecap:round;"/>
     </g>
     <g id="line2d_8"/>
     <g id="line2d_9"/>
    </g>
    <g id="xtick_4">
     <g id="line2d_10">
      <path clip-path="url(#pb355fc21de)" d="M 269.742064 84.033333 
L 269.742064 15.8 
" style="fill:none;stroke:#ffffff;stroke-linecap:round;"/>
     </g>
     <g id="line2d_11"/>
     <g id="line2d_12"/>
    </g>
    <g id="xtick_5">
     <g id="line2d_13">
      <path clip-path="url(#pb355fc21de)" d="M 349.056086 84.033333 
L 349.056086 15.8 
" style="fill:none;stroke:#ffffff;stroke-linecap:round;"/>
     </g>
     <g id="line2d_14"/>
     <g id="line2d_15"/>
    </g>
    <g id="xtick_6">
     <g id="line2d_16">
      <path clip-path="url(#pb355fc21de)" d="M 428.370107 84.033333 
L 428.370107 15.8 
" style="fill:none;stroke:#ffffff;stroke-linecap:round;"/>
     </g>
     <g id="line2d_17"/>
     <g id="line2d_18"/>
    </g>
    <g id="xtick_7">
     <g id="line2d_19">
      <path clip-path="url(#pb355fc21de)" d="M 507.684129 84.033333 
L 507.684129 15.8 
" style="fill:none;stroke:#ffffff;stroke-linecap:round;"/>
     </g>
     <g id="line2d_20"/>
     <g id="line2d_21"/>
    </g>
   </g>
   <g id="matplotlib.axis_2">
    <g id="ytick_1">
     <g id="line2d_22">
      <path clip-path="url(#pb355fc21de)" d="M 31.8 84.033333 
L 507.684129 84.033333 
" style="fill:none;stroke:#ffffff;stroke-linecap:round;"/>
     </g>
     <g id="line2d_23"/>
     <g id="line2d_24"/>
     <g id="text_1">
      <!-- 0.0 -->
      <defs>
       <path d="M 9.125 0 
L 9.125 10.6875 
L 18.65625 10.6875 
L 18.65625 0 
z
" id="LiberationSans-2e"/>
       <path d="M 51.703125 34.421875 
Q 51.703125 24.515625 49.828125 17.75 
Q 47.953125 10.984375 44.703125 6.8125 
Q 41.453125 2.640625 37.0625 0.828125 
Q 32.671875 -0.984375 27.6875 -0.984375 
Q 22.65625 -0.984375 18.3125 0.828125 
Q 13.96875 2.640625 10.765625 6.78125 
Q 7.5625 10.9375 5.734375 17.703125 
Q 3.90625 24.46875 3.90625 34.421875 
Q 3.90625 44.828125 5.734375 51.640625 
Q 7.5625 58.453125 10.78125 62.5 
Q 14.015625 66.546875 18.40625 68.1875 
Q 22.796875 69.828125 27.984375 69.828125 
Q 32.90625 69.828125 37.21875 68.1875 
Q 41.546875 66.546875 44.765625 62.5 
Q 48 58.453125 49.84375 51.640625 
Q 51.703125 44.828125 51.703125 34.421875 
M 42.78125 34.421875 
Q 42.78125 42.625 41.796875 48.0625 
Q 40.828125 53.515625 38.921875 56.765625 
Q 37.015625 60.015625 34.25 61.359375 
Q 31.5 62.703125 27.984375 62.703125 
Q 24.265625 62.703125 21.4375 61.328125 
Q 18.609375 59.96875 16.671875 56.71875 
Q 14.75 53.46875 13.765625 48.015625 
Q 12.796875 42.578125 12.796875 34.421875 
Q 12.796875 26.515625 13.796875 21.09375 
Q 14.796875 15.671875 16.71875 12.375 
Q 18.65625 9.078125 21.4375 7.640625 
Q 24.21875 6.203125 27.78125 6.203125 
Q 31.25 6.203125 34.03125 7.640625 
Q 36.8125 9.078125 38.734375 12.375 
Q 40.671875 15.671875 41.71875 21.09375 
Q 42.78125 26.515625 42.78125 34.421875 
" id="LiberationSans-30"/>
      </defs>
      <g style="fill:#262626;" transform="translate(10.9 86.6192708333)scale(0.1 -0.1)">
       <use xlink:href="#LiberationSans-30"/>
       <use x="55.615234375" xlink:href="#LiberationSans-2e"/>
       <use x="83.3984375" xlink:href="#LiberationSans-30"/>
      </g>
     </g>
    </g>
    <g id="ytick_2">
     <g id="line2d_25">
      <path clip-path="url(#pb355fc21de)" d="M 31.8 70.386667 
L 507.684129 70.386667 
" style="fill:none;stroke:#ffffff;stroke-linecap:round;"/>
     </g>
     <g id="line2d_26"/>
     <g id="line2d_27"/>
     <g id="text_2">
      <!-- 0.2 -->
      <defs>
       <path d="M 5.03125 0 
L 5.03125 6.203125 
Q 7.515625 11.921875 11.109375 16.28125 
Q 14.703125 20.65625 18.65625 24.1875 
Q 22.609375 27.734375 26.484375 30.765625 
Q 30.375 33.796875 33.5 36.8125 
Q 36.625 39.84375 38.546875 43.15625 
Q 40.484375 46.484375 40.484375 50.6875 
Q 40.484375 53.609375 39.59375 55.828125 
Q 38.71875 58.0625 37.0625 59.5625 
Q 35.40625 61.078125 33.078125 61.828125 
Q 30.765625 62.59375 27.9375 62.59375 
Q 25.296875 62.59375 22.96875 61.859375 
Q 20.65625 61.140625 18.84375 59.671875 
Q 17.046875 58.203125 15.890625 56.03125 
Q 14.75 53.859375 14.40625 50.984375 
L 5.421875 51.8125 
Q 5.859375 55.515625 7.46875 58.78125 
Q 9.078125 62.0625 11.90625 64.53125 
Q 14.75 67 18.71875 68.40625 
Q 22.703125 69.828125 27.9375 69.828125 
Q 33.0625 69.828125 37.0625 68.609375 
Q 41.0625 67.390625 43.8125 64.984375 
Q 46.578125 62.59375 48.046875 59.078125 
Q 49.515625 55.5625 49.515625 50.984375 
Q 49.515625 47.515625 48.265625 44.390625 
Q 47.015625 41.265625 44.9375 38.421875 
Q 42.875 35.59375 40.140625 32.953125 
Q 37.40625 30.328125 34.421875 27.8125 
Q 31.453125 25.296875 28.421875 22.828125 
Q 25.390625 20.359375 22.71875 17.859375 
Q 20.0625 15.375 17.96875 12.8125 
Q 15.875 10.25 14.703125 7.46875 
L 50.59375 7.46875 
L 50.59375 0 
z
" id="LiberationSans-32"/>
      </defs>
      <g style="fill:#262626;" transform="translate(10.9 72.9726041667)scale(0.1 -0.1)">
       <use xlink:href="#LiberationSans-30"/>
       <use x="55.615234375" xlink:href="#LiberationSans-2e"/>
       <use x="83.3984375" xlink:href="#LiberationSans-32"/>
      </g>
     </g>
    </g>
    <g id="ytick_3">
     <g id="line2d_28">
      <path clip-path="url(#pb355fc21de)" d="M 31.8 56.74 
L 507.684129 56.74 
" style="fill:none;stroke:#ffffff;stroke-linecap:round;"/>
     </g>
     <g id="line2d_29"/>
     <g id="line2d_30"/>
     <g id="text_3">
      <!-- 0.4 -->
      <defs>
       <path d="M 43.015625 15.578125 
L 43.015625 0 
L 34.71875 0 
L 34.71875 15.578125 
L 2.296875 15.578125 
L 2.296875 22.40625 
L 33.796875 68.796875 
L 43.015625 68.796875 
L 43.015625 22.515625 
L 52.6875 22.515625 
L 52.6875 15.578125 
z
M 34.71875 58.890625 
Q 34.625 58.640625 34.234375 57.9375 
Q 33.84375 57.234375 33.34375 56.34375 
Q 32.859375 55.46875 32.34375 54.5625 
Q 31.84375 53.65625 31.453125 53.078125 
L 13.8125 27.09375 
Q 13.578125 26.703125 13.109375 26.0625 
Q 12.640625 25.4375 12.15625 24.78125 
Q 11.671875 24.125 11.171875 23.484375 
Q 10.6875 22.859375 10.40625 22.515625 
L 34.71875 22.515625 
z
" id="LiberationSans-34"/>
      </defs>
      <g style="fill:#262626;" transform="translate(10.9 59.3259375)scale(0.1 -0.1)">
       <use xlink:href="#LiberationSans-30"/>
       <use x="55.615234375" xlink:href="#LiberationSans-2e"/>
       <use x="83.3984375" xlink:href="#LiberationSans-34"/>
      </g>
     </g>
    </g>
    <g id="ytick_4">
     <g id="line2d_31">
      <path clip-path="url(#pb355fc21de)" d="M 31.8 43.093333 
L 507.684129 43.093333 
" style="fill:none;stroke:#ffffff;stroke-linecap:round;"/>
     </g>
     <g id="line2d_32"/>
     <g id="line2d_33"/>
     <g id="text_4">
      <!-- 0.6 -->
      <defs>
       <path d="M 51.21875 22.515625 
Q 51.21875 17.328125 49.78125 13 
Q 48.34375 8.6875 45.53125 5.578125 
Q 42.71875 2.484375 38.5625 0.75 
Q 34.421875 -0.984375 29 -0.984375 
Q 23 -0.984375 18.5 1.3125 
Q 14.015625 3.609375 11.03125 7.921875 
Q 8.0625 12.25 6.5625 18.53125 
Q 5.078125 24.8125 5.078125 32.8125 
Q 5.078125 42 6.765625 48.921875 
Q 8.453125 55.859375 11.625 60.5 
Q 14.796875 65.140625 19.359375 67.484375 
Q 23.921875 69.828125 29.6875 69.828125 
Q 33.203125 69.828125 36.28125 69.09375 
Q 39.359375 68.359375 41.875 66.71875 
Q 44.390625 65.09375 46.28125 62.40625 
Q 48.1875 59.71875 49.3125 55.8125 
L 40.921875 54.296875 
Q 39.546875 58.734375 36.546875 60.71875 
Q 33.546875 62.703125 29.59375 62.703125 
Q 25.984375 62.703125 23.046875 60.984375 
Q 20.125 59.28125 18.0625 55.875 
Q 16.015625 52.484375 14.90625 47.359375 
Q 13.8125 42.234375 13.8125 35.40625 
Q 16.21875 39.84375 20.5625 42.15625 
Q 24.90625 44.484375 30.515625 44.484375 
Q 35.203125 44.484375 39.015625 42.96875 
Q 42.828125 41.453125 45.53125 38.59375 
Q 48.25 35.75 49.734375 31.671875 
Q 51.21875 27.59375 51.21875 22.515625 
M 42.28125 22.125 
Q 42.28125 25.6875 41.40625 28.5625 
Q 40.53125 31.453125 38.765625 33.46875 
Q 37.015625 35.5 34.421875 36.59375 
Q 31.84375 37.703125 28.421875 37.703125 
Q 26.03125 37.703125 23.578125 36.984375 
Q 21.140625 36.28125 19.15625 34.6875 
Q 17.1875 33.109375 15.9375 30.515625 
Q 14.703125 27.9375 14.703125 24.21875 
Q 14.703125 20.40625 15.671875 17.109375 
Q 16.65625 13.8125 18.484375 11.375 
Q 20.3125 8.9375 22.890625 7.515625 
Q 25.484375 6.109375 28.71875 6.109375 
Q 31.890625 6.109375 34.40625 7.203125 
Q 36.921875 8.296875 38.671875 10.375 
Q 40.4375 12.453125 41.359375 15.421875 
Q 42.28125 18.40625 42.28125 22.125 
" id="LiberationSans-36"/>
      </defs>
      <g style="fill:#262626;" transform="translate(10.9 45.6792708333)scale(0.1 -0.1)">
       <use xlink:href="#LiberationSans-30"/>
       <use x="55.615234375" xlink:href="#LiberationSans-2e"/>
       <use x="83.3984375" xlink:href="#LiberationSans-36"/>
      </g>
     </g>
    </g>
    <g id="ytick_5">
     <g id="line2d_34">
      <path clip-path="url(#pb355fc21de)" d="M 31.8 29.446667 
L 507.684129 29.446667 
" style="fill:none;stroke:#ffffff;stroke-linecap:round;"/>
     </g>
     <g id="line2d_35"/>
     <g id="line2d_36"/>
     <g id="text_5">
      <!-- 0.8 -->
      <defs>
       <path d="M 51.265625 19.1875 
Q 51.265625 14.796875 49.875 11.109375 
Q 48.484375 7.421875 45.625 4.734375 
Q 42.78125 2.046875 38.328125 0.53125 
Q 33.890625 -0.984375 27.828125 -0.984375 
Q 21.78125 -0.984375 17.359375 0.53125 
Q 12.9375 2.046875 10.03125 4.703125 
Q 7.125 7.375 5.734375 11.0625 
Q 4.34375 14.75 4.34375 19.09375 
Q 4.34375 22.859375 5.484375 25.78125 
Q 6.640625 28.71875 8.5625 30.828125 
Q 10.5 32.953125 12.96875 34.25 
Q 15.4375 35.546875 18.0625 35.984375 
L 18.0625 36.1875 
Q 15.1875 36.859375 12.90625 38.375 
Q 10.640625 39.890625 9.09375 42.015625 
Q 7.5625 44.140625 6.75 46.71875 
Q 5.953125 49.3125 5.953125 52.203125 
Q 5.953125 55.8125 7.34375 59 
Q 8.734375 62.203125 11.46875 64.625 
Q 14.203125 67.046875 18.25 68.4375 
Q 22.3125 69.828125 27.640625 69.828125 
Q 33.25 69.828125 37.375 68.40625 
Q 41.5 67 44.203125 64.578125 
Q 46.921875 62.15625 48.234375 58.9375 
Q 49.5625 55.71875 49.5625 52.09375 
Q 49.5625 49.265625 48.75 46.671875 
Q 47.953125 44.09375 46.40625 41.96875 
Q 44.875 39.84375 42.59375 38.34375 
Q 40.328125 36.859375 37.359375 36.28125 
L 37.359375 36.078125 
Q 40.328125 35.59375 42.859375 34.296875 
Q 45.40625 33.015625 47.265625 30.890625 
Q 49.125 28.765625 50.1875 25.828125 
Q 51.265625 22.90625 51.265625 19.1875 
M 40.4375 51.609375 
Q 40.4375 54.203125 39.765625 56.34375 
Q 39.109375 58.5 37.59375 60.03125 
Q 36.078125 61.578125 33.640625 62.421875 
Q 31.203125 63.28125 27.640625 63.28125 
Q 24.171875 63.28125 21.78125 62.421875 
Q 19.390625 61.578125 17.84375 60.03125 
Q 16.3125 58.5 15.625 56.34375 
Q 14.9375 54.203125 14.9375 51.609375 
Q 14.9375 49.5625 15.46875 47.40625 
Q 16.015625 45.265625 17.421875 43.5 
Q 18.84375 41.75 21.328125 40.625 
Q 23.828125 39.5 27.734375 39.5 
Q 31.890625 39.5 34.40625 40.625 
Q 36.921875 41.75 38.25 43.5 
Q 39.59375 45.265625 40.015625 47.40625 
Q 40.4375 49.5625 40.4375 51.609375 
M 42.140625 20.015625 
Q 42.140625 22.515625 41.453125 24.828125 
Q 40.765625 27.15625 39.109375 28.9375 
Q 37.453125 30.71875 34.640625 31.8125 
Q 31.84375 32.90625 27.640625 32.90625 
Q 23.78125 32.90625 21.0625 31.8125 
Q 18.359375 30.71875 16.671875 28.90625 
Q 14.984375 27.09375 14.203125 24.71875 
Q 13.421875 22.359375 13.421875 19.828125 
Q 13.421875 16.65625 14.203125 14.03125 
Q 14.984375 11.421875 16.6875 9.546875 
Q 18.40625 7.671875 21.1875 6.640625 
Q 23.96875 5.609375 27.9375 5.609375 
Q 31.9375 5.609375 34.671875 6.640625 
Q 37.40625 7.671875 39.0625 9.546875 
Q 40.71875 11.421875 41.421875 14.078125 
Q 42.140625 16.75 42.140625 20.015625 
" id="LiberationSans-38"/>
      </defs>
      <g style="fill:#262626;" transform="translate(10.9 32.0326041667)scale(0.1 -0.1)">
       <use xlink:href="#LiberationSans-30"/>
       <use x="55.615234375" xlink:href="#LiberationSans-2e"/>
       <use x="83.3984375" xlink:href="#LiberationSans-38"/>
      </g>
     </g>
    </g>
    <g id="ytick_6">
     <g id="line2d_37">
      <path clip-path="url(#pb355fc21de)" d="M 31.8 15.8 
L 507.684129 15.8 
" style="fill:none;stroke:#ffffff;stroke-linecap:round;"/>
     </g>
     <g id="line2d_38"/>
     <g id="line2d_39"/>
     <g id="text_6">
      <!-- 1.0 -->
      <defs>
       <path d="M 7.625 0 
L 7.625 7.46875 
L 25.140625 7.46875 
L 25.140625 60.40625 
L 9.625 49.3125 
L 9.625 57.625 
L 25.875 68.796875 
L 33.984375 68.796875 
L 33.984375 7.46875 
L 50.734375 7.46875 
L 50.734375 0 
z
" id="LiberationSans-31"/>
      </defs>
      <g style="fill:#262626;" transform="translate(10.9 18.3859375)scale(0.1 -0.1)">
       <use xlink:href="#LiberationSans-31"/>
       <use x="55.615234375" xlink:href="#LiberationSans-2e"/>
       <use x="83.3984375" xlink:href="#LiberationSans-30"/>
      </g>
     </g>
    </g>
    <g id="text_7">
     <!-- $\beta = 0.01$ -->
     <defs>
      <path d="M 2.6875 -19.390625 
Q 2.390625 -19.390625 2.140625 -19.046875 
Q 1.90625 -18.703125 1.90625 -18.40625 
L 17.28125 43.40625 
Q 18.609375 48.390625 21.140625 53.078125 
Q 23.6875 57.765625 27.515625 61.796875 
Q 31.34375 65.828125 35.9375 68.171875 
Q 40.53125 70.515625 45.703125 70.515625 
Q 49.421875 70.515625 52.421875 68.875 
Q 55.421875 67.234375 57.15625 64.28125 
Q 58.890625 61.328125 58.890625 57.625 
Q 58.890625 54.046875 57.515625 50.796875 
Q 56.15625 47.5625 53.703125 44.75 
Q 51.265625 41.9375 48.484375 40.1875 
Q 50.09375 39.15625 51.359375 37.5625 
Q 52.640625 35.984375 53.421875 34.25 
Q 54.203125 32.515625 54.640625 30.390625 
Q 55.078125 28.265625 55.078125 26.421875 
Q 55.078125 21.296875 52.875 16.3125 
Q 50.6875 11.328125 46.890625 7.265625 
Q 43.109375 3.21875 38.21875 0.84375 
Q 33.34375 -1.515625 28.21875 -1.515625 
Q 22.609375 -1.515625 18.109375 1.5625 
Q 13.625 4.640625 11.921875 9.90625 
L 4.6875 -18.796875 
Q 4.6875 -19.390625 3.90625 -19.390625 
z
M 28.421875 1.21875 
Q 32.90625 1.21875 36.546875 4.171875 
Q 40.1875 7.125 42.546875 11.59375 
Q 44.921875 16.0625 46.15625 21.0625 
Q 47.40625 26.078125 47.40625 30.171875 
Q 47.40625 35.25 44.484375 38.1875 
Q 41.0625 36.921875 37.796875 36.921875 
Q 29.890625 36.921875 29.890625 39.59375 
Q 29.890625 43.109375 38.921875 43.109375 
Q 42.140625 43.109375 44.828125 42.09375 
Q 46.96875 43.75 48.71875 46.96875 
Q 50.484375 50.203125 51.390625 53.71875 
Q 52.296875 57.234375 52.296875 60.296875 
Q 52.296875 63.578125 50.5625 65.75 
Q 48.828125 67.921875 45.515625 67.921875 
Q 39.40625 67.921875 34.15625 64.15625 
Q 28.90625 60.40625 25.296875 54.65625 
Q 21.6875 48.921875 20.125 42.828125 
L 14.59375 20.703125 
Q 14.0625 18.40625 13.921875 15.578125 
Q 13.921875 9.328125 18.015625 5.265625 
Q 22.125 1.21875 28.421875 1.21875 
M 32.90625 39.890625 
Q 34.421875 39.5 37.890625 39.5 
Q 39.59375 39.5 41.3125 40.09375 
Q 41.21875 40.1875 40.921875 40.1875 
Q 39.84375 40.484375 38.625 40.484375 
Q 34.078125 40.484375 32.90625 39.890625 
" id="Cmmi10-af"/>
      <path d="M 25 -2.203125 
Q 12.75 -2.203125 8.328125 7.875 
Q 3.90625 17.96875 3.90625 31.890625 
Q 3.90625 40.578125 5.484375 48.234375 
Q 7.078125 55.90625 11.78125 61.25 
Q 16.5 66.609375 25 66.609375 
Q 31.59375 66.609375 35.78125 63.375 
Q 39.984375 60.15625 42.1875 55.046875 
Q 44.390625 49.953125 45.1875 44.109375 
Q 46 38.28125 46 31.890625 
Q 46 23.296875 44.40625 15.796875 
Q 42.828125 8.296875 38.1875 3.046875 
Q 33.546875 -2.203125 25 -2.203125 
M 25 0.390625 
Q 30.5625 0.390625 33.296875 6.09375 
Q 36.03125 11.8125 36.671875 18.75 
Q 37.3125 25.6875 37.3125 33.5 
Q 37.3125 41.015625 36.671875 47.359375 
Q 36.03125 53.71875 33.3125 58.859375 
Q 30.609375 64.015625 25 64.015625 
Q 19.34375 64.015625 16.609375 58.828125 
Q 13.875 53.65625 13.234375 47.328125 
Q 12.59375 41.015625 12.59375 33.5 
Q 12.59375 27.9375 12.859375 23 
Q 13.140625 18.0625 14.3125 12.8125 
Q 15.484375 7.5625 18.09375 3.96875 
Q 20.703125 0.390625 25 0.390625 
" id="Cmr10-30"/>
      <path d="M 9.28125 0 
L 9.28125 3.515625 
Q 21.78125 3.515625 21.78125 6.6875 
L 21.78125 59.1875 
Q 16.609375 56.6875 8.6875 56.6875 
L 8.6875 60.203125 
Q 20.953125 60.203125 27.203125 66.609375 
L 28.609375 66.609375 
Q 28.953125 66.609375 29.265625 66.328125 
Q 29.59375 66.0625 29.59375 65.71875 
L 29.59375 6.6875 
Q 29.59375 3.515625 42.09375 3.515625 
L 42.09375 0 
z
" id="Cmr10-31"/>
      <path d="M 8.40625 5.515625 
Q 8.40625 7.765625 10.0625 9.375 
Q 11.71875 10.984375 13.921875 10.984375 
Q 15.28125 10.984375 16.59375 10.25 
Q 17.921875 9.515625 18.65625 8.203125 
Q 19.390625 6.890625 19.390625 5.515625 
Q 19.390625 3.328125 17.765625 1.65625 
Q 16.15625 0 13.921875 0 
Q 11.71875 0 10.0625 1.65625 
Q 8.40625 3.328125 8.40625 5.515625 
" id="Cmmi10-3a"/>
      <path d="M 7.515625 13.28125 
Q 6.6875 13.28125 6.140625 13.90625 
Q 5.609375 14.546875 5.609375 15.28125 
Q 5.609375 16.109375 6.140625 16.6875 
Q 6.6875 17.28125 7.515625 17.28125 
L 70.3125 17.28125 
Q 71.046875 17.28125 71.578125 16.6875 
Q 72.125 16.109375 72.125 15.28125 
Q 72.125 14.546875 71.578125 13.90625 
Q 71.046875 13.28125 70.3125 13.28125 
z
M 7.515625 32.71875 
Q 6.6875 32.71875 6.140625 33.296875 
Q 5.609375 33.890625 5.609375 34.71875 
Q 5.609375 35.453125 6.140625 36.078125 
Q 6.6875 36.71875 7.515625 36.71875 
L 70.3125 36.71875 
Q 71.046875 36.71875 71.578125 36.078125 
Q 72.125 35.453125 72.125 34.71875 
Q 72.125 33.890625 71.578125 33.296875 
Q 71.046875 32.71875 70.3125 32.71875 
z
" id="Cmr10-3d"/>
     </defs>
     <g style="fill:#262626;" transform="translate(515.44601793 53.2389583333)scale(0.14 -0.14)">
      <use transform="translate(0.0 0.484375)" xlink:href="#Cmmi10-af"/>
      <use transform="translate(74.052734375 0.484375)" xlink:href="#Cmr10-3d"/>
      <use transform="translate(169.296875 0.484375)" xlink:href="#Cmr10-30"/>
      <use transform="translate(219.296875 0.484375)" xlink:href="#Cmmi10-3a"/>
      <use transform="translate(264.541015625 0.484375)" xlink:href="#Cmr10-30"/>
      <use transform="translate(314.541015625 0.484375)" xlink:href="#Cmr10-31"/>
     </g>
    </g>
   </g>
   <g id="line2d_40">
    <path clip-path="url(#pb355fc21de)" d="M 31.8 33.118011 
L 46.148265 29.817153 
L 58.105153 27.259485 
L 70.062041 24.917989 
L 82.018928 22.828659 
L 91.584438 21.361056 
L 101.149948 20.091196 
L 110.715459 19.032398 
L 120.280969 18.195907 
L 129.846479 17.590694 
L 139.411989 17.223299 
L 148.977499 17.097711 
L 158.543009 17.215299 
L 168.108519 17.574781 
L 177.674029 18.172254 
L 187.23954 19.00126 
L 196.80505 20.052905 
L 206.37056 21.316016 
L 215.93607 22.77734 
L 227.892958 24.859566 
L 239.849845 27.19487 
L 251.806733 29.747057 
L 263.763621 32.403471 
L 266.154998 32.82495 
L 268.546376 33.047465 
L 270.937753 32.971136 
L 273.329131 32.63236 
L 278.111886 31.621679 
L 294.851529 27.88771 
L 306.808416 25.447883 
L 318.765304 23.248371 
L 328.330814 21.68503 
L 337.896324 20.313605 
L 347.461834 19.148382 
L 357.027344 18.201669 
L 366.592855 17.483577 
L 376.158365 17.00184 
L 385.723875 16.761679 
L 395.289385 16.765706 
L 404.854895 17.013877 
L 414.420405 17.503494 
L 423.985915 18.229251 
L 433.551425 19.183333 
L 443.116936 20.355552 
L 452.682446 21.733535 
L 462.247956 23.302932 
L 474.204843 25.509229 
L 486.161731 27.9549 
L 500.509996 31.153257 
L 507.684129 32.840672 
L 507.684129 32.840672 
" style="fill:none;stroke:#feac76;stroke-linecap:round;stroke-width:1.75;"/>
   </g>
   <g id="patch_3">
    <path d="M 31.8 15.8 
L 507.684129 15.8 
" style="fill:none;"/>
   </g>
   <g id="patch_4">
    <path d="M 507.684129 84.033333 
L 507.684129 15.8 
" style="fill:none;"/>
   </g>
   <g id="patch_5">
    <path d="M 31.8 84.033333 
L 507.684129 84.033333 
" style="fill:none;"/>
   </g>
   <g id="patch_6">
    <path d="M 31.8 84.033333 
L 31.8 15.8 
" style="fill:none;"/>
   </g>
  </g>
  <g id="axes_2">
   <g id="patch_7">
    <path d="M 31.8 173.066667 
L 507.684129 173.066667 
L 507.684129 104.833333 
L 31.8 104.833333 
z
" style="fill:#eaeaf2;"/>
   </g>
   <g id="matplotlib.axis_3">
    <g id="xtick_8">
     <g id="line2d_41">
      <path clip-path="url(#pa195a67167)" d="M 31.8 173.066667 
L 31.8 104.833333 
" style="fill:none;stroke:#ffffff;stroke-linecap:round;"/>
     </g>
     <g id="line2d_42"/>
     <g id="line2d_43"/>
    </g>
    <g id="xtick_9">
     <g id="line2d_44">
      <path clip-path="url(#pa195a67167)" d="M 111.114021 173.066667 
L 111.114021 104.833333 
" style="fill:none;stroke:#ffffff;stroke-linecap:round;"/>
     </g>
     <g id="line2d_45"/>
     <g id="line2d_46"/>
    </g>
    <g id="xtick_10">
     <g id="line2d_47">
      <path clip-path="url(#pa195a67167)" d="M 190.428043 173.066667 
L 190.428043 104.833333 
" style="fill:none;stroke:#ffffff;stroke-linecap:round;"/>
     </g>
     <g id="line2d_48"/>
     <g id="line2d_49"/>
    </g>
    <g id="xtick_11">
     <g id="line2d_50">
      <path clip-path="url(#pa195a67167)" d="M 269.742064 173.066667 
L 269.742064 104.833333 
" style="fill:none;stroke:#ffffff;stroke-linecap:round;"/>
     </g>
     <g id="line2d_51"/>
     <g id="line2d_52"/>
    </g>
    <g id="xtick_12">
     <g id="line2d_53">
      <path clip-path="url(#pa195a67167)" d="M 349.056086 173.066667 
L 349.056086 104.833333 
" style="fill:none;stroke:#ffffff;stroke-linecap:round;"/>
     </g>
     <g id="line2d_54"/>
     <g id="line2d_55"/>
    </g>
    <g id="xtick_13">
     <g id="line2d_56">
      <path clip-path="url(#pa195a67167)" d="M 428.370107 173.066667 
L 428.370107 104.833333 
" style="fill:none;stroke:#ffffff;stroke-linecap:round;"/>
     </g>
     <g id="line2d_57"/>
     <g id="line2d_58"/>
    </g>
    <g id="xtick_14">
     <g id="line2d_59">
      <path clip-path="url(#pa195a67167)" d="M 507.684129 173.066667 
L 507.684129 104.833333 
" style="fill:none;stroke:#ffffff;stroke-linecap:round;"/>
     </g>
     <g id="line2d_60"/>
     <g id="line2d_61"/>
    </g>
   </g>
   <g id="matplotlib.axis_4">
    <g id="ytick_7">
     <g id="line2d_62">
      <path clip-path="url(#pa195a67167)" d="M 31.8 173.066667 
L 507.684129 173.066667 
" style="fill:none;stroke:#ffffff;stroke-linecap:round;"/>
     </g>
     <g id="line2d_63"/>
     <g id="line2d_64"/>
     <g id="text_8">
      <!-- 0.0 -->
      <g style="fill:#262626;" transform="translate(10.9 175.652604167)scale(0.1 -0.1)">
       <use xlink:href="#LiberationSans-30"/>
       <use x="55.615234375" xlink:href="#LiberationSans-2e"/>
       <use x="83.3984375" xlink:href="#LiberationSans-30"/>
      </g>
     </g>
    </g>
    <g id="ytick_8">
     <g id="line2d_65">
      <path clip-path="url(#pa195a67167)" d="M 31.8 159.42 
L 507.684129 159.42 
" style="fill:none;stroke:#ffffff;stroke-linecap:round;"/>
     </g>
     <g id="line2d_66"/>
     <g id="line2d_67"/>
     <g id="text_9">
      <!-- 0.2 -->
      <g style="fill:#262626;" transform="translate(10.9 162.0059375)scale(0.1 -0.1)">
       <use xlink:href="#LiberationSans-30"/>
       <use x="55.615234375" xlink:href="#LiberationSans-2e"/>
       <use x="83.3984375" xlink:href="#LiberationSans-32"/>
      </g>
     </g>
    </g>
    <g id="ytick_9">
     <g id="line2d_68">
      <path clip-path="url(#pa195a67167)" d="M 31.8 145.773333 
L 507.684129 145.773333 
" style="fill:none;stroke:#ffffff;stroke-linecap:round;"/>
     </g>
     <g id="line2d_69"/>
     <g id="line2d_70"/>
     <g id="text_10">
      <!-- 0.4 -->
      <g style="fill:#262626;" transform="translate(10.9 148.359270833)scale(0.1 -0.1)">
       <use xlink:href="#LiberationSans-30"/>
       <use x="55.615234375" xlink:href="#LiberationSans-2e"/>
       <use x="83.3984375" xlink:href="#LiberationSans-34"/>
      </g>
     </g>
    </g>
    <g id="ytick_10">
     <g id="line2d_71">
      <path clip-path="url(#pa195a67167)" d="M 31.8 132.126667 
L 507.684129 132.126667 
" style="fill:none;stroke:#ffffff;stroke-linecap:round;"/>
     </g>
     <g id="line2d_72"/>
     <g id="line2d_73"/>
     <g id="text_11">
      <!-- 0.6 -->
      <g style="fill:#262626;" transform="translate(10.9 134.712604167)scale(0.1 -0.1)">
       <use xlink:href="#LiberationSans-30"/>
       <use x="55.615234375" xlink:href="#LiberationSans-2e"/>
       <use x="83.3984375" xlink:href="#LiberationSans-36"/>
      </g>
     </g>
    </g>
    <g id="ytick_11">
     <g id="line2d_74">
      <path clip-path="url(#pa195a67167)" d="M 31.8 118.48 
L 507.684129 118.48 
" style="fill:none;stroke:#ffffff;stroke-linecap:round;"/>
     </g>
     <g id="line2d_75"/>
     <g id="line2d_76"/>
     <g id="text_12">
      <!-- 0.8 -->
      <g style="fill:#262626;" transform="translate(10.9 121.0659375)scale(0.1 -0.1)">
       <use xlink:href="#LiberationSans-30"/>
       <use x="55.615234375" xlink:href="#LiberationSans-2e"/>
       <use x="83.3984375" xlink:href="#LiberationSans-38"/>
      </g>
     </g>
    </g>
    <g id="ytick_12">
     <g id="line2d_77">
      <path clip-path="url(#pa195a67167)" d="M 31.8 104.833333 
L 507.684129 104.833333 
" style="fill:none;stroke:#ffffff;stroke-linecap:round;"/>
     </g>
     <g id="line2d_78"/>
     <g id="line2d_79"/>
     <g id="text_13">
      <!-- 1.0 -->
      <g style="fill:#262626;" transform="translate(10.9 107.419270833)scale(0.1 -0.1)">
       <use xlink:href="#LiberationSans-31"/>
       <use x="55.615234375" xlink:href="#LiberationSans-2e"/>
       <use x="83.3984375" xlink:href="#LiberationSans-30"/>
      </g>
     </g>
    </g>
    <g id="text_14">
     <!-- $\beta = 0.03$ -->
     <defs>
      <path d="M 9.515625 7.71875 
Q 11.859375 4.296875 15.8125 2.640625 
Q 19.78125 0.984375 24.3125 0.984375 
Q 30.125 0.984375 32.5625 5.9375 
Q 35.015625 10.890625 35.015625 17.1875 
Q 35.015625 20.015625 34.5 22.84375 
Q 33.984375 25.6875 32.765625 28.125 
Q 31.546875 30.5625 29.421875 32.03125 
Q 27.296875 33.5 24.21875 33.5 
L 17.578125 33.5 
Q 16.703125 33.5 16.703125 34.421875 
L 16.703125 35.296875 
Q 16.703125 36.078125 17.578125 36.078125 
L 23.09375 36.53125 
Q 26.609375 36.53125 28.921875 39.15625 
Q 31.25 41.796875 32.328125 45.578125 
Q 33.40625 49.359375 33.40625 52.78125 
Q 33.40625 57.5625 31.15625 60.640625 
Q 28.90625 63.71875 24.3125 63.71875 
Q 20.515625 63.71875 17.046875 62.28125 
Q 13.578125 60.84375 11.53125 57.90625 
Q 11.71875 57.953125 11.859375 57.984375 
Q 12.015625 58.015625 12.203125 58.015625 
Q 14.453125 58.015625 15.96875 56.453125 
Q 17.484375 54.890625 17.484375 52.6875 
Q 17.484375 50.53125 15.96875 48.96875 
Q 14.453125 47.40625 12.203125 47.40625 
Q 10.015625 47.40625 8.453125 48.96875 
Q 6.890625 50.53125 6.890625 52.6875 
Q 6.890625 56.984375 9.46875 60.15625 
Q 12.0625 63.328125 16.140625 64.96875 
Q 20.21875 66.609375 24.3125 66.609375 
Q 27.34375 66.609375 30.703125 65.703125 
Q 34.078125 64.796875 36.8125 63.109375 
Q 39.546875 61.421875 41.28125 58.78125 
Q 43.015625 56.15625 43.015625 52.78125 
Q 43.015625 48.578125 41.140625 45.015625 
Q 39.265625 41.453125 35.984375 38.859375 
Q 32.71875 36.28125 28.8125 35.015625 
Q 33.15625 34.1875 37.0625 31.734375 
Q 40.96875 29.296875 43.328125 25.484375 
Q 45.703125 21.6875 45.703125 17.28125 
Q 45.703125 11.765625 42.671875 7.296875 
Q 39.65625 2.828125 34.71875 0.3125 
Q 29.78125 -2.203125 24.3125 -2.203125 
Q 19.625 -2.203125 14.90625 -0.40625 
Q 10.203125 1.375 7.203125 4.9375 
Q 4.203125 8.5 4.203125 13.484375 
Q 4.203125 15.96875 5.859375 17.625 
Q 7.515625 19.28125 10.015625 19.28125 
Q 11.625 19.28125 12.96875 18.53125 
Q 14.3125 17.78125 15.0625 16.40625 
Q 15.828125 15.046875 15.828125 13.484375 
Q 15.828125 11.03125 14.109375 9.375 
Q 12.40625 7.71875 10.015625 7.71875 
z
" id="Cmr10-33"/>
     </defs>
     <g style="fill:#262626;" transform="translate(515.44601793 142.272291667)scale(0.14 -0.14)">
      <use transform="translate(0.0 0.484375)" xlink:href="#Cmmi10-af"/>
      <use transform="translate(74.052734375 0.484375)" xlink:href="#Cmr10-3d"/>
      <use transform="translate(169.296875 0.484375)" xlink:href="#Cmr10-30"/>
      <use transform="translate(219.296875 0.484375)" xlink:href="#Cmmi10-3a"/>
      <use transform="translate(264.541015625 0.484375)" xlink:href="#Cmr10-30"/>
      <use transform="translate(314.541015625 0.484375)" xlink:href="#Cmr10-33"/>
     </g>
    </g>
   </g>
   <g id="line2d_80">
    <path clip-path="url(#pa195a67167)" d="M 31.8 140.361601 
L 50.93102 132.887705 
L 67.670663 126.379946 
L 79.627551 121.978158 
L 89.193061 118.721059 
L 96.367193 116.48286 
L 103.541326 114.454397 
L 110.715459 112.66435 
L 117.889591 111.138628 
L 125.063724 109.899743 
L 132.237856 108.966258 
L 139.411989 108.352324 
L 146.586122 108.067324 
L 151.368877 108.062437 
L 158.543009 108.332858 
L 165.717142 108.932512 
L 172.891274 109.852231 
L 180.065407 111.078067 
L 187.23954 112.591641 
L 194.413672 114.370604 
L 201.587805 116.389184 
L 208.761937 118.618808 
L 218.327448 121.866639 
L 227.892958 125.358494 
L 242.241223 130.883522 
L 261.372243 138.352772 
L 263.763621 139.196437 
L 266.154998 139.886691 
L 268.546376 140.247656 
L 270.937753 140.124103 
L 273.329131 139.572349 
L 278.111886 137.893379 
L 292.460151 132.209908 
L 309.199794 125.617382 
L 321.156681 121.163213 
L 330.722192 117.87076 
L 337.896324 115.610504 
L 345.070457 113.564191 
L 352.244589 111.760788 
L 359.418722 110.226419 
L 366.592855 108.983742 
L 373.766987 108.051386 
L 380.94112 107.443494 
L 385.723875 107.223286 
L 390.50663 107.153024 
L 395.289385 107.233187 
L 400.07214 107.463228 
L 407.246273 108.085596 
L 414.420405 109.031907 
L 421.594538 110.287812 
L 428.76867 111.834496 
L 435.942803 113.649135 
L 443.116936 115.705467 
L 450.291068 117.974416 
L 459.856578 121.276264 
L 469.422088 124.822895 
L 483.770354 130.429195 
L 507.684129 139.912273 
L 507.684129 139.912273 
" style="fill:none;stroke:#fea571;stroke-linecap:round;stroke-width:1.75;"/>
   </g>
   <g id="patch_8">
    <path d="M 31.8 104.833333 
L 507.684129 104.833333 
" style="fill:none;"/>
   </g>
   <g id="patch_9">
    <path d="M 507.684129 173.066667 
L 507.684129 104.833333 
" style="fill:none;"/>
   </g>
   <g id="patch_10">
    <path d="M 31.8 173.066667 
L 507.684129 173.066667 
" style="fill:none;"/>
   </g>
   <g id="patch_11">
    <path d="M 31.8 173.066667 
L 31.8 104.833333 
" style="fill:none;"/>
   </g>
  </g>
  <g id="axes_3">
   <g id="patch_12">
    <path d="M 31.8 262.1 
L 507.684129 262.1 
L 507.684129 193.866667 
L 31.8 193.866667 
z
" style="fill:#eaeaf2;"/>
   </g>
   <g id="matplotlib.axis_5">
    <g id="xtick_15">
     <g id="line2d_81">
      <path clip-path="url(#p808240d6b7)" d="M 31.8 262.1 
L 31.8 193.866667 
" style="fill:none;stroke:#ffffff;stroke-linecap:round;"/>
     </g>
     <g id="line2d_82"/>
     <g id="line2d_83"/>
    </g>
    <g id="xtick_16">
     <g id="line2d_84">
      <path clip-path="url(#p808240d6b7)" d="M 111.114021 262.1 
L 111.114021 193.866667 
" style="fill:none;stroke:#ffffff;stroke-linecap:round;"/>
     </g>
     <g id="line2d_85"/>
     <g id="line2d_86"/>
    </g>
    <g id="xtick_17">
     <g id="line2d_87">
      <path clip-path="url(#p808240d6b7)" d="M 190.428043 262.1 
L 190.428043 193.866667 
" style="fill:none;stroke:#ffffff;stroke-linecap:round;"/>
     </g>
     <g id="line2d_88"/>
     <g id="line2d_89"/>
    </g>
    <g id="xtick_18">
     <g id="line2d_90">
      <path clip-path="url(#p808240d6b7)" d="M 269.742064 262.1 
L 269.742064 193.866667 
" style="fill:none;stroke:#ffffff;stroke-linecap:round;"/>
     </g>
     <g id="line2d_91"/>
     <g id="line2d_92"/>
    </g>
    <g id="xtick_19">
     <g id="line2d_93">
      <path clip-path="url(#p808240d6b7)" d="M 349.056086 262.1 
L 349.056086 193.866667 
" style="fill:none;stroke:#ffffff;stroke-linecap:round;"/>
     </g>
     <g id="line2d_94"/>
     <g id="line2d_95"/>
    </g>
    <g id="xtick_20">
     <g id="line2d_96">
      <path clip-path="url(#p808240d6b7)" d="M 428.370107 262.1 
L 428.370107 193.866667 
" style="fill:none;stroke:#ffffff;stroke-linecap:round;"/>
     </g>
     <g id="line2d_97"/>
     <g id="line2d_98"/>
    </g>
    <g id="xtick_21">
     <g id="line2d_99">
      <path clip-path="url(#p808240d6b7)" d="M 507.684129 262.1 
L 507.684129 193.866667 
" style="fill:none;stroke:#ffffff;stroke-linecap:round;"/>
     </g>
     <g id="line2d_100"/>
     <g id="line2d_101"/>
    </g>
   </g>
   <g id="matplotlib.axis_6">
    <g id="ytick_13">
     <g id="line2d_102">
      <path clip-path="url(#p808240d6b7)" d="M 31.8 262.1 
L 507.684129 262.1 
" style="fill:none;stroke:#ffffff;stroke-linecap:round;"/>
     </g>
     <g id="line2d_103"/>
     <g id="line2d_104"/>
     <g id="text_15">
      <!-- 0.0 -->
      <g style="fill:#262626;" transform="translate(10.9 264.6859375)scale(0.1 -0.1)">
       <use xlink:href="#LiberationSans-30"/>
       <use x="55.615234375" xlink:href="#LiberationSans-2e"/>
       <use x="83.3984375" xlink:href="#LiberationSans-30"/>
      </g>
     </g>
    </g>
    <g id="ytick_14">
     <g id="line2d_105">
      <path clip-path="url(#p808240d6b7)" d="M 31.8 248.453333 
L 507.684129 248.453333 
" style="fill:none;stroke:#ffffff;stroke-linecap:round;"/>
     </g>
     <g id="line2d_106"/>
     <g id="line2d_107"/>
     <g id="text_16">
      <!-- 0.2 -->
      <g style="fill:#262626;" transform="translate(10.9 251.039270833)scale(0.1 -0.1)">
       <use xlink:href="#LiberationSans-30"/>
       <use x="55.615234375" xlink:href="#LiberationSans-2e"/>
       <use x="83.3984375" xlink:href="#LiberationSans-32"/>
      </g>
     </g>
    </g>
    <g id="ytick_15">
     <g id="line2d_108">
      <path clip-path="url(#p808240d6b7)" d="M 31.8 234.806667 
L 507.684129 234.806667 
" style="fill:none;stroke:#ffffff;stroke-linecap:round;"/>
     </g>
     <g id="line2d_109"/>
     <g id="line2d_110"/>
     <g id="text_17">
      <!-- 0.4 -->
      <g style="fill:#262626;" transform="translate(10.9 237.392604167)scale(0.1 -0.1)">
       <use xlink:href="#LiberationSans-30"/>
       <use x="55.615234375" xlink:href="#LiberationSans-2e"/>
       <use x="83.3984375" xlink:href="#LiberationSans-34"/>
      </g>
     </g>
    </g>
    <g id="ytick_16">
     <g id="line2d_111">
      <path clip-path="url(#p808240d6b7)" d="M 31.8 221.16 
L 507.684129 221.16 
" style="fill:none;stroke:#ffffff;stroke-linecap:round;"/>
     </g>
     <g id="line2d_112"/>
     <g id="line2d_113"/>
     <g id="text_18">
      <!-- 0.6 -->
      <g style="fill:#262626;" transform="translate(10.9 223.7459375)scale(0.1 -0.1)">
       <use xlink:href="#LiberationSans-30"/>
       <use x="55.615234375" xlink:href="#LiberationSans-2e"/>
       <use x="83.3984375" xlink:href="#LiberationSans-36"/>
      </g>
     </g>
    </g>
    <g id="ytick_17">
     <g id="line2d_114">
      <path clip-path="url(#p808240d6b7)" d="M 31.8 207.513333 
L 507.684129 207.513333 
" style="fill:none;stroke:#ffffff;stroke-linecap:round;"/>
     </g>
     <g id="line2d_115"/>
     <g id="line2d_116"/>
     <g id="text_19">
      <!-- 0.8 -->
      <g style="fill:#262626;" transform="translate(10.9 210.099270833)scale(0.1 -0.1)">
       <use xlink:href="#LiberationSans-30"/>
       <use x="55.615234375" xlink:href="#LiberationSans-2e"/>
       <use x="83.3984375" xlink:href="#LiberationSans-38"/>
      </g>
     </g>
    </g>
    <g id="ytick_18">
     <g id="line2d_117">
      <path clip-path="url(#p808240d6b7)" d="M 31.8 193.866667 
L 507.684129 193.866667 
" style="fill:none;stroke:#ffffff;stroke-linecap:round;"/>
     </g>
     <g id="line2d_118"/>
     <g id="line2d_119"/>
     <g id="text_20">
      <!-- 1.0 -->
      <g style="fill:#262626;" transform="translate(10.9 196.452604167)scale(0.1 -0.1)">
       <use xlink:href="#LiberationSans-31"/>
       <use x="55.615234375" xlink:href="#LiberationSans-2e"/>
       <use x="83.3984375" xlink:href="#LiberationSans-30"/>
      </g>
     </g>
    </g>
    <g id="text_21">
     <!-- $\beta = 0.06$ -->
     <defs>
      <path d="M 25 -2.203125 
Q 18.796875 -2.203125 14.640625 1.09375 
Q 10.5 4.390625 8.21875 9.640625 
Q 5.953125 14.890625 5.078125 20.65625 
Q 4.203125 26.421875 4.203125 32.328125 
Q 4.203125 40.234375 7.28125 48.1875 
Q 10.359375 56.15625 16.328125 61.375 
Q 22.3125 66.609375 30.515625 66.609375 
Q 33.9375 66.609375 36.890625 65.3125 
Q 39.84375 64.015625 41.53125 61.5 
Q 43.21875 58.984375 43.21875 55.421875 
Q 43.21875 53.375 41.828125 51.984375 
Q 40.4375 50.59375 38.375 50.59375 
Q 36.421875 50.59375 35 52 
Q 33.59375 53.421875 33.59375 55.421875 
Q 33.59375 57.375 35 58.78125 
Q 36.421875 60.203125 38.375 60.203125 
L 38.921875 60.203125 
Q 37.640625 62.015625 35.328125 62.859375 
Q 33.015625 63.71875 30.515625 63.71875 
Q 27.484375 63.71875 24.921875 62.390625 
Q 22.359375 61.078125 20.3125 58.828125 
Q 18.265625 56.59375 16.890625 53.875 
Q 15.53125 51.171875 14.765625 47.703125 
Q 14.015625 44.234375 13.8125 41.203125 
Q 13.625 38.1875 13.625 33.59375 
Q 15.375 37.703125 18.59375 40.3125 
Q 21.828125 42.921875 25.875 42.921875 
Q 30.328125 42.921875 33.984375 41.109375 
Q 37.640625 39.3125 40.28125 36.109375 
Q 42.921875 32.90625 44.3125 28.796875 
Q 45.703125 24.703125 45.703125 20.515625 
Q 45.703125 14.65625 43.09375 9.34375 
Q 40.484375 4.046875 35.734375 0.921875 
Q 31 -2.203125 25 -2.203125 
M 25 0.984375 
Q 28.859375 0.984375 31.203125 2.734375 
Q 33.546875 4.5 34.640625 7.390625 
Q 35.75 10.296875 36.015625 13.25 
Q 36.28125 16.21875 36.28125 20.515625 
Q 36.28125 26.171875 35.734375 30.171875 
Q 35.203125 34.1875 32.8125 37.234375 
Q 30.421875 40.28125 25.484375 40.28125 
Q 21.4375 40.28125 18.828125 37.546875 
Q 16.21875 34.8125 15.015625 30.640625 
Q 13.8125 26.46875 13.8125 22.609375 
Q 13.8125 21.296875 13.921875 20.609375 
Q 13.921875 20.453125 13.890625 20.359375 
Q 13.875 20.265625 13.8125 20.125 
Q 13.8125 15.828125 14.6875 11.421875 
Q 15.578125 7.03125 18.0625 4 
Q 20.5625 0.984375 25 0.984375 
" id="Cmr10-36"/>
     </defs>
     <g style="fill:#262626;" transform="translate(515.44601793 231.305625)scale(0.14 -0.14)">
      <use transform="translate(0.0 0.484375)" xlink:href="#Cmmi10-af"/>
      <use transform="translate(74.052734375 0.484375)" xlink:href="#Cmr10-3d"/>
      <use transform="translate(169.296875 0.484375)" xlink:href="#Cmr10-30"/>
      <use transform="translate(219.296875 0.484375)" xlink:href="#Cmmi10-3a"/>
      <use transform="translate(264.541015625 0.484375)" xlink:href="#Cmr10-30"/>
      <use transform="translate(314.541015625 0.484375)" xlink:href="#Cmr10-36"/>
     </g>
    </g>
   </g>
   <g id="line2d_120">
    <path clip-path="url(#p808240d6b7)" d="M 31.8 251.341632 
L 38.974133 248.898821 
L 46.148265 246.109053 
L 53.322398 242.978109 
L 60.49653 239.527345 
L 67.670663 235.795526 
L 77.236173 230.483999 
L 103.541326 215.520817 
L 110.715459 211.864607 
L 115.498214 209.646482 
L 120.280969 207.643665 
L 125.063724 205.887727 
L 129.846479 204.407036 
L 134.629234 203.226004 
L 139.411989 202.364413 
L 144.194744 201.836865 
L 148.977499 201.652372 
L 153.760254 201.814097 
L 158.543009 202.319268 
L 163.325764 203.15925 
L 168.108519 204.3198 
L 172.891274 205.78146 
L 177.674029 207.520106 
L 182.456785 209.507604 
L 187.23954 211.712573 
L 194.413672 215.353369 
L 201.587805 219.287201 
L 213.544692 226.167239 
L 225.50158 233.003647 
L 232.675713 236.901527 
L 239.849845 240.557055 
L 247.023978 243.918388 
L 254.19811 246.950629 
L 258.980866 248.770787 
L 263.763621 250.352786 
L 266.154998 250.944902 
L 268.546376 251.247233 
L 270.937753 251.144312 
L 273.329131 250.677537 
L 275.720508 249.989062 
L 280.503263 248.311564 
L 285.286018 246.423019 
L 292.460151 243.284429 
L 299.634284 239.805863 
L 306.808416 236.022869 
L 313.982549 231.989071 
L 323.548059 226.348745 
L 340.287702 216.411433 
L 347.461834 212.427506 
L 352.244589 209.955588 
L 357.027344 207.673733 
L 361.810099 205.616931 
L 366.592855 203.81766 
L 371.37561 202.305032 
L 376.158365 201.104015 
L 380.94112 200.234742 
L 385.723875 199.711957 
L 390.50663 199.544592 
L 395.289385 199.735518 
L 400.07214 200.281462 
L 404.854895 201.173096 
L 409.63765 202.39531 
L 414.420405 203.927632 
L 419.20316 205.744799 
L 423.985915 207.817453 
L 428.76867 210.112923 
L 435.942803 213.896623 
L 443.116936 217.97805 
L 455.073823 225.103423 
L 467.030711 232.170505 
L 474.204843 236.194679 
L 481.378976 239.965295 
L 488.553109 243.429599 
L 495.727241 246.55364 
L 500.509996 248.438503 
L 505.292751 250.163504 
L 507.684129 250.966493 
L 507.684129 250.966493 
" style="fill:none;stroke:#fd9668;stroke-linecap:round;stroke-width:1.75;"/>
   </g>
   <g id="patch_13">
    <path d="M 31.8 193.866667 
L 507.684129 193.866667 
" style="fill:none;"/>
   </g>
   <g id="patch_14">
    <path d="M 507.684129 262.1 
L 507.684129 193.866667 
" style="fill:none;"/>
   </g>
   <g id="patch_15">
    <path d="M 31.8 262.1 
L 507.684129 262.1 
" style="fill:none;"/>
   </g>
   <g id="patch_16">
    <path d="M 31.8 262.1 
L 31.8 193.866667 
" style="fill:none;"/>
   </g>
  </g>
  <g id="axes_4">
   <g id="patch_17">
    <path d="M 31.8 351.133333 
L 507.684129 351.133333 
L 507.684129 282.9 
L 31.8 282.9 
z
" style="fill:#eaeaf2;"/>
   </g>
   <g id="matplotlib.axis_7">
    <g id="xtick_22">
     <g id="line2d_121">
      <path clip-path="url(#p6226f83d4a)" d="M 31.8 351.133333 
L 31.8 282.9 
" style="fill:none;stroke:#ffffff;stroke-linecap:round;"/>
     </g>
     <g id="line2d_122"/>
     <g id="line2d_123"/>
    </g>
    <g id="xtick_23">
     <g id="line2d_124">
      <path clip-path="url(#p6226f83d4a)" d="M 111.114021 351.133333 
L 111.114021 282.9 
" style="fill:none;stroke:#ffffff;stroke-linecap:round;"/>
     </g>
     <g id="line2d_125"/>
     <g id="line2d_126"/>
    </g>
    <g id="xtick_24">
     <g id="line2d_127">
      <path clip-path="url(#p6226f83d4a)" d="M 190.428043 351.133333 
L 190.428043 282.9 
" style="fill:none;stroke:#ffffff;stroke-linecap:round;"/>
     </g>
     <g id="line2d_128"/>
     <g id="line2d_129"/>
    </g>
    <g id="xtick_25">
     <g id="line2d_130">
      <path clip-path="url(#p6226f83d4a)" d="M 269.742064 351.133333 
L 269.742064 282.9 
" style="fill:none;stroke:#ffffff;stroke-linecap:round;"/>
     </g>
     <g id="line2d_131"/>
     <g id="line2d_132"/>
    </g>
    <g id="xtick_26">
     <g id="line2d_133">
      <path clip-path="url(#p6226f83d4a)" d="M 349.056086 351.133333 
L 349.056086 282.9 
" style="fill:none;stroke:#ffffff;stroke-linecap:round;"/>
     </g>
     <g id="line2d_134"/>
     <g id="line2d_135"/>
    </g>
    <g id="xtick_27">
     <g id="line2d_136">
      <path clip-path="url(#p6226f83d4a)" d="M 428.370107 351.133333 
L 428.370107 282.9 
" style="fill:none;stroke:#ffffff;stroke-linecap:round;"/>
     </g>
     <g id="line2d_137"/>
     <g id="line2d_138"/>
    </g>
    <g id="xtick_28">
     <g id="line2d_139">
      <path clip-path="url(#p6226f83d4a)" d="M 507.684129 351.133333 
L 507.684129 282.9 
" style="fill:none;stroke:#ffffff;stroke-linecap:round;"/>
     </g>
     <g id="line2d_140"/>
     <g id="line2d_141"/>
    </g>
   </g>
   <g id="matplotlib.axis_8">
    <g id="ytick_19">
     <g id="line2d_142">
      <path clip-path="url(#p6226f83d4a)" d="M 31.8 351.133333 
L 507.684129 351.133333 
" style="fill:none;stroke:#ffffff;stroke-linecap:round;"/>
     </g>
     <g id="line2d_143"/>
     <g id="line2d_144"/>
     <g id="text_22">
      <!-- 0.0 -->
      <g style="fill:#262626;" transform="translate(10.9 353.719270833)scale(0.1 -0.1)">
       <use xlink:href="#LiberationSans-30"/>
       <use x="55.615234375" xlink:href="#LiberationSans-2e"/>
       <use x="83.3984375" xlink:href="#LiberationSans-30"/>
      </g>
     </g>
    </g>
    <g id="ytick_20">
     <g id="line2d_145">
      <path clip-path="url(#p6226f83d4a)" d="M 31.8 337.486667 
L 507.684129 337.486667 
" style="fill:none;stroke:#ffffff;stroke-linecap:round;"/>
     </g>
     <g id="line2d_146"/>
     <g id="line2d_147"/>
     <g id="text_23">
      <!-- 0.2 -->
      <g style="fill:#262626;" transform="translate(10.9 340.072604167)scale(0.1 -0.1)">
       <use xlink:href="#LiberationSans-30"/>
       <use x="55.615234375" xlink:href="#LiberationSans-2e"/>
       <use x="83.3984375" xlink:href="#LiberationSans-32"/>
      </g>
     </g>
    </g>
    <g id="ytick_21">
     <g id="line2d_148">
      <path clip-path="url(#p6226f83d4a)" d="M 31.8 323.84 
L 507.684129 323.84 
" style="fill:none;stroke:#ffffff;stroke-linecap:round;"/>
     </g>
     <g id="line2d_149"/>
     <g id="line2d_150"/>
     <g id="text_24">
      <!-- 0.4 -->
      <g style="fill:#262626;" transform="translate(10.9 326.4259375)scale(0.1 -0.1)">
       <use xlink:href="#LiberationSans-30"/>
       <use x="55.615234375" xlink:href="#LiberationSans-2e"/>
       <use x="83.3984375" xlink:href="#LiberationSans-34"/>
      </g>
     </g>
    </g>
    <g id="ytick_22">
     <g id="line2d_151">
      <path clip-path="url(#p6226f83d4a)" d="M 31.8 310.193333 
L 507.684129 310.193333 
" style="fill:none;stroke:#ffffff;stroke-linecap:round;"/>
     </g>
     <g id="line2d_152"/>
     <g id="line2d_153"/>
     <g id="text_25">
      <!-- 0.6 -->
      <g style="fill:#262626;" transform="translate(10.9 312.779270833)scale(0.1 -0.1)">
       <use xlink:href="#LiberationSans-30"/>
       <use x="55.615234375" xlink:href="#LiberationSans-2e"/>
       <use x="83.3984375" xlink:href="#LiberationSans-36"/>
      </g>
     </g>
    </g>
    <g id="ytick_23">
     <g id="line2d_154">
      <path clip-path="url(#p6226f83d4a)" d="M 31.8 296.546667 
L 507.684129 296.546667 
" style="fill:none;stroke:#ffffff;stroke-linecap:round;"/>
     </g>
     <g id="line2d_155"/>
     <g id="line2d_156"/>
     <g id="text_26">
      <!-- 0.8 -->
      <g style="fill:#262626;" transform="translate(10.9 299.132604167)scale(0.1 -0.1)">
       <use xlink:href="#LiberationSans-30"/>
       <use x="55.615234375" xlink:href="#LiberationSans-2e"/>
       <use x="83.3984375" xlink:href="#LiberationSans-38"/>
      </g>
     </g>
    </g>
    <g id="ytick_24">
     <g id="line2d_157">
      <path clip-path="url(#p6226f83d4a)" d="M 31.8 282.9 
L 507.684129 282.9 
" style="fill:none;stroke:#ffffff;stroke-linecap:round;"/>
     </g>
     <g id="line2d_158"/>
     <g id="line2d_159"/>
     <g id="text_27">
      <!-- 1.0 -->
      <g style="fill:#262626;" transform="translate(10.9 285.4859375)scale(0.1 -0.1)">
       <use xlink:href="#LiberationSans-31"/>
       <use x="55.615234375" xlink:href="#LiberationSans-2e"/>
       <use x="83.3984375" xlink:href="#LiberationSans-30"/>
      </g>
     </g>
    </g>
    <g id="text_28">
     <!-- $\beta = 0.16$ -->
     <g style="fill:#262626;" transform="translate(515.44601793 320.338958333)scale(0.14 -0.14)">
      <use transform="translate(0.0 0.484375)" xlink:href="#Cmmi10-af"/>
      <use transform="translate(74.052734375 0.484375)" xlink:href="#Cmr10-3d"/>
      <use transform="translate(169.296875 0.484375)" xlink:href="#Cmr10-30"/>
      <use transform="translate(219.296875 0.484375)" xlink:href="#Cmmi10-3a"/>
      <use transform="translate(264.541015625 0.484375)" xlink:href="#Cmr10-31"/>
      <use transform="translate(314.541015625 0.484375)" xlink:href="#Cmr10-36"/>
     </g>
    </g>
   </g>
   <g id="line2d_160">
    <path clip-path="url(#p6226f83d4a)" d="M 31.8 350.47441 
L 38.974133 350.031649 
L 46.148265 349.350131 
L 50.93102 348.718939 
L 55.713775 347.91109 
L 60.49653 346.894451 
L 65.279285 345.636822 
L 70.062041 344.10802 
L 74.844796 342.28244 
L 79.627551 340.141978 
L 84.410306 337.679123 
L 89.193061 334.89999 
L 93.975816 331.826968 
L 98.758571 328.500661 
L 105.932703 323.172084 
L 117.889591 314.124526 
L 122.672346 310.76374 
L 127.455101 307.727665 
L 132.237856 305.130845 
L 134.629234 304.029928 
L 137.020611 303.076076 
L 139.411989 302.279195 
L 141.803366 301.647666 
L 144.194744 301.188197 
L 146.586122 300.905704 
L 148.977499 300.803227 
L 151.368877 300.88187 
L 153.760254 301.140785 
L 156.151632 301.577186 
L 158.543009 302.186399 
L 160.934387 302.961946 
L 163.325764 303.895659 
L 165.717142 304.977823 
L 168.108519 306.197344 
L 172.891274 308.998342 
L 177.674029 312.189895 
L 182.456785 315.654571 
L 201.587805 329.972485 
L 206.37056 333.195036 
L 211.153315 336.144352 
L 215.93607 338.787914 
L 220.718825 341.110688 
L 225.50158 343.11283 
L 230.284335 344.80683 
L 235.06709 346.214426 
L 239.849845 347.36355 
L 244.6326 348.285544 
L 249.415355 349.012772 
L 256.589488 349.806114 
L 263.763621 350.311544 
L 268.546376 350.45979 
L 273.329131 350.367423 
L 280.503263 349.904373 
L 287.677396 349.149657 
L 292.460151 348.450162 
L 297.242906 347.555791 
L 302.025661 346.431518 
L 306.808416 345.042324 
L 311.591171 343.355551 
L 316.373926 341.343731 
L 321.156681 338.987784 
L 325.939436 336.280406 
L 330.722192 333.229347 
L 335.504947 329.860261 
L 340.287702 326.218758 
L 347.461834 320.396713 
L 359.418722 310.547501 
L 364.201477 306.90387 
L 368.984232 303.622605 
L 371.37561 302.157116 
L 373.766987 300.827947 
L 376.158365 299.648485 
L 378.549742 298.630822 
L 380.94112 297.785545 
L 383.332497 297.121557 
L 385.723875 296.645919 
L 388.115252 296.363725 
L 390.50663 296.278011 
L 392.898007 296.389702 
L 395.289385 296.697593 
L 397.680762 297.198373 
L 400.07214 297.886684 
L 402.463517 298.755213 
L 404.854895 299.794827 
L 407.246273 300.994728 
L 409.63765 302.342643 
L 414.420405 305.427304 
L 419.20316 308.929412 
L 423.985915 312.720626 
L 443.116936 328.30936 
L 447.899691 331.803535 
L 452.682446 334.996951 
L 457.465201 337.855482 
L 462.247956 340.363915 
L 467.030711 342.523406 
L 471.813466 344.348339 
L 476.596221 345.862949 
L 481.378976 347.098014 
L 486.161731 348.08785 
L 490.944486 348.867763 
L 495.727241 349.472059 
L 502.901374 350.118008 
L 507.684129 350.415165 
L 507.684129 350.415165 
" style="fill:none;stroke:#f7705c;stroke-linecap:round;stroke-width:1.75;"/>
   </g>
   <g id="patch_18">
    <path d="M 31.8 282.9 
L 507.684129 282.9 
" style="fill:none;"/>
   </g>
   <g id="patch_19">
    <path d="M 507.684129 351.133333 
L 507.684129 282.9 
" style="fill:none;"/>
   </g>
   <g id="patch_20">
    <path d="M 31.8 351.133333 
L 507.684129 351.133333 
" style="fill:none;"/>
   </g>
   <g id="patch_21">
    <path d="M 31.8 351.133333 
L 31.8 282.9 
" style="fill:none;"/>
   </g>
  </g>
  <g id="axes_5">
   <g id="patch_22">
    <path d="M 31.8 440.166667 
L 507.684129 440.166667 
L 507.684129 371.933333 
L 31.8 371.933333 
z
" style="fill:#eaeaf2;"/>
   </g>
   <g id="matplotlib.axis_9">
    <g id="xtick_29">
     <g id="line2d_161">
      <path clip-path="url(#pbb3542733b)" d="M 31.8 440.166667 
L 31.8 371.933333 
" style="fill:none;stroke:#ffffff;stroke-linecap:round;"/>
     </g>
     <g id="line2d_162"/>
     <g id="line2d_163"/>
    </g>
    <g id="xtick_30">
     <g id="line2d_164">
      <path clip-path="url(#pbb3542733b)" d="M 111.114021 440.166667 
L 111.114021 371.933333 
" style="fill:none;stroke:#ffffff;stroke-linecap:round;"/>
     </g>
     <g id="line2d_165"/>
     <g id="line2d_166"/>
    </g>
    <g id="xtick_31">
     <g id="line2d_167">
      <path clip-path="url(#pbb3542733b)" d="M 190.428043 440.166667 
L 190.428043 371.933333 
" style="fill:none;stroke:#ffffff;stroke-linecap:round;"/>
     </g>
     <g id="line2d_168"/>
     <g id="line2d_169"/>
    </g>
    <g id="xtick_32">
     <g id="line2d_170">
      <path clip-path="url(#pbb3542733b)" d="M 269.742064 440.166667 
L 269.742064 371.933333 
" style="fill:none;stroke:#ffffff;stroke-linecap:round;"/>
     </g>
     <g id="line2d_171"/>
     <g id="line2d_172"/>
    </g>
    <g id="xtick_33">
     <g id="line2d_173">
      <path clip-path="url(#pbb3542733b)" d="M 349.056086 440.166667 
L 349.056086 371.933333 
" style="fill:none;stroke:#ffffff;stroke-linecap:round;"/>
     </g>
     <g id="line2d_174"/>
     <g id="line2d_175"/>
    </g>
    <g id="xtick_34">
     <g id="line2d_176">
      <path clip-path="url(#pbb3542733b)" d="M 428.370107 440.166667 
L 428.370107 371.933333 
" style="fill:none;stroke:#ffffff;stroke-linecap:round;"/>
     </g>
     <g id="line2d_177"/>
     <g id="line2d_178"/>
    </g>
    <g id="xtick_35">
     <g id="line2d_179">
      <path clip-path="url(#pbb3542733b)" d="M 507.684129 440.166667 
L 507.684129 371.933333 
" style="fill:none;stroke:#ffffff;stroke-linecap:round;"/>
     </g>
     <g id="line2d_180"/>
     <g id="line2d_181"/>
    </g>
   </g>
   <g id="matplotlib.axis_10">
    <g id="ytick_25">
     <g id="line2d_182">
      <path clip-path="url(#pbb3542733b)" d="M 31.8 440.166667 
L 507.684129 440.166667 
" style="fill:none;stroke:#ffffff;stroke-linecap:round;"/>
     </g>
     <g id="line2d_183"/>
     <g id="line2d_184"/>
     <g id="text_29">
      <!-- 0.0 -->
      <g style="fill:#262626;" transform="translate(10.9 442.752604167)scale(0.1 -0.1)">
       <use xlink:href="#LiberationSans-30"/>
       <use x="55.615234375" xlink:href="#LiberationSans-2e"/>
       <use x="83.3984375" xlink:href="#LiberationSans-30"/>
      </g>
     </g>
    </g>
    <g id="ytick_26">
     <g id="line2d_185">
      <path clip-path="url(#pbb3542733b)" d="M 31.8 426.52 
L 507.684129 426.52 
" style="fill:none;stroke:#ffffff;stroke-linecap:round;"/>
     </g>
     <g id="line2d_186"/>
     <g id="line2d_187"/>
     <g id="text_30">
      <!-- 0.2 -->
      <g style="fill:#262626;" transform="translate(10.9 429.1059375)scale(0.1 -0.1)">
       <use xlink:href="#LiberationSans-30"/>
       <use x="55.615234375" xlink:href="#LiberationSans-2e"/>
       <use x="83.3984375" xlink:href="#LiberationSans-32"/>
      </g>
     </g>
    </g>
    <g id="ytick_27">
     <g id="line2d_188">
      <path clip-path="url(#pbb3542733b)" d="M 31.8 412.873333 
L 507.684129 412.873333 
" style="fill:none;stroke:#ffffff;stroke-linecap:round;"/>
     </g>
     <g id="line2d_189"/>
     <g id="line2d_190"/>
     <g id="text_31">
      <!-- 0.4 -->
      <g style="fill:#262626;" transform="translate(10.9 415.459270833)scale(0.1 -0.1)">
       <use xlink:href="#LiberationSans-30"/>
       <use x="55.615234375" xlink:href="#LiberationSans-2e"/>
       <use x="83.3984375" xlink:href="#LiberationSans-34"/>
      </g>
     </g>
    </g>
    <g id="ytick_28">
     <g id="line2d_191">
      <path clip-path="url(#pbb3542733b)" d="M 31.8 399.226667 
L 507.684129 399.226667 
" style="fill:none;stroke:#ffffff;stroke-linecap:round;"/>
     </g>
     <g id="line2d_192"/>
     <g id="line2d_193"/>
     <g id="text_32">
      <!-- 0.6 -->
      <g style="fill:#262626;" transform="translate(10.9 401.812604167)scale(0.1 -0.1)">
       <use xlink:href="#LiberationSans-30"/>
       <use x="55.615234375" xlink:href="#LiberationSans-2e"/>
       <use x="83.3984375" xlink:href="#LiberationSans-36"/>
      </g>
     </g>
    </g>
    <g id="ytick_29">
     <g id="line2d_194">
      <path clip-path="url(#pbb3542733b)" d="M 31.8 385.58 
L 507.684129 385.58 
" style="fill:none;stroke:#ffffff;stroke-linecap:round;"/>
     </g>
     <g id="line2d_195"/>
     <g id="line2d_196"/>
     <g id="text_33">
      <!-- 0.8 -->
      <g style="fill:#262626;" transform="translate(10.9 388.1659375)scale(0.1 -0.1)">
       <use xlink:href="#LiberationSans-30"/>
       <use x="55.615234375" xlink:href="#LiberationSans-2e"/>
       <use x="83.3984375" xlink:href="#LiberationSans-38"/>
      </g>
     </g>
    </g>
    <g id="ytick_30">
     <g id="line2d_197">
      <path clip-path="url(#pbb3542733b)" d="M 31.8 371.933333 
L 507.684129 371.933333 
" style="fill:none;stroke:#ffffff;stroke-linecap:round;"/>
     </g>
     <g id="line2d_198"/>
     <g id="line2d_199"/>
     <g id="text_34">
      <!-- 1.0 -->
      <g style="fill:#262626;" transform="translate(10.9 374.519270833)scale(0.1 -0.1)">
       <use xlink:href="#LiberationSans-31"/>
       <use x="55.615234375" xlink:href="#LiberationSans-2e"/>
       <use x="83.3984375" xlink:href="#LiberationSans-30"/>
      </g>
     </g>
    </g>
    <g id="text_35">
     <!-- $\beta = 0.40$ -->
     <defs>
      <path d="M 2.78125 16.5 
L 2.78125 20.015625 
L 33.6875 66.109375 
Q 34.03125 66.609375 34.71875 66.609375 
L 36.1875 66.609375 
Q 37.3125 66.609375 37.3125 65.484375 
L 37.3125 20.015625 
L 47.125 20.015625 
L 47.125 16.5 
L 37.3125 16.5 
L 37.3125 6.6875 
Q 37.3125 4.640625 40.234375 4.078125 
Q 43.171875 3.515625 47.015625 3.515625 
L 47.015625 0 
L 19.484375 0 
L 19.484375 3.515625 
Q 23.34375 3.515625 26.265625 4.078125 
Q 29.203125 4.640625 29.203125 6.6875 
L 29.203125 16.5 
z
M 6.109375 20.015625 
L 29.78125 20.015625 
L 29.78125 55.421875 
z
" id="Cmr10-34"/>
     </defs>
     <g style="fill:#262626;" transform="translate(515.44601793 409.372291667)scale(0.14 -0.14)">
      <use transform="translate(0.0 0.484375)" xlink:href="#Cmmi10-af"/>
      <use transform="translate(74.052734375 0.484375)" xlink:href="#Cmr10-3d"/>
      <use transform="translate(169.296875 0.484375)" xlink:href="#Cmr10-30"/>
      <use transform="translate(219.296875 0.484375)" xlink:href="#Cmmi10-3a"/>
      <use transform="translate(264.541015625 0.484375)" xlink:href="#Cmr10-34"/>
      <use transform="translate(314.541015625 0.484375)" xlink:href="#Cmr10-30"/>
     </g>
    </g>
   </g>
   <g id="line2d_200">
    <path clip-path="url(#pbb3542733b)" d="M 31.8 440.166075 
L 62.887908 440.078263 
L 72.453418 439.86335 
L 79.627551 439.471309 
L 84.410306 439.011169 
L 89.193061 438.314787 
L 93.975816 437.304209 
L 98.758571 435.899417 
L 101.149948 435.026722 
L 103.541326 434.031314 
L 105.932703 432.909096 
L 108.324081 431.658937 
L 113.106836 428.78855 
L 117.889591 425.490599 
L 125.063724 420.078118 
L 129.846479 416.496877 
L 134.629234 413.268491 
L 137.020611 411.879268 
L 139.411989 410.686234 
L 141.803366 409.719608 
L 144.194744 409.004512 
L 146.586122 408.559885 
L 148.977499 408.397654 
L 151.368877 408.522198 
L 153.760254 408.930153 
L 156.151632 409.610565 
L 158.543009 410.545375 
L 160.934387 411.710219 
L 163.325764 413.07548 
L 168.108519 416.270146 
L 175.282652 421.668678 
L 180.065407 425.261472 
L 184.848162 428.583338 
L 189.630917 431.484827 
L 192.022295 432.751739 
L 194.413672 433.890815 
L 196.80505 434.902748 
L 201.587805 436.56259 
L 206.37056 437.786752 
L 211.153315 438.650973 
L 215.93607 439.235679 
L 220.718825 439.615149 
L 227.892958 439.931697 
L 237.458468 440.100302 
L 258.980866 440.16438 
L 302.025661 440.084279 
L 311.591171 439.874968 
L 318.765304 439.481997 
L 323.548059 439.010911 
L 328.330814 438.285041 
L 333.113569 437.212172 
L 335.504947 436.514386 
L 337.896324 435.692463 
L 340.287702 434.734939 
L 342.679079 433.631888 
L 345.070457 432.375644 
L 347.461834 430.961564 
L 349.853212 429.388783 
L 352.244589 427.660938 
L 357.027344 423.780704 
L 361.810099 419.459651 
L 371.37561 410.500842 
L 373.766987 408.436834 
L 376.158365 406.534892 
L 378.549742 404.840018 
L 380.94112 403.393947 
L 383.332497 402.233447 
L 385.723875 401.388764 
L 388.115252 400.882317 
L 390.50663 400.727704 
L 392.898007 400.929103 
L 395.289385 401.481075 
L 397.680762 402.368816 
L 400.07214 403.568813 
L 402.463517 405.04988 
L 404.854895 406.774501 
L 407.246273 408.700413 
L 412.029028 412.973617 
L 421.594538 421.947376 
L 426.377293 426.041547 
L 428.76867 427.897122 
L 431.160048 429.604928 
L 433.551425 431.15691 
L 435.942803 432.550064 
L 438.33418 433.785792 
L 440.725558 434.869181 
L 443.116936 435.808237 
L 445.508313 436.613129 
L 450.291068 437.86769 
L 455.073823 438.732199 
L 459.856578 439.30343 
L 464.639333 439.665651 
L 471.813466 439.95967 
L 483.770354 440.127079 
L 507.684129 440.165932 
L 507.684129 440.165932 
" style="fill:none;stroke:#b73779;stroke-linecap:round;stroke-width:1.75;"/>
   </g>
   <g id="patch_23">
    <path d="M 31.8 371.933333 
L 507.684129 371.933333 
" style="fill:none;"/>
   </g>
   <g id="patch_24">
    <path d="M 507.684129 440.166667 
L 507.684129 371.933333 
" style="fill:none;"/>
   </g>
   <g id="patch_25">
    <path d="M 31.8 440.166667 
L 507.684129 440.166667 
" style="fill:none;"/>
   </g>
   <g id="patch_26">
    <path d="M 31.8 440.166667 
L 31.8 371.933333 
" style="fill:none;"/>
   </g>
  </g>
  <g id="axes_6">
   <g id="patch_27">
    <path d="M 31.8 529.2 
L 507.684129 529.2 
L 507.684129 460.966667 
L 31.8 460.966667 
z
" style="fill:#eaeaf2;"/>
   </g>
   <g id="matplotlib.axis_11">
    <g id="xtick_36">
     <g id="line2d_201">
      <path clip-path="url(#p7edd161e3a)" d="M 31.8 529.2 
L 31.8 460.966667 
" style="fill:none;stroke:#ffffff;stroke-linecap:round;"/>
     </g>
     <g id="line2d_202"/>
     <g id="line2d_203"/>
     <g id="text_36">
      <!-- 15 -->
      <defs>
       <path d="M 4.9375 29.6875 
L 4.9375 36.8125 
L 53.515625 36.8125 
L 53.515625 29.6875 
z
" id="LiberationSans-2212"/>
       <path d="M 51.421875 22.40625 
Q 51.421875 17.234375 49.859375 12.9375 
Q 48.296875 8.640625 45.21875 5.53125 
Q 42.140625 2.4375 37.578125 0.71875 
Q 33.015625 -0.984375 27 -0.984375 
Q 21.578125 -0.984375 17.546875 0.28125 
Q 13.53125 1.5625 10.734375 3.78125 
Q 7.953125 6 6.3125 8.984375 
Q 4.6875 11.96875 4 15.375 
L 12.890625 16.40625 
Q 13.421875 14.453125 14.390625 12.625 
Q 15.375 10.796875 17.0625 9.34375 
Q 18.75 7.90625 21.21875 7.046875 
Q 23.6875 6.203125 27.203125 6.203125 
Q 30.609375 6.203125 33.390625 7.25 
Q 36.1875 8.296875 38.15625 10.34375 
Q 40.140625 12.40625 41.203125 15.375 
Q 42.28125 18.359375 42.28125 22.21875 
Q 42.28125 25.390625 41.25 28.046875 
Q 40.234375 30.71875 38.328125 32.640625 
Q 36.421875 34.578125 33.65625 35.640625 
Q 30.90625 36.71875 27.390625 36.71875 
Q 25.203125 36.71875 23.34375 36.328125 
Q 21.484375 35.9375 19.890625 35.25 
Q 18.3125 34.578125 17.015625 33.671875 
Q 15.71875 32.765625 14.59375 31.78125 
L 6 31.78125 
L 8.296875 68.796875 
L 47.40625 68.796875 
L 47.40625 61.328125 
L 16.3125 61.328125 
L 14.984375 39.5 
Q 17.328125 41.3125 20.84375 42.59375 
Q 24.359375 43.890625 29.203125 43.890625 
Q 34.328125 43.890625 38.421875 42.328125 
Q 42.53125 40.765625 45.40625 37.90625 
Q 48.296875 35.0625 49.859375 31.109375 
Q 51.421875 27.15625 51.421875 22.40625 
" id="LiberationSans-35"/>
      </defs>
      <g style="fill:#262626;" transform="translate(23.31875 543.446875)scale(0.1 -0.1)">
       <use xlink:href="#LiberationSans-2212"/>
       <use x="58.3984375" xlink:href="#LiberationSans-31"/>
       <use x="114.013671875" xlink:href="#LiberationSans-35"/>
      </g>
     </g>
    </g>
    <g id="xtick_37">
     <g id="line2d_204">
      <path clip-path="url(#p7edd161e3a)" d="M 111.114021 529.2 
L 111.114021 460.966667 
" style="fill:none;stroke:#ffffff;stroke-linecap:round;"/>
     </g>
     <g id="line2d_205"/>
     <g id="line2d_206"/>
     <g id="text_37">
      <!-- 10 -->
      <g style="fill:#262626;" transform="translate(102.632771484 543.446875)scale(0.1 -0.1)">
       <use xlink:href="#LiberationSans-2212"/>
       <use x="58.3984375" xlink:href="#LiberationSans-31"/>
       <use x="114.013671875" xlink:href="#LiberationSans-30"/>
      </g>
     </g>
    </g>
    <g id="xtick_38">
     <g id="line2d_207">
      <path clip-path="url(#p7edd161e3a)" d="M 190.428043 529.2 
L 190.428043 460.966667 
" style="fill:none;stroke:#ffffff;stroke-linecap:round;"/>
     </g>
     <g id="line2d_208"/>
     <g id="line2d_209"/>
     <g id="text_38">
      <!-- 5 -->
      <g style="fill:#262626;" transform="translate(184.727261719 543.446875)scale(0.1 -0.1)">
       <use xlink:href="#LiberationSans-2212"/>
       <use x="58.3984375" xlink:href="#LiberationSans-35"/>
      </g>
     </g>
    </g>
    <g id="xtick_39">
     <g id="line2d_210">
      <path clip-path="url(#p7edd161e3a)" d="M 269.742064 529.2 
L 269.742064 460.966667 
" style="fill:none;stroke:#ffffff;stroke-linecap:round;"/>
     </g>
     <g id="line2d_211"/>
     <g id="line2d_212"/>
     <g id="text_39">
      <!-- 0 -->
      <g style="fill:#262626;" transform="translate(266.961595703 543.446875)scale(0.1 -0.1)">
       <use xlink:href="#LiberationSans-30"/>
      </g>
     </g>
    </g>
    <g id="xtick_40">
     <g id="line2d_213">
      <path clip-path="url(#p7edd161e3a)" d="M 349.056086 529.2 
L 349.056086 460.966667 
" style="fill:none;stroke:#ffffff;stroke-linecap:round;"/>
     </g>
     <g id="line2d_214"/>
     <g id="line2d_215"/>
     <g id="text_40">
      <!-- 5 -->
      <g style="fill:#262626;" transform="translate(346.275617187 543.446875)scale(0.1 -0.1)">
       <use xlink:href="#LiberationSans-35"/>
      </g>
     </g>
    </g>
    <g id="xtick_41">
     <g id="line2d_216">
      <path clip-path="url(#p7edd161e3a)" d="M 428.370107 529.2 
L 428.370107 460.966667 
" style="fill:none;stroke:#ffffff;stroke-linecap:round;"/>
     </g>
     <g id="line2d_217"/>
     <g id="line2d_218"/>
     <g id="text_41">
      <!-- 10 -->
      <g style="fill:#262626;" transform="translate(422.809169922 543.446875)scale(0.1 -0.1)">
       <use xlink:href="#LiberationSans-31"/>
       <use x="55.615234375" xlink:href="#LiberationSans-30"/>
      </g>
     </g>
    </g>
    <g id="xtick_42">
     <g id="line2d_219">
      <path clip-path="url(#p7edd161e3a)" d="M 507.684129 529.2 
L 507.684129 460.966667 
" style="fill:none;stroke:#ffffff;stroke-linecap:round;"/>
     </g>
     <g id="line2d_220"/>
     <g id="line2d_221"/>
     <g id="text_42">
      <!-- 15 -->
      <g style="fill:#262626;" transform="translate(502.123191406 543.446875)scale(0.1 -0.1)">
       <use xlink:href="#LiberationSans-31"/>
       <use x="55.615234375" xlink:href="#LiberationSans-35"/>
      </g>
     </g>
    </g>
    <g id="text_43">
     <!-- $x$ -->
     <defs>
      <path d="M 7.8125 2.875 
Q 9.578125 1.515625 12.796875 1.515625 
Q 15.921875 1.515625 18.3125 4.515625 
Q 20.703125 7.515625 21.578125 11.078125 
L 26.125 28.8125 
Q 27.203125 33.640625 27.203125 35.40625 
Q 27.203125 37.890625 25.8125 39.75 
Q 24.421875 41.609375 21.921875 41.609375 
Q 18.75 41.609375 15.96875 39.625 
Q 13.1875 37.640625 11.28125 34.59375 
Q 9.375 31.546875 8.59375 28.421875 
Q 8.40625 27.78125 7.8125 27.78125 
L 6.59375 27.78125 
Q 5.8125 27.78125 5.8125 28.71875 
L 5.8125 29 
Q 6.78125 32.71875 9.125 36.25 
Q 11.46875 39.796875 14.859375 41.984375 
Q 18.265625 44.1875 22.125 44.1875 
Q 25.78125 44.1875 28.734375 42.234375 
Q 31.6875 40.28125 32.90625 36.921875 
Q 34.625 39.984375 37.28125 42.078125 
Q 39.9375 44.1875 43.109375 44.1875 
Q 45.265625 44.1875 47.5 43.421875 
Q 49.75 42.671875 51.171875 41.109375 
Q 52.59375 39.546875 52.59375 37.203125 
Q 52.59375 34.671875 50.953125 32.828125 
Q 49.3125 31 46.78125 31 
Q 45.171875 31 44.09375 32.03125 
Q 43.015625 33.0625 43.015625 34.625 
Q 43.015625 36.71875 44.453125 38.296875 
Q 45.90625 39.890625 47.90625 40.1875 
Q 46.09375 41.609375 42.921875 41.609375 
Q 39.703125 41.609375 37.328125 38.625 
Q 34.96875 35.640625 33.984375 31.984375 
L 29.59375 14.3125 
Q 28.515625 10.296875 28.515625 7.71875 
Q 28.515625 5.171875 29.953125 3.34375 
Q 31.390625 1.515625 33.796875 1.515625 
Q 38.484375 1.515625 42.15625 5.640625 
Q 45.84375 9.765625 47.015625 14.703125 
Q 47.21875 15.28125 47.796875 15.28125 
L 49.03125 15.28125 
Q 49.421875 15.28125 49.65625 15.015625 
Q 49.90625 14.75 49.90625 14.40625 
Q 49.90625 14.3125 49.8125 14.109375 
Q 48.390625 8.15625 43.84375 3.515625 
Q 39.3125 -1.125 33.59375 -1.125 
Q 29.9375 -1.125 26.984375 0.84375 
Q 24.03125 2.828125 22.796875 6.203125 
Q 21.234375 3.265625 18.46875 1.0625 
Q 15.71875 -1.125 12.59375 -1.125 
Q 10.453125 -1.125 8.171875 -0.359375 
Q 5.90625 0.390625 4.484375 1.953125 
Q 3.078125 3.515625 3.078125 5.90625 
Q 3.078125 8.25 4.703125 10.171875 
Q 6.34375 12.109375 8.796875 12.109375 
Q 10.453125 12.109375 11.578125 11.109375 
Q 12.703125 10.109375 12.703125 8.5 
Q 12.703125 6.390625 11.296875 4.828125 
Q 9.90625 3.265625 7.8125 2.875 
" id="Cmmi10-78"/>
     </defs>
     <g style="fill:#262626;" transform="translate(265.682064453 560.6675)scale(0.14 -0.14)">
      <use transform="translate(0.0 0.8125)" xlink:href="#Cmmi10-78"/>
     </g>
    </g>
   </g>
   <g id="matplotlib.axis_12">
    <g id="ytick_31">
     <g id="line2d_222">
      <path clip-path="url(#p7edd161e3a)" d="M 31.8 529.2 
L 507.684129 529.2 
" style="fill:none;stroke:#ffffff;stroke-linecap:round;"/>
     </g>
     <g id="line2d_223"/>
     <g id="line2d_224"/>
     <g id="text_44">
      <!-- 0.0 -->
      <g style="fill:#262626;" transform="translate(10.9 531.7859375)scale(0.1 -0.1)">
       <use xlink:href="#LiberationSans-30"/>
       <use x="55.615234375" xlink:href="#LiberationSans-2e"/>
       <use x="83.3984375" xlink:href="#LiberationSans-30"/>
      </g>
     </g>
    </g>
    <g id="ytick_32">
     <g id="line2d_225">
      <path clip-path="url(#p7edd161e3a)" d="M 31.8 515.553333 
L 507.684129 515.553333 
" style="fill:none;stroke:#ffffff;stroke-linecap:round;"/>
     </g>
     <g id="line2d_226"/>
     <g id="line2d_227"/>
     <g id="text_45">
      <!-- 0.2 -->
      <g style="fill:#262626;" transform="translate(10.9 518.139270833)scale(0.1 -0.1)">
       <use xlink:href="#LiberationSans-30"/>
       <use x="55.615234375" xlink:href="#LiberationSans-2e"/>
       <use x="83.3984375" xlink:href="#LiberationSans-32"/>
      </g>
     </g>
    </g>
    <g id="ytick_33">
     <g id="line2d_228">
      <path clip-path="url(#p7edd161e3a)" d="M 31.8 501.906667 
L 507.684129 501.906667 
" style="fill:none;stroke:#ffffff;stroke-linecap:round;"/>
     </g>
     <g id="line2d_229"/>
     <g id="line2d_230"/>
     <g id="text_46">
      <!-- 0.4 -->
      <g style="fill:#262626;" transform="translate(10.9 504.492604167)scale(0.1 -0.1)">
       <use xlink:href="#LiberationSans-30"/>
       <use x="55.615234375" xlink:href="#LiberationSans-2e"/>
       <use x="83.3984375" xlink:href="#LiberationSans-34"/>
      </g>
     </g>
    </g>
    <g id="ytick_34">
     <g id="line2d_231">
      <path clip-path="url(#p7edd161e3a)" d="M 31.8 488.26 
L 507.684129 488.26 
" style="fill:none;stroke:#ffffff;stroke-linecap:round;"/>
     </g>
     <g id="line2d_232"/>
     <g id="line2d_233"/>
     <g id="text_47">
      <!-- 0.6 -->
      <g style="fill:#262626;" transform="translate(10.9 490.8459375)scale(0.1 -0.1)">
       <use xlink:href="#LiberationSans-30"/>
       <use x="55.615234375" xlink:href="#LiberationSans-2e"/>
       <use x="83.3984375" xlink:href="#LiberationSans-36"/>
      </g>
     </g>
    </g>
    <g id="ytick_35">
     <g id="line2d_234">
      <path clip-path="url(#p7edd161e3a)" d="M 31.8 474.613333 
L 507.684129 474.613333 
" style="fill:none;stroke:#ffffff;stroke-linecap:round;"/>
     </g>
     <g id="line2d_235"/>
     <g id="line2d_236"/>
     <g id="text_48">
      <!-- 0.8 -->
      <g style="fill:#262626;" transform="translate(10.9 477.199270833)scale(0.1 -0.1)">
       <use xlink:href="#LiberationSans-30"/>
       <use x="55.615234375" xlink:href="#LiberationSans-2e"/>
       <use x="83.3984375" xlink:href="#LiberationSans-38"/>
      </g>
     </g>
    </g>
    <g id="ytick_36">
     <g id="line2d_237">
      <path clip-path="url(#p7edd161e3a)" d="M 31.8 460.966667 
L 507.684129 460.966667 
" style="fill:none;stroke:#ffffff;stroke-linecap:round;"/>
     </g>
     <g id="line2d_238"/>
     <g id="line2d_239"/>
     <g id="text_49">
      <!-- 1.0 -->
      <g style="fill:#262626;" transform="translate(10.9 463.552604167)scale(0.1 -0.1)">
       <use xlink:href="#LiberationSans-31"/>
       <use x="55.615234375" xlink:href="#LiberationSans-2e"/>
       <use x="83.3984375" xlink:href="#LiberationSans-30"/>
      </g>
     </g>
    </g>
    <g id="text_50">
     <!-- $\beta = 1.00$ -->
     <g style="fill:#262626;" transform="translate(515.44601793 498.405625)scale(0.14 -0.14)">
      <use transform="translate(0.0 0.484375)" xlink:href="#Cmmi10-af"/>
      <use transform="translate(74.052734375 0.484375)" xlink:href="#Cmr10-3d"/>
      <use transform="translate(169.296875 0.484375)" xlink:href="#Cmr10-31"/>
      <use transform="translate(219.296875 0.484375)" xlink:href="#Cmmi10-3a"/>
      <use transform="translate(264.541015625 0.484375)" xlink:href="#Cmr10-30"/>
      <use transform="translate(314.541015625 0.484375)" xlink:href="#Cmr10-30"/>
     </g>
    </g>
   </g>
   <g id="line2d_240">
    <path clip-path="url(#p7edd161e3a)" d="M 31.8 529.2 
L 101.149948 529.096949 
L 108.324081 528.83458 
L 113.106836 528.441537 
L 117.889591 527.762537 
L 122.672346 526.712412 
L 127.455101 525.269208 
L 132.237856 523.528456 
L 137.020611 521.727908 
L 141.803366 520.211176 
L 144.194744 519.671423 
L 146.586122 519.326226 
L 148.977499 519.198429 
L 151.368877 519.296627 
L 153.760254 519.614207 
L 156.151632 520.130093 
L 158.543009 520.811051 
L 163.325764 522.496421 
L 170.499897 525.161874 
L 175.282652 526.629141 
L 180.065407 527.705498 
L 184.848162 528.406706 
L 189.630917 528.815504 
L 196.80505 529.090591 
L 208.761937 529.191451 
L 282.894641 529.2 
L 337.896324 529.127267 
L 345.070457 528.907053 
L 349.853212 528.53807 
L 354.635967 527.834301 
L 357.027344 527.304075 
L 359.418722 526.627134 
L 361.810099 525.786946 
L 364.201477 524.774126 
L 366.592855 523.589715 
L 371.37561 520.779335 
L 378.549742 516.142412 
L 380.94112 514.757967 
L 383.332497 513.58566 
L 385.723875 512.697535 
L 388.115252 512.150802 
L 390.50663 511.98175 
L 392.898007 512.20176 
L 395.289385 512.796034 
L 397.680762 513.725249 
L 400.07214 514.929855 
L 404.854895 517.864841 
L 409.63765 520.978586 
L 412.029028 522.432928 
L 414.420405 523.755161 
L 416.811783 524.917482 
L 419.20316 525.907367 
L 421.594538 526.72533 
L 423.985915 527.381885 
L 426.377293 527.894265 
L 431.160048 528.57091 
L 435.942803 528.923249 
L 443.116936 529.131903 
L 457.465201 529.197768 
L 507.684129 529.2 
L 507.684129 529.2 
" style="fill:none;stroke:#000004;stroke-linecap:round;stroke-width:1.75;"/>
   </g>
   <g id="patch_28">
    <path d="M 31.8 460.966667 
L 507.684129 460.966667 
" style="fill:none;"/>
   </g>
   <g id="patch_29">
    <path d="M 507.684129 529.2 
L 507.684129 460.966667 
" style="fill:none;"/>
   </g>
   <g id="patch_30">
    <path d="M 31.8 529.2 
L 507.684129 529.2 
" style="fill:none;"/>
   </g>
   <g id="patch_31">
    <path d="M 31.8 529.2 
L 31.8 460.966667 
" style="fill:none;"/>
   </g>
  </g>
 </g>
 <defs>
  <clipPath id="pa195a67167">
   <rect height="68.2333333333" width="475.884128906" x="31.8" y="104.833333333"/>
  </clipPath>
  <clipPath id="p7edd161e3a">
   <rect height="68.2333333333" width="475.884128906" x="31.8" y="460.966666667"/>
  </clipPath>
  <clipPath id="p6226f83d4a">
   <rect height="68.2333333333" width="475.884128906" x="31.8" y="282.9"/>
  </clipPath>
  <clipPath id="pb355fc21de">
   <rect height="68.2333333333" width="475.884128906" x="31.8" y="15.8"/>
  </clipPath>
  <clipPath id="p808240d6b7">
   <rect height="68.2333333333" width="475.884128906" x="31.8" y="193.866666667"/>
  </clipPath>
  <clipPath id="pbb3542733b">
   <rect height="68.2333333333" width="475.884128906" x="31.8" y="371.933333333"/>
  </clipPath>
 </defs>
</svg>
