<?xml version="1.0" encoding="UTF-8" standalone="no"?>
<!-- Created with matplotlib (http://matplotlib.org/) -->

<svg
   xmlns:dc="http://purl.org/dc/elements/1.1/"
   xmlns:cc="http://creativecommons.org/ns#"
   xmlns:rdf="http://www.w3.org/1999/02/22-rdf-syntax-ns#"
   xmlns:svg="http://www.w3.org/2000/svg"
   xmlns="http://www.w3.org/2000/svg"
   xmlns:xlink="http://www.w3.org/1999/xlink"
   xmlns:sodipodi="http://sodipodi.sourceforge.net/DTD/sodipodi-0.dtd"
   xmlns:inkscape="http://www.inkscape.org/namespaces/inkscape"
   height="576pt"
   version="1.1"
   viewBox="0 0 576 576"
   width="576pt"
   id="svg7181"
   inkscape:version="0.91 r13725"
   sodipodi:docname="geometric-bridge-beta-ensemble-simplified.svg">
  <metadata
     id="metadata8124">
    <rdf:RDF>
      <cc:Work
         rdf:about="">
        <dc:format>image/svg+xml</dc:format>
        <dc:type
           rdf:resource="http://purl.org/dc/dcmitype/StillImage" />
        <dc:title></dc:title>
      </cc:Work>
    </rdf:RDF>
  </metadata>
  <sodipodi:namedview
     pagecolor="#ffffff"
     bordercolor="#666666"
     borderopacity="1"
     objecttolerance="10"
     gridtolerance="10"
     guidetolerance="10"
     inkscape:pageopacity="0"
     inkscape:pageshadow="2"
     inkscape:window-width="1680"
     inkscape:window-height="1004"
     id="namedview8122"
     showgrid="false"
     inkscape:zoom="0.23177389"
     inkscape:cx="1279.1807"
     inkscape:cy="665.4416"
     inkscape:window-x="1366"
     inkscape:window-y="0"
     inkscape:window-maximized="1"
     inkscape:current-layer="svg7181" />
  <defs
     id="defs7183">
    <style
       type="text/css"
       id="style7185">
*{stroke-linecap:butt;stroke-linejoin:round;stroke-miterlimit:100000;}
  </style>
  </defs>
  <g
     id="g13631">
    <path
       inkscape:connector-curvature="0"
       id="path7189"
       style="fill:#ffffff;stroke-linecap:butt;stroke-linejoin:round;stroke-miterlimit:100000"
       d="M 0,576 576,576 576,0 0,0 Z" />
    <g
       id="text_5"
       style="stroke-linecap:butt;stroke-linejoin:round;stroke-miterlimit:100000">
      <!-- $\beta = 0.0$ -->
      <defs
         id="defs7313">
        <path
           d="m 2.6875,-19.390625 q -0.296875,0 -0.546875,0.34375 -0.234375,0.34375 -0.234375,0.640625 l 15.375,61.8125 q 1.328125,4.984375 3.859375,9.671875 2.546875,4.6875 6.375,8.71875 3.828125,4.03125 8.421875,6.375 4.59375,2.34375 9.765625,2.34375 3.71875,0 6.71875,-1.640625 3,-1.640625 4.734375,-4.59375 1.734375,-2.953125 1.734375,-6.65625 0,-3.578125 -1.375,-6.828125 Q 56.15625,47.5625 53.703125,44.75 q -2.4375,-2.8125 -5.21875,-4.5625 1.609375,-1.03125 2.875,-2.625 1.28125,-1.578125 2.0625,-3.3125 0.78125,-1.734375 1.21875,-3.859375 0.4375,-2.125 0.4375,-3.96875 0,-5.125 -2.203125,-10.109375 Q 50.6875,11.328125 46.890625,7.265625 43.109375,3.21875 38.21875,0.84375 q -4.875,-2.359375 -10,-2.359375 -5.609375,0 -10.109375,3.078125 -4.484375,3.078125 -6.1875,8.34375 L 4.6875,-18.796875 q 0,-0.59375 -0.78125,-0.59375 z M 28.421875,1.21875 q 4.484375,0 8.125,2.953125 3.640625,2.953125 6,7.421875 2.375,4.46875 3.609375,9.46875 1.25,5.015625 1.25,9.109375 0,5.078125 -2.921875,8.015625 -3.421875,-1.265625 -6.6875,-1.265625 -7.90625,0 -7.90625,2.671875 0,3.515625 9.03125,3.515625 3.21875,0 5.90625,-1.015625 2.140625,1.65625 3.890625,4.875 1.765625,3.234375 2.671875,6.75 0.90625,3.515625 0.90625,6.578125 0,3.28125 -1.734375,5.453125 -1.734375,2.171875 -5.046875,2.171875 -6.109375,0 -11.359375,-3.765625 -5.25,-3.75 -8.859375,-9.5 Q 21.6875,48.921875 20.125,42.828125 l -5.53125,-22.125 q -0.53125,-2.296875 -0.671875,-5.125 0,-6.25 4.09375,-10.3125 Q 22.125,1.21875 28.421875,1.21875 M 32.90625,39.890625 Q 34.421875,39.5 37.890625,39.5 q 1.703125,0 3.421875,0.59375 -0.09375,0.09375 -0.390625,0.09375 -1.078125,0.296875 -2.296875,0.296875 -4.546875,0 -5.71875,-0.59375"
           id="Cmmi10-af"
           inkscape:connector-curvature="0"
           style="stroke-linecap:butt;stroke-linejoin:round;stroke-miterlimit:100000" />
        <path
           d="M 25,-2.203125 Q 12.75,-2.203125 8.328125,7.875 3.90625,17.96875 3.90625,31.890625 q 0,8.6875 1.578125,16.34375 Q 7.078125,55.90625 11.78125,61.25 16.5,66.609375 25,66.609375 q 6.59375,0 10.78125,-3.234375 4.203125,-3.21875 6.40625,-8.328125 2.203125,-5.09375 3,-10.9375 Q 46,38.28125 46,31.890625 q 0,-8.59375 -1.59375,-16.09375 -1.578125,-7.5 -6.21875,-12.75 -4.640625,-5.25 -13.1875,-5.25 m 0,2.59375 q 5.5625,0 8.296875,5.703125 2.734375,5.71875 3.375,12.65625 0.640625,6.9375 0.640625,14.75 0,7.515625 -0.640625,13.859375 -0.640625,6.359375 -3.359375,11.5 -2.703125,5.15625 -8.3125,5.15625 -5.65625,0 -8.390625,-5.1875 -2.734375,-5.171875 -3.375,-11.5 Q 12.59375,41.015625 12.59375,33.5 q 0,-5.5625 0.265625,-10.5 0.28125,-4.9375 1.453125,-10.1875 1.171875,-5.25 3.78125,-8.84375 Q 20.703125,0.390625 25,0.390625"
           id="Cmr10-30"
           inkscape:connector-curvature="0"
           style="stroke-linecap:butt;stroke-linejoin:round;stroke-miterlimit:100000" />
        <path
           d="m 8.40625,5.515625 q 0,2.25 1.65625,3.859375 1.65625,1.609375 3.859375,1.609375 1.359375,0 2.671875,-0.734375 1.328125,-0.734375 2.0625,-2.046875 0.734375,-1.3125 0.734375,-2.6875 0,-2.1875 -1.625,-3.859375 Q 16.15625,0 13.921875,0 11.71875,0 10.0625,1.65625 8.40625,3.328125 8.40625,5.515625"
           id="Cmmi10-3a"
           inkscape:connector-curvature="0"
           style="stroke-linecap:butt;stroke-linejoin:round;stroke-miterlimit:100000" />
        <path
           d="m 7.515625,13.28125 q -0.828125,0 -1.375,0.625 -0.53125,0.640625 -0.53125,1.375 0,0.828125 0.53125,1.40625 0.546875,0.59375 1.375,0.59375 l 62.796875,0 q 0.734375,0 1.265625,-0.59375 0.546875,-0.578125 0.546875,-1.40625 0,-0.734375 -0.546875,-1.375 -0.53125,-0.625 -1.265625,-0.625 z m 0,19.4375 q -0.828125,0 -1.375,0.578125 -0.53125,0.59375 -0.53125,1.421875 0,0.734375 0.53125,1.359375 0.546875,0.640625 1.375,0.640625 l 62.796875,0 q 0.734375,0 1.265625,-0.640625 0.546875,-0.625 0.546875,-1.359375 0,-0.828125 -0.546875,-1.421875 Q 71.046875,32.71875 70.3125,32.71875 Z"
           id="Cmr10-3d"
           inkscape:connector-curvature="0"
           style="stroke-linecap:butt;stroke-linejoin:round;stroke-miterlimit:100000" />
      </defs>
      <g
         style="fill:#262626;stroke-linecap:butt;stroke-linejoin:round;stroke-miterlimit:100000"
         transform="matrix(0.14,0,0,-0.14,522.62414,53.238958)"
         id="g7319">
        <use
           transform="translate(0,0.484375)"
           xlink:href="#Cmmi10-af"
           id="use7321"
           style="stroke-linecap:butt;stroke-linejoin:round;stroke-miterlimit:100000"
           x="0"
           y="0"
           width="100%"
           height="100%" />
        <use
           transform="translate(74.052734,0.484375)"
           xlink:href="#Cmr10-3d"
           id="use7323"
           style="stroke-linecap:butt;stroke-linejoin:round;stroke-miterlimit:100000"
           x="0"
           y="0"
           width="100%"
           height="100%" />
        <use
           transform="translate(169.29687,0.484375)"
           xlink:href="#Cmr10-30"
           id="use7325"
           style="stroke-linecap:butt;stroke-linejoin:round;stroke-miterlimit:100000"
           x="0"
           y="0"
           width="100%"
           height="100%" />
        <use
           transform="translate(219.29687,0.484375)"
           xlink:href="#Cmmi10-3a"
           id="use7327"
           style="stroke-linecap:butt;stroke-linejoin:round;stroke-miterlimit:100000"
           x="0"
           y="0"
           width="100%"
           height="100%" />
        <use
           transform="translate(264.54102,0.484375)"
           xlink:href="#Cmr10-30"
           id="use7329"
           style="stroke-linecap:butt;stroke-linejoin:round;stroke-miterlimit:100000"
           x="0"
           y="0"
           width="100%"
           height="100%" />
      </g>
    </g>
    <path
       clip-path="url(#pce95deebca)"
       d="m 31.8,83.162077 26.495165,-0.551364 24.086514,-0.704257 24.086511,-0.923591 24.08652,-1.146747 26.49516,-1.485965 86.71145,-5.102615 19.26921,-0.774159 16.86056,-0.45803 16.86056,-0.224589 16.86056,0.02234 16.86056,0.267927 16.86056,0.497452 19.26922,0.811652 21.67786,1.150871 33.72112,2.061536 43.35572,2.618072 26.49517,1.358493 19.26921,0.824611 0,0"
       style="fill:none;stroke:#feb078;stroke-width:1.75;stroke-linecap:round;stroke-linejoin:round;stroke-miterlimit:100000"
       id="path7332"
       inkscape:connector-curvature="0" />
    <g
       id="text_10"
       style="stroke-linecap:butt;stroke-linejoin:round;stroke-miterlimit:100000">
      <!-- $\beta = 0.2$ -->
      <defs
         id="defs7455">
        <path
           d="m 4.984375,0 0,2.6875 q 0,0.25 0.1875,0.53125 l 15.53125,17.1875 q 3.515625,3.8125 5.703125,6.390625 2.203125,2.59375 4.34375,5.96875 2.15625,3.375 3.40625,6.859375 1.25,3.484375 1.25,7.390625 0,4.109375 -1.515625,7.84375 Q 32.375,58.59375 29.375,60.84375 q -3,2.25 -7.25,2.25 -4.34375,0 -7.8125,-2.625 -3.46875,-2.609375 -4.890625,-6.75 Q 9.8125,53.8125 10.5,53.8125 q 2.25,0 3.828125,-1.515625 1.59375,-1.515625 1.59375,-3.90625 0,-2.296875 -1.59375,-3.890625 Q 12.75,42.921875 10.5,42.921875 q -2.34375,0 -3.9375,1.625 -1.578125,1.640625 -1.578125,3.84375 0,3.765625 1.40625,7.046875 1.421875,3.296875 4.078125,5.859375 2.671875,2.578125 6.015625,3.9375 3.34375,1.375 7.09375,1.375 5.71875,0 10.640625,-2.421875 4.9375,-2.421875 7.8125,-6.84375 2.890625,-4.40625 2.890625,-10.328125 0,-4.34375 -1.90625,-8.25 -1.90625,-3.90625 -4.890625,-7.109375 -2.96875,-3.1875 -7.609375,-7.25 Q 25.875,20.359375 24.421875,19 L 13.09375,8.109375 l 9.609375,0 q 7.078125,0 11.84375,0.109375 4.765625,0.125 5.046875,0.375 Q 40.765625,9.859375 42,17.828125 l 2.921875,0 L 42.09375,0 Z"
           id="Cmr10-32"
           inkscape:connector-curvature="0"
           style="stroke-linecap:butt;stroke-linejoin:round;stroke-miterlimit:100000" />
      </defs>
      <g
         style="fill:#262626;stroke-linecap:butt;stroke-linejoin:round;stroke-miterlimit:100000"
         transform="matrix(0.14,0,0,-0.14,522.62414,142.27229)"
         id="g7458">
        <use
           transform="translate(0,0.484375)"
           xlink:href="#Cmmi10-af"
           id="use7460"
           style="stroke-linecap:butt;stroke-linejoin:round;stroke-miterlimit:100000"
           x="0"
           y="0"
           width="100%"
           height="100%" />
        <use
           transform="translate(74.052734,0.484375)"
           xlink:href="#Cmr10-3d"
           id="use7462"
           style="stroke-linecap:butt;stroke-linejoin:round;stroke-miterlimit:100000"
           x="0"
           y="0"
           width="100%"
           height="100%" />
        <use
           transform="translate(169.29687,0.484375)"
           xlink:href="#Cmr10-30"
           id="use7464"
           style="stroke-linecap:butt;stroke-linejoin:round;stroke-miterlimit:100000"
           x="0"
           y="0"
           width="100%"
           height="100%" />
        <use
           transform="translate(219.29687,0.484375)"
           xlink:href="#Cmmi10-3a"
           id="use7466"
           style="stroke-linecap:butt;stroke-linejoin:round;stroke-miterlimit:100000"
           x="0"
           y="0"
           width="100%"
           height="100%" />
        <use
           transform="translate(264.54102,0.484375)"
           xlink:href="#Cmr10-32"
           id="use7468"
           style="stroke-linecap:butt;stroke-linejoin:round;stroke-miterlimit:100000"
           x="0"
           y="0"
           width="100%"
           height="100%" />
      </g>
    </g>
    <path
       clip-path="url(#p13123721d8)"
       d="m 31.8,173.05907 28.903817,-0.11421 14.451908,-0.25303 9.634606,-0.34449 9.634605,-0.55746 9.634604,-0.81936 9.63461,-1.08683 12.04325,-1.62471 12.04326,-1.62042 7.22596,-0.78882 7.22595,-0.53764 4.8173,-0.1845 4.81731,-0.0318 4.8173,0.12264 7.22595,0.45586 7.22596,0.72842 9.6346,1.24387 19.26921,2.58297 9.63461,1.01123 9.6346,0.73903 9.63461,0.48848 12.04326,0.3441 14.45191,0.17448 14.4519,-0.0308 14.45191,-0.259 9.63461,-0.38245 7.22595,-0.46523 7.22596,-0.6684 7.22595,-0.90994 7.22595,-1.17104 7.22596,-1.41984 9.6346,-2.1788 14.45191,-3.31291 4.81731,-0.93013 4.8173,-0.76199 4.8173,-0.55263 4.8173,-0.31223 4.81731,-0.0539 4.8173,0.20755 4.8173,0.45701 4.81731,0.68054 4.8173,0.86661 7.22595,1.54786 21.67787,4.92826 7.22595,1.32606 7.22595,1.06784 7.22596,0.81135 7.22595,0.58335 9.63461,0.49699 12.04326,0.31692 16.86055,0.15615 7.22596,0.0221 0,0"
       style="fill:none;stroke:#f1605d;stroke-width:1.75;stroke-linecap:round;stroke-linejoin:round;stroke-miterlimit:100000"
       id="path7471"
       inkscape:connector-curvature="0" />
    <g
       id="text_15"
       style="stroke-linecap:butt;stroke-linejoin:round;stroke-miterlimit:100000">
      <!-- $\beta = 0.4$ -->
      <defs
         id="defs7594">
        <path
           d="m 2.78125,16.5 0,3.515625 30.90625,46.09375 q 0.34375,0.5 1.03125,0.5 l 1.46875,0 q 1.125,0 1.125,-1.125 l 0,-45.46875 9.8125,0 0,-3.515625 -9.8125,0 0,-9.8125 q 0,-2.046875 2.921875,-2.609375 2.9375,-0.5625 6.78125,-0.5625 l 0,-3.515625 -27.53125,0 0,3.515625 q 3.859375,0 6.78125,0.5625 2.9375,0.5625 2.9375,2.609375 l 0,9.8125 z m 3.328125,3.515625 23.671875,0 0,35.40625 z"
           id="Cmr10-34"
           inkscape:connector-curvature="0"
           style="stroke-linecap:butt;stroke-linejoin:round;stroke-miterlimit:100000" />
      </defs>
      <g
         style="fill:#262626;stroke-linecap:butt;stroke-linejoin:round;stroke-miterlimit:100000"
         transform="matrix(0.14,0,0,-0.14,522.62414,231.30562)"
         id="g7597">
        <use
           transform="translate(0,0.484375)"
           xlink:href="#Cmmi10-af"
           id="use7599"
           style="stroke-linecap:butt;stroke-linejoin:round;stroke-miterlimit:100000"
           x="0"
           y="0"
           width="100%"
           height="100%" />
        <use
           transform="translate(74.052734,0.484375)"
           xlink:href="#Cmr10-3d"
           id="use7601"
           style="stroke-linecap:butt;stroke-linejoin:round;stroke-miterlimit:100000"
           x="0"
           y="0"
           width="100%"
           height="100%" />
        <use
           transform="translate(169.29687,0.484375)"
           xlink:href="#Cmr10-30"
           id="use7603"
           style="stroke-linecap:butt;stroke-linejoin:round;stroke-miterlimit:100000"
           x="0"
           y="0"
           width="100%"
           height="100%" />
        <use
           transform="translate(219.29687,0.484375)"
           xlink:href="#Cmmi10-3a"
           id="use7605"
           style="stroke-linecap:butt;stroke-linejoin:round;stroke-miterlimit:100000"
           x="0"
           y="0"
           width="100%"
           height="100%" />
        <use
           transform="translate(264.54102,0.484375)"
           xlink:href="#Cmr10-34"
           id="use7607"
           style="stroke-linecap:butt;stroke-linejoin:round;stroke-miterlimit:100000"
           x="0"
           y="0"
           width="100%"
           height="100%" />
      </g>
    </g>
    <path
       clip-path="url(#p2d8850a0d6)"
       d="m 31.8,262.09993 45.764377,-0.10023 9.634605,-0.20469 7.225954,-0.3317 7.225954,-0.58529 4.8173,-0.57912 4.81731,-0.75623 4.8173,-0.94061 7.22595,-1.71915 16.86056,-4.34527 4.81731,-0.89064 4.8173,-0.55459 4.8173,-0.15895 4.8173,0.25414 4.81731,0.63941 4.8173,0.95658 7.22595,1.81479 12.04326,3.16444 4.8173,1.07404 4.81731,0.8981 4.8173,0.71378 4.8173,0.54063 7.22596,0.53944 7.22595,0.30112 9.63461,0.18278 19.26921,0.0815 55.39898,-0.0584 12.04326,-0.228 7.22595,-0.35621 4.8173,-0.40436 4.81731,-0.59386 4.8173,-0.83439 4.8173,-1.12011 4.8173,-1.43414 4.81731,-1.7471 4.8173,-2.01828 16.86056,-7.51903 2.40865,-0.85152 2.40865,-0.72799 2.40865,-0.5854 2.40866,-0.42709 2.40865,-0.25709 2.40865,-0.08 2.40865,0.0994 2.40865,0.27598 2.40865,0.44493 2.40865,0.60171 2.40866,0.74238 4.8173,1.82684 4.8173,2.13117 9.63461,4.44095 4.8173,2.00541 4.8173,1.73077 4.81731,1.4168 4.8173,1.10366 4.8173,0.82008 4.8173,0.58224 4.81731,0.39553 7.22595,0.34744 9.63461,0.19788 19.26921,0.0806 19.26921,0.005 0,0"
       style="fill:none;stroke:#b73779;stroke-width:1.75;stroke-linecap:round;stroke-linejoin:round;stroke-miterlimit:100000"
       id="path7610"
       inkscape:connector-curvature="0" />
    <g
       id="text_20"
       style="stroke-linecap:butt;stroke-linejoin:round;stroke-miterlimit:100000">
      <!-- $\beta = 0.6$ -->
      <defs
         id="defs7733">
        <path
           d="m 25,-2.203125 q -6.203125,0 -10.359375,3.296875 Q 10.5,4.390625 8.21875,9.640625 q -2.265625,5.25 -3.140625,11.015625 -0.875,5.765625 -0.875,11.671875 0,7.90625 3.078125,15.859375 3.078125,7.96875 9.046875,13.1875 5.984375,5.234375 14.1875,5.234375 3.421875,0 6.375,-1.296875 2.953125,-1.296875 4.640625,-3.8125 1.6875,-2.515625 1.6875,-6.078125 0,-2.046875 -1.390625,-3.4375 Q 40.4375,50.59375 38.375,50.59375 36.421875,50.59375 35,52 q -1.40625,1.421875 -1.40625,3.421875 0,1.953125 1.40625,3.359375 1.421875,1.421875 3.375,1.421875 l 0.546875,0 q -1.28125,1.8125 -3.59375,2.65625 -2.3125,0.859375 -4.8125,0.859375 -3.03125,0 -5.59375,-1.328125 -2.5625,-1.3125 -4.609375,-3.5625 -2.046875,-2.234375 -3.421875,-4.953125 -1.359375,-2.703125 -2.125,-6.171875 -0.75,-3.46875 -0.953125,-6.5 Q 13.625,38.1875 13.625,33.59375 q 1.75,4.109375 4.96875,6.71875 3.234375,2.609375 7.28125,2.609375 4.453125,0 8.109375,-1.8125 3.65625,-1.796875 6.296875,-5 2.640625,-3.203125 4.03125,-7.3125 1.390625,-4.09375 1.390625,-8.28125 0,-5.859375 -2.609375,-11.171875 Q 40.484375,4.046875 35.734375,0.921875 31,-2.203125 25,-2.203125 m 0,3.1875 q 3.859375,0 6.203125,1.75 2.34375,1.765625 3.4375,4.65625 1.109375,2.90625 1.375,5.859375 0.265625,2.96875 0.265625,7.265625 0,5.65625 -0.546875,9.65625 -0.53125,4.015625 -2.921875,7.0625 -2.390625,3.046875 -7.328125,3.046875 -4.046875,0 -6.65625,-2.734375 -2.609375,-2.734375 -3.8125,-6.90625 -1.203125,-4.171875 -1.203125,-8.03125 0,-1.3125 0.109375,-2 0,-0.15625 -0.03125,-0.25 Q 13.875,20.265625 13.8125,20.125 q 0,-4.296875 0.875,-8.703125 Q 15.578125,7.03125 18.0625,4 20.5625,0.984375 25,0.984375"
           id="Cmr10-36"
           inkscape:connector-curvature="0"
           style="stroke-linecap:butt;stroke-linejoin:round;stroke-miterlimit:100000" />
      </defs>
      <g
         style="fill:#262626;stroke-linecap:butt;stroke-linejoin:round;stroke-miterlimit:100000"
         transform="matrix(0.14,0,0,-0.14,522.62414,320.33896)"
         id="g7736">
        <use
           transform="translate(0,0.484375)"
           xlink:href="#Cmmi10-af"
           id="use7738"
           style="stroke-linecap:butt;stroke-linejoin:round;stroke-miterlimit:100000"
           x="0"
           y="0"
           width="100%"
           height="100%" />
        <use
           transform="translate(74.052734,0.484375)"
           xlink:href="#Cmr10-3d"
           id="use7740"
           style="stroke-linecap:butt;stroke-linejoin:round;stroke-miterlimit:100000"
           x="0"
           y="0"
           width="100%"
           height="100%" />
        <use
           transform="translate(169.29687,0.484375)"
           xlink:href="#Cmr10-30"
           id="use7742"
           style="stroke-linecap:butt;stroke-linejoin:round;stroke-miterlimit:100000"
           x="0"
           y="0"
           width="100%"
           height="100%" />
        <use
           transform="translate(219.29687,0.484375)"
           xlink:href="#Cmmi10-3a"
           id="use7744"
           style="stroke-linecap:butt;stroke-linejoin:round;stroke-miterlimit:100000"
           x="0"
           y="0"
           width="100%"
           height="100%" />
        <use
           transform="translate(264.54102,0.484375)"
           xlink:href="#Cmr10-36"
           id="use7746"
           style="stroke-linecap:butt;stroke-linejoin:round;stroke-miterlimit:100000"
           x="0"
           y="0"
           width="100%"
           height="100%" />
      </g>
    </g>
    <path
       clip-path="url(#pcea76d88f6)"
       d="m 31.8,351.13333 52.990331,-0.0763 9.634605,-0.24123 4.817303,-0.27882 4.817301,-0.46351 4.81731,-0.72263 4.8173,-1.05431 4.8173,-1.43544 4.8173,-1.81622 4.81731,-2.12228 9.6346,-4.44255 2.40865,-0.96659 2.40865,-0.83948 2.40866,-0.68081 2.40865,-0.49556 2.40865,-0.29045 2.40865,-0.0735 2.40865,0.14651 2.40865,0.36047 2.40865,0.55981 2.40866,0.73688 4.8173,1.88683 7.22595,3.34795 4.8173,2.19278 4.81731,1.93079 4.8173,1.56572 4.8173,1.17783 4.81731,0.82581 4.8173,0.5414 4.8173,0.33266 7.22596,0.25223 12.04325,0.12232 43.35573,0.0196 52.99033,-0.1022 7.22595,-0.21025 4.81731,-0.30182 4.8173,-0.5285 4.8173,-0.869 2.40865,-0.60278 2.40865,-0.73681 2.40866,-0.88557 2.40865,-1.04615 2.40865,-1.21417 2.40865,-1.38367 2.40865,-1.54732 4.81731,-3.51835 12.04325,-9.52167 2.40865,-1.60139 2.40865,-1.36208 2.40866,-1.07083 2.40865,-0.73735 2.40865,-0.37408 2.40865,0.004 2.40865,0.38288 2.40865,0.74559 2.40865,1.07821 2.40866,1.36834 2.40865,1.60634 4.8173,3.68993 7.22595,5.83571 4.81731,3.51248 2.40865,1.54359 2.40865,1.37973 2.40865,1.21016 2.40865,1.04227 2.40865,0.88192 2.40866,0.73348 2.40865,0.59982 4.8173,0.86425 4.8173,0.52521 4.8173,0.29973 7.22596,0.20861 14.45191,0.0938 36.12977,0.007 0,0"
       style="fill:none;stroke:#721f81;stroke-width:1.75;stroke-linecap:round;stroke-linejoin:round;stroke-miterlimit:100000"
       id="path7749"
       inkscape:connector-curvature="0" />
    <g
       id="text_25"
       style="stroke-linecap:butt;stroke-linejoin:round;stroke-miterlimit:100000">
      <!-- $\beta = 0.8$ -->
      <defs
         id="defs7872">
        <path
           d="m 4.203125,15.1875 q 0,6 3.953125,10.609375 3.953125,4.625 10.15625,7.703125 l -3.71875,2.390625 q -3.40625,2.25 -5.5625,5.984375 -2.140625,3.734375 -2.140625,7.828125 0,4.796875 2.515625,8.640625 2.515625,3.859375 6.6875,6.0625 4.171875,2.203125 8.90625,2.203125 4.4375,0 8.5625,-1.8125 4.140625,-1.8125 6.796875,-5.1875 2.65625,-3.359375 2.65625,-8 0,-3.359375 -1.59375,-6.25 -1.578125,-2.875 -4.34375,-5.171875 -2.75,-2.296875 -5.875,-3.90625 L 36.921875,32.625 Q 40.875,30.03125 43.28125,25.828125 45.703125,21.625 45.703125,17 q 0,-5.421875 -2.90625,-9.875 -2.90625,-4.4375 -7.6875,-6.890625 -4.78125,-2.4375 -10.109375,-2.4375 -5.171875,0 -9.984375,2.109375 -4.8125,2.09375 -7.8125,6.078125 -3,3.984375 -3,9.203125 m 5.421875,0 q 0,-3.953125 2.171875,-7.234375 2.171875,-3.265625 5.734375,-5.125 3.5625,-1.84375 7.46875,-1.84375 5.8125,0 10.546875,3.390625 4.734375,3.390625 4.734375,9 0,1.90625 -0.765625,3.78125 -0.75,1.890625 -2.09375,3.421875 -1.34375,1.546875 -3,2.515625 L 21,31.78125 Q 17.875,30.125 15.25,27.578125 12.640625,25.046875 11.125,21.875 q -1.5,-3.171875 -1.5,-6.6875 m 6.875,30.515625 12.109375,-7.8125 q 4.203125,2.4375 6.890625,5.90625 2.6875,3.46875 2.6875,7.8125 0,3.375 -1.890625,6.171875 -1.875,2.8125 -4.90625,4.375 -3.015625,1.5625 -6.484375,1.5625 -3.03125,0 -6.109375,-1.171875 -3.078125,-1.171875 -5.078125,-3.5 -2,-2.3125 -2,-5.4375 0,-4.6875 4.78125,-7.90625"
           id="Cmr10-38"
           inkscape:connector-curvature="0"
           style="stroke-linecap:butt;stroke-linejoin:round;stroke-miterlimit:100000" />
      </defs>
      <g
         style="fill:#262626;stroke-linecap:butt;stroke-linejoin:round;stroke-miterlimit:100000"
         transform="matrix(0.14,0,0,-0.14,522.62414,409.37229)"
         id="g7875">
        <use
           transform="translate(0,0.484375)"
           xlink:href="#Cmmi10-af"
           id="use7877"
           style="stroke-linecap:butt;stroke-linejoin:round;stroke-miterlimit:100000"
           x="0"
           y="0"
           width="100%"
           height="100%" />
        <use
           transform="translate(74.052734,0.484375)"
           xlink:href="#Cmr10-3d"
           id="use7879"
           style="stroke-linecap:butt;stroke-linejoin:round;stroke-miterlimit:100000"
           x="0"
           y="0"
           width="100%"
           height="100%" />
        <use
           transform="translate(169.29687,0.484375)"
           xlink:href="#Cmr10-30"
           id="use7881"
           style="stroke-linecap:butt;stroke-linejoin:round;stroke-miterlimit:100000"
           x="0"
           y="0"
           width="100%"
           height="100%" />
        <use
           transform="translate(219.29687,0.484375)"
           xlink:href="#Cmmi10-3a"
           id="use7883"
           style="stroke-linecap:butt;stroke-linejoin:round;stroke-miterlimit:100000"
           x="0"
           y="0"
           width="100%"
           height="100%" />
        <use
           transform="translate(264.54102,0.484375)"
           xlink:href="#Cmr10-38"
           id="use7885"
           style="stroke-linecap:butt;stroke-linejoin:round;stroke-miterlimit:100000"
           x="0"
           y="0"
           width="100%"
           height="100%" />
      </g>
    </g>
    <path
       clip-path="url(#pfc23b0cc51)"
       d="m 31.8,440.16667 60.216285,-0.10241 7.225954,-0.25586 4.817301,-0.39533 4.81731,-0.71988 2.40865,-0.53121 2.40865,-0.67336 2.40865,-0.83478 2.40865,-1.0116 2.40865,-1.19745 2.40865,-1.3834 2.40865,-1.55818 4.81731,-3.52969 7.22595,-5.55944 2.40865,-1.64641 2.40865,-1.41545 2.40866,-1.11452 2.40865,-0.75607 2.40865,-0.35742 2.40865,0.0606 2.40865,0.47525 2.40865,0.86434 2.40865,1.2078 2.40866,1.48958 4.8173,3.52957 7.22595,5.54907 2.40865,1.66863 2.40865,1.5097 2.40866,1.33042 2.40865,1.14344 2.40865,0.95939 2.40865,0.78647 2.40865,0.6303 2.40865,0.49412 4.81731,0.66373 4.8173,0.36015 7.22595,0.22992 12.04326,0.0825 86.71145,0.007 21.67786,-0.0921 7.22596,-0.25775 4.8173,-0.4257 2.40865,-0.34768 2.40865,-0.47397 2.40865,-0.63274 2.40866,-0.82696 2.40865,-1.05768 2.40865,-1.32331 2.40865,-1.61877 2.40865,-1.93485 2.40865,-2.25795 2.40866,-2.57018 2.40865,-2.85009 4.8173,-6.29142 4.8173,-6.43757 2.40865,-2.96789 2.40865,-2.62256 2.40866,-2.15047 2.40865,-1.56914 2.40865,-0.90525 2.40865,-0.19268 2.40865,0.53034 2.40865,1.22467 2.40865,1.8537 2.40866,2.38662 2.40865,2.80088 4.8173,6.31582 4.8173,6.41503 2.40865,2.97755 2.40866,2.72441 2.40865,2.42649 2.40865,2.10668 2.40865,1.7849 2.40865,1.47707 2.40865,1.19471 2.40865,0.94502 2.40866,0.7314 2.40865,0.55406 4.8173,0.70952 4.8173,0.36063 7.22596,0.21362 14.4519,0.0712 40.94708,0.003 0,0"
       style="fill:none;stroke:#2c115f;stroke-width:1.75;stroke-linecap:round;stroke-linejoin:round;stroke-miterlimit:100000"
       id="path7888"
       inkscape:connector-curvature="0" />
    <g
       id="xtick_36"
       style="stroke-linecap:butt;stroke-linejoin:round;stroke-miterlimit:100000">
      <g
         id="line2d_171"
         style="stroke-linecap:butt;stroke-linejoin:round;stroke-miterlimit:100000">
        <path
           clip-path="url(#p44a553a82f)"
           d="m 31.8,529.2 0,-68.23333"
           style="fill:none;stroke:#ffffff;stroke-linecap:round;stroke-linejoin:round;stroke-miterlimit:100000"
           id="path7909"
           inkscape:connector-curvature="0" />
      </g>
      <g
         id="line2d_172"
         style="stroke-linecap:butt;stroke-linejoin:round;stroke-miterlimit:100000" />
      <g
         id="line2d_173"
         style="stroke-linecap:butt;stroke-linejoin:round;stroke-miterlimit:100000" />
      <g
         id="text_26"
         style="stroke-linecap:butt;stroke-linejoin:round;stroke-miterlimit:100000">
        <!-- −15 -->
        <defs
           id="defs7914">
          <path
             d="m 4.9375,29.6875 0,7.125 48.578125,0 0,-7.125 z"
             id="LiberationSans-2212"
             inkscape:connector-curvature="0"
             style="stroke-linecap:butt;stroke-linejoin:round;stroke-miterlimit:100000" />
          <path
             d="m 51.421875,22.40625 q 0,-5.171875 -1.5625,-9.46875 Q 48.296875,8.640625 45.21875,5.53125 42.140625,2.4375 37.578125,0.71875 33.015625,-0.984375 27,-0.984375 q -5.421875,0 -9.453125,1.265625 -4.015625,1.28125 -6.8125,3.5 Q 7.953125,6 6.3125,8.984375 4.6875,11.96875 4,15.375 l 8.890625,1.03125 q 0.53125,-1.953125 1.5,-3.78125 Q 15.375,10.796875 17.0625,9.34375 18.75,7.90625 21.21875,7.046875 q 2.46875,-0.84375 5.984375,-0.84375 3.40625,0 6.1875,1.046875 2.796875,1.046875 4.765625,3.09375 1.984375,2.0625 3.046875,5.03125 1.078125,2.984375 1.078125,6.84375 0,3.171875 -1.03125,5.828125 -1.015625,2.671875 -2.921875,4.59375 -1.90625,1.9375 -4.671875,3 -2.75,1.078125 -6.265625,1.078125 -2.1875,0 -4.046875,-0.390625 Q 21.484375,35.9375 19.890625,35.25 18.3125,34.578125 17.015625,33.671875 15.71875,32.765625 14.59375,31.78125 l -8.59375,0 2.296875,37.015625 39.109375,0 0,-7.46875 -31.09375,0 L 14.984375,39.5 q 2.34375,1.8125 5.859375,3.09375 3.515625,1.296875 8.359375,1.296875 5.125,0 9.21875,-1.5625 4.109375,-1.5625 6.984375,-4.421875 2.890625,-2.84375 4.453125,-6.796875 1.5625,-3.953125 1.5625,-8.703125"
             id="LiberationSans-35"
             inkscape:connector-curvature="0"
             style="stroke-linecap:butt;stroke-linejoin:round;stroke-miterlimit:100000" />
        </defs>
        <g
           style="fill:#262626;stroke-linecap:butt;stroke-linejoin:round;stroke-miterlimit:100000"
           transform="matrix(0.1,0,0,-0.1,23.31875,543.44687)"
           id="g7918">
          <use
             xlink:href="#LiberationSans-2212"
             id="use7920"
             style="stroke-linecap:butt;stroke-linejoin:round;stroke-miterlimit:100000"
             x="0"
             y="0"
             width="100%"
             height="100%" />
          <path
             style="stroke-linecap:butt;stroke-linejoin:round;stroke-miterlimit:100000"
             inkscape:connector-curvature="0"
             id="use7922"
             d="m 66.023437,0 0,7.46875 17.515625,0 0,52.9375 -15.515625,-11.09375 0,8.3125 16.25,11.171875 8.109375,0 0,-61.328125 16.749998,0 0,-7.46875 z" />
          <use
             x="114.01367"
             xlink:href="#LiberationSans-35"
             id="use7924"
             style="stroke-linecap:butt;stroke-linejoin:round;stroke-miterlimit:100000"
             y="0"
             width="100%"
             height="100%" />
        </g>
      </g>
    </g>
    <g
       id="xtick_42"
       style="stroke-linecap:butt;stroke-linejoin:round;stroke-miterlimit:100000">
      <g
         id="line2d_189"
         style="stroke-linecap:butt;stroke-linejoin:round;stroke-miterlimit:100000">
        <path
           clip-path="url(#p44a553a82f)"
           d="m 511.12163,529.2 0,-68.23333"
           style="fill:none;stroke:#ffffff;stroke-linecap:round;stroke-linejoin:round;stroke-miterlimit:100000"
           id="path7991"
           inkscape:connector-curvature="0" />
      </g>
      <g
         id="line2d_190"
         style="stroke-linecap:butt;stroke-linejoin:round;stroke-miterlimit:100000" />
      <g
         id="line2d_191"
         style="stroke-linecap:butt;stroke-linejoin:round;stroke-miterlimit:100000" />
      <g
         id="text_32"
         style="stroke-linecap:butt;stroke-linejoin:round;stroke-miterlimit:100000">
        <!-- 15 -->
        <g
           style="fill:#262626;stroke-linecap:butt;stroke-linejoin:round;stroke-miterlimit:100000"
           transform="matrix(0.1,0,0,-0.1,505.56069,543.44687)"
           id="g7996">
          <path
             style="stroke-linecap:butt;stroke-linejoin:round;stroke-miterlimit:100000"
             inkscape:connector-curvature="0"
             id="use7998"
             d="m 7.625,0 0,7.46875 17.515625,0 0,52.9375 L 9.625,49.3125 l 0,8.3125 16.25,11.171875 8.109375,0 0,-61.328125 16.75,0 0,-7.46875 z" />
          <use
             x="55.615234"
             xlink:href="#LiberationSans-35"
             id="use8000"
             style="stroke-linecap:butt;stroke-linejoin:round;stroke-miterlimit:100000"
             y="0"
             width="100%"
             height="100%" />
        </g>
      </g>
    </g>
    <g
       id="text_33"
       style="stroke-linecap:butt;stroke-linejoin:round;stroke-miterlimit:100000">
      <!-- $x$ -->
      <defs
         id="defs8003">
        <path
           d="m 7.8125,2.875 q 1.765625,-1.359375 4.984375,-1.359375 3.125,0 5.515625,3 2.390625,3 3.265625,6.5625 L 26.125,28.8125 q 1.078125,4.828125 1.078125,6.59375 0,2.484375 -1.390625,4.34375 -1.390625,1.859375 -3.890625,1.859375 Q 18.75,41.609375 15.96875,39.625 13.1875,37.640625 11.28125,34.59375 9.375,31.546875 8.59375,28.421875 8.40625,27.78125 7.8125,27.78125 l -1.21875,0 q -0.78125,0 -0.78125,0.9375 l 0,0.28125 q 0.96875,3.71875 3.3125,7.25 2.34375,3.546875 5.734375,5.734375 3.40625,2.203125 7.265625,2.203125 3.65625,0 6.609375,-1.953125 2.953125,-1.953125 4.171875,-5.3125 1.71875,3.0625 4.375,5.15625 2.65625,2.109375 5.828125,2.109375 2.15625,0 4.390625,-0.765625 2.25,-0.75 3.671875,-2.3125 1.421875,-1.5625 1.421875,-3.90625 0,-2.53125 -1.640625,-4.375 Q 49.3125,31 46.78125,31 q -1.609375,0 -2.6875,1.03125 -1.078125,1.03125 -1.078125,2.59375 0,2.09375 1.4375,3.671875 1.453125,1.59375 3.453125,1.890625 -1.8125,1.421875 -4.984375,1.421875 -3.21875,0 -5.59375,-2.984375 -2.359375,-2.984375 -3.34375,-6.640625 L 29.59375,14.3125 q -1.078125,-4.015625 -1.078125,-6.59375 0,-2.546875 1.4375,-4.375 1.4375,-1.828125 3.84375,-1.828125 4.6875,0 8.359375,4.125 3.6875,4.125 4.859375,9.0625 0.203125,0.578125 0.78125,0.578125 l 1.234375,0 q 0.390625,0 0.625,-0.265625 0.25,-0.265625 0.25,-0.609375 0,-0.09375 -0.09375,-0.296875 Q 48.390625,8.15625 43.84375,3.515625 39.3125,-1.125 33.59375,-1.125 q -3.65625,0 -6.609375,1.96875 -2.953125,1.984375 -4.1875,5.359375 -1.5625,-2.9375 -4.328125,-5.140625 -2.75,-2.1875 -5.875,-2.1875 -2.140625,0 -4.421875,0.765625 -2.265625,0.75 -3.6875,2.3125 -1.40625,1.5625 -1.40625,3.953125 0,2.34375 1.625,4.265625 1.640625,1.9375 4.09375,1.9375 1.65625,0 2.78125,-1 1.125,-1 1.125,-2.609375 0,-2.109375 -1.40625,-3.671875 Q 9.90625,3.265625 7.8125,2.875"
           id="Cmmi10-78"
           inkscape:connector-curvature="0"
           style="stroke-linecap:butt;stroke-linejoin:round;stroke-miterlimit:100000" />
      </defs>
      <g
         style="fill:#262626;stroke-linecap:butt;stroke-linejoin:round;stroke-miterlimit:100000"
         transform="matrix(0.14,0,0,-0.14,267.40081,560.6675)"
         id="g8006">
        <use
           transform="translate(0,0.8125)"
           xlink:href="#Cmmi10-78"
           id="use8008"
           style="stroke-linecap:butt;stroke-linejoin:round;stroke-miterlimit:100000"
           x="0"
           y="0"
           width="100%"
           height="100%" />
      </g>
    </g>
    <g
       id="text_38"
       style="stroke-linecap:butt;stroke-linejoin:round;stroke-miterlimit:100000">
      <!-- $\beta = 1.0$ -->
      <defs
         id="defs8072">
        <path
           d="m 9.28125,0 0,3.515625 q 12.5,0 12.5,3.171875 l 0,52.5 q -5.171875,-2.5 -13.09375,-2.5 l 0,3.515625 q 12.265625,0 18.515625,6.40625 l 1.40625,0 q 0.34375,0 0.65625,-0.28125 Q 29.59375,66.0625 29.59375,65.71875 l 0,-59.03125 q 0,-3.171875 12.5,-3.171875 L 42.09375,0 Z"
           id="Cmr10-31"
           inkscape:connector-curvature="0"
           style="stroke-linecap:butt;stroke-linejoin:round;stroke-miterlimit:100000" />
      </defs>
      <g
         style="fill:#262626;stroke-linecap:butt;stroke-linejoin:round;stroke-miterlimit:100000"
         transform="matrix(0.14,0,0,-0.14,522.62414,498.40562)"
         id="g8075">
        <use
           transform="translate(0,0.484375)"
           xlink:href="#Cmmi10-af"
           id="use8077"
           style="stroke-linecap:butt;stroke-linejoin:round;stroke-miterlimit:100000"
           x="0"
           y="0"
           width="100%"
           height="100%" />
        <use
           transform="translate(74.052734,0.484375)"
           xlink:href="#Cmr10-3d"
           id="use8079"
           style="stroke-linecap:butt;stroke-linejoin:round;stroke-miterlimit:100000"
           x="0"
           y="0"
           width="100%"
           height="100%" />
        <use
           transform="translate(169.29687,0.484375)"
           xlink:href="#Cmr10-31"
           id="use8081"
           style="stroke-linecap:butt;stroke-linejoin:round;stroke-miterlimit:100000"
           x="0"
           y="0"
           width="100%"
           height="100%" />
        <use
           transform="translate(219.29687,0.484375)"
           xlink:href="#Cmmi10-3a"
           id="use8083"
           style="stroke-linecap:butt;stroke-linejoin:round;stroke-miterlimit:100000"
           x="0"
           y="0"
           width="100%"
           height="100%" />
        <use
           transform="translate(264.54102,0.484375)"
           xlink:href="#Cmr10-30"
           id="use8085"
           style="stroke-linecap:butt;stroke-linejoin:round;stroke-miterlimit:100000"
           x="0"
           y="0"
           width="100%"
           height="100%" />
      </g>
    </g>
    <path
       clip-path="url(#p44a553a82f)"
       d="m 31.8,529.2 62.624936,-0.079 7.225954,-0.26455 4.8173,-0.47364 2.40866,-0.40092 2.40865,-0.55685 2.40865,-0.7533 2.40865,-0.99209 2.40865,-1.27124 2.40865,-1.58377 2.40865,-1.91665 2.40865,-2.25053 2.40866,-2.56015 4.8173,-5.80251 4.8173,-6.00183 2.40865,-2.72337 2.40865,-2.3324 2.40866,-1.79917 2.40865,-1.15066 2.40865,-0.42599 2.40865,0.32733 2.40865,1.0586 2.40865,1.71962 2.40865,2.26986 2.40866,2.68061 9.6346,11.82213 2.40865,2.59759 2.40865,2.2933 2.40865,1.96106 2.40866,1.6268 2.40865,1.31071 2.40865,1.02665 2.40865,0.78232 2.40865,0.58034 2.40865,0.41928 4.81731,0.49767 4.8173,0.22387 9.6346,0.12484 40.94708,0.016 81.89415,-0.0855 4.8173,-0.15696 4.8173,-0.3854 2.40865,-0.34865 2.40865,-0.50813 2.40866,-0.72182 2.40865,-0.99907 2.40865,-1.34682 2.40865,-1.76742 2.40865,-2.25647 2.40865,-2.80063 2.40866,-3.37606 2.40865,-3.94804 2.40865,-4.4719 2.40865,-4.89603 7.22595,-15.45641 2.40865,-4.61482 2.40866,-3.90769 2.40865,-2.96042 2.40865,-1.82244 2.40865,-0.56351 2.40865,0.73337 2.40865,1.98091 2.40865,3.09739 2.40866,4.01535 2.40865,4.68843 9.6346,20.32181 2.40865,4.40745 2.40866,3.8744 2.40865,3.29962 2.40865,2.72654 2.40865,2.18852 2.40865,1.70793 2.40865,1.29684 2.40865,0.95864 2.40866,0.69023 2.40865,0.48424 4.8173,0.55193 4.8173,0.23465 9.63461,0.122 45.76437,0.0139 7.22596,0 0,0"
       style="fill:none;stroke:#000004;stroke-width:1.75;stroke-linecap:round;stroke-linejoin:round;stroke-miterlimit:100000"
       id="path8088"
       inkscape:connector-curvature="0" />
  </g>
  <defs
     id="defs8102">
    <clipPath
       id="p13123721d8">
      <rect
         height="68.2333333333"
         width="479.321628906"
         x="31.8"
         y="104.833333333"
         id="rect8105" />
    </clipPath>
    <clipPath
       id="p44a553a82f">
      <rect
         height="68.2333333333"
         width="479.321628906"
         x="31.8"
         y="460.966666667"
         id="rect8108" />
    </clipPath>
    <clipPath
       id="pcea76d88f6">
      <rect
         height="68.2333333333"
         width="479.321628906"
         x="31.8"
         y="282.9"
         id="rect8111" />
    </clipPath>
    <clipPath
       id="pce95deebca">
      <rect
         height="68.2333333333"
         width="479.321628906"
         x="31.8"
         y="15.8"
         id="rect8114" />
    </clipPath>
    <clipPath
       id="p2d8850a0d6">
      <rect
         height="68.2333333333"
         width="479.321628906"
         x="31.8"
         y="193.866666667"
         id="rect8117" />
    </clipPath>
    <clipPath
       id="pfc23b0cc51">
      <rect
         height="68.2333333333"
         width="479.321628906"
         x="31.8"
         y="371.933333333"
         id="rect8120" />
    </clipPath>
  </defs>
</svg>
