<?xml version="1.0" encoding="utf-8" standalone="no"?>
<!DOCTYPE svg PUBLIC "-//W3C//DTD SVG 1.1//EN"
  "http://www.w3.org/Graphics/SVG/1.1/DTD/svg11.dtd">
<!-- Created with matplotlib (http://matplotlib.org/) -->
<svg height="576pt" version="1.1" viewBox="0 0 576 576" width="576pt" xmlns="http://www.w3.org/2000/svg" xmlns:xlink="http://www.w3.org/1999/xlink">
 <defs>
  <style type="text/css">
*{stroke-linecap:butt;stroke-linejoin:round;stroke-miterlimit:100000;}
  </style>
 </defs>
 <g id="figure_1">
  <g id="patch_1">
   <path d="M 0 576 
L 576 576 
L 576 0 
L 0 0 
z
" style="fill:#ffffff;"/>
  </g>
  <g id="axes_1">
   <g id="patch_2">
    <path d="M 31.8 84.033333 
L 511.121629 84.033333 
L 511.121629 15.8 
L 31.8 15.8 
z
" style="fill:#eaeaf2;"/>
   </g>
   <g id="matplotlib.axis_1">
    <g id="xtick_1">
     <g id="line2d_1">
      <path clip-path="url(#pce95deebca)" d="M 31.8 84.033333 
L 31.8 15.8 
" style="fill:none;stroke:#ffffff;stroke-linecap:round;"/>
     </g>
     <g id="line2d_2"/>
     <g id="line2d_3"/>
    </g>
    <g id="xtick_2">
     <g id="line2d_4">
      <path clip-path="url(#pce95deebca)" d="M 111.686938 84.033333 
L 111.686938 15.8 
" style="fill:none;stroke:#ffffff;stroke-linecap:round;"/>
     </g>
     <g id="line2d_5"/>
     <g id="line2d_6"/>
    </g>
    <g id="xtick_3">
     <g id="line2d_7">
      <path clip-path="url(#pce95deebca)" d="M 191.573876 84.033333 
L 191.573876 15.8 
" style="fill:none;stroke:#ffffff;stroke-linecap:round;"/>
     </g>
     <g id="line2d_8"/>
     <g id="line2d_9"/>
    </g>
    <g id="xtick_4">
     <g id="line2d_10">
      <path clip-path="url(#pce95deebca)" d="M 271.460814 84.033333 
L 271.460814 15.8 
" style="fill:none;stroke:#ffffff;stroke-linecap:round;"/>
     </g>
     <g id="line2d_11"/>
     <g id="line2d_12"/>
    </g>
    <g id="xtick_5">
     <g id="line2d_13">
      <path clip-path="url(#pce95deebca)" d="M 351.347753 84.033333 
L 351.347753 15.8 
" style="fill:none;stroke:#ffffff;stroke-linecap:round;"/>
     </g>
     <g id="line2d_14"/>
     <g id="line2d_15"/>
    </g>
    <g id="xtick_6">
     <g id="line2d_16">
      <path clip-path="url(#pce95deebca)" d="M 431.234691 84.033333 
L 431.234691 15.8 
" style="fill:none;stroke:#ffffff;stroke-linecap:round;"/>
     </g>
     <g id="line2d_17"/>
     <g id="line2d_18"/>
    </g>
    <g id="xtick_7">
     <g id="line2d_19">
      <path clip-path="url(#pce95deebca)" d="M 511.121629 84.033333 
L 511.121629 15.8 
" style="fill:none;stroke:#ffffff;stroke-linecap:round;"/>
     </g>
     <g id="line2d_20"/>
     <g id="line2d_21"/>
    </g>
   </g>
   <g id="matplotlib.axis_2">
    <g id="ytick_1">
     <g id="line2d_22">
      <path clip-path="url(#pce95deebca)" d="M 31.8 84.033333 
L 511.121629 84.033333 
" style="fill:none;stroke:#ffffff;stroke-linecap:round;"/>
     </g>
     <g id="line2d_23"/>
     <g id="line2d_24"/>
     <g id="text_1">
      <!-- 0.0 -->
      <defs>
       <path d="M 9.125 0 
L 9.125 10.6875 
L 18.65625 10.6875 
L 18.65625 0 
z
" id="LiberationSans-2e"/>
       <path d="M 51.703125 34.421875 
Q 51.703125 24.515625 49.828125 17.75 
Q 47.953125 10.984375 44.703125 6.8125 
Q 41.453125 2.640625 37.0625 0.828125 
Q 32.671875 -0.984375 27.6875 -0.984375 
Q 22.65625 -0.984375 18.3125 0.828125 
Q 13.96875 2.640625 10.765625 6.78125 
Q 7.5625 10.9375 5.734375 17.703125 
Q 3.90625 24.46875 3.90625 34.421875 
Q 3.90625 44.828125 5.734375 51.640625 
Q 7.5625 58.453125 10.78125 62.5 
Q 14.015625 66.546875 18.40625 68.1875 
Q 22.796875 69.828125 27.984375 69.828125 
Q 32.90625 69.828125 37.21875 68.1875 
Q 41.546875 66.546875 44.765625 62.5 
Q 48 58.453125 49.84375 51.640625 
Q 51.703125 44.828125 51.703125 34.421875 
M 42.78125 34.421875 
Q 42.78125 42.625 41.796875 48.0625 
Q 40.828125 53.515625 38.921875 56.765625 
Q 37.015625 60.015625 34.25 61.359375 
Q 31.5 62.703125 27.984375 62.703125 
Q 24.265625 62.703125 21.4375 61.328125 
Q 18.609375 59.96875 16.671875 56.71875 
Q 14.75 53.46875 13.765625 48.015625 
Q 12.796875 42.578125 12.796875 34.421875 
Q 12.796875 26.515625 13.796875 21.09375 
Q 14.796875 15.671875 16.71875 12.375 
Q 18.65625 9.078125 21.4375 7.640625 
Q 24.21875 6.203125 27.78125 6.203125 
Q 31.25 6.203125 34.03125 7.640625 
Q 36.8125 9.078125 38.734375 12.375 
Q 40.671875 15.671875 41.71875 21.09375 
Q 42.78125 26.515625 42.78125 34.421875 
" id="LiberationSans-30"/>
      </defs>
      <g style="fill:#262626;" transform="translate(10.9 86.6192708333)scale(0.1 -0.1)">
       <use xlink:href="#LiberationSans-30"/>
       <use x="55.615234375" xlink:href="#LiberationSans-2e"/>
       <use x="83.3984375" xlink:href="#LiberationSans-30"/>
      </g>
     </g>
    </g>
    <g id="ytick_2">
     <g id="line2d_25">
      <path clip-path="url(#pce95deebca)" d="M 31.8 61.288889 
L 511.121629 61.288889 
" style="fill:none;stroke:#ffffff;stroke-linecap:round;"/>
     </g>
     <g id="line2d_26"/>
     <g id="line2d_27"/>
     <g id="text_2">
      <!-- 0.1 -->
      <defs>
       <path d="M 7.625 0 
L 7.625 7.46875 
L 25.140625 7.46875 
L 25.140625 60.40625 
L 9.625 49.3125 
L 9.625 57.625 
L 25.875 68.796875 
L 33.984375 68.796875 
L 33.984375 7.46875 
L 50.734375 7.46875 
L 50.734375 0 
z
" id="LiberationSans-31"/>
      </defs>
      <g style="fill:#262626;" transform="translate(10.9 63.8748263889)scale(0.1 -0.1)">
       <use xlink:href="#LiberationSans-30"/>
       <use x="55.615234375" xlink:href="#LiberationSans-2e"/>
       <use x="83.3984375" xlink:href="#LiberationSans-31"/>
      </g>
     </g>
    </g>
    <g id="ytick_3">
     <g id="line2d_28">
      <path clip-path="url(#pce95deebca)" d="M 31.8 38.544444 
L 511.121629 38.544444 
" style="fill:none;stroke:#ffffff;stroke-linecap:round;"/>
     </g>
     <g id="line2d_29"/>
     <g id="line2d_30"/>
     <g id="text_3">
      <!-- 0.2 -->
      <defs>
       <path d="M 5.03125 0 
L 5.03125 6.203125 
Q 7.515625 11.921875 11.109375 16.28125 
Q 14.703125 20.65625 18.65625 24.1875 
Q 22.609375 27.734375 26.484375 30.765625 
Q 30.375 33.796875 33.5 36.8125 
Q 36.625 39.84375 38.546875 43.15625 
Q 40.484375 46.484375 40.484375 50.6875 
Q 40.484375 53.609375 39.59375 55.828125 
Q 38.71875 58.0625 37.0625 59.5625 
Q 35.40625 61.078125 33.078125 61.828125 
Q 30.765625 62.59375 27.9375 62.59375 
Q 25.296875 62.59375 22.96875 61.859375 
Q 20.65625 61.140625 18.84375 59.671875 
Q 17.046875 58.203125 15.890625 56.03125 
Q 14.75 53.859375 14.40625 50.984375 
L 5.421875 51.8125 
Q 5.859375 55.515625 7.46875 58.78125 
Q 9.078125 62.0625 11.90625 64.53125 
Q 14.75 67 18.71875 68.40625 
Q 22.703125 69.828125 27.9375 69.828125 
Q 33.0625 69.828125 37.0625 68.609375 
Q 41.0625 67.390625 43.8125 64.984375 
Q 46.578125 62.59375 48.046875 59.078125 
Q 49.515625 55.5625 49.515625 50.984375 
Q 49.515625 47.515625 48.265625 44.390625 
Q 47.015625 41.265625 44.9375 38.421875 
Q 42.875 35.59375 40.140625 32.953125 
Q 37.40625 30.328125 34.421875 27.8125 
Q 31.453125 25.296875 28.421875 22.828125 
Q 25.390625 20.359375 22.71875 17.859375 
Q 20.0625 15.375 17.96875 12.8125 
Q 15.875 10.25 14.703125 7.46875 
L 50.59375 7.46875 
L 50.59375 0 
z
" id="LiberationSans-32"/>
      </defs>
      <g style="fill:#262626;" transform="translate(10.9 41.1303819444)scale(0.1 -0.1)">
       <use xlink:href="#LiberationSans-30"/>
       <use x="55.615234375" xlink:href="#LiberationSans-2e"/>
       <use x="83.3984375" xlink:href="#LiberationSans-32"/>
      </g>
     </g>
    </g>
    <g id="ytick_4">
     <g id="line2d_31">
      <path clip-path="url(#pce95deebca)" d="M 31.8 15.8 
L 511.121629 15.8 
" style="fill:none;stroke:#ffffff;stroke-linecap:round;"/>
     </g>
     <g id="line2d_32"/>
     <g id="line2d_33"/>
     <g id="text_4">
      <!-- 0.3 -->
      <defs>
       <path d="M 51.21875 19 
Q 51.21875 14.265625 49.671875 10.546875 
Q 48.140625 6.84375 45.1875 4.265625 
Q 42.234375 1.703125 37.859375 0.359375 
Q 33.5 -0.984375 27.875 -0.984375 
Q 21.484375 -0.984375 17.109375 0.609375 
Q 12.75 2.203125 9.90625 4.8125 
Q 7.078125 7.421875 5.65625 10.765625 
Q 4.25 14.109375 3.8125 17.671875 
L 12.890625 18.5 
Q 13.28125 15.765625 14.328125 13.515625 
Q 15.375 11.28125 17.1875 9.671875 
Q 19 8.0625 21.625 7.171875 
Q 24.265625 6.296875 27.875 6.296875 
Q 34.515625 6.296875 38.296875 9.5625 
Q 42.09375 12.84375 42.09375 19.28125 
Q 42.09375 23.09375 40.40625 25.40625 
Q 38.71875 27.734375 36.203125 29.03125 
Q 33.6875 30.328125 30.734375 30.765625 
Q 27.78125 31.203125 25.296875 31.203125 
L 20.3125 31.203125 
L 20.3125 38.8125 
L 25.09375 38.8125 
Q 27.59375 38.8125 30.265625 39.328125 
Q 32.953125 39.84375 35.171875 41.1875 
Q 37.40625 42.53125 38.84375 44.828125 
Q 40.28125 47.125 40.28125 50.6875 
Q 40.28125 56.203125 37.03125 59.390625 
Q 33.796875 62.59375 27.390625 62.59375 
Q 21.578125 62.59375 17.984375 59.609375 
Q 14.40625 56.640625 13.8125 51.21875 
L 4.984375 51.90625 
Q 5.515625 56.453125 7.46875 59.8125 
Q 9.421875 63.1875 12.421875 65.40625 
Q 15.4375 67.625 19.28125 68.71875 
Q 23.140625 69.828125 27.484375 69.828125 
Q 33.25 69.828125 37.390625 68.375 
Q 41.546875 66.9375 44.1875 64.46875 
Q 46.828125 62.015625 48.0625 58.6875 
Q 49.3125 55.375 49.3125 51.609375 
Q 49.3125 48.578125 48.484375 45.9375 
Q 47.65625 43.3125 45.890625 41.203125 
Q 44.140625 39.109375 41.421875 37.59375 
Q 38.71875 36.078125 34.90625 35.296875 
L 34.90625 35.109375 
Q 39.0625 34.671875 42.140625 33.21875 
Q 45.21875 31.78125 47.21875 29.625 
Q 49.21875 27.484375 50.21875 24.75 
Q 51.21875 22.015625 51.21875 19 
" id="LiberationSans-33"/>
      </defs>
      <g style="fill:#262626;" transform="translate(10.9 18.3859375)scale(0.1 -0.1)">
       <use xlink:href="#LiberationSans-30"/>
       <use x="55.615234375" xlink:href="#LiberationSans-2e"/>
       <use x="83.3984375" xlink:href="#LiberationSans-33"/>
      </g>
     </g>
    </g>
    <g id="text_5">
     <!-- $\beta = 0.0$ -->
     <defs>
      <path d="M 2.6875 -19.390625 
Q 2.390625 -19.390625 2.140625 -19.046875 
Q 1.90625 -18.703125 1.90625 -18.40625 
L 17.28125 43.40625 
Q 18.609375 48.390625 21.140625 53.078125 
Q 23.6875 57.765625 27.515625 61.796875 
Q 31.34375 65.828125 35.9375 68.171875 
Q 40.53125 70.515625 45.703125 70.515625 
Q 49.421875 70.515625 52.421875 68.875 
Q 55.421875 67.234375 57.15625 64.28125 
Q 58.890625 61.328125 58.890625 57.625 
Q 58.890625 54.046875 57.515625 50.796875 
Q 56.15625 47.5625 53.703125 44.75 
Q 51.265625 41.9375 48.484375 40.1875 
Q 50.09375 39.15625 51.359375 37.5625 
Q 52.640625 35.984375 53.421875 34.25 
Q 54.203125 32.515625 54.640625 30.390625 
Q 55.078125 28.265625 55.078125 26.421875 
Q 55.078125 21.296875 52.875 16.3125 
Q 50.6875 11.328125 46.890625 7.265625 
Q 43.109375 3.21875 38.21875 0.84375 
Q 33.34375 -1.515625 28.21875 -1.515625 
Q 22.609375 -1.515625 18.109375 1.5625 
Q 13.625 4.640625 11.921875 9.90625 
L 4.6875 -18.796875 
Q 4.6875 -19.390625 3.90625 -19.390625 
z
M 28.421875 1.21875 
Q 32.90625 1.21875 36.546875 4.171875 
Q 40.1875 7.125 42.546875 11.59375 
Q 44.921875 16.0625 46.15625 21.0625 
Q 47.40625 26.078125 47.40625 30.171875 
Q 47.40625 35.25 44.484375 38.1875 
Q 41.0625 36.921875 37.796875 36.921875 
Q 29.890625 36.921875 29.890625 39.59375 
Q 29.890625 43.109375 38.921875 43.109375 
Q 42.140625 43.109375 44.828125 42.09375 
Q 46.96875 43.75 48.71875 46.96875 
Q 50.484375 50.203125 51.390625 53.71875 
Q 52.296875 57.234375 52.296875 60.296875 
Q 52.296875 63.578125 50.5625 65.75 
Q 48.828125 67.921875 45.515625 67.921875 
Q 39.40625 67.921875 34.15625 64.15625 
Q 28.90625 60.40625 25.296875 54.65625 
Q 21.6875 48.921875 20.125 42.828125 
L 14.59375 20.703125 
Q 14.0625 18.40625 13.921875 15.578125 
Q 13.921875 9.328125 18.015625 5.265625 
Q 22.125 1.21875 28.421875 1.21875 
M 32.90625 39.890625 
Q 34.421875 39.5 37.890625 39.5 
Q 39.59375 39.5 41.3125 40.09375 
Q 41.21875 40.1875 40.921875 40.1875 
Q 39.84375 40.484375 38.625 40.484375 
Q 34.078125 40.484375 32.90625 39.890625 
" id="Cmmi10-af"/>
      <path d="M 25 -2.203125 
Q 12.75 -2.203125 8.328125 7.875 
Q 3.90625 17.96875 3.90625 31.890625 
Q 3.90625 40.578125 5.484375 48.234375 
Q 7.078125 55.90625 11.78125 61.25 
Q 16.5 66.609375 25 66.609375 
Q 31.59375 66.609375 35.78125 63.375 
Q 39.984375 60.15625 42.1875 55.046875 
Q 44.390625 49.953125 45.1875 44.109375 
Q 46 38.28125 46 31.890625 
Q 46 23.296875 44.40625 15.796875 
Q 42.828125 8.296875 38.1875 3.046875 
Q 33.546875 -2.203125 25 -2.203125 
M 25 0.390625 
Q 30.5625 0.390625 33.296875 6.09375 
Q 36.03125 11.8125 36.671875 18.75 
Q 37.3125 25.6875 37.3125 33.5 
Q 37.3125 41.015625 36.671875 47.359375 
Q 36.03125 53.71875 33.3125 58.859375 
Q 30.609375 64.015625 25 64.015625 
Q 19.34375 64.015625 16.609375 58.828125 
Q 13.875 53.65625 13.234375 47.328125 
Q 12.59375 41.015625 12.59375 33.5 
Q 12.59375 27.9375 12.859375 23 
Q 13.140625 18.0625 14.3125 12.8125 
Q 15.484375 7.5625 18.09375 3.96875 
Q 20.703125 0.390625 25 0.390625 
" id="Cmr10-30"/>
      <path d="M 8.40625 5.515625 
Q 8.40625 7.765625 10.0625 9.375 
Q 11.71875 10.984375 13.921875 10.984375 
Q 15.28125 10.984375 16.59375 10.25 
Q 17.921875 9.515625 18.65625 8.203125 
Q 19.390625 6.890625 19.390625 5.515625 
Q 19.390625 3.328125 17.765625 1.65625 
Q 16.15625 0 13.921875 0 
Q 11.71875 0 10.0625 1.65625 
Q 8.40625 3.328125 8.40625 5.515625 
" id="Cmmi10-3a"/>
      <path d="M 7.515625 13.28125 
Q 6.6875 13.28125 6.140625 13.90625 
Q 5.609375 14.546875 5.609375 15.28125 
Q 5.609375 16.109375 6.140625 16.6875 
Q 6.6875 17.28125 7.515625 17.28125 
L 70.3125 17.28125 
Q 71.046875 17.28125 71.578125 16.6875 
Q 72.125 16.109375 72.125 15.28125 
Q 72.125 14.546875 71.578125 13.90625 
Q 71.046875 13.28125 70.3125 13.28125 
z
M 7.515625 32.71875 
Q 6.6875 32.71875 6.140625 33.296875 
Q 5.609375 33.890625 5.609375 34.71875 
Q 5.609375 35.453125 6.140625 36.078125 
Q 6.6875 36.71875 7.515625 36.71875 
L 70.3125 36.71875 
Q 71.046875 36.71875 71.578125 36.078125 
Q 72.125 35.453125 72.125 34.71875 
Q 72.125 33.890625 71.578125 33.296875 
Q 71.046875 32.71875 70.3125 32.71875 
z
" id="Cmr10-3d"/>
     </defs>
     <g style="fill:#262626;" transform="translate(522.62414293 53.2389583333)scale(0.14 -0.14)">
      <use transform="translate(0.0 0.484375)" xlink:href="#Cmmi10-af"/>
      <use transform="translate(74.052734375 0.484375)" xlink:href="#Cmr10-3d"/>
      <use transform="translate(169.296875 0.484375)" xlink:href="#Cmr10-30"/>
      <use transform="translate(219.296875 0.484375)" xlink:href="#Cmmi10-3a"/>
      <use transform="translate(264.541015625 0.484375)" xlink:href="#Cmr10-30"/>
     </g>
    </g>
   </g>
   <g id="line2d_34">
    <path clip-path="url(#pce95deebca)" d="M 31.8 83.162077 
L 58.295165 82.610713 
L 82.381679 81.906456 
L 106.468193 80.982865 
L 130.554707 79.836118 
L 157.049873 78.350153 
L 243.761323 73.247538 
L 263.030535 72.473379 
L 279.891094 72.015349 
L 296.751654 71.79076 
L 313.612214 71.813103 
L 330.472774 72.08103 
L 347.333334 72.578482 
L 366.602545 73.390134 
L 388.280407 74.541005 
L 422.001527 76.602541 
L 465.357252 79.220613 
L 491.852418 80.579106 
L 511.121629 81.403717 
L 511.121629 81.403717 
" style="fill:none;stroke:#feb078;stroke-linecap:round;stroke-width:1.75;"/>
   </g>
   <g id="patch_3">
    <path d="M 31.8 15.8 
L 511.121629 15.8 
" style="fill:none;"/>
   </g>
   <g id="patch_4">
    <path d="M 511.121629 84.033333 
L 511.121629 15.8 
" style="fill:none;"/>
   </g>
   <g id="patch_5">
    <path d="M 31.8 84.033333 
L 511.121629 84.033333 
" style="fill:none;"/>
   </g>
   <g id="patch_6">
    <path d="M 31.8 84.033333 
L 31.8 15.8 
" style="fill:none;"/>
   </g>
  </g>
  <g id="axes_2">
   <g id="patch_7">
    <path d="M 31.8 173.066667 
L 511.121629 173.066667 
L 511.121629 104.833333 
L 31.8 104.833333 
z
" style="fill:#eaeaf2;"/>
   </g>
   <g id="matplotlib.axis_3">
    <g id="xtick_8">
     <g id="line2d_35">
      <path clip-path="url(#p13123721d8)" d="M 31.8 173.066667 
L 31.8 104.833333 
" style="fill:none;stroke:#ffffff;stroke-linecap:round;"/>
     </g>
     <g id="line2d_36"/>
     <g id="line2d_37"/>
    </g>
    <g id="xtick_9">
     <g id="line2d_38">
      <path clip-path="url(#p13123721d8)" d="M 111.686938 173.066667 
L 111.686938 104.833333 
" style="fill:none;stroke:#ffffff;stroke-linecap:round;"/>
     </g>
     <g id="line2d_39"/>
     <g id="line2d_40"/>
    </g>
    <g id="xtick_10">
     <g id="line2d_41">
      <path clip-path="url(#p13123721d8)" d="M 191.573876 173.066667 
L 191.573876 104.833333 
" style="fill:none;stroke:#ffffff;stroke-linecap:round;"/>
     </g>
     <g id="line2d_42"/>
     <g id="line2d_43"/>
    </g>
    <g id="xtick_11">
     <g id="line2d_44">
      <path clip-path="url(#p13123721d8)" d="M 271.460814 173.066667 
L 271.460814 104.833333 
" style="fill:none;stroke:#ffffff;stroke-linecap:round;"/>
     </g>
     <g id="line2d_45"/>
     <g id="line2d_46"/>
    </g>
    <g id="xtick_12">
     <g id="line2d_47">
      <path clip-path="url(#p13123721d8)" d="M 351.347753 173.066667 
L 351.347753 104.833333 
" style="fill:none;stroke:#ffffff;stroke-linecap:round;"/>
     </g>
     <g id="line2d_48"/>
     <g id="line2d_49"/>
    </g>
    <g id="xtick_13">
     <g id="line2d_50">
      <path clip-path="url(#p13123721d8)" d="M 431.234691 173.066667 
L 431.234691 104.833333 
" style="fill:none;stroke:#ffffff;stroke-linecap:round;"/>
     </g>
     <g id="line2d_51"/>
     <g id="line2d_52"/>
    </g>
    <g id="xtick_14">
     <g id="line2d_53">
      <path clip-path="url(#p13123721d8)" d="M 511.121629 173.066667 
L 511.121629 104.833333 
" style="fill:none;stroke:#ffffff;stroke-linecap:round;"/>
     </g>
     <g id="line2d_54"/>
     <g id="line2d_55"/>
    </g>
   </g>
   <g id="matplotlib.axis_4">
    <g id="ytick_5">
     <g id="line2d_56">
      <path clip-path="url(#p13123721d8)" d="M 31.8 173.066667 
L 511.121629 173.066667 
" style="fill:none;stroke:#ffffff;stroke-linecap:round;"/>
     </g>
     <g id="line2d_57"/>
     <g id="line2d_58"/>
     <g id="text_6">
      <!-- 0.0 -->
      <g style="fill:#262626;" transform="translate(10.9 175.652604167)scale(0.1 -0.1)">
       <use xlink:href="#LiberationSans-30"/>
       <use x="55.615234375" xlink:href="#LiberationSans-2e"/>
       <use x="83.3984375" xlink:href="#LiberationSans-30"/>
      </g>
     </g>
    </g>
    <g id="ytick_6">
     <g id="line2d_59">
      <path clip-path="url(#p13123721d8)" d="M 31.8 150.322222 
L 511.121629 150.322222 
" style="fill:none;stroke:#ffffff;stroke-linecap:round;"/>
     </g>
     <g id="line2d_60"/>
     <g id="line2d_61"/>
     <g id="text_7">
      <!-- 0.1 -->
      <g style="fill:#262626;" transform="translate(10.9 152.908159722)scale(0.1 -0.1)">
       <use xlink:href="#LiberationSans-30"/>
       <use x="55.615234375" xlink:href="#LiberationSans-2e"/>
       <use x="83.3984375" xlink:href="#LiberationSans-31"/>
      </g>
     </g>
    </g>
    <g id="ytick_7">
     <g id="line2d_62">
      <path clip-path="url(#p13123721d8)" d="M 31.8 127.577778 
L 511.121629 127.577778 
" style="fill:none;stroke:#ffffff;stroke-linecap:round;"/>
     </g>
     <g id="line2d_63"/>
     <g id="line2d_64"/>
     <g id="text_8">
      <!-- 0.2 -->
      <g style="fill:#262626;" transform="translate(10.9 130.163715278)scale(0.1 -0.1)">
       <use xlink:href="#LiberationSans-30"/>
       <use x="55.615234375" xlink:href="#LiberationSans-2e"/>
       <use x="83.3984375" xlink:href="#LiberationSans-32"/>
      </g>
     </g>
    </g>
    <g id="ytick_8">
     <g id="line2d_65">
      <path clip-path="url(#p13123721d8)" d="M 31.8 104.833333 
L 511.121629 104.833333 
" style="fill:none;stroke:#ffffff;stroke-linecap:round;"/>
     </g>
     <g id="line2d_66"/>
     <g id="line2d_67"/>
     <g id="text_9">
      <!-- 0.3 -->
      <g style="fill:#262626;" transform="translate(10.9 107.419270833)scale(0.1 -0.1)">
       <use xlink:href="#LiberationSans-30"/>
       <use x="55.615234375" xlink:href="#LiberationSans-2e"/>
       <use x="83.3984375" xlink:href="#LiberationSans-33"/>
      </g>
     </g>
    </g>
    <g id="text_10">
     <!-- $\beta = 0.2$ -->
     <defs>
      <path d="M 4.984375 0 
L 4.984375 2.6875 
Q 4.984375 2.9375 5.171875 3.21875 
L 20.703125 20.40625 
Q 24.21875 24.21875 26.40625 26.796875 
Q 28.609375 29.390625 30.75 32.765625 
Q 32.90625 36.140625 34.15625 39.625 
Q 35.40625 43.109375 35.40625 47.015625 
Q 35.40625 51.125 33.890625 54.859375 
Q 32.375 58.59375 29.375 60.84375 
Q 26.375 63.09375 22.125 63.09375 
Q 17.78125 63.09375 14.3125 60.46875 
Q 10.84375 57.859375 9.421875 53.71875 
Q 9.8125 53.8125 10.5 53.8125 
Q 12.75 53.8125 14.328125 52.296875 
Q 15.921875 50.78125 15.921875 48.390625 
Q 15.921875 46.09375 14.328125 44.5 
Q 12.75 42.921875 10.5 42.921875 
Q 8.15625 42.921875 6.5625 44.546875 
Q 4.984375 46.1875 4.984375 48.390625 
Q 4.984375 52.15625 6.390625 55.4375 
Q 7.8125 58.734375 10.46875 61.296875 
Q 13.140625 63.875 16.484375 65.234375 
Q 19.828125 66.609375 23.578125 66.609375 
Q 29.296875 66.609375 34.21875 64.1875 
Q 39.15625 61.765625 42.03125 57.34375 
Q 44.921875 52.9375 44.921875 47.015625 
Q 44.921875 42.671875 43.015625 38.765625 
Q 41.109375 34.859375 38.125 31.65625 
Q 35.15625 28.46875 30.515625 24.40625 
Q 25.875 20.359375 24.421875 19 
L 13.09375 8.109375 
L 22.703125 8.109375 
Q 29.78125 8.109375 34.546875 8.21875 
Q 39.3125 8.34375 39.59375 8.59375 
Q 40.765625 9.859375 42 17.828125 
L 44.921875 17.828125 
L 42.09375 0 
z
" id="Cmr10-32"/>
     </defs>
     <g style="fill:#262626;" transform="translate(522.62414293 142.272291667)scale(0.14 -0.14)">
      <use transform="translate(0.0 0.484375)" xlink:href="#Cmmi10-af"/>
      <use transform="translate(74.052734375 0.484375)" xlink:href="#Cmr10-3d"/>
      <use transform="translate(169.296875 0.484375)" xlink:href="#Cmr10-30"/>
      <use transform="translate(219.296875 0.484375)" xlink:href="#Cmmi10-3a"/>
      <use transform="translate(264.541015625 0.484375)" xlink:href="#Cmr10-32"/>
     </g>
    </g>
   </g>
   <g id="line2d_68">
    <path clip-path="url(#p13123721d8)" d="M 31.8 173.059072 
L 60.703817 172.944864 
L 75.155725 172.691835 
L 84.790331 172.347344 
L 94.424936 171.789879 
L 104.059542 170.970519 
L 113.694148 169.883693 
L 125.737405 168.258978 
L 137.780662 166.638556 
L 145.006616 165.849736 
L 152.23257 165.312102 
L 157.049873 165.1276 
L 161.867176 165.095746 
L 166.684478 165.218387 
L 173.910433 165.674247 
L 181.136387 166.402674 
L 190.770993 167.64654 
L 210.040204 170.22951 
L 219.674809 171.240745 
L 229.309415 171.979768 
L 238.944021 172.468249 
L 250.987278 172.81235 
L 265.439186 172.986832 
L 279.891094 172.956038 
L 294.343003 172.697045 
L 303.977608 172.314592 
L 311.203563 171.849362 
L 318.429517 171.180965 
L 325.655471 170.27102 
L 332.881425 169.099983 
L 340.107379 167.680144 
L 349.741985 165.501342 
L 364.193893 162.188426 
L 369.011196 161.258304 
L 373.828499 160.496307 
L 378.645802 159.943679 
L 383.463105 159.631449 
L 388.280407 159.577544 
L 393.09771 159.785088 
L 397.915013 160.2421 
L 402.732316 160.922641 
L 407.549619 161.78925 
L 414.775573 163.337106 
L 436.453435 168.265372 
L 443.67939 169.591426 
L 450.905344 170.659273 
L 458.131298 171.470622 
L 465.357252 172.053971 
L 474.991858 172.550961 
L 487.035115 172.867877 
L 503.895675 173.024027 
L 511.121629 173.046178 
L 511.121629 173.046178 
" style="fill:none;stroke:#f1605d;stroke-linecap:round;stroke-width:1.75;"/>
   </g>
   <g id="patch_8">
    <path d="M 31.8 104.833333 
L 511.121629 104.833333 
" style="fill:none;"/>
   </g>
   <g id="patch_9">
    <path d="M 511.121629 173.066667 
L 511.121629 104.833333 
" style="fill:none;"/>
   </g>
   <g id="patch_10">
    <path d="M 31.8 173.066667 
L 511.121629 173.066667 
" style="fill:none;"/>
   </g>
   <g id="patch_11">
    <path d="M 31.8 173.066667 
L 31.8 104.833333 
" style="fill:none;"/>
   </g>
  </g>
  <g id="axes_3">
   <g id="patch_12">
    <path d="M 31.8 262.1 
L 511.121629 262.1 
L 511.121629 193.866667 
L 31.8 193.866667 
z
" style="fill:#eaeaf2;"/>
   </g>
   <g id="matplotlib.axis_5">
    <g id="xtick_15">
     <g id="line2d_69">
      <path clip-path="url(#p2d8850a0d6)" d="M 31.8 262.1 
L 31.8 193.866667 
" style="fill:none;stroke:#ffffff;stroke-linecap:round;"/>
     </g>
     <g id="line2d_70"/>
     <g id="line2d_71"/>
    </g>
    <g id="xtick_16">
     <g id="line2d_72">
      <path clip-path="url(#p2d8850a0d6)" d="M 111.686938 262.1 
L 111.686938 193.866667 
" style="fill:none;stroke:#ffffff;stroke-linecap:round;"/>
     </g>
     <g id="line2d_73"/>
     <g id="line2d_74"/>
    </g>
    <g id="xtick_17">
     <g id="line2d_75">
      <path clip-path="url(#p2d8850a0d6)" d="M 191.573876 262.1 
L 191.573876 193.866667 
" style="fill:none;stroke:#ffffff;stroke-linecap:round;"/>
     </g>
     <g id="line2d_76"/>
     <g id="line2d_77"/>
    </g>
    <g id="xtick_18">
     <g id="line2d_78">
      <path clip-path="url(#p2d8850a0d6)" d="M 271.460814 262.1 
L 271.460814 193.866667 
" style="fill:none;stroke:#ffffff;stroke-linecap:round;"/>
     </g>
     <g id="line2d_79"/>
     <g id="line2d_80"/>
    </g>
    <g id="xtick_19">
     <g id="line2d_81">
      <path clip-path="url(#p2d8850a0d6)" d="M 351.347753 262.1 
L 351.347753 193.866667 
" style="fill:none;stroke:#ffffff;stroke-linecap:round;"/>
     </g>
     <g id="line2d_82"/>
     <g id="line2d_83"/>
    </g>
    <g id="xtick_20">
     <g id="line2d_84">
      <path clip-path="url(#p2d8850a0d6)" d="M 431.234691 262.1 
L 431.234691 193.866667 
" style="fill:none;stroke:#ffffff;stroke-linecap:round;"/>
     </g>
     <g id="line2d_85"/>
     <g id="line2d_86"/>
    </g>
    <g id="xtick_21">
     <g id="line2d_87">
      <path clip-path="url(#p2d8850a0d6)" d="M 511.121629 262.1 
L 511.121629 193.866667 
" style="fill:none;stroke:#ffffff;stroke-linecap:round;"/>
     </g>
     <g id="line2d_88"/>
     <g id="line2d_89"/>
    </g>
   </g>
   <g id="matplotlib.axis_6">
    <g id="ytick_9">
     <g id="line2d_90">
      <path clip-path="url(#p2d8850a0d6)" d="M 31.8 262.1 
L 511.121629 262.1 
" style="fill:none;stroke:#ffffff;stroke-linecap:round;"/>
     </g>
     <g id="line2d_91"/>
     <g id="line2d_92"/>
     <g id="text_11">
      <!-- 0.0 -->
      <g style="fill:#262626;" transform="translate(10.9 264.6859375)scale(0.1 -0.1)">
       <use xlink:href="#LiberationSans-30"/>
       <use x="55.615234375" xlink:href="#LiberationSans-2e"/>
       <use x="83.3984375" xlink:href="#LiberationSans-30"/>
      </g>
     </g>
    </g>
    <g id="ytick_10">
     <g id="line2d_93">
      <path clip-path="url(#p2d8850a0d6)" d="M 31.8 239.355556 
L 511.121629 239.355556 
" style="fill:none;stroke:#ffffff;stroke-linecap:round;"/>
     </g>
     <g id="line2d_94"/>
     <g id="line2d_95"/>
     <g id="text_12">
      <!-- 0.1 -->
      <g style="fill:#262626;" transform="translate(10.9 241.941493056)scale(0.1 -0.1)">
       <use xlink:href="#LiberationSans-30"/>
       <use x="55.615234375" xlink:href="#LiberationSans-2e"/>
       <use x="83.3984375" xlink:href="#LiberationSans-31"/>
      </g>
     </g>
    </g>
    <g id="ytick_11">
     <g id="line2d_96">
      <path clip-path="url(#p2d8850a0d6)" d="M 31.8 216.611111 
L 511.121629 216.611111 
" style="fill:none;stroke:#ffffff;stroke-linecap:round;"/>
     </g>
     <g id="line2d_97"/>
     <g id="line2d_98"/>
     <g id="text_13">
      <!-- 0.2 -->
      <g style="fill:#262626;" transform="translate(10.9 219.197048611)scale(0.1 -0.1)">
       <use xlink:href="#LiberationSans-30"/>
       <use x="55.615234375" xlink:href="#LiberationSans-2e"/>
       <use x="83.3984375" xlink:href="#LiberationSans-32"/>
      </g>
     </g>
    </g>
    <g id="ytick_12">
     <g id="line2d_99">
      <path clip-path="url(#p2d8850a0d6)" d="M 31.8 193.866667 
L 511.121629 193.866667 
" style="fill:none;stroke:#ffffff;stroke-linecap:round;"/>
     </g>
     <g id="line2d_100"/>
     <g id="line2d_101"/>
     <g id="text_14">
      <!-- 0.3 -->
      <g style="fill:#262626;" transform="translate(10.9 196.452604167)scale(0.1 -0.1)">
       <use xlink:href="#LiberationSans-30"/>
       <use x="55.615234375" xlink:href="#LiberationSans-2e"/>
       <use x="83.3984375" xlink:href="#LiberationSans-33"/>
      </g>
     </g>
    </g>
    <g id="text_15">
     <!-- $\beta = 0.4$ -->
     <defs>
      <path d="M 2.78125 16.5 
L 2.78125 20.015625 
L 33.6875 66.109375 
Q 34.03125 66.609375 34.71875 66.609375 
L 36.1875 66.609375 
Q 37.3125 66.609375 37.3125 65.484375 
L 37.3125 20.015625 
L 47.125 20.015625 
L 47.125 16.5 
L 37.3125 16.5 
L 37.3125 6.6875 
Q 37.3125 4.640625 40.234375 4.078125 
Q 43.171875 3.515625 47.015625 3.515625 
L 47.015625 0 
L 19.484375 0 
L 19.484375 3.515625 
Q 23.34375 3.515625 26.265625 4.078125 
Q 29.203125 4.640625 29.203125 6.6875 
L 29.203125 16.5 
z
M 6.109375 20.015625 
L 29.78125 20.015625 
L 29.78125 55.421875 
z
" id="Cmr10-34"/>
     </defs>
     <g style="fill:#262626;" transform="translate(522.62414293 231.305625)scale(0.14 -0.14)">
      <use transform="translate(0.0 0.484375)" xlink:href="#Cmmi10-af"/>
      <use transform="translate(74.052734375 0.484375)" xlink:href="#Cmr10-3d"/>
      <use transform="translate(169.296875 0.484375)" xlink:href="#Cmr10-30"/>
      <use transform="translate(219.296875 0.484375)" xlink:href="#Cmmi10-3a"/>
      <use transform="translate(264.541015625 0.484375)" xlink:href="#Cmr10-34"/>
     </g>
    </g>
   </g>
   <g id="line2d_102">
    <path clip-path="url(#p2d8850a0d6)" d="M 31.8 262.099934 
L 77.564377 261.999696 
L 87.198982 261.795007 
L 94.424936 261.463308 
L 101.650891 260.878023 
L 106.468193 260.298901 
L 111.285496 259.542666 
L 116.102799 258.602059 
L 123.328753 256.882909 
L 140.189313 252.53764 
L 145.006616 251.646996 
L 149.823919 251.092409 
L 154.641221 250.93346 
L 159.458524 251.187603 
L 164.275827 251.827011 
L 169.09313 252.783588 
L 176.319084 254.598383 
L 188.362341 257.762817 
L 193.179644 258.836862 
L 197.996947 259.734961 
L 202.81425 260.448737 
L 207.631552 260.98937 
L 214.857507 261.528814 
L 222.083461 261.829928 
L 231.718066 262.01271 
L 250.987278 262.094176 
L 306.38626 262.035778 
L 318.429517 261.807776 
L 325.655471 261.451573 
L 330.472774 261.047206 
L 335.290077 260.453352 
L 340.107379 259.618962 
L 344.924682 258.498849 
L 349.741985 257.064711 
L 354.559288 255.317613 
L 359.376591 253.299326 
L 376.23715 245.780299 
L 378.645802 244.928782 
L 381.054453 244.200792 
L 383.463105 243.615389 
L 385.871756 243.188299 
L 388.280407 242.931211 
L 390.689059 242.851249 
L 393.09771 242.950642 
L 395.506362 243.226621 
L 397.915013 243.671546 
L 400.323664 244.273259 
L 402.732316 245.015637 
L 407.549619 246.842485 
L 412.366921 248.973649 
L 422.001527 253.414598 
L 426.81883 255.420013 
L 431.636133 257.150783 
L 436.453435 258.567579 
L 441.270738 259.671245 
L 446.088041 260.491319 
L 450.905344 261.073565 
L 455.722647 261.469089 
L 462.948601 261.816533 
L 472.583206 262.014409 
L 491.852418 262.095016 
L 511.121629 262.09984 
L 511.121629 262.09984 
" style="fill:none;stroke:#b73779;stroke-linecap:round;stroke-width:1.75;"/>
   </g>
   <g id="patch_13">
    <path d="M 31.8 193.866667 
L 511.121629 193.866667 
" style="fill:none;"/>
   </g>
   <g id="patch_14">
    <path d="M 511.121629 262.1 
L 511.121629 193.866667 
" style="fill:none;"/>
   </g>
   <g id="patch_15">
    <path d="M 31.8 262.1 
L 511.121629 262.1 
" style="fill:none;"/>
   </g>
   <g id="patch_16">
    <path d="M 31.8 262.1 
L 31.8 193.866667 
" style="fill:none;"/>
   </g>
  </g>
  <g id="axes_4">
   <g id="patch_17">
    <path d="M 31.8 351.133333 
L 511.121629 351.133333 
L 511.121629 282.9 
L 31.8 282.9 
z
" style="fill:#eaeaf2;"/>
   </g>
   <g id="matplotlib.axis_7">
    <g id="xtick_22">
     <g id="line2d_103">
      <path clip-path="url(#pcea76d88f6)" d="M 31.8 351.133333 
L 31.8 282.9 
" style="fill:none;stroke:#ffffff;stroke-linecap:round;"/>
     </g>
     <g id="line2d_104"/>
     <g id="line2d_105"/>
    </g>
    <g id="xtick_23">
     <g id="line2d_106">
      <path clip-path="url(#pcea76d88f6)" d="M 111.686938 351.133333 
L 111.686938 282.9 
" style="fill:none;stroke:#ffffff;stroke-linecap:round;"/>
     </g>
     <g id="line2d_107"/>
     <g id="line2d_108"/>
    </g>
    <g id="xtick_24">
     <g id="line2d_109">
      <path clip-path="url(#pcea76d88f6)" d="M 191.573876 351.133333 
L 191.573876 282.9 
" style="fill:none;stroke:#ffffff;stroke-linecap:round;"/>
     </g>
     <g id="line2d_110"/>
     <g id="line2d_111"/>
    </g>
    <g id="xtick_25">
     <g id="line2d_112">
      <path clip-path="url(#pcea76d88f6)" d="M 271.460814 351.133333 
L 271.460814 282.9 
" style="fill:none;stroke:#ffffff;stroke-linecap:round;"/>
     </g>
     <g id="line2d_113"/>
     <g id="line2d_114"/>
    </g>
    <g id="xtick_26">
     <g id="line2d_115">
      <path clip-path="url(#pcea76d88f6)" d="M 351.347753 351.133333 
L 351.347753 282.9 
" style="fill:none;stroke:#ffffff;stroke-linecap:round;"/>
     </g>
     <g id="line2d_116"/>
     <g id="line2d_117"/>
    </g>
    <g id="xtick_27">
     <g id="line2d_118">
      <path clip-path="url(#pcea76d88f6)" d="M 431.234691 351.133333 
L 431.234691 282.9 
" style="fill:none;stroke:#ffffff;stroke-linecap:round;"/>
     </g>
     <g id="line2d_119"/>
     <g id="line2d_120"/>
    </g>
    <g id="xtick_28">
     <g id="line2d_121">
      <path clip-path="url(#pcea76d88f6)" d="M 511.121629 351.133333 
L 511.121629 282.9 
" style="fill:none;stroke:#ffffff;stroke-linecap:round;"/>
     </g>
     <g id="line2d_122"/>
     <g id="line2d_123"/>
    </g>
   </g>
   <g id="matplotlib.axis_8">
    <g id="ytick_13">
     <g id="line2d_124">
      <path clip-path="url(#pcea76d88f6)" d="M 31.8 351.133333 
L 511.121629 351.133333 
" style="fill:none;stroke:#ffffff;stroke-linecap:round;"/>
     </g>
     <g id="line2d_125"/>
     <g id="line2d_126"/>
     <g id="text_16">
      <!-- 0.0 -->
      <g style="fill:#262626;" transform="translate(10.9 353.719270833)scale(0.1 -0.1)">
       <use xlink:href="#LiberationSans-30"/>
       <use x="55.615234375" xlink:href="#LiberationSans-2e"/>
       <use x="83.3984375" xlink:href="#LiberationSans-30"/>
      </g>
     </g>
    </g>
    <g id="ytick_14">
     <g id="line2d_127">
      <path clip-path="url(#pcea76d88f6)" d="M 31.8 328.388889 
L 511.121629 328.388889 
" style="fill:none;stroke:#ffffff;stroke-linecap:round;"/>
     </g>
     <g id="line2d_128"/>
     <g id="line2d_129"/>
     <g id="text_17">
      <!-- 0.1 -->
      <g style="fill:#262626;" transform="translate(10.9 330.974826389)scale(0.1 -0.1)">
       <use xlink:href="#LiberationSans-30"/>
       <use x="55.615234375" xlink:href="#LiberationSans-2e"/>
       <use x="83.3984375" xlink:href="#LiberationSans-31"/>
      </g>
     </g>
    </g>
    <g id="ytick_15">
     <g id="line2d_130">
      <path clip-path="url(#pcea76d88f6)" d="M 31.8 305.644444 
L 511.121629 305.644444 
" style="fill:none;stroke:#ffffff;stroke-linecap:round;"/>
     </g>
     <g id="line2d_131"/>
     <g id="line2d_132"/>
     <g id="text_18">
      <!-- 0.2 -->
      <g style="fill:#262626;" transform="translate(10.9 308.230381944)scale(0.1 -0.1)">
       <use xlink:href="#LiberationSans-30"/>
       <use x="55.615234375" xlink:href="#LiberationSans-2e"/>
       <use x="83.3984375" xlink:href="#LiberationSans-32"/>
      </g>
     </g>
    </g>
    <g id="ytick_16">
     <g id="line2d_133">
      <path clip-path="url(#pcea76d88f6)" d="M 31.8 282.9 
L 511.121629 282.9 
" style="fill:none;stroke:#ffffff;stroke-linecap:round;"/>
     </g>
     <g id="line2d_134"/>
     <g id="line2d_135"/>
     <g id="text_19">
      <!-- 0.3 -->
      <g style="fill:#262626;" transform="translate(10.9 285.4859375)scale(0.1 -0.1)">
       <use xlink:href="#LiberationSans-30"/>
       <use x="55.615234375" xlink:href="#LiberationSans-2e"/>
       <use x="83.3984375" xlink:href="#LiberationSans-33"/>
      </g>
     </g>
    </g>
    <g id="text_20">
     <!-- $\beta = 0.6$ -->
     <defs>
      <path d="M 25 -2.203125 
Q 18.796875 -2.203125 14.640625 1.09375 
Q 10.5 4.390625 8.21875 9.640625 
Q 5.953125 14.890625 5.078125 20.65625 
Q 4.203125 26.421875 4.203125 32.328125 
Q 4.203125 40.234375 7.28125 48.1875 
Q 10.359375 56.15625 16.328125 61.375 
Q 22.3125 66.609375 30.515625 66.609375 
Q 33.9375 66.609375 36.890625 65.3125 
Q 39.84375 64.015625 41.53125 61.5 
Q 43.21875 58.984375 43.21875 55.421875 
Q 43.21875 53.375 41.828125 51.984375 
Q 40.4375 50.59375 38.375 50.59375 
Q 36.421875 50.59375 35 52 
Q 33.59375 53.421875 33.59375 55.421875 
Q 33.59375 57.375 35 58.78125 
Q 36.421875 60.203125 38.375 60.203125 
L 38.921875 60.203125 
Q 37.640625 62.015625 35.328125 62.859375 
Q 33.015625 63.71875 30.515625 63.71875 
Q 27.484375 63.71875 24.921875 62.390625 
Q 22.359375 61.078125 20.3125 58.828125 
Q 18.265625 56.59375 16.890625 53.875 
Q 15.53125 51.171875 14.765625 47.703125 
Q 14.015625 44.234375 13.8125 41.203125 
Q 13.625 38.1875 13.625 33.59375 
Q 15.375 37.703125 18.59375 40.3125 
Q 21.828125 42.921875 25.875 42.921875 
Q 30.328125 42.921875 33.984375 41.109375 
Q 37.640625 39.3125 40.28125 36.109375 
Q 42.921875 32.90625 44.3125 28.796875 
Q 45.703125 24.703125 45.703125 20.515625 
Q 45.703125 14.65625 43.09375 9.34375 
Q 40.484375 4.046875 35.734375 0.921875 
Q 31 -2.203125 25 -2.203125 
M 25 0.984375 
Q 28.859375 0.984375 31.203125 2.734375 
Q 33.546875 4.5 34.640625 7.390625 
Q 35.75 10.296875 36.015625 13.25 
Q 36.28125 16.21875 36.28125 20.515625 
Q 36.28125 26.171875 35.734375 30.171875 
Q 35.203125 34.1875 32.8125 37.234375 
Q 30.421875 40.28125 25.484375 40.28125 
Q 21.4375 40.28125 18.828125 37.546875 
Q 16.21875 34.8125 15.015625 30.640625 
Q 13.8125 26.46875 13.8125 22.609375 
Q 13.8125 21.296875 13.921875 20.609375 
Q 13.921875 20.453125 13.890625 20.359375 
Q 13.875 20.265625 13.8125 20.125 
Q 13.8125 15.828125 14.6875 11.421875 
Q 15.578125 7.03125 18.0625 4 
Q 20.5625 0.984375 25 0.984375 
" id="Cmr10-36"/>
     </defs>
     <g style="fill:#262626;" transform="translate(522.62414293 320.338958333)scale(0.14 -0.14)">
      <use transform="translate(0.0 0.484375)" xlink:href="#Cmmi10-af"/>
      <use transform="translate(74.052734375 0.484375)" xlink:href="#Cmr10-3d"/>
      <use transform="translate(169.296875 0.484375)" xlink:href="#Cmr10-30"/>
      <use transform="translate(219.296875 0.484375)" xlink:href="#Cmmi10-3a"/>
      <use transform="translate(264.541015625 0.484375)" xlink:href="#Cmr10-36"/>
     </g>
    </g>
   </g>
   <g id="line2d_136">
    <path clip-path="url(#pcea76d88f6)" d="M 31.8 351.133333 
L 84.790331 351.057066 
L 94.424936 350.815836 
L 99.242239 350.537018 
L 104.059542 350.073507 
L 108.876845 349.350884 
L 113.694148 348.29657 
L 118.51145 346.861127 
L 123.328753 345.044912 
L 128.146056 342.922627 
L 137.780662 338.480081 
L 140.189313 337.513488 
L 142.597964 336.674009 
L 145.006616 335.993201 
L 147.415267 335.497639 
L 149.823919 335.207194 
L 152.23257 335.133713 
L 154.641221 335.280216 
L 157.049873 335.64069 
L 159.458524 336.200501 
L 161.867176 336.937376 
L 166.684478 338.824207 
L 173.910433 342.172162 
L 178.727735 344.36494 
L 183.545038 346.295735 
L 188.362341 347.861453 
L 193.179644 349.039278 
L 197.996947 349.86509 
L 202.81425 350.406491 
L 207.631552 350.739148 
L 214.857507 350.991383 
L 226.900764 351.113701 
L 270.256489 351.133332 
L 323.24682 351.031128 
L 330.472774 350.820877 
L 335.290077 350.519059 
L 340.107379 349.990564 
L 344.924682 349.121564 
L 347.333334 348.518785 
L 349.741985 347.781973 
L 352.150636 346.896402 
L 354.559288 345.850249 
L 356.967939 344.636085 
L 359.376591 343.252407 
L 361.785242 341.705088 
L 366.602545 338.186738 
L 378.645802 328.665071 
L 381.054453 327.063683 
L 383.463105 325.701604 
L 385.871756 324.630772 
L 388.280407 323.893425 
L 390.689059 323.519337 
L 393.09771 323.523822 
L 395.506362 323.906695 
L 397.915013 324.652287 
L 400.323664 325.730503 
L 402.732316 327.098844 
L 405.140967 328.705179 
L 409.95827 332.395115 
L 417.184224 338.230824 
L 422.001527 341.743296 
L 424.410178 343.286894 
L 426.81883 344.666618 
L 429.227481 345.876784 
L 431.636133 346.919052 
L 434.044784 347.800971 
L 436.453435 348.534451 
L 438.862087 349.134268 
L 443.67939 349.998518 
L 448.496692 350.523731 
L 453.313995 350.823455 
L 460.539949 351.03207 
L 474.991858 351.125884 
L 511.121629 351.133332 
L 511.121629 351.133332 
" style="fill:none;stroke:#721f81;stroke-linecap:round;stroke-width:1.75;"/>
   </g>
   <g id="patch_18">
    <path d="M 31.8 282.9 
L 511.121629 282.9 
" style="fill:none;"/>
   </g>
   <g id="patch_19">
    <path d="M 511.121629 351.133333 
L 511.121629 282.9 
" style="fill:none;"/>
   </g>
   <g id="patch_20">
    <path d="M 31.8 351.133333 
L 511.121629 351.133333 
" style="fill:none;"/>
   </g>
   <g id="patch_21">
    <path d="M 31.8 351.133333 
L 31.8 282.9 
" style="fill:none;"/>
   </g>
  </g>
  <g id="axes_5">
   <g id="patch_22">
    <path d="M 31.8 440.166667 
L 511.121629 440.166667 
L 511.121629 371.933333 
L 31.8 371.933333 
z
" style="fill:#eaeaf2;"/>
   </g>
   <g id="matplotlib.axis_9">
    <g id="xtick_29">
     <g id="line2d_137">
      <path clip-path="url(#pfc23b0cc51)" d="M 31.8 440.166667 
L 31.8 371.933333 
" style="fill:none;stroke:#ffffff;stroke-linecap:round;"/>
     </g>
     <g id="line2d_138"/>
     <g id="line2d_139"/>
    </g>
    <g id="xtick_30">
     <g id="line2d_140">
      <path clip-path="url(#pfc23b0cc51)" d="M 111.686938 440.166667 
L 111.686938 371.933333 
" style="fill:none;stroke:#ffffff;stroke-linecap:round;"/>
     </g>
     <g id="line2d_141"/>
     <g id="line2d_142"/>
    </g>
    <g id="xtick_31">
     <g id="line2d_143">
      <path clip-path="url(#pfc23b0cc51)" d="M 191.573876 440.166667 
L 191.573876 371.933333 
" style="fill:none;stroke:#ffffff;stroke-linecap:round;"/>
     </g>
     <g id="line2d_144"/>
     <g id="line2d_145"/>
    </g>
    <g id="xtick_32">
     <g id="line2d_146">
      <path clip-path="url(#pfc23b0cc51)" d="M 271.460814 440.166667 
L 271.460814 371.933333 
" style="fill:none;stroke:#ffffff;stroke-linecap:round;"/>
     </g>
     <g id="line2d_147"/>
     <g id="line2d_148"/>
    </g>
    <g id="xtick_33">
     <g id="line2d_149">
      <path clip-path="url(#pfc23b0cc51)" d="M 351.347753 440.166667 
L 351.347753 371.933333 
" style="fill:none;stroke:#ffffff;stroke-linecap:round;"/>
     </g>
     <g id="line2d_150"/>
     <g id="line2d_151"/>
    </g>
    <g id="xtick_34">
     <g id="line2d_152">
      <path clip-path="url(#pfc23b0cc51)" d="M 431.234691 440.166667 
L 431.234691 371.933333 
" style="fill:none;stroke:#ffffff;stroke-linecap:round;"/>
     </g>
     <g id="line2d_153"/>
     <g id="line2d_154"/>
    </g>
    <g id="xtick_35">
     <g id="line2d_155">
      <path clip-path="url(#pfc23b0cc51)" d="M 511.121629 440.166667 
L 511.121629 371.933333 
" style="fill:none;stroke:#ffffff;stroke-linecap:round;"/>
     </g>
     <g id="line2d_156"/>
     <g id="line2d_157"/>
    </g>
   </g>
   <g id="matplotlib.axis_10">
    <g id="ytick_17">
     <g id="line2d_158">
      <path clip-path="url(#pfc23b0cc51)" d="M 31.8 440.166667 
L 511.121629 440.166667 
" style="fill:none;stroke:#ffffff;stroke-linecap:round;"/>
     </g>
     <g id="line2d_159"/>
     <g id="line2d_160"/>
     <g id="text_21">
      <!-- 0.0 -->
      <g style="fill:#262626;" transform="translate(10.9 442.752604167)scale(0.1 -0.1)">
       <use xlink:href="#LiberationSans-30"/>
       <use x="55.615234375" xlink:href="#LiberationSans-2e"/>
       <use x="83.3984375" xlink:href="#LiberationSans-30"/>
      </g>
     </g>
    </g>
    <g id="ytick_18">
     <g id="line2d_161">
      <path clip-path="url(#pfc23b0cc51)" d="M 31.8 417.422222 
L 511.121629 417.422222 
" style="fill:none;stroke:#ffffff;stroke-linecap:round;"/>
     </g>
     <g id="line2d_162"/>
     <g id="line2d_163"/>
     <g id="text_22">
      <!-- 0.1 -->
      <g style="fill:#262626;" transform="translate(10.9 420.008159722)scale(0.1 -0.1)">
       <use xlink:href="#LiberationSans-30"/>
       <use x="55.615234375" xlink:href="#LiberationSans-2e"/>
       <use x="83.3984375" xlink:href="#LiberationSans-31"/>
      </g>
     </g>
    </g>
    <g id="ytick_19">
     <g id="line2d_164">
      <path clip-path="url(#pfc23b0cc51)" d="M 31.8 394.677778 
L 511.121629 394.677778 
" style="fill:none;stroke:#ffffff;stroke-linecap:round;"/>
     </g>
     <g id="line2d_165"/>
     <g id="line2d_166"/>
     <g id="text_23">
      <!-- 0.2 -->
      <g style="fill:#262626;" transform="translate(10.9 397.263715278)scale(0.1 -0.1)">
       <use xlink:href="#LiberationSans-30"/>
       <use x="55.615234375" xlink:href="#LiberationSans-2e"/>
       <use x="83.3984375" xlink:href="#LiberationSans-32"/>
      </g>
     </g>
    </g>
    <g id="ytick_20">
     <g id="line2d_167">
      <path clip-path="url(#pfc23b0cc51)" d="M 31.8 371.933333 
L 511.121629 371.933333 
" style="fill:none;stroke:#ffffff;stroke-linecap:round;"/>
     </g>
     <g id="line2d_168"/>
     <g id="line2d_169"/>
     <g id="text_24">
      <!-- 0.3 -->
      <g style="fill:#262626;" transform="translate(10.9 374.519270833)scale(0.1 -0.1)">
       <use xlink:href="#LiberationSans-30"/>
       <use x="55.615234375" xlink:href="#LiberationSans-2e"/>
       <use x="83.3984375" xlink:href="#LiberationSans-33"/>
      </g>
     </g>
    </g>
    <g id="text_25">
     <!-- $\beta = 0.8$ -->
     <defs>
      <path d="M 4.203125 15.1875 
Q 4.203125 21.1875 8.15625 25.796875 
Q 12.109375 30.421875 18.3125 33.5 
L 14.59375 35.890625 
Q 11.1875 38.140625 9.03125 41.875 
Q 6.890625 45.609375 6.890625 49.703125 
Q 6.890625 54.5 9.40625 58.34375 
Q 11.921875 62.203125 16.09375 64.40625 
Q 20.265625 66.609375 25 66.609375 
Q 29.4375 66.609375 33.5625 64.796875 
Q 37.703125 62.984375 40.359375 59.609375 
Q 43.015625 56.25 43.015625 51.609375 
Q 43.015625 48.25 41.421875 45.359375 
Q 39.84375 42.484375 37.078125 40.1875 
Q 34.328125 37.890625 31.203125 36.28125 
L 36.921875 32.625 
Q 40.875 30.03125 43.28125 25.828125 
Q 45.703125 21.625 45.703125 17 
Q 45.703125 11.578125 42.796875 7.125 
Q 39.890625 2.6875 35.109375 0.234375 
Q 30.328125 -2.203125 25 -2.203125 
Q 19.828125 -2.203125 15.015625 -0.09375 
Q 10.203125 2 7.203125 5.984375 
Q 4.203125 9.96875 4.203125 15.1875 
M 9.625 15.1875 
Q 9.625 11.234375 11.796875 7.953125 
Q 13.96875 4.6875 17.53125 2.828125 
Q 21.09375 0.984375 25 0.984375 
Q 30.8125 0.984375 35.546875 4.375 
Q 40.28125 7.765625 40.28125 13.375 
Q 40.28125 15.28125 39.515625 17.15625 
Q 38.765625 19.046875 37.421875 20.578125 
Q 36.078125 22.125 34.421875 23.09375 
L 21 31.78125 
Q 17.875 30.125 15.25 27.578125 
Q 12.640625 25.046875 11.125 21.875 
Q 9.625 18.703125 9.625 15.1875 
M 16.5 45.703125 
L 28.609375 37.890625 
Q 32.8125 40.328125 35.5 43.796875 
Q 38.1875 47.265625 38.1875 51.609375 
Q 38.1875 54.984375 36.296875 57.78125 
Q 34.421875 60.59375 31.390625 62.15625 
Q 28.375 63.71875 24.90625 63.71875 
Q 21.875 63.71875 18.796875 62.546875 
Q 15.71875 61.375 13.71875 59.046875 
Q 11.71875 56.734375 11.71875 53.609375 
Q 11.71875 48.921875 16.5 45.703125 
" id="Cmr10-38"/>
     </defs>
     <g style="fill:#262626;" transform="translate(522.62414293 409.372291667)scale(0.14 -0.14)">
      <use transform="translate(0.0 0.484375)" xlink:href="#Cmmi10-af"/>
      <use transform="translate(74.052734375 0.484375)" xlink:href="#Cmr10-3d"/>
      <use transform="translate(169.296875 0.484375)" xlink:href="#Cmr10-30"/>
      <use transform="translate(219.296875 0.484375)" xlink:href="#Cmmi10-3a"/>
      <use transform="translate(264.541015625 0.484375)" xlink:href="#Cmr10-38"/>
     </g>
    </g>
   </g>
   <g id="line2d_170">
    <path clip-path="url(#pfc23b0cc51)" d="M 31.8 440.166667 
L 92.016285 440.064261 
L 99.242239 439.808397 
L 104.059542 439.413066 
L 108.876845 438.693188 
L 111.285496 438.161978 
L 113.694148 437.48862 
L 116.102799 436.653838 
L 118.51145 435.642238 
L 120.920102 434.444791 
L 123.328753 433.061391 
L 125.737405 431.503207 
L 130.554707 427.97352 
L 137.780662 422.414083 
L 140.189313 420.767671 
L 142.597964 419.352223 
L 145.006616 418.237697 
L 147.415267 417.481627 
L 149.823919 417.124213 
L 152.23257 417.184774 
L 154.641221 417.660023 
L 157.049873 418.52436 
L 159.458524 419.732156 
L 161.867176 421.221745 
L 166.684478 424.75131 
L 173.910433 430.300378 
L 176.319084 431.969011 
L 178.727735 433.478711 
L 181.136387 434.809132 
L 183.545038 435.952571 
L 185.95369 436.911961 
L 188.362341 437.698429 
L 190.770993 438.328732 
L 193.179644 438.822847 
L 197.996947 439.486576 
L 202.81425 439.84673 
L 210.040204 440.076651 
L 222.083461 440.15912 
L 308.794911 440.166026 
L 330.472774 440.073934 
L 337.698728 439.816182 
L 342.516031 439.390482 
L 344.924682 439.0428 
L 347.333334 438.56883 
L 349.741985 437.936086 
L 352.150636 437.109133 
L 354.559288 436.051452 
L 356.967939 434.728136 
L 359.376591 433.109367 
L 361.785242 431.17452 
L 364.193893 428.916574 
L 366.602545 426.346391 
L 369.011196 423.496299 
L 373.828499 417.204875 
L 378.645802 410.767306 
L 381.054453 407.799421 
L 383.463105 405.176864 
L 385.871756 403.026392 
L 388.280407 401.457252 
L 390.689059 400.552002 
L 393.09771 400.35932 
L 395.506362 400.889662 
L 397.915013 402.114327 
L 400.323664 403.968027 
L 402.732316 406.354655 
L 405.140967 409.155532 
L 409.95827 415.471352 
L 414.775573 421.886381 
L 417.184224 424.863934 
L 419.592876 427.588339 
L 422.001527 430.014829 
L 424.410178 432.121513 
L 426.81883 433.906414 
L 429.227481 435.38348 
L 431.636133 436.578186 
L 434.044784 437.523213 
L 436.453435 438.25461 
L 438.862087 438.808673 
L 443.67939 439.518189 
L 448.496692 439.878818 
L 455.722647 440.092437 
L 470.174555 440.163652 
L 511.121629 440.166667 
L 511.121629 440.166667 
" style="fill:none;stroke:#2c115f;stroke-linecap:round;stroke-width:1.75;"/>
   </g>
   <g id="patch_23">
    <path d="M 31.8 371.933333 
L 511.121629 371.933333 
" style="fill:none;"/>
   </g>
   <g id="patch_24">
    <path d="M 511.121629 440.166667 
L 511.121629 371.933333 
" style="fill:none;"/>
   </g>
   <g id="patch_25">
    <path d="M 31.8 440.166667 
L 511.121629 440.166667 
" style="fill:none;"/>
   </g>
   <g id="patch_26">
    <path d="M 31.8 440.166667 
L 31.8 371.933333 
" style="fill:none;"/>
   </g>
  </g>
  <g id="axes_6">
   <g id="patch_27">
    <path d="M 31.8 529.2 
L 511.121629 529.2 
L 511.121629 460.966667 
L 31.8 460.966667 
z
" style="fill:#eaeaf2;"/>
   </g>
   <g id="matplotlib.axis_11">
    <g id="xtick_36">
     <g id="line2d_171">
      <path clip-path="url(#p44a553a82f)" d="M 31.8 529.2 
L 31.8 460.966667 
" style="fill:none;stroke:#ffffff;stroke-linecap:round;"/>
     </g>
     <g id="line2d_172"/>
     <g id="line2d_173"/>
     <g id="text_26">
      <!-- 15 -->
      <defs>
       <path d="M 4.9375 29.6875 
L 4.9375 36.8125 
L 53.515625 36.8125 
L 53.515625 29.6875 
z
" id="LiberationSans-2212"/>
       <path d="M 51.421875 22.40625 
Q 51.421875 17.234375 49.859375 12.9375 
Q 48.296875 8.640625 45.21875 5.53125 
Q 42.140625 2.4375 37.578125 0.71875 
Q 33.015625 -0.984375 27 -0.984375 
Q 21.578125 -0.984375 17.546875 0.28125 
Q 13.53125 1.5625 10.734375 3.78125 
Q 7.953125 6 6.3125 8.984375 
Q 4.6875 11.96875 4 15.375 
L 12.890625 16.40625 
Q 13.421875 14.453125 14.390625 12.625 
Q 15.375 10.796875 17.0625 9.34375 
Q 18.75 7.90625 21.21875 7.046875 
Q 23.6875 6.203125 27.203125 6.203125 
Q 30.609375 6.203125 33.390625 7.25 
Q 36.1875 8.296875 38.15625 10.34375 
Q 40.140625 12.40625 41.203125 15.375 
Q 42.28125 18.359375 42.28125 22.21875 
Q 42.28125 25.390625 41.25 28.046875 
Q 40.234375 30.71875 38.328125 32.640625 
Q 36.421875 34.578125 33.65625 35.640625 
Q 30.90625 36.71875 27.390625 36.71875 
Q 25.203125 36.71875 23.34375 36.328125 
Q 21.484375 35.9375 19.890625 35.25 
Q 18.3125 34.578125 17.015625 33.671875 
Q 15.71875 32.765625 14.59375 31.78125 
L 6 31.78125 
L 8.296875 68.796875 
L 47.40625 68.796875 
L 47.40625 61.328125 
L 16.3125 61.328125 
L 14.984375 39.5 
Q 17.328125 41.3125 20.84375 42.59375 
Q 24.359375 43.890625 29.203125 43.890625 
Q 34.328125 43.890625 38.421875 42.328125 
Q 42.53125 40.765625 45.40625 37.90625 
Q 48.296875 35.0625 49.859375 31.109375 
Q 51.421875 27.15625 51.421875 22.40625 
" id="LiberationSans-35"/>
      </defs>
      <g style="fill:#262626;" transform="translate(23.31875 543.446875)scale(0.1 -0.1)">
       <use xlink:href="#LiberationSans-2212"/>
       <use x="58.3984375" xlink:href="#LiberationSans-31"/>
       <use x="114.013671875" xlink:href="#LiberationSans-35"/>
      </g>
     </g>
    </g>
    <g id="xtick_37">
     <g id="line2d_174">
      <path clip-path="url(#p44a553a82f)" d="M 111.686938 529.2 
L 111.686938 460.966667 
" style="fill:none;stroke:#ffffff;stroke-linecap:round;"/>
     </g>
     <g id="line2d_175"/>
     <g id="line2d_176"/>
     <g id="text_27">
      <!-- 10 -->
      <g style="fill:#262626;" transform="translate(103.205688151 543.446875)scale(0.1 -0.1)">
       <use xlink:href="#LiberationSans-2212"/>
       <use x="58.3984375" xlink:href="#LiberationSans-31"/>
       <use x="114.013671875" xlink:href="#LiberationSans-30"/>
      </g>
     </g>
    </g>
    <g id="xtick_38">
     <g id="line2d_177">
      <path clip-path="url(#p44a553a82f)" d="M 191.573876 529.2 
L 191.573876 460.966667 
" style="fill:none;stroke:#ffffff;stroke-linecap:round;"/>
     </g>
     <g id="line2d_178"/>
     <g id="line2d_179"/>
     <g id="text_28">
      <!-- 5 -->
      <g style="fill:#262626;" transform="translate(185.873095052 543.446875)scale(0.1 -0.1)">
       <use xlink:href="#LiberationSans-2212"/>
       <use x="58.3984375" xlink:href="#LiberationSans-35"/>
      </g>
     </g>
    </g>
    <g id="xtick_39">
     <g id="line2d_180">
      <path clip-path="url(#p44a553a82f)" d="M 271.460814 529.2 
L 271.460814 460.966667 
" style="fill:none;stroke:#ffffff;stroke-linecap:round;"/>
     </g>
     <g id="line2d_181"/>
     <g id="line2d_182"/>
     <g id="text_29">
      <!-- 0 -->
      <g style="fill:#262626;" transform="translate(268.680345703 543.446875)scale(0.1 -0.1)">
       <use xlink:href="#LiberationSans-30"/>
      </g>
     </g>
    </g>
    <g id="xtick_40">
     <g id="line2d_183">
      <path clip-path="url(#p44a553a82f)" d="M 351.347753 529.2 
L 351.347753 460.966667 
" style="fill:none;stroke:#ffffff;stroke-linecap:round;"/>
     </g>
     <g id="line2d_184"/>
     <g id="line2d_185"/>
     <g id="text_30">
      <!-- 5 -->
      <g style="fill:#262626;" transform="translate(348.567283854 543.446875)scale(0.1 -0.1)">
       <use xlink:href="#LiberationSans-35"/>
      </g>
     </g>
    </g>
    <g id="xtick_41">
     <g id="line2d_186">
      <path clip-path="url(#p44a553a82f)" d="M 431.234691 529.2 
L 431.234691 460.966667 
" style="fill:none;stroke:#ffffff;stroke-linecap:round;"/>
     </g>
     <g id="line2d_187"/>
     <g id="line2d_188"/>
     <g id="text_31">
      <!-- 10 -->
      <g style="fill:#262626;" transform="translate(425.673753255 543.446875)scale(0.1 -0.1)">
       <use xlink:href="#LiberationSans-31"/>
       <use x="55.615234375" xlink:href="#LiberationSans-30"/>
      </g>
     </g>
    </g>
    <g id="xtick_42">
     <g id="line2d_189">
      <path clip-path="url(#p44a553a82f)" d="M 511.121629 529.2 
L 511.121629 460.966667 
" style="fill:none;stroke:#ffffff;stroke-linecap:round;"/>
     </g>
     <g id="line2d_190"/>
     <g id="line2d_191"/>
     <g id="text_32">
      <!-- 15 -->
      <g style="fill:#262626;" transform="translate(505.560691406 543.446875)scale(0.1 -0.1)">
       <use xlink:href="#LiberationSans-31"/>
       <use x="55.615234375" xlink:href="#LiberationSans-35"/>
      </g>
     </g>
    </g>
    <g id="text_33">
     <!-- $x$ -->
     <defs>
      <path d="M 7.8125 2.875 
Q 9.578125 1.515625 12.796875 1.515625 
Q 15.921875 1.515625 18.3125 4.515625 
Q 20.703125 7.515625 21.578125 11.078125 
L 26.125 28.8125 
Q 27.203125 33.640625 27.203125 35.40625 
Q 27.203125 37.890625 25.8125 39.75 
Q 24.421875 41.609375 21.921875 41.609375 
Q 18.75 41.609375 15.96875 39.625 
Q 13.1875 37.640625 11.28125 34.59375 
Q 9.375 31.546875 8.59375 28.421875 
Q 8.40625 27.78125 7.8125 27.78125 
L 6.59375 27.78125 
Q 5.8125 27.78125 5.8125 28.71875 
L 5.8125 29 
Q 6.78125 32.71875 9.125 36.25 
Q 11.46875 39.796875 14.859375 41.984375 
Q 18.265625 44.1875 22.125 44.1875 
Q 25.78125 44.1875 28.734375 42.234375 
Q 31.6875 40.28125 32.90625 36.921875 
Q 34.625 39.984375 37.28125 42.078125 
Q 39.9375 44.1875 43.109375 44.1875 
Q 45.265625 44.1875 47.5 43.421875 
Q 49.75 42.671875 51.171875 41.109375 
Q 52.59375 39.546875 52.59375 37.203125 
Q 52.59375 34.671875 50.953125 32.828125 
Q 49.3125 31 46.78125 31 
Q 45.171875 31 44.09375 32.03125 
Q 43.015625 33.0625 43.015625 34.625 
Q 43.015625 36.71875 44.453125 38.296875 
Q 45.90625 39.890625 47.90625 40.1875 
Q 46.09375 41.609375 42.921875 41.609375 
Q 39.703125 41.609375 37.328125 38.625 
Q 34.96875 35.640625 33.984375 31.984375 
L 29.59375 14.3125 
Q 28.515625 10.296875 28.515625 7.71875 
Q 28.515625 5.171875 29.953125 3.34375 
Q 31.390625 1.515625 33.796875 1.515625 
Q 38.484375 1.515625 42.15625 5.640625 
Q 45.84375 9.765625 47.015625 14.703125 
Q 47.21875 15.28125 47.796875 15.28125 
L 49.03125 15.28125 
Q 49.421875 15.28125 49.65625 15.015625 
Q 49.90625 14.75 49.90625 14.40625 
Q 49.90625 14.3125 49.8125 14.109375 
Q 48.390625 8.15625 43.84375 3.515625 
Q 39.3125 -1.125 33.59375 -1.125 
Q 29.9375 -1.125 26.984375 0.84375 
Q 24.03125 2.828125 22.796875 6.203125 
Q 21.234375 3.265625 18.46875 1.0625 
Q 15.71875 -1.125 12.59375 -1.125 
Q 10.453125 -1.125 8.171875 -0.359375 
Q 5.90625 0.390625 4.484375 1.953125 
Q 3.078125 3.515625 3.078125 5.90625 
Q 3.078125 8.25 4.703125 10.171875 
Q 6.34375 12.109375 8.796875 12.109375 
Q 10.453125 12.109375 11.578125 11.109375 
Q 12.703125 10.109375 12.703125 8.5 
Q 12.703125 6.390625 11.296875 4.828125 
Q 9.90625 3.265625 7.8125 2.875 
" id="Cmmi10-78"/>
     </defs>
     <g style="fill:#262626;" transform="translate(267.400814453 560.6675)scale(0.14 -0.14)">
      <use transform="translate(0.0 0.8125)" xlink:href="#Cmmi10-78"/>
     </g>
    </g>
   </g>
   <g id="matplotlib.axis_12">
    <g id="ytick_21">
     <g id="line2d_192">
      <path clip-path="url(#p44a553a82f)" d="M 31.8 529.2 
L 511.121629 529.2 
" style="fill:none;stroke:#ffffff;stroke-linecap:round;"/>
     </g>
     <g id="line2d_193"/>
     <g id="line2d_194"/>
     <g id="text_34">
      <!-- 0.0 -->
      <g style="fill:#262626;" transform="translate(10.9 531.7859375)scale(0.1 -0.1)">
       <use xlink:href="#LiberationSans-30"/>
       <use x="55.615234375" xlink:href="#LiberationSans-2e"/>
       <use x="83.3984375" xlink:href="#LiberationSans-30"/>
      </g>
     </g>
    </g>
    <g id="ytick_22">
     <g id="line2d_195">
      <path clip-path="url(#p44a553a82f)" d="M 31.8 506.455556 
L 511.121629 506.455556 
" style="fill:none;stroke:#ffffff;stroke-linecap:round;"/>
     </g>
     <g id="line2d_196"/>
     <g id="line2d_197"/>
     <g id="text_35">
      <!-- 0.1 -->
      <g style="fill:#262626;" transform="translate(10.9 509.041493056)scale(0.1 -0.1)">
       <use xlink:href="#LiberationSans-30"/>
       <use x="55.615234375" xlink:href="#LiberationSans-2e"/>
       <use x="83.3984375" xlink:href="#LiberationSans-31"/>
      </g>
     </g>
    </g>
    <g id="ytick_23">
     <g id="line2d_198">
      <path clip-path="url(#p44a553a82f)" d="M 31.8 483.711111 
L 511.121629 483.711111 
" style="fill:none;stroke:#ffffff;stroke-linecap:round;"/>
     </g>
     <g id="line2d_199"/>
     <g id="line2d_200"/>
     <g id="text_36">
      <!-- 0.2 -->
      <g style="fill:#262626;" transform="translate(10.9 486.297048611)scale(0.1 -0.1)">
       <use xlink:href="#LiberationSans-30"/>
       <use x="55.615234375" xlink:href="#LiberationSans-2e"/>
       <use x="83.3984375" xlink:href="#LiberationSans-32"/>
      </g>
     </g>
    </g>
    <g id="ytick_24">
     <g id="line2d_201">
      <path clip-path="url(#p44a553a82f)" d="M 31.8 460.966667 
L 511.121629 460.966667 
" style="fill:none;stroke:#ffffff;stroke-linecap:round;"/>
     </g>
     <g id="line2d_202"/>
     <g id="line2d_203"/>
     <g id="text_37">
      <!-- 0.3 -->
      <g style="fill:#262626;" transform="translate(10.9 463.552604167)scale(0.1 -0.1)">
       <use xlink:href="#LiberationSans-30"/>
       <use x="55.615234375" xlink:href="#LiberationSans-2e"/>
       <use x="83.3984375" xlink:href="#LiberationSans-33"/>
      </g>
     </g>
    </g>
    <g id="text_38">
     <!-- $\beta = 1.0$ -->
     <defs>
      <path d="M 9.28125 0 
L 9.28125 3.515625 
Q 21.78125 3.515625 21.78125 6.6875 
L 21.78125 59.1875 
Q 16.609375 56.6875 8.6875 56.6875 
L 8.6875 60.203125 
Q 20.953125 60.203125 27.203125 66.609375 
L 28.609375 66.609375 
Q 28.953125 66.609375 29.265625 66.328125 
Q 29.59375 66.0625 29.59375 65.71875 
L 29.59375 6.6875 
Q 29.59375 3.515625 42.09375 3.515625 
L 42.09375 0 
z
" id="Cmr10-31"/>
     </defs>
     <g style="fill:#262626;" transform="translate(522.62414293 498.405625)scale(0.14 -0.14)">
      <use transform="translate(0.0 0.484375)" xlink:href="#Cmmi10-af"/>
      <use transform="translate(74.052734375 0.484375)" xlink:href="#Cmr10-3d"/>
      <use transform="translate(169.296875 0.484375)" xlink:href="#Cmr10-31"/>
      <use transform="translate(219.296875 0.484375)" xlink:href="#Cmmi10-3a"/>
      <use transform="translate(264.541015625 0.484375)" xlink:href="#Cmr10-30"/>
     </g>
    </g>
   </g>
   <g id="line2d_204">
    <path clip-path="url(#p44a553a82f)" d="M 31.8 529.2 
L 94.424936 529.121048 
L 101.650891 528.856497 
L 106.468193 528.382864 
L 108.876845 527.981935 
L 111.285496 527.425088 
L 113.694148 526.671791 
L 116.102799 525.679704 
L 118.51145 524.408458 
L 120.920102 522.82469 
L 123.328753 520.90804 
L 125.737405 518.657514 
L 128.146056 516.097361 
L 132.963359 510.294854 
L 137.780662 504.293025 
L 140.189313 501.569653 
L 142.597964 499.237254 
L 145.006616 497.438076 
L 147.415267 496.287421 
L 149.823919 495.861432 
L 152.23257 496.188755 
L 154.641221 497.247358 
L 157.049873 498.966977 
L 159.458524 501.236838 
L 161.867176 503.917448 
L 171.501781 515.739579 
L 173.910433 518.337172 
L 176.319084 520.630469 
L 178.727735 522.591527 
L 181.136387 524.218328 
L 183.545038 525.529045 
L 185.95369 526.555687 
L 188.362341 527.338013 
L 190.770993 527.918347 
L 193.179644 528.33763 
L 197.996947 528.835304 
L 202.81425 529.059173 
L 212.448855 529.184013 
L 253.395929 529.2 
L 335.290077 529.114516 
L 340.107379 528.957558 
L 344.924682 528.572156 
L 347.333334 528.223509 
L 349.741985 527.715382 
L 352.150636 526.993565 
L 354.559288 525.994488 
L 356.967939 524.647671 
L 359.376591 522.880251 
L 361.785242 520.62378 
L 364.193893 517.823153 
L 366.602545 514.447085 
L 369.011196 510.499049 
L 371.419848 506.02715 
L 373.828499 501.131117 
L 381.054453 485.674706 
L 383.463105 481.05989 
L 385.871756 477.152201 
L 388.280407 474.191783 
L 390.689059 472.36934 
L 393.09771 471.805835 
L 395.506362 472.539199 
L 397.915013 474.520114 
L 400.323664 477.617498 
L 402.732316 481.63285 
L 405.140967 486.321283 
L 414.775573 506.643092 
L 417.184224 511.050535 
L 419.592876 514.924939 
L 422.001527 518.224557 
L 424.410178 520.951099 
L 426.81883 523.139618 
L 429.227481 524.847549 
L 431.636133 526.144392 
L 434.044784 527.103034 
L 436.453435 527.793256 
L 438.862087 528.277496 
L 443.67939 528.829434 
L 448.496692 529.064081 
L 458.131298 529.186079 
L 503.895675 529.2 
L 511.121629 529.2 
L 511.121629 529.2 
" style="fill:none;stroke:#000004;stroke-linecap:round;stroke-width:1.75;"/>
   </g>
   <g id="patch_28">
    <path d="M 31.8 460.966667 
L 511.121629 460.966667 
" style="fill:none;"/>
   </g>
   <g id="patch_29">
    <path d="M 511.121629 529.2 
L 511.121629 460.966667 
" style="fill:none;"/>
   </g>
   <g id="patch_30">
    <path d="M 31.8 529.2 
L 511.121629 529.2 
" style="fill:none;"/>
   </g>
   <g id="patch_31">
    <path d="M 31.8 529.2 
L 31.8 460.966667 
" style="fill:none;"/>
   </g>
  </g>
 </g>
 <defs>
  <clipPath id="p13123721d8">
   <rect height="68.2333333333" width="479.321628906" x="31.8" y="104.833333333"/>
  </clipPath>
  <clipPath id="p44a553a82f">
   <rect height="68.2333333333" width="479.321628906" x="31.8" y="460.966666667"/>
  </clipPath>
  <clipPath id="pcea76d88f6">
   <rect height="68.2333333333" width="479.321628906" x="31.8" y="282.9"/>
  </clipPath>
  <clipPath id="pce95deebca">
   <rect height="68.2333333333" width="479.321628906" x="31.8" y="15.8"/>
  </clipPath>
  <clipPath id="p2d8850a0d6">
   <rect height="68.2333333333" width="479.321628906" x="31.8" y="193.866666667"/>
  </clipPath>
  <clipPath id="pfc23b0cc51">
   <rect height="68.2333333333" width="479.321628906" x="31.8" y="371.933333333"/>
  </clipPath>
 </defs>
</svg>
