<?xml version="1.0" encoding="UTF-8" standalone="no"?>
<!-- Created with matplotlib (http://matplotlib.org/) -->

<svg
   xmlns:dc="http://purl.org/dc/elements/1.1/"
   xmlns:cc="http://creativecommons.org/ns#"
   xmlns:rdf="http://www.w3.org/1999/02/22-rdf-syntax-ns#"
   xmlns:svg="http://www.w3.org/2000/svg"
   xmlns="http://www.w3.org/2000/svg"
   xmlns:xlink="http://www.w3.org/1999/xlink"
   xmlns:sodipodi="http://sodipodi.sourceforge.net/DTD/sodipodi-0.dtd"
   xmlns:inkscape="http://www.inkscape.org/namespaces/inkscape"
   height="185pt"
   version="1.1"
   viewBox="0 0 413 185"
   width="413pt"
   id="svg2"
   inkscape:version="0.91 r13725"
   sodipodi:docname="inv-temp-control-func.svg">
  <metadata
     id="metadata244">
    <rdf:RDF>
      <cc:Work
         rdf:about="">
        <dc:format>image/svg+xml</dc:format>
        <dc:type
           rdf:resource="http://purl.org/dc/dcmitype/StillImage" />
      </cc:Work>
    </rdf:RDF>
  </metadata>
  <sodipodi:namedview
     pagecolor="#ffffff"
     bordercolor="#666666"
     borderopacity="1"
     objecttolerance="10"
     gridtolerance="10"
     guidetolerance="10"
     inkscape:pageopacity="0"
     inkscape:pageshadow="2"
     inkscape:window-width="1366"
     inkscape:window-height="695"
     id="namedview242"
     showgrid="false"
     inkscape:zoom="0.97522524"
     inkscape:cx="118.91277"
     inkscape:cy="103.41984"
     inkscape:window-x="0"
     inkscape:window-y="27"
     inkscape:window-maximized="1"
     inkscape:current-layer="svg2" />
  <defs
     id="defs4">
    <style
       type="text/css"
       id="style6">
*{stroke-linecap:butt;stroke-linejoin:round;stroke-miterlimit:100000;}
  </style>
  </defs>
  <g
     id="figure_1">
    <g
       id="axes_1">
      <g
         id="patch_2">
        <path
           d="M 32.479359 143.784  L 413.266543 143.784  L 413.266543 0  L 32.479359 0  z "
           style="fill:#ffffff;"
           id="path14" />
      </g>
      <g
         id="matplotlib.axis_1">
        <g
           id="xtick_1">
          <g
             id="line2d_1" />
          <g
             id="line2d_2" />
          <g
             id="text_1">
            <!-- $-\theta_2$ -->
            <defs
               id="defs21">
              <path
                 d="M 16.109375 -1.125  Q 11.578125 -1.125 8.84375 2.1875  Q 6.109375 5.515625 5.046875 10.203125  Q 4 14.890625 4 19.484375  L 4 19.578125  Q 4 24.5625 4.953125 29.921875  Q 5.90625 35.296875 7.703125 40.640625  Q 9.515625 46 11.625 50.203125  Q 13.09375 53.125 15.40625 56.734375  Q 17.71875 60.359375 20.578125 63.5  Q 23.4375 66.65625 26.734375 68.578125  Q 30.03125 70.515625 33.40625 70.515625  L 33.5 70.515625  Q 37.109375 70.515625 39.515625 68.5  Q 41.9375 66.5 43.28125 63.375  Q 44.625 60.25 45.15625 56.6875  Q 45.703125 53.125 45.703125 49.90625  Q 45.703125 42.328125 43.65625 34.4375  Q 41.609375 26.5625 37.984375 19.1875  Q 36.625 16.40625 34.203125 12.640625  Q 31.78125 8.890625 29.078125 5.90625  Q 26.375 2.9375 23 0.90625  Q 19.625 -1.125 16.21875 -1.125  z M 16.3125 1.515625  Q 19.625 1.515625 22.671875 5.046875  Q 25.734375 8.59375 28.03125 13.640625  Q 30.328125 18.703125 32.0625 24  Q 33.796875 29.296875 34.625 33.015625  L 14.203125 33.015625  Q 12.640625 26.703125 11.765625 22.140625  Q 10.890625 17.578125 10.890625 13.1875  Q 10.890625 1.515625 16.3125 1.515625  M 14.984375 36.53125  L 35.5 36.53125  Q 36.578125 40.921875 37.203125 43.875  Q 37.84375 46.828125 38.28125 50.09375  Q 38.71875 53.375 38.71875 56.203125  Q 38.71875 67.921875 33.40625 67.921875  Q 27.046875 67.921875 22.4375 57.6875  Q 17.828125 47.46875 14.984375 36.53125  "
                 id="Cmmi10-b5" />
              <path
                 d="M 4.984375 0  L 4.984375 2.6875  Q 4.984375 2.9375 5.171875 3.21875  L 20.703125 20.40625  Q 24.21875 24.21875 26.40625 26.796875  Q 28.609375 29.390625 30.75 32.765625  Q 32.90625 36.140625 34.15625 39.625  Q 35.40625 43.109375 35.40625 47.015625  Q 35.40625 51.125 33.890625 54.859375  Q 32.375 58.59375 29.375 60.84375  Q 26.375 63.09375 22.125 63.09375  Q 17.78125 63.09375 14.3125 60.46875  Q 10.84375 57.859375 9.421875 53.71875  Q 9.8125 53.8125 10.5 53.8125  Q 12.75 53.8125 14.328125 52.296875  Q 15.921875 50.78125 15.921875 48.390625  Q 15.921875 46.09375 14.328125 44.5  Q 12.75 42.921875 10.5 42.921875  Q 8.15625 42.921875 6.5625 44.546875  Q 4.984375 46.1875 4.984375 48.390625  Q 4.984375 52.15625 6.390625 55.4375  Q 7.8125 58.734375 10.46875 61.296875  Q 13.140625 63.875 16.484375 65.234375  Q 19.828125 66.609375 23.578125 66.609375  Q 29.296875 66.609375 34.21875 64.1875  Q 39.15625 61.765625 42.03125 57.34375  Q 44.921875 52.9375 44.921875 47.015625  Q 44.921875 42.671875 43.015625 38.765625  Q 41.109375 34.859375 38.125 31.65625  Q 35.15625 28.46875 30.515625 24.40625  Q 25.875 20.359375 24.421875 19  L 13.09375 8.109375  L 22.703125 8.109375  Q 29.78125 8.109375 34.546875 8.21875  Q 39.3125 8.34375 39.59375 8.59375  Q 40.765625 9.859375 42 17.828125  L 44.921875 17.828125  L 42.09375 0  z "
                 id="Cmr10-32" />
              <path
                 d="M 10.203125 23  Q 9.375 23 8.828125 23.625  Q 8.296875 24.265625 8.296875 25  Q 8.296875 25.734375 8.828125 26.359375  Q 9.375 27 10.203125 27  L 67.578125 27  Q 68.359375 27 68.875 26.359375  Q 69.390625 25.734375 69.390625 25  Q 69.390625 24.265625 68.875 23.625  Q 68.359375 23 67.578125 23  z "
                 id="Cmsy10-a1" />
            </defs>
            <g
               style="fill:#262626;"
               transform="translate(70.1177571289 158.08025)scale(0.12 -0.12)"
               id="g26">
              <use
                 transform="translate(0.0 0.484375)"
                 xlink:href="#Cmsy10-a1"
                 id="use28" />
              <use
                 transform="translate(77.685546875 0.484375)"
                 xlink:href="#Cmmi10-b5"
                 id="use30" />
              <use
                 transform="translate(124.609375 -16.521875)scale(0.7)"
                 xlink:href="#Cmr10-32"
                 id="use32" />
            </g>
          </g>
        </g>
        <g
           id="xtick_2">
          <g
             id="line2d_3" />
          <g
             id="line2d_4" />
          <g
             id="text_2">
            <!-- $-\theta_1$ -->
            <defs
               id="defs38">
              <path
                 d="M 9.28125 0  L 9.28125 3.515625  Q 21.78125 3.515625 21.78125 6.6875  L 21.78125 59.1875  Q 16.609375 56.6875 8.6875 56.6875  L 8.6875 60.203125  Q 20.953125 60.203125 27.203125 66.609375  L 28.609375 66.609375  Q 28.953125 66.609375 29.265625 66.328125  Q 29.59375 66.0625 29.59375 65.71875  L 29.59375 6.6875  Q 29.59375 3.515625 42.09375 3.515625  L 42.09375 0  z "
                 id="Cmr10-31" />
            </defs>
            <g
               style="fill:#262626;"
               transform="translate(165.314553027 158.08025)scale(0.12 -0.12)"
               id="g41">
              <use
                 transform="translate(0.0 0.484375)"
                 xlink:href="#Cmsy10-a1"
                 id="use43" />
              <use
                 transform="translate(77.685546875 0.484375)"
                 xlink:href="#Cmmi10-b5"
                 id="use45" />
              <use
                 transform="translate(124.609375 -16.521875)scale(0.7)"
                 xlink:href="#Cmr10-31"
                 id="use47" />
            </g>
          </g>
        </g>
        <g
           id="xtick_3">
          <g
             id="line2d_5" />
          <g
             id="line2d_6" />
          <g
             id="text_3">
            <!-- 0 -->
            <defs
               id="defs53">
              <path
                 d="M 51.703125 34.421875  Q 51.703125 24.515625 49.828125 17.75  Q 47.953125 10.984375 44.703125 6.8125  Q 41.453125 2.640625 37.0625 0.828125  Q 32.671875 -0.984375 27.6875 -0.984375  Q 22.65625 -0.984375 18.3125 0.828125  Q 13.96875 2.640625 10.765625 6.78125  Q 7.5625 10.9375 5.734375 17.703125  Q 3.90625 24.46875 3.90625 34.421875  Q 3.90625 44.828125 5.734375 51.640625  Q 7.5625 58.453125 10.78125 62.5  Q 14.015625 66.546875 18.40625 68.1875  Q 22.796875 69.828125 27.984375 69.828125  Q 32.90625 69.828125 37.21875 68.1875  Q 41.546875 66.546875 44.765625 62.5  Q 48 58.453125 49.84375 51.640625  Q 51.703125 44.828125 51.703125 34.421875  M 42.78125 34.421875  Q 42.78125 42.625 41.796875 48.0625  Q 40.828125 53.515625 38.921875 56.765625  Q 37.015625 60.015625 34.25 61.359375  Q 31.5 62.703125 27.984375 62.703125  Q 24.265625 62.703125 21.4375 61.328125  Q 18.609375 59.96875 16.671875 56.71875  Q 14.75 53.46875 13.765625 48.015625  Q 12.796875 42.578125 12.796875 34.421875  Q 12.796875 26.515625 13.796875 21.09375  Q 14.796875 15.671875 16.71875 12.375  Q 18.65625 9.078125 21.4375 7.640625  Q 24.21875 6.203125 27.78125 6.203125  Q 31.25 6.203125 34.03125 7.640625  Q 36.8125 9.078125 38.734375 12.375  Q 40.671875 15.671875 41.71875 21.09375  Q 42.78125 26.515625 42.78125 34.421875  "
                 id="LiberationSans-30" />
            </defs>
            <g
               style="fill:#262626;"
               transform="translate(219.536388477 158.08025)scale(0.12 -0.12)"
               id="g56">
              <use
                 xlink:href="#LiberationSans-30"
                 id="use58" />
            </g>
          </g>
        </g>
        <g
           id="xtick_4">
          <g
             id="line2d_7" />
          <g
             id="line2d_8" />
          <g
             id="text_4">
            <!-- $\theta_1$ -->
            <g
               style="fill:#262626;"
               transform="translate(265.131348926 158.08025)scale(0.12 -0.12)"
               id="g64">
              <use
                 transform="translate(0.0 0.484375)"
                 xlink:href="#Cmmi10-b5"
                 id="use66" />
              <use
                 transform="translate(46.923828125 -16.521875)scale(0.7)"
                 xlink:href="#Cmr10-31"
                 id="use68" />
            </g>
          </g>
        </g>
        <g
           id="xtick_5">
          <g
             id="line2d_9" />
          <g
             id="line2d_10" />
          <g
             id="text_5">
            <!-- $\theta_2$ -->
            <g
               style="fill:#262626;"
               transform="translate(360.328144824 158.08025)scale(0.12 -0.12)"
               id="g74">
              <use
                 transform="translate(0.0 0.484375)"
                 xlink:href="#Cmmi10-b5"
                 id="use76" />
              <use
                 transform="translate(46.923828125 -16.521875)scale(0.7)"
                 xlink:href="#Cmr10-32"
                 id="use78" />
            </g>
          </g>
        </g>
        <g
           id="text_6">
          <!-- Temperature control variable $u$ -->
          <defs
             id="defs81">
            <path
               d="M 6.9375 0  L 6.9375 40.53125  Q 6.9375 42.1875 6.90625 43.921875  Q 6.890625 45.65625 6.828125 47.265625  Q 6.78125 48.875 6.734375 50.28125  Q 6.6875 51.703125 6.640625 52.828125  L 14.9375 52.828125  Q 14.984375 51.703125 15.0625 50.265625  Q 15.140625 48.828125 15.203125 47.3125  Q 15.28125 45.796875 15.296875 44.40625  Q 15.328125 43.015625 15.328125 42.046875  L 15.53125 42.046875  Q 16.453125 45.0625 17.5 47.28125  Q 18.5625 49.515625 19.96875 50.953125  Q 21.390625 52.390625 23.34375 53.09375  Q 25.296875 53.8125 28.078125 53.8125  Q 29.15625 53.8125 30.125 53.640625  Q 31.109375 53.46875 31.640625 53.328125  L 31.640625 45.265625  Q 30.765625 45.515625 29.59375 45.625  Q 28.421875 45.75 26.953125 45.75  Q 23.921875 45.75 21.796875 44.375  Q 19.671875 43.015625 18.328125 40.59375  Q 17 38.1875 16.359375 34.84375  Q 15.71875 31.5 15.71875 27.546875  L 15.71875 0  z "
               id="LiberationSans-72" />
            <path
               d="M 51.421875 26.65625  Q 51.421875 20.65625 50.4375 15.578125  Q 49.46875 10.5 47.1875 6.828125  Q 44.921875 3.171875 41.1875 1.09375  Q 37.453125 -0.984375 31.984375 -0.984375  Q 26.3125 -0.984375 22.0625 1.171875  Q 17.828125 3.328125 15.578125 8.203125  L 15.328125 8.203125  Q 15.375 8.109375 15.40625 7.328125  Q 15.4375 6.546875 15.453125 5.375  Q 15.484375 4.203125 15.5 2.75  Q 15.53125 1.3125 15.53125 -0.09375  L 15.53125 -20.75  L 6.734375 -20.75  L 6.734375 42.046875  Q 6.734375 43.953125 6.703125 45.703125  Q 6.6875 47.46875 6.640625 48.90625  Q 6.59375 50.34375 6.546875 51.359375  Q 6.5 52.390625 6.453125 52.828125  L 14.9375 52.828125  Q 14.984375 52.6875 15.0625 51.796875  Q 15.140625 50.921875 15.203125 49.671875  Q 15.28125 48.4375 15.359375 47.015625  Q 15.4375 45.609375 15.4375 44.34375  L 15.625 44.34375  Q 16.84375 46.875 18.40625 48.65625  Q 19.96875 50.4375 21.96875 51.578125  Q 23.96875 52.734375 26.4375 53.25  Q 28.90625 53.765625 31.984375 53.765625  Q 37.453125 53.765625 41.1875 51.8125  Q 44.921875 49.859375 47.1875 46.3125  Q 49.46875 42.78125 50.4375 37.765625  Q 51.421875 32.765625 51.421875 26.65625  M 42.1875 26.46875  Q 42.1875 31.34375 41.59375 35.15625  Q 41.015625 38.96875 39.578125 41.59375  Q 38.140625 44.234375 35.734375 45.59375  Q 33.34375 46.96875 29.734375 46.96875  Q 26.8125 46.96875 24.21875 46.140625  Q 21.625 45.3125 19.703125 42.96875  Q 17.78125 40.625 16.65625 36.5  Q 15.53125 32.375 15.53125 25.78125  Q 15.53125 20.171875 16.453125 16.28125  Q 17.390625 12.40625 19.171875 10.015625  Q 20.953125 7.625 23.578125 6.5625  Q 26.21875 5.515625 29.640625 5.515625  Q 33.296875 5.515625 35.71875 6.921875  Q 38.140625 8.34375 39.578125 11.03125  Q 41.015625 13.71875 41.59375 17.59375  Q 42.1875 21.484375 42.1875 26.46875  "
               id="LiberationSans-70" />
            <path
               d="M 20.21875 -0.984375  Q 12.25 -0.984375 8.25 3.21875  Q 4.25 7.421875 4.25 14.75  Q 4.25 19.96875 6.21875 23.3125  Q 8.203125 26.65625 11.390625 28.5625  Q 14.59375 30.46875 18.6875 31.203125  Q 22.796875 31.9375 27.046875 32.03125  L 38.921875 32.234375  L 38.921875 35.109375  Q 38.921875 38.375 38.234375 40.671875  Q 37.546875 42.96875 36.125 44.375  Q 34.71875 45.796875 32.59375 46.453125  Q 30.46875 47.125 27.59375 47.125  Q 25.046875 47.125 23 46.75  Q 20.953125 46.390625 19.4375 45.4375  Q 17.921875 44.484375 16.984375 42.84375  Q 16.0625 41.21875 15.765625 38.71875  L 6.59375 39.546875  Q 7.078125 42.671875 8.4375 45.28125  Q 9.8125 47.90625 12.328125 49.796875  Q 14.84375 51.703125 18.625 52.75  Q 22.40625 53.8125 27.78125 53.8125  Q 37.75 53.8125 42.765625 49.234375  Q 47.796875 44.671875 47.796875 36.03125  L 47.796875 13.28125  Q 47.796875 9.375 48.828125 7.390625  Q 49.859375 5.421875 52.734375 5.421875  Q 53.46875 5.421875 54.203125 5.515625  Q 54.9375 5.609375 55.609375 5.765625  L 55.609375 0.296875  Q 53.953125 -0.09375 52.3125 -0.28125  Q 50.6875 -0.484375 48.828125 -0.484375  Q 46.34375 -0.484375 44.5625 0.171875  Q 42.78125 0.828125 41.65625 2.171875  Q 40.53125 3.515625 39.9375 5.484375  Q 39.359375 7.46875 39.203125 10.109375  L 38.921875 10.109375  Q 37.5 7.5625 35.8125 5.515625  Q 34.125 3.46875 31.875 2.03125  Q 29.640625 0.59375 26.78125 -0.1875  Q 23.921875 -0.984375 20.21875 -0.984375  M 22.21875 5.609375  Q 26.421875 5.609375 29.5625 7.140625  Q 32.71875 8.6875 34.78125 11.078125  Q 36.859375 13.484375 37.890625 16.3125  Q 38.921875 19.140625 38.921875 21.734375  L 38.921875 26.078125  L 29.296875 25.875  Q 26.078125 25.828125 23.171875 25.40625  Q 20.265625 25 18.0625 23.78125  Q 15.875 22.5625 14.578125 20.359375  Q 13.28125 18.171875 13.28125 14.59375  Q 13.28125 10.296875 15.59375 7.953125  Q 17.921875 5.609375 22.21875 5.609375  "
               id="LiberationSans-61" />
            <path
               d="M 15.328125 52.828125  L 15.328125 19.34375  Q 15.328125 15.484375 15.890625 12.890625  Q 16.453125 10.296875 17.71875 8.703125  Q 19 7.125 21.0625 6.46875  Q 23.140625 5.8125 26.21875 5.8125  Q 29.34375 5.8125 31.859375 6.90625  Q 34.375 8.015625 36.15625 10.078125  Q 37.9375 12.15625 38.90625 15.203125  Q 39.890625 18.265625 39.890625 22.21875  L 39.890625 52.828125  L 48.6875 52.828125  L 48.6875 11.28125  Q 48.6875 9.625 48.703125 7.78125  Q 48.734375 5.953125 48.78125 4.3125  Q 48.828125 2.6875 48.875 1.515625  Q 48.921875 0.34375 48.96875 0  L 40.671875 0  Q 40.625 0.25 40.578125 1.3125  Q 40.53125 2.390625 40.453125 3.78125  Q 40.375 5.171875 40.328125 6.609375  Q 40.28125 8.0625 40.28125 9.03125  L 40.140625 9.03125  Q 38.875 6.734375 37.359375 4.875  Q 35.84375 3.03125 33.84375 1.734375  Q 31.84375 0.4375 29.25 -0.265625  Q 26.65625 -0.984375 23.25 -0.984375  Q 18.84375 -0.984375 15.671875 0.09375  Q 12.5 1.171875 10.453125 3.421875  Q 8.40625 5.671875 7.453125 9.1875  Q 6.5 12.703125 6.5 17.625  L 6.5 52.828125  z "
               id="LiberationSans-75" />
            <path
               d="M 13.484375 24.5625  Q 13.484375 20.40625 14.328125 16.90625  Q 15.1875 13.421875 16.96875 10.90625  Q 18.75 8.40625 21.53125 7  Q 24.3125 5.609375 28.21875 5.609375  Q 33.9375 5.609375 37.375 7.90625  Q 40.828125 10.203125 42.046875 13.71875  L 49.75 11.53125  Q 48.921875 9.328125 47.4375 7.109375  Q 45.953125 4.890625 43.453125 3.09375  Q 40.96875 1.3125 37.234375 0.15625  Q 33.5 -0.984375 28.21875 -0.984375  Q 16.5 -0.984375 10.375 6  Q 4.25 12.984375 4.25 26.765625  Q 4.25 34.1875 6.09375 39.328125  Q 7.953125 44.484375 11.171875 47.703125  Q 14.40625 50.921875 18.703125 52.359375  Q 23 53.8125 27.875 53.8125  Q 34.515625 53.8125 38.984375 51.65625  Q 43.453125 49.515625 46.15625 45.71875  Q 48.875 41.9375 50.015625 36.8125  Q 51.171875 31.6875 51.171875 25.734375  L 51.171875 24.5625  z M 42.09375 31.296875  Q 41.359375 39.65625 37.84375 43.484375  Q 34.328125 47.3125 27.734375 47.3125  Q 25.53125 47.3125 23.109375 46.609375  Q 20.703125 45.90625 18.65625 44.09375  Q 16.609375 42.28125 15.1875 39.171875  Q 13.765625 36.078125 13.578125 31.296875  z "
               id="LiberationSans-65" />
            <path
               d="M 51.421875 26.65625  Q 51.421875 -0.984375 31.984375 -0.984375  Q 25.984375 -0.984375 22 1.1875  Q 18.015625 3.375 15.53125 8.203125  L 15.4375 8.203125  Q 15.4375 6.9375 15.359375 5.5625  Q 15.28125 4.203125 15.203125 3.03125  Q 15.140625 1.859375 15.0625 1.03125  Q 14.984375 0.203125 14.9375 0  L 6.453125 0  Q 6.5 0.4375 6.546875 1.484375  Q 6.59375 2.546875 6.640625 4  Q 6.6875 5.46875 6.703125 7.21875  Q 6.734375 8.984375 6.734375 10.890625  L 6.734375 72.46875  L 15.53125 72.46875  L 15.53125 51.8125  Q 15.53125 50.34375 15.5 49  Q 15.484375 47.65625 15.4375 46.625  Q 15.375 45.40625 15.328125 44.34375  L 15.53125 44.34375  Q 17.96875 49.421875 22 51.609375  Q 26.03125 53.8125 31.984375 53.8125  Q 42 53.8125 46.703125 47.0625  Q 51.421875 40.328125 51.421875 26.65625  M 42.1875 26.375  Q 42.1875 31.84375 41.5 35.75  Q 40.828125 39.65625 39.3125 42.15625  Q 37.796875 44.671875 35.453125 45.84375  Q 33.109375 47.015625 29.734375 47.015625  Q 26.265625 47.015625 23.609375 45.890625  Q 20.953125 44.78125 19.171875 42.28125  Q 17.390625 39.796875 16.453125 35.734375  Q 15.53125 31.6875 15.53125 25.828125  Q 15.53125 20.171875 16.453125 16.3125  Q 17.390625 12.453125 19.171875 10.03125  Q 20.953125 7.625 23.578125 6.5625  Q 26.21875 5.515625 29.640625 5.515625  Q 32.859375 5.515625 35.203125 6.640625  Q 37.546875 7.765625 39.109375 10.25  Q 40.671875 12.75 41.421875 16.71875  Q 42.1875 20.703125 42.1875 26.375  "
               id="LiberationSans-62" />
            <path
               d="M 13.421875 26.65625  Q 13.421875 22.125 14.078125 18.3125  Q 14.75 14.5 16.3125 11.734375  Q 17.875 8.984375 20.4375 7.46875  Q 23 5.953125 26.765625 5.953125  Q 31.453125 5.953125 34.59375 8.484375  Q 37.75 11.03125 38.484375 16.3125  L 47.359375 15.71875  Q 46.921875 12.453125 45.453125 9.421875  Q 44 6.390625 41.484375 4.09375  Q 38.96875 1.8125 35.34375 0.40625  Q 31.734375 -0.984375 27 -0.984375  Q 20.796875 -0.984375 16.453125 1.109375  Q 12.109375 3.21875 9.390625 6.90625  Q 6.6875 10.59375 5.46875 15.59375  Q 4.25 20.609375 4.25 26.46875  Q 4.25 31.78125 5.125 35.859375  Q 6 39.9375 7.59375 42.984375  Q 9.1875 46.046875 11.328125 48.125  Q 13.484375 50.203125 15.984375 51.4375  Q 18.5 52.6875 21.28125 53.25  Q 24.078125 53.8125 26.90625 53.8125  Q 31.34375 53.8125 34.8125 52.59375  Q 38.28125 51.375 40.796875 49.25  Q 43.3125 47.125 44.875 44.234375  Q 46.4375 41.359375 47.078125 38.03125  L 38.03125 37.359375  Q 37.359375 41.75 34.5625 44.328125  Q 31.78125 46.921875 26.65625 46.921875  Q 22.90625 46.921875 20.390625 45.671875  Q 17.875 44.4375 16.3125 41.921875  Q 14.75 39.40625 14.078125 35.59375  Q 13.421875 31.78125 13.421875 26.65625  "
               id="LiberationSans-63" />
            <path
               d="M 27.046875 0.390625  Q 25.046875 -0.140625 22.96875 -0.453125  Q 20.90625 -0.78125 18.171875 -0.78125  Q 7.625 -0.78125 7.625 11.1875  L 7.625 46.4375  L 1.515625 46.4375  L 1.515625 52.828125  L 7.953125 52.828125  L 10.546875 64.65625  L 16.40625 64.65625  L 16.40625 52.828125  L 26.171875 52.828125  L 26.171875 46.4375  L 16.40625 46.4375  L 16.40625 13.09375  Q 16.40625 9.28125 17.640625 7.734375  Q 18.890625 6.203125 21.96875 6.203125  Q 23.25 6.203125 24.4375 6.390625  Q 25.640625 6.59375 27.046875 6.890625  z "
               id="LiberationSans-74" />
            <path
               d="M 6.6875 64.0625  L 6.6875 72.46875  L 15.484375 72.46875  L 15.484375 64.0625  z M 6.6875 0  L 6.6875 52.828125  L 15.484375 52.828125  L 15.484375 0  z "
               id="LiberationSans-69" />
            <path
               d="M 37.5 0  L 37.5 33.5  Q 37.5 37.359375 37.015625 39.9375  Q 36.53125 42.53125 35.375 44.109375  Q 34.234375 45.703125 32.375 46.359375  Q 30.515625 47.015625 27.828125 47.015625  Q 25.046875 47.015625 22.796875 45.921875  Q 20.5625 44.828125 18.96875 42.75  Q 17.390625 40.671875 16.53125 37.625  Q 15.671875 34.578125 15.671875 30.609375  L 15.671875 0  L 6.9375 0  L 6.9375 41.546875  Q 6.9375 43.21875 6.90625 45.046875  Q 6.890625 46.875 6.828125 48.5  Q 6.78125 50.140625 6.734375 51.3125  Q 6.6875 52.484375 6.640625 52.828125  L 14.9375 52.828125  Q 14.984375 52.59375 15.03125 51.515625  Q 15.09375 50.4375 15.15625 49.046875  Q 15.234375 47.65625 15.28125 46.21875  Q 15.328125 44.78125 15.328125 43.796875  L 15.484375 43.796875  Q 16.65625 46.09375 18.015625 47.953125  Q 19.390625 49.8125 21.21875 51.09375  Q 23.046875 52.390625 25.40625 53.09375  Q 27.78125 53.8125 30.90625 53.8125  Q 36.921875 53.8125 40.40625 51.421875  Q 43.890625 49.03125 45.265625 43.796875  L 45.40625 43.796875  Q 46.578125 46.09375 48.046875 47.953125  Q 49.515625 49.8125 51.46875 51.09375  Q 53.421875 52.390625 55.859375 53.09375  Q 58.296875 53.8125 61.421875 53.8125  Q 65.4375 53.8125 68.328125 52.734375  Q 71.234375 51.65625 73.09375 49.40625  Q 74.953125 47.171875 75.828125 43.625  Q 76.703125 40.09375 76.703125 35.203125  L 76.703125 0  L 68.015625 0  L 68.015625 33.5  Q 68.015625 37.359375 67.53125 39.9375  Q 67.046875 42.53125 65.890625 44.109375  Q 64.75 45.703125 62.890625 46.359375  Q 61.03125 47.015625 58.34375 47.015625  Q 55.5625 47.015625 53.3125 45.96875  Q 51.078125 44.921875 49.484375 42.875  Q 47.90625 40.828125 47.046875 37.75  Q 46.1875 34.671875 46.1875 30.609375  L 46.1875 0  z "
               id="LiberationSans-6d" />
            <path
               d="M 40.28125 0  L 40.28125 33.5  Q 40.28125 37.359375 39.71875 39.9375  Q 39.15625 42.53125 37.890625 44.109375  Q 36.625 45.703125 34.546875 46.359375  Q 32.46875 47.015625 29.390625 47.015625  Q 26.265625 47.015625 23.75 45.921875  Q 21.234375 44.828125 19.453125 42.75  Q 17.671875 40.671875 16.6875 37.625  Q 15.71875 34.578125 15.71875 30.609375  L 15.71875 0  L 6.9375 0  L 6.9375 41.546875  Q 6.9375 43.21875 6.90625 45.046875  Q 6.890625 46.875 6.828125 48.5  Q 6.78125 50.140625 6.734375 51.3125  Q 6.6875 52.484375 6.640625 52.828125  L 14.9375 52.828125  Q 14.984375 52.59375 15.03125 51.515625  Q 15.09375 50.4375 15.15625 49.046875  Q 15.234375 47.65625 15.28125 46.21875  Q 15.328125 44.78125 15.328125 43.796875  L 15.484375 43.796875  Q 16.75 46.09375 18.265625 47.953125  Q 19.78125 49.8125 21.78125 51.09375  Q 23.78125 52.390625 26.359375 53.09375  Q 28.953125 53.8125 32.375 53.8125  Q 36.765625 53.8125 39.9375 52.734375  Q 43.109375 51.65625 45.15625 49.40625  Q 47.21875 47.171875 48.171875 43.625  Q 49.125 40.09375 49.125 35.203125  L 49.125 0  z "
               id="LiberationSans-6e" />
            <path
               d="M 51.421875 26.46875  Q 51.421875 12.59375 45.3125 5.796875  Q 39.203125 -0.984375 27.59375 -0.984375  Q 22.078125 -0.984375 17.71875 0.671875  Q 13.375 2.34375 10.375 5.765625  Q 7.375 9.1875 5.78125 14.328125  Q 4.203125 19.484375 4.203125 26.46875  Q 4.203125 53.8125 27.875 53.8125  Q 34.03125 53.8125 38.5 52.09375  Q 42.96875 50.390625 45.828125 46.96875  Q 48.6875 43.5625 50.046875 38.421875  Q 51.421875 33.296875 51.421875 26.46875  M 42.1875 26.46875  Q 42.1875 32.625 41.234375 36.625  Q 40.28125 40.625 38.453125 43.015625  Q 36.625 45.40625 33.984375 46.359375  Q 31.34375 47.3125 28.03125 47.3125  Q 24.65625 47.3125 21.9375 46.3125  Q 19.234375 45.3125 17.328125 42.890625  Q 15.4375 40.484375 14.421875 36.46875  Q 13.421875 32.46875 13.421875 26.46875  Q 13.421875 20.3125 14.5 16.28125  Q 15.578125 12.25 17.453125 9.859375  Q 19.34375 7.46875 21.90625 6.484375  Q 24.46875 5.515625 27.484375 5.515625  Q 30.859375 5.515625 33.59375 6.46875  Q 36.328125 7.421875 38.234375 9.8125  Q 40.140625 12.203125 41.15625 16.25  Q 42.1875 20.3125 42.1875 26.46875  "
               id="LiberationSans-6f" />
            <path
               d="M 6.734375 0  L 6.734375 72.46875  L 15.53125 72.46875  L 15.53125 0  z "
               id="LiberationSans-6c" />
            <path
               id="LiberationSans-20" />
            <path
               d="M 35.15625 61.1875  L 35.15625 0  L 25.875 0  L 25.875 61.1875  L 2.25 61.1875  L 2.25 68.796875  L 58.796875 68.796875  L 58.796875 61.1875  z "
               id="LiberationSans-54" />
            <path
               d="M 10.59375 10.890625  Q 10.59375 14.15625 11.46875 17.59375  Q 12.359375 21.046875 13.9375 25.265625  Q 15.53125 29.5 16.703125 32.625  Q 18.015625 36.28125 18.015625 38.625  Q 18.015625 41.609375 15.828125 41.609375  Q 11.859375 41.609375 9.296875 37.53125  Q 6.734375 33.453125 5.515625 28.421875  Q 5.328125 27.78125 4.6875 27.78125  L 3.515625 27.78125  Q 2.6875 27.78125 2.6875 28.71875  L 2.6875 29  Q 4.296875 34.96875 7.609375 39.578125  Q 10.9375 44.1875 16.015625 44.1875  Q 19.578125 44.1875 22.046875 41.84375  Q 24.515625 39.5 24.515625 35.890625  Q 24.515625 34.03125 23.6875 31.984375  Q 23.25 30.765625 21.6875 26.65625  Q 20.125 22.5625 19.28125 19.875  Q 18.453125 17.1875 17.921875 14.59375  Q 17.390625 12.015625 17.390625 9.421875  Q 17.390625 6.109375 18.796875 3.8125  Q 20.21875 1.515625 23.390625 1.515625  Q 29.78125 1.515625 34.625 9.421875  Q 34.71875 9.8125 34.78125 10.171875  Q 34.859375 10.546875 34.90625 10.890625  L 42.09375 39.890625  Q 42.4375 41.21875 43.65625 42.15625  Q 44.875 43.109375 46.296875 43.109375  Q 47.515625 43.109375 48.40625 42.328125  Q 49.3125 41.546875 49.3125 40.28125  Q 49.3125 39.703125 49.21875 39.5  L 42 10.6875  Q 41.3125 7.71875 41.3125 5.8125  Q 41.3125 1.515625 44.1875 1.515625  Q 47.40625 1.515625 49 5.484375  Q 50.59375 9.46875 51.703125 14.703125  Q 51.90625 15.28125 52.484375 15.28125  L 53.71875 15.28125  Q 54.109375 15.28125 54.34375 14.9375  Q 54.59375 14.59375 54.59375 14.3125  Q 53.515625 10.015625 52.515625 6.9375  Q 51.515625 3.859375 49.359375 1.359375  Q 47.21875 -1.125 44 -1.125  Q 40.828125 -1.125 38.3125 0.609375  Q 35.796875 2.34375 34.90625 5.328125  Q 32.625 2.390625 29.59375 0.625  Q 26.5625 -1.125 23.1875 -1.125  Q 17.4375 -1.125 14.015625 2.015625  Q 10.59375 5.171875 10.59375 10.890625  "
               id="Cmmi10-75" />
            <path
               d="M 29.9375 0  L 19.53125 0  L 0.34375 52.828125  L 9.71875 52.828125  L 21.34375 18.453125  Q 21.6875 17.390625 22.140625 15.84375  Q 22.609375 14.3125 23.09375 12.640625  Q 23.578125 10.984375 24 9.4375  Q 24.421875 7.90625 24.703125 6.890625  Q 25 7.90625 25.453125 9.4375  Q 25.921875 10.984375 26.40625 12.59375  Q 26.90625 14.203125 27.421875 15.734375  Q 27.9375 17.28125 28.328125 18.359375  L 40.328125 52.828125  L 49.65625 52.828125  z "
               id="LiberationSans-76" />
          </defs>
          <g
             style="fill:#262626;"
             transform="translate(127.392950977 182.7608)scale(0.14 -0.14)"
             id="g100">
            <use
               transform="translate(0.0 0.53125)"
               xlink:href="#LiberationSans-54"
               id="use102" />
            <use
               transform="translate(61.083984375 0.53125)"
               xlink:href="#LiberationSans-65"
               id="use104" />
            <use
               transform="translate(116.69921875 0.53125)"
               xlink:href="#LiberationSans-6d"
               id="use106" />
            <use
               transform="translate(200.0 0.53125)"
               xlink:href="#LiberationSans-70"
               id="use108" />
            <use
               transform="translate(255.615234375 0.53125)"
               xlink:href="#LiberationSans-65"
               id="use110" />
            <use
               transform="translate(311.23046875 0.53125)"
               xlink:href="#LiberationSans-72"
               id="use112" />
            <use
               transform="translate(344.53125 0.53125)"
               xlink:href="#LiberationSans-61"
               id="use114" />
            <use
               transform="translate(400.146484375 0.53125)"
               xlink:href="#LiberationSans-74"
               id="use116" />
            <use
               transform="translate(427.9296875 0.53125)"
               xlink:href="#LiberationSans-75"
               id="use118" />
            <use
               transform="translate(483.544921875 0.53125)"
               xlink:href="#LiberationSans-72"
               id="use120" />
            <use
               transform="translate(516.845703125 0.53125)"
               xlink:href="#LiberationSans-65"
               id="use122" />
            <use
               transform="translate(572.4609375 0.53125)"
               xlink:href="#LiberationSans-20"
               id="use124" />
            <use
               transform="translate(600.244140625 0.53125)"
               xlink:href="#LiberationSans-63"
               id="use126" />
            <use
               transform="translate(650.244140625 0.53125)"
               xlink:href="#LiberationSans-6f"
               id="use128" />
            <use
               transform="translate(705.859375 0.53125)"
               xlink:href="#LiberationSans-6e"
               id="use130" />
            <use
               transform="translate(761.474609375 0.53125)"
               xlink:href="#LiberationSans-74"
               id="use132" />
            <use
               transform="translate(789.2578125 0.53125)"
               xlink:href="#LiberationSans-72"
               id="use134" />
            <use
               transform="translate(822.55859375 0.53125)"
               xlink:href="#LiberationSans-6f"
               id="use136" />
            <use
               transform="translate(878.173828125 0.53125)"
               xlink:href="#LiberationSans-6c"
               id="use138" />
            <use
               transform="translate(900.390625 0.53125)"
               xlink:href="#LiberationSans-20"
               id="use140" />
            <use
               transform="translate(928.173828125 0.53125)"
               xlink:href="#LiberationSans-76"
               id="use142" />
            <use
               transform="translate(978.173828125 0.53125)"
               xlink:href="#LiberationSans-61"
               id="use144" />
            <use
               transform="translate(1033.7890625 0.53125)"
               xlink:href="#LiberationSans-72"
               id="use146" />
            <use
               transform="translate(1067.08984375 0.53125)"
               xlink:href="#LiberationSans-69"
               id="use148" />
            <use
               transform="translate(1089.30664062 0.53125)"
               xlink:href="#LiberationSans-61"
               id="use150" />
            <use
               transform="translate(1144.921875 0.53125)"
               xlink:href="#LiberationSans-62"
               id="use152" />
            <use
               transform="translate(1200.53710938 0.53125)"
               xlink:href="#LiberationSans-6c"
               id="use154" />
            <use
               transform="translate(1222.75390625 0.53125)"
               xlink:href="#LiberationSans-65"
               id="use156" />
            <use
               transform="translate(1278.36914062 0.53125)"
               xlink:href="#LiberationSans-20"
               id="use158" />
            <use
               transform="translate(1306.15234375 0.53125)"
               xlink:href="#Cmmi10-75"
               id="use160" />
          </g>
        </g>
      </g>
      <g
         id="matplotlib.axis_2">
        <g
           id="ytick_1">
          <g
             id="line2d_11" />
          <g
             id="line2d_12" />
          <g
             id="text_7">
            <!-- $s$ -->
            <defs
               id="defs167">
              <path
                 d="M 8.6875 6.109375  Q 11.375 1.515625 19.484375 1.515625  Q 23 1.515625 26.171875 2.703125  Q 29.34375 3.90625 31.421875 6.296875  Q 33.5 8.6875 33.5 12.109375  Q 33.5 14.703125 31.640625 16.359375  Q 29.78125 18.015625 27.09375 18.609375  L 21.6875 19.671875  Q 17.96875 20.609375 15.578125 23.140625  Q 13.1875 25.6875 13.1875 29.296875  Q 13.1875 33.734375 15.59375 37.15625  Q 18.015625 40.578125 21.96875 42.375  Q 25.921875 44.1875 30.171875 44.1875  Q 34.71875 44.1875 38.296875 42.015625  Q 41.890625 39.84375 41.890625 35.59375  Q 41.890625 33.296875 40.59375 31.53125  Q 39.3125 29.78125 37.015625 29.78125  Q 35.6875 29.78125 34.734375 30.640625  Q 33.796875 31.5 33.796875 32.8125  Q 33.796875 33.984375 34.453125 35.078125  Q 35.109375 36.1875 36.203125 36.84375  Q 37.3125 37.5 38.484375 37.5  Q 37.59375 39.65625 35.171875 40.625  Q 32.765625 41.609375 29.984375 41.609375  Q 27.4375 41.609375 24.890625 40.578125  Q 22.359375 39.546875 20.8125 37.5625  Q 19.28125 35.59375 19.28125 32.90625  Q 19.28125 31.109375 20.546875 29.734375  Q 21.828125 28.375 23.6875 27.78125  L 29.5 26.609375  Q 32.28125 26.03125 34.59375 24.53125  Q 36.921875 23.046875 38.25 20.765625  Q 39.59375 18.5 39.59375 15.578125  Q 39.59375 11.859375 37.515625 8.25  Q 35.453125 4.640625 32.421875 2.484375  Q 27.09375 -1.125 19.390625 -1.125  Q 14.0625 -1.125 9.609375 1.3125  Q 5.171875 3.765625 5.171875 8.59375  Q 5.171875 11.328125 6.75 13.34375  Q 8.34375 15.375 11.078125 15.375  Q 12.703125 15.375 13.796875 14.390625  Q 14.890625 13.421875 14.890625 11.8125  Q 14.890625 9.515625 13.171875 7.8125  Q 11.46875 6.109375 9.1875 6.109375  z "
                 id="Cmmi10-73" />
            </defs>
            <g
               style="fill:#262626;"
               transform="translate(21.2393591797 134.905125)scale(0.12 -0.12)"
               id="g170">
              <use
                 transform="translate(0.0 0.8125)"
                 xlink:href="#Cmmi10-73"
                 id="use172" />
            </g>
          </g>
        </g>
        <g
           id="ytick_2">
          <g
             id="line2d_13" />
          <g
             id="line2d_14" />
          <g
             id="text_8">
            <!-- $1$ -->
            <g
               style="fill:#262626;"
               transform="translate(20.8793591797 15.085125)scale(0.12 -0.12)"
               id="g178">
              <use
                 transform="translate(0.0 0.390625)"
                 xlink:href="#Cmr10-31"
                 id="use180" />
            </g>
          </g>
        </g>
        <g
           id="text_9">
          <!-- $\beta(u)$ -->
          <defs
             id="defs183">
            <path
               d="M 31 -24.8125  Q 25.4375 -20.40625 21.40625 -14.71875  Q 17.390625 -9.03125 14.8125 -2.578125  Q 12.25 3.859375 10.984375 10.890625  Q 9.71875 17.921875 9.71875 25  Q 9.71875 32.171875 10.984375 39.203125  Q 12.25 46.234375 14.859375 52.734375  Q 17.484375 59.234375 21.53125 64.890625  Q 25.59375 70.5625 31 74.8125  Q 31 75 31.5 75  L 32.421875 75  Q 32.71875 75 32.953125 74.734375  Q 33.203125 74.46875 33.203125 74.125  Q 33.203125 73.6875 33.015625 73.484375  Q 28.125 68.703125 24.875 63.234375  Q 21.625 57.765625 19.640625 51.578125  Q 17.671875 45.40625 16.796875 38.78125  Q 15.921875 32.171875 15.921875 25  Q 15.921875 -6.78125 32.90625 -23.296875  Q 33.203125 -23.578125 33.203125 -24.125  Q 33.203125 -24.359375 32.9375 -24.671875  Q 32.671875 -25 32.421875 -25  L 31.5 -25  Q 31 -25 31 -24.8125  "
               id="Cmr10-28" />
            <path
               d="M 6.5 -25  Q 5.609375 -25 5.609375 -24.125  Q 5.609375 -23.6875 5.8125 -23.484375  Q 22.90625 -6.78125 22.90625 25  Q 22.90625 56.78125 6 73.296875  Q 5.609375 73.53125 5.609375 74.125  Q 5.609375 74.46875 5.875 74.734375  Q 6.15625 75 6.5 75  L 7.421875 75  Q 7.71875 75 7.90625 74.8125  Q 15.09375 69.140625 19.875 61.03125  Q 24.65625 52.9375 26.875 43.75  Q 29.109375 34.578125 29.109375 25  Q 29.109375 17.921875 27.90625 11.0625  Q 26.703125 4.203125 24.09375 -2.453125  Q 21.484375 -9.125 17.484375 -14.765625  Q 13.484375 -20.40625 7.90625 -24.8125  Q 7.71875 -25 7.421875 -25  z "
               id="Cmr10-29" />
            <path
               d="M 2.6875 -19.390625  Q 2.390625 -19.390625 2.140625 -19.046875  Q 1.90625 -18.703125 1.90625 -18.40625  L 17.28125 43.40625  Q 18.609375 48.390625 21.140625 53.078125  Q 23.6875 57.765625 27.515625 61.796875  Q 31.34375 65.828125 35.9375 68.171875  Q 40.53125 70.515625 45.703125 70.515625  Q 49.421875 70.515625 52.421875 68.875  Q 55.421875 67.234375 57.15625 64.28125  Q 58.890625 61.328125 58.890625 57.625  Q 58.890625 54.046875 57.515625 50.796875  Q 56.15625 47.5625 53.703125 44.75  Q 51.265625 41.9375 48.484375 40.1875  Q 50.09375 39.15625 51.359375 37.5625  Q 52.640625 35.984375 53.421875 34.25  Q 54.203125 32.515625 54.640625 30.390625  Q 55.078125 28.265625 55.078125 26.421875  Q 55.078125 21.296875 52.875 16.3125  Q 50.6875 11.328125 46.890625 7.265625  Q 43.109375 3.21875 38.21875 0.84375  Q 33.34375 -1.515625 28.21875 -1.515625  Q 22.609375 -1.515625 18.109375 1.5625  Q 13.625 4.640625 11.921875 9.90625  L 4.6875 -18.796875  Q 4.6875 -19.390625 3.90625 -19.390625  z M 28.421875 1.21875  Q 32.90625 1.21875 36.546875 4.171875  Q 40.1875 7.125 42.546875 11.59375  Q 44.921875 16.0625 46.15625 21.0625  Q 47.40625 26.078125 47.40625 30.171875  Q 47.40625 35.25 44.484375 38.1875  Q 41.0625 36.921875 37.796875 36.921875  Q 29.890625 36.921875 29.890625 39.59375  Q 29.890625 43.109375 38.921875 43.109375  Q 42.140625 43.109375 44.828125 42.09375  Q 46.96875 43.75 48.71875 46.96875  Q 50.484375 50.203125 51.390625 53.71875  Q 52.296875 57.234375 52.296875 60.296875  Q 52.296875 63.578125 50.5625 65.75  Q 48.828125 67.921875 45.515625 67.921875  Q 39.40625 67.921875 34.15625 64.15625  Q 28.90625 60.40625 25.296875 54.65625  Q 21.6875 48.921875 20.125 42.828125  L 14.59375 20.703125  Q 14.0625 18.40625 13.921875 15.578125  Q 13.921875 9.328125 18.015625 5.265625  Q 22.125 1.21875 28.421875 1.21875  M 32.90625 39.890625  Q 34.421875 39.5 37.890625 39.5  Q 39.59375 39.5 41.3125 40.09375  Q 41.21875 40.1875 40.921875 40.1875  Q 39.84375 40.484375 38.625 40.484375  Q 34.078125 40.484375 32.90625 39.890625  "
               id="Cmmi10-af" />
          </defs>
          <g
             style="fill:#262626;"
             transform="translate(3.5527136788e-15 75.5812)scale(0.14 -0.14)"
             id="g188">
            <use
               xlink:href="#Cmmi10-af"
               id="use190" />
            <use
               transform="translate(56.494140625 0.0)"
               xlink:href="#Cmr10-28"
               id="use192" />
            <use
               transform="translate(95.3125 0.0)"
               xlink:href="#Cmmi10-75"
               id="use194" />
            <use
               transform="translate(152.490234375 0.0)"
               xlink:href="#Cmr10-29"
               id="use196" />
          </g>
        </g>
      </g>
      <g
         id="line2d_15">
        <path
           clip-path="url(#peed676294d)"
           d="M 175.274553 11.982  L 270.471349 11.982  "
           style="fill:none;stroke:#0000ff;stroke-linecap:round;stroke-width:1.4;"
           id="path199" />
      </g>
      <g
         id="line2d_16">
        <path
           clip-path="url(#peed676294d)"
           d="M 270.471349 11.982  L 271.432933 11.983216  L 272.394517 11.991582  L 273.3561 12.013845  L 274.317684 12.05632  L 275.279268 12.124902  L 276.240852 12.225073  L 277.202436 12.36191  L 278.164019 12.540097  L 279.125603 12.763931  L 280.087187 13.037334  L 281.048771 13.363859  L 282.010354 13.746703  L 282.971938 14.18871  L 283.933522 14.692387  L 284.895106 15.25991  L 285.85669 15.89313  L 286.818273 16.593589  L 287.779857 17.362521  L 288.741441 18.200868  L 289.703025 19.109286  L 290.664609 20.088153  L 291.626192 21.13758  L 292.587776 22.25742  L 293.54936 23.447277  L 294.510944 24.706512  L 295.472528 26.034257  L 296.434111 27.429421  L 297.395695 28.890701  L 298.357279 30.416588  L 299.318863 32.005379  L 300.280447 33.655184  L 301.24203 35.363938  L 302.203614 37.129407  L 303.165198 38.949198  L 304.126782 40.820769  L 305.088366 42.741437  L 306.049949 44.708387  L 307.011533 46.718682  L 307.973117 48.769273  L 308.934701 50.857004  L 309.896285 52.978626  L 310.857868 55.130802  L 311.819452 57.310119  L 312.781036 59.513096  L 313.74262 61.736193  L 314.704204 63.975819  L 315.665787 66.228345  L 316.627371 68.490106  L 317.588955 70.757418  L 318.550539 73.026582  L 319.512123 75.293894  L 320.473706 77.555655  L 321.43529 79.808181  L 322.396874 82.047807  L 323.358458 84.270904  L 324.320042 86.473881  L 325.281625 88.653198  L 326.243209 90.805374  L 327.204793 92.926996  L 328.166377 95.014727  L 329.127961 97.065318  L 330.089544 99.075613  L 331.051128 101.042563  L 332.012712 102.963231  L 332.974296 104.834802  L 333.93588 106.654593  L 334.897463 108.420062  L 335.859047 110.128816  L 336.820631 111.778621  L 337.782215 113.367412  L 338.743799 114.893299  L 339.705382 116.354579  L 340.666966 117.749743  L 341.62855 119.077488  L 342.590134 120.336723  L 343.551717 121.52658  L 344.513301 122.64642  L 345.474885 123.695847  L 346.436469 124.674714  L 347.398053 125.583132  L 348.359636 126.421479  L 349.32122 127.190411  L 350.282804 127.89087  L 351.244388 128.52409  L 352.205972 129.091613  L 353.167555 129.59529  L 354.129139 130.037297  L 355.090723 130.420141  L 356.052307 130.746666  L 357.013891 131.020069  L 357.975474 131.243903  L 358.937058 131.42209  L 359.898642 131.558927  L 360.860226 131.659098  L 361.82181 131.72768  L 362.783393 131.770155  L 363.744977 131.792418  L 364.706561 131.800784  L 365.668145 131.802  "
           style="fill:none;stroke:#8173b1;stroke-linecap:round;stroke-width:1.4;"
           id="path202" />
      </g>
      <g
         id="line2d_17">
        <path
           clip-path="url(#peed676294d)"
           d="M 32.479359 131.802  L 80.077757 131.802  "
           style="fill:none;stroke:#ff0000;stroke-linecap:round;stroke-width:1.4;"
           id="path205" />
      </g>
      <g
         id="line2d_18">
        <path
           clip-path="url(#peed676294d)"
           d="M 365.668145 131.802  L 413.266543 131.802  "
           style="fill:none;stroke:#ff0000;stroke-linecap:round;stroke-width:1.4;"
           id="path208" />
      </g>
      <g
         id="line2d_19">
        <path
           clip-path="url(#peed676294d)"
           d="M 175.274553 11.982  L 174.312969 11.983216  L 173.351385 11.991582  L 172.389802 12.013845  L 171.428218 12.05632  L 170.466634 12.124902  L 169.50505 12.225073  L 168.543466 12.36191  L 167.581883 12.540097  L 166.620299 12.763931  L 165.658715 13.037334  L 164.697131 13.363859  L 163.735547 13.746703  L 162.773964 14.18871  L 161.81238 14.692387  L 160.850796 15.25991  L 159.889212 15.89313  L 158.927628 16.593589  L 157.966045 17.362521  L 157.004461 18.200868  L 156.042877 19.109286  L 155.081293 20.088153  L 154.119709 21.13758  L 153.158126 22.25742  L 152.196542 23.447277  L 151.234958 24.706512  L 150.273374 26.034257  L 149.311791 27.429421  L 148.350207 28.890701  L 147.388623 30.416588  L 146.427039 32.005379  L 145.465455 33.655184  L 144.503872 35.363938  L 143.542288 37.129407  L 142.580704 38.949198  L 141.61912 40.820769  L 140.657536 42.741437  L 139.695953 44.708387  L 138.734369 46.718682  L 137.772785 48.769273  L 136.811201 50.857004  L 135.849617 52.978626  L 134.888034 55.130802  L 133.92645 57.310119  L 132.964866 59.513096  L 132.003282 61.736193  L 131.041698 63.975819  L 130.080115 66.228345  L 129.118531 68.490106  L 128.156947 70.757418  L 127.195363 73.026582  L 126.233779 75.293894  L 125.272196 77.555655  L 124.310612 79.808181  L 123.349028 82.047807  L 122.387444 84.270904  L 121.42586 86.473881  L 120.464277 88.653198  L 119.502693 90.805374  L 118.541109 92.926996  L 117.579525 95.014727  L 116.617941 97.065318  L 115.656358 99.075613  L 114.694774 101.042563  L 113.73319 102.963231  L 112.771606 104.834802  L 111.810022 106.654593  L 110.848439 108.420062  L 109.886855 110.128816  L 108.925271 111.778621  L 107.963687 113.367412  L 107.002103 114.893299  L 106.04052 116.354579  L 105.078936 117.749743  L 104.117352 119.077488  L 103.155768 120.336723  L 102.194184 121.52658  L 101.232601 122.64642  L 100.271017 123.695847  L 99.309433 124.674714  L 98.347849 125.583132  L 97.386265 126.421479  L 96.424682 127.190411  L 95.463098 127.89087  L 94.501514 128.52409  L 93.53993 129.091613  L 92.578346 129.59529  L 91.616763 130.037297  L 90.655179 130.420141  L 89.693595 130.746666  L 88.732011 131.020069  L 87.770428 131.243903  L 86.808844 131.42209  L 85.84726 131.558927  L 84.885676 131.659098  L 83.924092 131.72768  L 82.962509 131.770155  L 82.000925 131.792418  L 81.039341 131.800784  L 80.077757 131.802  "
           style="fill:none;stroke:#8173b1;stroke-linecap:round;stroke-width:1.4;"
           id="path211" />
      </g>
      <g
         id="line2d_20">
        <path
           clip-path="url(#peed676294d)"
           d="M 175.274553 143.784  L 175.274553 0  "
           style="fill:none;stroke:#0000ff;stroke-dasharray:2.000000,1.000000;stroke-dashoffset:0.0;stroke-width:0.5;"
           id="path214" />
      </g>
      <g
         id="line2d_21">
        <path
           clip-path="url(#peed676294d)"
           d="M 80.077757 143.784  L 80.077757 0  "
           style="fill:none;stroke:#ff0000;stroke-dasharray:2.000000,1.000000;stroke-dashoffset:0.0;stroke-width:0.5;"
           id="path217" />
      </g>
      <g
         id="line2d_22">
        <path
           clip-path="url(#peed676294d)"
           d="M 270.471349 143.784  L 270.471349 0  "
           style="fill:none;stroke:#0000ff;stroke-dasharray:2.000000,1.000000;stroke-dashoffset:0.0;stroke-width:0.5;"
           id="path220" />
      </g>
      <g
         id="line2d_23">
        <path
           clip-path="url(#peed676294d)"
           d="M 365.668145 143.784  L 365.668145 0  "
           style="fill:none;stroke:#ff0000;stroke-dasharray:2.000000,1.000000;stroke-dashoffset:0.0;stroke-width:0.5;"
           id="path223" />
      </g>
      <g
         id="patch_4" />
      <g
         id="patch_5">
        <path
           d="M 32.479359 143.784  L 413.266543 143.784  "
           style="fill:none;stroke:#262626;stroke-linecap:square;stroke-linejoin:miter;stroke-width:1.25;"
           id="path232" />
      </g>
    </g>
  </g>
  <defs
     id="defs237">
    <clipPath
       id="peed676294d">
      <rect
         height="143.784"
         width="380.787183594"
         x="32.4793591797"
         y="0.0"
         id="rect240" />
    </clipPath>
  </defs>
</svg>
