<?xml version="1.0" encoding="UTF-8" standalone="no"?>
<!-- Created with matplotlib (http://matplotlib.org/) -->

<svg
   xmlns:dc="http://purl.org/dc/elements/1.1/"
   xmlns:cc="http://creativecommons.org/ns#"
   xmlns:rdf="http://www.w3.org/1999/02/22-rdf-syntax-ns#"
   xmlns:svg="http://www.w3.org/2000/svg"
   xmlns="http://www.w3.org/2000/svg"
   xmlns:xlink="http://www.w3.org/1999/xlink"
   xmlns:sodipodi="http://sodipodi.sourceforge.net/DTD/sodipodi-0.dtd"
   xmlns:inkscape="http://www.inkscape.org/namespaces/inkscape"
   height="188.64737pt"
   version="1.1"
   viewBox="0 0 413.21707 188.64737"
   width="413.21707pt"
   id="svg2"
   inkscape:version="0.91 r13725"
   sodipodi:docname="inv-temp-control-func.svg">
  <metadata
     id="metadata150">
    <rdf:RDF>
      <cc:Work
         rdf:about="">
        <dc:format>image/svg+xml</dc:format>
        <dc:type
           rdf:resource="http://purl.org/dc/dcmitype/StillImage" />
        <dc:title></dc:title>
      </cc:Work>
    </rdf:RDF>
  </metadata>
  <sodipodi:namedview
     pagecolor="#ffffff"
     bordercolor="#666666"
     borderopacity="1"
     objecttolerance="10"
     gridtolerance="10"
     guidetolerance="10"
     inkscape:pageopacity="0"
     inkscape:pageshadow="2"
     inkscape:window-width="692"
     inkscape:window-height="480"
     id="namedview148"
     showgrid="false"
     fit-margin-top="0"
     fit-margin-left="0"
     fit-margin-right="0"
     fit-margin-bottom="0"
     inkscape:zoom="0.65925926"
     inkscape:cx="258.70009"
     inkscape:cy="112.98795"
     inkscape:window-x="0"
     inkscape:window-y="27"
     inkscape:window-maximized="0"
     inkscape:current-layer="patch_1" />
  <defs
     id="defs4"
     style="stroke-linecap:butt;stroke-linejoin:round;stroke-miterlimit:100000">
    <style
       type="text/css"
       id="style6">
*{stroke-linecap:butt;stroke-linejoin:round;stroke-miterlimit:100000;}
  </style>
  </defs>
  <g
     id="figure_1"
     style="stroke-linecap:butt;stroke-linejoin:round;stroke-miterlimit:100000"
     transform="translate(-9.039925,-9.743)">
    <g
       id="patch_1"
       style="stroke-linecap:butt;stroke-linejoin:round;stroke-miterlimit:100000" />
    <g
       id="axes_1"
       style="stroke-linecap:butt;stroke-linejoin:round;stroke-miterlimit:100000">
      <g
         id="patch_2"
         style="stroke-linecap:butt;stroke-linejoin:round;stroke-miterlimit:100000">
        <path
           d="m 32.233,158.152 389.399,0 0,-147.784 -389.399,0 z"
           style="fill:#ffffff;stroke-linecap:butt;stroke-linejoin:round;stroke-miterlimit:100000"
           id="path14"
           inkscape:connector-curvature="0" />
      </g>
      <g
         id="matplotlib.axis_1"
         style="stroke-linecap:butt;stroke-linejoin:round;stroke-miterlimit:100000">
        <g
           id="xtick_1"
           style="stroke-linecap:butt;stroke-linejoin:round;stroke-miterlimit:100000">
          <g
             id="line2d_1"
             style="stroke-linecap:butt;stroke-linejoin:round;stroke-miterlimit:100000" />
          <g
             id="line2d_2"
             style="stroke-linecap:butt;stroke-linejoin:round;stroke-miterlimit:100000" />
          <g
             id="text_1"
             style="stroke-linecap:butt;stroke-linejoin:round;stroke-miterlimit:100000">
            <!-- $-\theta_2$ -->
            <defs
               id="defs21">
              <path
                 d="m 16.109375,-1.125 q -4.53125,0 -7.265625,3.3125 Q 6.109375,5.515625 5.046875,10.203125 4,14.890625 4,19.484375 l 0,0.09375 q 0,4.984375 0.953125,10.34375 0.953125,5.375 2.75,10.71875 1.8125,5.359375 3.921875,9.5625 1.46875,2.921875 3.78125,6.53125 2.3125,3.625 5.171875,6.765625 2.859375,3.15625 6.15625,5.078125 3.296875,1.9375 6.671875,1.9375 l 0.09375,0 q 3.609375,0 6.015625,-2.015625 2.421875,-2 3.765625,-5.125 1.34375,-3.125 1.875,-6.6875 0.546875,-3.5625 0.546875,-6.78125 0,-7.578125 -2.046875,-15.46875 -2.046875,-7.875 -5.671875,-15.25 -1.359375,-2.78125 -3.78125,-6.546875 -2.421875,-3.75 -5.125,-6.734375 Q 26.375,2.9375 23,0.90625 19.625,-1.125 16.21875,-1.125 Z M 16.3125,1.515625 q 3.3125,0 6.359375,3.53125 3.0625,3.546875 5.359375,8.59375 2.296875,5.0625 4.03125,10.359375 1.734375,5.296875 2.5625,9.015625 l -20.421875,0 q -1.5625,-6.3125 -2.4375,-10.875 -0.875,-4.5625 -0.875,-8.953125 0,-11.671875 5.421875,-11.671875 m -1.328125,35.015625 20.515625,0 q 1.078125,4.390625 1.703125,7.34375 0.640625,2.953125 1.078125,6.21875 0.4375,3.28125 0.4375,6.109375 0,11.71875 -5.3125,11.71875 -6.359375,0 -10.96875,-10.234375 -4.609375,-10.21875 -7.453125,-21.15625"
                 id="Cmmi10-b5"
                 inkscape:connector-curvature="0"
                 style="stroke-linecap:butt;stroke-linejoin:round;stroke-miterlimit:100000" />
              <path
                 d="m 4.984375,0 0,2.6875 q 0,0.25 0.1875,0.53125 l 15.53125,17.1875 q 3.515625,3.8125 5.703125,6.390625 2.203125,2.59375 4.34375,5.96875 2.15625,3.375 3.40625,6.859375 1.25,3.484375 1.25,7.390625 0,4.109375 -1.515625,7.84375 Q 32.375,58.59375 29.375,60.84375 q -3,2.25 -7.25,2.25 -4.34375,0 -7.8125,-2.625 -3.46875,-2.609375 -4.890625,-6.75 Q 9.8125,53.8125 10.5,53.8125 q 2.25,0 3.828125,-1.515625 1.59375,-1.515625 1.59375,-3.90625 0,-2.296875 -1.59375,-3.890625 Q 12.75,42.921875 10.5,42.921875 q -2.34375,0 -3.9375,1.625 -1.578125,1.640625 -1.578125,3.84375 0,3.765625 1.40625,7.046875 1.421875,3.296875 4.078125,5.859375 2.671875,2.578125 6.015625,3.9375 3.34375,1.375 7.09375,1.375 5.71875,0 10.640625,-2.421875 4.9375,-2.421875 7.8125,-6.84375 2.890625,-4.40625 2.890625,-10.328125 0,-4.34375 -1.90625,-8.25 -1.90625,-3.90625 -4.890625,-7.109375 -2.96875,-3.1875 -7.609375,-7.25 Q 25.875,20.359375 24.421875,19 L 13.09375,8.109375 l 9.609375,0 q 7.078125,0 11.84375,0.109375 4.765625,0.125 5.046875,0.375 Q 40.765625,9.859375 42,17.828125 l 2.921875,0 L 42.09375,0 Z"
                 id="Cmr10-32"
                 inkscape:connector-curvature="0"
                 style="stroke-linecap:butt;stroke-linejoin:round;stroke-miterlimit:100000" />
              <path
                 d="m 10.203125,23 q -0.828125,0 -1.375,0.625 -0.53125,0.640625 -0.53125,1.375 0,0.734375 0.53125,1.359375 Q 9.375,27 10.203125,27 l 57.375,0 q 0.78125,0 1.296875,-0.640625 0.515625,-0.625 0.515625,-1.359375 0,-0.734375 -0.515625,-1.375 Q 68.359375,23 67.578125,23 Z"
                 id="Cmsy10-a1"
                 inkscape:connector-curvature="0"
                 style="stroke-linecap:butt;stroke-linejoin:round;stroke-miterlimit:100000" />
            </defs>
            <g
               style="fill:#262626;stroke-linecap:butt;stroke-linejoin:round;stroke-miterlimit:100000"
               transform="matrix(0.12,0,0,-0.12,70.947875,172.87012)"
               id="g26">
              <use
                 transform="translate(0,0.484375)"
                 xlink:href="#Cmsy10-a1"
                 id="use28"
                 style="stroke-linecap:butt;stroke-linejoin:round;stroke-miterlimit:100000"
                 x="0"
                 y="0"
                 width="100%"
                 height="100%" />
              <use
                 transform="translate(77.685547,0.484375)"
                 xlink:href="#Cmmi10-b5"
                 id="use30"
                 style="stroke-linecap:butt;stroke-linejoin:round;stroke-miterlimit:100000"
                 x="0"
                 y="0"
                 width="100%"
                 height="100%" />
              <use
                 transform="matrix(0.7,0,0,0.7,124.60938,-16.521875)"
                 xlink:href="#Cmr10-32"
                 id="use32"
                 style="stroke-linecap:butt;stroke-linejoin:round;stroke-miterlimit:100000"
                 x="0"
                 y="0"
                 width="100%"
                 height="100%" />
            </g>
          </g>
        </g>
        <g
           id="xtick_2"
           style="stroke-linecap:butt;stroke-linejoin:round;stroke-miterlimit:100000">
          <g
             id="line2d_3"
             style="stroke-linecap:butt;stroke-linejoin:round;stroke-miterlimit:100000" />
          <g
             id="line2d_4"
             style="stroke-linecap:butt;stroke-linejoin:round;stroke-miterlimit:100000" />
          <g
             id="text_2"
             style="stroke-linecap:butt;stroke-linejoin:round;stroke-miterlimit:100000">
            <!-- $-\theta_1$ -->
            <defs
               id="defs38">
              <path
                 d="m 9.28125,0 0,3.515625 q 12.5,0 12.5,3.171875 l 0,52.5 q -5.171875,-2.5 -13.09375,-2.5 l 0,3.515625 q 12.265625,0 18.515625,6.40625 l 1.40625,0 q 0.34375,0 0.65625,-0.28125 Q 29.59375,66.0625 29.59375,65.71875 l 0,-59.03125 q 0,-3.171875 12.5,-3.171875 L 42.09375,0 Z"
                 id="Cmr10-31"
                 inkscape:connector-curvature="0"
                 style="stroke-linecap:butt;stroke-linejoin:round;stroke-miterlimit:100000" />
            </defs>
            <g
               style="fill:#262626;stroke-linecap:butt;stroke-linejoin:round;stroke-miterlimit:100000"
               transform="matrix(0.12,0,0,-0.12,168.29762,172.87012)"
               id="g41">
              <use
                 transform="translate(0,0.484375)"
                 xlink:href="#Cmsy10-a1"
                 id="use43"
                 style="stroke-linecap:butt;stroke-linejoin:round;stroke-miterlimit:100000"
                 x="0"
                 y="0"
                 width="100%"
                 height="100%" />
              <use
                 transform="translate(77.685547,0.484375)"
                 xlink:href="#Cmmi10-b5"
                 id="use45"
                 style="stroke-linecap:butt;stroke-linejoin:round;stroke-miterlimit:100000"
                 x="0"
                 y="0"
                 width="100%"
                 height="100%" />
              <use
                 transform="matrix(0.7,0,0,0.7,124.60938,-16.521875)"
                 xlink:href="#Cmr10-31"
                 id="use47"
                 style="stroke-linecap:butt;stroke-linejoin:round;stroke-miterlimit:100000"
                 x="0"
                 y="0"
                 width="100%"
                 height="100%" />
            </g>
          </g>
        </g>
        <g
           id="xtick_3"
           style="stroke-linecap:butt;stroke-linejoin:round;stroke-miterlimit:100000">
          <g
             id="line2d_5"
             style="stroke-linecap:butt;stroke-linejoin:round;stroke-miterlimit:100000" />
          <g
             id="line2d_6"
             style="stroke-linecap:butt;stroke-linejoin:round;stroke-miterlimit:100000" />
          <g
             id="text_3"
             style="stroke-linecap:butt;stroke-linejoin:round;stroke-miterlimit:100000">
            <!-- 0 -->
            <defs
               id="defs53">
              <path
                 d="m 31.78125,3.421875 q 7.484375,0 11.1875,8.203125 3.71875,8.203125 3.71875,24.75 0,16.609375 -3.71875,24.8125 -3.703125,8.203125 -11.1875,8.203125 -7.46875,0 -11.1875,-8.203125 -3.703125,-8.203125 -3.703125,-24.8125 0,-16.546875 3.703125,-24.75 3.71875,-8.203125 11.1875,-8.203125 m 0,-4.84375 Q 19.921875,-1.421875 13.25,8.53125 6.59375,18.5 6.59375,36.375 q 0,17.921875 6.65625,27.875 6.671875,9.96875 18.53125,9.96875 11.921875,0 18.5625,-9.96875 6.640625,-9.953125 6.640625,-27.875 0,-17.875 -6.640625,-27.84375 -6.640625,-9.953125 -18.5625,-9.953125"
                 id="BitstreamVeraSerif-Roman-30"
                 inkscape:connector-curvature="0"
                 style="stroke-linecap:butt;stroke-linejoin:round;stroke-miterlimit:100000" />
            </defs>
            <g
               style="fill:#262626;stroke-linecap:butt;stroke-linejoin:round;stroke-miterlimit:100000"
               transform="matrix(0.12,0,0,-0.12,223.115,172.87012)"
               id="g56">
              <use
                 xlink:href="#BitstreamVeraSerif-Roman-30"
                 id="use58"
                 style="stroke-linecap:butt;stroke-linejoin:round;stroke-miterlimit:100000"
                 x="0"
                 y="0"
                 width="100%"
                 height="100%" />
            </g>
          </g>
        </g>
        <g
           id="xtick_4"
           style="stroke-linecap:butt;stroke-linejoin:round;stroke-miterlimit:100000">
          <g
             id="line2d_7"
             style="stroke-linecap:butt;stroke-linejoin:round;stroke-miterlimit:100000" />
          <g
             id="line2d_8"
             style="stroke-linecap:butt;stroke-linejoin:round;stroke-miterlimit:100000" />
          <g
             id="text_4"
             style="stroke-linecap:butt;stroke-linejoin:round;stroke-miterlimit:100000">
            <!-- $\theta_1$ -->
            <g
               style="fill:#262626;stroke-linecap:butt;stroke-linejoin:round;stroke-miterlimit:100000"
               transform="matrix(0.12,0,0,-0.12,270.26738,172.87012)"
               id="g64">
              <use
                 transform="translate(0,0.484375)"
                 xlink:href="#Cmmi10-b5"
                 id="use66"
                 style="stroke-linecap:butt;stroke-linejoin:round;stroke-miterlimit:100000"
                 x="0"
                 y="0"
                 width="100%"
                 height="100%" />
              <use
                 transform="matrix(0.7,0,0,0.7,46.923828,-16.521875)"
                 xlink:href="#Cmr10-31"
                 id="use68"
                 style="stroke-linecap:butt;stroke-linejoin:round;stroke-miterlimit:100000"
                 x="0"
                 y="0"
                 width="100%"
                 height="100%" />
            </g>
          </g>
        </g>
        <g
           id="xtick_5"
           style="stroke-linecap:butt;stroke-linejoin:round;stroke-miterlimit:100000">
          <g
             id="line2d_9"
             style="stroke-linecap:butt;stroke-linejoin:round;stroke-miterlimit:100000" />
          <g
             id="line2d_10"
             style="stroke-linecap:butt;stroke-linejoin:round;stroke-miterlimit:100000" />
          <g
             id="text_5"
             style="stroke-linecap:butt;stroke-linejoin:round;stroke-miterlimit:100000">
            <!-- $\theta_2$ -->
            <g
               style="fill:#262626;stroke-linecap:butt;stroke-linejoin:round;stroke-miterlimit:100000"
               transform="matrix(0.12,0,0,-0.12,367.61712,172.87012)"
               id="g74">
              <use
                 transform="translate(0,0.484375)"
                 xlink:href="#Cmmi10-b5"
                 id="use76"
                 style="stroke-linecap:butt;stroke-linejoin:round;stroke-miterlimit:100000"
                 x="0"
                 y="0"
                 width="100%"
                 height="100%" />
              <use
                 transform="matrix(0.7,0,0,0.7,46.923828,-16.521875)"
                 xlink:href="#Cmr10-32"
                 id="use78"
                 style="stroke-linecap:butt;stroke-linejoin:round;stroke-miterlimit:100000"
                 x="0"
                 y="0"
                 width="100%"
                 height="100%" />
            </g>
          </g>
        </g>
        <g
           id="text_6"
           style="stroke-linecap:butt;stroke-linejoin:round;stroke-miterlimit:100000">
          <!-- $u$ -->
          <defs
             id="defs81">
            <path
               d="m 10.59375,10.890625 q 0,3.265625 0.875,6.703125 0.890625,3.453125 2.46875,7.671875 1.59375,4.234375 2.765625,7.359375 1.3125,3.65625 1.3125,6 0,2.984375 -2.1875,2.984375 -3.96875,0 -6.53125,-4.078125 -2.5625,-4.078125 -3.78125,-9.109375 Q 5.328125,27.78125 4.6875,27.78125 l -1.171875,0 q -0.828125,0 -0.828125,0.9375 l 0,0.28125 q 1.609375,5.96875 4.921875,10.578125 3.328125,4.609375 8.40625,4.609375 3.5625,0 6.03125,-2.34375 2.46875,-2.34375 2.46875,-5.953125 0,-1.859375 -0.828125,-3.90625 -0.4375,-1.21875 -2,-5.328125 -1.5625,-4.09375 -2.40625,-6.78125 -0.828125,-2.6875 -1.359375,-5.28125 -0.53125,-2.578125 -0.53125,-5.171875 0,-3.3125 1.40625,-5.609375 1.421875,-2.296875 4.59375,-2.296875 6.390625,0 11.234375,7.90625 0.09375,0.390625 0.15625,0.75 0.07813,0.375 0.125,0.71875 l 7.1875,29 q 0.34375,1.328125 1.5625,2.265625 1.21875,0.953125 2.640625,0.953125 1.21875,0 2.109375,-0.78125 0.90625,-0.78125 0.90625,-2.046875 0,-0.578125 -0.09375,-0.78125 L 42,10.6875 q -0.6875,-2.96875 -0.6875,-4.875 0,-4.296875 2.875,-4.296875 3.21875,0 4.8125,3.96875 1.59375,3.984375 2.703125,9.21875 0.203125,0.578125 0.78125,0.578125 l 1.234375,0 q 0.390625,0 0.625,-0.34375 0.25,-0.34375 0.25,-0.625 -1.078125,-4.296875 -2.078125,-7.375 -1,-3.078125 -3.15625,-5.578125 Q 47.21875,-1.125 44,-1.125 q -3.171875,0 -5.6875,1.734375 -2.515625,1.734375 -3.40625,4.71875 -2.28125,-2.9375 -5.3125,-4.703125 -3.03125,-1.75 -6.40625,-1.75 -5.75,0 -9.171875,3.140625 -3.421875,3.15625 -3.421875,8.875"
               id="Cmmi10-75"
               inkscape:connector-curvature="0"
               style="stroke-linecap:butt;stroke-linejoin:round;stroke-miterlimit:100000" />
          </defs>
          <g
             style="fill:#262626;stroke-linecap:butt;stroke-linejoin:round;stroke-miterlimit:100000"
             transform="matrix(0.14,0,0,-0.14,222.8725,198.34661)"
             id="g84">
            <use
               transform="translate(0,0.8125)"
               xlink:href="#Cmmi10-75"
               id="use86"
               style="stroke-linecap:butt;stroke-linejoin:round;stroke-miterlimit:100000"
               x="0"
               y="0"
               width="100%"
               height="100%" />
          </g>
        </g>
      </g>
      <g
         id="matplotlib.axis_2"
         style="stroke-linecap:butt;stroke-linejoin:round;stroke-miterlimit:100000">
        <g
           id="ytick_1"
           style="stroke-linecap:butt;stroke-linejoin:round;stroke-miterlimit:100000">
          <g
             id="line2d_11"
             style="stroke-linecap:butt;stroke-linejoin:round;stroke-miterlimit:100000" />
          <g
             id="line2d_12"
             style="stroke-linecap:butt;stroke-linejoin:round;stroke-miterlimit:100000" />
          <g
             id="text_7"
             style="stroke-linecap:butt;stroke-linejoin:round;stroke-miterlimit:100000">
            <!-- $s$ -->
            <defs
               id="defs93">
              <path
                 d="m 8.6875,6.109375 q 2.6875,-4.59375 10.796875,-4.59375 3.515625,0 6.6875,1.1875 3.171875,1.203125 5.25,3.59375 Q 33.5,8.6875 33.5,12.109375 q 0,2.59375 -1.859375,4.25 -1.859375,1.65625 -4.546875,2.25 l -5.40625,1.0625 q -3.71875,0.9375 -6.109375,3.46875 -2.390625,2.546875 -2.390625,6.15625 0,4.4375 2.40625,7.859375 2.421875,3.421875 6.375,5.21875 3.953125,1.8125 8.203125,1.8125 4.546875,0 8.125,-2.171875 3.59375,-2.171875 3.59375,-6.421875 0,-2.296875 -1.296875,-4.0625 -1.28125,-1.75 -3.578125,-1.75 -1.328125,0 -2.28125,0.859375 -0.9375,0.859375 -0.9375,2.171875 0,1.171875 0.65625,2.265625 0.65625,1.109375 1.75,1.765625 Q 37.3125,37.5 38.484375,37.5 q -0.890625,2.15625 -3.3125,3.125 -2.40625,0.984375 -5.1875,0.984375 -2.546875,0 -5.09375,-1.03125 -2.53125,-1.03125 -4.078125,-3.015625 -1.53125,-1.96875 -1.53125,-4.65625 0,-1.796875 1.265625,-3.171875 Q 21.828125,28.375 23.6875,27.78125 L 29.5,26.609375 Q 32.28125,26.03125 34.59375,24.53125 36.921875,23.046875 38.25,20.765625 39.59375,18.5 39.59375,15.578125 39.59375,11.859375 37.515625,8.25 35.453125,4.640625 32.421875,2.484375 27.09375,-1.125 19.390625,-1.125 q -5.328125,0 -9.78125,2.4375 -4.4375,2.453125 -4.4375,7.28125 0,2.734375 1.578125,4.75 1.59375,2.03125 4.328125,2.03125 1.625,0 2.71875,-0.984375 1.09375,-0.96875 1.09375,-2.578125 0,-2.296875 -1.71875,-4 Q 11.46875,6.109375 9.1875,6.109375 Z"
                 id="Cmmi10-73"
                 inkscape:connector-curvature="0"
                 style="stroke-linecap:butt;stroke-linejoin:round;stroke-miterlimit:100000" />
            </defs>
            <g
               style="fill:#262626;stroke-linecap:butt;stroke-linejoin:round;stroke-miterlimit:100000"
               transform="matrix(0.12,0,0,-0.12,20.993,149.14792)"
               id="g96">
              <use
                 transform="translate(0,0.8125)"
                 xlink:href="#Cmmi10-73"
                 id="use98"
                 style="stroke-linecap:butt;stroke-linejoin:round;stroke-miterlimit:100000"
                 x="0"
                 y="0"
                 width="100%"
                 height="100%" />
            </g>
          </g>
        </g>
        <g
           id="ytick_2"
           style="stroke-linecap:butt;stroke-linejoin:round;stroke-miterlimit:100000">
          <g
             id="line2d_13"
             style="stroke-linecap:butt;stroke-linejoin:round;stroke-miterlimit:100000" />
          <g
             id="line2d_14"
             style="stroke-linecap:butt;stroke-linejoin:round;stroke-miterlimit:100000" />
          <g
             id="text_8"
             style="stroke-linecap:butt;stroke-linejoin:round;stroke-miterlimit:100000">
            <!-- $1$ -->
            <g
               style="fill:#262626;stroke-linecap:butt;stroke-linejoin:round;stroke-miterlimit:100000"
               transform="matrix(0.12,0,0,-0.12,20.633,25.994583)"
               id="g104">
              <use
                 transform="translate(0,0.390625)"
                 xlink:href="#Cmr10-31"
                 id="use106"
                 style="stroke-linecap:butt;stroke-linejoin:round;stroke-miterlimit:100000"
                 x="0"
                 y="0"
                 width="100%"
                 height="100%" />
            </g>
          </g>
        </g>
        <g
           id="text_9"
           style="stroke-linecap:butt;stroke-linejoin:round;stroke-miterlimit:100000">
          <!-- $\beta$ -->
          <defs
             id="defs109">
            <path
               d="m 2.6875,-19.390625 q -0.296875,0 -0.546875,0.34375 -0.234375,0.34375 -0.234375,0.640625 l 15.375,61.8125 q 1.328125,4.984375 3.859375,9.671875 2.546875,4.6875 6.375,8.71875 3.828125,4.03125 8.421875,6.375 4.59375,2.34375 9.765625,2.34375 3.71875,0 6.71875,-1.640625 3,-1.640625 4.734375,-4.59375 1.734375,-2.953125 1.734375,-6.65625 0,-3.578125 -1.375,-6.828125 Q 56.15625,47.5625 53.703125,44.75 q -2.4375,-2.8125 -5.21875,-4.5625 1.609375,-1.03125 2.875,-2.625 1.28125,-1.578125 2.0625,-3.3125 0.78125,-1.734375 1.21875,-3.859375 0.4375,-2.125 0.4375,-3.96875 0,-5.125 -2.203125,-10.109375 Q 50.6875,11.328125 46.890625,7.265625 43.109375,3.21875 38.21875,0.84375 q -4.875,-2.359375 -10,-2.359375 -5.609375,0 -10.109375,3.078125 -4.484375,3.078125 -6.1875,8.34375 L 4.6875,-18.796875 q 0,-0.59375 -0.78125,-0.59375 z M 28.421875,1.21875 q 4.484375,0 8.125,2.953125 3.640625,2.953125 6,7.421875 2.375,4.46875 3.609375,9.46875 1.25,5.015625 1.25,9.109375 0,5.078125 -2.921875,8.015625 -3.421875,-1.265625 -6.6875,-1.265625 -7.90625,0 -7.90625,2.671875 0,3.515625 9.03125,3.515625 3.21875,0 5.90625,-1.015625 2.140625,1.65625 3.890625,4.875 1.765625,3.234375 2.671875,6.75 0.90625,3.515625 0.90625,6.578125 0,3.28125 -1.734375,5.453125 -1.734375,2.171875 -5.046875,2.171875 -6.109375,0 -11.359375,-3.765625 -5.25,-3.75 -8.859375,-9.5 Q 21.6875,48.921875 20.125,42.828125 l -5.53125,-22.125 q -0.53125,-2.296875 -0.671875,-5.125 0,-6.25 4.09375,-10.3125 Q 22.125,1.21875 28.421875,1.21875 M 32.90625,39.890625 Q 34.421875,39.5 37.890625,39.5 q 1.703125,0 3.421875,0.59375 -0.09375,0.09375 -0.390625,0.09375 -1.078125,0.296875 -2.296875,0.296875 -4.546875,0 -5.71875,-0.59375"
               id="Cmmi10-af"
               inkscape:connector-curvature="0"
               style="stroke-linecap:butt;stroke-linejoin:round;stroke-miterlimit:100000" />
          </defs>
          <g
             style="fill:#262626;stroke-linecap:butt;stroke-linejoin:round;stroke-miterlimit:100000"
             transform="matrix(0.14,0,0,-0.14,8.77305,88.737638)"
             id="g112">
            <use
               transform="translate(0,0.484375)"
               xlink:href="#Cmmi10-af"
               id="use114"
               style="stroke-linecap:butt;stroke-linejoin:round;stroke-miterlimit:100000"
               x="0"
               y="0"
               width="100%"
               height="100%" />
          </g>
        </g>
      </g>
      <g
         id="line2d_15"
         style="stroke-linecap:butt;stroke-linejoin:round;stroke-miterlimit:100000">
        <path
           clip-path="url(#p90ac63dc0e)"
           d="m 178.25762,22.683333 97.34975,0"
           style="fill:none;stroke:#0000ff;stroke-width:1.39999998;stroke-linecap:round;stroke-linejoin:round;stroke-miterlimit:100000"
           id="path117"
           inkscape:connector-curvature="0" />
      </g>
      <g
         id="line2d_16"
         style="stroke-linecap:butt;stroke-linejoin:round;stroke-miterlimit:100000">
        <path
           clip-path="url(#p90ac63dc0e)"
           d="m 275.60737,22.683333 0.98334,0.0012 0.98333,0.0086 0.98333,0.02288 0.98333,0.04366 0.98333,0.07049 0.98333,0.102957 0.98333,0.140644 0.98333,0.183144 0.98333,0.230062 0.98333,0.281008 0.98333,0.335609 0.98334,0.393494 0.98333,0.454304 0.98333,0.517689 0.98333,0.583311 0.98333,0.650836 0.98333,0.719945 0.98333,0.790323 0.98333,0.86167 0.98333,0.93369 0.98333,1.006098 0.98333,1.078622 0.98333,1.150994 0.98333,1.222957 0.98334,1.294267 0.98333,1.364682 0.98333,1.433977 0.98333,1.501932 0.98333,1.568337 0.98333,1.63299 0.98333,1.695702 0.98333,1.756291 0.98333,1.814583 0.98333,1.870417 0.98333,1.923637 0.98333,1.9741 0.98333,2.021669 0.98334,2.066221 0.98333,2.107637 0.98333,2.145811 0.98333,2.180644 0.98333,2.212048 0.98333,2.239945 0.98333,2.264263 0.98333,2.284942 0.98333,2.301932 0.98333,2.31519 0.98333,2.324682 0.98334,2.330388 0.98332,2.33229 0.98334,2.330388 0.98333,2.324682 0.98333,2.31519 0.98333,2.301932 0.98333,2.284942 0.98333,2.264263 0.98333,2.239946 0.98333,2.21204 0.98333,2.18065 0.98333,2.14581 0.98333,2.10764 0.98334,2.06622 0.98333,2.02167 0.98333,1.9741 0.98333,1.92363 0.98333,1.87042 0.98333,1.81458 0.98333,1.7563 0.98333,1.6957 0.98333,1.63299 0.98333,1.56833 0.98333,1.50194 0.98333,1.43397 0.98333,1.36468 0.98334,1.29427 0.98333,1.22296 0.98333,1.15099 0.98333,1.07862 0.98333,1.0061 0.98333,0.93369 0.98333,0.86167 0.98333,0.79033 0.98333,0.71994 0.98333,0.65084 0.98333,0.58331 0.98333,0.51769 0.98333,0.4543 0.98334,0.3935 0.98333,0.3356 0.98333,0.28101 0.98333,0.23006 0.98333,0.18315 0.98333,0.14064 0.98333,0.10296 0.98333,0.0705 0.98333,0.0437 0.98333,0.0229 0.98333,0.009 0.98334,0.001"
           style="fill:none;stroke:#8173b1;stroke-width:1.39999998;stroke-linecap:round;stroke-linejoin:round;stroke-miterlimit:100000"
           id="path120"
           inkscape:connector-curvature="0" />
      </g>
      <g
         id="line2d_17"
         style="stroke-linecap:butt;stroke-linejoin:round;stroke-miterlimit:100000">
        <path
           clip-path="url(#p90ac63dc0e)"
           d="m 32.233,145.83667 48.674875,0"
           style="fill:none;stroke:#ff0000;stroke-width:1.39999998;stroke-linecap:round;stroke-linejoin:round;stroke-miterlimit:100000"
           id="path123"
           inkscape:connector-curvature="0" />
      </g>
      <g
         id="line2d_18"
         style="stroke-linecap:butt;stroke-linejoin:round;stroke-miterlimit:100000">
        <path
           clip-path="url(#p90ac63dc0e)"
           d="m 372.95713,145.83667 48.67487,0"
           style="fill:none;stroke:#ff0000;stroke-width:1.39999998;stroke-linecap:round;stroke-linejoin:round;stroke-miterlimit:100000"
           id="path126"
           inkscape:connector-curvature="0" />
      </g>
      <g
         id="line2d_19"
         style="stroke-linecap:butt;stroke-linejoin:round;stroke-miterlimit:100000">
        <path
           clip-path="url(#p90ac63dc0e)"
           d="m 178.25762,22.683333 -0.98333,0.0012 -0.98333,0.0086 -0.98333,0.02288 -0.98333,0.04366 -0.98333,0.07049 -0.98333,0.102957 -0.98333,0.140644 -0.98333,0.183144 -0.98333,0.230062 -0.98333,0.281008 -0.98333,0.335609 -0.98334,0.393494 -0.98333,0.454304 -0.98333,0.517689 -0.98333,0.583311 -0.98333,0.650836 -0.98333,0.719945 -0.98333,0.790323 -0.98333,0.86167 -0.98333,0.93369 -0.98333,1.006098 -0.98333,1.078622 -0.98333,1.150994 -0.98333,1.222957 -0.98334,1.294267 -0.98333,1.364682 -0.98333,1.433977 -0.98333,1.501932 -0.98333,1.568337 -0.98333,1.63299 -0.98333,1.695702 -0.98333,1.756291 -0.98333,1.814583 -0.98333,1.870417 -0.98333,1.923637 -0.98333,1.9741 -0.98334,2.021669 -0.98333,2.066221 -0.98333,2.107637 -0.98333,2.145811 -0.98333,2.180644 -0.98333,2.212048 -0.98333,2.239945 -0.98333,2.264263 -0.98333,2.284942 -0.98333,2.301932 -0.98333,2.31519 -0.98333,2.324682 -0.98334,2.330388 -0.98333,2.33229 -0.98333,2.330388 -0.98333,2.324682 -0.98333,2.31519 -0.98333,2.301932 -0.98333,2.284942 -0.98333,2.264263 -0.98333,2.239946 -0.98333,2.21204 -0.98333,2.18065 -0.98333,2.14581 -0.98333,2.10764 -0.98333,2.06622 -0.98334,2.02167 -0.98333,1.9741 -0.98333,1.92363 -0.98333,1.87042 -0.98333,1.81458 -0.98333,1.7563 -0.98333,1.6957 -0.98333,1.63299 -0.98333,1.56833 -0.98333,1.50194 -0.98333,1.43397 -0.98333,1.36468 -0.98334,1.29427 -0.98333,1.22296 -0.98333,1.15099 -0.98333,1.07862 -0.98333,1.0061 -0.98333,0.93369 -0.98333,0.86167 -0.983331,0.79033 -0.983331,0.71994 -0.983331,0.65084 -0.983331,0.58331 -0.98333,0.51769 -0.983331,0.4543 -0.983331,0.3935 -0.983331,0.3356 -0.983331,0.28101 -0.983331,0.23006 -0.98333,0.18315 -0.983331,0.14064 -0.983331,0.10296 -0.983331,0.0705 -0.983331,0.0437 -0.98333,0.0229 -0.983331,0.009 -0.983331,0.001"
           style="fill:none;stroke:#8173b1;stroke-width:1.39999998;stroke-linecap:round;stroke-linejoin:round;stroke-miterlimit:100000"
           id="path129"
           inkscape:connector-curvature="0" />
      </g>
      <g
         id="patch_3"
         style="stroke-linecap:butt;stroke-linejoin:round;stroke-miterlimit:100000">
        <path
           d="m 32.233,10.368 389.399,0"
           style="fill:none;stroke:#262626;stroke-width:1.25;stroke-linecap:square;stroke-linejoin:miter;stroke-miterlimit:100000"
           id="path132"
           inkscape:connector-curvature="0" />
      </g>
      <g
         id="patch_4"
         style="stroke-linecap:butt;stroke-linejoin:round;stroke-miterlimit:100000">
        <path
           d="m 421.632,158.152 0,-147.784"
           style="fill:none;stroke:#262626;stroke-width:1.25;stroke-linecap:square;stroke-linejoin:miter;stroke-miterlimit:100000"
           id="path135"
           inkscape:connector-curvature="0" />
      </g>
      <g
         id="patch_5"
         style="stroke-linecap:butt;stroke-linejoin:round;stroke-miterlimit:100000">
        <path
           d="m 32.233,158.152 389.399,0"
           style="fill:none;stroke:#262626;stroke-width:1.25;stroke-linecap:square;stroke-linejoin:miter;stroke-miterlimit:100000"
           id="path138"
           inkscape:connector-curvature="0" />
      </g>
      <g
         id="patch_6"
         style="stroke-linecap:butt;stroke-linejoin:round;stroke-miterlimit:100000">
        <path
           d="m 32.233,158.152 0,-147.784"
           style="fill:none;stroke:#262626;stroke-width:1.25;stroke-linecap:square;stroke-linejoin:miter;stroke-miterlimit:100000"
           id="path141"
           inkscape:connector-curvature="0" />
      </g>
    </g>
  </g>
  <defs
     id="defs143">
    <clipPath
       id="p90ac63dc0e"
       style="stroke-linecap:butt;stroke-linejoin:round;stroke-miterlimit:100000">
      <rect
         height="147.784"
         width="389.39899"
         x="32.233002"
         y="10.368"
         id="rect146"
         style="stroke-linecap:butt;stroke-linejoin:round;stroke-miterlimit:100000" />
    </clipPath>
  </defs>
</svg>
