<?xml version="1.0" encoding="utf-8" standalone="no"?>
<!DOCTYPE svg PUBLIC "-//W3C//DTD SVG 1.1//EN"
  "http://www.w3.org/Graphics/SVG/1.1/DTD/svg11.dtd">
<!-- Created with matplotlib (http://matplotlib.org/) -->
<svg height="432pt" version="1.1" viewBox="0 0 432 432" width="432pt" xmlns="http://www.w3.org/2000/svg" xmlns:xlink="http://www.w3.org/1999/xlink">
 <defs>
  <style type="text/css">
*{stroke-linecap:butt;stroke-linejoin:round;}
  </style>
 </defs>
 <g id="figure_1">
  <g id="patch_1">
   <path d="
M0 432
L432 432
L432 0
L0 0
z
" style="fill:#ffffff;"/>
  </g>
  <g id="axes_1">
   <g id="patch_2">
    <path d="
M10.8 84.24
L84.24 84.24
L84.24 10.8
L10.8 10.8
z
" style="fill:#ffffff;"/>
   </g>
   <g id="line2d_1">
    <path clip-path="url(#pc85c3a2a70)" d="
M10.8 65.6329
L12.2688 64.4434
L13.7376 67.3252
L15.2064 74.2827
L16.6752 75.8564
L18.144 76.0967
L19.6128 76.0265
L21.0816 76.1026
L22.5504 76.0041
L24.0192 75.9802
L25.488 76.049
L26.9568 76.0525
L28.4256 76.1109
L29.8944 76.0365
L31.3632 76.1625
L32.832 76.07
L34.3008 75.8979
L35.7696 75.7221
L37.2384 75.6842
L38.7072 75.5888
L40.176 75.5024
L41.6448 75.1857
L43.1136 74.9148
L44.5824 74.6777
L46.0512 74.2982
L47.52 73.9598
L48.9888 73.6047
L50.4576 73.1346
L51.9264 72.7835
L53.3952 72.6671
L54.864 72.83
L56.3328 73.2848
L57.8016 74.0026
L59.2704 74.6123
L60.7392 75.0019
L62.208 75.4343
L63.6768 75.6746
L65.1456 75.7204
L66.6144 75.7074
L68.0832 75.6454
L69.552 75.6627
L71.0208 75.66
L72.4896 75.6217
L73.9584 75.6323
L75.4272 75.6824
L76.896 75.645
L78.3648 75.6486
L79.8336 75.7077
L81.3024 75.7918
L82.7712 75.7776" style="fill:none;stroke:#4c80e6;stroke-linecap:square;stroke-width:2;"/>
   </g>
   <g id="line2d_2">
    <path clip-path="url(#pc85c3a2a70)" d="
M10.8 60.3956
L12.2688 43.8888
L13.7376 19.2673
L15.2064 15.5575
L16.6752 21.1048
L18.144 27.6453
L19.6128 32.7671
L21.0816 37.8262
L22.5504 42.0676
L24.0192 45.501
L25.488 48.9256
L26.9568 51.9229
L28.4256 54.6872
L29.8944 57.0947
L31.3632 59.4653
L32.832 61.3471
L34.3008 62.7684
L35.7696 63.7767
L37.2384 64.7005
L38.7072 65.5551
L40.176 66.119
L41.6448 66.3747
L43.1136 66.2793
L44.5824 66.0799
L46.0512 65.4574
L47.52 64.5975
L48.9888 63.0197
L50.4576 60.7059
L51.9264 57.4585
L53.3952 53.2125
L54.864 48.4627
L56.3328 43.9823
L57.8016 41.0286
L59.2704 39.9436
L60.7392 40.3299
L62.208 42.2352
L63.6768 44.8271
L65.1456 47.2686
L66.6144 49.571
L68.0832 51.6195
L69.552 53.4173
L71.0208 55.0416
L72.4896 56.4992
L73.9584 57.9228
L75.4272 59.2259
L76.896 60.4743
L78.3648 61.6002
L79.8336 62.7759
L81.3024 63.9099
L82.7712 65.1079" style="fill:none;stroke:#ff0000;stroke-linecap:square;stroke-width:2;"/>
   </g>
   <g id="patch_3">
    <path d="
M10.8 10.8
L84.24 10.8" style="fill:none;stroke:#000000;stroke-linecap:square;stroke-linejoin:miter;"/>
   </g>
   <g id="patch_4">
    <path d="
M84.24 84.24
L84.24 10.8" style="fill:none;stroke:#000000;stroke-linecap:square;stroke-linejoin:miter;"/>
   </g>
   <g id="patch_5">
    <path d="
M10.8 84.24
L84.24 84.24" style="fill:none;stroke:#000000;stroke-linecap:square;stroke-linejoin:miter;"/>
   </g>
   <g id="patch_6">
    <path d="
M10.8 84.24
L10.8 10.8" style="fill:none;stroke:#000000;stroke-linecap:square;stroke-linejoin:miter;"/>
   </g>
   <g id="matplotlib.axis_1"/>
   <g id="matplotlib.axis_2"/>
  </g>
  <g id="axes_2">
   <g id="patch_7">
    <path d="
M95.04 84.24
L168.48 84.24
L168.48 10.8
L95.04 10.8
z
" style="fill:#ffffff;"/>
   </g>
   <g id="line2d_3">
    <path clip-path="url(#p14a5f87e56)" d="
M95.04 30.7164
L96.5088 36.6729
L97.9776 42.1398
L99.4464 46.7944
L100.915 51.39
L102.384 55.9084
L103.853 58.0448
L105.322 60.7294
L106.79 62.357
L108.259 64.2885
L109.728 66.4491
L111.197 67.8933
L112.666 68.7455
L114.134 68.9356
L115.603 70.0478
L117.072 70.5471
L118.541 71.3336
L120.01 72.4988
L121.478 72.5517
L122.947 72.8489
L124.416 72.9964
L125.885 73.9391
L127.354 74.4075
L128.822 74.3519
L130.291 75.1741
L131.76 75.9295
L133.229 74.4111
L134.698 74.5302
L136.166 74.4382
L137.635 74.6552
L139.104 73.0276
L140.573 73.257
L142.042 73.0925
L143.51 74.0063
L144.979 73.3575
L146.448 72.5529
L147.917 72.8902
L149.386 72.7942
L150.854 72.5721
L152.323 72.4964
L153.792 71.7593
L155.261 71.67
L156.73 71.7601
L158.198 70.3299
L159.667 70.0269
L161.136 69.0261
L162.605 69.1289
L164.074 69.0185
L165.542 66.7993
L167.011 65.6906" style="fill:none;stroke:#4c80e6;stroke-linecap:square;stroke-width:2;"/>
   </g>
   <g id="line2d_4">
    <path clip-path="url(#p14a5f87e56)" d="
M95.04 20.8416
L96.5088 20.2231
L97.9776 18.9027
L99.4464 20.2386
L100.915 21.1861
L102.384 22.6035
L103.853 24.7153
L105.322 26.4441
L106.79 27.0171
L108.259 27.4466
L109.728 29.8898
L111.197 31.3854
L112.666 33.025
L114.134 34.5907
L115.603 36.2093
L117.072 37.3551
L118.541 38.8355
L120.01 41.4688
L121.478 43.2837
L122.947 45.2798
L124.416 46.6037
L125.885 47.691
L127.354 48.3833
L128.822 51.2358
L130.291 53.1716
L131.76 55.2223
L133.229 56.9416
L134.698 58.2289
L136.166 58.0803
L137.635 58.8202
L139.104 59.9713
L140.573 59.6206
L142.042 60.8642
L143.51 61.1762
L144.979 61.701
L146.448 61.4658
L147.917 63.0669
L149.386 64.5875
L150.854 65.4488
L152.323 65.9574
L153.792 65.7784
L155.261 66.9763
L156.73 67.1949
L158.198 68.1977
L159.667 68.4041
L161.136 68.6775
L162.605 70.0198
L164.074 70.971
L165.542 71.5678
L167.011 72.2441" style="fill:none;stroke:#ff0000;stroke-linecap:square;stroke-width:2;"/>
   </g>
   <g id="patch_8">
    <path d="
M95.04 10.8
L168.48 10.8" style="fill:none;stroke:#000000;stroke-linecap:square;stroke-linejoin:miter;"/>
   </g>
   <g id="patch_9">
    <path d="
M168.48 84.24
L168.48 10.8" style="fill:none;stroke:#000000;stroke-linecap:square;stroke-linejoin:miter;"/>
   </g>
   <g id="patch_10">
    <path d="
M95.04 84.24
L168.48 84.24" style="fill:none;stroke:#000000;stroke-linecap:square;stroke-linejoin:miter;"/>
   </g>
   <g id="patch_11">
    <path d="
M95.04 84.24
L95.04 10.8" style="fill:none;stroke:#000000;stroke-linecap:square;stroke-linejoin:miter;"/>
   </g>
   <g id="matplotlib.axis_3"/>
   <g id="matplotlib.axis_4"/>
  </g>
  <g id="axes_3">
   <g id="patch_12">
    <path d="
M179.28 84.24
L252.72 84.24
L252.72 10.8
L179.28 10.8
z
" style="fill:#ffffff;"/>
   </g>
   <g id="line2d_5">
    <path clip-path="url(#p97bf60e0f4)" d="
M179.28 79.5943
L180.749 78.1175
L182.218 75.8738
L183.686 72.6729
L185.155 67.9967
L186.624 61.3377
L188.093 52.1427
L189.562 40.2205
L191.03 26.8523
L192.499 16.6785
L193.968 19.0113
L195.437 40.3572
L196.906 65.2492
L198.374 76.2013
L199.843 79.8739
L201.312 81.239
L202.781 81.8146
L204.25 82.0182
L205.718 81.9311
L207.187 81.6352
L208.656 81.1107
L210.125 80.2723
L211.594 78.962
L213.062 77.1185
L214.531 74.4947
L216 70.6393
L217.469 65.2185
L218.938 57.6029
L220.406 47.2911
L221.875 34.4916
L223.344 21.8362
L224.813 16.3465
L226.282 27.8985
L227.75 53.9457
L229.219 71.6105
L230.688 78.1771
L232.157 80.5565
L233.626 81.45
L235.094 81.8393
L236.563 81.8957
L238.032 81.7006
L239.501 81.2747
L240.97 80.6109
L242.438 79.616
L243.907 78.188
L245.376 76.1539
L246.845 73.1195
L248.314 68.8444
L249.782 62.9695
L251.251 54.8773" style="fill:none;stroke:#4c80e6;stroke-linecap:square;stroke-width:2;"/>
   </g>
   <g id="line2d_6">
    <path clip-path="url(#p97bf60e0f4)" d="
M179.28 81.0179
L180.749 81.3703
L182.218 81.6587
L183.686 81.8676
L185.155 81.9391
L186.624 81.8413
L188.093 81.5752
L189.562 80.9079
L191.03 79.7006
L192.499 77.6813
L193.968 74.8715
L195.437 72.5849
L196.906 72.4963
L198.374 73.641
L199.843 75.0004
L201.312 76.2976
L202.781 77.3953
L204.25 78.354
L205.718 79.1955
L207.187 79.9177
L208.656 80.4741
L210.125 80.9578
L211.594 81.3342
L213.062 81.5998
L214.531 81.7953
L216 81.8197
L217.469 81.8519
L218.938 81.7127
L220.406 81.3182
L221.875 80.4429
L223.344 78.8552
L224.813 76.3843
L226.282 73.6042
L227.75 72.4373
L229.219 73.0026
L230.688 74.2183
L232.157 75.5565
L233.626 76.7362
L235.094 77.7437
L236.563 78.6724
L238.032 79.5053
L239.501 80.0833
L240.97 80.6006
L242.438 81.0561
L243.907 81.3578
L245.376 81.5856
L246.845 81.6688
L248.314 81.6885
L249.782 81.6222
L251.251 81.3422" style="fill:none;stroke:#ff0000;stroke-linecap:square;stroke-width:2;"/>
   </g>
   <g id="patch_13">
    <path d="
M179.28 10.8
L252.72 10.8" style="fill:none;stroke:#000000;stroke-linecap:square;stroke-linejoin:miter;"/>
   </g>
   <g id="patch_14">
    <path d="
M252.72 84.24
L252.72 10.8" style="fill:none;stroke:#000000;stroke-linecap:square;stroke-linejoin:miter;"/>
   </g>
   <g id="patch_15">
    <path d="
M179.28 84.24
L252.72 84.24" style="fill:none;stroke:#000000;stroke-linecap:square;stroke-linejoin:miter;"/>
   </g>
   <g id="patch_16">
    <path d="
M179.28 84.24
L179.28 10.8" style="fill:none;stroke:#000000;stroke-linecap:square;stroke-linejoin:miter;"/>
   </g>
   <g id="matplotlib.axis_5"/>
   <g id="matplotlib.axis_6"/>
  </g>
  <g id="axes_4">
   <g id="patch_17">
    <path d="
M263.52 84.24
L336.96 84.24
L336.96 10.8
L263.52 10.8
z
" style="fill:#ffffff;"/>
   </g>
   <g id="line2d_7">
    <path clip-path="url(#p1fa5ea2cb6)" d="
M263.52 48.0673
L264.989 42.9449
L266.458 37.6413
L267.926 31.9094
L269.395 26.3957
L270.864 21.9517
L272.333 19.9689
L273.802 21.4103
L275.27 25.8297
L276.739 32.7757
L278.208 41.3324
L279.677 49.1256
L281.146 56.1907
L282.614 61.4378
L284.083 65.217
L285.552 68.0858
L287.021 69.9217
L288.49 71.097
L289.958 71.8339
L291.427 72.3098
L292.896 72.7066
L294.365 72.8829
L295.834 72.7149
L297.302 73.0008
L298.771 73.4772
L300.24 73.536
L301.709 73.71
L303.178 73.7486
L304.646 73.91
L306.115 74.097
L307.584 74.0767
L309.053 73.9793
L310.522 74.1727
L311.99 74.6027
L313.459 74.6371
L314.928 74.2526
L316.397 74.4753
L317.866 74.5163
L319.334 74.5346
L320.803 74.3047
L322.272 74.4775
L323.741 74.1673
L325.21 74.5959
L326.678 74.692
L328.147 75.0792
L329.616 74.9877
L331.085 75.172
L332.554 75.3502
L334.022 75.4011
L335.491 75.3646" style="fill:none;stroke:#4c80e6;stroke-linecap:square;stroke-width:2;"/>
   </g>
   <g id="line2d_8">
    <path clip-path="url(#p1fa5ea2cb6)" d="
M263.52 51.7967
L264.989 50.5259
L266.458 48.8419
L267.926 47.1196
L269.395 44.3557
L270.864 40.9553
L272.333 37.202
L273.802 33.1593
L275.27 29.0491
L276.739 25.1596
L278.208 22.0366
L279.677 19.5114
L281.146 18.2908
L282.614 17.6208
L284.083 17.6446
L285.552 18.0746
L287.021 19.3206
L288.49 20.3836
L289.958 21.3357
L291.427 22.2523
L292.896 23.1382
L294.365 24.2717
L295.834 25.2503
L297.302 26.468
L298.771 27.5557
L300.24 28.5086
L301.709 29.9765
L303.178 30.8686
L304.646 31.4439
L306.115 32.3854
L307.584 33.7611
L309.053 34.8605
L310.522 36.2411
L311.99 37.3044
L313.459 38.3312
L314.928 39.0855
L316.397 39.9406
L317.866 40.855
L319.334 41.8306
L320.803 43.041
L322.272 43.9663
L323.741 44.5935
L325.21 45.63
L326.678 46.5852
L328.147 47.6509
L329.616 48.4279
L331.085 49.0804
L332.554 50.0057
L334.022 50.9351
L335.491 51.7855" style="fill:none;stroke:#ff0000;stroke-linecap:square;stroke-width:2;"/>
   </g>
   <g id="patch_18">
    <path d="
M263.52 10.8
L336.96 10.8" style="fill:none;stroke:#000000;stroke-linecap:square;stroke-linejoin:miter;"/>
   </g>
   <g id="patch_19">
    <path d="
M336.96 84.24
L336.96 10.8" style="fill:none;stroke:#000000;stroke-linecap:square;stroke-linejoin:miter;"/>
   </g>
   <g id="patch_20">
    <path d="
M263.52 84.24
L336.96 84.24" style="fill:none;stroke:#000000;stroke-linecap:square;stroke-linejoin:miter;"/>
   </g>
   <g id="patch_21">
    <path d="
M263.52 84.24
L263.52 10.8" style="fill:none;stroke:#000000;stroke-linecap:square;stroke-linejoin:miter;"/>
   </g>
   <g id="matplotlib.axis_7"/>
   <g id="matplotlib.axis_8"/>
  </g>
  <g id="axes_5">
   <g id="patch_22">
    <path d="
M347.76 84.24
L421.2 84.24
L421.2 10.8
L347.76 10.8
z
" style="fill:#ffffff;"/>
   </g>
   <g id="line2d_9">
    <path clip-path="url(#p5d628a6f7c)" d="
M347.76 47.0057
L349.229 60.3462
L350.698 68.0101
L352.166 71.204
L353.635 71.5238
L355.104 73.1233
L356.573 73.3115
L358.042 73.334
L359.51 73.3677
L360.979 73.7641
L362.448 73.7377
L363.917 72.5893
L365.386 72.2454
L366.854 72.3516
L368.323 72.8267
L369.792 72.6488
L371.261 73.2158
L372.73 73.8071
L374.198 74.4467
L375.667 73.5354
L377.136 73.8433
L378.605 73.2206
L380.074 73.5925
L381.542 73.6626
L383.011 74.0959
L384.48 74.5452
L385.949 74.1819
L387.418 74.0302
L388.886 74.5602
L390.355 74.3013
L391.824 74.8452
L393.293 74.7498
L394.762 73.6818
L396.23 74.4567
L397.699 74.2749
L399.168 73.9389
L400.637 74.3375
L402.106 75.4354
L403.574 74.3415
L405.043 74.8647
L406.512 74.2306
L407.981 73.7954
L409.45 73.9928
L410.918 73.4616
L412.387 74.2091
L413.856 74.279
L415.325 74.2205
L416.794 74.2173
L418.262 74.1846
L419.731 73.6261" style="fill:none;stroke:#4c80e6;stroke-linecap:square;stroke-width:2;"/>
   </g>
   <g id="line2d_10">
    <path clip-path="url(#p5d628a6f7c)" d="
M347.76 19.9987
L349.229 19.567
L350.698 20.5503
L352.166 20.9322
L353.635 20.5231
L355.104 20.3184
L356.573 21.6938
L358.042 22.1407
L359.51 23.6173
L360.979 24.3291
L362.448 24.5751
L363.917 24.9616
L365.386 25.5203
L366.854 25.7424
L368.323 25.5603
L369.792 26.5214
L371.261 27.6041
L372.73 27.5507
L374.198 28.2409
L375.667 27.8429
L377.136 28.4552
L378.605 29.4685
L380.074 31.0245
L381.542 31.4757
L383.011 32.702
L384.48 32.5711
L385.949 33.0671
L387.418 33.8023
L388.886 35.3598
L390.355 36.4122
L391.824 36.7772
L393.293 38.2472
L394.762 38.5124
L396.23 38.9481
L397.699 38.5143
L399.168 39.6506
L400.637 39.9731
L402.106 41.3116
L403.574 40.8647
L405.043 41.7844
L406.512 43.0957
L407.981 44.574
L409.45 44.7237
L410.918 44.5775
L412.387 43.9925
L413.856 44.9069
L415.325 45.9231
L416.794 47.9184
L418.262 48.0906
L419.731 48.2103" style="fill:none;stroke:#ff0000;stroke-linecap:square;stroke-width:2;"/>
   </g>
   <g id="patch_23">
    <path d="
M347.76 10.8
L421.2 10.8" style="fill:none;stroke:#000000;stroke-linecap:square;stroke-linejoin:miter;"/>
   </g>
   <g id="patch_24">
    <path d="
M421.2 84.24
L421.2 10.8" style="fill:none;stroke:#000000;stroke-linecap:square;stroke-linejoin:miter;"/>
   </g>
   <g id="patch_25">
    <path d="
M347.76 84.24
L421.2 84.24" style="fill:none;stroke:#000000;stroke-linecap:square;stroke-linejoin:miter;"/>
   </g>
   <g id="patch_26">
    <path d="
M347.76 84.24
L347.76 10.8" style="fill:none;stroke:#000000;stroke-linecap:square;stroke-linejoin:miter;"/>
   </g>
   <g id="matplotlib.axis_9"/>
   <g id="matplotlib.axis_10"/>
  </g>
  <g id="axes_6">
   <g id="patch_27">
    <path d="
M10.8 168.48
L84.24 168.48
L84.24 95.04
L10.8 95.04
z
" style="fill:#ffffff;"/>
   </g>
   <g id="line2d_11">
    <path clip-path="url(#p58788a4463)" d="
M10.8 161.632
L12.2688 103.826
L13.7376 167.721
L15.2064 109.782
L16.6752 150.014
L18.144 122.212
L19.6128 137.287
L21.0816 129.467
L22.5504 132.617
L24.0192 131.158
L25.488 131.699
L26.9568 131.878
L28.4256 131.74
L29.8944 131.744
L31.3632 131.764
L32.832 131.821
L34.3008 131.537
L35.7696 131.902
L37.2384 131.72
L38.7072 131.657
L40.176 131.754
L41.6448 131.999
L43.1136 131.624
L44.5824 132.084
L46.0512 131.927
L47.52 131.443
L48.9888 131.701
L50.4576 131.606
L51.9264 131.821
L53.3952 131.715
L54.864 131.741
L56.3328 131.863
L57.8016 131.614
L59.2704 131.466
L60.7392 131.828
L62.208 131.698
L63.6768 131.184
L65.1456 131.39
L66.6144 131.496
L68.0832 131.37
L69.552 131.392
L71.0208 131.706
L72.4896 131.734
L73.9584 131.563
L75.4272 131.647
L76.896 131.897
L78.3648 131.747
L79.8336 131.795
L81.3024 131.879
L82.7712 131.736" style="fill:none;stroke:#4c80e6;stroke-linecap:square;stroke-width:2;"/>
   </g>
   <g id="line2d_12">
    <path clip-path="url(#p58788a4463)" d="
M10.8 118.264
L12.2688 115.786
L13.7376 120.416
L15.2064 118.997
L16.6752 121.035
L18.144 120.663
L19.6128 121.82
L21.0816 122.128
L22.5504 122.312
L24.0192 122.654
L25.488 123.017
L26.9568 123.391
L28.4256 123.41
L29.8944 123.963
L31.3632 124.01
L32.832 124.451
L34.3008 124.419
L35.7696 124.783
L37.2384 124.908
L38.7072 125.115
L40.176 125.013
L41.6448 125.1
L43.1136 125.315
L44.5824 125.684
L46.0512 125.692
L47.52 125.969
L48.9888 125.727
L50.4576 125.879
L51.9264 126.028
L53.3952 126.019
L54.864 126.659
L56.3328 126.644
L57.8016 126.927
L59.2704 127.079
L60.7392 127.309
L62.208 127.264
L63.6768 127.391
L65.1456 127.563
L66.6144 127.93
L68.0832 128.131
L69.552 128.642
L71.0208 129.064
L72.4896 129.231
L73.9584 129.196
L75.4272 129.249
L76.896 129.146
L78.3648 128.898
L79.8336 128.827
L81.3024 129.1
L82.7712 129.396" style="fill:none;stroke:#ff0000;stroke-linecap:square;stroke-width:2;"/>
   </g>
   <g id="patch_28">
    <path d="
M10.8 95.04
L84.24 95.04" style="fill:none;stroke:#000000;stroke-linecap:square;stroke-linejoin:miter;"/>
   </g>
   <g id="patch_29">
    <path d="
M84.24 168.48
L84.24 95.04" style="fill:none;stroke:#000000;stroke-linecap:square;stroke-linejoin:miter;"/>
   </g>
   <g id="patch_30">
    <path d="
M10.8 168.48
L84.24 168.48" style="fill:none;stroke:#000000;stroke-linecap:square;stroke-linejoin:miter;"/>
   </g>
   <g id="patch_31">
    <path d="
M10.8 168.48
L10.8 95.04" style="fill:none;stroke:#000000;stroke-linecap:square;stroke-linejoin:miter;"/>
   </g>
   <g id="matplotlib.axis_11"/>
   <g id="matplotlib.axis_12"/>
  </g>
  <g id="axes_7">
   <g id="patch_32">
    <path d="
M95.04 168.48
L168.48 168.48
L168.48 95.04
L95.04 95.04
z
" style="fill:#ffffff;"/>
   </g>
   <g id="line2d_13">
    <path clip-path="url(#p5db16c49ee)" d="
M95.04 109.728
L96.5088 109.728
L97.9776 109.728
L99.4464 109.728
L100.915 109.728
L102.384 109.728
L103.853 109.728
L105.322 109.728
L106.79 109.728
L108.259 109.728
L109.728 109.728
L111.197 109.728
L112.666 109.728
L114.134 109.728
L115.603 109.728
L117.072 109.728
L118.541 109.728
L120.01 109.728
L121.478 109.728
L122.947 109.728
L124.416 109.728
L125.885 109.728
L127.354 109.728
L128.822 109.728
L130.291 109.728
L131.76 109.728
L133.229 109.728
L134.698 109.728
L136.166 109.728
L137.635 109.728
L139.104 109.728
L140.573 109.728
L142.042 109.728
L143.51 109.728
L144.979 109.728
L146.448 109.728
L147.917 109.728
L149.386 109.728
L150.854 109.728
L152.323 109.728
L153.792 109.728
L155.261 109.728
L156.73 109.728
L158.198 109.728
L159.667 109.728
L161.136 109.728
L162.605 109.728
L164.074 109.728
L165.542 109.728
L167.011 109.728" style="fill:none;stroke:#4c80e6;stroke-linecap:square;stroke-width:2;"/>
   </g>
   <g id="line2d_14">
    <path clip-path="url(#p5db16c49ee)" d="
M95.04 109.728
L96.5088 109.728
L97.9776 109.728
L99.4464 109.728
L100.915 109.728
L102.384 109.728
L103.853 109.728
L105.322 109.728
L106.79 109.728
L108.259 109.728
L109.728 109.728
L111.197 109.728
L112.666 109.728
L114.134 109.728
L115.603 109.728
L117.072 109.728
L118.541 109.728
L120.01 109.728
L121.478 109.728
L122.947 109.728
L124.416 109.728
L125.885 109.728
L127.354 109.728
L128.822 109.728
L130.291 109.728
L131.76 109.728
L133.229 109.728
L134.698 109.728
L136.166 109.728
L137.635 109.728
L139.104 109.728
L140.573 109.728
L142.042 109.728
L143.51 109.728
L144.979 109.728
L146.448 109.728
L147.917 109.728
L149.386 109.728
L150.854 109.728
L152.323 109.728
L153.792 109.728
L155.261 109.728
L156.73 109.728
L158.198 109.728
L159.667 109.728
L161.136 109.728
L162.605 109.728
L164.074 109.728
L165.542 109.728
L167.011 161.324" style="fill:none;stroke:#ff0000;stroke-linecap:square;stroke-width:2;"/>
   </g>
   <g id="patch_33">
    <path d="
M95.04 95.04
L168.48 95.04" style="fill:none;stroke:#000000;stroke-linecap:square;stroke-linejoin:miter;"/>
   </g>
   <g id="patch_34">
    <path d="
M168.48 168.48
L168.48 95.04" style="fill:none;stroke:#000000;stroke-linecap:square;stroke-linejoin:miter;"/>
   </g>
   <g id="patch_35">
    <path d="
M95.04 168.48
L168.48 168.48" style="fill:none;stroke:#000000;stroke-linecap:square;stroke-linejoin:miter;"/>
   </g>
   <g id="patch_36">
    <path d="
M95.04 168.48
L95.04 95.04" style="fill:none;stroke:#000000;stroke-linecap:square;stroke-linejoin:miter;"/>
   </g>
   <g id="matplotlib.axis_13"/>
   <g id="matplotlib.axis_14"/>
  </g>
  <g id="axes_8">
   <g id="patch_37">
    <path d="
M179.28 168.48
L252.72 168.48
L252.72 95.04
L179.28 95.04
z
" style="fill:#ffffff;"/>
   </g>
   <g id="line2d_15">
    <path clip-path="url(#p0c6610ae85)" d="
M179.28 140.185
L180.749 153.137
L182.218 157.567
L183.686 159.562
L185.155 159.316
L186.624 159.443
L188.093 159.76
L189.562 158.86
L191.03 159.538
L192.499 159.187
L193.968 159.716
L195.437 160.312
L196.906 160.693
L198.374 160.152
L199.843 159.678
L201.312 159.544
L202.781 159.029
L204.25 159.292
L205.718 159.717
L207.187 160.84
L208.656 161.224
L210.125 160.717
L211.594 160.94
L213.062 160.817
L214.531 159.997
L216 160.148
L217.469 159.497
L218.938 159.058
L220.406 159.965
L221.875 159.011
L223.344 159.429
L224.813 159.04
L226.282 158.112
L227.75 158.351
L229.219 158.437
L230.688 159.226
L232.157 158.577
L233.626 158.802
L235.094 158.538
L236.563 158.087
L238.032 157.508
L239.501 158.055
L240.97 157.988
L242.438 157.188
L243.907 156.58
L245.376 156.639
L246.845 156.829
L248.314 157.279
L249.782 157.842
L251.251 158.354" style="fill:none;stroke:#4c80e6;stroke-linecap:square;stroke-width:2;"/>
   </g>
   <g id="line2d_16">
    <path clip-path="url(#p0c6610ae85)" d="
M179.28 105.131
L180.749 103.533
L182.218 104.182
L183.686 106.648
L185.155 108.707
L186.624 111.179
L188.093 112.957
L189.562 114.09
L191.03 115.326
L192.499 117.097
L193.968 119.271
L195.437 121.138
L196.906 122.347
L198.374 123.379
L199.843 124.717
L201.312 126.27
L202.781 127.127
L204.25 128.169
L205.718 129.816
L207.187 131.155
L208.656 132.778
L210.125 134.649
L211.594 135.957
L213.062 136.837
L214.531 137.301
L216 137.864
L217.469 139.254
L218.938 140.093
L220.406 140.939
L221.875 141.2
L223.344 142.308
L224.813 143.183
L226.282 143.554
L227.75 144.172
L229.219 144.545
L230.688 145.273
L232.157 146.89
L233.626 146.716
L235.094 146.723
L236.563 147.164
L238.032 147.042
L239.501 147.579
L240.97 147.994
L242.438 148.128
L243.907 147.394
L245.376 147.301
L246.845 147.121
L248.314 146.856
L249.782 147.5
L251.251 148.029" style="fill:none;stroke:#ff0000;stroke-linecap:square;stroke-width:2;"/>
   </g>
   <g id="patch_38">
    <path d="
M179.28 95.04
L252.72 95.04" style="fill:none;stroke:#000000;stroke-linecap:square;stroke-linejoin:miter;"/>
   </g>
   <g id="patch_39">
    <path d="
M252.72 168.48
L252.72 95.04" style="fill:none;stroke:#000000;stroke-linecap:square;stroke-linejoin:miter;"/>
   </g>
   <g id="patch_40">
    <path d="
M179.28 168.48
L252.72 168.48" style="fill:none;stroke:#000000;stroke-linecap:square;stroke-linejoin:miter;"/>
   </g>
   <g id="patch_41">
    <path d="
M179.28 168.48
L179.28 95.04" style="fill:none;stroke:#000000;stroke-linecap:square;stroke-linejoin:miter;"/>
   </g>
   <g id="matplotlib.axis_15"/>
   <g id="matplotlib.axis_16"/>
  </g>
  <g id="axes_9">
   <g id="patch_42">
    <path d="
M263.52 168.48
L336.96 168.48
L336.96 95.04
L263.52 95.04
z
" style="fill:#ffffff;"/>
   </g>
   <g id="line2d_17">
    <path clip-path="url(#p9456cd1951)" d="
M263.52 157.989
L264.989 157.989
L266.458 157.989
L267.926 157.989
L269.395 157.989
L270.864 157.989
L272.333 157.989
L273.802 157.989
L275.27 157.989
L276.739 157.989
L278.208 157.989
L279.677 157.989
L281.146 157.989
L282.614 157.989
L284.083 157.989
L285.552 157.989
L287.021 157.989
L288.49 157.989
L289.958 157.989
L291.427 157.989
L292.896 157.989
L294.365 157.989
L295.834 157.989
L297.302 157.989
L298.771 157.989
L300.24 157.989
L301.709 157.989
L303.178 157.989
L304.646 157.989
L306.115 157.989
L307.584 157.989
L309.053 157.989
L310.522 157.989
L311.99 157.989
L313.459 157.989
L314.928 157.989
L316.397 157.989
L317.866 157.989
L319.334 157.989
L320.803 157.989
L322.272 157.989
L323.741 157.989
L325.21 157.989
L326.678 157.989
L328.147 157.989
L329.616 157.989
L331.085 157.989
L332.554 157.989" style="fill:none;stroke:#4c80e6;stroke-linecap:square;stroke-width:2;"/>
   </g>
   <g id="line2d_18">
    <path clip-path="url(#p9456cd1951)" d="
M263.52 157.989
L264.989 157.989
L266.458 157.989
L267.926 157.989
L269.395 157.989
L270.864 157.989
L272.333 157.989
L273.802 157.989
L275.27 157.989
L276.739 157.989
L278.208 157.989
L279.677 157.989
L281.146 157.989
L282.614 157.989
L284.083 157.989
L285.552 157.989
L287.021 157.989
L288.49 157.989
L289.958 157.989
L291.427 157.989
L292.896 157.989
L294.365 157.989
L295.834 157.989
L297.302 157.989
L298.771 157.989
L300.24 157.989
L301.709 157.989
L303.178 157.989
L304.646 157.989
L306.115 157.989
L307.584 157.989
L309.053 157.989
L310.522 157.989
L311.99 157.989
L313.459 157.989
L314.928 157.989
L316.397 157.989
L317.866 157.989
L319.334 157.989
L320.803 157.989
L322.272 157.989
L323.741 157.989
L325.21 157.989
L326.678 157.989
L328.147 157.989
L329.616 157.989
L331.085 157.989
L332.554 95.5857" style="fill:none;stroke:#ff0000;stroke-linecap:square;stroke-width:2;"/>
   </g>
   <g id="patch_43">
    <path d="
M263.52 95.04
L336.96 95.04" style="fill:none;stroke:#000000;stroke-linecap:square;stroke-linejoin:miter;"/>
   </g>
   <g id="patch_44">
    <path d="
M336.96 168.48
L336.96 95.04" style="fill:none;stroke:#000000;stroke-linecap:square;stroke-linejoin:miter;"/>
   </g>
   <g id="patch_45">
    <path d="
M263.52 168.48
L336.96 168.48" style="fill:none;stroke:#000000;stroke-linecap:square;stroke-linejoin:miter;"/>
   </g>
   <g id="patch_46">
    <path d="
M263.52 168.48
L263.52 95.04" style="fill:none;stroke:#000000;stroke-linecap:square;stroke-linejoin:miter;"/>
   </g>
   <g id="matplotlib.axis_17"/>
   <g id="matplotlib.axis_18"/>
  </g>
  <g id="axes_10">
   <g id="patch_47">
    <path d="
M347.76 168.48
L421.2 168.48
L421.2 95.04
L347.76 95.04
z
" style="fill:#ffffff;"/>
   </g>
   <g id="line2d_19">
    <path clip-path="url(#pecd23aa0c4)" d="
M347.76 105.531
L355.104 105.531
L362.448 105.531
L369.792 105.531
L377.136 105.531
L384.48 105.531
L391.824 105.531
L399.168 105.531
L406.512 105.531
L413.856 105.531
L421.2 168.151" style="fill:none;stroke:#4c80e6;stroke-linecap:square;stroke-width:2;"/>
   </g>
   <g id="line2d_20">
    <path clip-path="url(#pecd23aa0c4)" d="
M347.76 105.531
L355.104 105.531
L362.448 105.531
L369.792 105.531
L377.136 105.531
L384.48 105.531
L391.824 105.531
L399.168 105.531
L406.512 105.531
L413.856 105.531" style="fill:none;stroke:#ff0000;stroke-linecap:square;stroke-width:2;"/>
   </g>
   <g id="patch_48">
    <path d="
M347.76 95.04
L421.2 95.04" style="fill:none;stroke:#000000;stroke-linecap:square;stroke-linejoin:miter;"/>
   </g>
   <g id="patch_49">
    <path d="
M421.2 168.48
L421.2 95.04" style="fill:none;stroke:#000000;stroke-linecap:square;stroke-linejoin:miter;"/>
   </g>
   <g id="patch_50">
    <path d="
M347.76 168.48
L421.2 168.48" style="fill:none;stroke:#000000;stroke-linecap:square;stroke-linejoin:miter;"/>
   </g>
   <g id="patch_51">
    <path d="
M347.76 168.48
L347.76 95.04" style="fill:none;stroke:#000000;stroke-linecap:square;stroke-linejoin:miter;"/>
   </g>
   <g id="matplotlib.axis_19"/>
   <g id="matplotlib.axis_20"/>
  </g>
  <g id="axes_11">
   <g id="patch_52">
    <path d="
M10.8 252.72
L84.24 252.72
L84.24 179.28
L10.8 179.28
z
" style="fill:#ffffff;"/>
   </g>
   <g id="line2d_21">
    <path clip-path="url(#p7a6cdca13d)" d="
M10.8 179.28
L12.636 179.28
L14.472 179.28
L16.308 179.28
L18.144 179.28
L19.98 179.28
L21.816 179.28
L23.652 179.28
L25.488 179.28
L27.324 179.28
L29.16 179.28
L30.996 179.28
L32.832 179.28
L34.668 179.28
L36.504 179.28
L38.34 179.28
L40.176 179.28
L42.012 179.28
L43.848 179.28
L45.684 179.28
L47.52 179.28
L49.356 179.28
L51.192 179.28
L53.028 179.28
L54.864 179.28
L56.7 179.28
L58.536 179.28
L60.372 179.28
L62.208 179.28
L64.044 179.28
L65.88 179.28
L67.716 179.28
L69.552 179.28
L71.388 179.28
L73.224 179.28
L75.06 179.28
L76.896 179.28
L78.732 179.28" style="fill:none;stroke:#4c80e6;stroke-linecap:square;stroke-width:2;"/>
   </g>
   <g id="line2d_22">
    <path clip-path="url(#p7a6cdca13d)" d="
M10.8 179.28
L12.636 179.28
L14.472 179.28
L16.308 179.28
L18.144 179.28
L19.98 179.28
L21.816 179.28
L23.652 179.28
L25.488 179.28
L27.324 179.28
L29.16 179.28
L30.996 179.28
L32.832 179.28
L34.668 179.28
L36.504 179.28
L38.34 179.28
L40.176 179.28
L42.012 179.28
L43.848 179.28
L45.684 179.28
L47.52 179.28
L49.356 179.28
L51.192 179.28
L53.028 179.28
L54.864 179.28
L56.7 179.28
L58.536 179.28
L60.372 179.28
L62.208 179.28
L64.044 179.28
L65.88 179.28
L67.716 179.28
L69.552 179.28
L71.388 179.28
L73.224 179.28
L75.06 179.28
L76.896 179.28
L78.732 246.118" style="fill:none;stroke:#ff0000;stroke-linecap:square;stroke-width:2;"/>
   </g>
   <g id="patch_53">
    <path d="
M10.8 179.28
L84.24 179.28" style="fill:none;stroke:#000000;stroke-linecap:square;stroke-linejoin:miter;"/>
   </g>
   <g id="patch_54">
    <path d="
M84.24 252.72
L84.24 179.28" style="fill:none;stroke:#000000;stroke-linecap:square;stroke-linejoin:miter;"/>
   </g>
   <g id="patch_55">
    <path d="
M10.8 252.72
L84.24 252.72" style="fill:none;stroke:#000000;stroke-linecap:square;stroke-linejoin:miter;"/>
   </g>
   <g id="patch_56">
    <path d="
M10.8 252.72
L10.8 179.28" style="fill:none;stroke:#000000;stroke-linecap:square;stroke-linejoin:miter;"/>
   </g>
   <g id="matplotlib.axis_21"/>
   <g id="matplotlib.axis_22"/>
  </g>
  <g id="axes_12">
   <g id="patch_57">
    <path d="
M95.04 252.72
L168.48 252.72
L168.48 179.28
L95.04 179.28
z
" style="fill:#ffffff;"/>
   </g>
   <g id="line2d_23">
    <path clip-path="url(#p0a34fef61b)" d="
M95.04 236.907
L96.5088 228.637
L97.9776 216.461
L99.4464 201.462
L100.915 188.442
L102.384 190.89
L103.853 215.322
L105.322 237.418
L106.79 245.619
L108.259 248.464
L109.728 249.408
L111.197 249.75
L112.666 249.558
L114.134 248.71
L115.603 247.45
L117.072 245.241
L118.541 241.62
L120.01 235.782
L121.478 227.127
L122.947 214.382
L124.416 198.667
L125.885 186.881
L127.354 193.171
L128.822 220.758
L130.291 239.702
L131.76 246.17
L133.229 248.539
L134.698 249.358
L136.166 249.372
L137.635 248.894
L139.104 247.997
L140.573 246.244
L142.042 243.328
L143.51 238.712
L144.979 231.483
L146.448 220.766
L147.917 206.125
L149.386 190.679
L150.854 185.612
L152.323 205.233
L153.792 232.715
L155.261 244.224
L156.73 247.719
L158.198 248.988
L159.667 249.439
L161.136 249.209
L162.605 248.66
L164.074 247.656
L165.542 245.739
L167.011 242.623" style="fill:none;stroke:#4c80e6;stroke-linecap:square;stroke-width:2;"/>
   </g>
   <g id="line2d_24">
    <path clip-path="url(#p0a34fef61b)" d="
M95.04 242.473
L96.5088 242.207
L97.9776 240.693
L99.4464 237.98
L100.915 233.146
L102.384 227.151
L103.853 223.929
L105.322 224.747
L106.79 227.091
L108.259 229.946
L109.728 232.703
L111.197 235.213
L112.666 237.417
L114.134 239.069
L115.603 240.494
L117.072 241.553
L118.541 242.238
L120.01 242.371
L121.478 241.99
L122.947 240.53
L124.416 237.438
L125.885 232.186
L127.354 226.065
L128.822 223.888
L130.291 225.138
L131.76 227.713
L133.229 230.647
L134.698 233.205
L136.166 235.817
L137.635 237.906
L139.104 239.504
L140.573 240.885
L142.042 241.976
L143.51 242.354
L144.979 242.24
L146.448 241.439
L147.917 239.25
L149.386 235.127
L150.854 228.898
L152.323 224.064
L153.792 224.232
L155.261 226.474
L156.73 229.205
L158.198 231.932
L159.667 234.366
L161.136 236.498
L162.605 238.199
L164.074 239.742
L165.542 241.024
L167.011 241.753" style="fill:none;stroke:#ff0000;stroke-linecap:square;stroke-width:2;"/>
   </g>
   <g id="patch_58">
    <path d="
M95.04 179.28
L168.48 179.28" style="fill:none;stroke:#000000;stroke-linecap:square;stroke-linejoin:miter;"/>
   </g>
   <g id="patch_59">
    <path d="
M168.48 252.72
L168.48 179.28" style="fill:none;stroke:#000000;stroke-linecap:square;stroke-linejoin:miter;"/>
   </g>
   <g id="patch_60">
    <path d="
M95.04 252.72
L168.48 252.72" style="fill:none;stroke:#000000;stroke-linecap:square;stroke-linejoin:miter;"/>
   </g>
   <g id="patch_61">
    <path d="
M95.04 252.72
L95.04 179.28" style="fill:none;stroke:#000000;stroke-linecap:square;stroke-linejoin:miter;"/>
   </g>
   <g id="matplotlib.axis_23"/>
   <g id="matplotlib.axis_24"/>
  </g>
  <g id="axes_13">
   <g id="patch_62">
    <path d="
M179.28 252.72
L252.72 252.72
L252.72 179.28
L179.28 179.28
z
" style="fill:#ffffff;"/>
   </g>
   <g id="line2d_25">
    <path clip-path="url(#pde0fb9d677)" d="
M179.28 221.322
L180.749 220.881
L182.218 226.852
L183.686 236.707
L185.155 241.484
L186.624 242.744
L188.093 243.006
L189.562 243.47
L191.03 243.42
L192.499 243.634
L193.968 243.52
L195.437 243.65
L196.906 243.747
L198.374 243.631
L199.843 243.351
L201.312 243.408
L202.781 243.098
L204.25 243.12
L205.718 243.246
L207.187 243.199
L208.656 243.402
L210.125 243.264
L211.594 243.093
L213.062 243.184
L214.531 243.489
L216 243.474
L217.469 243.324
L218.938 243.326
L220.406 243.206
L221.875 243.386
L223.344 243.307
L224.813 243.145
L226.282 242.747
L227.75 242.35
L229.219 241.646
L230.688 240.899
L232.157 239.414
L233.626 238.209
L235.094 235.989
L236.563 232.873
L238.032 228.694
L239.501 224.07
L240.97 220.12
L242.438 220.483
L243.907 228.021
L245.376 237.489
L246.845 241.813
L248.314 242.753
L249.782 243.464
L251.251 243.41" style="fill:none;stroke:#4c80e6;stroke-linecap:square;stroke-width:2;"/>
   </g>
   <g id="line2d_26">
    <path clip-path="url(#pde0fb9d677)" d="
M179.28 216.575
L180.749 203.426
L182.218 189.728
L183.686 184.415
L185.155 185.382
L186.624 188.419
L188.093 191.684
L189.562 195.454
L191.03 198.905
L192.499 202.199
L193.968 205.316
L195.437 208.491
L196.906 211.38
L198.374 213.761
L199.843 215.964
L201.312 217.986
L202.781 219.608
L204.25 220.947
L205.718 222.209
L207.187 223.545
L208.656 224.859
L210.125 226.183
L211.594 227.193
L213.062 228.431
L214.531 229.439
L216 230.178
L217.469 231.194
L218.938 232.163
L220.406 232.689
L221.875 233.253
L223.344 234.144
L224.813 234.431
L226.282 234.953
L227.75 235.699
L229.219 236.162
L230.688 236.399
L232.157 236.516
L233.626 235.829
L235.094 234.972
L236.563 233.169
L238.032 230.432
L239.501 225.044
L240.97 215.397
L242.438 201.399
L243.907 188.383
L245.376 184.195
L246.845 186.105
L248.314 188.749
L249.782 192.823
L251.251 196.314" style="fill:none;stroke:#ff0000;stroke-linecap:square;stroke-width:2;"/>
   </g>
   <g id="patch_63">
    <path d="
M179.28 179.28
L252.72 179.28" style="fill:none;stroke:#000000;stroke-linecap:square;stroke-linejoin:miter;"/>
   </g>
   <g id="patch_64">
    <path d="
M252.72 252.72
L252.72 179.28" style="fill:none;stroke:#000000;stroke-linecap:square;stroke-linejoin:miter;"/>
   </g>
   <g id="patch_65">
    <path d="
M179.28 252.72
L252.72 252.72" style="fill:none;stroke:#000000;stroke-linecap:square;stroke-linejoin:miter;"/>
   </g>
   <g id="patch_66">
    <path d="
M179.28 252.72
L179.28 179.28" style="fill:none;stroke:#000000;stroke-linecap:square;stroke-linejoin:miter;"/>
   </g>
   <g id="matplotlib.axis_25"/>
   <g id="matplotlib.axis_26"/>
  </g>
  <g id="axes_14">
   <g id="patch_67">
    <path d="
M263.52 252.72
L336.96 252.72
L336.96 179.28
L263.52 179.28
z
" style="fill:#ffffff;"/>
   </g>
   <g id="line2d_27">
    <path clip-path="url(#p4409c66682)" d="
M263.52 233.094
L264.989 226.419
L266.458 215.667
L267.926 199.853
L269.395 182.497
L270.864 181.328
L272.333 220.863
L273.802 242.711
L275.27 242.185
L276.739 242.212
L278.208 242.277
L279.677 242.188
L281.146 242.239
L282.614 242.263
L284.083 242.191
L285.552 242.218
L287.021 242.232
L288.49 242.215
L289.958 242.209
L291.427 242.282
L292.896 242.32
L294.365 242.182
L295.834 242.114
L297.302 242.167
L298.771 242.258
L300.24 242.282
L301.709 242.238
L303.178 242.319
L304.646 242.276
L306.115 242.287
L307.584 242.306
L309.053 242.324
L310.522 242.336
L311.99 242.38
L313.459 242.375
L314.928 242.341
L316.397 242.288
L317.866 242.342
L319.334 242.282
L320.803 242.165
L322.272 242.137
L323.741 242.192
L325.21 242.243
L326.678 242.152
L328.147 242.21
L329.616 242.216
L331.085 242.145
L332.554 242.181
L334.022 242.231
L335.491 242.303" style="fill:none;stroke:#4c80e6;stroke-linecap:square;stroke-width:2;"/>
   </g>
   <g id="line2d_28">
    <path clip-path="url(#p4409c66682)" d="
M263.52 236.565
L264.989 235.658
L266.458 233.869
L267.926 229.972
L269.395 221.776
L270.864 207.706
L272.333 199.858
L273.802 200.961
L275.27 201.768
L276.739 202.449
L278.208 203.277
L279.677 204.092
L281.146 204.884
L282.614 205.636
L284.083 206.341
L285.552 207.054
L287.021 207.819
L288.49 208.533
L289.958 209.195
L291.427 209.928
L292.896 210.562
L294.365 211.226
L295.834 211.803
L297.302 212.489
L298.771 213.136
L300.24 213.776
L301.709 214.431
L303.178 215.01
L304.646 215.523
L306.115 216.057
L307.584 216.729
L309.053 217.218
L310.522 217.831
L311.99 218.276
L313.459 218.857
L314.928 219.466
L316.397 220.051
L317.866 220.487
L319.334 221.017
L320.803 221.452
L322.272 221.807
L323.741 222.271
L325.21 222.744
L326.678 223.066
L328.147 223.428
L329.616 223.743
L331.085 224.201
L332.554 224.475
L334.022 224.859
L335.491 225.282" style="fill:none;stroke:#ff0000;stroke-linecap:square;stroke-width:2;"/>
   </g>
   <g id="patch_68">
    <path d="
M263.52 179.28
L336.96 179.28" style="fill:none;stroke:#000000;stroke-linecap:square;stroke-linejoin:miter;"/>
   </g>
   <g id="patch_69">
    <path d="
M336.96 252.72
L336.96 179.28" style="fill:none;stroke:#000000;stroke-linecap:square;stroke-linejoin:miter;"/>
   </g>
   <g id="patch_70">
    <path d="
M263.52 252.72
L336.96 252.72" style="fill:none;stroke:#000000;stroke-linecap:square;stroke-linejoin:miter;"/>
   </g>
   <g id="patch_71">
    <path d="
M263.52 252.72
L263.52 179.28" style="fill:none;stroke:#000000;stroke-linecap:square;stroke-linejoin:miter;"/>
   </g>
   <g id="matplotlib.axis_27"/>
   <g id="matplotlib.axis_28"/>
  </g>
  <g id="axes_15">
   <g id="patch_72">
    <path d="
M347.76 252.72
L421.2 252.72
L421.2 179.28
L347.76 179.28
z
" style="fill:#ffffff;"/>
   </g>
   <g id="line2d_29">
    <path clip-path="url(#pf528c07f3f)" d="
M347.76 240.356
L349.229 242.052
L350.698 243.297
L352.166 244.338
L353.635 245.148
L355.104 245.443
L356.573 245.828
L358.042 245.845
L359.51 245.756
L360.979 245.547
L362.448 245.439
L363.917 245.022
L365.386 244.581
L366.854 244.255
L368.323 243.496
L369.792 242.892
L371.261 242.184
L372.73 241.126
L374.198 240.12
L375.667 238.585
L377.136 237.042
L378.605 234.983
L380.074 232.772
L381.542 230.134
L383.011 227.61
L384.48 224.471
L385.949 221.199
L387.418 217.398
L388.886 213.091
L390.355 208.57
L391.824 203.579
L393.293 198.626
L394.762 194.322
L396.23 190.547
L397.699 187.312
L399.168 185.81
L400.637 185.94
L402.106 187.962
L403.574 192.383
L405.043 198.709
L406.512 205.686
L407.981 212.655
L409.45 219.667
L410.918 225.305
L412.387 230.425
L413.856 234.271
L415.325 236.821
L416.794 239.005
L418.262 240.776
L419.731 242.314" style="fill:none;stroke:#4c80e6;stroke-linecap:square;stroke-width:2;"/>
   </g>
   <g id="line2d_30">
    <path clip-path="url(#pf528c07f3f)" d="
M347.76 238.628
L349.229 239.271
L350.698 239.674
L352.166 240.463
L353.635 241.073
L355.104 241.93
L356.573 242.754
L358.042 243.384
L359.51 243.971
L360.979 244.621
L362.448 244.895
L363.917 245.192
L365.386 245.758
L366.854 245.888
L368.323 246.08
L369.792 246.112
L371.261 246.617
L372.73 246.858
L374.198 247.106
L375.667 247.261
L377.136 247.377
L378.605 247.462
L380.074 247.472
L381.542 247.375
L383.011 247.498
L384.48 247.441
L385.949 247.422
L387.418 247.443
L388.886 247.48
L390.355 247.326
L391.824 246.798
L393.293 246.346
L394.762 245.707
L396.23 245.162
L397.699 244.295
L399.168 243.464
L400.637 242.407
L402.106 241.195
L403.574 239.889
L405.043 239.051
L406.512 238.39
L407.981 237.799
L409.45 237.581
L410.918 237.493
L412.387 237.703
L413.856 238.132
L415.325 238.654
L416.794 239.135
L418.262 239.847
L419.731 240.262" style="fill:none;stroke:#ff0000;stroke-linecap:square;stroke-width:2;"/>
   </g>
   <g id="patch_73">
    <path d="
M347.76 179.28
L421.2 179.28" style="fill:none;stroke:#000000;stroke-linecap:square;stroke-linejoin:miter;"/>
   </g>
   <g id="patch_74">
    <path d="
M421.2 252.72
L421.2 179.28" style="fill:none;stroke:#000000;stroke-linecap:square;stroke-linejoin:miter;"/>
   </g>
   <g id="patch_75">
    <path d="
M347.76 252.72
L421.2 252.72" style="fill:none;stroke:#000000;stroke-linecap:square;stroke-linejoin:miter;"/>
   </g>
   <g id="patch_76">
    <path d="
M347.76 252.72
L347.76 179.28" style="fill:none;stroke:#000000;stroke-linecap:square;stroke-linejoin:miter;"/>
   </g>
   <g id="matplotlib.axis_29"/>
   <g id="matplotlib.axis_30"/>
  </g>
  <g id="axes_16">
   <g id="patch_77">
    <path d="
M10.8 336.96
L84.24 336.96
L84.24 263.52
L10.8 263.52
z
" style="fill:#ffffff;"/>
   </g>
   <g id="line2d_31">
    <path clip-path="url(#p326eca6ed5)" d="
M10.8 294.238
L12.2688 289.396
L13.7376 284.56
L15.2064 282.348
L16.6752 283.702
L18.144 288.207
L19.6128 295.497
L21.0816 303.586
L22.5504 311.98
L24.0192 318.51
L25.488 323.933
L26.9568 326.767
L28.4256 328.684
L29.8944 330.053
L31.3632 331.127
L32.832 332.619
L34.3008 332.638
L35.7696 332.366
L37.2384 332.085
L38.7072 332.289
L40.176 331.446
L41.6448 330.476
L43.1136 329.03
L44.5824 328.219
L46.0512 327.912
L47.52 327.328
L48.9888 325.668
L50.4576 324.073
L51.9264 322.458
L53.3952 320.482
L54.864 318.367
L56.3328 316.255
L57.8016 313.673
L59.2704 311.221
L60.7392 308.095
L62.208 304.56
L63.6768 301.192
L65.1456 298.764
L66.6144 297.485
L68.0832 297.226
L69.552 297.512
L71.0208 299.868
L72.4896 303.575
L73.9584 308.026
L75.4272 312.725
L76.896 316.033
L78.3648 319.095
L79.8336 321.864
L81.3024 324.109
L82.7712 325.278" style="fill:none;stroke:#4c80e6;stroke-linecap:square;stroke-width:2;"/>
   </g>
   <g id="line2d_32">
    <path clip-path="url(#p326eca6ed5)" d="
M10.8 298.129
L12.2688 294.99
L13.7376 291.188
L15.2064 286.388
L16.6752 281.289
L18.144 276.494
L19.6128 272.232
L21.0816 269.131
L22.5504 268.182
L24.0192 268.821
L25.488 269.846
L26.9568 271.785
L28.4256 274.096
L29.8944 276.09
L31.3632 277.658
L32.832 279.919
L34.3008 281.726
L35.7696 284.302
L37.2384 286.079
L38.7072 288.299
L40.176 290.286
L41.6448 291.842
L43.1136 292.829
L44.5824 294.134
L46.0512 294.453
L47.52 295.442
L48.9888 296.508
L50.4576 297.264
L51.9264 297.739
L53.3952 298.225
L54.864 298.375
L56.3328 297.884
L57.8016 297.771
L59.2704 297.394
L60.7392 297.254
L62.208 295.767
L63.6768 294.13
L65.1456 291.684
L66.6144 289.283
L68.0832 286.066
L69.552 283.505
L71.0208 280.484
L72.4896 278.002
L73.9584 276.006
L75.4272 275.31
L76.896 274.84
L78.3648 274.894
L79.8336 275.93
L81.3024 276.943
L82.7712 278.549" style="fill:none;stroke:#ff0000;stroke-linecap:square;stroke-width:2;"/>
   </g>
   <g id="patch_78">
    <path d="
M10.8 263.52
L84.24 263.52" style="fill:none;stroke:#000000;stroke-linecap:square;stroke-linejoin:miter;"/>
   </g>
   <g id="patch_79">
    <path d="
M84.24 336.96
L84.24 263.52" style="fill:none;stroke:#000000;stroke-linecap:square;stroke-linejoin:miter;"/>
   </g>
   <g id="patch_80">
    <path d="
M10.8 336.96
L84.24 336.96" style="fill:none;stroke:#000000;stroke-linecap:square;stroke-linejoin:miter;"/>
   </g>
   <g id="patch_81">
    <path d="
M10.8 336.96
L10.8 263.52" style="fill:none;stroke:#000000;stroke-linecap:square;stroke-linejoin:miter;"/>
   </g>
   <g id="matplotlib.axis_31"/>
   <g id="matplotlib.axis_32"/>
  </g>
  <g id="axes_17">
   <g id="patch_82">
    <path d="
M95.04 336.96
L168.48 336.96
L168.48 263.52
L95.04 263.52
z
" style="fill:#ffffff;"/>
   </g>
   <g id="line2d_33">
    <path clip-path="url(#p9b6bc26a3d)" d="
M95.04 326.469
L99.12 326.469
L103.2 326.469
L107.28 326.469
L111.36 326.469
L115.44 326.469
L119.52 326.469
L123.6 326.469
L127.68 326.469
L131.76 326.469
L135.84 326.469
L139.92 326.469
L144 326.469
L148.08 326.469
L152.16 326.469
L156.24 326.469
L160.32 326.469
L164.4 326.469" style="fill:none;stroke:#4c80e6;stroke-linecap:square;stroke-width:2;"/>
   </g>
   <g id="line2d_34">
    <path clip-path="url(#p9b6bc26a3d)" d="
M95.04 326.469
L99.12 326.469
L103.2 326.469
L107.28 326.469
L111.36 326.469
L115.44 326.469
L119.52 326.469
L123.6 326.469
L127.68 326.469
L131.76 326.469
L135.84 326.469
L139.92 326.469
L144 326.469
L148.08 326.469
L152.16 326.469
L156.24 326.469
L160.32 326.469
L164.4 271.627" style="fill:none;stroke:#ff0000;stroke-linecap:square;stroke-width:2;"/>
   </g>
   <g id="patch_83">
    <path d="
M95.04 263.52
L168.48 263.52" style="fill:none;stroke:#000000;stroke-linecap:square;stroke-linejoin:miter;"/>
   </g>
   <g id="patch_84">
    <path d="
M168.48 336.96
L168.48 263.52" style="fill:none;stroke:#000000;stroke-linecap:square;stroke-linejoin:miter;"/>
   </g>
   <g id="patch_85">
    <path d="
M95.04 336.96
L168.48 336.96" style="fill:none;stroke:#000000;stroke-linecap:square;stroke-linejoin:miter;"/>
   </g>
   <g id="patch_86">
    <path d="
M95.04 336.96
L95.04 263.52" style="fill:none;stroke:#000000;stroke-linecap:square;stroke-linejoin:miter;"/>
   </g>
   <g id="matplotlib.axis_33"/>
   <g id="matplotlib.axis_34"/>
  </g>
  <g id="axes_18">
   <g id="patch_87">
    <path d="
M179.28 336.96
L252.72 336.96
L252.72 263.52
L179.28 263.52
z
" style="fill:#ffffff;"/>
   </g>
   <g id="line2d_35">
    <path clip-path="url(#p9b291e0c15)" d="
M179.28 283.195
L180.749 294.151
L182.218 300.369
L183.686 303.675
L185.155 305.575
L186.624 306.587
L188.093 307.697
L189.562 308.451
L191.03 308.069
L192.499 308.537
L193.968 308.943
L195.437 309.764
L196.906 309.927
L198.374 310.908
L199.843 311.315
L201.312 311.444
L202.781 311.831
L204.25 312.275
L205.718 312.352
L207.187 311.652
L208.656 311.308
L210.125 311.257
L211.594 311.223
L213.062 311.374
L214.531 312.115
L216 312.593
L217.469 312.296
L218.938 312.482
L220.406 312.017
L221.875 312.365
L223.344 312.542
L224.813 312.842
L226.282 312.952
L227.75 313.06
L229.219 313.361
L230.688 314.26
L232.157 314.487
L233.626 315.456
L235.094 316.145
L236.563 316.933
L238.032 317.388
L239.501 317.883
L240.97 318.818
L242.438 320.641
L243.907 322.319
L245.376 323.815
L246.845 324.625
L248.314 326.236
L249.782 328.323
L251.251 330.567" style="fill:none;stroke:#4c80e6;stroke-linecap:square;stroke-width:2;"/>
   </g>
   <g id="line2d_36">
    <path clip-path="url(#p9b291e0c15)" d="
M179.28 265.497
L180.749 267.542
L182.218 270.439
L183.686 273.264
L185.155 276.296
L186.624 279.286
L188.093 281.464
L189.562 283.478
L191.03 286.012
L192.499 287.919
L193.968 289.568
L195.437 290.695
L196.906 291.668
L198.374 293.088
L199.843 294.189
L201.312 294.76
L202.781 296.287
L204.25 297.14
L205.718 298.32
L207.187 299.59
L208.656 300.625
L210.125 301.849
L211.594 302.783
L213.062 302.829
L214.531 303.291
L216 304.072
L217.469 304.119
L218.938 304.214
L220.406 305.908
L221.875 305.299
L223.344 304.738
L224.813 305.762
L226.282 305.595
L227.75 305.741
L229.219 306.595
L230.688 306.11
L232.157 305.831
L233.626 306.815
L235.094 306.498
L236.563 306.408
L238.032 306.937
L239.501 307.918
L240.97 308.632
L242.438 308.578
L243.907 308.597
L245.376 308.584
L246.845 309.203
L248.314 309.485
L249.782 309.809
L251.251 309.822" style="fill:none;stroke:#ff0000;stroke-linecap:square;stroke-width:2;"/>
   </g>
   <g id="patch_88">
    <path d="
M179.28 263.52
L252.72 263.52" style="fill:none;stroke:#000000;stroke-linecap:square;stroke-linejoin:miter;"/>
   </g>
   <g id="patch_89">
    <path d="
M252.72 336.96
L252.72 263.52" style="fill:none;stroke:#000000;stroke-linecap:square;stroke-linejoin:miter;"/>
   </g>
   <g id="patch_90">
    <path d="
M179.28 336.96
L252.72 336.96" style="fill:none;stroke:#000000;stroke-linecap:square;stroke-linejoin:miter;"/>
   </g>
   <g id="patch_91">
    <path d="
M179.28 336.96
L179.28 263.52" style="fill:none;stroke:#000000;stroke-linecap:square;stroke-linejoin:miter;"/>
   </g>
   <g id="matplotlib.axis_35"/>
   <g id="matplotlib.axis_36"/>
  </g>
  <g id="axes_19">
   <g id="patch_92">
    <path d="
M263.52 336.96
L336.96 336.96
L336.96 263.52
L263.52 263.52
z
" style="fill:#ffffff;"/>
   </g>
   <g id="line2d_37">
    <path clip-path="url(#p5acd20c2b6)" d="
M263.52 293.779
L264.989 294.899
L266.458 295.973
L267.926 296.802
L269.395 297.861
L270.864 298.994
L272.333 300.635
L273.802 302.093
L275.27 304.091
L276.739 305.582
L278.208 307.093
L279.677 308.405
L281.146 309.49
L282.614 310.383
L284.083 311.674
L285.552 313.155
L287.021 313.832
L288.49 314.839
L289.958 315.99
L291.427 316.616
L292.896 317.498
L294.365 318.067
L295.834 318.989
L297.302 319.756
L298.771 319.991
L300.24 320.323
L301.709 320.886
L303.178 320.737
L304.646 320.836
L306.115 320.918
L307.584 321.162
L309.053 321.072
L310.522 321.326
L311.99 321.188
L313.459 321.492
L314.928 321.521
L316.397 321.311
L317.866 321.355
L319.334 321.467
L320.803 322.026
L322.272 322.463
L323.741 322.019
L325.21 321.908
L326.678 321.958
L328.147 321.845
L329.616 322.306
L331.085 322.096
L332.554 322.481
L334.022 322.795
L335.491 322.774" style="fill:none;stroke:#4c80e6;stroke-linecap:square;stroke-width:2;"/>
   </g>
   <g id="line2d_38">
    <path clip-path="url(#p5acd20c2b6)" d="
M263.52 291.063
L264.989 289.08
L266.458 287.476
L267.926 285.652
L269.395 283.98
L270.864 282.121
L272.333 279.682
L273.802 277.856
L275.27 276.132
L276.739 274.691
L278.208 273.876
L279.677 272.6
L281.146 271.357
L282.614 270.045
L284.083 269.65
L285.552 268.614
L287.021 267.946
L288.49 267.34
L289.958 267.311
L291.427 267.347
L292.896 267.155
L294.365 267.33
L295.834 267.69
L297.302 268.323
L298.771 268.408
L300.24 268.394
L301.709 268.921
L303.178 268.797
L304.646 269.784
L306.115 270.102
L307.584 270.064
L309.053 270.341
L310.522 270.607
L311.99 270.829
L313.459 271.586
L314.928 271.856
L316.397 272.073
L317.866 273.024
L319.334 273.459
L320.803 274.463
L322.272 274.987
L323.741 275.976
L325.21 276.462
L326.678 276.98
L328.147 276.722
L329.616 276.953
L331.085 277.744
L332.554 278.481
L334.022 279.255
L335.491 279.702" style="fill:none;stroke:#ff0000;stroke-linecap:square;stroke-width:2;"/>
   </g>
   <g id="patch_93">
    <path d="
M263.52 263.52
L336.96 263.52" style="fill:none;stroke:#000000;stroke-linecap:square;stroke-linejoin:miter;"/>
   </g>
   <g id="patch_94">
    <path d="
M336.96 336.96
L336.96 263.52" style="fill:none;stroke:#000000;stroke-linecap:square;stroke-linejoin:miter;"/>
   </g>
   <g id="patch_95">
    <path d="
M263.52 336.96
L336.96 336.96" style="fill:none;stroke:#000000;stroke-linecap:square;stroke-linejoin:miter;"/>
   </g>
   <g id="patch_96">
    <path d="
M263.52 336.96
L263.52 263.52" style="fill:none;stroke:#000000;stroke-linecap:square;stroke-linejoin:miter;"/>
   </g>
   <g id="matplotlib.axis_37"/>
   <g id="matplotlib.axis_38"/>
  </g>
  <g id="axes_20">
   <g id="patch_97">
    <path d="
M347.76 336.96
L421.2 336.96
L421.2 263.52
L347.76 263.52
z
" style="fill:#ffffff;"/>
   </g>
   <g id="line2d_39">
    <path clip-path="url(#pe248100620)" d="
M347.76 263.52
L352.35 263.52
L356.94 263.52
L361.53 263.52
L366.12 263.52
L370.71 263.52
L375.3 263.52
L379.89 263.52
L384.48 263.52
L389.07 263.52
L393.66 263.52
L398.25 263.52
L402.84 263.52
L407.43 263.52
L412.02 263.52
L416.61 263.52
L421.2 333.907" style="fill:none;stroke:#4c80e6;stroke-linecap:square;stroke-width:2;"/>
   </g>
   <g id="line2d_40">
    <path clip-path="url(#pe248100620)" d="
M347.76 263.52
L352.35 263.52
L356.94 263.52
L361.53 263.52
L366.12 263.52
L370.71 263.52
L375.3 263.52
L379.89 263.52
L384.48 263.52
L389.07 263.52
L393.66 263.52
L398.25 263.52
L402.84 263.52
L407.43 263.52
L412.02 263.52
L416.61 263.52" style="fill:none;stroke:#ff0000;stroke-linecap:square;stroke-width:2;"/>
   </g>
   <g id="patch_98">
    <path d="
M347.76 263.52
L421.2 263.52" style="fill:none;stroke:#000000;stroke-linecap:square;stroke-linejoin:miter;"/>
   </g>
   <g id="patch_99">
    <path d="
M421.2 336.96
L421.2 263.52" style="fill:none;stroke:#000000;stroke-linecap:square;stroke-linejoin:miter;"/>
   </g>
   <g id="patch_100">
    <path d="
M347.76 336.96
L421.2 336.96" style="fill:none;stroke:#000000;stroke-linecap:square;stroke-linejoin:miter;"/>
   </g>
   <g id="patch_101">
    <path d="
M347.76 336.96
L347.76 263.52" style="fill:none;stroke:#000000;stroke-linecap:square;stroke-linejoin:miter;"/>
   </g>
   <g id="matplotlib.axis_39"/>
   <g id="matplotlib.axis_40"/>
  </g>
  <g id="axes_21">
   <g id="patch_102">
    <path d="
M10.8 421.2
L84.24 421.2
L84.24 347.76
L10.8 347.76
z
" style="fill:#ffffff;"/>
   </g>
   <g id="line2d_41">
    <path clip-path="url(#p0223a271da)" d="
M10.8 347.76
L16.92 347.76
L23.04 347.76
L29.16 347.76
L35.28 347.76
L41.4 347.76
L47.52 347.76
L53.64 347.76
L59.76 347.76
L65.88 347.76
L72 347.76
L78.12 347.76
L84.24 413.471" style="fill:none;stroke:#4c80e6;stroke-linecap:square;stroke-width:2;"/>
   </g>
   <g id="line2d_42">
    <path clip-path="url(#p0223a271da)" d="
M10.8 347.76
L16.92 347.76
L23.04 347.76
L29.16 347.76
L35.28 347.76
L41.4 347.76
L47.52 347.76
L53.64 347.76
L59.76 347.76
L65.88 347.76
L72 347.76
L78.12 347.76" style="fill:none;stroke:#ff0000;stroke-linecap:square;stroke-width:2;"/>
   </g>
   <g id="patch_103">
    <path d="
M10.8 347.76
L84.24 347.76" style="fill:none;stroke:#000000;stroke-linecap:square;stroke-linejoin:miter;"/>
   </g>
   <g id="patch_104">
    <path d="
M84.24 421.2
L84.24 347.76" style="fill:none;stroke:#000000;stroke-linecap:square;stroke-linejoin:miter;"/>
   </g>
   <g id="patch_105">
    <path d="
M10.8 421.2
L84.24 421.2" style="fill:none;stroke:#000000;stroke-linecap:square;stroke-linejoin:miter;"/>
   </g>
   <g id="patch_106">
    <path d="
M10.8 421.2
L10.8 347.76" style="fill:none;stroke:#000000;stroke-linecap:square;stroke-linejoin:miter;"/>
   </g>
   <g id="matplotlib.axis_41"/>
   <g id="matplotlib.axis_42"/>
  </g>
  <g id="axes_22">
   <g id="patch_107">
    <path d="
M95.04 421.2
L168.48 421.2
L168.48 347.76
L95.04 347.76
z
" style="fill:#ffffff;"/>
   </g>
   <g id="line2d_43">
    <path clip-path="url(#p4b5bfdae2d)" d="
M95.04 418.708
L96.5088 418.698
L97.9776 418.657
L99.4464 418.547
L100.915 418.49
L102.384 418.35
L103.853 418.163
L105.322 417.958
L106.79 417.754
L108.259 417.56
L109.728 417.284
L111.197 416.953
L112.666 416.635
L114.134 416.286
L115.603 415.85
L117.072 415.423
L118.541 414.901
L120.01 414.381
L121.478 413.77
L122.947 413.088
L124.416 412.351
L125.885 411.551
L127.354 410.647
L128.822 409.646
L130.291 408.563
L131.76 407.341
L133.229 405.986
L134.698 404.497
L136.166 402.922
L137.635 401.167
L139.104 399.174
L140.573 397.008
L142.042 394.617
L143.51 391.989
L144.979 389.163
L146.448 386.115
L147.917 382.849
L149.386 379.366
L150.854 375.815
L152.323 372.161
L153.792 368.538
L155.261 365.069
L156.73 361.995
L158.198 359.672
L159.667 358.473
L161.136 358.842
L162.605 361.163
L164.074 365.903
L165.542 372.749
L167.011 381.023" style="fill:none;stroke:#4c80e6;stroke-linecap:square;stroke-width:2;"/>
   </g>
   <g id="line2d_44">
    <path clip-path="url(#p4b5bfdae2d)" d="
M95.04 418.99
L96.5088 419.182
L97.9776 419.343
L99.4464 419.476
L100.915 419.687
L102.384 419.798
L103.853 419.952
L105.322 420.069
L106.79 420.147
L108.259 420.232
L109.728 420.29
L111.197 420.363
L112.666 420.411
L114.134 420.491
L115.603 420.485
L117.072 420.577
L118.541 420.645
L120.01 420.69
L121.478 420.751
L122.947 420.771
L124.416 420.763
L125.885 420.76
L127.354 420.79
L128.822 420.807
L130.291 420.811
L131.76 420.856
L133.229 420.836
L134.698 420.826
L136.166 420.824
L137.635 420.857
L139.104 420.874
L140.573 420.861
L142.042 420.875
L143.51 420.808
L144.979 420.781
L146.448 420.745
L147.917 420.676
L149.386 420.58
L150.854 420.459
L152.323 420.31
L153.792 420.13
L155.261 419.865
L156.73 419.506
L158.198 419.076
L159.667 418.494
L161.136 417.772
L162.605 416.821
L164.074 415.791
L165.542 414.731
L167.011 413.825" style="fill:none;stroke:#ff0000;stroke-linecap:square;stroke-width:2;"/>
   </g>
   <g id="patch_108">
    <path d="
M95.04 347.76
L168.48 347.76" style="fill:none;stroke:#000000;stroke-linecap:square;stroke-linejoin:miter;"/>
   </g>
   <g id="patch_109">
    <path d="
M168.48 421.2
L168.48 347.76" style="fill:none;stroke:#000000;stroke-linecap:square;stroke-linejoin:miter;"/>
   </g>
   <g id="patch_110">
    <path d="
M95.04 421.2
L168.48 421.2" style="fill:none;stroke:#000000;stroke-linecap:square;stroke-linejoin:miter;"/>
   </g>
   <g id="patch_111">
    <path d="
M95.04 421.2
L95.04 347.76" style="fill:none;stroke:#000000;stroke-linecap:square;stroke-linejoin:miter;"/>
   </g>
   <g id="matplotlib.axis_43"/>
   <g id="matplotlib.axis_44"/>
  </g>
  <g id="axes_23">
   <g id="patch_112">
    <path d="
M179.28 421.2
L252.72 421.2
L252.72 347.76
L179.28 347.76
z
" style="fill:#ffffff;"/>
   </g>
   <g id="line2d_45">
    <path clip-path="url(#p3232a52086)" d="
M179.28 392.058
L180.749 391.076
L182.218 391.685
L183.686 393.94
L185.155 397.91
L186.624 402.136
L188.093 405.382
L189.562 408.44
L191.03 410.039
L192.499 410.983
L193.968 411.52
L195.437 411.678
L196.906 411.777
L198.374 411.673
L199.843 411.399
L201.312 411.87
L202.781 411.993
L204.25 411.725
L205.718 411.61
L207.187 412.053
L208.656 412.192
L210.125 412.347
L211.594 412.155
L213.062 412.412
L214.531 412.222
L216 411.986
L217.469 412.161
L218.938 412.032
L220.406 411.921
L221.875 412.04
L223.344 412.195
L224.813 412.163
L226.282 411.954
L227.75 411.985
L229.219 412.234
L230.688 411.977
L232.157 412.131
L233.626 411.983
L235.094 412.039
L236.563 412.26
L238.032 412.286
L239.501 412.332
L240.97 412.204
L242.438 412.034
L243.907 412.098
L245.376 412.101
L246.845 412.133
L248.314 412.014
L249.782 412.103
L251.251 412.392" style="fill:none;stroke:#4c80e6;stroke-linecap:square;stroke-width:2;"/>
   </g>
   <g id="line2d_46">
    <path clip-path="url(#p3232a52086)" d="
M179.28 389.37
L180.749 384.122
L182.218 377.909
L183.686 370.893
L185.155 364.459
L186.624 359.148
L188.093 355.243
L189.562 353.502
L191.03 352.386
L192.499 352.156
L193.968 352.355
L195.437 352.88
L196.906 353.253
L198.374 353.664
L199.843 353.802
L201.312 354.297
L202.781 354.516
L204.25 354.839
L205.718 355.274
L207.187 355.721
L208.656 356.262
L210.125 357.107
L211.594 357.774
L213.062 358.269
L214.531 359.311
L216 360.008
L217.469 360.539
L218.938 361.236
L220.406 361.726
L221.875 362.22
L223.344 362.456
L224.813 362.811
L226.282 363.403
L227.75 363.388
L229.219 363.67
L230.688 364.16
L232.157 364.433
L233.626 364.73
L235.094 365.072
L236.563 365.792
L238.032 366.463
L239.501 367.232
L240.97 367.817
L242.438 368.385
L243.907 368.698
L245.376 369.079
L246.845 369.487
L248.314 369.932
L249.782 370.299
L251.251 370.659" style="fill:none;stroke:#ff0000;stroke-linecap:square;stroke-width:2;"/>
   </g>
   <g id="patch_113">
    <path d="
M179.28 347.76
L252.72 347.76" style="fill:none;stroke:#000000;stroke-linecap:square;stroke-linejoin:miter;"/>
   </g>
   <g id="patch_114">
    <path d="
M252.72 421.2
L252.72 347.76" style="fill:none;stroke:#000000;stroke-linecap:square;stroke-linejoin:miter;"/>
   </g>
   <g id="patch_115">
    <path d="
M179.28 421.2
L252.72 421.2" style="fill:none;stroke:#000000;stroke-linecap:square;stroke-linejoin:miter;"/>
   </g>
   <g id="patch_116">
    <path d="
M179.28 421.2
L179.28 347.76" style="fill:none;stroke:#000000;stroke-linecap:square;stroke-linejoin:miter;"/>
   </g>
   <g id="matplotlib.axis_45"/>
   <g id="matplotlib.axis_46"/>
  </g>
  <g id="axes_24">
   <g id="patch_117">
    <path d="
M263.52 421.2
L336.96 421.2
L336.96 347.76
L263.52 347.76
z
" style="fill:#ffffff;"/>
   </g>
   <g id="line2d_47">
    <path clip-path="url(#p07ef0d24e7)" d="
M263.52 412.591
L264.989 414.499
L266.458 415.513
L267.926 415.84
L269.395 415.901
L270.864 415.785
L272.333 415.629
L273.802 415.303
L275.27 414.55
L276.739 413.332
L278.208 411.743
L279.677 410.022
L281.146 407.568
L282.614 404.191
L284.083 399.991
L285.552 395.162
L287.021 389.612
L288.49 383.099
L289.958 375.724
L291.427 368.502
L292.896 362.55
L294.365 359.511
L295.834 363.168
L297.302 375
L298.771 390.775
L300.24 403.287
L301.709 410.517
L303.178 414.046
L304.646 415.843
L306.115 416.634
L307.584 417
L309.053 416.952
L310.522 416.878
L311.99 416.43
L313.459 415.717
L314.928 415.253
L316.397 414.274
L317.866 413.262
L319.334 411.984
L320.803 410.159
L322.272 408.106
L323.741 405.546
L325.21 402.66
L326.678 398.902
L328.147 394.244
L329.616 388.857
L331.085 382.477
L332.554 375.696
L334.022 368.882
L335.491 364.211" style="fill:none;stroke:#4c80e6;stroke-linecap:square;stroke-width:2;"/>
   </g>
   <g id="line2d_48">
    <path clip-path="url(#p07ef0d24e7)" d="
M263.52 410.692
L264.989 412.151
L266.458 413.581
L267.926 414.658
L269.395 415.699
L270.864 416.429
L272.333 417.08
L273.802 417.76
L275.27 418.587
L276.739 419.006
L278.208 419.406
L279.677 419.623
L281.146 419.968
L282.614 420.026
L284.083 419.802
L285.552 419.636
L287.021 419.379
L288.49 419.095
L289.958 418.434
L291.427 417.445
L292.896 416.138
L294.365 413.824
L295.834 410.73
L297.302 407.896
L298.771 406.441
L300.24 406.815
L301.709 408.219
L303.178 410.225
L304.646 411.803
L306.115 413.334
L307.584 414.783
L309.053 415.67
L310.522 416.596
L311.99 417.242
L313.459 417.844
L314.928 418.364
L316.397 418.648
L317.866 418.821
L319.334 419.054
L320.803 419.219
L322.272 419.194
L323.741 419.238
L325.21 419.39
L326.678 419.437
L328.147 419.305
L329.616 419.15
L331.085 418.799
L332.554 418.17
L334.022 417.013
L335.491 415.674" style="fill:none;stroke:#ff0000;stroke-linecap:square;stroke-width:2;"/>
   </g>
   <g id="patch_118">
    <path d="
M263.52 347.76
L336.96 347.76" style="fill:none;stroke:#000000;stroke-linecap:square;stroke-linejoin:miter;"/>
   </g>
   <g id="patch_119">
    <path d="
M336.96 421.2
L336.96 347.76" style="fill:none;stroke:#000000;stroke-linecap:square;stroke-linejoin:miter;"/>
   </g>
   <g id="patch_120">
    <path d="
M263.52 421.2
L336.96 421.2" style="fill:none;stroke:#000000;stroke-linecap:square;stroke-linejoin:miter;"/>
   </g>
   <g id="patch_121">
    <path d="
M263.52 421.2
L263.52 347.76" style="fill:none;stroke:#000000;stroke-linecap:square;stroke-linejoin:miter;"/>
   </g>
   <g id="matplotlib.axis_47"/>
   <g id="matplotlib.axis_48"/>
  </g>
  <g id="axes_25">
   <g id="patch_122">
    <path d="
M347.76 421.2
L421.2 421.2
L421.2 347.76
L347.76 347.76
z
" style="fill:#ffffff;"/>
   </g>
   <g id="line2d_49">
    <path clip-path="url(#pf7b61a0dc3)" d="
M347.76 413.856
L356.94 413.856
L366.12 413.856
L375.3 413.856
L384.48 413.856
L393.66 413.856
L402.84 413.856
L412.02 413.856
L421.2 413.856" style="fill:none;stroke:#4c80e6;stroke-linecap:square;stroke-width:2;"/>
   </g>
   <g id="line2d_50">
    <path clip-path="url(#pf7b61a0dc3)" d="
M347.76 413.856
L356.94 413.856
L366.12 413.856
L375.3 413.856
L384.48 413.856
L393.66 413.856
L402.84 413.856
L412.02 413.856
L421.2 352.117" style="fill:none;stroke:#ff0000;stroke-linecap:square;stroke-width:2;"/>
   </g>
   <g id="patch_123">
    <path d="
M347.76 347.76
L421.2 347.76" style="fill:none;stroke:#000000;stroke-linecap:square;stroke-linejoin:miter;"/>
   </g>
   <g id="patch_124">
    <path d="
M421.2 421.2
L421.2 347.76" style="fill:none;stroke:#000000;stroke-linecap:square;stroke-linejoin:miter;"/>
   </g>
   <g id="patch_125">
    <path d="
M347.76 421.2
L421.2 421.2" style="fill:none;stroke:#000000;stroke-linecap:square;stroke-linejoin:miter;"/>
   </g>
   <g id="patch_126">
    <path d="
M347.76 421.2
L347.76 347.76" style="fill:none;stroke:#000000;stroke-linecap:square;stroke-linejoin:miter;"/>
   </g>
   <g id="matplotlib.axis_49"/>
   <g id="matplotlib.axis_50"/>
  </g>
 </g>
 <defs>
  <clipPath id="p9456cd1951">
   <rect height="73.44" width="73.44" x="263.52" y="95.04"/>
  </clipPath>
  <clipPath id="p5d628a6f7c">
   <rect height="73.44" width="73.44" x="347.76" y="10.8"/>
  </clipPath>
  <clipPath id="p14a5f87e56">
   <rect height="73.44" width="73.44" x="95.04" y="10.8"/>
  </clipPath>
  <clipPath id="p9b6bc26a3d">
   <rect height="73.44" width="73.44" x="95.04" y="263.52"/>
  </clipPath>
  <clipPath id="p07ef0d24e7">
   <rect height="73.44" width="73.44" x="263.52" y="347.76"/>
  </clipPath>
  <clipPath id="p4409c66682">
   <rect height="73.44" width="73.44" x="263.52" y="179.28"/>
  </clipPath>
  <clipPath id="p58788a4463">
   <rect height="73.44" width="73.44" x="10.8" y="95.04"/>
  </clipPath>
  <clipPath id="p0c6610ae85">
   <rect height="73.44" width="73.44" x="179.28" y="95.04"/>
  </clipPath>
  <clipPath id="pde0fb9d677">
   <rect height="73.44" width="73.44" x="179.28" y="179.28"/>
  </clipPath>
  <clipPath id="p9b291e0c15">
   <rect height="73.44" width="73.44" x="179.28" y="263.52"/>
  </clipPath>
  <clipPath id="p326eca6ed5">
   <rect height="73.44" width="73.44" x="10.8" y="263.52"/>
  </clipPath>
  <clipPath id="pf7b61a0dc3">
   <rect height="73.44" width="73.44" x="347.76" y="347.76"/>
  </clipPath>
  <clipPath id="p5db16c49ee">
   <rect height="73.44" width="73.44" x="95.04" y="95.04"/>
  </clipPath>
  <clipPath id="p3232a52086">
   <rect height="73.44" width="73.44" x="179.28" y="347.76"/>
  </clipPath>
  <clipPath id="p1fa5ea2cb6">
   <rect height="73.44" width="73.44" x="263.52" y="10.8"/>
  </clipPath>
  <clipPath id="pc85c3a2a70">
   <rect height="73.44" width="73.44" x="10.8" y="10.8"/>
  </clipPath>
  <clipPath id="p4b5bfdae2d">
   <rect height="73.44" width="73.44" x="95.04" y="347.76"/>
  </clipPath>
  <clipPath id="p7a6cdca13d">
   <rect height="73.44" width="73.44" x="10.8" y="179.28"/>
  </clipPath>
  <clipPath id="p5acd20c2b6">
   <rect height="73.44" width="73.44" x="263.52" y="263.52"/>
  </clipPath>
  <clipPath id="p0a34fef61b">
   <rect height="73.44" width="73.44" x="95.04" y="179.28"/>
  </clipPath>
  <clipPath id="p0223a271da">
   <rect height="73.44" width="73.44" x="10.8" y="347.76"/>
  </clipPath>
  <clipPath id="pe248100620">
   <rect height="73.44" width="73.44" x="347.76" y="263.52"/>
  </clipPath>
  <clipPath id="pf528c07f3f">
   <rect height="73.44" width="73.44" x="347.76" y="179.28"/>
  </clipPath>
  <clipPath id="pecd23aa0c4">
   <rect height="73.44" width="73.44" x="347.76" y="95.04"/>
  </clipPath>
  <clipPath id="p97bf60e0f4">
   <rect height="73.44" width="73.44" x="179.28" y="10.8"/>
  </clipPath>
 </defs>
</svg>
