<?xml version="1.0" encoding="utf-8" standalone="no"?>
<!DOCTYPE svg PUBLIC "-//W3C//DTD SVG 1.1//EN"
  "http://www.w3.org/Graphics/SVG/1.1/DTD/svg11.dtd">
<!-- Created with matplotlib (http://matplotlib.org/) -->
<svg height="216pt" version="1.1" viewBox="0 0 216 216" width="216pt" xmlns="http://www.w3.org/2000/svg" xmlns:xlink="http://www.w3.org/1999/xlink">
 <defs>
  <style type="text/css">
*{stroke-linecap:butt;stroke-linejoin:round;}
  </style>
 </defs>
 <g id="figure_1">
  <g id="patch_1">
   <path d="
M0 216
L216 216
L216 0
L0 0
L0 216" style="fill:none;opacity:0;"/>
  </g>
  <g id="axes_1">
   <g id="patch_2">
    <path d="
M27 194.4
L194.4 194.4
L194.4 21.6
L27 21.6
z
" style="fill:#ffffff;"/>
   </g>
   <g id="line2d_1">
    <path clip-path="url(#p4c72f1c596)" d="
M123.235 88.0958
L125.441 62.1568" style="fill:none;stroke:#000000;stroke-linecap:square;stroke-width:2;"/>
   </g>
   <g id="line2d_2">
    <path clip-path="url(#p4c72f1c596)" d="
M125.441 62.1568
L121.402 55.1767" style="fill:none;stroke:#000000;stroke-linecap:square;stroke-width:2;"/>
   </g>
   <g id="line2d_3">
    <path clip-path="url(#p4c72f1c596)" d="
M125.441 62.1568
L138.906 64.5334" style="fill:none;stroke:#000000;stroke-linecap:square;stroke-width:2;"/>
   </g>
   <g id="line2d_4">
    <path clip-path="url(#p4c72f1c596)" d="
M138.906 64.5334
L150.912 87.2832" style="fill:none;stroke:#000000;stroke-linecap:square;stroke-width:2;"/>
   </g>
   <g id="line2d_5">
    <path clip-path="url(#p4c72f1c596)" d="
M150.912 87.2832
L151.449 106.877" style="fill:none;stroke:#000000;stroke-linecap:square;stroke-width:2;"/>
   </g>
   <g id="line2d_6">
    <path clip-path="url(#p4c72f1c596)" d="
M151.449 106.877
L147.438 112.868" style="fill:none;stroke:#000000;stroke-linecap:square;stroke-width:2;"/>
   </g>
   <g id="line2d_7">
    <path clip-path="url(#p4c72f1c596)" d="
M125.441 62.1568
L108.281 62.3684" style="fill:none;stroke:#000000;stroke-linecap:square;stroke-width:2;"/>
   </g>
   <g id="line2d_8">
    <path clip-path="url(#p4c72f1c596)" d="
M108.281 62.3684
L95.6616 86.4493" style="fill:none;stroke:#000000;stroke-linecap:square;stroke-width:2;"/>
   </g>
   <g id="line2d_9">
    <path clip-path="url(#p4c72f1c596)" d="
M95.6616 86.4493
L105.042 85.5756" style="fill:none;stroke:#000000;stroke-linecap:square;stroke-width:2;"/>
   </g>
   <g id="line2d_10">
    <path clip-path="url(#p4c72f1c596)" d="
M105.042 85.5756
L106.887 85.1608" style="fill:none;stroke:#000000;stroke-linecap:square;stroke-width:2;"/>
   </g>
   <g id="line2d_11">
    <path clip-path="url(#p4c72f1c596)" d="
M123.235 88.0958
L128.055 101.404" style="fill:none;stroke:#000000;stroke-linecap:square;stroke-width:2;"/>
   </g>
   <g id="line2d_12">
    <path clip-path="url(#p4c72f1c596)" d="
M128.055 101.404
L127.545 138.711" style="fill:none;stroke:#000000;stroke-linecap:square;stroke-width:2;"/>
   </g>
   <g id="line2d_13">
    <path clip-path="url(#p4c72f1c596)" d="
M127.545 138.711
L127.616 173.518" style="fill:none;stroke:#000000;stroke-linecap:square;stroke-width:2;"/>
   </g>
   <g id="line2d_14">
    <path clip-path="url(#p4c72f1c596)" d="
M127.616 173.518
L127.763 178.143" style="fill:none;stroke:#000000;stroke-linecap:square;stroke-width:2;"/>
   </g>
   <g id="line2d_15">
    <path clip-path="url(#p4c72f1c596)" d="
M123.235 88.0958
L110.982 98.1722" style="fill:none;stroke:#000000;stroke-linecap:square;stroke-width:2;"/>
   </g>
   <g id="line2d_16">
    <path clip-path="url(#p4c72f1c596)" d="
M110.982 98.1722
L97.6609 131.57" style="fill:none;stroke:#000000;stroke-linecap:square;stroke-width:2;"/>
   </g>
   <g id="line2d_17">
    <path clip-path="url(#p4c72f1c596)" d="
M97.6609 131.57
L86.6049 165.467" style="fill:none;stroke:#000000;stroke-linecap:square;stroke-width:2;"/>
   </g>
   <g id="line2d_18">
    <path clip-path="url(#p4c72f1c596)" d="
M86.6049 165.467
L77.1065 169.245" style="fill:none;stroke:#000000;stroke-linecap:square;stroke-width:2;"/>
   </g>
   <g id="line2d_19">
    <defs>
     <path d="
M0 3
C0.795609 3 1.55874 2.6839 2.12132 2.12132
C2.6839 1.55874 3 0.795609 3 0
C3 -0.795609 2.6839 -1.55874 2.12132 -2.12132
C1.55874 -2.6839 0.795609 -3 0 -3
C-0.795609 -3 -1.55874 -2.6839 -2.12132 -2.12132
C-2.6839 -1.55874 -3 -0.795609 -3 0
C-3 0.795609 -2.6839 1.55874 -2.12132 2.12132
C-1.55874 2.6839 -0.795609 3 0 3
z
" id="m8b0675cc3b" style="stroke:#000000;stroke-width:0.5;"/>
    </defs>
    <g clip-path="url(#p4c72f1c596)">
     <use style="stroke:#000000;stroke-width:0.5;" x="123.234997934" xlink:href="#m8b0675cc3b" y="88.095812926"/>
     <use style="stroke:#000000;stroke-width:0.5;" x="125.441225256" xlink:href="#m8b0675cc3b" y="62.1567706727"/>
     <use style="stroke:#000000;stroke-width:0.5;" x="121.401860471" xlink:href="#m8b0675cc3b" y="55.1766543462"/>
     <use style="stroke:#000000;stroke-width:0.5;" x="138.905945185" xlink:href="#m8b0675cc3b" y="64.5334333096"/>
     <use style="stroke:#000000;stroke-width:0.5;" x="150.911620553" xlink:href="#m8b0675cc3b" y="87.2831739073"/>
     <use style="stroke:#000000;stroke-width:0.5;" x="151.448842063" xlink:href="#m8b0675cc3b" y="106.877094948"/>
     <use style="stroke:#000000;stroke-width:0.5;" x="147.438118332" xlink:href="#m8b0675cc3b" y="112.86776428"/>
     <use style="stroke:#000000;stroke-width:0.5;" x="108.280756659" xlink:href="#m8b0675cc3b" y="62.3684461507"/>
     <use style="stroke:#000000;stroke-width:0.5;" x="95.6615991837" xlink:href="#m8b0675cc3b" y="86.4493210579"/>
     <use style="stroke:#000000;stroke-width:0.5;" x="105.041955956" xlink:href="#m8b0675cc3b" y="85.575560673"/>
     <use style="stroke:#000000;stroke-width:0.5;" x="106.886847626" xlink:href="#m8b0675cc3b" y="85.160773577"/>
     <use style="stroke:#000000;stroke-width:0.5;" x="128.055337424" xlink:href="#m8b0675cc3b" y="101.404029978"/>
     <use style="stroke:#000000;stroke-width:0.5;" x="127.544766051" xlink:href="#m8b0675cc3b" y="138.71140599"/>
     <use style="stroke:#000000;stroke-width:0.5;" x="127.615504136" xlink:href="#m8b0675cc3b" y="173.518334947"/>
     <use style="stroke:#000000;stroke-width:0.5;" x="127.763018809" xlink:href="#m8b0675cc3b" y="178.143473544"/>
     <use style="stroke:#000000;stroke-width:0.5;" x="110.982285145" xlink:href="#m8b0675cc3b" y="98.1721689818"/>
     <use style="stroke:#000000;stroke-width:0.5;" x="97.6609238629" xlink:href="#m8b0675cc3b" y="131.569547895"/>
     <use style="stroke:#000000;stroke-width:0.5;" x="86.6048932671" xlink:href="#m8b0675cc3b" y="165.466776984"/>
     <use style="stroke:#000000;stroke-width:0.5;" x="77.1064912166" xlink:href="#m8b0675cc3b" y="169.24483438"/>
    </g>
   </g>
   <g id="patch_3">
    <path d="
M27 21.6
L194.4 21.6" style="fill:none;stroke:#000000;stroke-linecap:square;stroke-linejoin:miter;"/>
   </g>
   <g id="patch_4">
    <path d="
M194.4 194.4
L194.4 21.6" style="fill:none;stroke:#000000;stroke-linecap:square;stroke-linejoin:miter;"/>
   </g>
   <g id="patch_5">
    <path d="
M27 194.4
L194.4 194.4" style="fill:none;stroke:#000000;stroke-linecap:square;stroke-linejoin:miter;"/>
   </g>
   <g id="patch_6">
    <path d="
M27 194.4
L27 21.6" style="fill:none;stroke:#000000;stroke-linecap:square;stroke-linejoin:miter;"/>
   </g>
   <g id="matplotlib.axis_1"/>
   <g id="matplotlib.axis_2"/>
  </g>
 </g>
 <defs>
  <clipPath id="p4c72f1c596">
   <rect height="172.8" width="167.4" x="27.0" y="21.6"/>
  </clipPath>
 </defs>
</svg>
