<?xml version="1.0" encoding="utf-8" standalone="no"?>
<!DOCTYPE svg PUBLIC "-//W3C//DTD SVG 1.1//EN"
  "http://www.w3.org/Graphics/SVG/1.1/DTD/svg11.dtd">
<!-- Created with matplotlib (https://matplotlib.org/) -->
<svg height="138.4375pt" version="1.1" viewBox="0 0 354.919375 138.4375" width="354.919375pt" xmlns="http://www.w3.org/2000/svg" xmlns:xlink="http://www.w3.org/1999/xlink">
 <defs>
  <style type="text/css">
*{stroke-linecap:butt;stroke-linejoin:round;}
  </style>
 </defs>
 <g id="figure_1">
  <g id="patch_1">
   <path d="M -0 138.4375 
L 354.919375 138.4375 
L 354.919375 0 
L -0 0 
z
" style="fill:#ffffff;"/>
  </g>
  <g id="axes_1">
   <g id="patch_2">
    <path d="M 42.779375 108.0275 
L 344.219375 108.0275 
L 344.219375 10.7 
L 42.779375 10.7 
z
" style="fill:#ffffff;"/>
   </g>
   <g id="patch_3">
    <path clip-path="url(#p22f662f3e3)" d="M 56.481193 108.0275 
L 59.194425 108.0275 
L 59.194425 30.934302 
L 56.481193 30.934302 
z
" style="fill:#1f77b4;"/>
   </g>
   <g id="patch_4">
    <path clip-path="url(#p22f662f3e3)" d="M 59.194425 108.0275 
L 61.907656 108.0275 
L 61.907656 50.899737 
L 59.194425 50.899737 
z
" style="fill:#1f77b4;"/>
   </g>
   <g id="patch_5">
    <path clip-path="url(#p22f662f3e3)" d="M 61.907656 108.0275 
L 64.620887 108.0275 
L 64.620887 53.508554 
L 61.907656 53.508554 
z
" style="fill:#1f77b4;"/>
   </g>
   <g id="patch_6">
    <path clip-path="url(#p22f662f3e3)" d="M 64.620887 108.0275 
L 67.334118 108.0275 
L 67.334118 56.11737 
L 64.620887 56.11737 
z
" style="fill:#1f77b4;"/>
   </g>
   <g id="patch_7">
    <path clip-path="url(#p22f662f3e3)" d="M 67.334118 108.0275 
L 70.04735 108.0275 
L 70.04735 55.265512 
L 67.334118 55.265512 
z
" style="fill:#1f77b4;"/>
   </g>
   <g id="patch_8">
    <path clip-path="url(#p22f662f3e3)" d="M 70.04735 108.0275 
L 72.760581 108.0275 
L 72.760581 55.531718 
L 70.04735 55.531718 
z
" style="fill:#1f77b4;"/>
   </g>
   <g id="patch_9">
    <path clip-path="url(#p22f662f3e3)" d="M 72.760581 108.0275 
L 75.473812 108.0275 
L 75.473812 56.383576 
L 72.760581 56.383576 
z
" style="fill:#1f77b4;"/>
   </g>
   <g id="patch_10">
    <path clip-path="url(#p22f662f3e3)" d="M 75.473812 108.0275 
L 78.187044 108.0275 
L 78.187044 55.584959 
L 75.473812 55.584959 
z
" style="fill:#1f77b4;"/>
   </g>
   <g id="patch_11">
    <path clip-path="url(#p22f662f3e3)" d="M 78.187044 108.0275 
L 80.900275 108.0275 
L 80.900275 50.207602 
L 78.187044 50.207602 
z
" style="fill:#1f77b4;"/>
   </g>
   <g id="patch_12">
    <path clip-path="url(#p22f662f3e3)" d="M 80.900275 108.0275 
L 83.613506 108.0275 
L 83.613506 52.177525 
L 80.900275 52.177525 
z
" style="fill:#1f77b4;"/>
   </g>
   <g id="patch_13">
    <path clip-path="url(#p22f662f3e3)" d="M 83.613506 108.0275 
L 86.326738 108.0275 
L 86.326738 53.721518 
L 83.613506 53.721518 
z
" style="fill:#1f77b4;"/>
   </g>
   <g id="patch_14">
    <path clip-path="url(#p22f662f3e3)" d="M 86.326738 108.0275 
L 89.039969 108.0275 
L 89.039969 54.040965 
L 86.326738 54.040965 
z
" style="fill:#1f77b4;"/>
   </g>
   <g id="patch_15">
    <path clip-path="url(#p22f662f3e3)" d="M 89.039969 108.0275 
L 91.7532 108.0275 
L 91.7532 50.740013 
L 89.039969 50.740013 
z
" style="fill:#1f77b4;"/>
   </g>
   <g id="patch_16">
    <path clip-path="url(#p22f662f3e3)" d="M 91.7532 108.0275 
L 94.466432 108.0275 
L 94.466432 56.436817 
L 91.7532 56.436817 
z
" style="fill:#1f77b4;"/>
   </g>
   <g id="patch_17">
    <path clip-path="url(#p22f662f3e3)" d="M 94.466432 108.0275 
L 97.179663 108.0275 
L 97.179663 59.578046 
L 94.466432 59.578046 
z
" style="fill:#1f77b4;"/>
   </g>
   <g id="patch_18">
    <path clip-path="url(#p22f662f3e3)" d="M 97.179663 108.0275 
L 99.892894 108.0275 
L 99.892894 56.383576 
L 97.179663 56.383576 
z
" style="fill:#1f77b4;"/>
   </g>
   <g id="patch_19">
    <path clip-path="url(#p22f662f3e3)" d="M 99.892894 108.0275 
L 102.606126 108.0275 
L 102.606126 52.709936 
L 99.892894 52.709936 
z
" style="fill:#1f77b4;"/>
   </g>
   <g id="patch_20">
    <path clip-path="url(#p22f662f3e3)" d="M 102.606126 108.0275 
L 105.319357 108.0275 
L 105.319357 54.147447 
L 102.606126 54.147447 
z
" style="fill:#1f77b4;"/>
   </g>
   <g id="patch_21">
    <path clip-path="url(#p22f662f3e3)" d="M 105.319357 108.0275 
L 108.032588 108.0275 
L 108.032588 52.44373 
L 105.319357 52.44373 
z
" style="fill:#1f77b4;"/>
   </g>
   <g id="patch_22">
    <path clip-path="url(#p22f662f3e3)" d="M 108.032588 108.0275 
L 110.74582 108.0275 
L 110.74582 56.277094 
L 108.032588 56.277094 
z
" style="fill:#1f77b4;"/>
   </g>
   <g id="patch_23">
    <path clip-path="url(#p22f662f3e3)" d="M 110.74582 108.0275 
L 113.459051 108.0275 
L 113.459051 56.223853 
L 110.74582 56.223853 
z
" style="fill:#1f77b4;"/>
   </g>
   <g id="patch_24">
    <path clip-path="url(#p22f662f3e3)" d="M 113.459051 108.0275 
L 116.172282 108.0275 
L 116.172282 55.6382 
L 113.459051 55.6382 
z
" style="fill:#1f77b4;"/>
   </g>
   <g id="patch_25">
    <path clip-path="url(#p22f662f3e3)" d="M 116.172282 108.0275 
L 118.885514 108.0275 
L 118.885514 55.691441 
L 116.172282 55.691441 
z
" style="fill:#1f77b4;"/>
   </g>
   <g id="patch_26">
    <path clip-path="url(#p22f662f3e3)" d="M 118.885514 108.0275 
L 121.598745 108.0275 
L 121.598745 55.105788 
L 118.885514 55.105788 
z
" style="fill:#1f77b4;"/>
   </g>
   <g id="patch_27">
    <path clip-path="url(#p22f662f3e3)" d="M 121.598745 108.0275 
L 124.311976 108.0275 
L 124.311976 56.064129 
L 121.598745 56.064129 
z
" style="fill:#1f77b4;"/>
   </g>
   <g id="patch_28">
    <path clip-path="url(#p22f662f3e3)" d="M 124.311976 108.0275 
L 127.025208 108.0275 
L 127.025208 54.040965 
L 124.311976 54.040965 
z
" style="fill:#1f77b4;"/>
   </g>
   <g id="patch_29">
    <path clip-path="url(#p22f662f3e3)" d="M 127.025208 108.0275 
L 129.738439 108.0275 
L 129.738439 56.436817 
L 127.025208 56.436817 
z
" style="fill:#1f77b4;"/>
   </g>
   <g id="patch_30">
    <path clip-path="url(#p22f662f3e3)" d="M 129.738439 108.0275 
L 132.45167 108.0275 
L 132.45167 53.721518 
L 129.738439 53.721518 
z
" style="fill:#1f77b4;"/>
   </g>
   <g id="patch_31">
    <path clip-path="url(#p22f662f3e3)" d="M 132.45167 108.0275 
L 135.164902 108.0275 
L 135.164902 53.082624 
L 132.45167 53.082624 
z
" style="fill:#1f77b4;"/>
   </g>
   <g id="patch_32">
    <path clip-path="url(#p22f662f3e3)" d="M 135.164902 108.0275 
L 137.878133 108.0275 
L 137.878133 51.05946 
L 135.164902 51.05946 
z
" style="fill:#1f77b4;"/>
   </g>
   <g id="patch_33">
    <path clip-path="url(#p22f662f3e3)" d="M 137.878133 108.0275 
L 140.591364 108.0275 
L 140.591364 55.371994 
L 137.878133 55.371994 
z
" style="fill:#1f77b4;"/>
   </g>
   <g id="patch_34">
    <path clip-path="url(#p22f662f3e3)" d="M 140.591364 108.0275 
L 143.304596 108.0275 
L 143.304596 54.839583 
L 140.591364 54.839583 
z
" style="fill:#1f77b4;"/>
   </g>
   <g id="patch_35">
    <path clip-path="url(#p22f662f3e3)" d="M 143.304596 108.0275 
L 146.017827 108.0275 
L 146.017827 55.691441 
L 143.304596 55.691441 
z
" style="fill:#1f77b4;"/>
   </g>
   <g id="patch_36">
    <path clip-path="url(#p22f662f3e3)" d="M 146.017827 108.0275 
L 148.731058 108.0275 
L 148.731058 58.193776 
L 146.017827 58.193776 
z
" style="fill:#1f77b4;"/>
   </g>
   <g id="patch_37">
    <path clip-path="url(#p22f662f3e3)" d="M 148.731058 108.0275 
L 151.444289 108.0275 
L 151.444289 55.691441 
L 148.731058 55.691441 
z
" style="fill:#1f77b4;"/>
   </g>
   <g id="patch_38">
    <path clip-path="url(#p22f662f3e3)" d="M 151.444289 108.0275 
L 154.157521 108.0275 
L 154.157521 58.459981 
L 151.444289 58.459981 
z
" style="fill:#1f77b4;"/>
   </g>
   <g id="patch_39">
    <path clip-path="url(#p22f662f3e3)" d="M 154.157521 108.0275 
L 156.870752 108.0275 
L 156.870752 53.934483 
L 154.157521 53.934483 
z
" style="fill:#1f77b4;"/>
   </g>
   <g id="patch_40">
    <path clip-path="url(#p22f662f3e3)" d="M 156.870752 108.0275 
L 159.583983 108.0275 
L 159.583983 56.064129 
L 156.870752 56.064129 
z
" style="fill:#1f77b4;"/>
   </g>
   <g id="patch_41">
    <path clip-path="url(#p22f662f3e3)" d="M 159.583983 108.0275 
L 162.297215 108.0275 
L 162.297215 58.140534 
L 159.583983 58.140534 
z
" style="fill:#1f77b4;"/>
   </g>
   <g id="patch_42">
    <path clip-path="url(#p22f662f3e3)" d="M 162.297215 108.0275 
L 165.010446 108.0275 
L 165.010446 53.402071 
L 162.297215 53.402071 
z
" style="fill:#1f77b4;"/>
   </g>
   <g id="patch_43">
    <path clip-path="url(#p22f662f3e3)" d="M 165.010446 108.0275 
L 167.723677 108.0275 
L 167.723677 56.703023 
L 165.010446 56.703023 
z
" style="fill:#1f77b4;"/>
   </g>
   <g id="patch_44">
    <path clip-path="url(#p22f662f3e3)" d="M 167.723677 108.0275 
L 170.436909 108.0275 
L 170.436909 55.584959 
L 167.723677 55.584959 
z
" style="fill:#1f77b4;"/>
   </g>
   <g id="patch_45">
    <path clip-path="url(#p22f662f3e3)" d="M 170.436909 108.0275 
L 173.15014 108.0275 
L 173.15014 55.6382 
L 170.436909 55.6382 
z
" style="fill:#1f77b4;"/>
   </g>
   <g id="patch_46">
    <path clip-path="url(#p22f662f3e3)" d="M 173.15014 108.0275 
L 175.863371 108.0275 
L 175.863371 54.839583 
L 173.15014 54.839583 
z
" style="fill:#1f77b4;"/>
   </g>
   <g id="patch_47">
    <path clip-path="url(#p22f662f3e3)" d="M 175.863371 108.0275 
L 178.576603 108.0275 
L 178.576603 57.714605 
L 175.863371 57.714605 
z
" style="fill:#1f77b4;"/>
   </g>
   <g id="patch_48">
    <path clip-path="url(#p22f662f3e3)" d="M 178.576603 108.0275 
L 181.289834 108.0275 
L 181.289834 54.892824 
L 178.576603 54.892824 
z
" style="fill:#1f77b4;"/>
   </g>
   <g id="patch_49">
    <path clip-path="url(#p22f662f3e3)" d="M 181.289834 108.0275 
L 184.003065 108.0275 
L 184.003065 56.490058 
L 181.289834 56.490058 
z
" style="fill:#1f77b4;"/>
   </g>
   <g id="patch_50">
    <path clip-path="url(#p22f662f3e3)" d="M 184.003065 108.0275 
L 186.716297 108.0275 
L 186.716297 56.170612 
L 184.003065 56.170612 
z
" style="fill:#1f77b4;"/>
   </g>
   <g id="patch_51">
    <path clip-path="url(#p22f662f3e3)" d="M 186.716297 108.0275 
L 189.429528 108.0275 
L 189.429528 57.288676 
L 186.716297 57.288676 
z
" style="fill:#1f77b4;"/>
   </g>
   <g id="patch_52">
    <path clip-path="url(#p22f662f3e3)" d="M 189.429528 108.0275 
L 192.142759 108.0275 
L 192.142759 56.277094 
L 189.429528 56.277094 
z
" style="fill:#1f77b4;"/>
   </g>
   <g id="patch_53">
    <path clip-path="url(#p22f662f3e3)" d="M 192.142759 108.0275 
L 194.855991 108.0275 
L 194.855991 56.277094 
L 192.142759 56.277094 
z
" style="fill:#1f77b4;"/>
   </g>
   <g id="patch_54">
    <path clip-path="url(#p22f662f3e3)" d="M 194.855991 108.0275 
L 197.569222 108.0275 
L 197.569222 56.862747 
L 194.855991 56.862747 
z
" style="fill:#1f77b4;"/>
   </g>
   <g id="patch_55">
    <path clip-path="url(#p22f662f3e3)" d="M 197.569222 108.0275 
L 200.282453 108.0275 
L 200.282453 53.774759 
L 197.569222 53.774759 
z
" style="fill:#1f77b4;"/>
   </g>
   <g id="patch_56">
    <path clip-path="url(#p22f662f3e3)" d="M 200.282453 108.0275 
L 202.995685 108.0275 
L 202.995685 52.496972 
L 200.282453 52.496972 
z
" style="fill:#1f77b4;"/>
   </g>
   <g id="patch_57">
    <path clip-path="url(#p22f662f3e3)" d="M 202.995685 108.0275 
L 205.708916 108.0275 
L 205.708916 53.934483 
L 202.995685 53.934483 
z
" style="fill:#1f77b4;"/>
   </g>
   <g id="patch_58">
    <path clip-path="url(#p22f662f3e3)" d="M 205.708916 108.0275 
L 208.422147 108.0275 
L 208.422147 53.828001 
L 205.708916 53.828001 
z
" style="fill:#1f77b4;"/>
   </g>
   <g id="patch_59">
    <path clip-path="url(#p22f662f3e3)" d="M 208.422147 108.0275 
L 211.135379 108.0275 
L 211.135379 54.7331 
L 208.422147 54.7331 
z
" style="fill:#1f77b4;"/>
   </g>
   <g id="patch_60">
    <path clip-path="url(#p22f662f3e3)" d="M 211.135379 108.0275 
L 213.84861 108.0275 
L 213.84861 54.946065 
L 211.135379 54.946065 
z
" style="fill:#1f77b4;"/>
   </g>
   <g id="patch_61">
    <path clip-path="url(#p22f662f3e3)" d="M 213.84861 108.0275 
L 216.561841 108.0275 
L 216.561841 55.052547 
L 213.84861 55.052547 
z
" style="fill:#1f77b4;"/>
   </g>
   <g id="patch_62">
    <path clip-path="url(#p22f662f3e3)" d="M 216.561841 108.0275 
L 219.275073 108.0275 
L 219.275073 57.448399 
L 216.561841 57.448399 
z
" style="fill:#1f77b4;"/>
   </g>
   <g id="patch_63">
    <path clip-path="url(#p22f662f3e3)" d="M 219.275073 108.0275 
L 221.988304 108.0275 
L 221.988304 60.110457 
L 219.275073 60.110457 
z
" style="fill:#1f77b4;"/>
   </g>
   <g id="patch_64">
    <path clip-path="url(#p22f662f3e3)" d="M 221.988304 108.0275 
L 224.701535 108.0275 
L 224.701535 55.851165 
L 221.988304 55.851165 
z
" style="fill:#1f77b4;"/>
   </g>
   <g id="patch_65">
    <path clip-path="url(#p22f662f3e3)" d="M 224.701535 108.0275 
L 227.414767 108.0275 
L 227.414767 54.520136 
L 224.701535 54.520136 
z
" style="fill:#1f77b4;"/>
   </g>
   <g id="patch_66">
    <path clip-path="url(#p22f662f3e3)" d="M 227.414767 108.0275 
L 230.127998 108.0275 
L 230.127998 57.02247 
L 227.414767 57.02247 
z
" style="fill:#1f77b4;"/>
   </g>
   <g id="patch_67">
    <path clip-path="url(#p22f662f3e3)" d="M 230.127998 108.0275 
L 232.841229 108.0275 
L 232.841229 57.128952 
L 230.127998 57.128952 
z
" style="fill:#1f77b4;"/>
   </g>
   <g id="patch_68">
    <path clip-path="url(#p22f662f3e3)" d="M 232.841229 108.0275 
L 235.554461 108.0275 
L 235.554461 57.608123 
L 232.841229 57.608123 
z
" style="fill:#1f77b4;"/>
   </g>
   <g id="patch_69">
    <path clip-path="url(#p22f662f3e3)" d="M 235.554461 108.0275 
L 238.267692 108.0275 
L 238.267692 58.619705 
L 235.554461 58.619705 
z
" style="fill:#1f77b4;"/>
   </g>
   <g id="patch_70">
    <path clip-path="url(#p22f662f3e3)" d="M 238.267692 108.0275 
L 240.980923 108.0275 
L 240.980923 55.478476 
L 238.267692 55.478476 
z
" style="fill:#1f77b4;"/>
   </g>
   <g id="patch_71">
    <path clip-path="url(#p22f662f3e3)" d="M 240.980923 108.0275 
L 243.694154 108.0275 
L 243.694154 57.714605 
L 240.980923 57.714605 
z
" style="fill:#1f77b4;"/>
   </g>
   <g id="patch_72">
    <path clip-path="url(#p22f662f3e3)" d="M 243.694154 108.0275 
L 246.407386 108.0275 
L 246.407386 57.182194 
L 243.694154 57.182194 
z
" style="fill:#1f77b4;"/>
   </g>
   <g id="patch_73">
    <path clip-path="url(#p22f662f3e3)" d="M 246.407386 108.0275 
L 249.120617 108.0275 
L 249.120617 55.265512 
L 246.407386 55.265512 
z
" style="fill:#1f77b4;"/>
   </g>
   <g id="patch_74">
    <path clip-path="url(#p22f662f3e3)" d="M 249.120617 108.0275 
L 251.833848 108.0275 
L 251.833848 56.064129 
L 249.120617 56.064129 
z
" style="fill:#1f77b4;"/>
   </g>
   <g id="patch_75">
    <path clip-path="url(#p22f662f3e3)" d="M 251.833848 108.0275 
L 254.54708 108.0275 
L 254.54708 52.763177 
L 251.833848 52.763177 
z
" style="fill:#1f77b4;"/>
   </g>
   <g id="patch_76">
    <path clip-path="url(#p22f662f3e3)" d="M 254.54708 108.0275 
L 257.260311 108.0275 
L 257.260311 53.029383 
L 254.54708 53.029383 
z
" style="fill:#1f77b4;"/>
   </g>
   <g id="patch_77">
    <path clip-path="url(#p22f662f3e3)" d="M 257.260311 108.0275 
L 259.973542 108.0275 
L 259.973542 53.082624 
L 257.260311 53.082624 
z
" style="fill:#1f77b4;"/>
   </g>
   <g id="patch_78">
    <path clip-path="url(#p22f662f3e3)" d="M 259.973542 108.0275 
L 262.686774 108.0275 
L 262.686774 58.40674 
L 259.973542 58.40674 
z
" style="fill:#1f77b4;"/>
   </g>
   <g id="patch_79">
    <path clip-path="url(#p22f662f3e3)" d="M 262.686774 108.0275 
L 265.400005 108.0275 
L 265.400005 54.094206 
L 262.686774 54.094206 
z
" style="fill:#1f77b4;"/>
   </g>
   <g id="patch_80">
    <path clip-path="url(#p22f662f3e3)" d="M 265.400005 108.0275 
L 268.113236 108.0275 
L 268.113236 53.455312 
L 265.400005 53.455312 
z
" style="fill:#1f77b4;"/>
   </g>
   <g id="patch_81">
    <path clip-path="url(#p22f662f3e3)" d="M 268.113236 108.0275 
L 270.826468 108.0275 
L 270.826468 54.626618 
L 268.113236 54.626618 
z
" style="fill:#1f77b4;"/>
   </g>
   <g id="patch_82">
    <path clip-path="url(#p22f662f3e3)" d="M 270.826468 108.0275 
L 273.539699 108.0275 
L 273.539699 57.50164 
L 270.826468 57.50164 
z
" style="fill:#1f77b4;"/>
   </g>
   <g id="patch_83">
    <path clip-path="url(#p22f662f3e3)" d="M 273.539699 108.0275 
L 276.25293 108.0275 
L 276.25293 54.7331 
L 273.539699 54.7331 
z
" style="fill:#1f77b4;"/>
   </g>
   <g id="patch_84">
    <path clip-path="url(#p22f662f3e3)" d="M 276.25293 108.0275 
L 278.966162 108.0275 
L 278.966162 52.86966 
L 276.25293 52.86966 
z
" style="fill:#1f77b4;"/>
   </g>
   <g id="patch_85">
    <path clip-path="url(#p22f662f3e3)" d="M 278.966162 108.0275 
L 281.679393 108.0275 
L 281.679393 52.071042 
L 278.966162 52.071042 
z
" style="fill:#1f77b4;"/>
   </g>
   <g id="patch_86">
    <path clip-path="url(#p22f662f3e3)" d="M 281.679393 108.0275 
L 284.392624 108.0275 
L 284.392624 52.337248 
L 281.679393 52.337248 
z
" style="fill:#1f77b4;"/>
   </g>
   <g id="patch_87">
    <path clip-path="url(#p22f662f3e3)" d="M 284.392624 108.0275 
L 287.105856 108.0275 
L 287.105856 56.649782 
L 284.392624 56.649782 
z
" style="fill:#1f77b4;"/>
   </g>
   <g id="patch_88">
    <path clip-path="url(#p22f662f3e3)" d="M 287.105856 108.0275 
L 289.819087 108.0275 
L 289.819087 54.626618 
L 287.105856 54.626618 
z
" style="fill:#1f77b4;"/>
   </g>
   <g id="patch_89">
    <path clip-path="url(#p22f662f3e3)" d="M 289.819087 108.0275 
L 292.532318 108.0275 
L 292.532318 49.621949 
L 289.819087 49.621949 
z
" style="fill:#1f77b4;"/>
   </g>
   <g id="patch_90">
    <path clip-path="url(#p22f662f3e3)" d="M 292.532318 108.0275 
L 295.24555 108.0275 
L 295.24555 54.360412 
L 292.532318 54.360412 
z
" style="fill:#1f77b4;"/>
   </g>
   <g id="patch_91">
    <path clip-path="url(#p22f662f3e3)" d="M 295.24555 108.0275 
L 297.958781 108.0275 
L 297.958781 53.615036 
L 295.24555 53.615036 
z
" style="fill:#1f77b4;"/>
   </g>
   <g id="patch_92">
    <path clip-path="url(#p22f662f3e3)" d="M 297.958781 108.0275 
L 300.672012 108.0275 
L 300.672012 56.170612 
L 297.958781 56.170612 
z
" style="fill:#1f77b4;"/>
   </g>
   <g id="patch_93">
    <path clip-path="url(#p22f662f3e3)" d="M 300.672012 108.0275 
L 303.385244 108.0275 
L 303.385244 56.383576 
L 300.672012 56.383576 
z
" style="fill:#1f77b4;"/>
   </g>
   <g id="patch_94">
    <path clip-path="url(#p22f662f3e3)" d="M 303.385244 108.0275 
L 306.098475 108.0275 
L 306.098475 52.017801 
L 303.385244 52.017801 
z
" style="fill:#1f77b4;"/>
   </g>
   <g id="patch_95">
    <path clip-path="url(#p22f662f3e3)" d="M 306.098475 108.0275 
L 308.811706 108.0275 
L 308.811706 53.987724 
L 306.098475 53.987724 
z
" style="fill:#1f77b4;"/>
   </g>
   <g id="patch_96">
    <path clip-path="url(#p22f662f3e3)" d="M 308.811706 108.0275 
L 311.524938 108.0275 
L 311.524938 55.371994 
L 308.811706 55.371994 
z
" style="fill:#1f77b4;"/>
   </g>
   <g id="patch_97">
    <path clip-path="url(#p22f662f3e3)" d="M 311.524938 108.0275 
L 314.238169 108.0275 
L 314.238169 50.367325 
L 311.524938 50.367325 
z
" style="fill:#1f77b4;"/>
   </g>
   <g id="patch_98">
    <path clip-path="url(#p22f662f3e3)" d="M 314.238169 108.0275 
L 316.9514 108.0275 
L 316.9514 52.390489 
L 314.238169 52.390489 
z
" style="fill:#1f77b4;"/>
   </g>
   <g id="patch_99">
    <path clip-path="url(#p22f662f3e3)" d="M 316.9514 108.0275 
L 319.664632 108.0275 
L 319.664632 47.492303 
L 316.9514 47.492303 
z
" style="fill:#1f77b4;"/>
   </g>
   <g id="patch_100">
    <path clip-path="url(#p22f662f3e3)" d="M 319.664632 108.0275 
L 322.377863 108.0275 
L 322.377863 49.515467 
L 319.664632 49.515467 
z
" style="fill:#1f77b4;"/>
   </g>
   <g id="patch_101">
    <path clip-path="url(#p22f662f3e3)" d="M 322.377863 108.0275 
L 325.091094 108.0275 
L 325.091094 49.515467 
L 322.377863 49.515467 
z
" style="fill:#1f77b4;"/>
   </g>
   <g id="patch_102">
    <path clip-path="url(#p22f662f3e3)" d="M 325.091094 108.0275 
L 327.804325 108.0275 
L 327.804325 39.026958 
L 325.091094 39.026958 
z
" style="fill:#1f77b4;"/>
   </g>
   <g id="patch_103">
    <path clip-path="url(#p22f662f3e3)" d="M 327.804325 108.0275 
L 330.517557 108.0275 
L 330.517557 15.334643 
L 327.804325 15.334643 
z
" style="fill:#1f77b4;"/>
   </g>
   <g id="matplotlib.axis_1">
    <g id="xtick_1">
     <g id="line2d_1">
      <defs>
       <path d="M 0 0 
L 0 3.5 
" id="m8c5c7cf739" style="stroke:#000000;stroke-width:0.8;"/>
      </defs>
      <g>
       <use style="stroke:#000000;stroke-width:0.8;" x="56.481193" xlink:href="#m8c5c7cf739" y="108.0275"/>
      </g>
     </g>
     <g id="text_1">
      <!-- 0 -->
      <defs>
       <path d="M 48.90625 31.90625 
C 48.90625 42.59375 47.796875 49.09375 44.5 55.5 
C 40.09375 64.296875 32 66.5 26.5 66.5 
C 13.90625 66.5 9.296875 57.09375 7.90625 54.296875 
C 4.296875 47 4.09375 37.09375 4.09375 31.90625 
C 4.09375 25.296875 4.40625 15.203125 9.203125 7.203125 
C 13.796875 -0.203125 21.203125 -2.09375 26.5 -2.09375 
C 31.296875 -2.09375 39.90625 -0.59375 44.90625 9.296875 
C 48.59375 16.5 48.90625 25.40625 48.90625 31.90625 
z
M 40 33.09375 
C 40 27.203125 40 18.203125 38.796875 12.59375 
C 36.703125 2.09375 29.796875 0.703125 26.5 0.703125 
C 23.09375 0.703125 16.203125 2.296875 14.09375 12.796875 
C 13 18.5 13 27.90625 13 33.09375 
C 13 40 13 47 14.09375 52.5 
C 16.203125 62.703125 24 63.703125 26.5 63.703125 
C 29.90625 63.703125 36.796875 62 38.796875 52.90625 
C 40 47.40625 40 39.90625 40 33.09375 
z
" id="LMRoman8-Regular-48"/>
      </defs>
      <g transform="translate(54.888381 119.191875)scale(0.06 -0.06)">
       <use xlink:href="#LMRoman8-Regular-48"/>
      </g>
     </g>
    </g>
    <g id="xtick_2">
     <g id="line2d_2">
      <g>
       <use style="stroke:#000000;stroke-width:0.8;" x="111.288466" xlink:href="#m8c5c7cf739" y="108.0275"/>
      </g>
     </g>
     <g id="text_2">
      <!-- 20 -->
      <defs>
       <path d="M 47.703125 17.90625 
L 44.59375 17.90625 
C 44.296875 15.90625 43.5 10.90625 42.296875 9 
C 41.703125 8.203125 34.09375 8.203125 32.5 8.203125 
L 14.703125 8.203125 
L 28.203125 20.40625 
C 29.796875 21.90625 34 25.203125 35.59375 26.59375 
C 41.796875 32.296875 47.703125 37.796875 47.703125 46.90625 
C 47.703125 58.796875 37.703125 66.5 25.203125 66.5 
C 13.203125 66.5 5.296875 57.40625 5.296875 48.5 
C 5.296875 43.59375 9.203125 42.90625 10.59375 42.90625 
C 12.703125 42.90625 15.796875 44.40625 15.796875 48.203125 
C 15.796875 53.40625 10.796875 53.40625 9.59375 53.40625 
C 12.5 60.703125 19.203125 63.203125 24.09375 63.203125 
C 33.40625 63.203125 38.203125 55.296875 38.203125 46.90625 
C 38.203125 36.5 30.90625 28.90625 19.09375 16.796875 
L 6.5 3.796875 
C 5.296875 2.703125 5.296875 2.5 5.296875 0 
L 44.796875 0 
z
" id="LMRoman8-Regular-50"/>
      </defs>
      <g transform="translate(108.102841 119.191875)scale(0.06 -0.06)">
       <use xlink:href="#LMRoman8-Regular-50"/>
       <use x="53.099991" xlink:href="#LMRoman8-Regular-48"/>
      </g>
     </g>
    </g>
    <g id="xtick_3">
     <g id="line2d_3">
      <g>
       <use style="stroke:#000000;stroke-width:0.8;" x="166.095739" xlink:href="#m8c5c7cf739" y="108.0275"/>
      </g>
     </g>
     <g id="text_3">
      <!-- 40 -->
      <defs>
       <path d="M 50 16.40625 
L 50 19.703125 
L 39.40625 19.703125 
L 39.40625 64.703125 
C 39.40625 66.703125 39.40625 67.5 37.296875 67.5 
C 36 67.5 35.90625 67.40625 34.90625 66 
L 3 19.703125 
L 3 16.40625 
L 31.203125 16.40625 
L 31.203125 8.09375 
C 31.203125 4.40625 30.90625 3.296875 23.203125 3.296875 
L 20.90625 3.296875 
L 20.90625 0 
L 35.296875 0.296875 
L 49.703125 0 
L 49.703125 3.296875 
L 47.40625 3.296875 
C 39.703125 3.296875 39.40625 4.40625 39.40625 8.09375 
L 39.40625 16.40625 
z
M 31.90625 19.703125 
L 6.5 19.703125 
L 31.90625 56.59375 
z
" id="LMRoman8-Regular-52"/>
      </defs>
      <g transform="translate(162.910114 119.191875)scale(0.06 -0.06)">
       <use xlink:href="#LMRoman8-Regular-52"/>
       <use x="53.099991" xlink:href="#LMRoman8-Regular-48"/>
      </g>
     </g>
    </g>
    <g id="xtick_4">
     <g id="line2d_4">
      <g>
       <use style="stroke:#000000;stroke-width:0.8;" x="220.903011" xlink:href="#m8c5c7cf739" y="108.0275"/>
      </g>
     </g>
     <g id="text_4">
      <!-- 60 -->
      <defs>
       <path d="M 48.59375 20.296875 
C 48.59375 33.40625 38.703125 42.59375 27.59375 42.59375 
C 20.40625 42.59375 16.09375 38 13.796875 33.09375 
C 13.796875 41.40625 14.5 48.703125 18.09375 54.796875 
C 21.09375 59.796875 26.203125 63.90625 32.5 63.90625 
C 34.5 63.90625 39.09375 63.59375 41.40625 60.09375 
C 36.90625 59.90625 36.5 56.5 36.5 55.40625 
C 36.5 52.40625 38.796875 50.703125 41.203125 50.703125 
C 43 50.703125 45.90625 51.796875 45.90625 55.59375 
C 45.90625 61.59375 41.40625 66.5 32.40625 66.5 
C 18.5 66.5 4.40625 53.296875 4.40625 31.703125 
C 4.40625 4.59375 17 -2.09375 26.703125 -2.09375 
C 31.5 -2.09375 36.703125 -0.796875 41.203125 3.5 
C 45.203125 7.40625 48.59375 11.59375 48.59375 20.296875 
z
M 39.203125 20.40625 
C 39.203125 15.296875 39.203125 10.90625 37.203125 7.296875 
C 34.59375 2.703125 31.09375 0.90625 26.703125 0.90625 
C 21.40625 0.90625 18.09375 4.59375 16.59375 7.40625 
C 14.296875 11.90625 14.09375 18.703125 14.09375 22.5 
C 14.09375 32.40625 19.5 39.796875 27.203125 39.796875 
C 32.203125 39.796875 35.203125 37.203125 37.09375 33.703125 
C 39.203125 30 39.203125 25.5 39.203125 20.40625 
z
" id="LMRoman8-Regular-54"/>
      </defs>
      <g transform="translate(217.717386 119.191875)scale(0.06 -0.06)">
       <use xlink:href="#LMRoman8-Regular-54"/>
       <use x="53.099991" xlink:href="#LMRoman8-Regular-48"/>
      </g>
     </g>
    </g>
    <g id="xtick_5">
     <g id="line2d_5">
      <g>
       <use style="stroke:#000000;stroke-width:0.8;" x="275.710284" xlink:href="#m8c5c7cf739" y="108.0275"/>
      </g>
     </g>
     <g id="text_5">
      <!-- 80 -->
      <defs>
       <path d="M 48.59375 16.796875 
C 48.59375 23.09375 45.203125 27.296875 43.59375 29 
C 41.90625 30.59375 41.796875 30.703125 33.203125 36.09375 
C 38.796875 38.796875 45.59375 43.796875 45.59375 51.59375 
C 45.59375 61.09375 35.90625 66.5 26.59375 66.5 
C 16 66.5 7.40625 59.203125 7.40625 49.796875 
C 7.40625 46.09375 8.703125 42.703125 11.203125 39.796875 
C 12.90625 37.703125 13.296875 37.5 19.5 33.59375 
C 7.09375 28.09375 4.40625 20.796875 4.40625 15.203125 
C 4.40625 4.203125 15.5 -2.09375 26.40625 -2.09375 
C 38.703125 -2.09375 48.59375 6.203125 48.59375 16.796875 
z
M 40.59375 51.59375 
C 40.59375 45.796875 36.09375 40.90625 30.203125 38 
L 17.703125 45.5 
C 14.796875 47.203125 12.40625 50.09375 12.40625 53.59375 
C 12.40625 59.90625 19.296875 63.90625 26.40625 63.90625 
C 34.203125 63.90625 40.59375 58.59375 40.59375 51.59375 
z
M 42.90625 13.40625 
C 42.90625 5.703125 34.796875 0.90625 26.59375 0.90625 
C 17.703125 0.90625 10.09375 7 10.09375 15.203125 
C 10.09375 22.703125 15.703125 28.59375 22.59375 31.796875 
L 36.09375 23.5 
C 37.703125 22.59375 42.90625 19.40625 42.90625 13.40625 
z
" id="LMRoman8-Regular-56"/>
      </defs>
      <g transform="translate(272.524659 119.191875)scale(0.06 -0.06)">
       <use xlink:href="#LMRoman8-Regular-56"/>
       <use x="53.099991" xlink:href="#LMRoman8-Regular-48"/>
      </g>
     </g>
    </g>
    <g id="xtick_6">
     <g id="line2d_6">
      <g>
       <use style="stroke:#000000;stroke-width:0.8;" x="330.517557" xlink:href="#m8c5c7cf739" y="108.0275"/>
      </g>
     </g>
     <g id="text_6">
      <!-- 100 -->
      <defs>
       <path d="M 44.703125 0 
L 44.703125 3.296875 
L 41.203125 3.296875 
C 31.703125 3.296875 31.40625 4.5 31.40625 8.203125 
L 31.40625 63.703125 
C 31.40625 66.40625 31.203125 66.5 28.5 66.5 
C 24.40625 62.5 19.09375 60.09375 9.59375 60.09375 
L 9.59375 56.796875 
C 12.296875 56.796875 17.703125 56.796875 23.5 59.5 
L 23.5 8.203125 
C 23.5 4.5 23.203125 3.296875 13.703125 3.296875 
L 10.203125 3.296875 
L 10.203125 0 
C 14.296875 0.296875 22.90625 0.296875 27.40625 0.296875 
C 31.90625 0.296875 40.59375 0.296875 44.703125 0 
z
" id="LMRoman8-Regular-49"/>
      </defs>
      <g transform="translate(325.739119 119.191875)scale(0.06 -0.06)">
       <use xlink:href="#LMRoman8-Regular-49"/>
       <use x="53.099991" xlink:href="#LMRoman8-Regular-48"/>
       <use x="106.199982" xlink:href="#LMRoman8-Regular-48"/>
      </g>
     </g>
    </g>
    <g id="text_7">
     <!-- Rank -->
     <defs>
      <path d="M 77.796875 9.09375 
C 77.796875 9.703125 77.796875 11 76.203125 11 
C 74.796875 11 74.796875 9.90625 74.703125 9.203125 
C 74.203125 2.90625 70.703125 0.703125 67.90625 0.703125 
C 62.5 0.703125 61.90625 5.296875 60.09375 18 
C 59.40625 23.703125 58.40625 30.59375 47.40625 34 
C 55.203125 36 64.796875 41.703125 64.796875 50.296875 
C 64.796875 60.203125 52.09375 68.296875 37.203125 68.296875 
L 4.59375 68.296875 
L 4.59375 65 
L 6.796875 65 
C 14.5 65 14.703125 63.90625 14.703125 60.203125 
L 14.703125 8.09375 
C 14.703125 4.40625 14.5 3.296875 6.796875 3.296875 
L 4.59375 3.296875 
L 4.59375 0 
L 19.09375 0.296875 
L 33.703125 0 
L 33.703125 3.296875 
L 31.5 3.296875 
C 23.796875 3.296875 23.59375 4.40625 23.59375 8.09375 
L 23.59375 32.796875 
L 36.203125 32.796875 
C 43.59375 32.796875 46.90625 29.09375 47.59375 28.296875 
C 50.5 25.09375 50.5 23.203125 50.5 16.40625 
C 50.5 10.09375 50.5 5.796875 54.703125 2.09375 
C 59 -1.59375 64.59375 -2.09375 67.5 -2.09375 
C 75.796875 -2.09375 77.796875 6.09375 77.796875 9.09375 
z
M 54.40625 50.296875 
C 54.40625 39.203125 46.40625 35.59375 35.90625 35.59375 
L 23.59375 35.59375 
L 23.59375 60.90625 
C 23.59375 63.5 23.703125 64.59375 26.09375 64.90625 
C 27 65 30.203125 65 32.203125 65 
C 41.203125 65 54.40625 65 54.40625 50.296875 
z
" id="LMRoman8-Regular-82"/>
      <path d="M 51.40625 9 
L 51.40625 14.5 
L 48.296875 14.5 
L 48.296875 9 
C 48.296875 4.90625 46.796875 3.296875 44.703125 3.296875 
C 41 3.296875 41 7.90625 41 9 
L 41 29.796875 
C 41 39.59375 31.5 44.59375 22.40625 44.59375 
C 14.09375 44.59375 6.703125 41.40625 6.703125 34.796875 
C 6.703125 31.796875 8.796875 30 11.40625 30 
C 14.203125 30 16.09375 32 16.09375 34.703125 
C 16.09375 37.09375 14.59375 38.796875 12.40625 39.296875 
C 16.09375 41.796875 21.5 41.796875 22.203125 41.796875 
C 27.796875 41.796875 33.40625 37.90625 33.40625 29.703125 
L 33.40625 26.59375 
C 27.59375 26.296875 20.90625 26 13.90625 23.09375 
C 5.09375 19.296875 3.40625 13.5 3.40625 10.203125 
C 3.40625 1.59375 13.5 -1 20.40625 -1 
C 27.703125 -1 32.203125 3.09375 34.40625 7.09375 
C 34.90625 3.296875 37.5 -0.5 41.90625 -0.5 
C 42.90625 -0.5 51.40625 -0.09375 51.40625 9 
z
M 33.40625 14.09375 
C 33.40625 4.40625 25.203125 1.796875 21.203125 1.796875 
C 16 1.796875 11.59375 5.296875 11.59375 10.09375 
C 11.59375 16.703125 17.796875 23.5 33.40625 24 
z
" id="LMRoman8-Regular-97"/>
      <path d="M 56.203125 0 
L 56.203125 3.296875 
C 49.796875 3.296875 48.59375 3.296875 48.59375 7.796875 
L 48.59375 30.296875 
C 48.59375 38.703125 44.796875 44.09375 34.296875 44.09375 
C 24.40625 44.09375 19.90625 36.90625 18.703125 34.5 
L 18.59375 34.5 
L 18.59375 44.09375 
L 4.09375 43 
L 4.09375 39.703125 
C 10.90625 39.703125 11.703125 39 11.703125 34.09375 
L 11.703125 7.796875 
C 11.703125 3.296875 10.5 3.296875 4.09375 3.296875 
L 4.09375 0 
C 8.40625 0.296875 12.796875 0.296875 15.5 0.296875 
C 18.40625 0.296875 22.59375 0.296875 26.90625 0 
L 26.90625 3.296875 
C 20.5 3.296875 19.296875 3.296875 19.296875 7.796875 
L 19.296875 25.90625 
C 19.296875 36.40625 27.296875 41.296875 33.40625 41.296875 
C 39.5 41.296875 41 37 41 30.703125 
L 41 7.796875 
C 41 3.296875 39.796875 3.296875 33.40625 3.296875 
L 33.40625 0 
C 37.703125 0.296875 42.09375 0.296875 44.796875 0.296875 
C 47.703125 0.296875 51.90625 0.296875 56.203125 0 
z
" id="LMRoman8-Regular-110"/>
      <path d="M 54.203125 0 
L 54.203125 3.296875 
C 50 3.296875 48.203125 3.703125 44.59375 8.40625 
L 30.09375 27.203125 
L 38.59375 34 
C 45.203125 39.203125 49.40625 39.703125 51.90625 39.796875 
L 51.90625 43.09375 
C 49.5 42.796875 48.09375 42.796875 44 42.796875 
C 39.09375 42.796875 37.703125 42.90625 33.296875 43.09375 
L 33.296875 39.796875 
C 35.203125 39.703125 35.59375 38.40625 35.59375 37.796875 
C 35.59375 35.703125 33.59375 34 32.796875 33.40625 
L 18.40625 21.796875 
L 18.40625 69.40625 
L 3.5 68.296875 
L 3.5 65 
C 10.296875 65 11.09375 64.296875 11.09375 59.40625 
L 11.09375 7.796875 
C 11.09375 3.296875 9.90625 3.296875 3.5 3.296875 
L 3.5 0 
C 7.40625 0.296875 12.796875 0.296875 14.5 0.296875 
C 16.5 0.296875 21.703125 0.296875 25.59375 0 
L 25.59375 3.296875 
C 19.203125 3.296875 18 3.296875 18 7.796875 
L 18 17.5 
L 24.796875 22.90625 
C 25.09375 22.90625 27.703125 19.40625 29.296875 17.5 
C 30.796875 15.40625 32.40625 13.40625 34 11.40625 
C 35.40625 9.40625 37.5 6.796875 37.5 5.296875 
C 37.5 3.59375 35.59375 3.296875 34.40625 3.296875 
L 34.40625 0 
C 38.703125 0.296875 43.203125 0.296875 44.90625 0.296875 
C 48.703125 0.296875 50.703125 0.296875 54.203125 0 
z
" id="LMRoman8-Regular-107"/>
     </defs>
     <g transform="translate(181.179844 129.296875)scale(0.1 -0.1)">
      <use xlink:href="#LMRoman8-Regular-82"/>
      <use x="78.199982" xlink:href="#LMRoman8-Regular-97"/>
      <use x="131.299973" xlink:href="#LMRoman8-Regular-110"/>
      <use x="190.299957" xlink:href="#LMRoman8-Regular-107"/>
     </g>
    </g>
   </g>
   <g id="matplotlib.axis_2">
    <g id="ytick_1">
     <g id="line2d_7">
      <defs>
       <path d="M 0 0 
L -3.5 0 
" id="m7e4cfdc9a0" style="stroke:#000000;stroke-width:0.8;"/>
      </defs>
      <g>
       <use style="stroke:#000000;stroke-width:0.8;" x="42.779375" xlink:href="#m7e4cfdc9a0" y="108.0275"/>
      </g>
     </g>
     <g id="text_8">
      <!-- 0.0000 -->
      <defs>
       <path d="M 20.296875 5.5 
C 20.296875 8.90625 17.59375 11.09375 14.796875 11.09375 
C 11.40625 11.09375 9.203125 8.40625 9.203125 5.59375 
C 9.203125 2.203125 11.90625 0 14.703125 0 
C 18.09375 0 20.296875 2.703125 20.296875 5.5 
z
" id="LMRoman8-Regular-46"/>
      </defs>
      <g transform="translate(18.08125 110.109688)scale(0.06 -0.06)">
       <use xlink:href="#LMRoman8-Regular-48"/>
       <use x="53.099991" xlink:href="#LMRoman8-Regular-46"/>
       <use x="82.599976" xlink:href="#LMRoman8-Regular-48"/>
       <use x="135.699966" xlink:href="#LMRoman8-Regular-48"/>
       <use x="188.799957" xlink:href="#LMRoman8-Regular-48"/>
       <use x="241.899948" xlink:href="#LMRoman8-Regular-48"/>
      </g>
     </g>
    </g>
    <g id="ytick_2">
     <g id="line2d_8">
      <g>
       <use style="stroke:#000000;stroke-width:0.8;" x="42.779375" xlink:href="#m7e4cfdc9a0" y="94.532711"/>
      </g>
     </g>
     <g id="text_9">
      <!-- 0.0025 -->
      <defs>
       <path d="M 47.703125 20 
C 47.703125 31.59375 39.296875 41.90625 27.5 41.90625 
C 22.5 41.90625 17.796875 40.296875 14 36.90625 
L 14 56.203125 
C 15.296875 55.796875 19.296875 54.796875 23.5 54.796875 
C 36 54.796875 43.59375 63.59375 43.59375 65.09375 
C 43.59375 66.203125 42.90625 66.5 42.40625 66.5 
C 42.40625 66.5 42 66.5 41.09375 66 
C 37.203125 64.5 32.59375 63.296875 27.203125 63.296875 
C 21.296875 63.296875 16.40625 64.796875 13.296875 66 
C 12.296875 66.5 12 66.5 12 66.5 
C 10.703125 66.5 10.703125 65.40625 10.703125 63.59375 
L 10.703125 34.296875 
C 10.703125 32.5 10.703125 31.296875 12.296875 31.296875 
C 13.09375 31.296875 13.40625 31.703125 13.90625 32.5 
C 15.09375 34 18.90625 39.09375 27.40625 39.09375 
C 33 39.09375 35.703125 34.5 36.59375 32.59375 
C 38.296875 29 38.5 24.40625 38.5 20.5 
C 38.5 16.796875 38.40625 11.40625 35.59375 7 
C 33.703125 4 29.703125 0.90625 24.40625 0.90625 
C 17.90625 0.90625 11.5 5 9.203125 11.5 
C 9.5 11.40625 10.203125 11.40625 10.203125 11.40625 
C 13 11.40625 15.203125 13.203125 15.203125 16.296875 
C 15.203125 20 12.296875 21.296875 10.296875 21.296875 
C 8.5 21.296875 5.296875 20.296875 5.296875 16 
C 5.296875 7 13.09375 -2.09375 24.59375 -2.09375 
C 37.09375 -2.09375 47.703125 7.59375 47.703125 20 
z
" id="LMRoman8-Regular-53"/>
      </defs>
      <g transform="translate(18.08125 96.614899)scale(0.06 -0.06)">
       <use xlink:href="#LMRoman8-Regular-48"/>
       <use x="53.099991" xlink:href="#LMRoman8-Regular-46"/>
       <use x="82.599976" xlink:href="#LMRoman8-Regular-48"/>
       <use x="135.699966" xlink:href="#LMRoman8-Regular-48"/>
       <use x="188.799957" xlink:href="#LMRoman8-Regular-50"/>
       <use x="241.899948" xlink:href="#LMRoman8-Regular-53"/>
      </g>
     </g>
    </g>
    <g id="ytick_3">
     <g id="line2d_9">
      <g>
       <use style="stroke:#000000;stroke-width:0.8;" x="42.779375" xlink:href="#m7e4cfdc9a0" y="81.037923"/>
      </g>
     </g>
     <g id="text_10">
      <!-- 0.0050 -->
      <g transform="translate(18.08125 83.12011)scale(0.06 -0.06)">
       <use xlink:href="#LMRoman8-Regular-48"/>
       <use x="53.099991" xlink:href="#LMRoman8-Regular-46"/>
       <use x="82.599976" xlink:href="#LMRoman8-Regular-48"/>
       <use x="135.699966" xlink:href="#LMRoman8-Regular-48"/>
       <use x="188.799957" xlink:href="#LMRoman8-Regular-53"/>
       <use x="241.899948" xlink:href="#LMRoman8-Regular-48"/>
      </g>
     </g>
    </g>
    <g id="ytick_4">
     <g id="line2d_10">
      <g>
       <use style="stroke:#000000;stroke-width:0.8;" x="42.779375" xlink:href="#m7e4cfdc9a0" y="67.543134"/>
      </g>
     </g>
     <g id="text_11">
      <!-- 0.0075 -->
      <defs>
       <path d="M 51.5 64.40625 
L 26.09375 64.40625 
C 23.59375 64.40625 20.5 64.5 18 64.703125 
C 12.796875 65.09375 12.703125 66 12.40625 67.59375 
L 9.296875 67.59375 
L 5.90625 46.5 
L 9 46.5 
C 9.203125 48 10.296875 54.90625 11.703125 55.703125 
C 12.796875 56.203125 20.296875 56.203125 21.796875 56.203125 
L 43 56.203125 
L 32.703125 42.40625 
C 21.296875 27.203125 18.90625 11.40625 18.90625 3.5 
C 18.90625 2.5 18.90625 -2.09375 23.59375 -2.09375 
C 28.296875 -2.09375 28.296875 2.40625 28.296875 3.59375 
L 28.296875 8.40625 
C 28.296875 22.796875 30.703125 34.59375 35.59375 41.09375 
L 50.59375 60.90625 
C 51.5 62 51.5 62.203125 51.5 64.40625 
z
" id="LMRoman8-Regular-55"/>
      </defs>
      <g transform="translate(18.08125 69.625321)scale(0.06 -0.06)">
       <use xlink:href="#LMRoman8-Regular-48"/>
       <use x="53.099991" xlink:href="#LMRoman8-Regular-46"/>
       <use x="82.599976" xlink:href="#LMRoman8-Regular-48"/>
       <use x="135.699966" xlink:href="#LMRoman8-Regular-48"/>
       <use x="188.799957" xlink:href="#LMRoman8-Regular-55"/>
       <use x="241.899948" xlink:href="#LMRoman8-Regular-53"/>
      </g>
     </g>
    </g>
    <g id="ytick_5">
     <g id="line2d_11">
      <g>
       <use style="stroke:#000000;stroke-width:0.8;" x="42.779375" xlink:href="#m7e4cfdc9a0" y="54.048345"/>
      </g>
     </g>
     <g id="text_12">
      <!-- 0.0100 -->
      <g transform="translate(18.08125 56.130533)scale(0.06 -0.06)">
       <use xlink:href="#LMRoman8-Regular-48"/>
       <use x="53.099991" xlink:href="#LMRoman8-Regular-46"/>
       <use x="82.599976" xlink:href="#LMRoman8-Regular-48"/>
       <use x="135.699966" xlink:href="#LMRoman8-Regular-49"/>
       <use x="188.799957" xlink:href="#LMRoman8-Regular-48"/>
       <use x="241.899948" xlink:href="#LMRoman8-Regular-48"/>
      </g>
     </g>
    </g>
    <g id="ytick_6">
     <g id="line2d_12">
      <g>
       <use style="stroke:#000000;stroke-width:0.8;" x="42.779375" xlink:href="#m7e4cfdc9a0" y="40.553556"/>
      </g>
     </g>
     <g id="text_13">
      <!-- 0.0125 -->
      <g transform="translate(18.08125 42.635744)scale(0.06 -0.06)">
       <use xlink:href="#LMRoman8-Regular-48"/>
       <use x="53.099991" xlink:href="#LMRoman8-Regular-46"/>
       <use x="82.599976" xlink:href="#LMRoman8-Regular-48"/>
       <use x="135.699966" xlink:href="#LMRoman8-Regular-49"/>
       <use x="188.799957" xlink:href="#LMRoman8-Regular-50"/>
       <use x="241.899948" xlink:href="#LMRoman8-Regular-53"/>
      </g>
     </g>
    </g>
    <g id="ytick_7">
     <g id="line2d_13">
      <g>
       <use style="stroke:#000000;stroke-width:0.8;" x="42.779375" xlink:href="#m7e4cfdc9a0" y="27.058768"/>
      </g>
     </g>
     <g id="text_14">
      <!-- 0.0150 -->
      <g transform="translate(18.08125 29.140955)scale(0.06 -0.06)">
       <use xlink:href="#LMRoman8-Regular-48"/>
       <use x="53.099991" xlink:href="#LMRoman8-Regular-46"/>
       <use x="82.599976" xlink:href="#LMRoman8-Regular-48"/>
       <use x="135.699966" xlink:href="#LMRoman8-Regular-49"/>
       <use x="188.799957" xlink:href="#LMRoman8-Regular-53"/>
       <use x="241.899948" xlink:href="#LMRoman8-Regular-48"/>
      </g>
     </g>
    </g>
    <g id="ytick_8">
     <g id="line2d_14">
      <g>
       <use style="stroke:#000000;stroke-width:0.8;" x="42.779375" xlink:href="#m7e4cfdc9a0" y="13.563979"/>
      </g>
     </g>
     <g id="text_15">
      <!-- 0.0175 -->
      <g transform="translate(18.08125 15.646166)scale(0.06 -0.06)">
       <use xlink:href="#LMRoman8-Regular-48"/>
       <use x="53.099991" xlink:href="#LMRoman8-Regular-46"/>
       <use x="82.599976" xlink:href="#LMRoman8-Regular-48"/>
       <use x="135.699966" xlink:href="#LMRoman8-Regular-49"/>
       <use x="188.799957" xlink:href="#LMRoman8-Regular-55"/>
       <use x="241.899948" xlink:href="#LMRoman8-Regular-53"/>
      </g>
     </g>
    </g>
    <g id="text_16">
     <!-- Density -->
     <defs>
      <path d="M 75.09375 33.5 
C 75.09375 52.796875 60.5 68.296875 42.59375 68.296875 
L 4.59375 68.296875 
L 4.59375 65 
L 6.796875 65 
C 14.5 65 14.703125 63.90625 14.703125 60.203125 
L 14.703125 8.09375 
C 14.703125 4.40625 14.5 3.296875 6.796875 3.296875 
L 4.59375 3.296875 
L 4.59375 0 
L 42.59375 0 
C 60.59375 0 75.09375 15 75.09375 33.5 
z
M 65 33.59375 
C 65 28.5 65 18.703125 58.703125 11.296875 
C 55.203125 7.203125 48.796875 3.296875 39.90625 3.296875 
L 28.40625 3.296875 
C 23.796875 3.296875 23.59375 4 23.59375 7.40625 
L 23.59375 60.90625 
C 23.59375 64.296875 23.796875 65 28.40625 65 
L 39.90625 65 
C 47.703125 65 54.203125 61.796875 58.59375 56.796875 
C 65 49.203125 65 38.5 65 33.59375 
z
" id="LMRoman8-Regular-68"/>
      <path d="M 44.09375 12 
C 44.09375 12.40625 43.796875 13.40625 42.5 13.40625 
C 41.40625 13.40625 41.203125 12.703125 41 12.09375 
C 37.40625 2.40625 28.796875 2.09375 27 2.09375 
C 22.5 2.09375 17.90625 4.203125 14.90625 8.796875 
C 11.90625 13.40625 11.90625 19.796875 11.90625 22.796875 
L 41.296875 22.796875 
C 43.5 22.796875 44.09375 22.796875 44.09375 25.09375 
C 44.09375 34 39.203125 44.59375 25.09375 44.59375 
C 12.703125 44.59375 3 34.296875 3 21.90625 
C 3 9 13.796875 -1 26.40625 -1 
C 39.09375 -1 44.09375 9.703125 44.09375 12 
z
M 37.296875 25.40625 
L 12 25.40625 
C 12.90625 39.40625 21.40625 41.796875 25.09375 41.796875 
C 36.796875 41.796875 37.203125 27.703125 37.296875 25.40625 
z
" id="LMRoman8-Regular-101"/>
      <path d="M 38.296875 12.90625 
C 38.296875 17.703125 35.40625 24.703125 23.5 26.90625 
C 22.703125 27.09375 17.09375 28.09375 16.703125 28.09375 
C 13.59375 28.796875 8.90625 30.90625 8.90625 34.90625 
C 8.90625 37.90625 11.09375 42.09375 20.59375 42.09375 
C 31.796875 42.09375 32.296875 33.90625 32.5 31.09375 
C 32.59375 30.296875 33.296875 30 34 30 
C 35.59375 30 35.59375 30.703125 35.59375 32.59375 
L 35.59375 42 
C 35.59375 43.59375 35.59375 44.59375 34.296875 44.59375 
C 33.796875 44.59375 33.5 44.59375 31.90625 43 
C 31.703125 42.90625 30.796875 42 30.5 42 
C 30.5 42 30.203125 42 29.59375 42.40625 
C 28 43.5 25.09375 44.59375 20.59375 44.59375 
C 6.59375 44.59375 3.5 37 3.5 32.203125 
C 3.5 27.203125 7.203125 24.296875 7.5 24 
C 11.5 21 13.796875 20.59375 20.5 19.40625 
C 25.203125 18.5 32.90625 17.09375 32.90625 10.296875 
C 32.90625 6.40625 30.296875 1.796875 21.09375 1.796875 
C 11 1.796875 8.09375 9.59375 6.796875 14.90625 
C 6.40625 16.203125 6.296875 16.703125 5.09375 16.703125 
C 3.5 16.703125 3.5 15.90625 3.5 14 
L 3.5 1.59375 
C 3.5 0 3.5 -1 4.796875 -1 
C 5.40625 -1 5.5 -0.90625 7.296875 1 
C 7.796875 1.5 8.90625 2.796875 9.40625 3.296875 
C 13.90625 -0.796875 18.59375 -1 21.203125 -1 
C 33.90625 -1 38.296875 6.296875 38.296875 12.90625 
z
" id="LMRoman8-Regular-115"/>
      <path d="M 26 0 
L 26 3.296875 
C 19.5 3.296875 19.09375 3.796875 19.09375 7.703125 
L 19.09375 44.09375 
L 4.5 43 
L 4.5 39.703125 
C 10.90625 39.703125 11.796875 39.09375 11.796875 34.203125 
L 11.796875 7.796875 
C 11.796875 3.296875 10.59375 3.296875 4.203125 3.296875 
L 4.203125 0 
C 8.09375 0.296875 13.703125 0.296875 15.203125 0.296875 
C 16.5 0.296875 22.5 0.296875 26 0 
z
M 20.296875 60.203125 
C 20.296875 63.5 17.703125 65.796875 14.796875 65.796875 
C 11.90625 65.796875 9.296875 63.5 9.296875 60.203125 
C 9.296875 57.296875 11.59375 54.703125 14.796875 54.703125 
C 17.90625 54.703125 20.296875 57.296875 20.296875 60.203125 
z
" id="LMRoman8-Regular-105"/>
      <path d="M 35.296875 12.5 
L 35.296875 18.09375 
L 32.203125 18.09375 
L 32.203125 12.703125 
C 32.203125 5.796875 29.09375 2.09375 25.296875 2.09375 
C 18.59375 2.09375 18.59375 10.703125 18.59375 12.296875 
L 18.59375 39.796875 
L 33.5 39.796875 
L 33.5 43.09375 
L 18.59375 43.09375 
L 18.59375 61.5 
L 15.5 61.5 
C 15.40625 52.40625 11.296875 42.90625 2 42.59375 
L 2 39.796875 
L 11 39.796875 
L 11 12.5 
C 11 0.796875 20 -1 24.59375 -1 
C 31.296875 -1 35.296875 5 35.296875 12.5 
z
" id="LMRoman8-Regular-116"/>
      <path d="M 53.796875 39.796875 
L 53.796875 43.09375 
C 50.296875 42.796875 50.09375 42.796875 45.90625 42.796875 
C 45.5 42.796875 40.203125 42.796875 37.296875 43.09375 
L 37.296875 39.796875 
C 40.203125 39.59375 41.59375 38 41.59375 35.703125 
C 41.59375 35.09375 41.5 34.40625 41 33.203125 
L 30.296875 9 
L 18.703125 35.203125 
C 18 36.703125 18 36.90625 18 37.296875 
C 18 39.703125 21.09375 39.796875 23.296875 39.796875 
L 23.296875 43.09375 
C 18.796875 42.796875 14.5 42.796875 12.296875 42.796875 
C 10.203125 42.796875 5.40625 42.796875 2.203125 43.09375 
L 2.203125 39.796875 
C 7.40625 39.796875 8.796875 39.59375 10.5 35.796875 
L 26.296875 0 
C 21.796875 -10.59375 18.796875 -17.59375 11.796875 -17.59375 
C 9.296875 -17.59375 7.703125 -16.40625 7.703125 -16.40625 
C 8.40625 -16.203125 10.703125 -15.09375 10.703125 -12.203125 
C 10.703125 -9.40625 8.59375 -7.90625 6.40625 -7.90625 
C 4.40625 -7.90625 2.09375 -9.203125 2.09375 -12.296875 
C 2.09375 -16.703125 6.40625 -20.40625 11.796875 -20.40625 
C 20.703125 -20.40625 25.5 -9.703125 25.90625 -8.703125 
L 44.296875 33 
C 46.796875 38.703125 50.5 39.703125 53.796875 39.796875 
z
" id="LMRoman8-Regular-121"/>
     </defs>
     <g transform="translate(14.040625 77.168437)rotate(-90)scale(0.1 -0.1)">
      <use xlink:href="#LMRoman8-Regular-68"/>
      <use x="81.099991" xlink:href="#LMRoman8-Regular-101"/>
      <use x="128.299988" xlink:href="#LMRoman8-Regular-110"/>
      <use x="187.299973" xlink:href="#LMRoman8-Regular-115"/>
      <use x="229.199966" xlink:href="#LMRoman8-Regular-105"/>
      <use x="258.699951" xlink:href="#LMRoman8-Regular-116"/>
      <use x="299.999939" xlink:href="#LMRoman8-Regular-121"/>
     </g>
    </g>
   </g>
   <g id="line2d_15">
    <path clip-path="url(#p22f662f3e3)" d="M 204.46083 54.582792 
L 56.481193 54.582792 
L 330.517557 54.582792 
L 256.527739 54.582792 
" style="fill:none;stroke:#000000;stroke-dasharray:0.5,0.825;stroke-dashoffset:0;stroke-width:0.5;"/>
   </g>
   <g id="patch_104">
    <path d="M 42.779375 108.0275 
L 42.779375 10.7 
" style="fill:none;stroke:#000000;stroke-linecap:square;stroke-linejoin:miter;stroke-width:0.5;"/>
   </g>
   <g id="patch_105">
    <path d="M 344.219375 108.0275 
L 344.219375 10.7 
" style="fill:none;stroke:#000000;stroke-linecap:square;stroke-linejoin:miter;stroke-width:0.5;"/>
   </g>
   <g id="patch_106">
    <path d="M 42.779375 108.0275 
L 344.219375 108.0275 
" style="fill:none;stroke:#000000;stroke-linecap:square;stroke-linejoin:miter;stroke-width:0.5;"/>
   </g>
   <g id="patch_107">
    <path d="M 42.779375 10.7 
L 344.219375 10.7 
" style="fill:none;stroke:#000000;stroke-linecap:square;stroke-linejoin:miter;stroke-width:0.5;"/>
   </g>
  </g>
 </g>
 <defs>
  <clipPath id="p22f662f3e3">
   <rect height="97.3275" width="301.44" x="42.779375" y="10.7"/>
  </clipPath>
 </defs>
</svg>
