<?xml version="1.0" encoding="utf-8" standalone="no"?>
<!DOCTYPE svg PUBLIC "-//W3C//DTD SVG 1.1//EN"
  "http://www.w3.org/Graphics/SVG/1.1/DTD/svg11.dtd">
<!-- Created with matplotlib (https://matplotlib.org/) -->
<svg height="128.20195pt" version="1.1" viewBox="0 0 354.60125 128.20195" width="354.60125pt" xmlns="http://www.w3.org/2000/svg" xmlns:xlink="http://www.w3.org/1999/xlink">
 <defs>
  <style type="text/css">
*{stroke-linecap:butt;stroke-linejoin:round;}
  </style>
 </defs>
 <g id="figure_1">
  <g id="patch_1">
   <path d="M -0 128.20195 
L 354.60125 128.20195 
L 354.60125 0 
L -0 0 
z
" style="fill:#ffffff;"/>
  </g>
  <g id="axes_1">
   <g id="patch_2">
    <path d="M 22.34125 97.5732 
L 343.90125 97.5732 
L 343.90125 19.7622 
L 22.34125 19.7622 
z
" style="fill:#ffffff;"/>
   </g>
   <g id="matplotlib.axis_1">
    <g id="xtick_1">
     <g id="line2d_1">
      <defs>
       <path d="M 0 0 
L 0 3.5 
" id="m6da101b5ad" style="stroke:#000000;stroke-width:0.8;"/>
      </defs>
      <g>
       <use style="stroke:#000000;stroke-width:0.8;" x="36.671579" xlink:href="#m6da101b5ad" y="97.5732"/>
      </g>
     </g>
     <g id="text_1">
      <!-- 0.0 -->
      <defs>
       <path d="M 48.90625 31.90625 
C 48.90625 42.59375 47.796875 49.09375 44.5 55.5 
C 40.09375 64.296875 32 66.5 26.5 66.5 
C 13.90625 66.5 9.296875 57.09375 7.90625 54.296875 
C 4.296875 47 4.09375 37.09375 4.09375 31.90625 
C 4.09375 25.296875 4.40625 15.203125 9.203125 7.203125 
C 13.796875 -0.203125 21.203125 -2.09375 26.5 -2.09375 
C 31.296875 -2.09375 39.90625 -0.59375 44.90625 9.296875 
C 48.59375 16.5 48.90625 25.40625 48.90625 31.90625 
z
M 40 33.09375 
C 40 27.203125 40 18.203125 38.796875 12.59375 
C 36.703125 2.09375 29.796875 0.703125 26.5 0.703125 
C 23.09375 0.703125 16.203125 2.296875 14.09375 12.796875 
C 13 18.5 13 27.90625 13 33.09375 
C 13 40 13 47 14.09375 52.5 
C 16.203125 62.703125 24 63.703125 26.5 63.703125 
C 29.90625 63.703125 36.796875 62 38.796875 52.90625 
C 40 47.40625 40 39.90625 40 33.09375 
z
" id="LMRoman8-Regular-48"/>
       <path d="M 20.296875 5.5 
C 20.296875 8.90625 17.59375 11.09375 14.796875 11.09375 
C 11.40625 11.09375 9.203125 8.40625 9.203125 5.59375 
C 9.203125 2.203125 11.90625 0 14.703125 0 
C 18.09375 0 20.296875 2.703125 20.296875 5.5 
z
" id="LMRoman8-Regular-46"/>
      </defs>
      <g transform="translate(32.600954 108.737575)scale(0.06 -0.06)">
       <use xlink:href="#LMRoman8-Regular-48"/>
       <use x="53.099991" xlink:href="#LMRoman8-Regular-46"/>
       <use x="82.599976" xlink:href="#LMRoman8-Regular-48"/>
      </g>
     </g>
    </g>
    <g id="xtick_2">
     <g id="line2d_2">
      <g>
       <use style="stroke:#000000;stroke-width:0.8;" x="95.251447" xlink:href="#m6da101b5ad" y="97.5732"/>
      </g>
     </g>
     <g id="text_2">
      <!-- 0.2 -->
      <defs>
       <path d="M 47.703125 17.90625 
L 44.59375 17.90625 
C 44.296875 15.90625 43.5 10.90625 42.296875 9 
C 41.703125 8.203125 34.09375 8.203125 32.5 8.203125 
L 14.703125 8.203125 
L 28.203125 20.40625 
C 29.796875 21.90625 34 25.203125 35.59375 26.59375 
C 41.796875 32.296875 47.703125 37.796875 47.703125 46.90625 
C 47.703125 58.796875 37.703125 66.5 25.203125 66.5 
C 13.203125 66.5 5.296875 57.40625 5.296875 48.5 
C 5.296875 43.59375 9.203125 42.90625 10.59375 42.90625 
C 12.703125 42.90625 15.796875 44.40625 15.796875 48.203125 
C 15.796875 53.40625 10.796875 53.40625 9.59375 53.40625 
C 12.5 60.703125 19.203125 63.203125 24.09375 63.203125 
C 33.40625 63.203125 38.203125 55.296875 38.203125 46.90625 
C 38.203125 36.5 30.90625 28.90625 19.09375 16.796875 
L 6.5 3.796875 
C 5.296875 2.703125 5.296875 2.5 5.296875 0 
L 44.796875 0 
z
" id="LMRoman8-Regular-50"/>
      </defs>
      <g transform="translate(91.180822 108.737575)scale(0.06 -0.06)">
       <use xlink:href="#LMRoman8-Regular-48"/>
       <use x="53.099991" xlink:href="#LMRoman8-Regular-46"/>
       <use x="82.599976" xlink:href="#LMRoman8-Regular-50"/>
      </g>
     </g>
    </g>
    <g id="xtick_3">
     <g id="line2d_3">
      <g>
       <use style="stroke:#000000;stroke-width:0.8;" x="153.831316" xlink:href="#m6da101b5ad" y="97.5732"/>
      </g>
     </g>
     <g id="text_3">
      <!-- 0.4 -->
      <defs>
       <path d="M 50 16.40625 
L 50 19.703125 
L 39.40625 19.703125 
L 39.40625 64.703125 
C 39.40625 66.703125 39.40625 67.5 37.296875 67.5 
C 36 67.5 35.90625 67.40625 34.90625 66 
L 3 19.703125 
L 3 16.40625 
L 31.203125 16.40625 
L 31.203125 8.09375 
C 31.203125 4.40625 30.90625 3.296875 23.203125 3.296875 
L 20.90625 3.296875 
L 20.90625 0 
L 35.296875 0.296875 
L 49.703125 0 
L 49.703125 3.296875 
L 47.40625 3.296875 
C 39.703125 3.296875 39.40625 4.40625 39.40625 8.09375 
L 39.40625 16.40625 
z
M 31.90625 19.703125 
L 6.5 19.703125 
L 31.90625 56.59375 
z
" id="LMRoman8-Regular-52"/>
      </defs>
      <g transform="translate(149.760691 108.737575)scale(0.06 -0.06)">
       <use xlink:href="#LMRoman8-Regular-48"/>
       <use x="53.099991" xlink:href="#LMRoman8-Regular-46"/>
       <use x="82.599976" xlink:href="#LMRoman8-Regular-52"/>
      </g>
     </g>
    </g>
    <g id="xtick_4">
     <g id="line2d_4">
      <g>
       <use style="stroke:#000000;stroke-width:0.8;" x="212.411184" xlink:href="#m6da101b5ad" y="97.5732"/>
      </g>
     </g>
     <g id="text_4">
      <!-- 0.6 -->
      <defs>
       <path d="M 48.59375 20.296875 
C 48.59375 33.40625 38.703125 42.59375 27.59375 42.59375 
C 20.40625 42.59375 16.09375 38 13.796875 33.09375 
C 13.796875 41.40625 14.5 48.703125 18.09375 54.796875 
C 21.09375 59.796875 26.203125 63.90625 32.5 63.90625 
C 34.5 63.90625 39.09375 63.59375 41.40625 60.09375 
C 36.90625 59.90625 36.5 56.5 36.5 55.40625 
C 36.5 52.40625 38.796875 50.703125 41.203125 50.703125 
C 43 50.703125 45.90625 51.796875 45.90625 55.59375 
C 45.90625 61.59375 41.40625 66.5 32.40625 66.5 
C 18.5 66.5 4.40625 53.296875 4.40625 31.703125 
C 4.40625 4.59375 17 -2.09375 26.703125 -2.09375 
C 31.5 -2.09375 36.703125 -0.796875 41.203125 3.5 
C 45.203125 7.40625 48.59375 11.59375 48.59375 20.296875 
z
M 39.203125 20.40625 
C 39.203125 15.296875 39.203125 10.90625 37.203125 7.296875 
C 34.59375 2.703125 31.09375 0.90625 26.703125 0.90625 
C 21.40625 0.90625 18.09375 4.59375 16.59375 7.40625 
C 14.296875 11.90625 14.09375 18.703125 14.09375 22.5 
C 14.09375 32.40625 19.5 39.796875 27.203125 39.796875 
C 32.203125 39.796875 35.203125 37.203125 37.09375 33.703125 
C 39.203125 30 39.203125 25.5 39.203125 20.40625 
z
" id="LMRoman8-Regular-54"/>
      </defs>
      <g transform="translate(208.340559 108.737575)scale(0.06 -0.06)">
       <use xlink:href="#LMRoman8-Regular-48"/>
       <use x="53.099991" xlink:href="#LMRoman8-Regular-46"/>
       <use x="82.599976" xlink:href="#LMRoman8-Regular-54"/>
      </g>
     </g>
    </g>
    <g id="xtick_5">
     <g id="line2d_5">
      <g>
       <use style="stroke:#000000;stroke-width:0.8;" x="270.991053" xlink:href="#m6da101b5ad" y="97.5732"/>
      </g>
     </g>
     <g id="text_5">
      <!-- 0.8 -->
      <defs>
       <path d="M 48.59375 16.796875 
C 48.59375 23.09375 45.203125 27.296875 43.59375 29 
C 41.90625 30.59375 41.796875 30.703125 33.203125 36.09375 
C 38.796875 38.796875 45.59375 43.796875 45.59375 51.59375 
C 45.59375 61.09375 35.90625 66.5 26.59375 66.5 
C 16 66.5 7.40625 59.203125 7.40625 49.796875 
C 7.40625 46.09375 8.703125 42.703125 11.203125 39.796875 
C 12.90625 37.703125 13.296875 37.5 19.5 33.59375 
C 7.09375 28.09375 4.40625 20.796875 4.40625 15.203125 
C 4.40625 4.203125 15.5 -2.09375 26.40625 -2.09375 
C 38.703125 -2.09375 48.59375 6.203125 48.59375 16.796875 
z
M 40.59375 51.59375 
C 40.59375 45.796875 36.09375 40.90625 30.203125 38 
L 17.703125 45.5 
C 14.796875 47.203125 12.40625 50.09375 12.40625 53.59375 
C 12.40625 59.90625 19.296875 63.90625 26.40625 63.90625 
C 34.203125 63.90625 40.59375 58.59375 40.59375 51.59375 
z
M 42.90625 13.40625 
C 42.90625 5.703125 34.796875 0.90625 26.59375 0.90625 
C 17.703125 0.90625 10.09375 7 10.09375 15.203125 
C 10.09375 22.703125 15.703125 28.59375 22.59375 31.796875 
L 36.09375 23.5 
C 37.703125 22.59375 42.90625 19.40625 42.90625 13.40625 
z
" id="LMRoman8-Regular-56"/>
      </defs>
      <g transform="translate(266.920428 108.737575)scale(0.06 -0.06)">
       <use xlink:href="#LMRoman8-Regular-48"/>
       <use x="53.099991" xlink:href="#LMRoman8-Regular-46"/>
       <use x="82.599976" xlink:href="#LMRoman8-Regular-56"/>
      </g>
     </g>
    </g>
    <g id="xtick_6">
     <g id="line2d_6">
      <g>
       <use style="stroke:#000000;stroke-width:0.8;" x="329.570921" xlink:href="#m6da101b5ad" y="97.5732"/>
      </g>
     </g>
     <g id="text_6">
      <!-- 1.0 -->
      <defs>
       <path d="M 44.703125 0 
L 44.703125 3.296875 
L 41.203125 3.296875 
C 31.703125 3.296875 31.40625 4.5 31.40625 8.203125 
L 31.40625 63.703125 
C 31.40625 66.40625 31.203125 66.5 28.5 66.5 
C 24.40625 62.5 19.09375 60.09375 9.59375 60.09375 
L 9.59375 56.796875 
C 12.296875 56.796875 17.703125 56.796875 23.5 59.5 
L 23.5 8.203125 
C 23.5 4.5 23.203125 3.296875 13.703125 3.296875 
L 10.203125 3.296875 
L 10.203125 0 
C 14.296875 0.296875 22.90625 0.296875 27.40625 0.296875 
C 31.90625 0.296875 40.59375 0.296875 44.703125 0 
z
" id="LMRoman8-Regular-49"/>
      </defs>
      <g transform="translate(325.500296 108.737575)scale(0.06 -0.06)">
       <use xlink:href="#LMRoman8-Regular-49"/>
       <use x="53.099991" xlink:href="#LMRoman8-Regular-46"/>
       <use x="82.599976" xlink:href="#LMRoman8-Regular-48"/>
      </g>
     </g>
    </g>
    <g id="text_7">
     <!-- Spatial coordinate $s$ -->
     <defs>
      <path d="M 53 18.5 
C 53 27.203125 47.296875 36.09375 37.09375 38.5 
L 23.296875 41.703125 
C 16.90625 43.203125 12.203125 48.296875 12.203125 54.40625 
C 12.203125 61.09375 18 67.40625 26.703125 67.40625 
C 44 67.40625 46.296875 51.203125 46.796875 47.40625 
C 47 46.296875 47.09375 45.59375 48.40625 45.59375 
C 50 45.59375 50 46.296875 50 48.203125 
L 50 67.796875 
C 50 69.40625 50 70.40625 48.703125 70.40625 
C 47.90625 70.40625 47.703125 70.09375 47 69 
L 43.5 63.40625 
C 38.5 68.90625 32.09375 70.40625 26.59375 70.40625 
C 14.703125 70.40625 5.90625 61.40625 5.90625 51.203125 
C 5.90625 43.59375 10.203125 39.40625 12.09375 37.5 
C 15.703125 33.90625 19 33.09375 29.796875 30.59375 
C 38.40625 28.59375 39.90625 28.296875 43.203125 24.796875 
C 44.203125 23.703125 46.703125 20.296875 46.703125 15.40625 
C 46.703125 8.5 41.40625 1.203125 32 1.203125 
C 21 1.203125 9.59375 6.5 9 20.40625 
C 8.90625 22 8.90625 22.703125 7.5 22.703125 
C 5.90625 22.703125 5.90625 21.90625 5.90625 20 
L 5.90625 0.5 
C 5.90625 -1.09375 5.90625 -2.09375 7.203125 -2.09375 
C 8 -2.09375 8.09375 -1.90625 8.796875 -0.90625 
C 9.203125 -0.296875 9.59375 0.59375 12.40625 4.796875 
C 18.703125 -0.796875 26.09375 -2.09375 32.09375 -2.09375 
C 44.59375 -2.09375 53 7.796875 53 18.5 
z
" id="LMRoman8-Regular-83"/>
      <path d="M 55.40625 21.59375 
C 55.40625 34.09375 45.296875 44.09375 33.203125 44.09375 
C 29.296875 44.09375 23.5 43.09375 18.40625 37.90625 
L 18.40625 44.09375 
L 3.5 43 
L 3.5 39.703125 
C 10.59375 39.703125 11.09375 39.09375 11.09375 34.90625 
L 11.09375 -11.59375 
C 11.09375 -16.09375 9.90625 -16.09375 3.5 -16.09375 
L 3.5 -19.40625 
C 7.796875 -19.09375 12.203125 -19.09375 14.90625 -19.09375 
C 17.796875 -19.09375 22 -19.09375 26.296875 -19.40625 
L 26.296875 -16.09375 
C 19.90625 -16.09375 18.703125 -16.09375 18.703125 -11.59375 
L 18.703125 4.90625 
C 23.40625 -0.203125 28.5 -1 31.703125 -1 
C 44.40625 -1 55.40625 8.796875 55.40625 21.59375 
z
M 46.5 21.59375 
C 46.5 10.09375 39.296875 1.796875 31.203125 1.796875 
C 27.703125 1.796875 23.09375 3.296875 19.90625 8.296875 
C 18.703125 10 18.703125 10.09375 18.703125 12 
L 18.703125 33.296875 
C 21 37.296875 26 41 32.296875 41 
C 40 41 46.5 32.5 46.5 21.59375 
z
" id="LMRoman8-Regular-112"/>
      <path d="M 51.40625 9 
L 51.40625 14.5 
L 48.296875 14.5 
L 48.296875 9 
C 48.296875 4.90625 46.796875 3.296875 44.703125 3.296875 
C 41 3.296875 41 7.90625 41 9 
L 41 29.796875 
C 41 39.59375 31.5 44.59375 22.40625 44.59375 
C 14.09375 44.59375 6.703125 41.40625 6.703125 34.796875 
C 6.703125 31.796875 8.796875 30 11.40625 30 
C 14.203125 30 16.09375 32 16.09375 34.703125 
C 16.09375 37.09375 14.59375 38.796875 12.40625 39.296875 
C 16.09375 41.796875 21.5 41.796875 22.203125 41.796875 
C 27.796875 41.796875 33.40625 37.90625 33.40625 29.703125 
L 33.40625 26.59375 
C 27.59375 26.296875 20.90625 26 13.90625 23.09375 
C 5.09375 19.296875 3.40625 13.5 3.40625 10.203125 
C 3.40625 1.59375 13.5 -1 20.40625 -1 
C 27.703125 -1 32.203125 3.09375 34.40625 7.09375 
C 34.90625 3.296875 37.5 -0.5 41.90625 -0.5 
C 42.90625 -0.5 51.40625 -0.09375 51.40625 9 
z
M 33.40625 14.09375 
C 33.40625 4.40625 25.203125 1.796875 21.203125 1.796875 
C 16 1.796875 11.59375 5.296875 11.59375 10.09375 
C 11.59375 16.703125 17.796875 23.5 33.40625 24 
z
" id="LMRoman8-Regular-97"/>
      <path d="M 35.296875 12.5 
L 35.296875 18.09375 
L 32.203125 18.09375 
L 32.203125 12.703125 
C 32.203125 5.796875 29.09375 2.09375 25.296875 2.09375 
C 18.59375 2.09375 18.59375 10.703125 18.59375 12.296875 
L 18.59375 39.796875 
L 33.5 39.796875 
L 33.5 43.09375 
L 18.59375 43.09375 
L 18.59375 61.5 
L 15.5 61.5 
C 15.40625 52.40625 11.296875 42.90625 2 42.59375 
L 2 39.796875 
L 11 39.796875 
L 11 12.5 
C 11 0.796875 20 -1 24.59375 -1 
C 31.296875 -1 35.296875 5 35.296875 12.5 
z
" id="LMRoman8-Regular-116"/>
      <path d="M 26 0 
L 26 3.296875 
C 19.5 3.296875 19.09375 3.796875 19.09375 7.703125 
L 19.09375 44.09375 
L 4.5 43 
L 4.5 39.703125 
C 10.90625 39.703125 11.796875 39.09375 11.796875 34.203125 
L 11.796875 7.796875 
C 11.796875 3.296875 10.59375 3.296875 4.203125 3.296875 
L 4.203125 0 
C 8.09375 0.296875 13.703125 0.296875 15.203125 0.296875 
C 16.5 0.296875 22.5 0.296875 26 0 
z
M 20.296875 60.203125 
C 20.296875 63.5 17.703125 65.796875 14.796875 65.796875 
C 11.90625 65.796875 9.296875 63.5 9.296875 60.203125 
C 9.296875 57.296875 11.59375 54.703125 14.796875 54.703125 
C 17.90625 54.703125 20.296875 57.296875 20.296875 60.203125 
z
" id="LMRoman8-Regular-105"/>
      <path d="M 26.703125 0 
L 26.703125 3.296875 
C 20.296875 3.296875 19.09375 3.296875 19.09375 7.796875 
L 19.09375 69.40625 
L 4.203125 68.296875 
L 4.203125 65 
C 11 65 11.796875 64.296875 11.796875 59.40625 
L 11.796875 7.796875 
C 11.796875 3.296875 10.59375 3.296875 4.203125 3.296875 
L 4.203125 0 
C 8.09375 0.296875 13.703125 0.296875 15.40625 0.296875 
C 17.40625 0.296875 22.796875 0.296875 26.703125 0 
z
" id="LMRoman8-Regular-108"/>
      <path id="LMRoman8-Regular-32"/>
      <path d="M 44.09375 12 
C 44.09375 13.203125 42.796875 13.203125 42.5 13.203125 
C 41.796875 13.203125 41.296875 13.09375 41 12.09375 
C 40.296875 10 37.5 2.09375 27.5 2.09375 
C 21.296875 2.09375 12.40625 6.90625 12.40625 21.703125 
C 12.40625 36.09375 19.796875 41.5 27.09375 41.5 
C 28 41.5 33.296875 41.5 36.796875 39.703125 
C 34 38.796875 33.59375 36.5 33.59375 35.296875 
C 33.59375 32.59375 35.5 30.59375 38.296875 30.59375 
C 40.90625 30.59375 43 32.40625 43 35.40625 
C 43 41.59375 36.203125 44.59375 26.796875 44.59375 
C 12.90625 44.59375 3.5 33.5 3.5 21.59375 
C 3.5 8.90625 13.90625 -1 26.5 -1 
C 40.59375 -1 44.09375 10.796875 44.09375 12 
z
" id="LMRoman8-Regular-99"/>
      <path d="M 50 21.296875 
C 50 33.796875 39.703125 44.59375 26.5 44.59375 
C 13.296875 44.59375 3 33.796875 3 21.296875 
C 3 8.796875 13.703125 -1 26.5 -1 
C 39.40625 -1 50 8.796875 50 21.296875 
z
M 41.09375 22.203125 
C 41.09375 17.59375 40.90625 12.09375 38.09375 7.90625 
C 35.40625 3.90625 30.90625 2.09375 26.5 2.09375 
C 21.09375 2.09375 16.90625 4.703125 14.703125 8.203125 
C 12.203125 12.296875 11.90625 17.203125 11.90625 22.203125 
C 11.90625 26 11.90625 32 15 36.296875 
C 17.59375 39.796875 21.796875 41.796875 26.5 41.796875 
C 31.703125 41.796875 36 39.296875 38.296875 35.796875 
C 41 31.59375 41.09375 26.203125 41.09375 22.203125 
z
" id="LMRoman8-Regular-111"/>
      <path d="M 38.40625 37.796875 
C 38.40625 41.296875 35.203125 44.09375 30.796875 44.09375 
C 24.296875 44.09375 19.90625 39.203125 17.796875 33.59375 
L 17.703125 33.59375 
L 17.703125 44.09375 
L 3.5 43 
L 3.5 39.703125 
C 10.296875 39.703125 11.09375 39 11.09375 34.09375 
L 11.09375 7.796875 
C 11.09375 3.296875 9.90625 3.296875 3.5 3.296875 
L 3.5 0 
C 7.40625 0.296875 12.90625 0.296875 15.296875 0.296875 
C 21.203125 0.296875 21.40625 0.296875 27.90625 0 
L 27.90625 3.296875 
L 25.90625 3.296875 
C 18.59375 3.296875 18.40625 4.40625 18.40625 8 
L 18.40625 22.796875 
C 18.40625 30.296875 21.5 41.09375 31.09375 41.296875 
C 30.5 40.90625 29.5 40.09375 29.5 37.796875 
C 29.5 34.703125 31.90625 33.296875 33.90625 33.296875 
C 36.296875 33.296875 38.40625 34.90625 38.40625 37.796875 
z
" id="LMRoman8-Regular-114"/>
      <path d="M 55.40625 0 
L 55.40625 3.296875 
C 48.59375 3.296875 47.796875 4 47.796875 8.90625 
L 47.796875 69.40625 
L 32.90625 68.296875 
L 32.90625 65 
C 39.703125 65 40.5 64.296875 40.5 59.40625 
L 40.5 38.296875 
C 37 42.09375 32.296875 44.09375 27.09375 44.09375 
C 14.59375 44.09375 3.5 34.40625 3.5 21.5 
C 3.5 9.203125 13.5 -1 26.09375 -1 
C 32 -1 36.90625 1.796875 40.203125 5.296875 
L 40.203125 -1 
z
M 40.203125 12.40625 
C 40.203125 10.59375 40.203125 10.203125 38.703125 8.203125 
C 35.90625 4.203125 31.296875 1.796875 26.59375 1.796875 
C 22 1.796875 18 4.203125 15.59375 7.90625 
C 12.90625 11.796875 12.40625 16.703125 12.40625 21.40625 
C 12.40625 27.203125 13.296875 31.296875 15.59375 34.796875 
C 18 38.5 22.5 41.296875 27.59375 41.296875 
C 32.40625 41.296875 37.203125 38.90625 40.203125 33.703125 
z
" id="LMRoman8-Regular-100"/>
      <path d="M 56.203125 0 
L 56.203125 3.296875 
C 49.796875 3.296875 48.59375 3.296875 48.59375 7.796875 
L 48.59375 30.296875 
C 48.59375 38.703125 44.796875 44.09375 34.296875 44.09375 
C 24.40625 44.09375 19.90625 36.90625 18.703125 34.5 
L 18.59375 34.5 
L 18.59375 44.09375 
L 4.09375 43 
L 4.09375 39.703125 
C 10.90625 39.703125 11.703125 39 11.703125 34.09375 
L 11.703125 7.796875 
C 11.703125 3.296875 10.5 3.296875 4.09375 3.296875 
L 4.09375 0 
C 8.40625 0.296875 12.796875 0.296875 15.5 0.296875 
C 18.40625 0.296875 22.59375 0.296875 26.90625 0 
L 26.90625 3.296875 
C 20.5 3.296875 19.296875 3.296875 19.296875 7.796875 
L 19.296875 25.90625 
C 19.296875 36.40625 27.296875 41.296875 33.40625 41.296875 
C 39.5 41.296875 41 37 41 30.703125 
L 41 7.796875 
C 41 3.296875 39.796875 3.296875 33.40625 3.296875 
L 33.40625 0 
C 37.703125 0.296875 42.09375 0.296875 44.796875 0.296875 
C 47.703125 0.296875 51.90625 0.296875 56.203125 0 
z
" id="LMRoman8-Regular-110"/>
      <path d="M 44.09375 12 
C 44.09375 12.40625 43.796875 13.40625 42.5 13.40625 
C 41.40625 13.40625 41.203125 12.703125 41 12.09375 
C 37.40625 2.40625 28.796875 2.09375 27 2.09375 
C 22.5 2.09375 17.90625 4.203125 14.90625 8.796875 
C 11.90625 13.40625 11.90625 19.796875 11.90625 22.796875 
L 41.296875 22.796875 
C 43.5 22.796875 44.09375 22.796875 44.09375 25.09375 
C 44.09375 34 39.203125 44.59375 25.09375 44.59375 
C 12.703125 44.59375 3 34.296875 3 21.90625 
C 3 9 13.796875 -1 26.40625 -1 
C 39.09375 -1 44.09375 9.703125 44.09375 12 
z
M 37.296875 25.40625 
L 12 25.40625 
C 12.90625 39.40625 21.40625 41.796875 25.09375 41.796875 
C 36.796875 41.796875 37.203125 27.703125 37.296875 25.40625 
z
" id="LMRoman8-Regular-101"/>
      <path d="M 8.6875 6.109375 
Q 11.375 1.515625 19.484375 1.515625 
Q 23 1.515625 26.171875 2.703125 
Q 29.34375 3.90625 31.421875 6.296875 
Q 33.5 8.6875 33.5 12.109375 
Q 33.5 14.703125 31.640625 16.359375 
Q 29.78125 18.015625 27.09375 18.609375 
L 21.6875 19.671875 
Q 17.96875 20.609375 15.578125 23.140625 
Q 13.1875 25.6875 13.1875 29.296875 
Q 13.1875 33.734375 15.59375 37.15625 
Q 18.015625 40.578125 21.96875 42.375 
Q 25.921875 44.1875 30.171875 44.1875 
Q 34.71875 44.1875 38.296875 42.015625 
Q 41.890625 39.84375 41.890625 35.59375 
Q 41.890625 33.296875 40.59375 31.53125 
Q 39.3125 29.78125 37.015625 29.78125 
Q 35.6875 29.78125 34.734375 30.640625 
Q 33.796875 31.5 33.796875 32.8125 
Q 33.796875 33.984375 34.453125 35.078125 
Q 35.109375 36.1875 36.203125 36.84375 
Q 37.3125 37.5 38.484375 37.5 
Q 37.59375 39.65625 35.171875 40.625 
Q 32.765625 41.609375 29.984375 41.609375 
Q 27.4375 41.609375 24.890625 40.578125 
Q 22.359375 39.546875 20.8125 37.5625 
Q 19.28125 35.59375 19.28125 32.90625 
Q 19.28125 31.109375 20.546875 29.734375 
Q 21.828125 28.375 23.6875 27.78125 
L 29.5 26.609375 
Q 32.28125 26.03125 34.59375 24.53125 
Q 36.921875 23.046875 38.25 20.765625 
Q 39.59375 18.5 39.59375 15.578125 
Q 39.59375 11.859375 37.515625 8.25 
Q 35.453125 4.640625 32.421875 2.484375 
Q 27.09375 -1.125 19.390625 -1.125 
Q 14.0625 -1.125 9.609375 1.3125 
Q 5.171875 3.765625 5.171875 8.59375 
Q 5.171875 11.328125 6.75 13.34375 
Q 8.34375 15.375 11.078125 15.375 
Q 12.703125 15.375 13.796875 14.390625 
Q 14.890625 13.421875 14.890625 11.8125 
Q 14.890625 9.515625 13.171875 7.8125 
Q 11.46875 6.109375 9.1875 6.109375 
z
" id="Cmmi10-115"/>
     </defs>
     <g transform="translate(136.82125 119.00195)scale(0.1 -0.1)">
      <use transform="translate(0 0.59375)" xlink:href="#LMRoman8-Regular-83"/>
      <use transform="translate(58.999985 0.59375)" xlink:href="#LMRoman8-Regular-112"/>
      <use transform="translate(117.999969 0.59375)" xlink:href="#LMRoman8-Regular-97"/>
      <use transform="translate(171.09996 0.59375)" xlink:href="#LMRoman8-Regular-116"/>
      <use transform="translate(212.399948 0.59375)" xlink:href="#LMRoman8-Regular-105"/>
      <use transform="translate(241.899933 0.59375)" xlink:href="#LMRoman8-Regular-97"/>
      <use transform="translate(294.999924 0.59375)" xlink:href="#LMRoman8-Regular-108"/>
      <use transform="translate(324.499908 0.59375)" xlink:href="#LMRoman8-Regular-32"/>
      <use transform="translate(359.899902 0.59375)" xlink:href="#LMRoman8-Regular-99"/>
      <use transform="translate(407.099899 0.59375)" xlink:href="#LMRoman8-Regular-111"/>
      <use transform="translate(460.19989 0.59375)" xlink:href="#LMRoman8-Regular-111"/>
      <use transform="translate(513.299881 0.59375)" xlink:href="#LMRoman8-Regular-114"/>
      <use transform="translate(554.699875 0.59375)" xlink:href="#LMRoman8-Regular-100"/>
      <use transform="translate(613.69986 0.59375)" xlink:href="#LMRoman8-Regular-105"/>
      <use transform="translate(643.199844 0.59375)" xlink:href="#LMRoman8-Regular-110"/>
      <use transform="translate(702.199829 0.59375)" xlink:href="#LMRoman8-Regular-97"/>
      <use transform="translate(755.29982 0.59375)" xlink:href="#LMRoman8-Regular-116"/>
      <use transform="translate(796.599808 0.59375)" xlink:href="#LMRoman8-Regular-101"/>
      <use transform="translate(843.799805 0.59375)" xlink:href="#LMRoman8-Regular-32"/>
      <use transform="translate(879.199799 0.59375)" xlink:href="#Cmmi10-115"/>
     </g>
    </g>
   </g>
   <g id="matplotlib.axis_2">
    <g id="ytick_1">
     <g id="line2d_7">
      <defs>
       <path d="M 0 0 
L -3.5 0 
" id="m23bab094f0" style="stroke:#000000;stroke-width:0.8;"/>
      </defs>
      <g>
       <use style="stroke:#000000;stroke-width:0.8;" x="22.34125" xlink:href="#m23bab094f0" y="81.003866"/>
      </g>
     </g>
     <g id="text_8">
      <!-- −2 -->
      <defs>
       <path d="M 76.59375 25 
C 76.59375 27.296875 74.203125 27.296875 72.703125 27.296875 
L 9.796875 27.296875 
C 8.296875 27.296875 5.90625 27.296875 5.90625 25 
C 5.90625 22.703125 7.90625 22.703125 9.40625 22.703125 
L 73.09375 22.703125 
C 74.59375 22.703125 76.59375 22.703125 76.59375 25 
z
" id="LMRoman8-Regular-8722"/>
      </defs>
      <g transform="translate(7.2 83.086053)scale(0.06 -0.06)">
       <use xlink:href="#LMRoman8-Regular-8722"/>
       <use x="82.599991" xlink:href="#LMRoman8-Regular-50"/>
      </g>
     </g>
    </g>
    <g id="ytick_2">
     <g id="line2d_8">
      <g>
       <use style="stroke:#000000;stroke-width:0.8;" x="22.34125" xlink:href="#m23bab094f0" y="55.814086"/>
      </g>
     </g>
     <g id="text_9">
      <!-- 0 -->
      <g transform="translate(12.155625 57.896273)scale(0.06 -0.06)">
       <use xlink:href="#LMRoman8-Regular-48"/>
      </g>
     </g>
    </g>
    <g id="ytick_3">
     <g id="line2d_9">
      <g>
       <use style="stroke:#000000;stroke-width:0.8;" x="22.34125" xlink:href="#m23bab094f0" y="30.624305"/>
      </g>
     </g>
     <g id="text_10">
      <!-- 2 -->
      <g transform="translate(12.155625 32.706493)scale(0.06 -0.06)">
       <use xlink:href="#LMRoman8-Regular-50"/>
      </g>
     </g>
    </g>
   </g>
   <g id="line2d_10">
    <path clip-path="url(#p33258c6541)" d="M 36.957614 53.528965 
L 37.529683 55.300645 
L 38.673821 60.340624 
L 40.962097 72.251117 
L 42.106235 76.65157 
L 42.678304 78.106414 
L 43.250373 79.019688 
L 43.822442 79.393035 
L 44.394511 79.247105 
L 44.96658 78.615094 
L 45.538649 77.538934 
L 46.110718 76.068214 
L 47.254856 72.183006 
L 49.543132 62.658597 
L 51.259339 55.882321 
L 54.119684 45.897501 
L 55.835892 40.470563 
L 56.98003 37.736904 
L 57.552099 36.821317 
L 58.124168 36.270154 
L 58.696237 36.111046 
L 59.268306 36.354828 
L 59.840375 36.997514 
L 60.412444 38.022876 
L 60.984513 39.404254 
L 62.128651 43.076467 
L 63.844858 49.943255 
L 64.988996 54.451426 
L 66.133134 58.068125 
L 66.705203 59.373731 
L 67.277272 60.29777 
L 67.849341 60.836491 
L 68.42141 61.009503 
L 68.993479 60.856138 
L 69.565548 60.430486 
L 70.709686 59.018618 
L 72.997962 55.660698 
L 74.1421 54.37512 
L 75.286238 53.508888 
L 76.430376 53.062193 
L 77.002446 52.998858 
L 77.574515 53.04848 
L 78.146584 53.215942 
L 79.290722 53.897031 
L 82.151067 56.274819 
L 82.723136 56.43075 
L 83.295205 56.340178 
L 83.867274 55.964503 
L 84.439343 55.285172 
L 85.011412 54.304877 
L 86.15555 51.546879 
L 87.871757 46.134097 
L 89.587964 40.620981 
L 90.732102 37.828398 
L 91.304171 36.964871 
L 91.87624 36.596227 
L 92.448309 36.826991 
L 93.020378 37.747332 
L 93.592447 39.418265 
L 94.164516 41.8571 
L 94.736585 45.026248 
L 95.880723 53.10921 
L 98.169 70.803964 
L 99.313138 77.212979 
L 99.885207 79.388932 
L 100.457276 80.863639 
L 101.029345 81.682905 
L 101.601414 81.922644 
L 102.173483 81.674583 
L 102.745552 81.033921 
L 103.317621 80.090383 
L 104.461759 77.598627 
L 109.038311 66.327617 
L 113.614863 56.93624 
L 115.33107 52.817031 
L 116.475208 50.668934 
L 117.047277 49.948412 
L 117.619346 49.520275 
L 118.191415 49.415593 
L 118.763484 49.659668 
L 119.335554 50.274646 
L 119.907623 51.280231 
L 120.479692 52.691797 
L 121.051761 54.516082 
L 122.195899 59.351727 
L 123.340037 65.457819 
L 125.628313 78.290829 
L 126.772451 83.015719 
L 127.34452 84.613432 
L 127.916589 85.652819 
L 128.488658 86.143564 
L 129.060727 86.127739 
L 129.632796 85.671948 
L 130.204865 84.857443 
L 131.349003 82.48885 
L 133.06521 78.060307 
L 134.781417 73.135813 
L 136.497624 67.351971 
L 138.7859 58.273661 
L 140.502107 51.602353 
L 141.646246 47.737161 
L 142.790384 44.52518 
L 143.934522 42.082755 
L 145.07866 40.4564 
L 146.222798 39.533272 
L 147.366936 39.062359 
L 148.511074 38.858886 
L 149.083143 38.878415 
L 149.655212 39.036347 
L 150.227281 39.398937 
L 150.79935 40.041124 
L 151.371419 41.03678 
L 151.943488 42.449641 
L 152.515557 44.325924 
L 153.087626 46.688882 
L 154.231764 52.831183 
L 155.375902 60.490668 
L 157.664178 76.746874 
L 158.808316 83.213274 
L 159.380385 85.689315 
L 159.952454 87.61236 
L 160.524523 88.983556 
L 161.096592 89.824937 
L 161.668661 90.170139 
L 162.240731 90.056141 
L 162.8128 89.517875 
L 163.384869 88.586665 
L 163.956938 87.292393 
L 165.101076 83.756242 
L 166.817283 76.912464 
L 168.53349 70.110822 
L 169.677628 66.602473 
L 170.249697 65.285194 
L 170.821766 64.2735 
L 171.393835 63.559062 
L 171.965904 63.122196 
L 172.537973 62.934457 
L 173.110042 62.960167 
L 173.682111 63.15696 
L 174.826249 63.861674 
L 175.970387 64.589976 
L 176.542456 64.807752 
L 177.114525 64.851684 
L 177.686594 64.677577 
L 178.258663 64.257776 
L 178.830732 63.585074 
L 179.97487 61.563882 
L 182.835215 55.277681 
L 183.979354 53.600469 
L 184.551423 53.05557 
L 185.695561 52.411488 
L 187.411768 51.765427 
L 188.555906 51.079514 
L 190.272113 49.927115 
L 190.844182 49.758475 
L 191.416251 49.826523 
L 191.98832 50.196977 
L 192.560389 50.913553 
L 193.132458 51.990458 
L 194.276596 55.113267 
L 197.136941 64.367054 
L 197.70901 65.532096 
L 198.281079 66.239021 
L 198.853148 66.443101 
L 199.425217 66.137361 
L 199.997286 65.353358 
L 200.569355 64.158088 
L 201.713493 60.936918 
L 203.4297 55.86518 
L 204.001769 54.594322 
L 204.573839 53.705381 
L 205.145908 53.277121 
L 205.717977 53.366672 
L 206.290046 54.004766 
L 206.862115 55.190863 
L 207.434184 56.889534 
L 208.578322 61.50756 
L 210.866598 72.087631 
L 212.010736 75.978452 
L 212.582805 77.27634 
L 213.154874 78.10872 
L 213.726943 78.482443 
L 214.299012 78.421972 
L 214.871081 77.96244 
L 215.44315 77.144364 
L 216.015219 76.010782 
L 217.159357 72.979836 
L 218.875564 67.294078 
L 220.591771 61.572301 
L 221.735909 58.382102 
L 222.880047 56.000621 
L 223.452116 55.169103 
L 224.024185 54.597787 
L 224.596254 54.295832 
L 225.168323 54.266542 
L 225.740393 54.507107 
L 226.312462 55.008727 
L 226.884531 55.756785 
L 228.028669 57.902367 
L 229.172807 60.684546 
L 231.461083 66.402639 
L 232.033152 67.481446 
L 232.605221 68.308611 
L 233.17729 68.852268 
L 233.749359 69.096756 
L 234.321428 69.040747 
L 234.893497 68.69432 
L 235.465566 68.076365 
L 236.037635 67.213281 
L 237.181773 64.895598 
L 244.046601 48.310495 
L 245.762808 43.677806 
L 246.334877 42.479059 
L 246.906946 41.623937 
L 247.479016 41.193007 
L 248.051085 41.236027 
L 248.623154 41.766077 
L 249.195223 42.758878 
L 249.767292 44.156849 
L 250.91143 47.819631 
L 253.199706 55.841898 
L 254.343844 59.001697 
L 255.487982 61.322197 
L 256.63212 62.939798 
L 257.776258 64.053025 
L 258.920396 64.752154 
L 259.492465 64.930632 
L 260.064534 64.971591 
L 260.636603 64.853722 
L 261.208672 64.556878 
L 261.780741 64.065226 
L 262.35281 63.370167 
L 263.496948 61.386959 
L 264.641086 58.765667 
L 267.501431 51.777028 
L 268.64557 49.638775 
L 269.789708 47.956499 
L 272.650053 44.491408 
L 273.794191 43.221139 
L 274.36626 42.733469 
L 274.938329 42.439701 
L 275.510398 42.42412 
L 276.082467 42.76949 
L 276.654536 43.545414 
L 277.226605 44.797097 
L 277.798674 46.536626 
L 278.942812 51.340385 
L 280.659019 60.516035 
L 282.375226 69.254552 
L 283.519364 73.562541 
L 284.091433 75.09572 
L 284.663502 76.177989 
L 285.235571 76.795068 
L 285.80764 76.941662 
L 286.379709 76.621989 
L 286.951778 75.851583 
L 287.523847 74.659382 
L 288.667985 71.198406 
L 289.812124 66.743821 
L 292.672469 55.156361 
L 293.816607 51.409455 
L 294.960745 48.275805 
L 296.676952 44.267204 
L 298.965228 39.425626 
L 300.109366 37.522369 
L 300.681435 36.875493 
L 301.253504 36.51164 
L 301.825573 36.484778 
L 302.397642 36.839328 
L 302.969711 37.607853 
L 303.54178 38.809774 
L 304.113849 40.450343 
L 305.257987 44.988042 
L 306.402125 50.910361 
L 309.26247 67.073442 
L 310.406608 72.039002 
L 311.550747 75.715991 
L 312.694885 78.456478 
L 313.839023 80.674108 
L 314.983161 82.456823 
L 315.55523 83.098857 
L 316.127299 83.499045 
L 316.699368 83.603531 
L 317.271437 83.374512 
L 317.843506 82.797231 
L 318.415575 81.881741 
L 319.559713 79.177616 
L 320.703851 75.644024 
L 322.992127 67.453919 
L 325.852472 57.005275 
L 326.99661 53.727289 
L 327.568679 52.599421 
L 328.140748 51.944487 
L 328.712817 51.848214 
L 329.284886 52.369557 
L 329.284886 52.369557 
" style="fill:none;stroke:#ff7f0e;stroke-linecap:square;stroke-width:0.5;"/>
   </g>
   <g id="line2d_11">
    <path clip-path="url(#p33258c6541)" d="M 36.957614 58.644392 
L 37.529683 60.087139 
L 38.673821 63.958938 
L 41.534166 75.071919 
L 42.106235 76.701438 
L 42.678304 77.921003 
L 43.250373 78.67972 
L 43.822442 78.955848 
L 44.394511 78.758117 
L 44.96658 78.124472 
L 45.538649 77.116541 
L 46.682787 74.293768 
L 48.971063 67.40557 
L 50.68727 61.864255 
L 52.403477 55.405556 
L 55.263822 44.065682 
L 56.407961 40.515251 
L 57.552099 37.81678 
L 58.124168 36.79477 
L 58.696237 36.007785 
L 59.268306 35.485566 
L 59.840375 35.272049 
L 60.412444 35.421644 
L 60.984513 35.993026 
L 61.556582 37.041655 
L 62.128651 38.611955 
L 62.70072 40.729723 
L 63.844858 46.57468 
L 64.988996 54.143524 
L 66.705203 66.188249 
L 67.849341 72.295125 
L 68.42141 74.218434 
L 68.993479 75.257662 
L 69.565548 75.405636 
L 70.137617 74.728693 
L 70.709686 73.355901 
L 71.853824 69.242963 
L 73.570031 62.572254 
L 74.1421 60.869287 
L 74.714169 59.601626 
L 75.286238 58.815055 
L 75.858307 58.517404 
L 76.430376 58.682386 
L 77.002446 59.254516 
L 77.574515 60.15507 
L 78.718653 62.546421 
L 79.862791 64.988851 
L 80.43486 65.954803 
L 81.006929 66.620785 
L 81.578998 66.908455 
L 82.151067 66.759549 
L 82.723136 66.138393 
L 83.295205 65.032878 
L 83.867274 63.454074 
L 85.011412 59.027016 
L 86.15555 53.335602 
L 89.015895 38.390907 
L 89.587964 36.106408 
L 90.160033 34.303884 
L 90.732102 33.087807 
L 91.304171 32.557106 
L 91.87624 32.798228 
L 92.448309 33.875342 
L 93.020378 35.818976 
L 93.592447 38.615219 
L 94.736585 46.446959 
L 98.169 74.687573 
L 98.741069 77.948304 
L 99.313138 80.446674 
L 99.885207 82.167678 
L 100.457276 83.144318 
L 101.029345 83.445972 
L 101.601414 83.164625 
L 102.173483 82.401334 
L 102.745552 81.255058 
L 103.88969 78.159091 
L 106.177966 70.592806 
L 107.322104 67.037513 
L 108.466242 64.246464 
L 109.038311 63.249813 
L 109.61038 62.545182 
L 110.182449 62.122657 
L 110.754518 61.947597 
L 111.326587 61.963718 
L 113.614863 62.461228 
L 114.186932 62.363927 
L 114.759001 62.108597 
L 115.903139 61.190373 
L 117.619346 59.553126 
L 118.191415 59.180002 
L 118.763484 58.968033 
L 119.335554 58.934592 
L 119.907623 59.078352 
L 120.479692 59.383937 
L 121.62383 60.388416 
L 122.767968 61.782433 
L 123.912106 63.480022 
L 125.628313 66.478262 
L 127.916589 70.619355 
L 129.060727 72.328857 
L 130.204865 73.580463 
L 130.776934 73.994965 
L 131.349003 74.249908 
L 131.921072 74.332846 
L 132.493141 74.23312 
L 133.06521 73.942804 
L 133.637279 73.45786 
L 134.209348 72.779137 
L 135.353486 70.871144 
L 136.497624 68.331102 
L 138.213831 63.697452 
L 140.502107 56.624331 
L 142.790384 48.702354 
L 146.222798 36.422816 
L 147.366936 32.996628 
L 147.939005 31.592764 
L 148.511074 30.48339 
L 149.083143 29.746271 
L 149.655212 29.46078 
L 150.227281 29.698206 
L 150.79935 30.51216 
L 151.371419 31.929706 
L 151.943488 33.944834 
L 153.087626 39.563781 
L 154.803833 50.379878 
L 156.52004 60.718415 
L 157.664178 65.765259 
L 158.236247 67.57071 
L 158.808316 68.907042 
L 159.380385 69.81836 
L 159.952454 70.367952 
L 160.524523 70.628267 
L 161.096592 70.671653 
L 162.240731 70.356012 
L 164.529007 69.18575 
L 166.245214 68.429838 
L 167.389352 68.203156 
L 168.53349 68.324188 
L 171.393835 69.182213 
L 171.965904 69.020474 
L 172.537973 68.612828 
L 173.110042 67.940197 
L 174.25418 65.900926 
L 175.970387 62.320934 
L 176.542456 61.425362 
L 177.114525 60.843936 
L 177.686594 60.637701 
L 178.258663 60.833304 
L 178.830732 61.423122 
L 179.402801 62.369193 
L 180.546939 65.062695 
L 182.263146 69.726237 
L 182.835215 71.021923 
L 183.407285 72.00404 
L 183.979354 72.571985 
L 184.551423 72.644498 
L 185.123492 72.170762 
L 185.695561 71.140562 
L 186.26763 69.59089 
L 187.411768 65.315669 
L 189.127975 58.246227 
L 189.700044 56.369304 
L 190.272113 54.941349 
L 190.844182 54.022449 
L 191.416251 53.620904 
L 191.98832 53.697576 
L 192.560389 54.175122 
L 193.704527 55.908324 
L 195.420734 58.806316 
L 195.992803 59.510618 
L 196.564872 60.006375 
L 197.136941 60.279517 
L 197.70901 60.332035 
L 198.281079 60.176611 
L 198.853148 59.831718 
L 199.997286 58.656937 
L 201.141424 56.983935 
L 203.4297 53.190768 
L 204.001769 52.441678 
L 204.573839 51.892321 
L 205.145908 51.596021 
L 205.717977 51.592093 
L 206.290046 51.90118 
L 206.862115 52.523375 
L 207.434184 53.439433 
L 208.578322 56.004736 
L 210.294529 60.994418 
L 213.154874 69.787304 
L 214.299012 72.603831 
L 214.871081 73.641044 
L 215.44315 74.335128 
L 216.015219 74.618198 
L 216.587288 74.437713 
L 217.159357 73.767029 
L 217.731426 72.613754 
L 218.303495 71.023917 
L 219.447633 66.8965 
L 221.16384 60.190587 
L 222.307978 56.693885 
L 222.880047 55.42738 
L 223.452116 54.490901 
L 224.024185 53.857593 
L 224.596254 53.483704 
L 225.168323 53.31769 
L 225.740393 53.308659 
L 226.884531 53.599365 
L 228.028669 54.157061 
L 229.172807 54.967535 
L 230.316945 56.087764 
L 233.749359 59.991792 
L 234.321428 60.273786 
L 234.893497 60.339364 
L 235.465566 60.177198 
L 236.037635 59.795815 
L 237.181773 58.494703 
L 241.186256 52.81954 
L 242.330394 51.875665 
L 243.474532 51.396242 
L 244.046601 51.332175 
L 245.190739 51.542222 
L 246.334877 52.171714 
L 247.479016 53.177576 
L 248.623154 54.494376 
L 251.483499 58.116606 
L 252.627637 59.082312 
L 253.771775 59.565231 
L 256.63212 60.080883 
L 257.776258 60.842828 
L 259.492465 62.646098 
L 260.636603 63.627978 
L 261.208672 63.82632 
L 261.780741 63.74313 
L 262.35281 63.337047 
L 262.924879 62.591106 
L 263.496948 61.514021 
L 264.641086 58.520892 
L 268.0735 47.999846 
L 268.64557 46.778305 
L 269.217639 45.819706 
L 269.789708 45.11907 
L 270.361777 44.650891 
L 270.933846 44.374194 
L 272.077984 44.200096 
L 273.794191 44.328187 
L 274.938329 44.57757 
L 276.082467 45.127132 
L 277.226605 46.137371 
L 278.370743 47.678965 
L 279.514881 49.752786 
L 281.231088 53.662497 
L 282.947295 57.604456 
L 283.519364 58.634049 
L 284.091433 59.416663 
L 284.663502 59.909999 
L 285.235571 60.093934 
L 285.80764 59.972467 
L 286.379709 59.572212 
L 286.951778 58.938154 
L 288.095916 57.203244 
L 290.384193 53.381808 
L 293.816607 48.276129 
L 294.960745 45.993063 
L 296.676952 41.768687 
L 298.393159 37.563252 
L 299.537297 35.537 
L 300.109366 34.889755 
L 300.681435 34.508019 
L 301.253504 34.383181 
L 301.825573 34.488874 
L 302.397642 34.786238 
L 303.54178 35.787736 
L 304.685918 37.159933 
L 305.830056 39.007861 
L 306.402125 40.24942 
L 306.974194 41.809049 
L 307.546263 43.76872 
L 308.118332 46.197702 
L 309.26247 52.608205 
L 310.406608 60.938963 
L 313.266954 83.421248 
L 313.839023 86.732567 
L 314.411092 89.317149 
L 314.983161 91.138756 
L 315.55523 92.222988 
L 316.127299 92.646527 
L 316.699368 92.519391 
L 317.271437 91.964028 
L 317.843506 91.09525 
L 318.987644 88.750241 
L 320.131782 85.818617 
L 321.27592 82.200563 
L 322.420058 77.701403 
L 324.136265 69.626691 
L 325.280403 64.286938 
L 326.424541 60.007444 
L 326.99661 58.500739 
L 327.568679 57.495228 
L 328.140748 57.016406 
L 328.712817 57.064758 
L 329.284886 57.619847 
L 329.284886 57.619847 
" style="fill:none;stroke:#1f77b4;stroke-linecap:square;stroke-opacity:0.5;stroke-width:0.5;"/>
   </g>
   <g id="line2d_12">
    <path clip-path="url(#p33258c6541)" d="M 36.957614 51.514584 
L 37.529683 52.321313 
L 38.101752 53.78192 
L 38.673821 55.848136 
L 39.817959 61.407389 
L 42.106235 74.152443 
L 43.250373 78.885209 
L 43.822442 80.406247 
L 44.394511 81.257574 
L 44.96658 81.395377 
L 45.538649 80.80802 
L 46.110718 79.518335 
L 46.682787 77.583903 
L 47.826925 72.162012 
L 49.543132 61.989416 
L 51.259339 51.984548 
L 52.403477 46.172184 
L 53.547615 41.165885 
L 54.691753 37.051033 
L 55.263822 35.416419 
L 55.835892 34.153019 
L 56.407961 33.352889 
L 56.98003 33.120302 
L 57.552099 33.560081 
L 58.124168 34.762624 
L 58.696237 36.78764 
L 59.268306 39.649147 
L 60.412444 47.650919 
L 62.128651 63.016452 
L 63.272789 72.903149 
L 64.416927 80.517916 
L 64.988996 83.133909 
L 65.561065 84.88164 
L 66.133134 85.769869 
L 66.705203 85.849771 
L 67.277272 85.204674 
L 67.849341 83.93929 
L 68.42141 82.169458 
L 69.565548 77.585586 
L 72.997962 62.434337 
L 74.1421 58.731683 
L 74.714169 57.334055 
L 75.286238 56.272985 
L 75.858307 55.560317 
L 76.430376 55.193559 
L 77.002446 55.153789 
L 77.574515 55.40545 
L 78.146584 55.898228 
L 79.290722 57.356955 
L 81.006929 59.75373 
L 82.151067 60.864668 
L 82.723136 61.161597 
L 83.295205 61.252987 
L 83.867274 61.121355 
L 84.439343 60.75491 
L 85.011412 60.147693 
L 85.583481 59.29977 
L 86.727619 56.912123 
L 87.871757 53.701718 
L 89.587964 47.788047 
L 91.304171 41.767927 
L 91.87624 40.158284 
L 92.448309 38.967374 
L 93.020378 38.346981 
L 93.592447 38.444621 
L 94.164516 39.385749 
L 94.736585 41.254654 
L 95.308654 44.07719 
L 95.880723 47.808978 
L 97.024861 57.457641 
L 99.313138 78.877604 
L 100.457276 86.717383 
L 101.029345 89.383836 
L 101.601414 91.182499 
L 102.173483 92.160729 
L 102.745552 92.404597 
L 103.317621 92.021052 
L 103.88969 91.121798 
L 104.461759 89.811291 
L 105.605897 86.302482 
L 107.322104 79.773538 
L 109.61038 70.888778 
L 110.754518 67.202444 
L 111.898656 64.22409 
L 113.042794 61.822179 
L 114.186932 59.839822 
L 115.33107 58.377724 
L 115.903139 57.982424 
L 116.475208 57.925826 
L 117.047277 58.298874 
L 117.619346 59.176088 
L 118.191415 60.597872 
L 118.763484 62.555761 
L 119.907623 67.7638 
L 121.62383 76.484413 
L 122.767968 80.962402 
L 123.340037 82.515321 
L 123.912106 83.621536 
L 124.484175 84.352638 
L 125.056244 84.807119 
L 126.200382 85.269112 
L 127.34452 85.492922 
L 127.916589 85.510041 
L 128.488658 85.404279 
L 129.060727 85.121645 
L 129.632796 84.620427 
L 130.204865 83.88226 
L 131.349003 81.75179 
L 132.493141 79.009882 
L 134.781417 72.70948 
L 137.069693 65.550356 
L 138.7859 60.253116 
L 140.502107 55.751032 
L 142.218315 51.465193 
L 143.362453 48.133564 
L 145.07866 42.159109 
L 146.794867 35.976917 
L 147.939005 32.744387 
L 148.511074 31.655519 
L 149.083143 31.023875 
L 149.655212 30.912957 
L 150.227281 31.367634 
L 150.79935 32.410843 
L 151.371419 34.041077 
L 151.943488 36.230862 
L 153.087626 42.048891 
L 154.803833 52.87375 
L 155.947971 59.990638 
L 157.092109 65.843848 
L 157.664178 68.070165 
L 158.236247 69.77178 
L 158.808316 70.950605 
L 159.380385 71.643054 
L 159.952454 71.914036 
L 160.524523 71.847782 
L 161.096592 71.536928 
L 162.240731 70.530648 
L 163.956938 68.981205 
L 165.101076 68.274012 
L 166.245214 67.941312 
L 166.817283 67.949966 
L 167.389352 68.100949 
L 167.961421 68.413766 
L 168.53349 68.902541 
L 169.677628 70.408252 
L 170.821766 72.463158 
L 172.537973 75.662202 
L 173.110042 76.492904 
L 173.682111 77.103234 
L 174.25418 77.447933 
L 174.826249 77.496956 
L 175.398318 77.236448 
L 175.970387 76.668078 
L 176.542456 75.806902 
L 177.686594 73.311955 
L 178.830732 69.998005 
L 180.546939 63.96985 
L 182.263146 57.06729 
L 186.839699 37.776694 
L 187.411768 35.932232 
L 187.983837 34.476865 
L 188.555906 33.534303 
L 189.127975 33.229302 
L 189.700044 33.671121 
L 190.272113 34.934339 
L 190.844182 37.040336 
L 191.416251 39.943422 
L 192.560389 47.600688 
L 194.276596 60.344863 
L 195.420734 66.936933 
L 195.992803 69.208338 
L 196.564872 70.753886 
L 197.136941 71.619847 
L 197.70901 71.895191 
L 198.281079 71.690952 
L 198.853148 71.120972 
L 199.997286 69.270708 
L 201.713493 65.611294 
L 205.145908 57.66781 
L 206.290046 55.59791 
L 206.862115 54.816942 
L 207.434184 54.260259 
L 208.006253 53.982996 
L 208.578322 54.054779 
L 209.150391 54.557953 
L 209.72246 55.580342 
L 210.294529 57.202218 
L 210.866598 59.479471 
L 211.438667 62.425856 
L 212.582805 70.085352 
L 214.871081 87.322902 
L 215.44315 90.523494 
L 216.015219 92.79187 
L 216.587288 93.982206 
L 217.159357 94.036336 
L 217.731426 92.988864 
L 218.303495 90.960981 
L 219.447633 84.775798 
L 221.735909 70.608675 
L 222.880047 65.489802 
L 223.452116 63.65307 
L 224.024185 62.261598 
L 224.596254 61.253769 
L 225.168323 60.55514 
L 225.740393 60.088239 
L 226.884531 59.564957 
L 229.172807 58.802023 
L 231.461083 57.886661 
L 232.605221 57.718614 
L 235.465566 57.736365 
L 236.609704 57.29723 
L 238.325911 56.350136 
L 238.89798 56.178866 
L 239.470049 56.172804 
L 240.042118 56.360031 
L 240.614187 56.737842 
L 241.758325 57.892475 
L 242.902463 59.059981 
L 243.474532 59.432292 
L 244.046601 59.574243 
L 244.61867 59.451528 
L 245.190739 59.058387 
L 245.762808 58.412788 
L 246.906946 56.502387 
L 248.051085 54.004682 
L 252.055568 44.369247 
L 252.627637 43.612983 
L 253.199706 43.250506 
L 253.771775 43.355043 
L 254.343844 43.980681 
L 254.915913 45.154997 
L 255.487982 46.873046 
L 256.63212 51.731419 
L 259.492465 66.370638 
L 260.064534 68.513213 
L 260.636603 70.114911 
L 261.208672 71.126884 
L 261.780741 71.541309 
L 262.35281 71.38644 
L 262.924879 70.718186 
L 263.496948 69.609903 
L 264.641086 66.395647 
L 266.357293 60.171621 
L 268.64557 51.715012 
L 269.789708 48.508033 
L 270.361777 47.392451 
L 270.933846 46.676329 
L 271.505915 46.3948 
L 272.077984 46.560256 
L 272.650053 47.159346 
L 273.222122 48.152454 
L 274.36626 51.046462 
L 276.654536 57.88546 
L 277.798674 60.476199 
L 278.370743 61.390584 
L 278.942812 62.042085 
L 279.514881 62.450087 
L 280.08695 62.650815 
L 281.231088 62.625197 
L 283.519364 62.040628 
L 284.663502 61.637145 
L 285.80764 60.916446 
L 286.951778 59.750206 
L 288.667985 57.430536 
L 291.528331 53.255008 
L 292.672469 51.20954 
L 293.816607 48.615921 
L 294.960745 45.361534 
L 298.393159 34.407489 
L 298.965228 33.278001 
L 299.537297 32.592661 
L 300.109366 32.401354 
L 300.681435 32.720568 
L 301.253504 33.53471 
L 301.825573 34.802878 
L 302.969711 38.473488 
L 304.113849 43.293207 
L 305.257987 48.979719 
L 306.974194 58.803101 
L 309.834539 75.794372 
L 310.978678 81.142638 
L 311.550747 83.246841 
L 312.122816 84.925791 
L 312.694885 86.167447 
L 313.266954 86.9772 
L 313.839023 87.376982 
L 314.411092 87.403553 
L 314.983161 87.105703 
L 315.55523 86.540535 
L 316.699368 84.849469 
L 318.987644 80.57922 
L 321.27592 75.932842 
L 322.420058 73.08983 
L 323.564196 69.583742 
L 324.708334 65.372568 
L 326.99661 56.299507 
L 328.140748 52.893808 
L 328.712817 51.849483 
L 329.284886 51.368116 
L 329.284886 51.368116 
" style="fill:none;stroke:#1f77b4;stroke-linecap:square;stroke-opacity:0.5;stroke-width:0.5;"/>
   </g>
   <g id="line2d_13">
    <path clip-path="url(#p33258c6541)" d="M 36.957614 57.299565 
L 37.529683 58.831012 
L 38.673821 62.845553 
L 41.534166 74.133957 
L 42.106235 75.641083 
L 42.678304 76.637497 
L 43.250373 77.054196 
L 43.822442 76.856278 
L 44.394511 76.046686 
L 44.96658 74.666995 
L 45.538649 72.792364 
L 46.682787 67.974848 
L 49.543132 54.678673 
L 50.68727 50.2463 
L 51.831408 46.514496 
L 52.975546 43.476136 
L 54.119684 41.164454 
L 55.263822 39.607173 
L 55.835892 39.103796 
L 56.407961 38.77413 
L 56.98003 38.612775 
L 57.552099 38.62057 
L 58.124168 38.807072 
L 58.696237 39.190401 
L 59.268306 39.793906 
L 59.840375 40.639969 
L 60.412444 41.742114 
L 61.556582 44.678438 
L 64.416927 53.404223 
L 64.988996 54.61503 
L 65.561065 55.441661 
L 66.133134 55.850819 
L 66.705203 55.854387 
L 67.277272 55.512417 
L 69.565548 53.174353 
L 70.137617 53.060716 
L 70.709686 53.348796 
L 71.281755 54.065957 
L 71.853824 55.185795 
L 72.997962 58.309021 
L 74.714169 63.464759 
L 75.858307 66.030293 
L 76.430376 66.887538 
L 77.002446 67.44888 
L 77.574515 67.729586 
L 78.146584 67.757267 
L 78.718653 67.565839 
L 79.290722 67.190229 
L 80.43486 66.00694 
L 81.578998 64.377782 
L 82.723136 62.357601 
L 83.867274 59.938073 
L 85.011412 57.114097 
L 86.727619 52.193554 
L 89.587964 43.478565 
L 90.160033 42.094332 
L 90.732102 41.011959 
L 91.304171 40.317912 
L 91.87624 40.090091 
L 92.448309 40.389967 
L 93.020378 41.255815 
L 93.592447 42.697883 
L 94.164516 44.696002 
L 95.308654 50.130767 
L 97.024861 60.391231 
L 98.169 67.153523 
L 99.313138 72.612276 
L 99.885207 74.569979 
L 100.457276 75.91041 
L 101.029345 76.601436 
L 101.601414 76.654988 
L 102.173483 76.129004 
L 102.745552 75.123308 
L 103.88969 72.212199 
L 105.605897 67.634205 
L 106.750035 65.401239 
L 107.894173 63.839821 
L 109.61038 62.112429 
L 110.754518 61.190715 
L 111.898656 60.530964 
L 113.042794 60.169239 
L 114.186932 60.05397 
L 115.33107 60.180001 
L 116.475208 60.656463 
L 117.619346 61.554849 
L 119.335554 63.201883 
L 119.907623 63.591261 
L 120.479692 63.798414 
L 121.051761 63.787889 
L 121.62383 63.553533 
L 122.195899 63.121116 
L 124.484175 60.794903 
L 125.056244 60.498417 
L 125.628313 60.465044 
L 126.200382 60.731795 
L 126.772451 61.306725 
L 127.34452 62.170217 
L 128.488658 64.572567 
L 131.349003 71.410326 
L 131.921072 72.412313 
L 132.493141 73.164037 
L 133.06521 73.61575 
L 133.637279 73.722915 
L 134.209348 73.451077 
L 134.781417 72.781519 
L 135.353486 71.716048 
L 135.925555 70.279492 
L 137.069693 66.500018 
L 141.646246 49.286229 
L 144.506591 40.376946 
L 146.222798 33.97089 
L 147.366936 29.740169 
L 147.939005 27.992364 
L 148.511074 26.684183 
L 149.083143 25.947603 
L 149.655212 25.882777 
L 150.227281 26.545207 
L 150.79935 27.940139 
L 151.371419 30.023653 
L 152.515557 35.881122 
L 154.231764 46.947761 
L 155.947971 57.76936 
L 157.092109 63.757638 
L 158.236247 68.440908 
L 159.380385 71.754306 
L 159.952454 72.900415 
L 160.524523 73.710514 
L 161.096592 74.186012 
L 161.668661 74.324885 
L 162.240731 74.121011 
L 162.8128 73.564986 
L 163.384869 72.647001 
L 163.956938 71.361812 
L 164.529007 69.713071 
L 165.673145 65.409613 
L 167.389352 57.201542 
L 169.105559 48.887589 
L 170.249697 44.739884 
L 170.821766 43.461206 
L 171.393835 42.878607 
L 171.965904 43.093629 
L 172.537973 44.169563 
L 173.110042 46.115397 
L 173.682111 48.872034 
L 174.826249 56.228673 
L 176.542456 68.411035 
L 177.686594 74.514224 
L 178.258663 76.457102 
L 178.830732 77.56255 
L 179.402801 77.818236 
L 179.97487 77.250047 
L 180.546939 75.913422 
L 181.119008 73.886898 
L 182.263146 68.168442 
L 183.979354 57.245686 
L 185.695561 46.420976 
L 186.839699 40.508469 
L 187.983837 36.240606 
L 188.555906 34.869255 
L 189.127975 34.086635 
L 189.700044 33.948267 
L 190.272113 34.494822 
L 190.844182 35.739957 
L 191.416251 37.658422 
L 192.560389 43.174422 
L 194.848665 56.17526 
L 195.420734 58.64814 
L 195.992803 60.475862 
L 196.564872 61.576784 
L 197.136941 61.930211 
L 197.70901 61.57381 
L 198.281079 60.595361 
L 198.853148 59.120794 
L 199.997286 55.297459 
L 201.141424 51.385549 
L 201.713493 49.775314 
L 202.285562 48.570453 
L 202.857631 47.880538 
L 203.4297 47.795027 
L 204.001769 48.379481 
L 204.573839 49.670402 
L 205.145908 51.669648 
L 205.717977 54.339284 
L 206.862115 61.333454 
L 209.72246 81.587111 
L 210.866598 87.633286 
L 211.438667 89.771525 
L 212.010736 91.230046 
L 212.582805 91.964082 
L 213.154874 91.949951 
L 213.726943 91.190038 
L 214.299012 89.71798 
L 214.871081 87.601588 
L 216.015219 81.869378 
L 218.875564 65.52725 
L 220.019702 60.777293 
L 220.591771 59.004134 
L 221.16384 57.604781 
L 221.735909 56.529303 
L 222.307978 55.718004 
L 222.880047 55.11477 
L 223.452116 54.679598 
L 224.024185 54.398886 
L 224.596254 54.289983 
L 225.168323 54.398581 
L 225.740393 54.788835 
L 226.312462 55.527645 
L 226.884531 56.666011 
L 227.4566 58.221301 
L 228.600738 62.414789 
L 230.316945 69.596514 
L 230.889014 71.57574 
L 231.461083 73.096799 
L 232.033152 74.063445 
L 232.605221 74.429752 
L 233.17729 74.200345 
L 233.749359 73.424083 
L 234.321428 72.183137 
L 235.465566 68.723118 
L 238.325911 58.820448 
L 239.470049 55.667168 
L 240.614187 53.396284 
L 241.186256 52.652073 
L 241.758325 52.185604 
L 242.330394 51.991196 
L 242.902463 52.043276 
L 243.474532 52.295036 
L 245.762808 53.844451 
L 246.334877 53.985513 
L 246.906946 53.917279 
L 247.479016 53.622824 
L 248.051085 53.111013 
L 249.195223 51.589079 
L 250.91143 49.076277 
L 251.483499 48.497954 
L 252.055568 48.171162 
L 252.627637 48.145379 
L 253.199706 48.444717 
L 253.771775 49.063195 
L 254.343844 49.963025 
L 255.487982 52.314899 
L 256.63212 54.750913 
L 257.204189 55.754635 
L 257.776258 56.51761 
L 258.348327 57.0024 
L 258.920396 57.203035 
L 259.492465 57.140744 
L 260.064534 56.85518 
L 261.208672 55.796952 
L 262.35281 54.305964 
L 263.496948 52.429725 
L 264.641086 50.070791 
L 266.357293 45.720113 
L 268.0735 41.50651 
L 268.64557 40.443857 
L 269.217639 39.641559 
L 269.789708 39.124047 
L 270.361777 38.892501 
L 270.933846 38.926898 
L 271.505915 39.191265 
L 272.650053 40.231642 
L 273.794191 41.697726 
L 274.938329 43.459576 
L 276.082467 45.613607 
L 277.226605 48.3563 
L 278.370743 51.789954 
L 280.08695 57.91564 
L 281.803157 64.02841 
L 282.947295 67.219601 
L 283.519364 68.346429 
L 284.091433 69.083459 
L 284.663502 69.388893 
L 285.235571 69.238824 
L 285.80764 68.628844 
L 286.379709 67.572443 
L 286.951778 66.096491 
L 288.095916 62.023989 
L 289.240054 56.680046 
L 290.956262 46.919275 
L 292.672469 36.748373 
L 293.816607 31.165801 
L 294.388676 29.022031 
L 294.960745 27.370657 
L 295.532814 26.209609 
L 296.104883 25.50268 
L 296.676952 25.188757 
L 297.249021 25.193549 
L 297.82109 25.441808 
L 298.965228 26.423906 
L 300.109366 27.836839 
L 301.253504 29.683453 
L 302.397642 32.111071 
L 303.54178 35.185171 
L 305.257987 40.660247 
L 307.546263 48.072771 
L 309.26247 52.845276 
L 310.406608 55.460194 
L 311.550747 57.540682 
L 312.694885 59.063476 
L 313.839023 60.066033 
L 314.983161 60.615873 
L 316.127299 60.767994 
L 317.271437 60.561795 
L 318.415575 60.059364 
L 320.131782 58.97782 
L 325.280403 55.560483 
L 326.424541 54.902971 
L 326.99661 54.704613 
L 327.568679 54.667413 
L 328.140748 54.854701 
L 328.712817 55.326804 
L 329.284886 56.132246 
L 329.284886 56.132246 
" style="fill:none;stroke:#1f77b4;stroke-linecap:square;stroke-opacity:0.5;stroke-width:0.5;"/>
   </g>
   <g id="line2d_14">
    <path clip-path="url(#p33258c6541)" d="M 36.957614 53.468012 
L 37.529683 53.470079 
L 38.101752 53.899008 
L 38.673821 54.788123 
L 39.24589 56.153725 
L 39.817959 57.99097 
L 40.962097 62.935146 
L 44.394511 80.665643 
L 44.96658 82.589316 
L 45.538649 83.885661 
L 46.110718 84.494012 
L 46.682787 84.395176 
L 47.254856 83.610137 
L 47.826925 82.194123 
L 48.398994 80.227487 
L 49.543132 75.0289 
L 51.831408 62.342975 
L 52.975546 56.326966 
L 54.119684 51.379573 
L 54.691753 49.451179 
L 55.263822 47.931627 
L 55.835892 46.83189 
L 56.407961 46.144772 
L 56.98003 45.846702 
L 57.552099 45.900337 
L 58.124168 46.257345 
L 58.696237 46.860993 
L 59.840375 48.556572 
L 61.556582 51.366431 
L 62.70072 52.789266 
L 63.272789 53.262431 
L 63.844858 53.561575 
L 64.416927 53.693535 
L 65.561065 53.562522 
L 66.705203 53.256226 
L 67.277272 53.23457 
L 67.849341 53.433199 
L 68.42141 53.9544 
L 68.993479 54.886461 
L 69.565548 56.288237 
L 70.137617 58.175185 
L 71.281755 63.202435 
L 73.570031 74.444586 
L 74.1421 76.547862 
L 74.714169 78.128245 
L 75.286238 79.147837 
L 75.858307 79.620077 
L 76.430376 79.602165 
L 77.002446 79.1827 
L 77.574515 78.467458 
L 79.290722 75.560408 
L 83.295205 68.583822 
L 84.439343 65.593258 
L 85.583481 61.7983 
L 87.299688 54.850034 
L 90.160033 42.479779 
L 91.304171 38.53995 
L 91.87624 37.026465 
L 92.448309 35.897149 
L 93.020378 35.214235 
L 93.592447 35.042592 
L 94.164516 35.44776 
L 94.736585 36.490538 
L 95.308654 38.217942 
L 95.880723 40.65205 
L 96.452792 43.778126 
L 97.59693 51.807619 
L 100.457276 74.112749 
L 101.029345 77.268605 
L 101.601414 79.620153 
L 102.173483 81.118545 
L 102.745552 81.775636 
L 103.317621 81.654496 
L 103.88969 80.855284 
L 104.461759 79.499669 
L 105.605897 75.631529 
L 109.038311 62.275636 
L 110.182449 59.178734 
L 110.754518 58.108197 
L 111.326587 57.400359 
L 111.898656 57.078317 
L 112.470725 57.155199 
L 113.042794 57.632112 
L 113.614863 58.496043 
L 114.186932 59.717582 
L 115.33107 63.027051 
L 118.191415 72.481323 
L 118.763484 73.837601 
L 119.335554 74.848635 
L 119.907623 75.485155 
L 120.479692 75.74488 
L 121.051761 75.652085 
L 121.62383 75.254882 
L 122.767968 73.828351 
L 124.484175 71.335982 
L 125.056244 70.702026 
L 125.628313 70.242901 
L 126.200382 69.973018 
L 126.772451 69.886721 
L 127.34452 69.962773 
L 128.488658 70.477941 
L 130.204865 71.732699 
L 131.921072 73.076342 
L 132.493141 73.40614 
L 133.06521 73.585319 
L 133.637279 73.543051 
L 134.209348 73.210509 
L 134.781417 72.533721 
L 135.353486 71.4857 
L 135.925555 70.074843 
L 137.069693 66.382774 
L 139.357969 58.195643 
L 140.502107 54.975001 
L 143.362453 48.188233 
L 144.506591 44.114359 
L 145.650729 38.723351 
L 147.939005 27.224669 
L 148.511074 25.23137 
L 149.083143 23.940862 
L 149.655212 23.468382 
L 150.227281 23.874673 
L 150.79935 25.163153 
L 151.371419 27.283029 
L 151.943488 30.137311 
L 153.087626 37.500851 
L 156.52004 61.950986 
L 157.664178 67.770773 
L 158.236247 69.944481 
L 158.808316 71.600765 
L 159.380385 72.745471 
L 159.952454 73.407651 
L 160.524523 73.640793 
L 161.096592 73.521993 
L 161.668661 73.148201 
L 163.384869 71.601021 
L 163.956938 71.284876 
L 164.529007 71.189727 
L 165.101076 71.341297 
L 165.673145 71.729609 
L 166.817283 73.019168 
L 167.961421 74.465536 
L 168.53349 75.033123 
L 169.105559 75.405297 
L 169.677628 75.543296 
L 170.249697 75.436994 
L 170.821766 75.103015 
L 171.965904 73.908999 
L 173.682111 71.426659 
L 174.826249 69.47047 
L 175.970387 67.045933 
L 177.114525 63.899404 
L 178.258663 59.995804 
L 181.691077 47.196936 
L 182.835215 44.258807 
L 183.407285 43.32623 
L 183.979354 42.821127 
L 184.551423 42.779715 
L 185.123492 43.218495 
L 185.695561 44.129277 
L 186.26763 45.476544 
L 187.411768 49.21187 
L 190.844182 62.328855 
L 191.98832 65.709222 
L 193.132458 68.313124 
L 193.704527 69.278884 
L 194.276596 69.981016 
L 194.848665 70.384942 
L 195.420734 70.459052 
L 195.992803 70.180846 
L 196.564872 69.541702 
L 197.136941 68.549967 
L 197.70901 67.232456 
L 198.853148 63.822034 
L 201.141424 56.338304 
L 201.713493 55.011441 
L 202.285562 54.158967 
L 202.857631 53.889288 
L 203.4297 54.279259 
L 204.001769 55.362735 
L 204.573839 57.123223 
L 205.145908 59.492639 
L 206.290046 65.568564 
L 208.578322 78.720135 
L 209.72246 83.811896 
L 210.294529 85.778681 
L 210.866598 87.345374 
L 211.438667 88.515257 
L 212.010736 89.294055 
L 212.582805 89.685081 
L 213.154874 89.686453 
L 213.726943 89.290301 
L 214.299012 88.484016 
L 214.871081 87.253262 
L 215.44315 85.587313 
L 216.587288 80.968854 
L 217.731426 74.890789 
L 220.591771 58.486856 
L 221.735909 53.781821 
L 222.307978 52.051534 
L 222.880047 50.710194 
L 223.452116 49.707998 
L 224.024185 48.984298 
L 224.596254 48.4783 
L 225.740393 47.917671 
L 226.884531 47.727802 
L 231.461083 47.577227 
L 232.033152 47.729174 
L 232.605221 48.089392 
L 233.17729 48.719901 
L 233.749359 49.655952 
L 234.893497 52.396398 
L 237.753842 60.670514 
L 238.89798 62.851457 
L 239.470049 63.582315 
L 240.042118 64.09177 
L 240.614187 64.393436 
L 241.186256 64.488857 
L 241.758325 64.36253 
L 242.330394 63.984135 
L 242.902463 63.315855 
L 243.474532 62.322945 
L 244.046601 60.98481 
L 245.190739 57.307582 
L 246.334877 52.59942 
L 249.767292 37.626821 
L 250.91143 33.746424 
L 251.483499 32.284895 
L 252.055568 31.273265 
L 252.627637 30.821104 
L 253.199706 31.030669 
L 253.771775 31.979859 
L 254.343844 33.705886 
L 254.915913 36.192866 
L 256.060051 43.092109 
L 258.920396 62.855513 
L 259.492465 65.566515 
L 260.064534 67.506196 
L 260.636603 68.61461 
L 261.208672 68.881032 
L 261.780741 68.338308 
L 262.35281 67.055219 
L 262.924879 65.128014 
L 264.069017 59.812737 
L 268.0735 38.032584 
L 269.217639 33.279045 
L 270.361777 29.473356 
L 271.505915 26.739333 
L 272.077984 25.8748 
L 272.650053 25.422647 
L 273.222122 25.442073 
L 273.794191 25.97991 
L 274.36626 27.060095 
L 274.938329 28.676762 
L 275.510398 30.792595 
L 276.654536 36.242415 
L 278.370743 46.109831 
L 280.659019 59.067524 
L 281.803157 64.381176 
L 282.947295 68.365846 
L 283.519364 69.750181 
L 284.091433 70.688251 
L 284.663502 71.164789 
L 285.235571 71.177988 
L 285.80764 70.738537 
L 286.379709 69.867397 
L 286.951778 68.59321 
L 288.095916 64.977724 
L 289.240054 60.222454 
L 293.816607 39.195076 
L 294.960745 35.491978 
L 296.104883 32.644039 
L 297.249021 30.592006 
L 297.82109 29.866383 
L 298.393159 29.356099 
L 298.965228 29.079639 
L 299.537297 29.0578 
L 300.109366 29.309591 
L 300.681435 29.847675 
L 301.253504 30.674114 
L 301.825573 31.77756 
L 302.969711 34.699539 
L 304.685918 40.168576 
L 306.974194 47.4154 
L 308.118332 50.423973 
L 309.26247 52.889034 
L 310.406608 54.842489 
L 312.122816 57.151746 
L 313.839023 59.419373 
L 315.55523 62.209101 
L 317.843506 66.122099 
L 318.987644 67.476563 
L 319.559713 67.885147 
L 320.131782 68.094326 
L 320.703851 68.101556 
L 321.27592 67.912066 
L 321.847989 67.535886 
L 322.420058 66.984894 
L 323.564196 65.403959 
L 324.708334 63.259947 
L 326.424541 59.326621 
L 328.140748 55.515288 
L 328.712817 54.54969 
L 329.284886 53.84649 
L 329.284886 53.84649 
" style="fill:none;stroke:#1f77b4;stroke-linecap:square;stroke-opacity:0.5;stroke-width:0.5;"/>
   </g>
   <g id="line2d_15">
    <path clip-path="url(#p33258c6541)" d="M 36.957614 61.931233 
L 37.529683 63.151157 
L 38.673821 66.412538 
L 40.962097 74.190511 
L 41.534166 75.640217 
L 42.106235 76.557975 
L 42.678304 76.779693 
L 43.250373 76.166605 
L 43.822442 74.620465 
L 44.394511 72.097473 
L 44.96658 68.619515 
L 46.110718 59.23448 
L 48.971063 32.291814 
L 49.543132 28.453294 
L 50.115201 25.62481 
L 50.68727 23.899508 
L 51.259339 23.299064 
L 51.831408 23.776854 
L 52.403477 25.225572 
L 52.975546 27.488062 
L 54.119684 33.657249 
L 55.835892 43.802242 
L 56.98003 49.123379 
L 57.552099 51.092246 
L 58.124168 52.616734 
L 58.696237 53.77444 
L 61.556582 58.451099 
L 62.70072 61.668394 
L 65.561065 71.548804 
L 66.133134 72.929443 
L 66.705203 73.859587 
L 67.277272 74.276215 
L 67.849341 74.148258 
L 68.42141 73.477588 
L 68.993479 72.298226 
L 69.565548 70.673903 
L 70.709686 66.467238 
L 72.997962 57.52311 
L 73.570031 55.826282 
L 74.1421 54.497228 
L 74.714169 53.562573 
L 75.286238 53.017478 
L 75.858307 52.828235 
L 76.430376 52.937971 
L 77.002446 53.274787 
L 78.146584 54.323065 
L 79.862791 55.906156 
L 81.006929 56.577656 
L 82.151067 56.846375 
L 82.723136 56.817489 
L 83.295205 56.67079 
L 83.867274 56.3991 
L 85.011412 55.462369 
L 86.15555 54.007105 
L 87.299688 52.096073 
L 91.304171 44.68618 
L 91.87624 44.210253 
L 92.448309 44.090854 
L 93.020378 44.393686 
L 93.592447 45.170025 
L 94.164516 46.45132 
L 94.736585 48.244719 
L 95.880723 53.257075 
L 97.024861 59.709149 
L 99.313138 73.353619 
L 100.457276 78.737488 
L 101.601414 82.50712 
L 102.173483 83.790478 
L 102.745552 84.712753 
L 103.317621 85.311133 
L 103.88969 85.618588 
L 104.461759 85.659372 
L 105.033828 85.448727 
L 105.605897 84.996433 
L 106.177966 84.31264 
L 107.322104 82.327113 
L 109.038311 78.364014 
L 110.754518 74.340836 
L 112.470725 71.001206 
L 114.186932 68.319481 
L 115.903139 66.074674 
L 118.191415 63.510006 
L 119.335554 62.441085 
L 120.479692 61.746139 
L 121.051761 61.634198 
L 121.62383 61.726992 
L 122.195899 62.046611 
L 122.767968 62.597995 
L 123.912106 64.321449 
L 125.628313 67.82691 
L 127.34452 71.365036 
L 129.060727 74.333113 
L 130.204865 75.865909 
L 130.776934 76.435349 
L 131.349003 76.827597 
L 131.921072 77.00565 
L 132.493141 76.936974 
L 133.06521 76.598059 
L 133.637279 75.976654 
L 134.209348 75.071176 
L 134.781417 73.887922 
L 135.925555 70.732584 
L 137.069693 66.621153 
L 138.7859 59.132321 
L 140.502107 51.421979 
L 141.646246 47.056462 
L 142.790384 43.542865 
L 145.07866 37.75206 
L 147.939005 30.649295 
L 149.083143 28.683911 
L 149.655212 28.079758 
L 150.227281 27.773979 
L 150.79935 27.802737 
L 151.371419 28.210531 
L 151.943488 29.051557 
L 152.515557 30.385404 
L 153.087626 32.267349 
L 153.659695 34.735236 
L 154.803833 41.415854 
L 155.947971 49.964243 
L 158.236247 67.774138 
L 159.380385 74.199086 
L 159.952454 76.354848 
L 160.524523 77.759796 
L 161.096592 78.441515 
L 161.668661 78.470134 
L 162.240731 77.946814 
L 162.8128 76.989306 
L 163.956938 74.238127 
L 168.53349 61.415759 
L 169.105559 60.196963 
L 169.677628 59.252179 
L 170.249697 58.659586 
L 170.821766 58.48274 
L 171.393835 58.757089 
L 171.965904 59.479485 
L 172.537973 60.603427 
L 173.682111 63.672281 
L 174.826249 66.933242 
L 175.398318 68.276537 
L 175.970387 69.26844 
L 176.542456 69.829035 
L 177.114525 69.917125 
L 177.686594 69.530309 
L 178.258663 68.702266 
L 178.830732 67.497001 
L 179.97487 64.31512 
L 181.691077 59.139054 
L 182.835215 56.420983 
L 183.407285 55.431881 
L 183.979354 54.70626 
L 184.551423 54.233901 
L 185.123492 53.991715 
L 185.695561 53.949341 
L 186.26763 54.07494 
L 187.411768 54.725846 
L 188.555906 55.823928 
L 189.700044 57.366766 
L 191.416251 60.371584 
L 192.560389 62.330193 
L 193.132458 63.076727 
L 193.704527 63.564908 
L 194.276596 63.732674 
L 194.848665 63.538409 
L 195.420734 62.963925 
L 195.992803 62.014257 
L 196.564872 60.715277 
L 197.70901 57.261019 
L 199.997286 49.194345 
L 200.569355 47.619141 
L 201.141424 46.519706 
L 201.713493 46.052985 
L 202.285562 46.357505 
L 202.857631 47.534651 
L 203.4297 49.630553 
L 204.001769 52.622185 
L 205.145908 60.827941 
L 207.434184 79.910589 
L 208.578322 87.038832 
L 209.150391 89.493763 
L 209.72246 91.174304 
L 210.294529 92.114228 
L 210.866598 92.3776 
L 211.438667 92.043649 
L 212.010736 91.194328 
L 212.582805 89.905721 
L 213.726943 86.260846 
L 214.871081 81.496737 
L 216.015219 75.865304 
L 217.731426 66.28418 
L 220.019702 53.532566 
L 221.16384 48.727361 
L 221.735909 47.07065 
L 222.307978 46.013923 
L 222.880047 45.597167 
L 223.452116 45.822579 
L 224.024185 46.652871 
L 224.596254 48.014532 
L 225.740393 51.906525 
L 228.600738 62.971814 
L 229.744876 66.042355 
L 230.316945 67.08063 
L 230.889014 67.756089 
L 231.461083 68.056314 
L 232.033152 67.976656 
L 232.605221 67.519592 
L 233.17729 66.694296 
L 233.749359 65.516953 
L 234.893497 62.21529 
L 236.037635 57.959946 
L 237.753842 51.170406 
L 238.89798 47.605883 
L 239.470049 46.406454 
L 240.042118 45.672245 
L 240.614187 45.414162 
L 241.186256 45.602114 
L 241.758325 46.167813 
L 242.902463 48.019814 
L 244.046601 50.040785 
L 244.61867 50.847542 
L 245.190739 51.421023 
L 245.762808 51.725611 
L 246.334877 51.755584 
L 246.906946 51.529606 
L 247.479016 51.083767 
L 248.623154 49.723723 
L 250.91143 46.555992 
L 252.055568 45.487056 
L 252.627637 45.213843 
L 253.199706 45.15034 
L 253.771775 45.313649 
L 254.343844 45.712793 
L 254.915913 46.349482 
L 255.487982 47.219792 
L 256.63212 49.623919 
L 257.776258 52.813707 
L 259.492465 58.585243 
L 260.636603 62.444125 
L 261.780741 65.501724 
L 262.35281 66.491312 
L 262.924879 67.019801 
L 263.496948 67.043964 
L 264.069017 66.55393 
L 264.641086 65.573902 
L 265.213155 64.157292 
L 266.357293 60.324551 
L 270.361777 44.754357 
L 271.505915 41.581544 
L 272.077984 40.396255 
L 272.650053 39.503202 
L 273.222122 38.905993 
L 273.794191 38.594599 
L 274.36626 38.545812 
L 274.938329 38.725625 
L 275.510398 39.093091 
L 276.654536 40.221376 
L 278.370743 42.428039 
L 279.514881 44.147931 
L 280.659019 46.197896 
L 281.803157 48.669032 
L 284.091433 54.031697 
L 284.663502 55.095223 
L 285.235571 55.896675 
L 285.80764 56.373494 
L 286.379709 56.482504 
L 286.951778 56.204773 
L 287.523847 55.547995 
L 288.095916 54.544625 
L 289.240054 51.725576 
L 292.1004 43.391492 
L 293.244538 40.919876 
L 293.816607 40.031195 
L 294.388676 39.386401 
L 294.960745 38.974093 
L 295.532814 38.766168 
L 296.676952 38.783912 
L 298.965228 39.207719 
L 300.109366 39.340183 
L 300.681435 39.496597 
L 301.253504 39.794767 
L 301.825573 40.293622 
L 302.397642 41.038404 
L 302.969711 42.053828 
L 304.113849 44.881797 
L 305.257987 48.567347 
L 310.406608 66.646431 
L 311.550747 69.258699 
L 312.122816 70.189058 
L 312.694885 70.855758 
L 313.266954 71.264444 
L 313.839023 71.433021 
L 314.411092 71.39033 
L 314.983161 71.174183 
L 316.127299 70.400897 
L 317.843506 69.05864 
L 318.987644 68.384018 
L 321.27592 67.223772 
L 322.420058 66.183857 
L 323.564196 64.652852 
L 325.852472 61.216717 
L 326.424541 60.601475 
L 326.99661 60.181801 
L 327.568679 59.990681 
L 328.140748 60.053011 
L 328.712817 60.387959 
L 329.284886 61.010637 
L 329.284886 61.010637 
" style="fill:none;stroke:#1f77b4;stroke-linecap:square;stroke-opacity:0.5;stroke-width:0.5;"/>
   </g>
   <g id="patch_3">
    <path d="M 22.34125 97.5732 
L 22.34125 19.7622 
" style="fill:none;stroke:#000000;stroke-linecap:square;stroke-linejoin:miter;stroke-width:0.5;"/>
   </g>
   <g id="patch_4">
    <path d="M 343.90125 97.5732 
L 343.90125 19.7622 
" style="fill:none;stroke:#000000;stroke-linecap:square;stroke-linejoin:miter;stroke-width:0.5;"/>
   </g>
   <g id="patch_5">
    <path d="M 22.34125 97.5732 
L 343.90125 97.5732 
" style="fill:none;stroke:#000000;stroke-linecap:square;stroke-linejoin:miter;stroke-width:0.5;"/>
   </g>
   <g id="patch_6">
    <path d="M 22.34125 19.7622 
L 343.90125 19.7622 
" style="fill:none;stroke:#000000;stroke-linecap:square;stroke-linejoin:miter;stroke-width:0.5;"/>
   </g>
   <g id="legend_1">
    <g id="line2d_16">
     <path d="M 126.633594 11.724375 
L 138.633594 11.724375 
" style="fill:none;stroke:#ff7f0e;stroke-linecap:square;stroke-width:0.5;"/>
    </g>
    <g id="line2d_17"/>
    <g id="text_11">
     <!-- True state -->
     <defs>
      <path d="M 72.796875 44.90625 
L 70.796875 67.59375 
L 5.796875 67.59375 
L 3.796875 44.90625 
L 6.90625 44.90625 
C 8.296875 61.796875 10.59375 64.296875 25.90625 64.296875 
C 27.796875 64.296875 30.90625 64.296875 31.703125 64.09375 
C 33.59375 63.703125 33.703125 62.703125 33.703125 60.203125 
L 33.703125 8.203125 
C 33.703125 4.703125 33.703125 3.296875 23.296875 3.296875 
L 19.5 3.296875 
L 19.5 0 
C 23.203125 0.296875 34 0.296875 38.296875 0.296875 
C 42.59375 0.296875 53.40625 0.296875 57.09375 0 
L 57.09375 3.296875 
L 53.296875 3.296875 
C 42.90625 3.296875 42.90625 4.703125 42.90625 8.203125 
L 42.90625 60.203125 
C 42.90625 62.5 42.90625 63.703125 45 64.09375 
C 45.90625 64.296875 48.796875 64.296875 50.703125 64.296875 
C 66 64.296875 68.296875 61.796875 69.703125 44.90625 
z
" id="LMRoman8-Regular-84"/>
      <path d="M 56.203125 0 
L 56.203125 3.296875 
C 49.40625 3.296875 48.59375 4 48.59375 8.90625 
L 48.59375 44.09375 
L 33.40625 43 
L 33.40625 39.703125 
C 40.203125 39.703125 41 39 41 34.09375 
L 41 16.703125 
C 41 8.09375 35.796875 1.796875 28.296875 1.796875 
C 19.703125 1.796875 19.296875 6.09375 19.296875 11.09375 
L 19.296875 44.09375 
L 4.09375 43 
L 4.09375 39.703125 
C 11.703125 39.703125 11.703125 39.40625 11.703125 30.5 
L 11.703125 15.5 
C 11.703125 8.296875 11.703125 -1 27.703125 -1 
C 37.09375 -1 40.703125 6.203125 41.203125 7.09375 
L 41.296875 7.09375 
L 41.296875 -1 
z
" id="LMRoman8-Regular-117"/>
      <path d="M 38.296875 12.90625 
C 38.296875 17.703125 35.40625 24.703125 23.5 26.90625 
C 22.703125 27.09375 17.09375 28.09375 16.703125 28.09375 
C 13.59375 28.796875 8.90625 30.90625 8.90625 34.90625 
C 8.90625 37.90625 11.09375 42.09375 20.59375 42.09375 
C 31.796875 42.09375 32.296875 33.90625 32.5 31.09375 
C 32.59375 30.296875 33.296875 30 34 30 
C 35.59375 30 35.59375 30.703125 35.59375 32.59375 
L 35.59375 42 
C 35.59375 43.59375 35.59375 44.59375 34.296875 44.59375 
C 33.796875 44.59375 33.5 44.59375 31.90625 43 
C 31.703125 42.90625 30.796875 42 30.5 42 
C 30.5 42 30.203125 42 29.59375 42.40625 
C 28 43.5 25.09375 44.59375 20.59375 44.59375 
C 6.59375 44.59375 3.5 37 3.5 32.203125 
C 3.5 27.203125 7.203125 24.296875 7.5 24 
C 11.5 21 13.796875 20.59375 20.5 19.40625 
C 25.203125 18.5 32.90625 17.09375 32.90625 10.296875 
C 32.90625 6.40625 30.296875 1.796875 21.09375 1.796875 
C 11 1.796875 8.09375 9.59375 6.796875 14.90625 
C 6.40625 16.203125 6.296875 16.703125 5.09375 16.703125 
C 3.5 16.703125 3.5 15.90625 3.5 14 
L 3.5 1.59375 
C 3.5 0 3.5 -1 4.796875 -1 
C 5.40625 -1 5.5 -0.90625 7.296875 1 
C 7.796875 1.5 8.90625 2.796875 9.40625 3.296875 
C 13.90625 -0.796875 18.59375 -1 21.203125 -1 
C 33.90625 -1 38.296875 6.296875 38.296875 12.90625 
z
" id="LMRoman8-Regular-115"/>
     </defs>
     <g transform="translate(143.433594 13.824375)scale(0.06 -0.06)">
      <use xlink:href="#LMRoman8-Regular-84"/>
      <use x="76.699982" xlink:href="#LMRoman8-Regular-114"/>
      <use x="118.099976" xlink:href="#LMRoman8-Regular-117"/>
      <use x="177.09996" xlink:href="#LMRoman8-Regular-101"/>
      <use x="224.299957" xlink:href="#LMRoman8-Regular-32"/>
      <use x="259.699951" xlink:href="#LMRoman8-Regular-115"/>
      <use x="301.599945" xlink:href="#LMRoman8-Regular-116"/>
      <use x="342.899933" xlink:href="#LMRoman8-Regular-97"/>
      <use x="395.999924" xlink:href="#LMRoman8-Regular-116"/>
      <use x="437.299911" xlink:href="#LMRoman8-Regular-101"/>
     </g>
    </g>
    <g id="line2d_18">
     <path d="M 184.504531 11.724375 
L 196.504531 11.724375 
" style="fill:none;stroke:#1f77b4;stroke-linecap:square;stroke-opacity:0.5;stroke-width:0.5;"/>
    </g>
    <g id="line2d_19"/>
    <g id="text_12">
     <!-- State samples -->
     <defs>
      <path d="M 85.703125 0 
L 85.703125 3.296875 
C 79.296875 3.296875 78.09375 3.296875 78.09375 7.796875 
L 78.09375 30.296875 
C 78.09375 38.40625 74.59375 44.09375 63.703125 44.09375 
C 54.5 44.09375 49.90625 37.796875 48.296875 34.90625 
C 46.5 42.09375 40.796875 44.09375 34.296875 44.09375 
C 24.59375 44.09375 20 37.203125 18.703125 34.5 
L 18.59375 34.5 
L 18.59375 44.09375 
L 4.09375 43 
L 4.09375 39.703125 
C 10.90625 39.703125 11.703125 39 11.703125 34.09375 
L 11.703125 7.796875 
C 11.703125 3.296875 10.5 3.296875 4.09375 3.296875 
L 4.09375 0 
C 8.40625 0.296875 12.796875 0.296875 15.5 0.296875 
C 18.40625 0.296875 22.59375 0.296875 26.90625 0 
L 26.90625 3.296875 
C 20.5 3.296875 19.296875 3.296875 19.296875 7.796875 
L 19.296875 25.90625 
C 19.296875 36.40625 27.203125 41.296875 33.5 41.296875 
C 40 41.296875 41.09375 36.203125 41.09375 30.703125 
L 41.09375 7.796875 
C 41.09375 3.296875 39.90625 3.296875 33.5 3.296875 
L 33.5 0 
C 37.796875 0.296875 42.203125 0.296875 44.90625 0.296875 
C 47.796875 0.296875 52 0.296875 56.296875 0 
L 56.296875 3.296875 
C 49.90625 3.296875 48.703125 3.296875 48.703125 7.796875 
L 48.703125 25.90625 
C 48.703125 36.40625 56.59375 41.296875 62.90625 41.296875 
C 69.40625 41.296875 70.5 36.203125 70.5 30.703125 
L 70.5 7.796875 
C 70.5 3.296875 69.296875 3.296875 62.90625 3.296875 
L 62.90625 0 
C 67.203125 0.296875 71.59375 0.296875 74.296875 0.296875 
C 77.203125 0.296875 81.40625 0.296875 85.703125 0 
z
" id="LMRoman8-Regular-109"/>
     </defs>
     <g transform="translate(201.304531 13.824375)scale(0.06 -0.06)">
      <use xlink:href="#LMRoman8-Regular-83"/>
      <use x="58.999985" xlink:href="#LMRoman8-Regular-116"/>
      <use x="100.299973" xlink:href="#LMRoman8-Regular-97"/>
      <use x="153.399963" xlink:href="#LMRoman8-Regular-116"/>
      <use x="194.699951" xlink:href="#LMRoman8-Regular-101"/>
      <use x="241.899948" xlink:href="#LMRoman8-Regular-32"/>
      <use x="277.299942" xlink:href="#LMRoman8-Regular-115"/>
      <use x="319.199936" xlink:href="#LMRoman8-Regular-97"/>
      <use x="372.299927" xlink:href="#LMRoman8-Regular-109"/>
      <use x="460.799911" xlink:href="#LMRoman8-Regular-112"/>
      <use x="519.799896" xlink:href="#LMRoman8-Regular-108"/>
      <use x="549.299881" xlink:href="#LMRoman8-Regular-101"/>
      <use x="596.499878" xlink:href="#LMRoman8-Regular-115"/>
     </g>
    </g>
   </g>
  </g>
 </g>
 <defs>
  <clipPath id="p33258c6541">
   <rect height="77.811" width="321.56" x="22.34125" y="19.7622"/>
  </clipPath>
 </defs>
</svg>
