<?xml version="1.0" encoding="utf-8" standalone="no"?>
<!DOCTYPE svg PUBLIC "-//W3C//DTD SVG 1.1//EN"
  "http://www.w3.org/Graphics/SVG/1.1/DTD/svg11.dtd">
<!-- Created with matplotlib (https://matplotlib.org/) -->
<svg height="128.20195pt" version="1.1" viewBox="0 0 354.60125 128.20195" width="354.60125pt" xmlns="http://www.w3.org/2000/svg" xmlns:xlink="http://www.w3.org/1999/xlink">
 <defs>
  <style type="text/css">
*{stroke-linecap:butt;stroke-linejoin:round;}
  </style>
 </defs>
 <g id="figure_1">
  <g id="patch_1">
   <path d="M -0 128.20195 
L 354.60125 128.20195 
L 354.60125 0 
L -0 0 
z
" style="fill:#ffffff;"/>
  </g>
  <g id="axes_1">
   <g id="patch_2">
    <path d="M 22.34125 97.5732 
L 343.90125 97.5732 
L 343.90125 19.7622 
L 22.34125 19.7622 
z
" style="fill:#ffffff;"/>
   </g>
   <g id="matplotlib.axis_1">
    <g id="xtick_1">
     <g id="line2d_1">
      <defs>
       <path d="M 0 0 
L 0 3.5 
" id="md33ffed38a" style="stroke:#000000;stroke-width:0.8;"/>
      </defs>
      <g>
       <use style="stroke:#000000;stroke-width:0.8;" x="36.671579" xlink:href="#md33ffed38a" y="97.5732"/>
      </g>
     </g>
     <g id="text_1">
      <!-- 0.0 -->
      <defs>
       <path d="M 48.90625 31.90625 
C 48.90625 42.59375 47.796875 49.09375 44.5 55.5 
C 40.09375 64.296875 32 66.5 26.5 66.5 
C 13.90625 66.5 9.296875 57.09375 7.90625 54.296875 
C 4.296875 47 4.09375 37.09375 4.09375 31.90625 
C 4.09375 25.296875 4.40625 15.203125 9.203125 7.203125 
C 13.796875 -0.203125 21.203125 -2.09375 26.5 -2.09375 
C 31.296875 -2.09375 39.90625 -0.59375 44.90625 9.296875 
C 48.59375 16.5 48.90625 25.40625 48.90625 31.90625 
z
M 40 33.09375 
C 40 27.203125 40 18.203125 38.796875 12.59375 
C 36.703125 2.09375 29.796875 0.703125 26.5 0.703125 
C 23.09375 0.703125 16.203125 2.296875 14.09375 12.796875 
C 13 18.5 13 27.90625 13 33.09375 
C 13 40 13 47 14.09375 52.5 
C 16.203125 62.703125 24 63.703125 26.5 63.703125 
C 29.90625 63.703125 36.796875 62 38.796875 52.90625 
C 40 47.40625 40 39.90625 40 33.09375 
z
" id="LMRoman8-Regular-48"/>
       <path d="M 20.296875 5.5 
C 20.296875 8.90625 17.59375 11.09375 14.796875 11.09375 
C 11.40625 11.09375 9.203125 8.40625 9.203125 5.59375 
C 9.203125 2.203125 11.90625 0 14.703125 0 
C 18.09375 0 20.296875 2.703125 20.296875 5.5 
z
" id="LMRoman8-Regular-46"/>
      </defs>
      <g transform="translate(32.600954 108.737575)scale(0.06 -0.06)">
       <use xlink:href="#LMRoman8-Regular-48"/>
       <use x="53.099991" xlink:href="#LMRoman8-Regular-46"/>
       <use x="82.599976" xlink:href="#LMRoman8-Regular-48"/>
      </g>
     </g>
    </g>
    <g id="xtick_2">
     <g id="line2d_2">
      <g>
       <use style="stroke:#000000;stroke-width:0.8;" x="95.251447" xlink:href="#md33ffed38a" y="97.5732"/>
      </g>
     </g>
     <g id="text_2">
      <!-- 0.2 -->
      <defs>
       <path d="M 47.703125 17.90625 
L 44.59375 17.90625 
C 44.296875 15.90625 43.5 10.90625 42.296875 9 
C 41.703125 8.203125 34.09375 8.203125 32.5 8.203125 
L 14.703125 8.203125 
L 28.203125 20.40625 
C 29.796875 21.90625 34 25.203125 35.59375 26.59375 
C 41.796875 32.296875 47.703125 37.796875 47.703125 46.90625 
C 47.703125 58.796875 37.703125 66.5 25.203125 66.5 
C 13.203125 66.5 5.296875 57.40625 5.296875 48.5 
C 5.296875 43.59375 9.203125 42.90625 10.59375 42.90625 
C 12.703125 42.90625 15.796875 44.40625 15.796875 48.203125 
C 15.796875 53.40625 10.796875 53.40625 9.59375 53.40625 
C 12.5 60.703125 19.203125 63.203125 24.09375 63.203125 
C 33.40625 63.203125 38.203125 55.296875 38.203125 46.90625 
C 38.203125 36.5 30.90625 28.90625 19.09375 16.796875 
L 6.5 3.796875 
C 5.296875 2.703125 5.296875 2.5 5.296875 0 
L 44.796875 0 
z
" id="LMRoman8-Regular-50"/>
      </defs>
      <g transform="translate(91.180822 108.737575)scale(0.06 -0.06)">
       <use xlink:href="#LMRoman8-Regular-48"/>
       <use x="53.099991" xlink:href="#LMRoman8-Regular-46"/>
       <use x="82.599976" xlink:href="#LMRoman8-Regular-50"/>
      </g>
     </g>
    </g>
    <g id="xtick_3">
     <g id="line2d_3">
      <g>
       <use style="stroke:#000000;stroke-width:0.8;" x="153.831316" xlink:href="#md33ffed38a" y="97.5732"/>
      </g>
     </g>
     <g id="text_3">
      <!-- 0.4 -->
      <defs>
       <path d="M 50 16.40625 
L 50 19.703125 
L 39.40625 19.703125 
L 39.40625 64.703125 
C 39.40625 66.703125 39.40625 67.5 37.296875 67.5 
C 36 67.5 35.90625 67.40625 34.90625 66 
L 3 19.703125 
L 3 16.40625 
L 31.203125 16.40625 
L 31.203125 8.09375 
C 31.203125 4.40625 30.90625 3.296875 23.203125 3.296875 
L 20.90625 3.296875 
L 20.90625 0 
L 35.296875 0.296875 
L 49.703125 0 
L 49.703125 3.296875 
L 47.40625 3.296875 
C 39.703125 3.296875 39.40625 4.40625 39.40625 8.09375 
L 39.40625 16.40625 
z
M 31.90625 19.703125 
L 6.5 19.703125 
L 31.90625 56.59375 
z
" id="LMRoman8-Regular-52"/>
      </defs>
      <g transform="translate(149.760691 108.737575)scale(0.06 -0.06)">
       <use xlink:href="#LMRoman8-Regular-48"/>
       <use x="53.099991" xlink:href="#LMRoman8-Regular-46"/>
       <use x="82.599976" xlink:href="#LMRoman8-Regular-52"/>
      </g>
     </g>
    </g>
    <g id="xtick_4">
     <g id="line2d_4">
      <g>
       <use style="stroke:#000000;stroke-width:0.8;" x="212.411184" xlink:href="#md33ffed38a" y="97.5732"/>
      </g>
     </g>
     <g id="text_4">
      <!-- 0.6 -->
      <defs>
       <path d="M 48.59375 20.296875 
C 48.59375 33.40625 38.703125 42.59375 27.59375 42.59375 
C 20.40625 42.59375 16.09375 38 13.796875 33.09375 
C 13.796875 41.40625 14.5 48.703125 18.09375 54.796875 
C 21.09375 59.796875 26.203125 63.90625 32.5 63.90625 
C 34.5 63.90625 39.09375 63.59375 41.40625 60.09375 
C 36.90625 59.90625 36.5 56.5 36.5 55.40625 
C 36.5 52.40625 38.796875 50.703125 41.203125 50.703125 
C 43 50.703125 45.90625 51.796875 45.90625 55.59375 
C 45.90625 61.59375 41.40625 66.5 32.40625 66.5 
C 18.5 66.5 4.40625 53.296875 4.40625 31.703125 
C 4.40625 4.59375 17 -2.09375 26.703125 -2.09375 
C 31.5 -2.09375 36.703125 -0.796875 41.203125 3.5 
C 45.203125 7.40625 48.59375 11.59375 48.59375 20.296875 
z
M 39.203125 20.40625 
C 39.203125 15.296875 39.203125 10.90625 37.203125 7.296875 
C 34.59375 2.703125 31.09375 0.90625 26.703125 0.90625 
C 21.40625 0.90625 18.09375 4.59375 16.59375 7.40625 
C 14.296875 11.90625 14.09375 18.703125 14.09375 22.5 
C 14.09375 32.40625 19.5 39.796875 27.203125 39.796875 
C 32.203125 39.796875 35.203125 37.203125 37.09375 33.703125 
C 39.203125 30 39.203125 25.5 39.203125 20.40625 
z
" id="LMRoman8-Regular-54"/>
      </defs>
      <g transform="translate(208.340559 108.737575)scale(0.06 -0.06)">
       <use xlink:href="#LMRoman8-Regular-48"/>
       <use x="53.099991" xlink:href="#LMRoman8-Regular-46"/>
       <use x="82.599976" xlink:href="#LMRoman8-Regular-54"/>
      </g>
     </g>
    </g>
    <g id="xtick_5">
     <g id="line2d_5">
      <g>
       <use style="stroke:#000000;stroke-width:0.8;" x="270.991053" xlink:href="#md33ffed38a" y="97.5732"/>
      </g>
     </g>
     <g id="text_5">
      <!-- 0.8 -->
      <defs>
       <path d="M 48.59375 16.796875 
C 48.59375 23.09375 45.203125 27.296875 43.59375 29 
C 41.90625 30.59375 41.796875 30.703125 33.203125 36.09375 
C 38.796875 38.796875 45.59375 43.796875 45.59375 51.59375 
C 45.59375 61.09375 35.90625 66.5 26.59375 66.5 
C 16 66.5 7.40625 59.203125 7.40625 49.796875 
C 7.40625 46.09375 8.703125 42.703125 11.203125 39.796875 
C 12.90625 37.703125 13.296875 37.5 19.5 33.59375 
C 7.09375 28.09375 4.40625 20.796875 4.40625 15.203125 
C 4.40625 4.203125 15.5 -2.09375 26.40625 -2.09375 
C 38.703125 -2.09375 48.59375 6.203125 48.59375 16.796875 
z
M 40.59375 51.59375 
C 40.59375 45.796875 36.09375 40.90625 30.203125 38 
L 17.703125 45.5 
C 14.796875 47.203125 12.40625 50.09375 12.40625 53.59375 
C 12.40625 59.90625 19.296875 63.90625 26.40625 63.90625 
C 34.203125 63.90625 40.59375 58.59375 40.59375 51.59375 
z
M 42.90625 13.40625 
C 42.90625 5.703125 34.796875 0.90625 26.59375 0.90625 
C 17.703125 0.90625 10.09375 7 10.09375 15.203125 
C 10.09375 22.703125 15.703125 28.59375 22.59375 31.796875 
L 36.09375 23.5 
C 37.703125 22.59375 42.90625 19.40625 42.90625 13.40625 
z
" id="LMRoman8-Regular-56"/>
      </defs>
      <g transform="translate(266.920428 108.737575)scale(0.06 -0.06)">
       <use xlink:href="#LMRoman8-Regular-48"/>
       <use x="53.099991" xlink:href="#LMRoman8-Regular-46"/>
       <use x="82.599976" xlink:href="#LMRoman8-Regular-56"/>
      </g>
     </g>
    </g>
    <g id="xtick_6">
     <g id="line2d_6">
      <g>
       <use style="stroke:#000000;stroke-width:0.8;" x="329.570921" xlink:href="#md33ffed38a" y="97.5732"/>
      </g>
     </g>
     <g id="text_6">
      <!-- 1.0 -->
      <defs>
       <path d="M 44.703125 0 
L 44.703125 3.296875 
L 41.203125 3.296875 
C 31.703125 3.296875 31.40625 4.5 31.40625 8.203125 
L 31.40625 63.703125 
C 31.40625 66.40625 31.203125 66.5 28.5 66.5 
C 24.40625 62.5 19.09375 60.09375 9.59375 60.09375 
L 9.59375 56.796875 
C 12.296875 56.796875 17.703125 56.796875 23.5 59.5 
L 23.5 8.203125 
C 23.5 4.5 23.203125 3.296875 13.703125 3.296875 
L 10.203125 3.296875 
L 10.203125 0 
C 14.296875 0.296875 22.90625 0.296875 27.40625 0.296875 
C 31.90625 0.296875 40.59375 0.296875 44.703125 0 
z
" id="LMRoman8-Regular-49"/>
      </defs>
      <g transform="translate(325.500296 108.737575)scale(0.06 -0.06)">
       <use xlink:href="#LMRoman8-Regular-49"/>
       <use x="53.099991" xlink:href="#LMRoman8-Regular-46"/>
       <use x="82.599976" xlink:href="#LMRoman8-Regular-48"/>
      </g>
     </g>
    </g>
    <g id="text_7">
     <!-- Spatial coordinate $s$ -->
     <defs>
      <path d="M 53 18.5 
C 53 27.203125 47.296875 36.09375 37.09375 38.5 
L 23.296875 41.703125 
C 16.90625 43.203125 12.203125 48.296875 12.203125 54.40625 
C 12.203125 61.09375 18 67.40625 26.703125 67.40625 
C 44 67.40625 46.296875 51.203125 46.796875 47.40625 
C 47 46.296875 47.09375 45.59375 48.40625 45.59375 
C 50 45.59375 50 46.296875 50 48.203125 
L 50 67.796875 
C 50 69.40625 50 70.40625 48.703125 70.40625 
C 47.90625 70.40625 47.703125 70.09375 47 69 
L 43.5 63.40625 
C 38.5 68.90625 32.09375 70.40625 26.59375 70.40625 
C 14.703125 70.40625 5.90625 61.40625 5.90625 51.203125 
C 5.90625 43.59375 10.203125 39.40625 12.09375 37.5 
C 15.703125 33.90625 19 33.09375 29.796875 30.59375 
C 38.40625 28.59375 39.90625 28.296875 43.203125 24.796875 
C 44.203125 23.703125 46.703125 20.296875 46.703125 15.40625 
C 46.703125 8.5 41.40625 1.203125 32 1.203125 
C 21 1.203125 9.59375 6.5 9 20.40625 
C 8.90625 22 8.90625 22.703125 7.5 22.703125 
C 5.90625 22.703125 5.90625 21.90625 5.90625 20 
L 5.90625 0.5 
C 5.90625 -1.09375 5.90625 -2.09375 7.203125 -2.09375 
C 8 -2.09375 8.09375 -1.90625 8.796875 -0.90625 
C 9.203125 -0.296875 9.59375 0.59375 12.40625 4.796875 
C 18.703125 -0.796875 26.09375 -2.09375 32.09375 -2.09375 
C 44.59375 -2.09375 53 7.796875 53 18.5 
z
" id="LMRoman8-Regular-83"/>
      <path d="M 55.40625 21.59375 
C 55.40625 34.09375 45.296875 44.09375 33.203125 44.09375 
C 29.296875 44.09375 23.5 43.09375 18.40625 37.90625 
L 18.40625 44.09375 
L 3.5 43 
L 3.5 39.703125 
C 10.59375 39.703125 11.09375 39.09375 11.09375 34.90625 
L 11.09375 -11.59375 
C 11.09375 -16.09375 9.90625 -16.09375 3.5 -16.09375 
L 3.5 -19.40625 
C 7.796875 -19.09375 12.203125 -19.09375 14.90625 -19.09375 
C 17.796875 -19.09375 22 -19.09375 26.296875 -19.40625 
L 26.296875 -16.09375 
C 19.90625 -16.09375 18.703125 -16.09375 18.703125 -11.59375 
L 18.703125 4.90625 
C 23.40625 -0.203125 28.5 -1 31.703125 -1 
C 44.40625 -1 55.40625 8.796875 55.40625 21.59375 
z
M 46.5 21.59375 
C 46.5 10.09375 39.296875 1.796875 31.203125 1.796875 
C 27.703125 1.796875 23.09375 3.296875 19.90625 8.296875 
C 18.703125 10 18.703125 10.09375 18.703125 12 
L 18.703125 33.296875 
C 21 37.296875 26 41 32.296875 41 
C 40 41 46.5 32.5 46.5 21.59375 
z
" id="LMRoman8-Regular-112"/>
      <path d="M 51.40625 9 
L 51.40625 14.5 
L 48.296875 14.5 
L 48.296875 9 
C 48.296875 4.90625 46.796875 3.296875 44.703125 3.296875 
C 41 3.296875 41 7.90625 41 9 
L 41 29.796875 
C 41 39.59375 31.5 44.59375 22.40625 44.59375 
C 14.09375 44.59375 6.703125 41.40625 6.703125 34.796875 
C 6.703125 31.796875 8.796875 30 11.40625 30 
C 14.203125 30 16.09375 32 16.09375 34.703125 
C 16.09375 37.09375 14.59375 38.796875 12.40625 39.296875 
C 16.09375 41.796875 21.5 41.796875 22.203125 41.796875 
C 27.796875 41.796875 33.40625 37.90625 33.40625 29.703125 
L 33.40625 26.59375 
C 27.59375 26.296875 20.90625 26 13.90625 23.09375 
C 5.09375 19.296875 3.40625 13.5 3.40625 10.203125 
C 3.40625 1.59375 13.5 -1 20.40625 -1 
C 27.703125 -1 32.203125 3.09375 34.40625 7.09375 
C 34.90625 3.296875 37.5 -0.5 41.90625 -0.5 
C 42.90625 -0.5 51.40625 -0.09375 51.40625 9 
z
M 33.40625 14.09375 
C 33.40625 4.40625 25.203125 1.796875 21.203125 1.796875 
C 16 1.796875 11.59375 5.296875 11.59375 10.09375 
C 11.59375 16.703125 17.796875 23.5 33.40625 24 
z
" id="LMRoman8-Regular-97"/>
      <path d="M 35.296875 12.5 
L 35.296875 18.09375 
L 32.203125 18.09375 
L 32.203125 12.703125 
C 32.203125 5.796875 29.09375 2.09375 25.296875 2.09375 
C 18.59375 2.09375 18.59375 10.703125 18.59375 12.296875 
L 18.59375 39.796875 
L 33.5 39.796875 
L 33.5 43.09375 
L 18.59375 43.09375 
L 18.59375 61.5 
L 15.5 61.5 
C 15.40625 52.40625 11.296875 42.90625 2 42.59375 
L 2 39.796875 
L 11 39.796875 
L 11 12.5 
C 11 0.796875 20 -1 24.59375 -1 
C 31.296875 -1 35.296875 5 35.296875 12.5 
z
" id="LMRoman8-Regular-116"/>
      <path d="M 26 0 
L 26 3.296875 
C 19.5 3.296875 19.09375 3.796875 19.09375 7.703125 
L 19.09375 44.09375 
L 4.5 43 
L 4.5 39.703125 
C 10.90625 39.703125 11.796875 39.09375 11.796875 34.203125 
L 11.796875 7.796875 
C 11.796875 3.296875 10.59375 3.296875 4.203125 3.296875 
L 4.203125 0 
C 8.09375 0.296875 13.703125 0.296875 15.203125 0.296875 
C 16.5 0.296875 22.5 0.296875 26 0 
z
M 20.296875 60.203125 
C 20.296875 63.5 17.703125 65.796875 14.796875 65.796875 
C 11.90625 65.796875 9.296875 63.5 9.296875 60.203125 
C 9.296875 57.296875 11.59375 54.703125 14.796875 54.703125 
C 17.90625 54.703125 20.296875 57.296875 20.296875 60.203125 
z
" id="LMRoman8-Regular-105"/>
      <path d="M 26.703125 0 
L 26.703125 3.296875 
C 20.296875 3.296875 19.09375 3.296875 19.09375 7.796875 
L 19.09375 69.40625 
L 4.203125 68.296875 
L 4.203125 65 
C 11 65 11.796875 64.296875 11.796875 59.40625 
L 11.796875 7.796875 
C 11.796875 3.296875 10.59375 3.296875 4.203125 3.296875 
L 4.203125 0 
C 8.09375 0.296875 13.703125 0.296875 15.40625 0.296875 
C 17.40625 0.296875 22.796875 0.296875 26.703125 0 
z
" id="LMRoman8-Regular-108"/>
      <path id="LMRoman8-Regular-32"/>
      <path d="M 44.09375 12 
C 44.09375 13.203125 42.796875 13.203125 42.5 13.203125 
C 41.796875 13.203125 41.296875 13.09375 41 12.09375 
C 40.296875 10 37.5 2.09375 27.5 2.09375 
C 21.296875 2.09375 12.40625 6.90625 12.40625 21.703125 
C 12.40625 36.09375 19.796875 41.5 27.09375 41.5 
C 28 41.5 33.296875 41.5 36.796875 39.703125 
C 34 38.796875 33.59375 36.5 33.59375 35.296875 
C 33.59375 32.59375 35.5 30.59375 38.296875 30.59375 
C 40.90625 30.59375 43 32.40625 43 35.40625 
C 43 41.59375 36.203125 44.59375 26.796875 44.59375 
C 12.90625 44.59375 3.5 33.5 3.5 21.59375 
C 3.5 8.90625 13.90625 -1 26.5 -1 
C 40.59375 -1 44.09375 10.796875 44.09375 12 
z
" id="LMRoman8-Regular-99"/>
      <path d="M 50 21.296875 
C 50 33.796875 39.703125 44.59375 26.5 44.59375 
C 13.296875 44.59375 3 33.796875 3 21.296875 
C 3 8.796875 13.703125 -1 26.5 -1 
C 39.40625 -1 50 8.796875 50 21.296875 
z
M 41.09375 22.203125 
C 41.09375 17.59375 40.90625 12.09375 38.09375 7.90625 
C 35.40625 3.90625 30.90625 2.09375 26.5 2.09375 
C 21.09375 2.09375 16.90625 4.703125 14.703125 8.203125 
C 12.203125 12.296875 11.90625 17.203125 11.90625 22.203125 
C 11.90625 26 11.90625 32 15 36.296875 
C 17.59375 39.796875 21.796875 41.796875 26.5 41.796875 
C 31.703125 41.796875 36 39.296875 38.296875 35.796875 
C 41 31.59375 41.09375 26.203125 41.09375 22.203125 
z
" id="LMRoman8-Regular-111"/>
      <path d="M 38.40625 37.796875 
C 38.40625 41.296875 35.203125 44.09375 30.796875 44.09375 
C 24.296875 44.09375 19.90625 39.203125 17.796875 33.59375 
L 17.703125 33.59375 
L 17.703125 44.09375 
L 3.5 43 
L 3.5 39.703125 
C 10.296875 39.703125 11.09375 39 11.09375 34.09375 
L 11.09375 7.796875 
C 11.09375 3.296875 9.90625 3.296875 3.5 3.296875 
L 3.5 0 
C 7.40625 0.296875 12.90625 0.296875 15.296875 0.296875 
C 21.203125 0.296875 21.40625 0.296875 27.90625 0 
L 27.90625 3.296875 
L 25.90625 3.296875 
C 18.59375 3.296875 18.40625 4.40625 18.40625 8 
L 18.40625 22.796875 
C 18.40625 30.296875 21.5 41.09375 31.09375 41.296875 
C 30.5 40.90625 29.5 40.09375 29.5 37.796875 
C 29.5 34.703125 31.90625 33.296875 33.90625 33.296875 
C 36.296875 33.296875 38.40625 34.90625 38.40625 37.796875 
z
" id="LMRoman8-Regular-114"/>
      <path d="M 55.40625 0 
L 55.40625 3.296875 
C 48.59375 3.296875 47.796875 4 47.796875 8.90625 
L 47.796875 69.40625 
L 32.90625 68.296875 
L 32.90625 65 
C 39.703125 65 40.5 64.296875 40.5 59.40625 
L 40.5 38.296875 
C 37 42.09375 32.296875 44.09375 27.09375 44.09375 
C 14.59375 44.09375 3.5 34.40625 3.5 21.5 
C 3.5 9.203125 13.5 -1 26.09375 -1 
C 32 -1 36.90625 1.796875 40.203125 5.296875 
L 40.203125 -1 
z
M 40.203125 12.40625 
C 40.203125 10.59375 40.203125 10.203125 38.703125 8.203125 
C 35.90625 4.203125 31.296875 1.796875 26.59375 1.796875 
C 22 1.796875 18 4.203125 15.59375 7.90625 
C 12.90625 11.796875 12.40625 16.703125 12.40625 21.40625 
C 12.40625 27.203125 13.296875 31.296875 15.59375 34.796875 
C 18 38.5 22.5 41.296875 27.59375 41.296875 
C 32.40625 41.296875 37.203125 38.90625 40.203125 33.703125 
z
" id="LMRoman8-Regular-100"/>
      <path d="M 56.203125 0 
L 56.203125 3.296875 
C 49.796875 3.296875 48.59375 3.296875 48.59375 7.796875 
L 48.59375 30.296875 
C 48.59375 38.703125 44.796875 44.09375 34.296875 44.09375 
C 24.40625 44.09375 19.90625 36.90625 18.703125 34.5 
L 18.59375 34.5 
L 18.59375 44.09375 
L 4.09375 43 
L 4.09375 39.703125 
C 10.90625 39.703125 11.703125 39 11.703125 34.09375 
L 11.703125 7.796875 
C 11.703125 3.296875 10.5 3.296875 4.09375 3.296875 
L 4.09375 0 
C 8.40625 0.296875 12.796875 0.296875 15.5 0.296875 
C 18.40625 0.296875 22.59375 0.296875 26.90625 0 
L 26.90625 3.296875 
C 20.5 3.296875 19.296875 3.296875 19.296875 7.796875 
L 19.296875 25.90625 
C 19.296875 36.40625 27.296875 41.296875 33.40625 41.296875 
C 39.5 41.296875 41 37 41 30.703125 
L 41 7.796875 
C 41 3.296875 39.796875 3.296875 33.40625 3.296875 
L 33.40625 0 
C 37.703125 0.296875 42.09375 0.296875 44.796875 0.296875 
C 47.703125 0.296875 51.90625 0.296875 56.203125 0 
z
" id="LMRoman8-Regular-110"/>
      <path d="M 44.09375 12 
C 44.09375 12.40625 43.796875 13.40625 42.5 13.40625 
C 41.40625 13.40625 41.203125 12.703125 41 12.09375 
C 37.40625 2.40625 28.796875 2.09375 27 2.09375 
C 22.5 2.09375 17.90625 4.203125 14.90625 8.796875 
C 11.90625 13.40625 11.90625 19.796875 11.90625 22.796875 
L 41.296875 22.796875 
C 43.5 22.796875 44.09375 22.796875 44.09375 25.09375 
C 44.09375 34 39.203125 44.59375 25.09375 44.59375 
C 12.703125 44.59375 3 34.296875 3 21.90625 
C 3 9 13.796875 -1 26.40625 -1 
C 39.09375 -1 44.09375 9.703125 44.09375 12 
z
M 37.296875 25.40625 
L 12 25.40625 
C 12.90625 39.40625 21.40625 41.796875 25.09375 41.796875 
C 36.796875 41.796875 37.203125 27.703125 37.296875 25.40625 
z
" id="LMRoman8-Regular-101"/>
      <path d="M 8.6875 6.109375 
Q 11.375 1.515625 19.484375 1.515625 
Q 23 1.515625 26.171875 2.703125 
Q 29.34375 3.90625 31.421875 6.296875 
Q 33.5 8.6875 33.5 12.109375 
Q 33.5 14.703125 31.640625 16.359375 
Q 29.78125 18.015625 27.09375 18.609375 
L 21.6875 19.671875 
Q 17.96875 20.609375 15.578125 23.140625 
Q 13.1875 25.6875 13.1875 29.296875 
Q 13.1875 33.734375 15.59375 37.15625 
Q 18.015625 40.578125 21.96875 42.375 
Q 25.921875 44.1875 30.171875 44.1875 
Q 34.71875 44.1875 38.296875 42.015625 
Q 41.890625 39.84375 41.890625 35.59375 
Q 41.890625 33.296875 40.59375 31.53125 
Q 39.3125 29.78125 37.015625 29.78125 
Q 35.6875 29.78125 34.734375 30.640625 
Q 33.796875 31.5 33.796875 32.8125 
Q 33.796875 33.984375 34.453125 35.078125 
Q 35.109375 36.1875 36.203125 36.84375 
Q 37.3125 37.5 38.484375 37.5 
Q 37.59375 39.65625 35.171875 40.625 
Q 32.765625 41.609375 29.984375 41.609375 
Q 27.4375 41.609375 24.890625 40.578125 
Q 22.359375 39.546875 20.8125 37.5625 
Q 19.28125 35.59375 19.28125 32.90625 
Q 19.28125 31.109375 20.546875 29.734375 
Q 21.828125 28.375 23.6875 27.78125 
L 29.5 26.609375 
Q 32.28125 26.03125 34.59375 24.53125 
Q 36.921875 23.046875 38.25 20.765625 
Q 39.59375 18.5 39.59375 15.578125 
Q 39.59375 11.859375 37.515625 8.25 
Q 35.453125 4.640625 32.421875 2.484375 
Q 27.09375 -1.125 19.390625 -1.125 
Q 14.0625 -1.125 9.609375 1.3125 
Q 5.171875 3.765625 5.171875 8.59375 
Q 5.171875 11.328125 6.75 13.34375 
Q 8.34375 15.375 11.078125 15.375 
Q 12.703125 15.375 13.796875 14.390625 
Q 14.890625 13.421875 14.890625 11.8125 
Q 14.890625 9.515625 13.171875 7.8125 
Q 11.46875 6.109375 9.1875 6.109375 
z
" id="Cmmi10-115"/>
     </defs>
     <g transform="translate(136.82125 119.00195)scale(0.1 -0.1)">
      <use transform="translate(0 0.59375)" xlink:href="#LMRoman8-Regular-83"/>
      <use transform="translate(58.999985 0.59375)" xlink:href="#LMRoman8-Regular-112"/>
      <use transform="translate(117.999969 0.59375)" xlink:href="#LMRoman8-Regular-97"/>
      <use transform="translate(171.09996 0.59375)" xlink:href="#LMRoman8-Regular-116"/>
      <use transform="translate(212.399948 0.59375)" xlink:href="#LMRoman8-Regular-105"/>
      <use transform="translate(241.899933 0.59375)" xlink:href="#LMRoman8-Regular-97"/>
      <use transform="translate(294.999924 0.59375)" xlink:href="#LMRoman8-Regular-108"/>
      <use transform="translate(324.499908 0.59375)" xlink:href="#LMRoman8-Regular-32"/>
      <use transform="translate(359.899902 0.59375)" xlink:href="#LMRoman8-Regular-99"/>
      <use transform="translate(407.099899 0.59375)" xlink:href="#LMRoman8-Regular-111"/>
      <use transform="translate(460.19989 0.59375)" xlink:href="#LMRoman8-Regular-111"/>
      <use transform="translate(513.299881 0.59375)" xlink:href="#LMRoman8-Regular-114"/>
      <use transform="translate(554.699875 0.59375)" xlink:href="#LMRoman8-Regular-100"/>
      <use transform="translate(613.69986 0.59375)" xlink:href="#LMRoman8-Regular-105"/>
      <use transform="translate(643.199844 0.59375)" xlink:href="#LMRoman8-Regular-110"/>
      <use transform="translate(702.199829 0.59375)" xlink:href="#LMRoman8-Regular-97"/>
      <use transform="translate(755.29982 0.59375)" xlink:href="#LMRoman8-Regular-116"/>
      <use transform="translate(796.599808 0.59375)" xlink:href="#LMRoman8-Regular-101"/>
      <use transform="translate(843.799805 0.59375)" xlink:href="#LMRoman8-Regular-32"/>
      <use transform="translate(879.199799 0.59375)" xlink:href="#Cmmi10-115"/>
     </g>
    </g>
   </g>
   <g id="matplotlib.axis_2">
    <g id="ytick_1">
     <g id="line2d_7">
      <defs>
       <path d="M 0 0 
L -3.5 0 
" id="mb5231bf042" style="stroke:#000000;stroke-width:0.8;"/>
      </defs>
      <g>
       <use style="stroke:#000000;stroke-width:0.8;" x="22.34125" xlink:href="#mb5231bf042" y="96.923916"/>
      </g>
     </g>
     <g id="text_8">
      <!-- −4 -->
      <defs>
       <path d="M 76.59375 25 
C 76.59375 27.296875 74.203125 27.296875 72.703125 27.296875 
L 9.796875 27.296875 
C 8.296875 27.296875 5.90625 27.296875 5.90625 25 
C 5.90625 22.703125 7.90625 22.703125 9.40625 22.703125 
L 73.09375 22.703125 
C 74.59375 22.703125 76.59375 22.703125 76.59375 25 
z
" id="LMRoman8-Regular-8722"/>
      </defs>
      <g transform="translate(7.2 99.006104)scale(0.06 -0.06)">
       <use xlink:href="#LMRoman8-Regular-8722"/>
       <use x="82.599991" xlink:href="#LMRoman8-Regular-52"/>
      </g>
     </g>
    </g>
    <g id="ytick_2">
     <g id="line2d_8">
      <g>
       <use style="stroke:#000000;stroke-width:0.8;" x="22.34125" xlink:href="#mb5231bf042" y="75.864409"/>
      </g>
     </g>
     <g id="text_9">
      <!-- −2 -->
      <g transform="translate(7.2 77.946597)scale(0.06 -0.06)">
       <use xlink:href="#LMRoman8-Regular-8722"/>
       <use x="82.599991" xlink:href="#LMRoman8-Regular-50"/>
      </g>
     </g>
    </g>
    <g id="ytick_3">
     <g id="line2d_9">
      <g>
       <use style="stroke:#000000;stroke-width:0.8;" x="22.34125" xlink:href="#mb5231bf042" y="54.804902"/>
      </g>
     </g>
     <g id="text_10">
      <!-- 0 -->
      <g transform="translate(12.155625 56.887089)scale(0.06 -0.06)">
       <use xlink:href="#LMRoman8-Regular-48"/>
      </g>
     </g>
    </g>
    <g id="ytick_4">
     <g id="line2d_10">
      <g>
       <use style="stroke:#000000;stroke-width:0.8;" x="22.34125" xlink:href="#mb5231bf042" y="33.745395"/>
      </g>
     </g>
     <g id="text_11">
      <!-- 2 -->
      <g transform="translate(12.155625 35.827582)scale(0.06 -0.06)">
       <use xlink:href="#LMRoman8-Regular-50"/>
      </g>
     </g>
    </g>
   </g>
   <g id="line2d_11">
    <path clip-path="url(#p2ee56c52ad)" d="M 36.957614 52.894464 
L 37.529683 54.375648 
L 38.673821 58.589241 
L 40.962097 68.546815 
L 42.106235 72.225743 
L 42.678304 73.442042 
L 43.250373 74.205569 
L 43.822442 74.5177 
L 44.394511 74.395698 
L 44.96658 73.867315 
L 45.538649 72.967609 
L 46.110718 71.738038 
L 47.254856 68.489872 
L 49.543132 60.527145 
L 51.259339 54.861949 
L 54.119684 46.514302 
L 55.835892 41.977199 
L 56.98003 39.691768 
L 57.552099 38.926306 
L 58.124168 38.465515 
L 58.696237 38.332495 
L 59.268306 38.536305 
L 59.840375 39.073613 
L 60.412444 39.93085 
L 60.984513 41.085728 
L 62.128651 44.155822 
L 63.844858 49.896689 
L 64.988996 53.665672 
L 66.133134 56.689355 
L 66.705203 57.780886 
L 67.277272 58.553414 
L 67.849341 59.003802 
L 68.42141 59.148447 
L 68.993479 59.020228 
L 69.565548 58.664369 
L 70.709686 57.483999 
L 72.997962 54.676665 
L 74.1421 53.601878 
L 75.286238 52.877679 
L 76.430376 52.504227 
L 77.574515 52.492763 
L 78.718653 52.871639 
L 79.862791 53.606397 
L 81.578998 54.899319 
L 82.151067 55.190091 
L 82.723136 55.320454 
L 83.295205 55.244733 
L 83.867274 54.930656 
L 84.439343 54.362712 
L 85.011412 53.543153 
L 86.15555 51.237373 
L 87.871757 46.712104 
L 89.587964 42.102954 
L 90.732102 39.76826 
L 91.304171 39.046322 
L 91.87624 38.738124 
L 92.448309 38.93105 
L 93.020378 39.700486 
L 93.592447 41.097443 
L 94.164516 43.136391 
L 94.736585 45.785906 
L 95.880723 52.543535 
L 98.169 67.336946 
L 99.313138 72.695099 
L 99.885207 74.514269 
L 100.457276 75.747174 
L 101.029345 76.432109 
L 101.601414 76.632539 
L 102.173483 76.425151 
L 102.745552 75.889536 
L 103.88969 74.124789 
L 105.605897 70.584215 
L 107.894173 65.710834 
L 109.61038 62.635522 
L 112.470725 57.970821 
L 114.186932 54.565956 
L 115.903139 51.31686 
L 116.475208 50.503382 
L 117.047277 49.901001 
L 117.619346 49.543064 
L 118.191415 49.455546 
L 118.763484 49.659601 
L 119.335554 50.173744 
L 119.907623 51.014446 
L 120.479692 52.194563 
L 121.051761 53.719727 
L 122.195899 57.76249 
L 123.340037 62.867389 
L 125.628313 73.596218 
L 126.772451 77.546386 
L 127.34452 78.882129 
L 127.916589 79.751091 
L 128.488658 80.16137 
L 129.060727 80.14814 
L 129.632796 79.767083 
L 130.204865 79.08613 
L 131.349003 77.105906 
L 133.06521 73.403494 
L 134.781417 69.286451 
L 136.497624 64.450964 
L 138.7859 56.86119 
L 140.502107 51.283751 
L 141.646246 48.05232 
L 142.790384 45.366996 
L 143.934522 43.325046 
L 145.07866 41.965359 
L 146.222798 41.193592 
L 147.366936 40.799892 
L 148.511074 40.629783 
L 149.083143 40.646109 
L 149.655212 40.778146 
L 150.227281 41.081284 
L 150.79935 41.618173 
L 151.371419 42.450576 
L 151.943488 43.631775 
L 152.515557 45.200411 
L 153.087626 47.175923 
L 154.231764 52.311094 
L 155.375902 58.714683 
L 157.664178 72.30542 
L 158.808316 77.711548 
L 159.380385 79.781603 
L 159.952454 81.389333 
L 160.524523 82.535699 
L 161.096592 83.239122 
L 161.668661 83.527723 
L 162.240731 83.432417 
L 162.8128 82.982408 
L 163.384869 82.203885 
L 163.956938 81.12183 
L 165.101076 78.165489 
L 166.817283 72.443858 
L 168.53349 66.757457 
L 169.677628 63.824358 
L 170.249697 62.723069 
L 170.821766 61.877258 
L 171.393835 61.279964 
L 171.965904 60.914729 
L 172.537973 60.757773 
L 173.110042 60.779268 
L 174.25418 61.210417 
L 175.970387 62.141843 
L 176.542456 62.323911 
L 177.114525 62.36064 
L 177.686594 62.21508 
L 178.258663 61.864112 
L 178.830732 61.301711 
L 179.97487 59.611926 
L 182.835215 54.356449 
L 183.979354 52.954244 
L 185.123492 52.180601 
L 186.839699 51.622385 
L 187.983837 51.161585 
L 190.272113 49.883196 
L 190.844182 49.742207 
L 191.416251 49.799098 
L 191.98832 50.108809 
L 192.560389 50.707892 
L 193.132458 51.60822 
L 194.276596 54.218994 
L 197.136941 61.955472 
L 197.70901 62.929487 
L 198.281079 63.5205 
L 198.853148 63.691118 
L 199.425217 63.435508 
L 199.997286 62.780056 
L 200.569355 61.78077 
L 201.713493 59.087763 
L 203.4297 54.847619 
L 204.001769 53.785139 
L 204.573839 53.041954 
L 205.145908 52.683914 
L 205.717977 52.758782 
L 206.290046 53.29225 
L 206.862115 54.283867 
L 207.434184 55.704014 
L 208.578322 59.564839 
L 210.866598 68.410135 
L 212.010736 71.662993 
L 212.582805 72.748072 
L 213.154874 73.44397 
L 213.726943 73.756414 
L 214.299012 73.705858 
L 214.871081 73.321675 
L 215.44315 72.637735 
L 216.015219 71.690023 
L 217.159357 69.156049 
L 218.875564 64.402563 
L 220.591771 59.618964 
L 221.735909 56.95185 
L 222.880047 54.960852 
L 223.452116 54.265675 
L 224.024185 53.788035 
L 224.596254 53.53559 
L 225.168323 53.511103 
L 225.740393 53.712224 
L 226.312462 54.131595 
L 226.884531 54.756997 
L 228.028669 56.550776 
L 229.744876 60.137189 
L 231.461083 63.65729 
L 232.033152 64.559209 
L 232.605221 65.250747 
L 233.17729 65.705263 
L 233.749359 65.909663 
L 234.321428 65.862838 
L 234.893497 65.573213 
L 235.465566 65.056582 
L 236.609704 63.436901 
L 237.753842 61.257713 
L 240.614187 55.453975 
L 242.902463 51.090799 
L 246.334877 43.65637 
L 246.906946 42.941459 
L 247.479016 42.581187 
L 248.051085 42.617152 
L 248.623154 43.060292 
L 249.195223 43.890308 
L 249.767292 45.059058 
L 250.91143 48.121268 
L 253.199706 54.828154 
L 254.343844 57.469852 
L 255.487982 59.409869 
L 256.63212 60.762238 
L 257.776258 61.692934 
L 258.920396 62.277429 
L 259.492465 62.426642 
L 260.064534 62.460885 
L 260.636603 62.362344 
L 261.208672 62.114172 
L 261.780741 61.703134 
L 262.35281 61.122041 
L 263.496948 59.464012 
L 264.641086 57.272523 
L 267.501431 51.429786 
L 268.64557 49.642134 
L 269.789708 48.235694 
L 272.650053 45.338762 
L 273.794191 44.276773 
L 274.36626 43.869064 
L 274.938329 43.623465 
L 275.510398 43.610438 
L 276.082467 43.899179 
L 276.654536 44.547878 
L 277.226605 45.594328 
L 277.798674 47.048632 
L 278.942812 51.064737 
L 280.659019 58.73589 
L 282.375226 66.041586 
L 283.519364 69.64321 
L 284.091433 70.925 
L 284.663502 71.829813 
L 285.235571 72.345712 
L 285.80764 72.468269 
L 286.379709 72.201012 
L 286.951778 71.556927 
L 287.523847 70.560207 
L 288.667985 67.666713 
L 289.812124 63.94253 
L 292.672469 54.255022 
L 293.816607 51.122482 
L 294.960745 48.502645 
L 296.676952 45.151319 
L 298.965228 41.103596 
L 300.109366 39.512409 
L 300.681435 38.971599 
L 301.253504 38.667406 
L 301.825573 38.644948 
L 302.397642 38.941364 
L 302.969711 39.583877 
L 303.54178 40.588723 
L 304.113849 41.960295 
L 305.257987 45.753964 
L 306.402125 50.705223 
L 309.26247 64.218104 
L 310.406608 68.36948 
L 311.550747 71.443567 
L 312.694885 73.734707 
L 313.839023 75.58872 
L 314.983161 77.07913 
L 315.55523 77.615893 
L 316.127299 77.950463 
L 316.699368 78.037817 
L 317.271437 77.846349 
L 317.843506 77.363723 
L 318.415575 76.598342 
L 319.559713 74.337603 
L 320.703851 71.3834 
L 322.992127 64.536196 
L 325.852472 55.800777 
L 326.99661 53.060269 
L 327.568679 52.117334 
L 328.140748 51.569787 
L 328.712817 51.489299 
L 329.284886 51.92516 
L 329.284886 51.92516 
" style="fill:none;stroke:#ff7f0e;stroke-linecap:square;stroke-width:0.5;"/>
   </g>
   <g id="line2d_12">
    <path clip-path="url(#p2ee56c52ad)" d="M 36.957614 51.997706 
L 38.101752 54.392926 
L 38.673821 54.727649 
L 39.24589 57.508221 
L 39.817959 58.591279 
L 40.390028 60.552507 
L 40.962097 61.333021 
L 41.534166 64.261344 
L 42.106235 63.424309 
L 42.678304 64.689207 
L 43.250373 65.267594 
L 43.822442 63.805913 
L 44.394511 64.567487 
L 45.538649 62.574991 
L 46.682787 60.327372 
L 47.826925 59.807836 
L 48.398994 58.572813 
L 48.971063 57.801527 
L 49.543132 57.545454 
L 50.115201 55.52015 
L 50.68727 54.104624 
L 51.259339 53.857568 
L 51.831408 52.360957 
L 52.403477 52.450307 
L 52.975546 51.825886 
L 53.547615 50.836674 
L 54.691753 49.61177 
L 55.835892 48.866813 
L 56.407961 48.683426 
L 56.98003 47.921826 
L 57.552099 48.952017 
L 58.124168 48.334265 
L 59.268306 50.752155 
L 59.840375 50.835359 
L 60.412444 48.859463 
L 60.984513 50.958889 
L 61.556582 51.341952 
L 62.128651 50.86543 
L 62.70072 51.595221 
L 63.272789 52.941338 
L 63.844858 53.607578 
L 64.416927 55.161119 
L 65.561065 60.293437 
L 66.133134 63.227018 
L 66.705203 64.969749 
L 67.277272 64.874488 
L 67.849341 65.281484 
L 68.42141 64.689707 
L 68.993479 64.731953 
L 69.565548 64.220086 
L 70.137617 64.247619 
L 71.281755 63.886213 
L 72.997962 62.768392 
L 73.570031 61.963919 
L 74.1421 60.948701 
L 74.714169 60.776521 
L 75.286238 60.204475 
L 76.430376 59.922258 
L 77.002446 58.322162 
L 77.574515 58.019078 
L 78.146584 58.187053 
L 78.718653 58.538273 
L 79.290722 59.055972 
L 80.43486 60.709242 
L 82.151067 62.83141 
L 82.723136 63.014 
L 83.867274 63.900873 
L 84.439343 63.415451 
L 85.011412 62.418224 
L 86.15555 61.223168 
L 87.299688 59.026578 
L 88.443826 55.41451 
L 89.015895 52.531754 
L 89.587964 50.761209 
L 91.304171 41.393651 
L 91.87624 39.985147 
L 92.448309 39.09988 
L 93.020378 39.100202 
L 93.592447 39.580718 
L 94.736585 38.350865 
L 95.308654 38.800883 
L 95.880723 40.862449 
L 96.452792 43.44038 
L 97.024861 48.652592 
L 97.59693 51.676855 
L 98.169 56.951605 
L 98.741069 60.555812 
L 99.313138 64.891598 
L 100.457276 70.130316 
L 101.029345 72.000815 
L 101.601414 74.779613 
L 102.173483 75.959888 
L 102.745552 76.716358 
L 103.317621 80.967208 
L 103.88969 80.044173 
L 104.461759 79.884565 
L 105.605897 77.750121 
L 106.177966 75.437016 
L 106.750035 74.870464 
L 109.61038 66.698617 
L 110.182449 65.702426 
L 110.754518 67.144763 
L 111.898656 65.455079 
L 112.470725 66.838867 
L 113.042794 67.154537 
L 113.614863 68.268467 
L 114.186932 67.840358 
L 114.759001 71.119525 
L 115.33107 77.615766 
L 116.475208 83.164464 
L 117.619346 87.501518 
L 118.191415 88.987237 
L 118.763484 89.964729 
L 119.335554 90.437284 
L 119.907623 90.437383 
L 120.479692 90.02002 
L 121.051761 89.25512 
L 122.195899 86.990592 
L 125.056244 80.417897 
L 125.628313 80.216043 
L 126.200382 80.318243 
L 126.772451 77.924708 
L 127.916589 77.170262 
L 128.488658 77.456951 
L 129.060727 76.794761 
L 129.632796 77.303256 
L 130.776934 76.39231 
L 131.349003 75.557146 
L 131.921072 72.000178 
L 132.493141 71.29285 
L 133.06521 71.488481 
L 134.209348 68.100244 
L 134.781417 66.970952 
L 137.641762 55.691376 
L 138.213831 54.519313 
L 139.357969 50.830499 
L 139.930038 49.908267 
L 140.502107 48.692469 
L 141.646246 45.51889 
L 142.218315 44.327884 
L 142.790384 43.466055 
L 143.362453 43.705845 
L 143.934522 43.462609 
L 144.506591 42.77161 
L 145.07866 43.49931 
L 145.650729 43.262905 
L 146.222798 45.287952 
L 146.794867 45.191592 
L 147.366936 44.198171 
L 147.939005 46.019944 
L 148.511074 46.514334 
L 149.083143 46.388456 
L 149.655212 47.721062 
L 150.79935 48.223436 
L 151.371419 48.919512 
L 151.943488 50.268859 
L 152.515557 52.230576 
L 153.087626 53.690868 
L 153.659695 55.731004 
L 154.231764 53.977749 
L 154.803833 53.000108 
L 155.375902 55.230409 
L 155.947971 56.625683 
L 157.092109 63.597445 
L 157.664178 62.204454 
L 158.236247 61.296904 
L 158.808316 62.014623 
L 159.380385 63.465011 
L 159.952454 63.309407 
L 161.096592 61.344487 
L 161.668661 61.350858 
L 162.240731 61.123505 
L 163.956938 59.032528 
L 164.529007 59.395979 
L 165.101076 60.187116 
L 165.673145 64.977287 
L 166.245214 64.22107 
L 166.817283 68.371916 
L 167.389352 69.453883 
L 167.961421 70.273174 
L 168.53349 73.10479 
L 169.677628 75.111628 
L 170.249697 75.795844 
L 170.821766 76.223302 
L 171.393835 76.385307 
L 171.965904 76.288775 
L 172.537973 75.9512 
L 173.110042 75.395464 
L 174.25418 73.725372 
L 174.826249 72.656634 
L 175.398318 70.949819 
L 175.970387 70.165867 
L 177.114525 67.48447 
L 178.258663 64.965852 
L 179.402801 61.433519 
L 179.97487 59.708692 
L 180.546939 58.590238 
L 183.407285 48.890862 
L 183.979354 46.695028 
L 185.123492 43.208601 
L 185.695561 42.42764 
L 186.26763 42.21475 
L 187.411768 41.014259 
L 187.983837 42.3322 
L 188.555906 44.110097 
L 189.700044 44.884852 
L 190.272113 47.248891 
L 191.416251 52.715829 
L 191.98832 54.140973 
L 192.560389 57.758143 
L 193.132458 59.740871 
L 193.704527 62.405691 
L 194.276596 64.285103 
L 195.992803 67.268516 
L 196.564872 67.40661 
L 197.136941 67.08908 
L 197.70901 66.230298 
L 198.281079 66.389694 
L 198.853148 64.544976 
L 199.425217 62.009445 
L 199.997286 61.851258 
L 200.569355 61.079332 
L 202.285562 55.087481 
L 202.857631 53.376024 
L 204.001769 50.706709 
L 204.573839 49.129157 
L 205.145908 45.523918 
L 205.717977 43.462595 
L 206.290046 42.458716 
L 206.862115 41.961215 
L 208.006253 43.438819 
L 208.578322 43.86884 
L 209.150391 44.503864 
L 210.866598 54.858024 
L 211.438667 59.072007 
L 212.010736 61.169234 
L 212.582805 65.971756 
L 213.154874 67.43644 
L 213.726943 70.302258 
L 214.299012 71.812184 
L 215.44315 71.590502 
L 216.015219 70.821883 
L 216.587288 70.469783 
L 217.159357 72.444728 
L 218.875564 67.306891 
L 220.591771 61.341395 
L 222.307978 56.773169 
L 222.880047 53.025326 
L 224.024185 51.273895 
L 224.596254 50.955165 
L 225.168323 50.786472 
L 225.740393 50.874329 
L 226.312462 51.194222 
L 226.884531 51.710873 
L 228.028669 53.170495 
L 229.744876 55.903038 
L 232.605221 60.697983 
L 233.17729 61.501692 
L 234.321428 65.257864 
L 234.893497 64.183201 
L 236.037635 63.709842 
L 237.181773 62.952591 
L 237.753842 62.9501 
L 238.325911 62.3469 
L 238.89798 61.431283 
L 239.470049 61.468488 
L 240.042118 60.619281 
L 241.758325 59.325915 
L 242.902463 58.081888 
L 243.474532 57.244421 
L 244.61867 58.71942 
L 245.190739 58.815737 
L 245.762808 59.799939 
L 246.334877 58.472235 
L 246.906946 56.395157 
L 247.479016 53.281924 
L 248.623154 51.639245 
L 249.767292 47.930306 
L 250.339361 47.601995 
L 250.91143 47.50592 
L 251.483499 46.601931 
L 252.055568 47.127617 
L 252.627637 47.290101 
L 253.199706 46.888218 
L 253.771775 48.575323 
L 254.343844 47.894475 
L 254.915913 46.306268 
L 255.487982 46.907917 
L 256.060051 48.369814 
L 256.63212 49.278169 
L 257.776258 53.12816 
L 258.348327 52.949274 
L 258.920396 54.071134 
L 259.492465 54.796115 
L 260.064534 56.00137 
L 260.636603 56.738151 
L 261.208672 56.55596 
L 261.780741 56.695858 
L 262.35281 56.707265 
L 262.924879 55.868498 
L 263.496948 54.797465 
L 264.069017 54.494511 
L 265.785224 50.415165 
L 266.357293 48.928813 
L 266.929362 49.329302 
L 268.0735 48.130252 
L 268.64557 47.611511 
L 269.217639 46.565483 
L 270.361777 43.120794 
L 270.933846 42.791194 
L 271.505915 42.889567 
L 272.077984 42.800102 
L 272.650053 43.199975 
L 274.36626 43.757216 
L 274.938329 44.15698 
L 275.510398 44.76189 
L 276.082467 45.573153 
L 277.226605 47.772446 
L 278.370743 50.759335 
L 279.514881 54.189443 
L 280.659019 57.989926 
L 282.375226 62.569382 
L 283.519364 64.899971 
L 284.091433 65.654782 
L 285.235571 64.680227 
L 285.80764 63.577731 
L 286.951778 61.062694 
L 287.523847 60.563491 
L 288.095916 59.841275 
L 289.240054 57.957575 
L 292.1004 55.395206 
L 293.244538 52.090074 
L 293.816607 53.161206 
L 294.960745 51.013909 
L 296.104883 48.395829 
L 297.249021 45.308479 
L 297.82109 43.59307 
L 298.965228 38.153793 
L 299.537297 33.804046 
L 300.109366 33.247558 
L 300.681435 29.660201 
L 301.253504 27.312688 
L 301.825573 28.209243 
L 302.397642 29.706826 
L 303.54178 34.002489 
L 304.113849 32.488833 
L 304.685918 31.383195 
L 305.257987 30.917426 
L 305.830056 31.286781 
L 306.402125 32.653683 
L 306.974194 35.120694 
L 307.546263 38.707269 
L 308.690401 48.39645 
L 309.26247 54.148302 
L 309.834539 57.884101 
L 310.406608 59.451343 
L 310.978678 60.579923 
L 311.550747 65.501168 
L 312.122816 69.267138 
L 312.694885 71.353678 
L 313.266954 75.904815 
L 313.839023 78.181737 
L 314.411092 79.956279 
L 314.983161 79.71971 
L 315.55523 78.35003 
L 316.127299 74.299729 
L 316.699368 72.293296 
L 317.271437 70.769476 
L 317.843506 69.890604 
L 318.415575 68.208874 
L 319.559713 63.07494 
L 320.131782 61.639917 
L 320.703851 60.700243 
L 322.420058 56.15935 
L 322.992127 54.24748 
L 323.564196 53.515605 
L 324.136265 52.598464 
L 325.280403 51.573291 
L 325.852472 50.838011 
L 326.99661 50.656669 
L 327.568679 49.837659 
L 328.140748 48.822392 
L 328.712817 48.718402 
L 329.284886 47.802369 
L 329.284886 47.802369 
" style="fill:none;stroke:#1f77b4;stroke-linecap:square;stroke-opacity:0.5;stroke-width:0.5;"/>
   </g>
   <g id="line2d_13">
    <path clip-path="url(#p2ee56c52ad)" d="M 36.957614 48.978121 
L 37.529683 45.762331 
L 38.673821 51.837136 
L 39.24589 53.731451 
L 39.817959 55.231652 
L 40.390028 58.690493 
L 40.962097 59.295299 
L 42.106235 63.193388 
L 42.678304 64.340541 
L 43.250373 66.129774 
L 43.822442 66.282722 
L 44.394511 66.712542 
L 44.96658 66.713646 
L 45.538649 68.59926 
L 46.110718 68.764326 
L 46.682787 67.415089 
L 47.254856 68.015553 
L 47.826925 65.751869 
L 48.398994 65.095425 
L 48.971063 64.899433 
L 50.115201 62.068147 
L 51.831408 57.613915 
L 52.403477 55.889437 
L 52.975546 53.74762 
L 53.547615 52.296671 
L 54.119684 51.300224 
L 54.691753 49.891977 
L 55.263822 49.931062 
L 55.835892 48.915116 
L 56.407961 48.717755 
L 56.98003 47.357287 
L 57.552099 47.145191 
L 58.124168 46.4002 
L 58.696237 44.648498 
L 59.268306 45.586081 
L 59.840375 47.051683 
L 60.412444 43.783668 
L 60.984513 43.681148 
L 62.70072 48.231223 
L 64.416927 54.997407 
L 64.988996 60.889497 
L 65.561065 63.755157 
L 66.133134 64.611355 
L 66.705203 66.517646 
L 68.42141 67.916982 
L 68.993479 69.337172 
L 69.565548 69.12204 
L 70.137617 69.616044 
L 70.709686 69.219365 
L 71.281755 70.11999 
L 71.853824 70.475005 
L 72.425893 69.836752 
L 72.997962 68.306973 
L 73.570031 65.134505 
L 74.1421 63.722408 
L 74.714169 61.881918 
L 75.858307 60.113756 
L 76.430376 58.309437 
L 77.002446 57.516826 
L 77.574515 56.36783 
L 78.146584 56.430916 
L 78.718653 56.108473 
L 79.290722 56.011831 
L 79.862791 55.553032 
L 80.43486 56.313821 
L 81.006929 56.329783 
L 81.578998 56.986958 
L 82.151067 56.435751 
L 82.723136 56.146845 
L 83.295205 56.208533 
L 83.867274 55.931957 
L 85.011412 56.042209 
L 85.583481 55.811119 
L 86.15555 55.130922 
L 87.299688 51.591308 
L 87.871757 51.084795 
L 90.160033 45.153225 
L 90.732102 43.518816 
L 91.304171 45.405795 
L 91.87624 44.340106 
L 92.448309 44.056828 
L 93.020378 46.400922 
L 93.592447 46.244699 
L 94.164516 48.668592 
L 94.736585 50.130039 
L 97.024861 64.235343 
L 97.59693 68.726894 
L 98.741069 74.843226 
L 99.313138 75.850415 
L 99.885207 76.037555 
L 100.457276 73.497888 
L 101.029345 74.941438 
L 101.601414 74.779613 
L 102.173483 74.08449 
L 102.745552 73.977386 
L 103.317621 72.408532 
L 103.88969 69.703331 
L 105.605897 66.480963 
L 106.750035 62.928761 
L 107.322104 61.466661 
L 107.894173 61.665275 
L 108.466242 62.211282 
L 109.038311 61.086517 
L 109.61038 60.952241 
L 110.182449 60.185038 
L 110.754518 60.411767 
L 111.898656 60.556314 
L 112.470725 61.112912 
L 113.042794 60.882205 
L 113.614863 62.954243 
L 114.186932 62.29711 
L 114.759001 62.905245 
L 115.33107 64.143759 
L 116.475208 63.095238 
L 117.619346 64.377287 
L 118.191415 64.42853 
L 118.763484 64.888003 
L 119.335554 64.304287 
L 119.907623 64.254064 
L 120.479692 63.585605 
L 121.051761 63.104487 
L 121.62383 62.240138 
L 122.195899 61.117669 
L 122.767968 60.910632 
L 123.340037 61.120138 
L 123.912106 61.024522 
L 125.056244 61.360774 
L 125.628313 60.765156 
L 126.200382 60.917164 
L 127.916589 61.837057 
L 129.060727 62.591171 
L 129.632796 62.418023 
L 130.204865 62.738394 
L 130.776934 62.347623 
L 131.349003 60.767536 
L 131.921072 62.311532 
L 132.493141 61.667096 
L 133.06521 60.184528 
L 133.637279 59.310612 
L 134.209348 58.873444 
L 134.781417 59.05012 
L 135.353486 58.077856 
L 135.925555 57.434436 
L 137.069693 54.867344 
L 137.641762 53.807535 
L 138.213831 52.150387 
L 138.7859 51.238889 
L 139.357969 50.683876 
L 140.502107 49.068681 
L 141.074177 48.217945 
L 141.646246 48.013923 
L 142.790384 46.8944 
L 143.934522 44.705532 
L 144.506591 44.296393 
L 146.222798 41.021959 
L 147.366936 40.355041 
L 149.083143 37.97201 
L 149.655212 37.574542 
L 150.79935 37.13571 
L 151.371419 37.884265 
L 152.515557 40.752017 
L 153.659695 44.469071 
L 154.803833 49.186308 
L 155.375902 52.841764 
L 155.947971 55.590878 
L 156.52004 56.947672 
L 157.092109 56.898152 
L 157.664178 60.29257 
L 158.236247 61.296904 
L 158.808316 61.647801 
L 159.380385 63.465011 
L 159.952454 63.309407 
L 161.096592 61.380757 
L 161.668661 61.434655 
L 162.240731 61.123505 
L 162.8128 60.423386 
L 163.384869 61.661305 
L 163.956938 65.433593 
L 164.529007 66.595805 
L 165.673145 64.977287 
L 166.245214 68.252698 
L 166.817283 69.213902 
L 167.961421 71.897425 
L 169.105559 74.479874 
L 169.677628 76.329258 
L 170.821766 80.697673 
L 171.393835 80.954598 
L 171.965904 82.82353 
L 172.537973 81.447543 
L 175.398318 70.853079 
L 175.970387 69.838006 
L 176.542456 68.036752 
L 177.114525 65.560787 
L 178.258663 63.507342 
L 179.402801 60.622493 
L 181.119008 57.984005 
L 181.691077 56.598936 
L 182.263146 56.560532 
L 182.835215 55.454154 
L 183.979354 51.836134 
L 185.695561 46.535643 
L 186.26763 44.218407 
L 187.411768 40.791398 
L 188.555906 37.624305 
L 189.127975 35.21064 
L 189.700044 33.985113 
L 190.272113 34.740365 
L 191.416251 34.359814 
L 191.98832 35.519447 
L 193.704527 47.737407 
L 195.420734 59.642095 
L 196.564872 63.353899 
L 197.136941 64.064509 
L 197.70901 65.079543 
L 198.281079 65.275131 
L 198.853148 65.964875 
L 199.997286 65.636338 
L 201.141424 64.196286 
L 202.285562 61.306403 
L 202.857631 59.115221 
L 204.573839 54.194446 
L 205.717977 52.056328 
L 206.290046 51.474428 
L 206.862115 51.351775 
L 207.434184 51.889392 
L 208.578322 55.618735 
L 209.72246 61.204033 
L 210.294529 63.770118 
L 210.866598 64.913022 
L 211.438667 67.288179 
L 212.582805 70.062743 
L 213.154874 71.050701 
L 213.726943 71.640083 
L 214.299012 71.838706 
L 214.871081 71.666219 
L 215.44315 71.149253 
L 216.015219 70.318024 
L 216.587288 69.204856 
L 217.731426 66.275938 
L 218.303495 63.798938 
L 218.875564 62.699361 
L 219.447633 60.142455 
L 220.591771 56.992906 
L 222.307978 50.273625 
L 224.024185 45.237382 
L 224.596254 44.013851 
L 225.168323 43.175404 
L 225.740393 44.411068 
L 226.312462 44.595708 
L 226.884531 45.170513 
L 227.4566 46.148505 
L 228.028669 47.521952 
L 228.600738 49.256031 
L 229.172807 51.607833 
L 229.744876 55.034881 
L 231.461083 58.836131 
L 232.033152 59.557609 
L 232.605221 59.351483 
L 233.17729 58.14498 
L 233.749359 58.235557 
L 234.321428 57.872591 
L 234.893497 56.631592 
L 236.609704 54.372951 
L 237.181773 53.960864 
L 238.325911 49.969355 
L 238.89798 46.875575 
L 239.470049 46.373509 
L 240.042118 45.479039 
L 241.186256 44.837702 
L 241.758325 44.279699 
L 242.330394 45.759482 
L 242.902463 47.859907 
L 243.474532 47.476117 
L 244.046601 48.009227 
L 244.61867 48.034736 
L 245.190739 49.45393 
L 245.762808 50.323938 
L 246.334877 50.820026 
L 246.906946 53.334294 
L 247.479016 54.584826 
L 248.051085 54.400961 
L 248.623154 56.23413 
L 250.91143 55.546429 
L 252.055568 55.398713 
L 252.627637 54.033812 
L 253.199706 54.692726 
L 253.771775 55.148907 
L 254.343844 56.072746 
L 254.915913 56.376829 
L 255.487982 56.877282 
L 256.060051 56.784438 
L 256.63212 57.013538 
L 257.204189 57.505265 
L 258.348327 58.870064 
L 258.920396 58.303971 
L 260.064534 59.4834 
L 260.636603 58.368367 
L 261.208672 57.656435 
L 261.780741 56.697005 
L 262.35281 56.688074 
L 262.924879 55.323904 
L 263.496948 54.616805 
L 264.069017 51.233386 
L 265.213155 48.71465 
L 265.785224 48.101157 
L 266.357293 47.080588 
L 266.929362 44.904976 
L 267.501431 45.354159 
L 268.0735 45.385978 
L 268.64557 47.296551 
L 269.217639 46.565483 
L 269.789708 47.10899 
L 270.361777 47.438244 
L 270.933846 47.3124 
L 272.650053 48.590666 
L 273.222122 50.289761 
L 274.36626 51.780459 
L 274.938329 54.59988 
L 276.082467 57.888121 
L 276.654536 58.689479 
L 277.226605 60.288163 
L 277.798674 64.810307 
L 278.370743 65.957378 
L 278.942812 66.735158 
L 279.514881 68.245735 
L 280.08695 69.085976 
L 280.659019 68.785321 
L 281.231088 70.865725 
L 281.803157 71.357676 
L 282.375226 70.61715 
L 282.947295 69.687241 
L 283.519364 68.048133 
L 284.663502 66.623874 
L 285.235571 66.744152 
L 285.80764 65.758171 
L 286.379709 63.72497 
L 286.951778 61.016193 
L 288.095916 58.766938 
L 288.667985 57.674949 
L 289.240054 53.435235 
L 289.812124 51.229899 
L 290.384193 49.773369 
L 290.956262 47.269513 
L 291.528331 43.780161 
L 292.672469 40.271146 
L 293.244538 39.159617 
L 294.388676 34.717224 
L 294.960745 33.411286 
L 295.532814 29.467004 
L 296.676952 28.378217 
L 297.249021 28.066064 
L 297.82109 27.910818 
L 298.393159 27.914432 
L 298.965228 28.082254 
L 299.537297 27.777842 
L 300.109366 27.175182 
L 300.681435 26.989641 
L 301.253504 27.312688 
L 301.825573 28.209243 
L 302.397642 29.706826 
L 302.969711 31.789341 
L 305.257987 41.909111 
L 305.830056 43.510988 
L 306.402125 44.655204 
L 306.974194 52.232137 
L 308.118332 57.122939 
L 309.26247 60.484383 
L 309.834539 62.151086 
L 310.406608 66.998428 
L 310.978678 68.078399 
L 311.550747 70.842891 
L 312.122816 71.90973 
L 313.266954 74.985923 
L 313.839023 74.879089 
L 314.411092 76.469223 
L 314.983161 75.15636 
L 315.55523 72.913282 
L 316.127299 71.259822 
L 316.699368 71.119454 
L 317.271437 70.769476 
L 317.843506 70.20644 
L 318.415575 69.999109 
L 318.987644 68.385322 
L 320.131782 65.790259 
L 320.703851 64.343935 
L 321.27592 63.475879 
L 321.847989 63.223433 
L 322.992127 61.529347 
L 324.136265 60.398451 
L 324.708334 59.474628 
L 325.852472 56.545265 
L 326.424541 55.514704 
L 326.99661 51.603531 
L 328.712817 47.897304 
L 329.284886 46.707308 
L 329.284886 46.707308 
" style="fill:none;stroke:#1f77b4;stroke-linecap:square;stroke-opacity:0.5;stroke-width:0.5;"/>
   </g>
   <g id="line2d_14">
    <path clip-path="url(#p2ee56c52ad)" d="M 36.957614 49.181045 
L 37.529683 46.966421 
L 38.101752 49.234342 
L 38.673821 52.226035 
L 39.24589 53.731451 
L 40.390028 57.710507 
L 40.962097 58.15846 
L 41.534166 59.532558 
L 42.106235 59.436373 
L 42.678304 60.769058 
L 43.250373 61.392219 
L 43.822442 62.216963 
L 44.394511 62.209817 
L 45.538649 62.574991 
L 46.110718 63.226517 
L 46.682787 65.326095 
L 47.254856 64.385213 
L 47.826925 64.110765 
L 48.398994 62.683173 
L 48.971063 63.7182 
L 49.543132 63.719393 
L 50.115201 64.849859 
L 50.68727 63.628905 
L 51.831408 58.492481 
L 52.403477 57.786442 
L 53.547615 55.490569 
L 54.119684 53.072718 
L 54.691753 51.873137 
L 55.263822 50.203665 
L 56.407961 48.164875 
L 56.98003 46.182671 
L 57.552099 46.019419 
L 58.124168 44.717195 
L 58.696237 44.479824 
L 59.268306 43.694813 
L 60.412444 41.824241 
L 60.984513 42.821836 
L 61.556582 43.558822 
L 62.128651 44.812551 
L 62.70072 42.481208 
L 63.272789 45.630655 
L 63.844858 46.43352 
L 64.416927 51.726344 
L 64.988996 55.210858 
L 65.561065 56.911389 
L 66.705203 63.343115 
L 67.277272 64.192061 
L 67.849341 65.281484 
L 68.42141 65.101116 
L 68.993479 65.6439 
L 69.565548 65.688207 
L 70.137617 66.239492 
L 70.709686 66.289856 
L 71.281755 66.500261 
L 71.853824 67.009678 
L 72.425893 66.61484 
L 72.997962 66.387174 
L 73.570031 66.774815 
L 74.1421 66.531862 
L 74.714169 65.667332 
L 75.286238 63.359379 
L 75.858307 61.678354 
L 76.430376 62.035225 
L 77.002446 61.555964 
L 78.146584 62.148881 
L 78.718653 62.6003 
L 79.862791 63.136492 
L 80.43486 63.020106 
L 81.006929 63.302997 
L 81.578998 63.219533 
L 82.151067 62.865364 
L 82.723136 62.345293 
L 83.295205 62.230386 
L 83.867274 61.898737 
L 84.439343 61.322342 
L 85.583481 59.578789 
L 86.727619 56.875371 
L 87.871757 53.362325 
L 89.015895 49.270027 
L 89.587964 46.993402 
L 90.732102 40.889406 
L 91.304171 39.79599 
L 91.87624 38.430234 
L 92.448309 36.737927 
L 93.020378 35.462557 
L 93.592447 34.739778 
L 94.164516 35.505252 
L 94.736585 38.001248 
L 95.880723 47.607772 
L 97.024861 56.082693 
L 98.169 68.996688 
L 98.741069 74.085174 
L 99.313138 75.850415 
L 99.885207 79.505764 
L 100.457276 80.882733 
L 101.029345 85.867147 
L 101.601414 85.711455 
L 102.173483 88.37663 
L 102.745552 88.192375 
L 103.317621 81.601232 
L 104.461759 79.884565 
L 105.033828 76.515341 
L 105.605897 75.816034 
L 106.750035 69.098213 
L 107.894173 64.384245 
L 109.038311 61.381226 
L 109.61038 60.233879 
L 110.754518 57.147358 
L 111.326587 55.339709 
L 112.470725 53.854284 
L 113.042794 53.843515 
L 113.614863 54.665963 
L 114.759001 55.488704 
L 115.33107 56.692847 
L 115.903139 57.177169 
L 116.475208 57.431149 
L 118.191415 58.800334 
L 118.763484 59.297452 
L 119.335554 60.034519 
L 120.479692 60.581261 
L 121.051761 60.505936 
L 121.62383 60.792739 
L 122.195899 60.751731 
L 122.767968 60.910632 
L 123.340037 61.280893 
L 125.056244 61.67101 
L 126.200382 62.503382 
L 126.772451 62.095334 
L 127.34452 62.356089 
L 127.916589 62.996333 
L 128.488658 63.344902 
L 129.060727 64.07073 
L 130.204865 66.649852 
L 130.776934 67.159295 
L 131.349003 67.885841 
L 131.921072 68.185229 
L 132.493141 68.838706 
L 133.06521 68.638059 
L 133.637279 69.675526 
L 134.209348 68.100244 
L 134.781417 68.012362 
L 135.353486 66.658349 
L 135.925555 66.782644 
L 137.641762 61.069173 
L 139.357969 54.64295 
L 140.502107 51.22322 
L 141.074177 48.226065 
L 142.790384 42.865748 
L 143.362453 41.521082 
L 144.506591 40.078543 
L 145.07866 39.154721 
L 145.650729 39.090619 
L 146.222798 38.486119 
L 147.366936 36.38796 
L 147.939005 37.446222 
L 148.511074 38.229148 
L 149.083143 38.120509 
L 149.655212 38.379757 
L 150.227281 39.069014 
L 151.943488 43.373263 
L 153.087626 48.28021 
L 155.375902 59.27419 
L 155.947971 61.417972 
L 156.52004 63.089554 
L 157.092109 64.239768 
L 158.236247 68.821601 
L 158.808316 70.518518 
L 159.380385 71.835026 
L 159.952454 71.962154 
L 160.524523 71.818399 
L 161.096592 71.245527 
L 162.240731 69.415851 
L 162.8128 68.470427 
L 163.956938 67.304434 
L 164.529007 66.977638 
L 165.101076 67.139212 
L 165.673145 67.634719 
L 166.245214 66.17306 
L 166.817283 63.588283 
L 167.389352 63.122221 
L 167.961421 62.840646 
L 168.53349 61.978576 
L 169.105559 60.018993 
L 169.677628 60.831991 
L 170.249697 60.717649 
L 171.393835 62.649765 
L 172.537973 62.571 
L 173.682111 61.603404 
L 174.25418 62.419343 
L 174.826249 63.039633 
L 175.398318 62.534356 
L 175.970387 63.019242 
L 176.542456 61.658918 
L 177.114525 61.809911 
L 177.686594 60.624295 
L 178.258663 60.19214 
L 178.830732 59.423002 
L 179.402801 59.439268 
L 179.97487 58.744199 
L 181.119008 57.904015 
L 181.691077 55.943163 
L 182.263146 54.543243 
L 183.407285 52.592153 
L 183.979354 50.889829 
L 184.551423 50.588282 
L 185.123492 49.349381 
L 185.695561 50.672386 
L 186.839699 48.735103 
L 187.411768 47.252561 
L 187.983837 48.630198 
L 188.555906 49.005158 
L 189.127975 48.866501 
L 189.700044 50.765191 
L 191.416251 59.223497 
L 191.98832 64.094339 
L 192.560389 70.910586 
L 193.132458 72.830578 
L 194.276596 79.305685 
L 194.848665 75.398729 
L 195.420734 74.125118 
L 195.992803 76.187263 
L 196.564872 72.505225 
L 197.136941 71.95565 
L 197.70901 69.994274 
L 198.281079 68.538543 
L 198.853148 66.295093 
L 199.425217 62.443767 
L 200.569355 58.035394 
L 201.141424 54.687299 
L 201.713493 53.461995 
L 202.285562 50.627732 
L 202.857631 48.640094 
L 204.001769 46.48747 
L 204.573839 45.662731 
L 205.145908 44.373301 
L 205.717977 42.583125 
L 206.290046 41.194071 
L 206.862115 43.621416 
L 207.434184 43.99584 
L 208.006253 46.882327 
L 208.578322 48.366766 
L 209.150391 50.433829 
L 211.438667 62.420447 
L 213.726943 69.795683 
L 214.299012 71.795356 
L 214.871081 71.666219 
L 215.44315 71.149253 
L 216.015219 70.318024 
L 216.587288 69.204856 
L 217.731426 66.321504 
L 218.875564 62.968091 
L 219.447633 61.628376 
L 220.019702 59.952734 
L 220.591771 57.364264 
L 221.16384 56.929725 
L 222.880047 52.867896 
L 224.024185 51.390642 
L 224.596254 50.955165 
L 225.168323 54.514541 
L 226.884531 56.473289 
L 227.4566 59.534723 
L 228.600738 62.952086 
L 229.172807 64.784996 
L 229.744876 65.68639 
L 230.316945 68.966045 
L 230.889014 70.821257 
L 231.461083 71.484514 
L 232.033152 67.335775 
L 233.17729 69.455135 
L 233.749359 67.947299 
L 235.465566 65.917364 
L 236.037635 63.696968 
L 236.609704 62.995966 
L 237.181773 60.766975 
L 237.753842 59.19749 
L 238.325911 58.424941 
L 238.89798 56.89747 
L 239.470049 55.002528 
L 240.042118 54.758638 
L 240.614187 54.224545 
L 241.186256 53.93873 
L 242.330394 54.284579 
L 243.474532 53.927781 
L 244.046601 53.65384 
L 244.61867 53.226873 
L 245.762808 51.661503 
L 246.334877 50.407251 
L 246.906946 49.980715 
L 247.479016 48.347842 
L 249.767292 44.69807 
L 250.91143 39.770743 
L 251.483499 39.815803 
L 252.055568 36.617018 
L 252.627637 36.762603 
L 253.771775 38.301277 
L 254.343844 38.808033 
L 254.915913 37.787537 
L 255.487982 34.330216 
L 256.060051 34.686357 
L 256.63212 39.417988 
L 257.776258 46.709754 
L 258.348327 49.188718 
L 259.492465 51.848446 
L 260.064534 52.678596 
L 260.636603 49.523588 
L 261.208672 49.871684 
L 261.780741 50.029129 
L 262.35281 49.987894 
L 262.924879 52.611714 
L 263.496948 52.497832 
L 264.069017 51.862845 
L 264.641086 52.334811 
L 265.785224 51.098105 
L 266.357293 52.279201 
L 266.929362 51.142574 
L 268.0735 49.517851 
L 269.789708 46.436642 
L 270.361777 43.295191 
L 270.933846 42.704225 
L 271.505915 40.34021 
L 272.650053 38.503412 
L 273.222122 38.253223 
L 273.794191 38.347682 
L 274.36626 38.914182 
L 274.938329 39.963198 
L 275.510398 41.469366 
L 277.226605 47.497754 
L 277.798674 48.059389 
L 280.659019 51.768554 
L 281.231088 53.209618 
L 281.803157 55.74697 
L 282.375226 55.90728 
L 282.947295 57.223119 
L 283.519364 57.685807 
L 284.091433 61.60563 
L 284.663502 63.483242 
L 285.235571 64.641906 
L 286.951778 64.692198 
L 287.523847 66.323286 
L 288.667985 64.513122 
L 289.812124 62.221481 
L 290.384193 59.264214 
L 291.528331 56.840877 
L 292.1004 55.500465 
L 292.672469 53.804039 
L 293.244538 49.932359 
L 293.816607 42.154455 
L 294.960745 38.288141 
L 296.676952 33.77678 
L 298.393159 29.82181 
L 299.537297 27.777842 
L 300.109366 27.175182 
L 300.681435 26.989641 
L 301.253504 28.896797 
L 301.825573 33.608837 
L 303.54178 38.746385 
L 305.257987 50.414166 
L 306.402125 56.820695 
L 306.974194 63.963211 
L 307.546263 68.516826 
L 308.118332 70.392848 
L 309.26247 72.959841 
L 309.834539 77.203843 
L 310.406608 75.224639 
L 311.550747 77.994797 
L 312.122816 79.106802 
L 312.694885 79.326577 
L 313.266954 79.010977 
L 313.839023 78.181737 
L 314.411092 76.741955 
L 315.55523 71.230512 
L 316.127299 71.259822 
L 316.699368 71.099955 
L 317.271437 70.769476 
L 317.843506 70.20644 
L 318.415575 70.000804 
L 319.559713 67.230366 
L 320.131782 66.287425 
L 320.703851 64.651489 
L 321.27592 63.615285 
L 321.847989 63.223433 
L 322.420058 62.152718 
L 323.564196 60.767913 
L 324.136265 59.264999 
L 324.708334 58.498025 
L 325.280403 56.690748 
L 326.424541 55.311708 
L 326.99661 51.565604 
L 327.568679 49.962615 
L 328.140748 48.926372 
L 328.712817 48.209791 
L 329.284886 46.707308 
L 329.284886 46.707308 
" style="fill:none;stroke:#1f77b4;stroke-linecap:square;stroke-opacity:0.5;stroke-width:0.5;"/>
   </g>
   <g id="line2d_15">
    <path clip-path="url(#p2ee56c52ad)" d="M 36.957614 56.835366 
L 37.529683 56.702821 
L 38.673821 60.77339 
L 39.24589 61.37883 
L 39.817959 62.350966 
L 40.390028 66.018759 
L 40.962097 66.624953 
L 41.534166 66.779568 
L 42.106235 66.813689 
L 42.678304 67.682289 
L 43.250373 66.942105 
L 43.822442 68.171834 
L 44.394511 66.954193 
L 44.96658 66.607407 
L 45.538649 65.522437 
L 46.682787 62.498522 
L 48.398994 58.724692 
L 48.971063 59.596492 
L 50.115201 55.52015 
L 50.68727 54.104624 
L 51.831408 52.220793 
L 54.691753 44.431976 
L 55.263822 43.829414 
L 55.835892 42.597829 
L 56.407961 42.067678 
L 56.98003 42.005741 
L 57.552099 39.68205 
L 58.124168 38.791813 
L 58.696237 38.198902 
L 59.268306 38.55619 
L 59.840375 39.364822 
L 60.412444 40.497605 
L 60.984513 42.030112 
L 61.556582 41.603728 
L 62.128651 41.334535 
L 62.70072 43.470988 
L 63.272789 47.136506 
L 64.416927 52.637012 
L 64.988996 54.882136 
L 65.561065 56.093628 
L 66.133134 56.897087 
L 66.705203 60.214355 
L 67.277272 60.831808 
L 67.849341 62.953076 
L 68.42141 63.682661 
L 68.993479 63.512096 
L 69.565548 62.194462 
L 70.137617 63.621247 
L 70.709686 64.08828 
L 71.281755 65.059077 
L 71.853824 65.212372 
L 72.425893 65.847296 
L 72.997962 67.508265 
L 73.570031 70.872567 
L 74.1421 70.141342 
L 74.714169 68.793272 
L 75.286238 66.88804 
L 75.858307 69.746483 
L 76.430376 66.990095 
L 77.002446 68.835331 
L 77.574515 65.273019 
L 78.146584 63.713021 
L 78.718653 63.766458 
L 79.290722 64.635097 
L 79.862791 64.14294 
L 80.43486 65.221702 
L 81.006929 63.798404 
L 82.151067 63.528908 
L 83.295205 62.753155 
L 83.867274 62.752498 
L 84.439343 61.418945 
L 85.011412 60.709469 
L 86.15555 58.629564 
L 86.727619 57.540186 
L 87.871757 54.616177 
L 90.732102 48.490293 
L 92.448309 42.949654 
L 93.020378 42.532184 
L 93.592447 43.40868 
L 94.164516 43.128042 
L 95.880723 45.841237 
L 96.452792 42.820801 
L 98.169 51.537196 
L 98.741069 52.962223 
L 99.313138 53.273416 
L 100.457276 58.312085 
L 101.029345 60.303268 
L 101.601414 61.164752 
L 102.173483 61.599432 
L 103.317621 61.784186 
L 103.88969 61.619144 
L 104.461759 60.813594 
L 105.033828 63.209329 
L 105.605897 62.978243 
L 106.177966 63.83768 
L 106.750035 66.332231 
L 107.322104 70.168117 
L 107.894173 72.231419 
L 108.466242 72.461251 
L 109.038311 71.531546 
L 109.61038 70.927043 
L 110.182449 71.557677 
L 110.754518 71.67491 
L 111.898656 72.232396 
L 112.470725 72.32991 
L 113.042794 72.1543 
L 114.186932 73.849935 
L 114.759001 74.332256 
L 115.903139 71.535947 
L 116.475208 72.00765 
L 117.047277 73.222011 
L 117.619346 69.060348 
L 118.191415 69.489585 
L 118.763484 71.33171 
L 119.335554 72.376612 
L 119.907623 72.102854 
L 120.479692 71.413041 
L 121.62383 69.16401 
L 122.767968 67.112945 
L 123.340037 67.112559 
L 123.912106 66.587111 
L 124.484175 67.732385 
L 126.200382 66.587846 
L 126.772451 66.542408 
L 127.34452 66.840306 
L 128.488658 66.785513 
L 129.060727 66.912565 
L 130.204865 68.017412 
L 130.776934 68.034962 
L 131.349003 67.846437 
L 131.921072 67.223395 
L 132.493141 67.003328 
L 133.06521 66.116568 
L 133.637279 64.936034 
L 134.209348 64.58937 
L 134.781417 64.748057 
L 135.353486 63.283596 
L 135.925555 62.884802 
L 137.069693 60.735413 
L 138.213831 57.963171 
L 142.790384 45.60522 
L 144.506591 40.525839 
L 145.07866 39.298106 
L 145.650729 36.335455 
L 146.222798 31.855831 
L 146.794867 29.28697 
L 147.366936 28.433479 
L 147.939005 27.946115 
L 148.511074 27.722674 
L 149.083143 27.716036 
L 149.655212 26.406499 
L 150.227281 23.299064 
L 150.79935 25.633236 
L 151.371419 25.369576 
L 151.943488 33.063713 
L 153.087626 38.854802 
L 155.947971 50.340409 
L 158.236247 59.622449 
L 159.380385 63.465011 
L 159.952454 65.030156 
L 160.524523 71.818399 
L 161.096592 71.245527 
L 162.240731 69.415851 
L 162.8128 68.470427 
L 163.384869 70.127116 
L 166.245214 85.921017 
L 166.817283 87.409903 
L 167.961421 89.477383 
L 168.53349 89.869372 
L 169.105559 89.755182 
L 169.677628 89.181569 
L 170.249697 88.204656 
L 170.821766 86.884395 
L 171.965904 83.453533 
L 172.537973 81.459118 
L 173.110042 81.065263 
L 173.682111 80.397681 
L 174.25418 79.478386 
L 174.826249 73.418474 
L 175.398318 71.462062 
L 177.114525 67.374874 
L 177.686594 65.932106 
L 178.258663 64.965852 
L 178.830732 63.231308 
L 180.546939 60.058118 
L 181.119008 59.063121 
L 181.691077 58.891444 
L 182.835215 56.08748 
L 183.979354 54.448421 
L 185.123492 51.857547 
L 185.695561 50.560461 
L 186.26763 48.228245 
L 187.411768 45.34313 
L 187.983837 44.187015 
L 189.127975 42.853286 
L 189.700044 43.780688 
L 190.272113 44.039067 
L 190.844182 44.570667 
L 191.416251 47.371682 
L 191.98832 48.64668 
L 192.560389 51.519486 
L 193.132458 53.568746 
L 193.704527 54.975416 
L 195.420734 63.70745 
L 195.992803 65.432705 
L 197.136941 67.274148 
L 197.70901 68.773827 
L 198.281079 68.538543 
L 198.853148 68.652169 
L 199.997286 66.591203 
L 200.569355 64.848171 
L 201.713493 62.019239 
L 202.285562 60.293646 
L 204.573839 51.984695 
L 205.145908 50.899617 
L 205.717977 50.411836 
L 206.290046 50.177824 
L 206.862115 50.61788 
L 207.434184 51.349483 
L 208.578322 53.505864 
L 209.72246 56.656714 
L 210.294529 60.341108 
L 210.866598 63.281042 
L 211.438667 63.884672 
L 212.010736 67.242046 
L 212.582805 69.417911 
L 213.154874 70.664397 
L 213.726943 71.457435 
L 214.299012 71.838706 
L 214.871081 71.701068 
L 215.44315 71.219918 
L 216.015219 70.507572 
L 216.587288 69.541802 
L 217.159357 68.834548 
L 217.731426 67.557013 
L 218.303495 66.699613 
L 218.875564 65.61398 
L 219.447633 63.075464 
L 221.16384 59.666251 
L 221.735909 58.206334 
L 222.307978 57.604606 
L 222.880047 56.48037 
L 223.452116 56.85894 
L 224.024185 56.265044 
L 225.168323 56.220721 
L 225.740393 56.548131 
L 226.312462 57.916076 
L 226.884531 58.665309 
L 227.4566 59.79282 
L 228.600738 62.837648 
L 229.172807 62.563386 
L 229.744876 63.670409 
L 230.316945 63.584832 
L 230.889014 64.687775 
L 231.461083 65.413825 
L 232.033152 64.973405 
L 232.605221 63.92119 
L 233.17729 63.552159 
L 234.321428 60.883837 
L 234.893497 58.370491 
L 235.465566 57.262203 
L 237.181773 55.088067 
L 238.325911 53.115498 
L 240.042118 48.072863 
L 240.614187 47.785837 
L 241.186256 45.637395 
L 241.758325 45.40128 
L 242.330394 43.290819 
L 242.902463 43.486135 
L 243.474532 45.909137 
L 244.046601 46.175514 
L 244.61867 47.2997 
L 245.762808 48.644597 
L 246.334877 48.785721 
L 246.906946 49.164317 
L 247.479016 51.39706 
L 248.051085 52.448857 
L 248.623154 52.219058 
L 249.767292 55.847585 
L 250.339361 55.669992 
L 250.91143 55.638824 
L 251.483499 56.417063 
L 252.055568 56.02359 
L 252.627637 56.646375 
L 253.199706 55.723778 
L 253.771775 56.702654 
L 254.343844 58.113637 
L 254.915913 58.821419 
L 255.487982 58.411844 
L 256.060051 59.197438 
L 256.63212 59.583271 
L 257.204189 59.756243 
L 257.776258 59.37038 
L 258.348327 60.329473 
L 258.920396 60.493109 
L 259.492465 60.287254 
L 260.064534 60.74831 
L 260.636603 59.796251 
L 261.780741 58.967783 
L 262.35281 58.424791 
L 262.924879 57.389359 
L 263.496948 55.958299 
L 264.069017 53.602339 
L 264.641086 50.014209 
L 266.357293 45.089759 
L 266.929362 40.671896 
L 268.0735 37.994378 
L 269.217639 36.481265 
L 269.789708 37.899236 
L 270.361777 38.152648 
L 271.505915 43.339161 
L 272.077984 44.723299 
L 272.650053 47.8541 
L 273.222122 49.775399 
L 273.794191 51.157492 
L 274.938329 56.954276 
L 275.510398 57.73543 
L 276.654536 61.356621 
L 277.226605 61.400136 
L 277.798674 64.060594 
L 278.370743 65.518161 
L 278.942812 62.650634 
L 279.514881 63.972504 
L 280.659019 67.231898 
L 281.231088 65.082065 
L 281.803157 65.076499 
L 282.375226 64.714473 
L 282.947295 63.998517 
L 284.091433 65.654782 
L 284.663502 65.134269 
L 285.235571 64.452691 
L 285.80764 62.889323 
L 286.379709 61.673868 
L 287.523847 60.002289 
L 288.667985 57.772173 
L 289.812124 55.423711 
L 290.384193 50.380683 
L 290.956262 49.334987 
L 291.528331 46.579428 
L 292.1004 42.454353 
L 292.672469 45.226838 
L 293.244538 40.779187 
L 293.816607 41.902322 
L 294.960745 38.288141 
L 296.104883 37.03078 
L 297.249021 45.308479 
L 297.82109 44.215501 
L 298.393159 43.547369 
L 298.965228 43.080835 
L 300.109366 44.031289 
L 300.681435 43.034873 
L 301.253504 42.859296 
L 301.825573 43.131907 
L 302.397642 43.735523 
L 302.969711 40.99192 
L 303.54178 42.677488 
L 304.113849 42.841862 
L 304.685918 43.456074 
L 305.830056 49.390344 
L 306.974194 52.232137 
L 307.546263 48.463915 
L 308.118332 51.250533 
L 308.690401 52.265966 
L 309.26247 54.91 
L 309.834539 55.981674 
L 310.406608 57.73711 
L 310.978678 57.954685 
L 311.550747 58.897983 
L 312.122816 60.219521 
L 312.694885 61.09089 
L 313.266954 61.207428 
L 313.839023 60.82617 
L 314.411092 60.883331 
L 315.55523 63.1829 
L 316.127299 64.711312 
L 317.271437 65.815096 
L 317.843506 67.377037 
L 318.415575 68.217919 
L 318.987644 67.685034 
L 319.559713 66.942171 
L 320.131782 65.890028 
L 320.703851 64.343935 
L 321.27592 63.904265 
L 321.847989 63.223433 
L 322.420058 61.926277 
L 322.992127 61.295935 
L 323.564196 60.224914 
L 324.136265 57.957532 
L 324.708334 56.896785 
L 325.852472 53.916346 
L 326.424541 53.727442 
L 326.99661 51.933434 
L 327.568679 51.460059 
L 328.712817 51.307487 
L 329.284886 50.425854 
L 329.284886 50.425854 
" style="fill:none;stroke:#1f77b4;stroke-linecap:square;stroke-opacity:0.5;stroke-width:0.5;"/>
   </g>
   <g id="line2d_16">
    <path clip-path="url(#p2ee56c52ad)" d="M 36.957614 47.898125 
L 37.529683 50.033569 
L 38.101752 56.247245 
L 38.673821 59.015052 
L 39.24589 64.399064 
L 39.817959 66.806587 
L 40.390028 69.882006 
L 40.962097 72.315405 
L 41.534166 76.200352 
L 42.106235 77.56474 
L 42.678304 81.142901 
L 43.250373 81.230377 
L 43.822442 82.092827 
L 44.394511 82.338714 
L 44.96658 82.048876 
L 45.538649 81.308996 
L 46.110718 78.902458 
L 47.254856 70.071331 
L 47.826925 66.801501 
L 48.398994 64.83204 
L 48.971063 61.324857 
L 50.115201 58.894795 
L 51.259339 56.759403 
L 51.831408 55.293555 
L 52.403477 54.347084 
L 52.975546 53.171923 
L 53.547615 52.327531 
L 54.119684 52.853045 
L 54.691753 52.273487 
L 55.263822 53.857724 
L 55.835892 51.305353 
L 56.407961 51.941647 
L 56.98003 51.458855 
L 57.552099 50.038212 
L 58.124168 51.84386 
L 58.696237 50.229817 
L 59.268306 50.972688 
L 62.128651 57.924672 
L 62.70072 59.86717 
L 63.272789 60.803404 
L 64.416927 64.043496 
L 64.988996 64.05314 
L 65.561065 64.424133 
L 66.133134 66.195416 
L 66.705203 66.696928 
L 67.277272 66.344599 
L 67.849341 66.269495 
L 68.42141 65.433687 
L 68.993479 64.942311 
L 69.565548 65.142202 
L 70.137617 63.621247 
L 70.709686 62.633018 
L 71.281755 61.046856 
L 71.853824 61.17587 
L 72.425893 60.57746 
L 74.1421 57.614799 
L 74.714169 57.333396 
L 75.286238 55.900134 
L 75.858307 54.956284 
L 76.430376 54.497001 
L 77.002446 53.619973 
L 77.574515 53.49551 
L 78.146584 52.860932 
L 78.718653 52.781642 
L 79.862791 52.999317 
L 80.43486 52.610734 
L 81.006929 52.97927 
L 81.578998 53.653118 
L 82.151067 54.088676 
L 82.723136 52.733411 
L 83.295205 54.130223 
L 83.867274 53.475717 
L 85.011412 51.777289 
L 85.583481 51.086903 
L 86.15555 51.432234 
L 86.727619 50.096251 
L 87.299688 49.956835 
L 87.871757 48.782603 
L 89.587964 42.826006 
L 90.160033 41.335478 
L 91.87624 38.244111 
L 93.020378 35.462557 
L 93.592447 34.691777 
L 94.164516 35.024634 
L 94.736585 37.689395 
L 95.308654 42.427694 
L 95.880723 46.233491 
L 97.024861 56.021844 
L 98.169 71.490345 
L 99.313138 77.936271 
L 100.457276 90.339194 
L 101.029345 93.758474 
L 101.601414 94.036336 
L 102.173483 93.439332 
L 102.745552 92.146107 
L 103.88969 88.183573 
L 107.322104 74.105248 
L 107.894173 73.077502 
L 108.466242 69.680687 
L 110.182449 63.535126 
L 110.754518 61.749331 
L 111.326587 60.511218 
L 111.898656 59.569599 
L 112.470725 58.912861 
L 113.042794 58.505754 
L 114.186932 57.089036 
L 115.33107 56.692847 
L 115.903139 57.021813 
L 116.475208 57.077489 
L 117.047277 56.80752 
L 117.619346 57.35321 
L 118.763484 57.918582 
L 119.335554 57.729826 
L 119.907623 57.847864 
L 120.479692 57.79756 
L 121.62383 59.233464 
L 122.195899 59.916746 
L 123.340037 61.691166 
L 123.912106 62.351275 
L 124.484175 65.742294 
L 125.056244 66.934786 
L 125.628313 68.666026 
L 126.200382 71.039618 
L 126.772451 72.019715 
L 127.34452 74.309625 
L 127.916589 73.739297 
L 128.488658 73.528821 
L 129.060727 74.207933 
L 129.632796 75.4613 
L 130.204865 75.981676 
L 130.776934 74.456409 
L 131.349003 72.434991 
L 131.921072 71.708473 
L 132.493141 71.29285 
L 133.06521 71.394199 
L 134.781417 66.970952 
L 135.353486 64.688751 
L 137.069693 59.971161 
L 139.930038 52.453334 
L 140.502107 50.298145 
L 141.074177 48.61414 
L 141.646246 47.376316 
L 142.218315 45.751055 
L 142.790384 43.515941 
L 143.934522 40.8939 
L 145.07866 39.298106 
L 145.650729 38.297668 
L 146.222798 36.818847 
L 146.794867 36.430767 
L 147.366936 34.41988 
L 147.939005 33.278424 
L 148.511074 30.553102 
L 149.083143 28.860839 
L 149.655212 28.215844 
L 150.227281 33.837678 
L 150.79935 34.308529 
L 151.371419 34.926697 
L 151.943488 35.964362 
L 152.515557 37.377778 
L 153.087626 39.107788 
L 154.231764 45.400483 
L 154.803833 49.05715 
L 155.375902 51.928612 
L 155.947971 55.590878 
L 157.092109 59.095589 
L 157.664178 62.204454 
L 158.236247 66.626324 
L 158.808316 64.733207 
L 159.380385 64.135221 
L 159.952454 65.030156 
L 160.524523 66.305478 
L 161.096592 67.262964 
L 161.668661 62.199521 
L 162.240731 64.004607 
L 162.8128 62.12599 
L 163.384869 59.706977 
L 163.956938 58.306618 
L 164.529007 58.447953 
L 165.101076 57.68773 
L 166.817283 57.380329 
L 167.389352 59.039429 
L 167.961421 62.840646 
L 168.53349 62.733427 
L 169.105559 62.764444 
L 169.677628 63.942516 
L 170.249697 70.266691 
L 171.393835 72.300825 
L 172.537973 72.557523 
L 173.110042 72.460241 
L 173.682111 71.804127 
L 174.25418 71.782062 
L 174.826249 70.817863 
L 175.398318 69.479481 
L 175.970387 68.786049 
L 177.686594 64.075055 
L 178.830732 61.001163 
L 179.97487 59.406376 
L 180.546939 57.913837 
L 181.119008 56.972415 
L 182.263146 53.734699 
L 182.835215 52.015604 
L 183.407285 51.028636 
L 184.551423 47.532601 
L 185.123492 44.968453 
L 185.695561 43.150243 
L 186.839699 37.875579 
L 187.411768 36.075153 
L 188.555906 32.973612 
L 189.127975 32.983723 
L 189.700044 31.614926 
L 190.844182 33.883409 
L 191.416251 37.397601 
L 191.98832 39.864226 
L 192.560389 43.507991 
L 193.132458 49.73925 
L 195.420734 63.856922 
L 195.992803 65.77583 
L 196.564872 69.190451 
L 197.70901 72.664709 
L 198.281079 73.022067 
L 198.853148 72.861097 
L 199.425217 72.409391 
L 200.569355 69.320963 
L 204.573839 52.620606 
L 206.290046 49.827487 
L 206.862115 49.634446 
L 207.434184 48.889167 
L 208.006253 49.501374 
L 208.578322 49.268776 
L 209.150391 48.581254 
L 209.72246 49.681969 
L 210.294529 49.647623 
L 212.010736 56.998619 
L 213.726943 60.096675 
L 214.299012 61.853426 
L 214.871081 64.090981 
L 215.44315 64.262144 
L 216.015219 63.265465 
L 216.587288 63.268924 
L 217.159357 62.434121 
L 218.303495 60.16299 
L 219.447633 57.14524 
L 220.591771 53.476825 
L 222.307978 47.388445 
L 222.880047 48.534509 
L 224.024185 45.948406 
L 224.596254 49.146732 
L 225.168323 50.786472 
L 225.740393 50.874329 
L 226.312462 51.194222 
L 226.884531 52.524842 
L 229.172807 55.667029 
L 229.744876 56.182603 
L 230.316945 56.873417 
L 231.461083 58.836131 
L 232.033152 59.497496 
L 233.17729 58.274363 
L 233.749359 58.462792 
L 234.321428 58.487174 
L 234.893497 58.320933 
L 235.465566 57.933264 
L 236.037635 57.684599 
L 237.753842 56.103494 
L 238.325911 56.009218 
L 238.89798 55.106588 
L 240.042118 54.786413 
L 240.614187 54.523718 
L 241.758325 54.746979 
L 242.902463 54.419719 
L 243.474532 54.110632 
L 244.046601 54.20479 
L 247.479016 49.119481 
L 248.051085 47.857986 
L 248.623154 47.541029 
L 249.195223 46.913929 
L 249.767292 46.461591 
L 250.339361 46.22252 
L 250.91143 44.301796 
L 251.483499 44.720606 
L 252.055568 45.593557 
L 252.627637 44.801353 
L 253.199706 45.506462 
L 253.771775 45.042585 
L 254.343844 46.551541 
L 254.915913 46.306268 
L 256.060051 48.947449 
L 256.63212 51.973001 
L 258.348327 58.756503 
L 258.920396 59.137195 
L 259.492465 60.287254 
L 260.064534 61.918922 
L 260.636603 62.110704 
L 261.208672 62.951487 
L 261.780741 62.8642 
L 262.35281 61.630084 
L 262.924879 60.004622 
L 264.069017 58.032641 
L 264.641086 55.787141 
L 265.213155 54.39927 
L 265.785224 53.391789 
L 266.357293 50.529075 
L 266.929362 49.538542 
L 267.501431 46.812363 
L 268.64557 43.330827 
L 269.217639 40.204152 
L 269.789708 38.541644 
L 270.361777 37.525227 
L 270.933846 37.533712 
L 271.505915 37.299944 
L 272.077984 37.609394 
L 272.650053 38.592196 
L 273.222122 38.253223 
L 273.794191 41.388823 
L 274.36626 43.492645 
L 274.938329 44.15698 
L 275.510398 45.461928 
L 276.082467 46.157097 
L 277.226605 47.923198 
L 278.370743 54.866027 
L 279.514881 56.774976 
L 280.659019 62.872366 
L 281.231088 63.370157 
L 281.803157 65.076499 
L 282.375226 64.724487 
L 282.947295 66.761232 
L 284.091433 67.389661 
L 284.663502 66.623874 
L 285.235571 67.127883 
L 285.80764 67.349914 
L 286.379709 67.280478 
L 286.951778 66.929322 
L 287.523847 66.323286 
L 289.240054 63.72397 
L 289.812124 64.050547 
L 290.384193 62.360145 
L 290.956262 61.285681 
L 292.1004 57.287629 
L 292.672469 56.304603 
L 293.244538 55.988732 
L 293.816607 54.653739 
L 294.388676 53.995862 
L 294.960745 51.082462 
L 295.532814 49.770488 
L 296.104883 48.902881 
L 296.676952 47.653118 
L 297.249021 46.851392 
L 298.393159 42.934104 
L 298.965228 41.906476 
L 299.537297 38.757443 
L 300.681435 34.436553 
L 301.253504 34.232307 
L 301.825573 34.56881 
L 302.397642 35.27795 
L 302.969711 36.853791 
L 303.54178 36.664887 
L 304.113849 39.003656 
L 304.685918 41.973093 
L 305.257987 44.203987 
L 307.546263 55.869245 
L 308.690401 58.981811 
L 309.26247 61.14015 
L 309.834539 62.668512 
L 310.406608 67.528994 
L 310.978678 71.086482 
L 311.550747 72.234858 
L 312.122816 74.814064 
L 312.694885 74.970956 
L 313.266954 79.010977 
L 313.839023 78.181737 
L 314.411092 79.724425 
L 314.983161 76.376168 
L 316.127299 73.863189 
L 316.699368 71.225686 
L 318.415575 69.999109 
L 319.559713 67.036697 
L 321.27592 63.475879 
L 321.847989 62.265008 
L 322.420058 61.926277 
L 322.992127 60.074781 
L 323.564196 58.910443 
L 324.136265 57.355935 
L 324.708334 56.235113 
L 325.280403 52.139504 
L 326.424541 49.258302 
L 326.99661 47.457463 
L 327.568679 46.057827 
L 328.140748 43.958249 
L 328.712817 45.2968 
L 329.284886 44.80848 
L 329.284886 44.80848 
" style="fill:none;stroke:#1f77b4;stroke-linecap:square;stroke-opacity:0.5;stroke-width:0.5;"/>
   </g>
   <g id="patch_3">
    <path d="M 22.34125 97.5732 
L 22.34125 19.7622 
" style="fill:none;stroke:#000000;stroke-linecap:square;stroke-linejoin:miter;stroke-width:0.5;"/>
   </g>
   <g id="patch_4">
    <path d="M 343.90125 97.5732 
L 343.90125 19.7622 
" style="fill:none;stroke:#000000;stroke-linecap:square;stroke-linejoin:miter;stroke-width:0.5;"/>
   </g>
   <g id="patch_5">
    <path d="M 22.34125 97.5732 
L 343.90125 97.5732 
" style="fill:none;stroke:#000000;stroke-linecap:square;stroke-linejoin:miter;stroke-width:0.5;"/>
   </g>
   <g id="patch_6">
    <path d="M 22.34125 19.7622 
L 343.90125 19.7622 
" style="fill:none;stroke:#000000;stroke-linecap:square;stroke-linejoin:miter;stroke-width:0.5;"/>
   </g>
   <g id="legend_1">
    <g id="line2d_17">
     <path d="M 126.633594 11.724375 
L 138.633594 11.724375 
" style="fill:none;stroke:#ff7f0e;stroke-linecap:square;stroke-width:0.5;"/>
    </g>
    <g id="line2d_18"/>
    <g id="text_12">
     <!-- True state -->
     <defs>
      <path d="M 72.796875 44.90625 
L 70.796875 67.59375 
L 5.796875 67.59375 
L 3.796875 44.90625 
L 6.90625 44.90625 
C 8.296875 61.796875 10.59375 64.296875 25.90625 64.296875 
C 27.796875 64.296875 30.90625 64.296875 31.703125 64.09375 
C 33.59375 63.703125 33.703125 62.703125 33.703125 60.203125 
L 33.703125 8.203125 
C 33.703125 4.703125 33.703125 3.296875 23.296875 3.296875 
L 19.5 3.296875 
L 19.5 0 
C 23.203125 0.296875 34 0.296875 38.296875 0.296875 
C 42.59375 0.296875 53.40625 0.296875 57.09375 0 
L 57.09375 3.296875 
L 53.296875 3.296875 
C 42.90625 3.296875 42.90625 4.703125 42.90625 8.203125 
L 42.90625 60.203125 
C 42.90625 62.5 42.90625 63.703125 45 64.09375 
C 45.90625 64.296875 48.796875 64.296875 50.703125 64.296875 
C 66 64.296875 68.296875 61.796875 69.703125 44.90625 
z
" id="LMRoman8-Regular-84"/>
      <path d="M 56.203125 0 
L 56.203125 3.296875 
C 49.40625 3.296875 48.59375 4 48.59375 8.90625 
L 48.59375 44.09375 
L 33.40625 43 
L 33.40625 39.703125 
C 40.203125 39.703125 41 39 41 34.09375 
L 41 16.703125 
C 41 8.09375 35.796875 1.796875 28.296875 1.796875 
C 19.703125 1.796875 19.296875 6.09375 19.296875 11.09375 
L 19.296875 44.09375 
L 4.09375 43 
L 4.09375 39.703125 
C 11.703125 39.703125 11.703125 39.40625 11.703125 30.5 
L 11.703125 15.5 
C 11.703125 8.296875 11.703125 -1 27.703125 -1 
C 37.09375 -1 40.703125 6.203125 41.203125 7.09375 
L 41.296875 7.09375 
L 41.296875 -1 
z
" id="LMRoman8-Regular-117"/>
      <path d="M 38.296875 12.90625 
C 38.296875 17.703125 35.40625 24.703125 23.5 26.90625 
C 22.703125 27.09375 17.09375 28.09375 16.703125 28.09375 
C 13.59375 28.796875 8.90625 30.90625 8.90625 34.90625 
C 8.90625 37.90625 11.09375 42.09375 20.59375 42.09375 
C 31.796875 42.09375 32.296875 33.90625 32.5 31.09375 
C 32.59375 30.296875 33.296875 30 34 30 
C 35.59375 30 35.59375 30.703125 35.59375 32.59375 
L 35.59375 42 
C 35.59375 43.59375 35.59375 44.59375 34.296875 44.59375 
C 33.796875 44.59375 33.5 44.59375 31.90625 43 
C 31.703125 42.90625 30.796875 42 30.5 42 
C 30.5 42 30.203125 42 29.59375 42.40625 
C 28 43.5 25.09375 44.59375 20.59375 44.59375 
C 6.59375 44.59375 3.5 37 3.5 32.203125 
C 3.5 27.203125 7.203125 24.296875 7.5 24 
C 11.5 21 13.796875 20.59375 20.5 19.40625 
C 25.203125 18.5 32.90625 17.09375 32.90625 10.296875 
C 32.90625 6.40625 30.296875 1.796875 21.09375 1.796875 
C 11 1.796875 8.09375 9.59375 6.796875 14.90625 
C 6.40625 16.203125 6.296875 16.703125 5.09375 16.703125 
C 3.5 16.703125 3.5 15.90625 3.5 14 
L 3.5 1.59375 
C 3.5 0 3.5 -1 4.796875 -1 
C 5.40625 -1 5.5 -0.90625 7.296875 1 
C 7.796875 1.5 8.90625 2.796875 9.40625 3.296875 
C 13.90625 -0.796875 18.59375 -1 21.203125 -1 
C 33.90625 -1 38.296875 6.296875 38.296875 12.90625 
z
" id="LMRoman8-Regular-115"/>
     </defs>
     <g transform="translate(143.433594 13.824375)scale(0.06 -0.06)">
      <use xlink:href="#LMRoman8-Regular-84"/>
      <use x="76.699982" xlink:href="#LMRoman8-Regular-114"/>
      <use x="118.099976" xlink:href="#LMRoman8-Regular-117"/>
      <use x="177.09996" xlink:href="#LMRoman8-Regular-101"/>
      <use x="224.299957" xlink:href="#LMRoman8-Regular-32"/>
      <use x="259.699951" xlink:href="#LMRoman8-Regular-115"/>
      <use x="301.599945" xlink:href="#LMRoman8-Regular-116"/>
      <use x="342.899933" xlink:href="#LMRoman8-Regular-97"/>
      <use x="395.999924" xlink:href="#LMRoman8-Regular-116"/>
      <use x="437.299911" xlink:href="#LMRoman8-Regular-101"/>
     </g>
    </g>
    <g id="line2d_19">
     <path d="M 184.504531 11.724375 
L 196.504531 11.724375 
" style="fill:none;stroke:#1f77b4;stroke-linecap:square;stroke-opacity:0.5;stroke-width:0.5;"/>
    </g>
    <g id="line2d_20"/>
    <g id="text_13">
     <!-- State samples -->
     <defs>
      <path d="M 85.703125 0 
L 85.703125 3.296875 
C 79.296875 3.296875 78.09375 3.296875 78.09375 7.796875 
L 78.09375 30.296875 
C 78.09375 38.40625 74.59375 44.09375 63.703125 44.09375 
C 54.5 44.09375 49.90625 37.796875 48.296875 34.90625 
C 46.5 42.09375 40.796875 44.09375 34.296875 44.09375 
C 24.59375 44.09375 20 37.203125 18.703125 34.5 
L 18.59375 34.5 
L 18.59375 44.09375 
L 4.09375 43 
L 4.09375 39.703125 
C 10.90625 39.703125 11.703125 39 11.703125 34.09375 
L 11.703125 7.796875 
C 11.703125 3.296875 10.5 3.296875 4.09375 3.296875 
L 4.09375 0 
C 8.40625 0.296875 12.796875 0.296875 15.5 0.296875 
C 18.40625 0.296875 22.59375 0.296875 26.90625 0 
L 26.90625 3.296875 
C 20.5 3.296875 19.296875 3.296875 19.296875 7.796875 
L 19.296875 25.90625 
C 19.296875 36.40625 27.203125 41.296875 33.5 41.296875 
C 40 41.296875 41.09375 36.203125 41.09375 30.703125 
L 41.09375 7.796875 
C 41.09375 3.296875 39.90625 3.296875 33.5 3.296875 
L 33.5 0 
C 37.796875 0.296875 42.203125 0.296875 44.90625 0.296875 
C 47.796875 0.296875 52 0.296875 56.296875 0 
L 56.296875 3.296875 
C 49.90625 3.296875 48.703125 3.296875 48.703125 7.796875 
L 48.703125 25.90625 
C 48.703125 36.40625 56.59375 41.296875 62.90625 41.296875 
C 69.40625 41.296875 70.5 36.203125 70.5 30.703125 
L 70.5 7.796875 
C 70.5 3.296875 69.296875 3.296875 62.90625 3.296875 
L 62.90625 0 
C 67.203125 0.296875 71.59375 0.296875 74.296875 0.296875 
C 77.203125 0.296875 81.40625 0.296875 85.703125 0 
z
" id="LMRoman8-Regular-109"/>
     </defs>
     <g transform="translate(201.304531 13.824375)scale(0.06 -0.06)">
      <use xlink:href="#LMRoman8-Regular-83"/>
      <use x="58.999985" xlink:href="#LMRoman8-Regular-116"/>
      <use x="100.299973" xlink:href="#LMRoman8-Regular-97"/>
      <use x="153.399963" xlink:href="#LMRoman8-Regular-116"/>
      <use x="194.699951" xlink:href="#LMRoman8-Regular-101"/>
      <use x="241.899948" xlink:href="#LMRoman8-Regular-32"/>
      <use x="277.299942" xlink:href="#LMRoman8-Regular-115"/>
      <use x="319.199936" xlink:href="#LMRoman8-Regular-97"/>
      <use x="372.299927" xlink:href="#LMRoman8-Regular-109"/>
      <use x="460.799911" xlink:href="#LMRoman8-Regular-112"/>
      <use x="519.799896" xlink:href="#LMRoman8-Regular-108"/>
      <use x="549.299881" xlink:href="#LMRoman8-Regular-101"/>
      <use x="596.499878" xlink:href="#LMRoman8-Regular-115"/>
     </g>
    </g>
   </g>
  </g>
 </g>
 <defs>
  <clipPath id="p2ee56c52ad">
   <rect height="77.811" width="321.56" x="22.34125" y="19.7622"/>
  </clipPath>
 </defs>
</svg>
