<?xml version="1.0" encoding="utf-8" standalone="no"?>
<!DOCTYPE svg PUBLIC "-//W3C//DTD SVG 1.1//EN"
  "http://www.w3.org/Graphics/SVG/1.1/DTD/svg11.dtd">
<!-- Created with matplotlib (https://matplotlib.org/) -->
<svg height="138.4375pt" version="1.1" viewBox="0 0 354.91375 138.4375" width="354.91375pt" xmlns="http://www.w3.org/2000/svg" xmlns:xlink="http://www.w3.org/1999/xlink">
 <defs>
  <style type="text/css">
*{stroke-linecap:butt;stroke-linejoin:round;}
  </style>
 </defs>
 <g id="figure_1">
  <g id="patch_1">
   <path d="M 0 138.4375 
L 354.91375 138.4375 
L 354.91375 0 
L 0 0 
z
" style="fill:#ffffff;"/>
  </g>
  <g id="axes_1">
   <g id="patch_2">
    <path d="M 39.59375 108.0275 
L 344.21375 108.0275 
L 344.21375 10.7 
L 39.59375 10.7 
z
" style="fill:#ffffff;"/>
   </g>
   <g id="patch_3">
    <path clip-path="url(#pf6d98da948)" d="M 53.440114 108.0275 
L 56.181968 108.0275 
L 56.181968 47.825693 
L 53.440114 47.825693 
z
" style="fill:#1f77b4;"/>
   </g>
   <g id="patch_4">
    <path clip-path="url(#pf6d98da948)" d="M 56.181968 108.0275 
L 58.923822 108.0275 
L 58.923822 38.862644 
L 56.181968 38.862644 
z
" style="fill:#1f77b4;"/>
   </g>
   <g id="patch_5">
    <path clip-path="url(#pf6d98da948)" d="M 58.923822 108.0275 
L 61.665676 108.0275 
L 61.665676 32.439127 
L 58.923822 32.439127 
z
" style="fill:#1f77b4;"/>
   </g>
   <g id="patch_6">
    <path clip-path="url(#pf6d98da948)" d="M 61.665676 108.0275 
L 64.40753 108.0275 
L 64.40753 33.186047 
L 61.665676 33.186047 
z
" style="fill:#1f77b4;"/>
   </g>
   <g id="patch_7">
    <path clip-path="url(#pf6d98da948)" d="M 64.40753 108.0275 
L 67.149385 108.0275 
L 67.149385 28.704523 
L 64.40753 28.704523 
z
" style="fill:#1f77b4;"/>
   </g>
   <g id="patch_8">
    <path clip-path="url(#pf6d98da948)" d="M 67.149385 108.0275 
L 69.891239 108.0275 
L 69.891239 28.555139 
L 67.149385 28.555139 
z
" style="fill:#1f77b4;"/>
   </g>
   <g id="patch_9">
    <path clip-path="url(#pf6d98da948)" d="M 69.891239 108.0275 
L 72.633093 108.0275 
L 72.633093 28.181679 
L 69.891239 28.181679 
z
" style="fill:#1f77b4;"/>
   </g>
   <g id="patch_10">
    <path clip-path="url(#pf6d98da948)" d="M 72.633093 108.0275 
L 75.374947 108.0275 
L 75.374947 27.957602 
L 72.633093 27.957602 
z
" style="fill:#1f77b4;"/>
   </g>
   <g id="patch_11">
    <path clip-path="url(#pf6d98da948)" d="M 75.374947 108.0275 
L 78.116801 108.0275 
L 78.116801 26.911913 
L 75.374947 26.911913 
z
" style="fill:#1f77b4;"/>
   </g>
   <g id="patch_12">
    <path clip-path="url(#pf6d98da948)" d="M 78.116801 108.0275 
L 80.858655 108.0275 
L 80.858655 30.721209 
L 78.116801 30.721209 
z
" style="fill:#1f77b4;"/>
   </g>
   <g id="patch_13">
    <path clip-path="url(#pf6d98da948)" d="M 80.858655 108.0275 
L 83.60051 108.0275 
L 83.60051 29.077983 
L 80.858655 29.077983 
z
" style="fill:#1f77b4;"/>
   </g>
   <g id="patch_14">
    <path clip-path="url(#pf6d98da948)" d="M 83.60051 108.0275 
L 86.342364 108.0275 
L 86.342364 30.04898 
L 83.60051 30.04898 
z
" style="fill:#1f77b4;"/>
   </g>
   <g id="patch_15">
    <path clip-path="url(#pf6d98da948)" d="M 86.342364 108.0275 
L 89.084218 108.0275 
L 89.084218 26.986606 
L 86.342364 26.986606 
z
" style="fill:#1f77b4;"/>
   </g>
   <g id="patch_16">
    <path clip-path="url(#pf6d98da948)" d="M 89.084218 108.0275 
L 91.826072 108.0275 
L 91.826072 25.268688 
L 89.084218 25.268688 
z
" style="fill:#1f77b4;"/>
   </g>
   <g id="patch_17">
    <path clip-path="url(#pf6d98da948)" d="M 91.826072 108.0275 
L 94.567926 108.0275 
L 94.567926 28.704523 
L 91.826072 28.704523 
z
" style="fill:#1f77b4;"/>
   </g>
   <g id="patch_18">
    <path clip-path="url(#pf6d98da948)" d="M 94.567926 108.0275 
L 97.309781 108.0275 
L 97.309781 25.940917 
L 94.567926 25.940917 
z
" style="fill:#1f77b4;"/>
   </g>
   <g id="patch_19">
    <path clip-path="url(#pf6d98da948)" d="M 97.309781 108.0275 
L 100.051635 108.0275 
L 100.051635 26.986606 
L 97.309781 26.986606 
z
" style="fill:#1f77b4;"/>
   </g>
   <g id="patch_20">
    <path clip-path="url(#pf6d98da948)" d="M 100.051635 108.0275 
L 102.793489 108.0275 
L 102.793489 27.061298 
L 100.051635 27.061298 
z
" style="fill:#1f77b4;"/>
   </g>
   <g id="patch_21">
    <path clip-path="url(#pf6d98da948)" d="M 102.793489 108.0275 
L 105.535343 108.0275 
L 105.535343 27.50945 
L 102.793489 27.50945 
z
" style="fill:#1f77b4;"/>
   </g>
   <g id="patch_22">
    <path clip-path="url(#pf6d98da948)" d="M 105.535343 108.0275 
L 108.277197 108.0275 
L 108.277197 22.430389 
L 105.535343 22.430389 
z
" style="fill:#1f77b4;"/>
   </g>
   <g id="patch_23">
    <path clip-path="url(#pf6d98da948)" d="M 108.277197 108.0275 
L 111.019052 108.0275 
L 111.019052 27.13599 
L 108.277197 27.13599 
z
" style="fill:#1f77b4;"/>
   </g>
   <g id="patch_24">
    <path clip-path="url(#pf6d98da948)" d="M 111.019052 108.0275 
L 113.760906 108.0275 
L 113.760906 29.600828 
L 111.019052 29.600828 
z
" style="fill:#1f77b4;"/>
   </g>
   <g id="patch_25">
    <path clip-path="url(#pf6d98da948)" d="M 113.760906 108.0275 
L 116.50276 108.0275 
L 116.50276 25.791532 
L 113.760906 25.791532 
z
" style="fill:#1f77b4;"/>
   </g>
   <g id="patch_26">
    <path clip-path="url(#pf6d98da948)" d="M 116.50276 108.0275 
L 119.244614 108.0275 
L 119.244614 24.671151 
L 116.50276 24.671151 
z
" style="fill:#1f77b4;"/>
   </g>
   <g id="patch_27">
    <path clip-path="url(#pf6d98da948)" d="M 119.244614 108.0275 
L 121.986468 108.0275 
L 121.986468 30.273057 
L 119.244614 30.273057 
z
" style="fill:#1f77b4;"/>
   </g>
   <g id="patch_28">
    <path clip-path="url(#pf6d98da948)" d="M 121.986468 108.0275 
L 124.728322 108.0275 
L 124.728322 31.916282 
L 121.986468 31.916282 
z
" style="fill:#1f77b4;"/>
   </g>
   <g id="patch_29">
    <path clip-path="url(#pf6d98da948)" d="M 124.728322 108.0275 
L 127.470177 108.0275 
L 127.470177 33.410123 
L 124.728322 33.410123 
z
" style="fill:#1f77b4;"/>
   </g>
   <g id="patch_30">
    <path clip-path="url(#pf6d98da948)" d="M 127.470177 108.0275 
L 130.212031 108.0275 
L 130.212031 34.605197 
L 127.470177 34.605197 
z
" style="fill:#1f77b4;"/>
   </g>
   <g id="patch_31">
    <path clip-path="url(#pf6d98da948)" d="M 130.212031 108.0275 
L 132.953885 108.0275 
L 132.953885 31.692206 
L 130.212031 31.692206 
z
" style="fill:#1f77b4;"/>
   </g>
   <g id="patch_32">
    <path clip-path="url(#pf6d98da948)" d="M 132.953885 108.0275 
L 135.695739 108.0275 
L 135.695739 36.323114 
L 132.953885 36.323114 
z
" style="fill:#1f77b4;"/>
   </g>
   <g id="patch_33">
    <path clip-path="url(#pf6d98da948)" d="M 135.695739 108.0275 
L 138.437593 108.0275 
L 138.437593 35.80027 
L 135.695739 35.80027 
z
" style="fill:#1f77b4;"/>
   </g>
   <g id="patch_34">
    <path clip-path="url(#pf6d98da948)" d="M 138.437593 108.0275 
L 141.179448 108.0275 
L 141.179448 39.086721 
L 138.437593 39.086721 
z
" style="fill:#1f77b4;"/>
   </g>
   <g id="patch_35">
    <path clip-path="url(#pf6d98da948)" d="M 141.179448 108.0275 
L 143.921302 108.0275 
L 143.921302 41.178099 
L 141.179448 41.178099 
z
" style="fill:#1f77b4;"/>
   </g>
   <g id="patch_36">
    <path clip-path="url(#pf6d98da948)" d="M 143.921302 108.0275 
L 146.663156 108.0275 
L 146.663156 39.012029 
L 143.921302 39.012029 
z
" style="fill:#1f77b4;"/>
   </g>
   <g id="patch_37">
    <path clip-path="url(#pf6d98da948)" d="M 146.663156 108.0275 
L 149.40501 108.0275 
L 149.40501 38.862644 
L 146.663156 38.862644 
z
" style="fill:#1f77b4;"/>
   </g>
   <g id="patch_38">
    <path clip-path="url(#pf6d98da948)" d="M 149.40501 108.0275 
L 152.146864 108.0275 
L 152.146864 41.178099 
L 149.40501 41.178099 
z
" style="fill:#1f77b4;"/>
   </g>
   <g id="patch_39">
    <path clip-path="url(#pf6d98da948)" d="M 152.146864 108.0275 
L 154.888718 108.0275 
L 154.888718 41.028714 
L 152.146864 41.028714 
z
" style="fill:#1f77b4;"/>
   </g>
   <g id="patch_40">
    <path clip-path="url(#pf6d98da948)" d="M 154.888718 108.0275 
L 157.630573 108.0275 
L 157.630573 40.954022 
L 154.888718 40.954022 
z
" style="fill:#1f77b4;"/>
   </g>
   <g id="patch_41">
    <path clip-path="url(#pf6d98da948)" d="M 157.630573 108.0275 
L 160.372427 108.0275 
L 160.372427 42.149095 
L 157.630573 42.149095 
z
" style="fill:#1f77b4;"/>
   </g>
   <g id="patch_42">
    <path clip-path="url(#pf6d98da948)" d="M 160.372427 108.0275 
L 163.114281 108.0275 
L 163.114281 39.460181 
L 160.372427 39.460181 
z
" style="fill:#1f77b4;"/>
   </g>
   <g id="patch_43">
    <path clip-path="url(#pf6d98da948)" d="M 163.114281 108.0275 
L 165.856135 108.0275 
L 165.856135 37.891648 
L 163.114281 37.891648 
z
" style="fill:#1f77b4;"/>
   </g>
   <g id="patch_44">
    <path clip-path="url(#pf6d98da948)" d="M 165.856135 108.0275 
L 168.597989 108.0275 
L 168.597989 39.983025 
L 165.856135 39.983025 
z
" style="fill:#1f77b4;"/>
   </g>
   <g id="patch_45">
    <path clip-path="url(#pf6d98da948)" d="M 168.597989 108.0275 
L 171.339844 108.0275 
L 171.339844 41.103407 
L 168.597989 41.103407 
z
" style="fill:#1f77b4;"/>
   </g>
   <g id="patch_46">
    <path clip-path="url(#pf6d98da948)" d="M 171.339844 108.0275 
L 174.081698 108.0275 
L 174.081698 37.144727 
L 171.339844 37.144727 
z
" style="fill:#1f77b4;"/>
   </g>
   <g id="patch_47">
    <path clip-path="url(#pf6d98da948)" d="M 174.081698 108.0275 
L 176.823552 108.0275 
L 176.823552 36.696574 
L 174.081698 36.696574 
z
" style="fill:#1f77b4;"/>
   </g>
   <g id="patch_48">
    <path clip-path="url(#pf6d98da948)" d="M 176.823552 108.0275 
L 179.565406 108.0275 
L 179.565406 42.821324 
L 176.823552 42.821324 
z
" style="fill:#1f77b4;"/>
   </g>
   <g id="patch_49">
    <path clip-path="url(#pf6d98da948)" d="M 179.565406 108.0275 
L 182.30726 108.0275 
L 182.30726 38.862644 
L 179.565406 38.862644 
z
" style="fill:#1f77b4;"/>
   </g>
   <g id="patch_50">
    <path clip-path="url(#pf6d98da948)" d="M 182.30726 108.0275 
L 185.049115 108.0275 
L 185.049115 41.700943 
L 182.30726 41.700943 
z
" style="fill:#1f77b4;"/>
   </g>
   <g id="patch_51">
    <path clip-path="url(#pf6d98da948)" d="M 185.049115 108.0275 
L 187.790969 108.0275 
L 187.790969 38.041032 
L 185.049115 38.041032 
z
" style="fill:#1f77b4;"/>
   </g>
   <g id="patch_52">
    <path clip-path="url(#pf6d98da948)" d="M 187.790969 108.0275 
L 190.532823 108.0275 
L 190.532823 39.833641 
L 187.790969 39.833641 
z
" style="fill:#1f77b4;"/>
   </g>
   <g id="patch_53">
    <path clip-path="url(#pf6d98da948)" d="M 190.532823 108.0275 
L 193.274677 108.0275 
L 193.274677 38.71326 
L 190.532823 38.71326 
z
" style="fill:#1f77b4;"/>
   </g>
   <g id="patch_54">
    <path clip-path="url(#pf6d98da948)" d="M 193.274677 108.0275 
L 196.016531 108.0275 
L 196.016531 41.178099 
L 193.274677 41.178099 
z
" style="fill:#1f77b4;"/>
   </g>
   <g id="patch_55">
    <path clip-path="url(#pf6d98da948)" d="M 196.016531 108.0275 
L 198.758385 108.0275 
L 198.758385 39.385489 
L 196.016531 39.385489 
z
" style="fill:#1f77b4;"/>
   </g>
   <g id="patch_56">
    <path clip-path="url(#pf6d98da948)" d="M 198.758385 108.0275 
L 201.50024 108.0275 
L 201.50024 39.161413 
L 198.758385 39.161413 
z
" style="fill:#1f77b4;"/>
   </g>
   <g id="patch_57">
    <path clip-path="url(#pf6d98da948)" d="M 201.50024 108.0275 
L 204.242094 108.0275 
L 204.242094 42.522556 
L 201.50024 42.522556 
z
" style="fill:#1f77b4;"/>
   </g>
   <g id="patch_58">
    <path clip-path="url(#pf6d98da948)" d="M 204.242094 108.0275 
L 206.983948 108.0275 
L 206.983948 37.368803 
L 204.242094 37.368803 
z
" style="fill:#1f77b4;"/>
   </g>
   <g id="patch_59">
    <path clip-path="url(#pf6d98da948)" d="M 206.983948 108.0275 
L 209.725802 108.0275 
L 209.725802 36.621882 
L 206.983948 36.621882 
z
" style="fill:#1f77b4;"/>
   </g>
   <g id="patch_60">
    <path clip-path="url(#pf6d98da948)" d="M 209.725802 108.0275 
L 212.467656 108.0275 
L 212.467656 40.13241 
L 209.725802 40.13241 
z
" style="fill:#1f77b4;"/>
   </g>
   <g id="patch_61">
    <path clip-path="url(#pf6d98da948)" d="M 212.467656 108.0275 
L 215.209511 108.0275 
L 215.209511 37.518187 
L 212.467656 37.518187 
z
" style="fill:#1f77b4;"/>
   </g>
   <g id="patch_62">
    <path clip-path="url(#pf6d98da948)" d="M 215.209511 108.0275 
L 217.951365 108.0275 
L 217.951365 35.80027 
L 215.209511 35.80027 
z
" style="fill:#1f77b4;"/>
   </g>
   <g id="patch_63">
    <path clip-path="url(#pf6d98da948)" d="M 217.951365 108.0275 
L 220.693219 108.0275 
L 220.693219 35.352117 
L 217.951365 35.352117 
z
" style="fill:#1f77b4;"/>
   </g>
   <g id="patch_64">
    <path clip-path="url(#pf6d98da948)" d="M 220.693219 108.0275 
L 223.435073 108.0275 
L 223.435073 39.684257 
L 220.693219 39.684257 
z
" style="fill:#1f77b4;"/>
   </g>
   <g id="patch_65">
    <path clip-path="url(#pf6d98da948)" d="M 223.435073 108.0275 
L 226.176927 108.0275 
L 226.176927 36.696574 
L 223.435073 36.696574 
z
" style="fill:#1f77b4;"/>
   </g>
   <g id="patch_66">
    <path clip-path="url(#pf6d98da948)" d="M 226.176927 108.0275 
L 228.918782 108.0275 
L 228.918782 39.758949 
L 226.176927 39.758949 
z
" style="fill:#1f77b4;"/>
   </g>
   <g id="patch_67">
    <path clip-path="url(#pf6d98da948)" d="M 228.918782 108.0275 
L 231.660636 108.0275 
L 231.660636 34.978657 
L 228.918782 34.978657 
z
" style="fill:#1f77b4;"/>
   </g>
   <g id="patch_68">
    <path clip-path="url(#pf6d98da948)" d="M 231.660636 108.0275 
L 234.40249 108.0275 
L 234.40249 32.513819 
L 231.660636 32.513819 
z
" style="fill:#1f77b4;"/>
   </g>
   <g id="patch_69">
    <path clip-path="url(#pf6d98da948)" d="M 234.40249 108.0275 
L 237.144344 108.0275 
L 237.144344 33.932968 
L 234.40249 33.932968 
z
" style="fill:#1f77b4;"/>
   </g>
   <g id="patch_70">
    <path clip-path="url(#pf6d98da948)" d="M 237.144344 108.0275 
L 239.886198 108.0275 
L 239.886198 31.393438 
L 237.144344 31.393438 
z
" style="fill:#1f77b4;"/>
   </g>
   <g id="patch_71">
    <path clip-path="url(#pf6d98da948)" d="M 239.886198 108.0275 
L 242.628052 108.0275 
L 242.628052 33.6342 
L 239.886198 33.6342 
z
" style="fill:#1f77b4;"/>
   </g>
   <g id="patch_72">
    <path clip-path="url(#pf6d98da948)" d="M 242.628052 108.0275 
L 245.369907 108.0275 
L 245.369907 35.277425 
L 242.628052 35.277425 
z
" style="fill:#1f77b4;"/>
   </g>
   <g id="patch_73">
    <path clip-path="url(#pf6d98da948)" d="M 245.369907 108.0275 
L 248.111761 108.0275 
L 248.111761 37.219419 
L 245.369907 37.219419 
z
" style="fill:#1f77b4;"/>
   </g>
   <g id="patch_74">
    <path clip-path="url(#pf6d98da948)" d="M 248.111761 108.0275 
L 250.853615 108.0275 
L 250.853615 32.588511 
L 248.111761 32.588511 
z
" style="fill:#1f77b4;"/>
   </g>
   <g id="patch_75">
    <path clip-path="url(#pf6d98da948)" d="M 250.853615 108.0275 
L 253.595469 108.0275 
L 253.595469 31.169361 
L 250.853615 31.169361 
z
" style="fill:#1f77b4;"/>
   </g>
   <g id="patch_76">
    <path clip-path="url(#pf6d98da948)" d="M 253.595469 108.0275 
L 256.337323 108.0275 
L 256.337323 31.617514 
L 253.595469 31.617514 
z
" style="fill:#1f77b4;"/>
   </g>
   <g id="patch_77">
    <path clip-path="url(#pf6d98da948)" d="M 256.337323 108.0275 
L 259.079178 108.0275 
L 259.079178 25.193996 
L 256.337323 25.193996 
z
" style="fill:#1f77b4;"/>
   </g>
   <g id="patch_78">
    <path clip-path="url(#pf6d98da948)" d="M 259.079178 108.0275 
L 261.821032 108.0275 
L 261.821032 32.140358 
L 259.079178 32.140358 
z
" style="fill:#1f77b4;"/>
   </g>
   <g id="patch_79">
    <path clip-path="url(#pf6d98da948)" d="M 261.821032 108.0275 
L 264.562886 108.0275 
L 264.562886 34.231736 
L 261.821032 34.231736 
z
" style="fill:#1f77b4;"/>
   </g>
   <g id="patch_80">
    <path clip-path="url(#pf6d98da948)" d="M 264.562886 108.0275 
L 267.30474 108.0275 
L 267.30474 28.779215 
L 264.562886 28.779215 
z
" style="fill:#1f77b4;"/>
   </g>
   <g id="patch_81">
    <path clip-path="url(#pf6d98da948)" d="M 267.30474 108.0275 
L 270.046594 108.0275 
L 270.046594 27.733526 
L 267.30474 27.733526 
z
" style="fill:#1f77b4;"/>
   </g>
   <g id="patch_82">
    <path clip-path="url(#pf6d98da948)" d="M 270.046594 108.0275 
L 272.788448 108.0275 
L 272.788448 31.617514 
L 270.046594 31.617514 
z
" style="fill:#1f77b4;"/>
   </g>
   <g id="patch_83">
    <path clip-path="url(#pf6d98da948)" d="M 272.788448 108.0275 
L 275.530303 108.0275 
L 275.530303 28.928599 
L 272.788448 28.928599 
z
" style="fill:#1f77b4;"/>
   </g>
   <g id="patch_84">
    <path clip-path="url(#pf6d98da948)" d="M 275.530303 108.0275 
L 278.272157 108.0275 
L 278.272157 32.289742 
L 275.530303 32.289742 
z
" style="fill:#1f77b4;"/>
   </g>
   <g id="patch_85">
    <path clip-path="url(#pf6d98da948)" d="M 278.272157 108.0275 
L 281.014011 108.0275 
L 281.014011 25.791532 
L 278.272157 25.791532 
z
" style="fill:#1f77b4;"/>
   </g>
   <g id="patch_86">
    <path clip-path="url(#pf6d98da948)" d="M 281.014011 108.0275 
L 283.755865 108.0275 
L 283.755865 27.061298 
L 281.014011 27.061298 
z
" style="fill:#1f77b4;"/>
   </g>
   <g id="patch_87">
    <path clip-path="url(#pf6d98da948)" d="M 283.755865 108.0275 
L 286.497719 108.0275 
L 286.497719 31.094669 
L 283.755865 31.094669 
z
" style="fill:#1f77b4;"/>
   </g>
   <g id="patch_88">
    <path clip-path="url(#pf6d98da948)" d="M 286.497719 108.0275 
L 289.239574 108.0275 
L 289.239574 28.704523 
L 286.497719 28.704523 
z
" style="fill:#1f77b4;"/>
   </g>
   <g id="patch_89">
    <path clip-path="url(#pf6d98da948)" d="M 289.239574 108.0275 
L 291.981428 108.0275 
L 291.981428 23.998923 
L 289.239574 23.998923 
z
" style="fill:#1f77b4;"/>
   </g>
   <g id="patch_90">
    <path clip-path="url(#pf6d98da948)" d="M 291.981428 108.0275 
L 294.723282 108.0275 
L 294.723282 22.729158 
L 291.981428 22.729158 
z
" style="fill:#1f77b4;"/>
   </g>
   <g id="patch_91">
    <path clip-path="url(#pf6d98da948)" d="M 294.723282 108.0275 
L 297.465136 108.0275 
L 297.465136 20.413704 
L 294.723282 20.413704 
z
" style="fill:#1f77b4;"/>
   </g>
   <g id="patch_92">
    <path clip-path="url(#pf6d98da948)" d="M 297.465136 108.0275 
L 300.20699 108.0275 
L 300.20699 18.397018 
L 297.465136 18.397018 
z
" style="fill:#1f77b4;"/>
   </g>
   <g id="patch_93">
    <path clip-path="url(#pf6d98da948)" d="M 300.20699 108.0275 
L 302.948845 108.0275 
L 302.948845 19.368015 
L 300.20699 19.368015 
z
" style="fill:#1f77b4;"/>
   </g>
   <g id="patch_94">
    <path clip-path="url(#pf6d98da948)" d="M 302.948845 108.0275 
L 305.690699 108.0275 
L 305.690699 17.05256 
L 302.948845 17.05256 
z
" style="fill:#1f77b4;"/>
   </g>
   <g id="patch_95">
    <path clip-path="url(#pf6d98da948)" d="M 305.690699 108.0275 
L 308.432553 108.0275 
L 308.432553 17.05256 
L 305.690699 17.05256 
z
" style="fill:#1f77b4;"/>
   </g>
   <g id="patch_96">
    <path clip-path="url(#pf6d98da948)" d="M 308.432553 108.0275 
L 311.174407 108.0275 
L 311.174407 22.654466 
L 308.432553 22.654466 
z
" style="fill:#1f77b4;"/>
   </g>
   <g id="patch_97">
    <path clip-path="url(#pf6d98da948)" d="M 311.174407 108.0275 
L 313.916261 108.0275 
L 313.916261 20.563088 
L 311.174407 20.563088 
z
" style="fill:#1f77b4;"/>
   </g>
   <g id="patch_98">
    <path clip-path="url(#pf6d98da948)" d="M 313.916261 108.0275 
L 316.658115 108.0275 
L 316.658115 15.334643 
L 313.916261 15.334643 
z
" style="fill:#1f77b4;"/>
   </g>
   <g id="patch_99">
    <path clip-path="url(#pf6d98da948)" d="M 316.658115 108.0275 
L 319.39997 108.0275 
L 319.39997 24.297691 
L 316.658115 24.297691 
z
" style="fill:#1f77b4;"/>
   </g>
   <g id="patch_100">
    <path clip-path="url(#pf6d98da948)" d="M 319.39997 108.0275 
L 322.141824 108.0275 
L 322.141824 29.30206 
L 319.39997 29.30206 
z
" style="fill:#1f77b4;"/>
   </g>
   <g id="patch_101">
    <path clip-path="url(#pf6d98da948)" d="M 322.141824 108.0275 
L 324.883678 108.0275 
L 324.883678 29.30206 
L 322.141824 29.30206 
z
" style="fill:#1f77b4;"/>
   </g>
   <g id="patch_102">
    <path clip-path="url(#pf6d98da948)" d="M 324.883678 108.0275 
L 327.625532 108.0275 
L 327.625532 27.210682 
L 324.883678 27.210682 
z
" style="fill:#1f77b4;"/>
   </g>
   <g id="patch_103">
    <path clip-path="url(#pf6d98da948)" d="M 327.625532 108.0275 
L 330.367386 108.0275 
L 330.367386 35.277425 
L 327.625532 35.277425 
z
" style="fill:#1f77b4;"/>
   </g>
   <g id="matplotlib.axis_1">
    <g id="xtick_1">
     <g id="line2d_1">
      <defs>
       <path d="M 0 0 
L 0 3.5 
" id="ma3f511d7ad" style="stroke:#000000;stroke-width:0.8;"/>
      </defs>
      <g>
       <use style="stroke:#000000;stroke-width:0.8;" x="53.440114" xlink:href="#ma3f511d7ad" y="108.0275"/>
      </g>
     </g>
     <g id="text_1">
      <!-- 0 -->
      <defs>
       <path d="M 48.90625 31.90625 
C 48.90625 42.59375 47.796875 49.09375 44.5 55.5 
C 40.09375 64.296875 32 66.5 26.5 66.5 
C 13.90625 66.5 9.296875 57.09375 7.90625 54.296875 
C 4.296875 47 4.09375 37.09375 4.09375 31.90625 
C 4.09375 25.296875 4.40625 15.203125 9.203125 7.203125 
C 13.796875 -0.203125 21.203125 -2.09375 26.5 -2.09375 
C 31.296875 -2.09375 39.90625 -0.59375 44.90625 9.296875 
C 48.59375 16.5 48.90625 25.40625 48.90625 31.90625 
z
M 40 33.09375 
C 40 27.203125 40 18.203125 38.796875 12.59375 
C 36.703125 2.09375 29.796875 0.703125 26.5 0.703125 
C 23.09375 0.703125 16.203125 2.296875 14.09375 12.796875 
C 13 18.5 13 27.90625 13 33.09375 
C 13 40 13 47 14.09375 52.5 
C 16.203125 62.703125 24 63.703125 26.5 63.703125 
C 29.90625 63.703125 36.796875 62 38.796875 52.90625 
C 40 47.40625 40 39.90625 40 33.09375 
z
" id="LMRoman8-Regular-48"/>
      </defs>
      <g transform="translate(51.847301 119.191875)scale(0.06 -0.06)">
       <use xlink:href="#LMRoman8-Regular-48"/>
      </g>
     </g>
    </g>
    <g id="xtick_2">
     <g id="line2d_2">
      <g>
       <use style="stroke:#000000;stroke-width:0.8;" x="108.825568" xlink:href="#ma3f511d7ad" y="108.0275"/>
      </g>
     </g>
     <g id="text_2">
      <!-- 20 -->
      <defs>
       <path d="M 47.703125 17.90625 
L 44.59375 17.90625 
C 44.296875 15.90625 43.5 10.90625 42.296875 9 
C 41.703125 8.203125 34.09375 8.203125 32.5 8.203125 
L 14.703125 8.203125 
L 28.203125 20.40625 
C 29.796875 21.90625 34 25.203125 35.59375 26.59375 
C 41.796875 32.296875 47.703125 37.796875 47.703125 46.90625 
C 47.703125 58.796875 37.703125 66.5 25.203125 66.5 
C 13.203125 66.5 5.296875 57.40625 5.296875 48.5 
C 5.296875 43.59375 9.203125 42.90625 10.59375 42.90625 
C 12.703125 42.90625 15.796875 44.40625 15.796875 48.203125 
C 15.796875 53.40625 10.796875 53.40625 9.59375 53.40625 
C 12.5 60.703125 19.203125 63.203125 24.09375 63.203125 
C 33.40625 63.203125 38.203125 55.296875 38.203125 46.90625 
C 38.203125 36.5 30.90625 28.90625 19.09375 16.796875 
L 6.5 3.796875 
C 5.296875 2.703125 5.296875 2.5 5.296875 0 
L 44.796875 0 
z
" id="LMRoman8-Regular-50"/>
      </defs>
      <g transform="translate(105.639943 119.191875)scale(0.06 -0.06)">
       <use xlink:href="#LMRoman8-Regular-50"/>
       <use x="53.099991" xlink:href="#LMRoman8-Regular-48"/>
      </g>
     </g>
    </g>
    <g id="xtick_3">
     <g id="line2d_3">
      <g>
       <use style="stroke:#000000;stroke-width:0.8;" x="164.211023" xlink:href="#ma3f511d7ad" y="108.0275"/>
      </g>
     </g>
     <g id="text_3">
      <!-- 40 -->
      <defs>
       <path d="M 50 16.40625 
L 50 19.703125 
L 39.40625 19.703125 
L 39.40625 64.703125 
C 39.40625 66.703125 39.40625 67.5 37.296875 67.5 
C 36 67.5 35.90625 67.40625 34.90625 66 
L 3 19.703125 
L 3 16.40625 
L 31.203125 16.40625 
L 31.203125 8.09375 
C 31.203125 4.40625 30.90625 3.296875 23.203125 3.296875 
L 20.90625 3.296875 
L 20.90625 0 
L 35.296875 0.296875 
L 49.703125 0 
L 49.703125 3.296875 
L 47.40625 3.296875 
C 39.703125 3.296875 39.40625 4.40625 39.40625 8.09375 
L 39.40625 16.40625 
z
M 31.90625 19.703125 
L 6.5 19.703125 
L 31.90625 56.59375 
z
" id="LMRoman8-Regular-52"/>
      </defs>
      <g transform="translate(161.025398 119.191875)scale(0.06 -0.06)">
       <use xlink:href="#LMRoman8-Regular-52"/>
       <use x="53.099991" xlink:href="#LMRoman8-Regular-48"/>
      </g>
     </g>
    </g>
    <g id="xtick_4">
     <g id="line2d_4">
      <g>
       <use style="stroke:#000000;stroke-width:0.8;" x="219.596477" xlink:href="#ma3f511d7ad" y="108.0275"/>
      </g>
     </g>
     <g id="text_4">
      <!-- 60 -->
      <defs>
       <path d="M 48.59375 20.296875 
C 48.59375 33.40625 38.703125 42.59375 27.59375 42.59375 
C 20.40625 42.59375 16.09375 38 13.796875 33.09375 
C 13.796875 41.40625 14.5 48.703125 18.09375 54.796875 
C 21.09375 59.796875 26.203125 63.90625 32.5 63.90625 
C 34.5 63.90625 39.09375 63.59375 41.40625 60.09375 
C 36.90625 59.90625 36.5 56.5 36.5 55.40625 
C 36.5 52.40625 38.796875 50.703125 41.203125 50.703125 
C 43 50.703125 45.90625 51.796875 45.90625 55.59375 
C 45.90625 61.59375 41.40625 66.5 32.40625 66.5 
C 18.5 66.5 4.40625 53.296875 4.40625 31.703125 
C 4.40625 4.59375 17 -2.09375 26.703125 -2.09375 
C 31.5 -2.09375 36.703125 -0.796875 41.203125 3.5 
C 45.203125 7.40625 48.59375 11.59375 48.59375 20.296875 
z
M 39.203125 20.40625 
C 39.203125 15.296875 39.203125 10.90625 37.203125 7.296875 
C 34.59375 2.703125 31.09375 0.90625 26.703125 0.90625 
C 21.40625 0.90625 18.09375 4.59375 16.59375 7.40625 
C 14.296875 11.90625 14.09375 18.703125 14.09375 22.5 
C 14.09375 32.40625 19.5 39.796875 27.203125 39.796875 
C 32.203125 39.796875 35.203125 37.203125 37.09375 33.703125 
C 39.203125 30 39.203125 25.5 39.203125 20.40625 
z
" id="LMRoman8-Regular-54"/>
      </defs>
      <g transform="translate(216.410852 119.191875)scale(0.06 -0.06)">
       <use xlink:href="#LMRoman8-Regular-54"/>
       <use x="53.099991" xlink:href="#LMRoman8-Regular-48"/>
      </g>
     </g>
    </g>
    <g id="xtick_5">
     <g id="line2d_5">
      <g>
       <use style="stroke:#000000;stroke-width:0.8;" x="274.981932" xlink:href="#ma3f511d7ad" y="108.0275"/>
      </g>
     </g>
     <g id="text_5">
      <!-- 80 -->
      <defs>
       <path d="M 48.59375 16.796875 
C 48.59375 23.09375 45.203125 27.296875 43.59375 29 
C 41.90625 30.59375 41.796875 30.703125 33.203125 36.09375 
C 38.796875 38.796875 45.59375 43.796875 45.59375 51.59375 
C 45.59375 61.09375 35.90625 66.5 26.59375 66.5 
C 16 66.5 7.40625 59.203125 7.40625 49.796875 
C 7.40625 46.09375 8.703125 42.703125 11.203125 39.796875 
C 12.90625 37.703125 13.296875 37.5 19.5 33.59375 
C 7.09375 28.09375 4.40625 20.796875 4.40625 15.203125 
C 4.40625 4.203125 15.5 -2.09375 26.40625 -2.09375 
C 38.703125 -2.09375 48.59375 6.203125 48.59375 16.796875 
z
M 40.59375 51.59375 
C 40.59375 45.796875 36.09375 40.90625 30.203125 38 
L 17.703125 45.5 
C 14.796875 47.203125 12.40625 50.09375 12.40625 53.59375 
C 12.40625 59.90625 19.296875 63.90625 26.40625 63.90625 
C 34.203125 63.90625 40.59375 58.59375 40.59375 51.59375 
z
M 42.90625 13.40625 
C 42.90625 5.703125 34.796875 0.90625 26.59375 0.90625 
C 17.703125 0.90625 10.09375 7 10.09375 15.203125 
C 10.09375 22.703125 15.703125 28.59375 22.59375 31.796875 
L 36.09375 23.5 
C 37.703125 22.59375 42.90625 19.40625 42.90625 13.40625 
z
" id="LMRoman8-Regular-56"/>
      </defs>
      <g transform="translate(271.796307 119.191875)scale(0.06 -0.06)">
       <use xlink:href="#LMRoman8-Regular-56"/>
       <use x="53.099991" xlink:href="#LMRoman8-Regular-48"/>
      </g>
     </g>
    </g>
    <g id="xtick_6">
     <g id="line2d_6">
      <g>
       <use style="stroke:#000000;stroke-width:0.8;" x="330.367386" xlink:href="#ma3f511d7ad" y="108.0275"/>
      </g>
     </g>
     <g id="text_6">
      <!-- 100 -->
      <defs>
       <path d="M 44.703125 0 
L 44.703125 3.296875 
L 41.203125 3.296875 
C 31.703125 3.296875 31.40625 4.5 31.40625 8.203125 
L 31.40625 63.703125 
C 31.40625 66.40625 31.203125 66.5 28.5 66.5 
C 24.40625 62.5 19.09375 60.09375 9.59375 60.09375 
L 9.59375 56.796875 
C 12.296875 56.796875 17.703125 56.796875 23.5 59.5 
L 23.5 8.203125 
C 23.5 4.5 23.203125 3.296875 13.703125 3.296875 
L 10.203125 3.296875 
L 10.203125 0 
C 14.296875 0.296875 22.90625 0.296875 27.40625 0.296875 
C 31.90625 0.296875 40.59375 0.296875 44.703125 0 
z
" id="LMRoman8-Regular-49"/>
      </defs>
      <g transform="translate(325.588949 119.191875)scale(0.06 -0.06)">
       <use xlink:href="#LMRoman8-Regular-49"/>
       <use x="53.099991" xlink:href="#LMRoman8-Regular-48"/>
       <use x="106.199982" xlink:href="#LMRoman8-Regular-48"/>
      </g>
     </g>
    </g>
    <g id="text_7">
     <!-- Rank -->
     <defs>
      <path d="M 77.796875 9.09375 
C 77.796875 9.703125 77.796875 11 76.203125 11 
C 74.796875 11 74.796875 9.90625 74.703125 9.203125 
C 74.203125 2.90625 70.703125 0.703125 67.90625 0.703125 
C 62.5 0.703125 61.90625 5.296875 60.09375 18 
C 59.40625 23.703125 58.40625 30.59375 47.40625 34 
C 55.203125 36 64.796875 41.703125 64.796875 50.296875 
C 64.796875 60.203125 52.09375 68.296875 37.203125 68.296875 
L 4.59375 68.296875 
L 4.59375 65 
L 6.796875 65 
C 14.5 65 14.703125 63.90625 14.703125 60.203125 
L 14.703125 8.09375 
C 14.703125 4.40625 14.5 3.296875 6.796875 3.296875 
L 4.59375 3.296875 
L 4.59375 0 
L 19.09375 0.296875 
L 33.703125 0 
L 33.703125 3.296875 
L 31.5 3.296875 
C 23.796875 3.296875 23.59375 4.40625 23.59375 8.09375 
L 23.59375 32.796875 
L 36.203125 32.796875 
C 43.59375 32.796875 46.90625 29.09375 47.59375 28.296875 
C 50.5 25.09375 50.5 23.203125 50.5 16.40625 
C 50.5 10.09375 50.5 5.796875 54.703125 2.09375 
C 59 -1.59375 64.59375 -2.09375 67.5 -2.09375 
C 75.796875 -2.09375 77.796875 6.09375 77.796875 9.09375 
z
M 54.40625 50.296875 
C 54.40625 39.203125 46.40625 35.59375 35.90625 35.59375 
L 23.59375 35.59375 
L 23.59375 60.90625 
C 23.59375 63.5 23.703125 64.59375 26.09375 64.90625 
C 27 65 30.203125 65 32.203125 65 
C 41.203125 65 54.40625 65 54.40625 50.296875 
z
" id="LMRoman8-Regular-82"/>
      <path d="M 51.40625 9 
L 51.40625 14.5 
L 48.296875 14.5 
L 48.296875 9 
C 48.296875 4.90625 46.796875 3.296875 44.703125 3.296875 
C 41 3.296875 41 7.90625 41 9 
L 41 29.796875 
C 41 39.59375 31.5 44.59375 22.40625 44.59375 
C 14.09375 44.59375 6.703125 41.40625 6.703125 34.796875 
C 6.703125 31.796875 8.796875 30 11.40625 30 
C 14.203125 30 16.09375 32 16.09375 34.703125 
C 16.09375 37.09375 14.59375 38.796875 12.40625 39.296875 
C 16.09375 41.796875 21.5 41.796875 22.203125 41.796875 
C 27.796875 41.796875 33.40625 37.90625 33.40625 29.703125 
L 33.40625 26.59375 
C 27.59375 26.296875 20.90625 26 13.90625 23.09375 
C 5.09375 19.296875 3.40625 13.5 3.40625 10.203125 
C 3.40625 1.59375 13.5 -1 20.40625 -1 
C 27.703125 -1 32.203125 3.09375 34.40625 7.09375 
C 34.90625 3.296875 37.5 -0.5 41.90625 -0.5 
C 42.90625 -0.5 51.40625 -0.09375 51.40625 9 
z
M 33.40625 14.09375 
C 33.40625 4.40625 25.203125 1.796875 21.203125 1.796875 
C 16 1.796875 11.59375 5.296875 11.59375 10.09375 
C 11.59375 16.703125 17.796875 23.5 33.40625 24 
z
" id="LMRoman8-Regular-97"/>
      <path d="M 56.203125 0 
L 56.203125 3.296875 
C 49.796875 3.296875 48.59375 3.296875 48.59375 7.796875 
L 48.59375 30.296875 
C 48.59375 38.703125 44.796875 44.09375 34.296875 44.09375 
C 24.40625 44.09375 19.90625 36.90625 18.703125 34.5 
L 18.59375 34.5 
L 18.59375 44.09375 
L 4.09375 43 
L 4.09375 39.703125 
C 10.90625 39.703125 11.703125 39 11.703125 34.09375 
L 11.703125 7.796875 
C 11.703125 3.296875 10.5 3.296875 4.09375 3.296875 
L 4.09375 0 
C 8.40625 0.296875 12.796875 0.296875 15.5 0.296875 
C 18.40625 0.296875 22.59375 0.296875 26.90625 0 
L 26.90625 3.296875 
C 20.5 3.296875 19.296875 3.296875 19.296875 7.796875 
L 19.296875 25.90625 
C 19.296875 36.40625 27.296875 41.296875 33.40625 41.296875 
C 39.5 41.296875 41 37 41 30.703125 
L 41 7.796875 
C 41 3.296875 39.796875 3.296875 33.40625 3.296875 
L 33.40625 0 
C 37.703125 0.296875 42.09375 0.296875 44.796875 0.296875 
C 47.703125 0.296875 51.90625 0.296875 56.203125 0 
z
" id="LMRoman8-Regular-110"/>
      <path d="M 54.203125 0 
L 54.203125 3.296875 
C 50 3.296875 48.203125 3.703125 44.59375 8.40625 
L 30.09375 27.203125 
L 38.59375 34 
C 45.203125 39.203125 49.40625 39.703125 51.90625 39.796875 
L 51.90625 43.09375 
C 49.5 42.796875 48.09375 42.796875 44 42.796875 
C 39.09375 42.796875 37.703125 42.90625 33.296875 43.09375 
L 33.296875 39.796875 
C 35.203125 39.703125 35.59375 38.40625 35.59375 37.796875 
C 35.59375 35.703125 33.59375 34 32.796875 33.40625 
L 18.40625 21.796875 
L 18.40625 69.40625 
L 3.5 68.296875 
L 3.5 65 
C 10.296875 65 11.09375 64.296875 11.09375 59.40625 
L 11.09375 7.796875 
C 11.09375 3.296875 9.90625 3.296875 3.5 3.296875 
L 3.5 0 
C 7.40625 0.296875 12.796875 0.296875 14.5 0.296875 
C 16.5 0.296875 21.703125 0.296875 25.59375 0 
L 25.59375 3.296875 
C 19.203125 3.296875 18 3.296875 18 7.796875 
L 18 17.5 
L 24.796875 22.90625 
C 25.09375 22.90625 27.703125 19.40625 29.296875 17.5 
C 30.796875 15.40625 32.40625 13.40625 34 11.40625 
C 35.40625 9.40625 37.5 6.796875 37.5 5.296875 
C 37.5 3.59375 35.59375 3.296875 34.40625 3.296875 
L 34.40625 0 
C 38.703125 0.296875 43.203125 0.296875 44.90625 0.296875 
C 48.703125 0.296875 50.703125 0.296875 54.203125 0 
z
" id="LMRoman8-Regular-107"/>
     </defs>
     <g transform="translate(179.584219 129.296875)scale(0.1 -0.1)">
      <use xlink:href="#LMRoman8-Regular-82"/>
      <use x="78.199982" xlink:href="#LMRoman8-Regular-97"/>
      <use x="131.299973" xlink:href="#LMRoman8-Regular-110"/>
      <use x="190.299957" xlink:href="#LMRoman8-Regular-107"/>
     </g>
    </g>
   </g>
   <g id="matplotlib.axis_2">
    <g id="ytick_1">
     <g id="line2d_7">
      <defs>
       <path d="M 0 0 
L -3.5 0 
" id="m3e8d0aee78" style="stroke:#000000;stroke-width:0.8;"/>
      </defs>
      <g>
       <use style="stroke:#000000;stroke-width:0.8;" x="39.59375" xlink:href="#m3e8d0aee78" y="108.0275"/>
      </g>
     </g>
     <g id="text_8">
      <!-- 0.000 -->
      <defs>
       <path d="M 20.296875 5.5 
C 20.296875 8.90625 17.59375 11.09375 14.796875 11.09375 
C 11.40625 11.09375 9.203125 8.40625 9.203125 5.59375 
C 9.203125 2.203125 11.90625 0 14.703125 0 
C 18.09375 0 20.296875 2.703125 20.296875 5.5 
z
" id="LMRoman8-Regular-46"/>
      </defs>
      <g transform="translate(18.08125 110.109688)scale(0.06 -0.06)">
       <use xlink:href="#LMRoman8-Regular-48"/>
       <use x="53.099991" xlink:href="#LMRoman8-Regular-46"/>
       <use x="82.599976" xlink:href="#LMRoman8-Regular-48"/>
       <use x="135.699966" xlink:href="#LMRoman8-Regular-48"/>
       <use x="188.799957" xlink:href="#LMRoman8-Regular-48"/>
      </g>
     </g>
    </g>
    <g id="ytick_2">
     <g id="line2d_8">
      <g>
       <use style="stroke:#000000;stroke-width:0.8;" x="39.59375" xlink:href="#m3e8d0aee78" y="92.882019"/>
      </g>
     </g>
     <g id="text_9">
      <!-- 0.002 -->
      <g transform="translate(18.08125 94.964207)scale(0.06 -0.06)">
       <use xlink:href="#LMRoman8-Regular-48"/>
       <use x="53.099991" xlink:href="#LMRoman8-Regular-46"/>
       <use x="82.599976" xlink:href="#LMRoman8-Regular-48"/>
       <use x="135.699966" xlink:href="#LMRoman8-Regular-48"/>
       <use x="188.799957" xlink:href="#LMRoman8-Regular-50"/>
      </g>
     </g>
    </g>
    <g id="ytick_3">
     <g id="line2d_9">
      <g>
       <use style="stroke:#000000;stroke-width:0.8;" x="39.59375" xlink:href="#m3e8d0aee78" y="77.736538"/>
      </g>
     </g>
     <g id="text_10">
      <!-- 0.004 -->
      <g transform="translate(18.08125 79.818726)scale(0.06 -0.06)">
       <use xlink:href="#LMRoman8-Regular-48"/>
       <use x="53.099991" xlink:href="#LMRoman8-Regular-46"/>
       <use x="82.599976" xlink:href="#LMRoman8-Regular-48"/>
       <use x="135.699966" xlink:href="#LMRoman8-Regular-48"/>
       <use x="188.799957" xlink:href="#LMRoman8-Regular-52"/>
      </g>
     </g>
    </g>
    <g id="ytick_4">
     <g id="line2d_10">
      <g>
       <use style="stroke:#000000;stroke-width:0.8;" x="39.59375" xlink:href="#m3e8d0aee78" y="62.591057"/>
      </g>
     </g>
     <g id="text_11">
      <!-- 0.006 -->
      <g transform="translate(18.08125 64.673245)scale(0.06 -0.06)">
       <use xlink:href="#LMRoman8-Regular-48"/>
       <use x="53.099991" xlink:href="#LMRoman8-Regular-46"/>
       <use x="82.599976" xlink:href="#LMRoman8-Regular-48"/>
       <use x="135.699966" xlink:href="#LMRoman8-Regular-48"/>
       <use x="188.799957" xlink:href="#LMRoman8-Regular-54"/>
      </g>
     </g>
    </g>
    <g id="ytick_5">
     <g id="line2d_11">
      <g>
       <use style="stroke:#000000;stroke-width:0.8;" x="39.59375" xlink:href="#m3e8d0aee78" y="47.445577"/>
      </g>
     </g>
     <g id="text_12">
      <!-- 0.008 -->
      <g transform="translate(18.08125 49.527764)scale(0.06 -0.06)">
       <use xlink:href="#LMRoman8-Regular-48"/>
       <use x="53.099991" xlink:href="#LMRoman8-Regular-46"/>
       <use x="82.599976" xlink:href="#LMRoman8-Regular-48"/>
       <use x="135.699966" xlink:href="#LMRoman8-Regular-48"/>
       <use x="188.799957" xlink:href="#LMRoman8-Regular-56"/>
      </g>
     </g>
    </g>
    <g id="ytick_6">
     <g id="line2d_12">
      <g>
       <use style="stroke:#000000;stroke-width:0.8;" x="39.59375" xlink:href="#m3e8d0aee78" y="32.300096"/>
      </g>
     </g>
     <g id="text_13">
      <!-- 0.010 -->
      <g transform="translate(18.08125 34.382283)scale(0.06 -0.06)">
       <use xlink:href="#LMRoman8-Regular-48"/>
       <use x="53.099991" xlink:href="#LMRoman8-Regular-46"/>
       <use x="82.599976" xlink:href="#LMRoman8-Regular-48"/>
       <use x="135.699966" xlink:href="#LMRoman8-Regular-49"/>
       <use x="188.799957" xlink:href="#LMRoman8-Regular-48"/>
      </g>
     </g>
    </g>
    <g id="ytick_7">
     <g id="line2d_13">
      <g>
       <use style="stroke:#000000;stroke-width:0.8;" x="39.59375" xlink:href="#m3e8d0aee78" y="17.154615"/>
      </g>
     </g>
     <g id="text_14">
      <!-- 0.012 -->
      <g transform="translate(18.08125 19.236802)scale(0.06 -0.06)">
       <use xlink:href="#LMRoman8-Regular-48"/>
       <use x="53.099991" xlink:href="#LMRoman8-Regular-46"/>
       <use x="82.599976" xlink:href="#LMRoman8-Regular-48"/>
       <use x="135.699966" xlink:href="#LMRoman8-Regular-49"/>
       <use x="188.799957" xlink:href="#LMRoman8-Regular-50"/>
      </g>
     </g>
    </g>
    <g id="text_15">
     <!-- Density -->
     <defs>
      <path d="M 75.09375 33.5 
C 75.09375 52.796875 60.5 68.296875 42.59375 68.296875 
L 4.59375 68.296875 
L 4.59375 65 
L 6.796875 65 
C 14.5 65 14.703125 63.90625 14.703125 60.203125 
L 14.703125 8.09375 
C 14.703125 4.40625 14.5 3.296875 6.796875 3.296875 
L 4.59375 3.296875 
L 4.59375 0 
L 42.59375 0 
C 60.59375 0 75.09375 15 75.09375 33.5 
z
M 65 33.59375 
C 65 28.5 65 18.703125 58.703125 11.296875 
C 55.203125 7.203125 48.796875 3.296875 39.90625 3.296875 
L 28.40625 3.296875 
C 23.796875 3.296875 23.59375 4 23.59375 7.40625 
L 23.59375 60.90625 
C 23.59375 64.296875 23.796875 65 28.40625 65 
L 39.90625 65 
C 47.703125 65 54.203125 61.796875 58.59375 56.796875 
C 65 49.203125 65 38.5 65 33.59375 
z
" id="LMRoman8-Regular-68"/>
      <path d="M 44.09375 12 
C 44.09375 12.40625 43.796875 13.40625 42.5 13.40625 
C 41.40625 13.40625 41.203125 12.703125 41 12.09375 
C 37.40625 2.40625 28.796875 2.09375 27 2.09375 
C 22.5 2.09375 17.90625 4.203125 14.90625 8.796875 
C 11.90625 13.40625 11.90625 19.796875 11.90625 22.796875 
L 41.296875 22.796875 
C 43.5 22.796875 44.09375 22.796875 44.09375 25.09375 
C 44.09375 34 39.203125 44.59375 25.09375 44.59375 
C 12.703125 44.59375 3 34.296875 3 21.90625 
C 3 9 13.796875 -1 26.40625 -1 
C 39.09375 -1 44.09375 9.703125 44.09375 12 
z
M 37.296875 25.40625 
L 12 25.40625 
C 12.90625 39.40625 21.40625 41.796875 25.09375 41.796875 
C 36.796875 41.796875 37.203125 27.703125 37.296875 25.40625 
z
" id="LMRoman8-Regular-101"/>
      <path d="M 38.296875 12.90625 
C 38.296875 17.703125 35.40625 24.703125 23.5 26.90625 
C 22.703125 27.09375 17.09375 28.09375 16.703125 28.09375 
C 13.59375 28.796875 8.90625 30.90625 8.90625 34.90625 
C 8.90625 37.90625 11.09375 42.09375 20.59375 42.09375 
C 31.796875 42.09375 32.296875 33.90625 32.5 31.09375 
C 32.59375 30.296875 33.296875 30 34 30 
C 35.59375 30 35.59375 30.703125 35.59375 32.59375 
L 35.59375 42 
C 35.59375 43.59375 35.59375 44.59375 34.296875 44.59375 
C 33.796875 44.59375 33.5 44.59375 31.90625 43 
C 31.703125 42.90625 30.796875 42 30.5 42 
C 30.5 42 30.203125 42 29.59375 42.40625 
C 28 43.5 25.09375 44.59375 20.59375 44.59375 
C 6.59375 44.59375 3.5 37 3.5 32.203125 
C 3.5 27.203125 7.203125 24.296875 7.5 24 
C 11.5 21 13.796875 20.59375 20.5 19.40625 
C 25.203125 18.5 32.90625 17.09375 32.90625 10.296875 
C 32.90625 6.40625 30.296875 1.796875 21.09375 1.796875 
C 11 1.796875 8.09375 9.59375 6.796875 14.90625 
C 6.40625 16.203125 6.296875 16.703125 5.09375 16.703125 
C 3.5 16.703125 3.5 15.90625 3.5 14 
L 3.5 1.59375 
C 3.5 0 3.5 -1 4.796875 -1 
C 5.40625 -1 5.5 -0.90625 7.296875 1 
C 7.796875 1.5 8.90625 2.796875 9.40625 3.296875 
C 13.90625 -0.796875 18.59375 -1 21.203125 -1 
C 33.90625 -1 38.296875 6.296875 38.296875 12.90625 
z
" id="LMRoman8-Regular-115"/>
      <path d="M 26 0 
L 26 3.296875 
C 19.5 3.296875 19.09375 3.796875 19.09375 7.703125 
L 19.09375 44.09375 
L 4.5 43 
L 4.5 39.703125 
C 10.90625 39.703125 11.796875 39.09375 11.796875 34.203125 
L 11.796875 7.796875 
C 11.796875 3.296875 10.59375 3.296875 4.203125 3.296875 
L 4.203125 0 
C 8.09375 0.296875 13.703125 0.296875 15.203125 0.296875 
C 16.5 0.296875 22.5 0.296875 26 0 
z
M 20.296875 60.203125 
C 20.296875 63.5 17.703125 65.796875 14.796875 65.796875 
C 11.90625 65.796875 9.296875 63.5 9.296875 60.203125 
C 9.296875 57.296875 11.59375 54.703125 14.796875 54.703125 
C 17.90625 54.703125 20.296875 57.296875 20.296875 60.203125 
z
" id="LMRoman8-Regular-105"/>
      <path d="M 35.296875 12.5 
L 35.296875 18.09375 
L 32.203125 18.09375 
L 32.203125 12.703125 
C 32.203125 5.796875 29.09375 2.09375 25.296875 2.09375 
C 18.59375 2.09375 18.59375 10.703125 18.59375 12.296875 
L 18.59375 39.796875 
L 33.5 39.796875 
L 33.5 43.09375 
L 18.59375 43.09375 
L 18.59375 61.5 
L 15.5 61.5 
C 15.40625 52.40625 11.296875 42.90625 2 42.59375 
L 2 39.796875 
L 11 39.796875 
L 11 12.5 
C 11 0.796875 20 -1 24.59375 -1 
C 31.296875 -1 35.296875 5 35.296875 12.5 
z
" id="LMRoman8-Regular-116"/>
      <path d="M 53.796875 39.796875 
L 53.796875 43.09375 
C 50.296875 42.796875 50.09375 42.796875 45.90625 42.796875 
C 45.5 42.796875 40.203125 42.796875 37.296875 43.09375 
L 37.296875 39.796875 
C 40.203125 39.59375 41.59375 38 41.59375 35.703125 
C 41.59375 35.09375 41.5 34.40625 41 33.203125 
L 30.296875 9 
L 18.703125 35.203125 
C 18 36.703125 18 36.90625 18 37.296875 
C 18 39.703125 21.09375 39.796875 23.296875 39.796875 
L 23.296875 43.09375 
C 18.796875 42.796875 14.5 42.796875 12.296875 42.796875 
C 10.203125 42.796875 5.40625 42.796875 2.203125 43.09375 
L 2.203125 39.796875 
C 7.40625 39.796875 8.796875 39.59375 10.5 35.796875 
L 26.296875 0 
C 21.796875 -10.59375 18.796875 -17.59375 11.796875 -17.59375 
C 9.296875 -17.59375 7.703125 -16.40625 7.703125 -16.40625 
C 8.40625 -16.203125 10.703125 -15.09375 10.703125 -12.203125 
C 10.703125 -9.40625 8.59375 -7.90625 6.40625 -7.90625 
C 4.40625 -7.90625 2.09375 -9.203125 2.09375 -12.296875 
C 2.09375 -16.703125 6.40625 -20.40625 11.796875 -20.40625 
C 20.703125 -20.40625 25.5 -9.703125 25.90625 -8.703125 
L 44.296875 33 
C 46.796875 38.703125 50.5 39.703125 53.796875 39.796875 
z
" id="LMRoman8-Regular-121"/>
     </defs>
     <g transform="translate(14.040625 77.168437)rotate(-90)scale(0.1 -0.1)">
      <use xlink:href="#LMRoman8-Regular-68"/>
      <use x="81.099991" xlink:href="#LMRoman8-Regular-101"/>
      <use x="128.299988" xlink:href="#LMRoman8-Regular-110"/>
      <use x="187.299973" xlink:href="#LMRoman8-Regular-115"/>
      <use x="229.199966" xlink:href="#LMRoman8-Regular-105"/>
      <use x="258.699951" xlink:href="#LMRoman8-Regular-116"/>
      <use x="299.999939" xlink:href="#LMRoman8-Regular-121"/>
     </g>
    </g>
   </g>
   <g id="line2d_14">
    <path clip-path="url(#pf6d98da948)" d="M 139.287568 33.049872 
L 330.367386 33.049872 
L 53.440114 33.049872 
L 261.135568 33.049872 
" style="fill:none;stroke:#000000;stroke-dasharray:0.5,0.825;stroke-dashoffset:0;stroke-width:0.5;"/>
   </g>
   <g id="patch_104">
    <path d="M 39.59375 108.0275 
L 39.59375 10.7 
" style="fill:none;stroke:#000000;stroke-linecap:square;stroke-linejoin:miter;stroke-width:0.5;"/>
   </g>
   <g id="patch_105">
    <path d="M 344.21375 108.0275 
L 344.21375 10.7 
" style="fill:none;stroke:#000000;stroke-linecap:square;stroke-linejoin:miter;stroke-width:0.5;"/>
   </g>
   <g id="patch_106">
    <path d="M 39.59375 108.0275 
L 344.21375 108.0275 
" style="fill:none;stroke:#000000;stroke-linecap:square;stroke-linejoin:miter;stroke-width:0.5;"/>
   </g>
   <g id="patch_107">
    <path d="M 39.59375 10.7 
L 344.21375 10.7 
" style="fill:none;stroke:#000000;stroke-linecap:square;stroke-linejoin:miter;stroke-width:0.5;"/>
   </g>
  </g>
 </g>
 <defs>
  <clipPath id="pf6d98da948">
   <rect height="97.3275" width="304.62" x="39.59375" y="10.7"/>
  </clipPath>
 </defs>
</svg>
