<?xml version="1.0" encoding="utf-8" standalone="no"?>
<!DOCTYPE svg PUBLIC "-//W3C//DTD SVG 1.1//EN"
  "http://www.w3.org/Graphics/SVG/1.1/DTD/svg11.dtd">
<!-- Created with matplotlib (https://matplotlib.org/) -->
<svg height="128.20195pt" version="1.1" viewBox="0 0 354.60125 128.20195" width="354.60125pt" xmlns="http://www.w3.org/2000/svg" xmlns:xlink="http://www.w3.org/1999/xlink">
 <defs>
  <style type="text/css">
*{stroke-linecap:butt;stroke-linejoin:round;}
  </style>
 </defs>
 <g id="figure_1">
  <g id="patch_1">
   <path d="M -0 128.20195 
L 354.60125 128.20195 
L 354.60125 0 
L -0 0 
z
" style="fill:#ffffff;"/>
  </g>
  <g id="axes_1">
   <g id="patch_2">
    <path d="M 22.34125 97.5732 
L 343.90125 97.5732 
L 343.90125 19.7622 
L 22.34125 19.7622 
z
" style="fill:#ffffff;"/>
   </g>
   <g id="matplotlib.axis_1">
    <g id="xtick_1">
     <g id="line2d_1">
      <defs>
       <path d="M 0 0 
L 0 3.5 
" id="m645986c7eb" style="stroke:#000000;stroke-width:0.8;"/>
      </defs>
      <g>
       <use style="stroke:#000000;stroke-width:0.8;" x="36.671579" xlink:href="#m645986c7eb" y="97.5732"/>
      </g>
     </g>
     <g id="text_1">
      <!-- 0.0 -->
      <defs>
       <path d="M 48.90625 31.90625 
C 48.90625 42.59375 47.796875 49.09375 44.5 55.5 
C 40.09375 64.296875 32 66.5 26.5 66.5 
C 13.90625 66.5 9.296875 57.09375 7.90625 54.296875 
C 4.296875 47 4.09375 37.09375 4.09375 31.90625 
C 4.09375 25.296875 4.40625 15.203125 9.203125 7.203125 
C 13.796875 -0.203125 21.203125 -2.09375 26.5 -2.09375 
C 31.296875 -2.09375 39.90625 -0.59375 44.90625 9.296875 
C 48.59375 16.5 48.90625 25.40625 48.90625 31.90625 
z
M 40 33.09375 
C 40 27.203125 40 18.203125 38.796875 12.59375 
C 36.703125 2.09375 29.796875 0.703125 26.5 0.703125 
C 23.09375 0.703125 16.203125 2.296875 14.09375 12.796875 
C 13 18.5 13 27.90625 13 33.09375 
C 13 40 13 47 14.09375 52.5 
C 16.203125 62.703125 24 63.703125 26.5 63.703125 
C 29.90625 63.703125 36.796875 62 38.796875 52.90625 
C 40 47.40625 40 39.90625 40 33.09375 
z
" id="LMRoman8-Regular-48"/>
       <path d="M 20.296875 5.5 
C 20.296875 8.90625 17.59375 11.09375 14.796875 11.09375 
C 11.40625 11.09375 9.203125 8.40625 9.203125 5.59375 
C 9.203125 2.203125 11.90625 0 14.703125 0 
C 18.09375 0 20.296875 2.703125 20.296875 5.5 
z
" id="LMRoman8-Regular-46"/>
      </defs>
      <g transform="translate(32.600954 108.737575)scale(0.06 -0.06)">
       <use xlink:href="#LMRoman8-Regular-48"/>
       <use x="53.099991" xlink:href="#LMRoman8-Regular-46"/>
       <use x="82.599976" xlink:href="#LMRoman8-Regular-48"/>
      </g>
     </g>
    </g>
    <g id="xtick_2">
     <g id="line2d_2">
      <g>
       <use style="stroke:#000000;stroke-width:0.8;" x="95.251447" xlink:href="#m645986c7eb" y="97.5732"/>
      </g>
     </g>
     <g id="text_2">
      <!-- 0.2 -->
      <defs>
       <path d="M 47.703125 17.90625 
L 44.59375 17.90625 
C 44.296875 15.90625 43.5 10.90625 42.296875 9 
C 41.703125 8.203125 34.09375 8.203125 32.5 8.203125 
L 14.703125 8.203125 
L 28.203125 20.40625 
C 29.796875 21.90625 34 25.203125 35.59375 26.59375 
C 41.796875 32.296875 47.703125 37.796875 47.703125 46.90625 
C 47.703125 58.796875 37.703125 66.5 25.203125 66.5 
C 13.203125 66.5 5.296875 57.40625 5.296875 48.5 
C 5.296875 43.59375 9.203125 42.90625 10.59375 42.90625 
C 12.703125 42.90625 15.796875 44.40625 15.796875 48.203125 
C 15.796875 53.40625 10.796875 53.40625 9.59375 53.40625 
C 12.5 60.703125 19.203125 63.203125 24.09375 63.203125 
C 33.40625 63.203125 38.203125 55.296875 38.203125 46.90625 
C 38.203125 36.5 30.90625 28.90625 19.09375 16.796875 
L 6.5 3.796875 
C 5.296875 2.703125 5.296875 2.5 5.296875 0 
L 44.796875 0 
z
" id="LMRoman8-Regular-50"/>
      </defs>
      <g transform="translate(91.180822 108.737575)scale(0.06 -0.06)">
       <use xlink:href="#LMRoman8-Regular-48"/>
       <use x="53.099991" xlink:href="#LMRoman8-Regular-46"/>
       <use x="82.599976" xlink:href="#LMRoman8-Regular-50"/>
      </g>
     </g>
    </g>
    <g id="xtick_3">
     <g id="line2d_3">
      <g>
       <use style="stroke:#000000;stroke-width:0.8;" x="153.831316" xlink:href="#m645986c7eb" y="97.5732"/>
      </g>
     </g>
     <g id="text_3">
      <!-- 0.4 -->
      <defs>
       <path d="M 50 16.40625 
L 50 19.703125 
L 39.40625 19.703125 
L 39.40625 64.703125 
C 39.40625 66.703125 39.40625 67.5 37.296875 67.5 
C 36 67.5 35.90625 67.40625 34.90625 66 
L 3 19.703125 
L 3 16.40625 
L 31.203125 16.40625 
L 31.203125 8.09375 
C 31.203125 4.40625 30.90625 3.296875 23.203125 3.296875 
L 20.90625 3.296875 
L 20.90625 0 
L 35.296875 0.296875 
L 49.703125 0 
L 49.703125 3.296875 
L 47.40625 3.296875 
C 39.703125 3.296875 39.40625 4.40625 39.40625 8.09375 
L 39.40625 16.40625 
z
M 31.90625 19.703125 
L 6.5 19.703125 
L 31.90625 56.59375 
z
" id="LMRoman8-Regular-52"/>
      </defs>
      <g transform="translate(149.760691 108.737575)scale(0.06 -0.06)">
       <use xlink:href="#LMRoman8-Regular-48"/>
       <use x="53.099991" xlink:href="#LMRoman8-Regular-46"/>
       <use x="82.599976" xlink:href="#LMRoman8-Regular-52"/>
      </g>
     </g>
    </g>
    <g id="xtick_4">
     <g id="line2d_4">
      <g>
       <use style="stroke:#000000;stroke-width:0.8;" x="212.411184" xlink:href="#m645986c7eb" y="97.5732"/>
      </g>
     </g>
     <g id="text_4">
      <!-- 0.6 -->
      <defs>
       <path d="M 48.59375 20.296875 
C 48.59375 33.40625 38.703125 42.59375 27.59375 42.59375 
C 20.40625 42.59375 16.09375 38 13.796875 33.09375 
C 13.796875 41.40625 14.5 48.703125 18.09375 54.796875 
C 21.09375 59.796875 26.203125 63.90625 32.5 63.90625 
C 34.5 63.90625 39.09375 63.59375 41.40625 60.09375 
C 36.90625 59.90625 36.5 56.5 36.5 55.40625 
C 36.5 52.40625 38.796875 50.703125 41.203125 50.703125 
C 43 50.703125 45.90625 51.796875 45.90625 55.59375 
C 45.90625 61.59375 41.40625 66.5 32.40625 66.5 
C 18.5 66.5 4.40625 53.296875 4.40625 31.703125 
C 4.40625 4.59375 17 -2.09375 26.703125 -2.09375 
C 31.5 -2.09375 36.703125 -0.796875 41.203125 3.5 
C 45.203125 7.40625 48.59375 11.59375 48.59375 20.296875 
z
M 39.203125 20.40625 
C 39.203125 15.296875 39.203125 10.90625 37.203125 7.296875 
C 34.59375 2.703125 31.09375 0.90625 26.703125 0.90625 
C 21.40625 0.90625 18.09375 4.59375 16.59375 7.40625 
C 14.296875 11.90625 14.09375 18.703125 14.09375 22.5 
C 14.09375 32.40625 19.5 39.796875 27.203125 39.796875 
C 32.203125 39.796875 35.203125 37.203125 37.09375 33.703125 
C 39.203125 30 39.203125 25.5 39.203125 20.40625 
z
" id="LMRoman8-Regular-54"/>
      </defs>
      <g transform="translate(208.340559 108.737575)scale(0.06 -0.06)">
       <use xlink:href="#LMRoman8-Regular-48"/>
       <use x="53.099991" xlink:href="#LMRoman8-Regular-46"/>
       <use x="82.599976" xlink:href="#LMRoman8-Regular-54"/>
      </g>
     </g>
    </g>
    <g id="xtick_5">
     <g id="line2d_5">
      <g>
       <use style="stroke:#000000;stroke-width:0.8;" x="270.991053" xlink:href="#m645986c7eb" y="97.5732"/>
      </g>
     </g>
     <g id="text_5">
      <!-- 0.8 -->
      <defs>
       <path d="M 48.59375 16.796875 
C 48.59375 23.09375 45.203125 27.296875 43.59375 29 
C 41.90625 30.59375 41.796875 30.703125 33.203125 36.09375 
C 38.796875 38.796875 45.59375 43.796875 45.59375 51.59375 
C 45.59375 61.09375 35.90625 66.5 26.59375 66.5 
C 16 66.5 7.40625 59.203125 7.40625 49.796875 
C 7.40625 46.09375 8.703125 42.703125 11.203125 39.796875 
C 12.90625 37.703125 13.296875 37.5 19.5 33.59375 
C 7.09375 28.09375 4.40625 20.796875 4.40625 15.203125 
C 4.40625 4.203125 15.5 -2.09375 26.40625 -2.09375 
C 38.703125 -2.09375 48.59375 6.203125 48.59375 16.796875 
z
M 40.59375 51.59375 
C 40.59375 45.796875 36.09375 40.90625 30.203125 38 
L 17.703125 45.5 
C 14.796875 47.203125 12.40625 50.09375 12.40625 53.59375 
C 12.40625 59.90625 19.296875 63.90625 26.40625 63.90625 
C 34.203125 63.90625 40.59375 58.59375 40.59375 51.59375 
z
M 42.90625 13.40625 
C 42.90625 5.703125 34.796875 0.90625 26.59375 0.90625 
C 17.703125 0.90625 10.09375 7 10.09375 15.203125 
C 10.09375 22.703125 15.703125 28.59375 22.59375 31.796875 
L 36.09375 23.5 
C 37.703125 22.59375 42.90625 19.40625 42.90625 13.40625 
z
" id="LMRoman8-Regular-56"/>
      </defs>
      <g transform="translate(266.920428 108.737575)scale(0.06 -0.06)">
       <use xlink:href="#LMRoman8-Regular-48"/>
       <use x="53.099991" xlink:href="#LMRoman8-Regular-46"/>
       <use x="82.599976" xlink:href="#LMRoman8-Regular-56"/>
      </g>
     </g>
    </g>
    <g id="xtick_6">
     <g id="line2d_6">
      <g>
       <use style="stroke:#000000;stroke-width:0.8;" x="329.570921" xlink:href="#m645986c7eb" y="97.5732"/>
      </g>
     </g>
     <g id="text_6">
      <!-- 1.0 -->
      <defs>
       <path d="M 44.703125 0 
L 44.703125 3.296875 
L 41.203125 3.296875 
C 31.703125 3.296875 31.40625 4.5 31.40625 8.203125 
L 31.40625 63.703125 
C 31.40625 66.40625 31.203125 66.5 28.5 66.5 
C 24.40625 62.5 19.09375 60.09375 9.59375 60.09375 
L 9.59375 56.796875 
C 12.296875 56.796875 17.703125 56.796875 23.5 59.5 
L 23.5 8.203125 
C 23.5 4.5 23.203125 3.296875 13.703125 3.296875 
L 10.203125 3.296875 
L 10.203125 0 
C 14.296875 0.296875 22.90625 0.296875 27.40625 0.296875 
C 31.90625 0.296875 40.59375 0.296875 44.703125 0 
z
" id="LMRoman8-Regular-49"/>
      </defs>
      <g transform="translate(325.500296 108.737575)scale(0.06 -0.06)">
       <use xlink:href="#LMRoman8-Regular-49"/>
       <use x="53.099991" xlink:href="#LMRoman8-Regular-46"/>
       <use x="82.599976" xlink:href="#LMRoman8-Regular-48"/>
      </g>
     </g>
    </g>
    <g id="text_7">
     <!-- Spatial coordinate $s$ -->
     <defs>
      <path d="M 53 18.5 
C 53 27.203125 47.296875 36.09375 37.09375 38.5 
L 23.296875 41.703125 
C 16.90625 43.203125 12.203125 48.296875 12.203125 54.40625 
C 12.203125 61.09375 18 67.40625 26.703125 67.40625 
C 44 67.40625 46.296875 51.203125 46.796875 47.40625 
C 47 46.296875 47.09375 45.59375 48.40625 45.59375 
C 50 45.59375 50 46.296875 50 48.203125 
L 50 67.796875 
C 50 69.40625 50 70.40625 48.703125 70.40625 
C 47.90625 70.40625 47.703125 70.09375 47 69 
L 43.5 63.40625 
C 38.5 68.90625 32.09375 70.40625 26.59375 70.40625 
C 14.703125 70.40625 5.90625 61.40625 5.90625 51.203125 
C 5.90625 43.59375 10.203125 39.40625 12.09375 37.5 
C 15.703125 33.90625 19 33.09375 29.796875 30.59375 
C 38.40625 28.59375 39.90625 28.296875 43.203125 24.796875 
C 44.203125 23.703125 46.703125 20.296875 46.703125 15.40625 
C 46.703125 8.5 41.40625 1.203125 32 1.203125 
C 21 1.203125 9.59375 6.5 9 20.40625 
C 8.90625 22 8.90625 22.703125 7.5 22.703125 
C 5.90625 22.703125 5.90625 21.90625 5.90625 20 
L 5.90625 0.5 
C 5.90625 -1.09375 5.90625 -2.09375 7.203125 -2.09375 
C 8 -2.09375 8.09375 -1.90625 8.796875 -0.90625 
C 9.203125 -0.296875 9.59375 0.59375 12.40625 4.796875 
C 18.703125 -0.796875 26.09375 -2.09375 32.09375 -2.09375 
C 44.59375 -2.09375 53 7.796875 53 18.5 
z
" id="LMRoman8-Regular-83"/>
      <path d="M 55.40625 21.59375 
C 55.40625 34.09375 45.296875 44.09375 33.203125 44.09375 
C 29.296875 44.09375 23.5 43.09375 18.40625 37.90625 
L 18.40625 44.09375 
L 3.5 43 
L 3.5 39.703125 
C 10.59375 39.703125 11.09375 39.09375 11.09375 34.90625 
L 11.09375 -11.59375 
C 11.09375 -16.09375 9.90625 -16.09375 3.5 -16.09375 
L 3.5 -19.40625 
C 7.796875 -19.09375 12.203125 -19.09375 14.90625 -19.09375 
C 17.796875 -19.09375 22 -19.09375 26.296875 -19.40625 
L 26.296875 -16.09375 
C 19.90625 -16.09375 18.703125 -16.09375 18.703125 -11.59375 
L 18.703125 4.90625 
C 23.40625 -0.203125 28.5 -1 31.703125 -1 
C 44.40625 -1 55.40625 8.796875 55.40625 21.59375 
z
M 46.5 21.59375 
C 46.5 10.09375 39.296875 1.796875 31.203125 1.796875 
C 27.703125 1.796875 23.09375 3.296875 19.90625 8.296875 
C 18.703125 10 18.703125 10.09375 18.703125 12 
L 18.703125 33.296875 
C 21 37.296875 26 41 32.296875 41 
C 40 41 46.5 32.5 46.5 21.59375 
z
" id="LMRoman8-Regular-112"/>
      <path d="M 51.40625 9 
L 51.40625 14.5 
L 48.296875 14.5 
L 48.296875 9 
C 48.296875 4.90625 46.796875 3.296875 44.703125 3.296875 
C 41 3.296875 41 7.90625 41 9 
L 41 29.796875 
C 41 39.59375 31.5 44.59375 22.40625 44.59375 
C 14.09375 44.59375 6.703125 41.40625 6.703125 34.796875 
C 6.703125 31.796875 8.796875 30 11.40625 30 
C 14.203125 30 16.09375 32 16.09375 34.703125 
C 16.09375 37.09375 14.59375 38.796875 12.40625 39.296875 
C 16.09375 41.796875 21.5 41.796875 22.203125 41.796875 
C 27.796875 41.796875 33.40625 37.90625 33.40625 29.703125 
L 33.40625 26.59375 
C 27.59375 26.296875 20.90625 26 13.90625 23.09375 
C 5.09375 19.296875 3.40625 13.5 3.40625 10.203125 
C 3.40625 1.59375 13.5 -1 20.40625 -1 
C 27.703125 -1 32.203125 3.09375 34.40625 7.09375 
C 34.90625 3.296875 37.5 -0.5 41.90625 -0.5 
C 42.90625 -0.5 51.40625 -0.09375 51.40625 9 
z
M 33.40625 14.09375 
C 33.40625 4.40625 25.203125 1.796875 21.203125 1.796875 
C 16 1.796875 11.59375 5.296875 11.59375 10.09375 
C 11.59375 16.703125 17.796875 23.5 33.40625 24 
z
" id="LMRoman8-Regular-97"/>
      <path d="M 35.296875 12.5 
L 35.296875 18.09375 
L 32.203125 18.09375 
L 32.203125 12.703125 
C 32.203125 5.796875 29.09375 2.09375 25.296875 2.09375 
C 18.59375 2.09375 18.59375 10.703125 18.59375 12.296875 
L 18.59375 39.796875 
L 33.5 39.796875 
L 33.5 43.09375 
L 18.59375 43.09375 
L 18.59375 61.5 
L 15.5 61.5 
C 15.40625 52.40625 11.296875 42.90625 2 42.59375 
L 2 39.796875 
L 11 39.796875 
L 11 12.5 
C 11 0.796875 20 -1 24.59375 -1 
C 31.296875 -1 35.296875 5 35.296875 12.5 
z
" id="LMRoman8-Regular-116"/>
      <path d="M 26 0 
L 26 3.296875 
C 19.5 3.296875 19.09375 3.796875 19.09375 7.703125 
L 19.09375 44.09375 
L 4.5 43 
L 4.5 39.703125 
C 10.90625 39.703125 11.796875 39.09375 11.796875 34.203125 
L 11.796875 7.796875 
C 11.796875 3.296875 10.59375 3.296875 4.203125 3.296875 
L 4.203125 0 
C 8.09375 0.296875 13.703125 0.296875 15.203125 0.296875 
C 16.5 0.296875 22.5 0.296875 26 0 
z
M 20.296875 60.203125 
C 20.296875 63.5 17.703125 65.796875 14.796875 65.796875 
C 11.90625 65.796875 9.296875 63.5 9.296875 60.203125 
C 9.296875 57.296875 11.59375 54.703125 14.796875 54.703125 
C 17.90625 54.703125 20.296875 57.296875 20.296875 60.203125 
z
" id="LMRoman8-Regular-105"/>
      <path d="M 26.703125 0 
L 26.703125 3.296875 
C 20.296875 3.296875 19.09375 3.296875 19.09375 7.796875 
L 19.09375 69.40625 
L 4.203125 68.296875 
L 4.203125 65 
C 11 65 11.796875 64.296875 11.796875 59.40625 
L 11.796875 7.796875 
C 11.796875 3.296875 10.59375 3.296875 4.203125 3.296875 
L 4.203125 0 
C 8.09375 0.296875 13.703125 0.296875 15.40625 0.296875 
C 17.40625 0.296875 22.796875 0.296875 26.703125 0 
z
" id="LMRoman8-Regular-108"/>
      <path id="LMRoman8-Regular-32"/>
      <path d="M 44.09375 12 
C 44.09375 13.203125 42.796875 13.203125 42.5 13.203125 
C 41.796875 13.203125 41.296875 13.09375 41 12.09375 
C 40.296875 10 37.5 2.09375 27.5 2.09375 
C 21.296875 2.09375 12.40625 6.90625 12.40625 21.703125 
C 12.40625 36.09375 19.796875 41.5 27.09375 41.5 
C 28 41.5 33.296875 41.5 36.796875 39.703125 
C 34 38.796875 33.59375 36.5 33.59375 35.296875 
C 33.59375 32.59375 35.5 30.59375 38.296875 30.59375 
C 40.90625 30.59375 43 32.40625 43 35.40625 
C 43 41.59375 36.203125 44.59375 26.796875 44.59375 
C 12.90625 44.59375 3.5 33.5 3.5 21.59375 
C 3.5 8.90625 13.90625 -1 26.5 -1 
C 40.59375 -1 44.09375 10.796875 44.09375 12 
z
" id="LMRoman8-Regular-99"/>
      <path d="M 50 21.296875 
C 50 33.796875 39.703125 44.59375 26.5 44.59375 
C 13.296875 44.59375 3 33.796875 3 21.296875 
C 3 8.796875 13.703125 -1 26.5 -1 
C 39.40625 -1 50 8.796875 50 21.296875 
z
M 41.09375 22.203125 
C 41.09375 17.59375 40.90625 12.09375 38.09375 7.90625 
C 35.40625 3.90625 30.90625 2.09375 26.5 2.09375 
C 21.09375 2.09375 16.90625 4.703125 14.703125 8.203125 
C 12.203125 12.296875 11.90625 17.203125 11.90625 22.203125 
C 11.90625 26 11.90625 32 15 36.296875 
C 17.59375 39.796875 21.796875 41.796875 26.5 41.796875 
C 31.703125 41.796875 36 39.296875 38.296875 35.796875 
C 41 31.59375 41.09375 26.203125 41.09375 22.203125 
z
" id="LMRoman8-Regular-111"/>
      <path d="M 38.40625 37.796875 
C 38.40625 41.296875 35.203125 44.09375 30.796875 44.09375 
C 24.296875 44.09375 19.90625 39.203125 17.796875 33.59375 
L 17.703125 33.59375 
L 17.703125 44.09375 
L 3.5 43 
L 3.5 39.703125 
C 10.296875 39.703125 11.09375 39 11.09375 34.09375 
L 11.09375 7.796875 
C 11.09375 3.296875 9.90625 3.296875 3.5 3.296875 
L 3.5 0 
C 7.40625 0.296875 12.90625 0.296875 15.296875 0.296875 
C 21.203125 0.296875 21.40625 0.296875 27.90625 0 
L 27.90625 3.296875 
L 25.90625 3.296875 
C 18.59375 3.296875 18.40625 4.40625 18.40625 8 
L 18.40625 22.796875 
C 18.40625 30.296875 21.5 41.09375 31.09375 41.296875 
C 30.5 40.90625 29.5 40.09375 29.5 37.796875 
C 29.5 34.703125 31.90625 33.296875 33.90625 33.296875 
C 36.296875 33.296875 38.40625 34.90625 38.40625 37.796875 
z
" id="LMRoman8-Regular-114"/>
      <path d="M 55.40625 0 
L 55.40625 3.296875 
C 48.59375 3.296875 47.796875 4 47.796875 8.90625 
L 47.796875 69.40625 
L 32.90625 68.296875 
L 32.90625 65 
C 39.703125 65 40.5 64.296875 40.5 59.40625 
L 40.5 38.296875 
C 37 42.09375 32.296875 44.09375 27.09375 44.09375 
C 14.59375 44.09375 3.5 34.40625 3.5 21.5 
C 3.5 9.203125 13.5 -1 26.09375 -1 
C 32 -1 36.90625 1.796875 40.203125 5.296875 
L 40.203125 -1 
z
M 40.203125 12.40625 
C 40.203125 10.59375 40.203125 10.203125 38.703125 8.203125 
C 35.90625 4.203125 31.296875 1.796875 26.59375 1.796875 
C 22 1.796875 18 4.203125 15.59375 7.90625 
C 12.90625 11.796875 12.40625 16.703125 12.40625 21.40625 
C 12.40625 27.203125 13.296875 31.296875 15.59375 34.796875 
C 18 38.5 22.5 41.296875 27.59375 41.296875 
C 32.40625 41.296875 37.203125 38.90625 40.203125 33.703125 
z
" id="LMRoman8-Regular-100"/>
      <path d="M 56.203125 0 
L 56.203125 3.296875 
C 49.796875 3.296875 48.59375 3.296875 48.59375 7.796875 
L 48.59375 30.296875 
C 48.59375 38.703125 44.796875 44.09375 34.296875 44.09375 
C 24.40625 44.09375 19.90625 36.90625 18.703125 34.5 
L 18.59375 34.5 
L 18.59375 44.09375 
L 4.09375 43 
L 4.09375 39.703125 
C 10.90625 39.703125 11.703125 39 11.703125 34.09375 
L 11.703125 7.796875 
C 11.703125 3.296875 10.5 3.296875 4.09375 3.296875 
L 4.09375 0 
C 8.40625 0.296875 12.796875 0.296875 15.5 0.296875 
C 18.40625 0.296875 22.59375 0.296875 26.90625 0 
L 26.90625 3.296875 
C 20.5 3.296875 19.296875 3.296875 19.296875 7.796875 
L 19.296875 25.90625 
C 19.296875 36.40625 27.296875 41.296875 33.40625 41.296875 
C 39.5 41.296875 41 37 41 30.703125 
L 41 7.796875 
C 41 3.296875 39.796875 3.296875 33.40625 3.296875 
L 33.40625 0 
C 37.703125 0.296875 42.09375 0.296875 44.796875 0.296875 
C 47.703125 0.296875 51.90625 0.296875 56.203125 0 
z
" id="LMRoman8-Regular-110"/>
      <path d="M 44.09375 12 
C 44.09375 12.40625 43.796875 13.40625 42.5 13.40625 
C 41.40625 13.40625 41.203125 12.703125 41 12.09375 
C 37.40625 2.40625 28.796875 2.09375 27 2.09375 
C 22.5 2.09375 17.90625 4.203125 14.90625 8.796875 
C 11.90625 13.40625 11.90625 19.796875 11.90625 22.796875 
L 41.296875 22.796875 
C 43.5 22.796875 44.09375 22.796875 44.09375 25.09375 
C 44.09375 34 39.203125 44.59375 25.09375 44.59375 
C 12.703125 44.59375 3 34.296875 3 21.90625 
C 3 9 13.796875 -1 26.40625 -1 
C 39.09375 -1 44.09375 9.703125 44.09375 12 
z
M 37.296875 25.40625 
L 12 25.40625 
C 12.90625 39.40625 21.40625 41.796875 25.09375 41.796875 
C 36.796875 41.796875 37.203125 27.703125 37.296875 25.40625 
z
" id="LMRoman8-Regular-101"/>
      <path d="M 8.6875 6.109375 
Q 11.375 1.515625 19.484375 1.515625 
Q 23 1.515625 26.171875 2.703125 
Q 29.34375 3.90625 31.421875 6.296875 
Q 33.5 8.6875 33.5 12.109375 
Q 33.5 14.703125 31.640625 16.359375 
Q 29.78125 18.015625 27.09375 18.609375 
L 21.6875 19.671875 
Q 17.96875 20.609375 15.578125 23.140625 
Q 13.1875 25.6875 13.1875 29.296875 
Q 13.1875 33.734375 15.59375 37.15625 
Q 18.015625 40.578125 21.96875 42.375 
Q 25.921875 44.1875 30.171875 44.1875 
Q 34.71875 44.1875 38.296875 42.015625 
Q 41.890625 39.84375 41.890625 35.59375 
Q 41.890625 33.296875 40.59375 31.53125 
Q 39.3125 29.78125 37.015625 29.78125 
Q 35.6875 29.78125 34.734375 30.640625 
Q 33.796875 31.5 33.796875 32.8125 
Q 33.796875 33.984375 34.453125 35.078125 
Q 35.109375 36.1875 36.203125 36.84375 
Q 37.3125 37.5 38.484375 37.5 
Q 37.59375 39.65625 35.171875 40.625 
Q 32.765625 41.609375 29.984375 41.609375 
Q 27.4375 41.609375 24.890625 40.578125 
Q 22.359375 39.546875 20.8125 37.5625 
Q 19.28125 35.59375 19.28125 32.90625 
Q 19.28125 31.109375 20.546875 29.734375 
Q 21.828125 28.375 23.6875 27.78125 
L 29.5 26.609375 
Q 32.28125 26.03125 34.59375 24.53125 
Q 36.921875 23.046875 38.25 20.765625 
Q 39.59375 18.5 39.59375 15.578125 
Q 39.59375 11.859375 37.515625 8.25 
Q 35.453125 4.640625 32.421875 2.484375 
Q 27.09375 -1.125 19.390625 -1.125 
Q 14.0625 -1.125 9.609375 1.3125 
Q 5.171875 3.765625 5.171875 8.59375 
Q 5.171875 11.328125 6.75 13.34375 
Q 8.34375 15.375 11.078125 15.375 
Q 12.703125 15.375 13.796875 14.390625 
Q 14.890625 13.421875 14.890625 11.8125 
Q 14.890625 9.515625 13.171875 7.8125 
Q 11.46875 6.109375 9.1875 6.109375 
z
" id="Cmmi10-115"/>
     </defs>
     <g transform="translate(136.82125 119.00195)scale(0.1 -0.1)">
      <use transform="translate(0 0.59375)" xlink:href="#LMRoman8-Regular-83"/>
      <use transform="translate(58.999985 0.59375)" xlink:href="#LMRoman8-Regular-112"/>
      <use transform="translate(117.999969 0.59375)" xlink:href="#LMRoman8-Regular-97"/>
      <use transform="translate(171.09996 0.59375)" xlink:href="#LMRoman8-Regular-116"/>
      <use transform="translate(212.399948 0.59375)" xlink:href="#LMRoman8-Regular-105"/>
      <use transform="translate(241.899933 0.59375)" xlink:href="#LMRoman8-Regular-97"/>
      <use transform="translate(294.999924 0.59375)" xlink:href="#LMRoman8-Regular-108"/>
      <use transform="translate(324.499908 0.59375)" xlink:href="#LMRoman8-Regular-32"/>
      <use transform="translate(359.899902 0.59375)" xlink:href="#LMRoman8-Regular-99"/>
      <use transform="translate(407.099899 0.59375)" xlink:href="#LMRoman8-Regular-111"/>
      <use transform="translate(460.19989 0.59375)" xlink:href="#LMRoman8-Regular-111"/>
      <use transform="translate(513.299881 0.59375)" xlink:href="#LMRoman8-Regular-114"/>
      <use transform="translate(554.699875 0.59375)" xlink:href="#LMRoman8-Regular-100"/>
      <use transform="translate(613.69986 0.59375)" xlink:href="#LMRoman8-Regular-105"/>
      <use transform="translate(643.199844 0.59375)" xlink:href="#LMRoman8-Regular-110"/>
      <use transform="translate(702.199829 0.59375)" xlink:href="#LMRoman8-Regular-97"/>
      <use transform="translate(755.29982 0.59375)" xlink:href="#LMRoman8-Regular-116"/>
      <use transform="translate(796.599808 0.59375)" xlink:href="#LMRoman8-Regular-101"/>
      <use transform="translate(843.799805 0.59375)" xlink:href="#LMRoman8-Regular-32"/>
      <use transform="translate(879.199799 0.59375)" xlink:href="#Cmmi10-115"/>
     </g>
    </g>
   </g>
   <g id="matplotlib.axis_2">
    <g id="ytick_1">
     <g id="line2d_7">
      <defs>
       <path d="M 0 0 
L -3.5 0 
" id="m06c1db66f1" style="stroke:#000000;stroke-width:0.8;"/>
      </defs>
      <g>
       <use style="stroke:#000000;stroke-width:0.8;" x="22.34125" xlink:href="#m06c1db66f1" y="79.84214"/>
      </g>
     </g>
     <g id="text_8">
      <!-- −2 -->
      <defs>
       <path d="M 76.59375 25 
C 76.59375 27.296875 74.203125 27.296875 72.703125 27.296875 
L 9.796875 27.296875 
C 8.296875 27.296875 5.90625 27.296875 5.90625 25 
C 5.90625 22.703125 7.90625 22.703125 9.40625 22.703125 
L 73.09375 22.703125 
C 74.59375 22.703125 76.59375 22.703125 76.59375 25 
z
" id="LMRoman8-Regular-8722"/>
      </defs>
      <g transform="translate(7.2 81.924328)scale(0.06 -0.06)">
       <use xlink:href="#LMRoman8-Regular-8722"/>
       <use x="82.599991" xlink:href="#LMRoman8-Regular-50"/>
      </g>
     </g>
    </g>
    <g id="ytick_2">
     <g id="line2d_8">
      <g>
       <use style="stroke:#000000;stroke-width:0.8;" x="22.34125" xlink:href="#m06c1db66f1" y="55.200551"/>
      </g>
     </g>
     <g id="text_9">
      <!-- 0 -->
      <g transform="translate(12.155625 57.282739)scale(0.06 -0.06)">
       <use xlink:href="#LMRoman8-Regular-48"/>
      </g>
     </g>
    </g>
    <g id="ytick_3">
     <g id="line2d_9">
      <g>
       <use style="stroke:#000000;stroke-width:0.8;" x="22.34125" xlink:href="#m06c1db66f1" y="30.558962"/>
      </g>
     </g>
     <g id="text_10">
      <!-- 2 -->
      <g transform="translate(12.155625 32.64115)scale(0.06 -0.06)">
       <use xlink:href="#LMRoman8-Regular-50"/>
      </g>
     </g>
    </g>
   </g>
   <g id="line2d_10">
    <path clip-path="url(#p370b9c8905)" d="M 36.957614 52.965161 
L 37.529683 54.698284 
L 38.673821 59.628581 
L 40.962097 71.279873 
L 42.106235 75.584561 
L 42.678304 77.007744 
L 43.250373 77.901143 
L 43.822442 78.266366 
L 44.394511 78.123611 
L 44.96658 77.505354 
L 45.538649 76.452614 
L 46.110718 75.013901 
L 47.254856 71.213244 
L 49.543132 61.896109 
L 51.259339 55.267301 
L 54.119684 45.499776 
L 55.835892 40.190941 
L 56.98003 37.516773 
L 57.552099 36.621112 
L 58.124168 36.081944 
L 58.696237 35.926297 
L 59.268306 36.164775 
L 59.840375 36.793474 
L 60.412444 37.796522 
L 60.984513 39.147837 
L 62.128651 42.740134 
L 63.844858 49.457484 
L 64.988996 53.867546 
L 66.133134 57.405537 
L 66.705203 58.68273 
L 67.277272 59.58666 
L 67.849341 60.113657 
L 68.42141 60.282904 
L 68.993479 60.132876 
L 69.565548 59.716488 
L 70.709686 58.335345 
L 72.997962 55.050502 
L 74.1421 53.792901 
L 75.286238 52.945521 
L 76.430376 52.508546 
L 77.574515 52.495132 
L 78.146584 52.65895 
L 79.290722 53.325217 
L 82.151067 55.651258 
L 82.723136 55.803795 
L 83.295205 55.715195 
L 83.867274 55.347695 
L 84.439343 54.683148 
L 85.011412 53.724187 
L 86.15555 51.026209 
L 87.871757 45.731223 
L 89.587964 40.338086 
L 90.732102 37.606277 
L 91.304171 36.761541 
L 91.87624 36.400921 
L 92.448309 36.626663 
L 93.020378 37.526975 
L 93.592447 39.161544 
L 94.164516 41.547304 
L 94.736585 44.647484 
L 95.880723 52.554541 
L 98.169 69.864213 
L 99.313138 76.133752 
L 99.885207 78.262351 
L 100.457276 79.704965 
L 101.029345 80.506402 
L 101.601414 80.740924 
L 102.173483 80.498261 
L 102.745552 79.871541 
L 103.317621 78.948537 
L 104.461759 76.511008 
L 109.038311 65.485283 
L 113.614863 56.298285 
L 115.33107 52.26872 
L 116.475208 50.167371 
L 117.047277 49.462529 
L 117.619346 49.043709 
L 118.191415 48.941305 
L 118.763484 49.180069 
L 119.335554 49.781664 
L 119.907623 50.765364 
L 120.479692 52.146211 
L 121.051761 53.930796 
L 122.195899 58.661205 
L 123.340037 64.634413 
L 125.628313 77.188146 
L 126.772451 81.81021 
L 127.34452 83.373154 
L 127.916589 84.389921 
L 128.488658 84.869986 
L 129.060727 84.854506 
L 129.632796 84.408633 
L 130.204865 83.611854 
L 131.349003 81.294808 
L 133.06521 76.96264 
L 134.781417 72.145316 
L 136.497624 66.487344 
L 138.7859 57.6066 
L 140.502107 51.080476 
L 141.646246 47.2994 
L 142.790384 44.15732 
L 143.934522 41.768048 
L 145.07866 40.177087 
L 146.222798 39.274047 
L 147.366936 38.813383 
L 148.511074 38.614339 
L 149.083143 38.633442 
L 149.655212 38.787937 
L 150.227281 39.142636 
L 150.79935 39.770848 
L 151.371419 40.744836 
L 151.943488 42.126949 
L 152.515557 43.9624 
L 153.087626 46.273934 
L 154.231764 52.282564 
L 155.375902 59.77536 
L 157.664178 75.677791 
L 158.808316 82.003466 
L 159.380385 84.425623 
L 159.952454 86.306818 
L 160.524523 87.648173 
L 161.096592 88.471243 
L 161.668661 88.808933 
L 162.240731 88.697416 
L 162.8128 88.170864 
L 163.384869 87.25992 
L 163.956938 85.993814 
L 165.101076 82.534618 
L 166.817283 75.839777 
L 168.53349 69.186156 
L 169.677628 65.754157 
L 170.249697 64.465545 
L 170.821766 63.475868 
L 171.393835 62.776978 
L 171.965904 62.349619 
L 172.537973 62.165966 
L 173.110042 62.191117 
L 173.682111 62.383627 
L 174.826249 63.073005 
L 175.970387 63.785457 
L 176.542456 63.998494 
L 177.114525 64.04147 
L 177.686594 63.871151 
L 178.258663 63.460486 
L 178.830732 62.802424 
L 179.97487 60.825218 
L 182.835215 54.67582 
L 183.979354 53.035108 
L 184.551423 52.502068 
L 185.695561 51.872002 
L 187.411768 51.240001 
L 188.555906 50.569016 
L 190.272113 49.441696 
L 190.844182 49.276725 
L 191.416251 49.343293 
L 191.98832 49.705684 
L 192.560389 50.406667 
L 193.132458 51.460135 
L 194.276596 54.514984 
L 197.136941 63.567386 
L 197.70901 64.707074 
L 198.281079 65.398614 
L 198.853148 65.598254 
L 199.425217 65.299167 
L 199.997286 64.532226 
L 200.569355 63.362968 
L 201.713493 60.211898 
L 203.4297 55.250534 
L 204.001769 54.007333 
L 204.573839 53.137738 
L 205.145908 52.718798 
L 205.717977 52.806399 
L 206.290046 53.430607 
L 206.862115 54.590892 
L 207.434184 56.252596 
L 208.578322 60.770122 
L 210.866598 71.119944 
L 212.010736 74.926092 
L 212.582805 76.195735 
L 213.154874 77.01 
L 213.726943 77.37559 
L 214.299012 77.316435 
L 214.871081 76.866904 
L 215.44315 76.066631 
L 216.015219 74.957719 
L 217.159357 71.992733 
L 218.875564 66.430711 
L 220.591771 60.833454 
L 221.735909 57.712681 
L 222.880047 55.383027 
L 223.452116 54.569605 
L 224.024185 54.010722 
L 224.596254 53.715338 
L 225.168323 53.686686 
L 225.740393 53.922016 
L 226.312462 54.412719 
L 226.884531 55.144497 
L 228.028669 57.243387 
L 229.172807 59.965019 
L 231.461083 65.558672 
L 232.033152 66.614002 
L 232.605221 67.423165 
L 233.17729 67.954991 
L 233.749359 68.194158 
L 234.321428 68.139369 
L 234.893497 67.800481 
L 235.465566 67.195974 
L 236.037635 66.351673 
L 237.181773 64.084428 
L 244.046601 47.860257 
L 245.762808 43.328387 
L 246.334877 42.155728 
L 246.906946 41.319215 
L 247.479016 40.897663 
L 248.051085 40.939746 
L 248.623154 41.458261 
L 249.195223 42.429457 
L 249.767292 43.797004 
L 250.91143 47.380076 
L 253.199706 55.227758 
L 254.343844 58.318792 
L 255.487982 60.588793 
L 256.63212 62.171191 
L 257.776258 63.260191 
L 258.920396 63.944106 
L 259.492465 64.118699 
L 260.064534 64.158767 
L 260.636603 64.043464 
L 261.208672 63.753079 
L 261.780741 63.272126 
L 262.35281 62.592194 
L 263.496948 60.652145 
L 264.641086 58.087899 
L 267.501431 51.25135 
L 268.64557 49.159631 
L 269.789708 47.513965 
L 272.650053 44.124283 
L 273.794191 42.881658 
L 274.36626 42.4046 
L 274.938329 42.117226 
L 275.510398 42.101984 
L 276.082467 42.439838 
L 276.654536 43.198876 
L 277.226605 44.423319 
L 277.798674 46.124992 
L 278.942812 50.824209 
L 280.659019 59.800174 
L 282.375226 68.348521 
L 283.519364 72.562757 
L 284.091433 74.06257 
L 284.663502 75.121287 
L 285.235571 75.724937 
L 285.80764 75.86834 
L 286.379709 75.555624 
L 286.951778 74.801984 
L 287.523847 73.635729 
L 288.667985 70.250071 
L 289.812124 65.892429 
L 292.672469 54.55714 
L 293.816607 50.891776 
L 294.960745 47.826322 
L 296.676952 43.904958 
L 298.965228 39.168744 
L 300.109366 37.306907 
L 300.681435 36.674108 
L 301.253504 36.318174 
L 301.825573 36.291897 
L 302.397642 36.638731 
L 302.969711 37.390531 
L 303.54178 38.566295 
L 304.113849 40.171161 
L 305.257987 44.610109 
L 306.402125 50.403544 
L 309.26247 66.214876 
L 310.406608 71.072374 
L 311.550747 74.669343 
L 312.694885 77.35019 
L 313.839023 79.519559 
L 314.983161 81.263477 
L 315.55523 81.89154 
L 316.127299 82.283019 
L 316.699368 82.385231 
L 317.271437 82.161195 
L 317.843506 81.596478 
L 318.415575 80.700911 
L 319.559713 78.055634 
L 320.703851 74.598942 
L 322.992127 66.587074 
L 325.852472 56.365817 
L 326.99661 53.159168 
L 327.568679 52.055846 
L 328.140748 51.415165 
L 328.712817 51.320987 
L 329.284886 51.830984 
L 329.284886 51.830984 
" style="fill:none;stroke:#ff7f0e;stroke-linecap:square;stroke-width:0.5;"/>
   </g>
   <g id="line2d_11">
    <path clip-path="url(#p370b9c8905)" d="M 36.957614 53.966487 
L 37.529683 53.79881 
L 38.101752 54.654625 
L 38.673821 56.483467 
L 39.24589 59.108561 
L 41.534166 71.436475 
L 42.106235 72.832401 
L 42.678304 73.109642 
L 43.250373 72.479799 
L 44.394511 69.788252 
L 45.538649 66.971248 
L 46.682787 64.328156 
L 47.826925 60.75397 
L 50.115201 52.462799 
L 50.68727 50.976021 
L 51.259339 49.85379 
L 51.831408 49.035799 
L 52.975546 47.941587 
L 55.835892 45.779272 
L 56.98003 44.498241 
L 58.696237 42.369978 
L 59.268306 42.103803 
L 59.840375 42.433914 
L 60.412444 43.464065 
L 60.984513 45.125809 
L 62.128651 49.703615 
L 64.416927 59.7093 
L 65.561065 63.122543 
L 68.993479 71.80619 
L 70.137617 74.895514 
L 70.709686 76.056552 
L 71.281755 76.845798 
L 71.853824 77.307325 
L 72.997962 77.772869 
L 73.570031 77.941502 
L 74.1421 77.965468 
L 74.714169 77.684515 
L 75.286238 77.017667 
L 76.430376 74.801864 
L 78.718653 69.346058 
L 79.862791 66.427469 
L 80.43486 65.240043 
L 81.006929 64.506379 
L 81.578998 64.323409 
L 82.151067 64.579654 
L 82.723136 64.962583 
L 83.295205 65.091179 
L 83.867274 64.74076 
L 84.439343 63.887322 
L 85.583481 61.174382 
L 87.299688 56.170553 
L 88.443826 52.247303 
L 90.160033 45.842897 
L 90.732102 44.176529 
L 91.304171 43.211753 
L 91.87624 43.205521 
L 92.448309 44.234617 
L 93.020378 46.168984 
L 94.164516 51.624146 
L 95.308654 57.24849 
L 97.024861 64.847259 
L 99.885207 79.707914 
L 100.457276 81.426797 
L 101.029345 82.363754 
L 101.601414 82.572788 
L 102.173483 82.187025 
L 102.745552 81.359146 
L 103.88969 78.905322 
L 105.033828 75.891911 
L 106.177966 72.167519 
L 107.322104 67.456575 
L 109.038311 60.150807 
L 109.61038 58.255805 
L 110.182449 56.777603 
L 110.754518 55.664052 
L 111.898656 54.055781 
L 113.042794 52.774248 
L 113.614863 52.392876 
L 114.186932 52.396349 
L 114.759001 52.918925 
L 115.33107 53.992297 
L 116.475208 57.380003 
L 117.619346 61.642138 
L 119.907623 70.858247 
L 120.479692 72.407666 
L 121.051761 73.380031 
L 121.62383 73.831282 
L 122.195899 73.918084 
L 123.340037 73.787538 
L 124.484175 73.805279 
L 125.056244 73.581009 
L 125.628313 73.001926 
L 126.200382 72.071028 
L 128.488658 67.668302 
L 129.632796 66.20997 
L 130.204865 65.700257 
L 130.776934 65.351863 
L 131.921072 65.064579 
L 132.493141 64.936847 
L 133.06521 64.66833 
L 134.209348 63.730533 
L 135.353486 62.616431 
L 135.925555 61.88851 
L 136.497624 60.881551 
L 137.641762 58.027224 
L 138.7859 55.129782 
L 139.930038 52.90855 
L 143.934522 45.930125 
L 145.650729 42.442298 
L 146.794867 40.930421 
L 147.939005 39.554779 
L 148.511074 38.494619 
L 149.083143 37.045932 
L 150.227281 33.09125 
L 150.79935 31.007888 
L 151.371419 29.392155 
L 151.943488 28.618083 
L 152.515557 28.786313 
L 153.087626 29.726349 
L 153.659695 31.172761 
L 154.803833 35.124108 
L 155.375902 37.755768 
L 156.52004 44.634682 
L 158.236247 56.325843 
L 158.808316 59.466127 
L 159.380385 61.940038 
L 159.952454 63.762107 
L 160.524523 65.037232 
L 161.096592 65.88192 
L 161.668661 66.338696 
L 162.240731 66.359865 
L 162.8128 65.885998 
L 163.384869 64.96568 
L 164.529007 62.832157 
L 165.101076 62.307784 
L 165.673145 62.392192 
L 166.245214 62.969574 
L 167.961421 65.273075 
L 168.53349 65.773594 
L 169.677628 66.360148 
L 170.249697 66.492873 
L 170.821766 66.507013 
L 171.393835 66.362636 
L 171.965904 66.026831 
L 173.110042 64.86006 
L 174.25418 63.540391 
L 175.398318 62.561724 
L 177.114525 61.37595 
L 179.97487 58.784591 
L 182.835215 57.156022 
L 183.407285 56.391895 
L 183.979354 55.180799 
L 184.551423 53.478366 
L 185.695561 48.814297 
L 186.839699 42.853739 
L 187.983837 36.673227 
L 188.555906 34.349691 
L 189.127975 32.969781 
L 189.700044 32.648537 
L 190.272113 33.365519 
L 190.844182 35.03506 
L 191.416251 37.513892 
L 192.560389 43.935128 
L 194.848665 56.987804 
L 195.992803 62.41148 
L 196.564872 64.500364 
L 197.136941 66.044703 
L 197.70901 66.993856 
L 198.281079 67.328783 
L 198.853148 67.071218 
L 199.425217 66.284045 
L 199.997286 65.061919 
L 201.141424 61.822333 
L 202.857631 57.001238 
L 204.001769 54.581144 
L 204.573839 53.665509 
L 205.145908 52.961128 
L 205.717977 52.456621 
L 206.290046 52.131165 
L 206.862115 51.981777 
L 207.434184 52.045944 
L 208.006253 52.387353 
L 208.578322 53.085347 
L 209.150391 54.223846 
L 209.72246 55.862545 
L 210.866598 60.480118 
L 212.582805 67.87319 
L 213.154874 69.719295 
L 213.726943 71.089415 
L 214.299012 71.882035 
L 214.871081 71.998846 
L 215.44315 71.419814 
L 216.015219 70.254854 
L 217.159357 66.856608 
L 220.019702 57.124431 
L 220.591771 55.773047 
L 221.16384 54.749657 
L 221.735909 54.012321 
L 222.307978 53.546003 
L 222.880047 53.371021 
L 223.452116 53.481103 
L 225.740393 54.654267 
L 226.312462 54.826102 
L 226.884531 55.149662 
L 227.4566 55.875937 
L 228.028669 57.260099 
L 228.600738 59.426635 
L 230.889014 70.30579 
L 231.461083 71.608063 
L 232.033152 71.938358 
L 232.605221 71.356828 
L 233.17729 70.06108 
L 235.465566 63.270038 
L 236.609704 60.670063 
L 237.181773 59.808248 
L 237.753842 59.373713 
L 238.325911 59.325158 
L 238.89798 59.431115 
L 239.470049 59.400684 
L 240.042118 59.015625 
L 240.614187 58.212035 
L 242.902463 53.818838 
L 243.474532 53.291695 
L 245.190739 52.536632 
L 245.762808 51.967831 
L 246.334877 51.064991 
L 246.906946 49.831241 
L 248.051085 46.614759 
L 249.767292 40.821509 
L 252.055568 32.946373 
L 253.199706 29.806951 
L 253.771775 28.647967 
L 254.343844 27.954412 
L 254.915913 27.949606 
L 255.487982 28.833642 
L 256.060051 30.659201 
L 257.204189 36.221694 
L 258.920396 44.785623 
L 260.636603 52.146626 
L 261.780741 56.264781 
L 262.924879 59.239445 
L 263.496948 60.164653 
L 264.069017 60.621694 
L 264.641086 60.592403 
L 265.213155 60.157846 
L 269.217639 55.547556 
L 269.789708 55.330864 
L 270.361777 55.442851 
L 271.505915 56.272004 
L 272.650053 57.014208 
L 273.794191 57.329041 
L 276.082467 57.581476 
L 276.654536 57.842762 
L 277.798674 58.725161 
L 278.942812 59.765616 
L 280.08695 60.45418 
L 280.659019 60.594155 
L 281.231088 60.599161 
L 282.375226 60.247059 
L 283.519364 59.576197 
L 284.663502 58.649831 
L 285.80764 57.268595 
L 286.951778 55.3768 
L 288.095916 53.030593 
L 289.240054 50.119445 
L 290.384193 46.597727 
L 292.672469 39.040962 
L 293.816607 36.103668 
L 294.960745 33.922131 
L 295.532814 33.128495 
L 296.104883 32.64332 
L 296.676952 32.529233 
L 298.393159 33.122698 
L 300.109366 32.917808 
L 300.681435 33.126445 
L 301.253504 33.51698 
L 301.825573 34.057118 
L 302.397642 34.857583 
L 302.969711 36.180125 
L 303.54178 38.28273 
L 304.113849 41.255565 
L 307.546263 62.931557 
L 308.690401 69.712816 
L 310.406608 80.768223 
L 310.978678 83.821793 
L 311.550747 86.148666 
L 312.122816 87.611052 
L 312.694885 88.196228 
L 313.266954 87.923986 
L 313.839023 86.823531 
L 314.411092 85.012345 
L 316.127299 78.719368 
L 316.699368 77.499862 
L 317.271437 76.778381 
L 318.415575 75.672032 
L 319.559713 73.883687 
L 322.420058 68.64379 
L 323.564196 65.369882 
L 324.708334 62.218555 
L 325.280403 61.176543 
L 325.852472 60.498613 
L 326.99661 59.512248 
L 327.568679 58.786872 
L 328.140748 57.721925 
L 329.284886 54.964265 
L 329.284886 54.964265 
" style="fill:none;stroke:#1f77b4;stroke-linecap:square;stroke-opacity:0.5;stroke-width:0.5;"/>
   </g>
   <g id="line2d_12">
    <path clip-path="url(#p370b9c8905)" d="M 36.957614 54.635842 
L 38.101752 58.676606 
L 39.24589 63.671064 
L 40.390028 70.754037 
L 41.534166 79.04277 
L 42.106235 82.222028 
L 42.678304 84.134706 
L 43.250373 84.767064 
L 43.822442 84.345033 
L 44.394511 83.136701 
L 44.96658 81.359297 
L 46.682787 74.510602 
L 51.831408 54.459755 
L 52.975546 50.540887 
L 54.119684 45.431588 
L 55.263822 39.520112 
L 55.835892 37.406399 
L 56.407961 36.314653 
L 56.98003 36.187219 
L 57.552099 36.758617 
L 58.124168 37.755416 
L 59.268306 40.487281 
L 60.412444 43.913759 
L 62.128651 49.879724 
L 63.844858 56.140409 
L 64.416927 57.738162 
L 64.988996 58.905324 
L 65.561065 59.714948 
L 66.705203 60.834469 
L 67.849341 61.673081 
L 68.42141 61.916988 
L 68.993479 62.018081 
L 70.137617 61.872567 
L 71.281755 61.448267 
L 72.425893 60.860096 
L 73.570031 59.918043 
L 75.286238 58.260971 
L 75.858307 58.013859 
L 76.430376 58.016057 
L 77.002446 58.248513 
L 78.146584 59.174284 
L 79.862791 61.073572 
L 80.43486 61.728002 
L 81.006929 62.187982 
L 81.578998 62.227179 
L 82.151067 61.695286 
L 82.723136 60.645601 
L 84.439343 56.921757 
L 86.727619 53.167162 
L 87.871757 50.385965 
L 90.160033 43.790657 
L 90.732102 42.441747 
L 91.304171 41.440226 
L 91.87624 40.982149 
L 92.448309 41.22845 
L 93.020378 42.217825 
L 93.592447 43.867165 
L 94.736585 48.576292 
L 98.741069 67.85306 
L 99.885207 71.678124 
L 100.457276 73.021088 
L 101.029345 73.981889 
L 102.173483 75.200186 
L 103.317621 76.112222 
L 103.88969 76.37163 
L 104.461759 76.342533 
L 105.033828 75.95764 
L 105.605897 75.250001 
L 107.894173 71.446873 
L 108.466242 70.260076 
L 109.61038 67.04597 
L 110.754518 63.481266 
L 111.898656 60.712061 
L 113.042794 58.201249 
L 115.33107 52.182097 
L 115.903139 51.889506 
L 116.475208 52.521141 
L 117.047277 54.028276 
L 117.619346 56.275886 
L 119.907623 67.516638 
L 121.051761 71.227296 
L 122.195899 73.652328 
L 122.767968 74.495316 
L 123.340037 75.086855 
L 123.912106 75.425843 
L 124.484175 75.515063 
L 125.056244 75.354555 
L 125.628313 74.950031 
L 126.772451 73.603316 
L 127.916589 72.356466 
L 128.488658 72.078311 
L 129.632796 72.068004 
L 130.776934 72.001307 
L 131.921072 71.602075 
L 133.06521 70.96689 
L 133.637279 70.479232 
L 134.781417 69.059725 
L 135.925555 67.188614 
L 137.069693 64.836842 
L 139.930038 57.925842 
L 141.074177 55.577508 
L 142.218315 52.598241 
L 143.362453 49.389145 
L 144.506591 46.847531 
L 146.222798 44.100758 
L 149.083143 39.496803 
L 149.655212 38.998561 
L 150.227281 38.704246 
L 150.79935 38.598001 
L 151.371419 38.726648 
L 151.943488 39.220732 
L 152.515557 40.229855 
L 153.087626 41.832611 
L 154.231764 46.444004 
L 155.375902 51.298219 
L 157.664178 60.053876 
L 159.952454 70.377955 
L 160.524523 72.241767 
L 161.096592 73.36071 
L 161.668661 73.61279 
L 162.240731 73.017312 
L 162.8128 71.717108 
L 164.529007 66.828767 
L 165.101076 66.225794 
L 165.673145 66.424057 
L 167.389352 68.702586 
L 167.961421 69.042382 
L 168.53349 69.043151 
L 170.249697 68.452915 
L 170.821766 68.579139 
L 171.393835 68.935239 
L 172.537973 70.098291 
L 173.110042 70.721541 
L 173.682111 71.153888 
L 174.25418 71.183673 
L 174.826249 70.670177 
L 175.398318 69.631974 
L 177.686594 64.289492 
L 179.402801 62.290156 
L 179.97487 61.090141 
L 181.119008 57.447985 
L 182.835215 51.614314 
L 183.979354 48.602022 
L 186.839699 41.966428 
L 187.411768 41.427071 
L 187.983837 41.727833 
L 188.555906 42.99935 
L 189.127975 45.148861 
L 190.272113 51.063741 
L 191.98832 60.396761 
L 193.132458 65.258117 
L 193.704527 67.058502 
L 194.276596 68.368136 
L 194.848665 69.1739 
L 195.420734 69.519052 
L 195.992803 69.483631 
L 196.564872 69.136039 
L 197.136941 68.495376 
L 197.70901 67.536479 
L 198.853148 64.737023 
L 199.997286 61.663694 
L 201.713493 57.663228 
L 202.857631 53.914744 
L 204.001769 49.916635 
L 204.573839 48.352306 
L 205.145908 47.231485 
L 205.717977 46.588178 
L 206.290046 46.431606 
L 206.862115 46.758606 
L 207.434184 47.552716 
L 208.006253 48.793752 
L 208.578322 50.475789 
L 209.150391 52.615458 
L 210.294529 58.221362 
L 212.010736 67.273738 
L 212.582805 69.554298 
L 213.154874 71.372055 
L 213.726943 72.792724 
L 214.299012 73.8557 
L 214.871081 74.532232 
L 215.44315 74.738214 
L 216.015219 74.401341 
L 216.587288 73.534063 
L 217.159357 72.237935 
L 218.303495 68.898146 
L 220.019702 63.691073 
L 220.591771 62.364323 
L 221.16384 61.354754 
L 221.735909 60.637363 
L 222.307978 60.155687 
L 223.452116 59.658829 
L 224.596254 59.483624 
L 225.740393 59.590648 
L 226.884531 60.037517 
L 230.316945 61.870842 
L 231.461083 62.628315 
L 232.033152 62.817949 
L 232.605221 62.802451 
L 233.749359 62.444245 
L 234.321428 62.408251 
L 234.893497 62.589321 
L 236.037635 63.158878 
L 236.609704 63.080944 
L 237.181773 62.477038 
L 237.753842 61.340646 
L 238.89798 58.570402 
L 239.470049 57.604635 
L 240.042118 57.087997 
L 240.614187 56.935408 
L 241.186256 57.020221 
L 242.902463 57.551232 
L 243.474532 57.405919 
L 244.046601 57.009254 
L 245.762808 55.357238 
L 246.334877 55.020814 
L 247.479016 54.605971 
L 248.051085 54.153492 
L 248.623154 53.28234 
L 249.195223 51.951589 
L 250.339361 48.64646 
L 250.91143 47.437615 
L 251.483499 47.090767 
L 252.055568 47.777096 
L 252.627637 49.294253 
L 254.343844 54.783493 
L 255.487982 57.36296 
L 257.204189 60.803578 
L 258.348327 63.178341 
L 258.920396 64.128427 
L 259.492465 64.811356 
L 260.064534 65.178805 
L 260.636603 65.187611 
L 261.208672 64.806744 
L 261.780741 64.053445 
L 262.924879 61.73561 
L 264.069017 58.819505 
L 266.929362 50.811371 
L 267.501431 49.712158 
L 268.0735 48.856908 
L 268.64557 48.218892 
L 269.789708 47.409346 
L 270.933846 46.739824 
L 272.650053 45.518396 
L 273.222122 45.427119 
L 273.794191 45.765178 
L 274.36626 46.568042 
L 276.082467 49.785213 
L 276.654536 50.49069 
L 282.375226 55.680242 
L 283.519364 56.348539 
L 284.091433 56.532994 
L 284.663502 56.592433 
L 285.235571 56.512525 
L 285.80764 56.289319 
L 286.951778 55.485986 
L 288.667985 53.878731 
L 290.956262 51.375998 
L 294.388676 47.090375 
L 295.532814 45.454326 
L 297.249021 42.815566 
L 298.393159 41.780504 
L 298.965228 41.255236 
L 299.537297 40.481784 
L 300.109366 39.356574 
L 301.253504 36.17495 
L 302.397642 32.837665 
L 302.969711 31.635417 
L 303.54178 30.912341 
L 304.113849 30.733798 
L 304.685918 31.250947 
L 305.257987 32.757744 
L 305.830056 35.535406 
L 306.974194 44.306433 
L 308.118332 52.767461 
L 308.690401 55.577151 
L 309.26247 57.479199 
L 309.834539 58.701956 
L 310.406608 59.424338 
L 310.978678 59.782666 
L 313.839023 60.54216 
L 314.411092 60.837215 
L 314.983161 61.26535 
L 316.127299 62.590717 
L 317.271437 63.835195 
L 317.843506 64.127031 
L 318.415575 64.185343 
L 318.987644 64.075083 
L 320.131782 63.509246 
L 320.703851 63.01538 
L 321.27592 62.310864 
L 321.847989 61.363133 
L 322.420058 60.157242 
L 323.564196 56.928553 
L 325.280403 51.158781 
L 325.852472 49.855506 
L 326.424541 49.173918 
L 326.99661 49.089746 
L 327.568679 49.495089 
L 328.140748 50.294041 
L 328.712817 51.439682 
L 329.284886 52.903511 
L 329.284886 52.903511 
" style="fill:none;stroke:#1f77b4;stroke-linecap:square;stroke-opacity:0.5;stroke-width:0.5;"/>
   </g>
   <g id="line2d_13">
    <path clip-path="url(#p370b9c8905)" d="M 36.957614 43.88125 
L 37.529683 43.632336 
L 38.101752 43.896615 
L 38.673821 44.746001 
L 39.24589 46.26855 
L 39.817959 48.578181 
L 40.390028 51.768054 
L 41.534166 60.518119 
L 43.250373 74.587801 
L 43.822442 78.049948 
L 44.394511 80.588823 
L 44.96658 82.278326 
L 45.538649 83.306064 
L 46.110718 83.845478 
L 46.682787 83.948393 
L 47.254856 83.525945 
L 47.826925 82.444293 
L 48.398994 80.622776 
L 49.543132 75.093719 
L 50.68727 68.932131 
L 51.831408 64.190222 
L 54.119684 57.028069 
L 55.835892 52.049356 
L 56.98003 49.547988 
L 58.124168 47.638326 
L 59.268306 46.242605 
L 59.840375 45.801617 
L 60.412444 45.544723 
L 60.984513 45.476002 
L 61.556582 45.638797 
L 62.128651 46.117584 
L 62.70072 46.986562 
L 63.844858 49.697482 
L 64.988996 52.50893 
L 66.133134 54.517716 
L 68.42141 57.604267 
L 71.853824 61.952727 
L 72.425893 63.22877 
L 74.1421 67.980155 
L 74.714169 68.96799 
L 75.286238 69.421463 
L 77.002446 69.694419 
L 77.574515 70.227875 
L 79.290722 72.518336 
L 79.862791 72.746259 
L 80.43486 72.539541 
L 81.006929 71.929561 
L 81.578998 70.958253 
L 82.723136 68.231501 
L 84.439343 64.038291 
L 85.583481 61.301871 
L 86.727619 57.627307 
L 89.015895 49.171325 
L 90.160033 45.744514 
L 91.304171 42.952631 
L 91.87624 42.064655 
L 92.448309 41.779236 
L 93.020378 42.23906 
L 93.592447 43.462486 
L 94.164516 45.363215 
L 95.308654 50.72715 
L 96.452792 57.640062 
L 99.885207 80.676119 
L 100.457276 83.773324 
L 101.029345 86.127812 
L 101.601414 87.462534 
L 102.173483 87.731517 
L 102.745552 87.117848 
L 103.317621 85.902947 
L 104.461759 82.402232 
L 105.605897 77.576367 
L 107.322104 69.608648 
L 107.894173 67.612116 
L 109.038311 64.761687 
L 110.182449 62.078508 
L 112.470725 55.959143 
L 113.614863 53.949488 
L 114.759001 52.703997 
L 115.903139 51.935209 
L 117.047277 51.456359 
L 117.619346 51.354928 
L 118.191415 51.410597 
L 118.763484 51.67912 
L 119.335554 52.197478 
L 119.907623 52.970607 
L 121.051761 55.100497 
L 122.195899 57.631793 
L 123.340037 60.892103 
L 126.200382 71.278008 
L 126.772451 72.453495 
L 127.34452 73.192887 
L 127.916589 73.558403 
L 128.488658 73.648885 
L 129.632796 73.454443 
L 130.776934 73.054695 
L 131.349003 72.620059 
L 131.921072 71.8205 
L 132.493141 70.513936 
L 133.06521 68.677883 
L 137.069693 53.456005 
L 138.213831 50.224241 
L 139.930038 46.388645 
L 141.646246 42.868613 
L 142.218315 41.990548 
L 142.790384 41.420991 
L 143.362453 41.171239 
L 143.934522 41.173264 
L 145.07866 41.543764 
L 146.222798 41.925391 
L 148.511074 42.404516 
L 150.227281 43.218139 
L 150.79935 43.621012 
L 151.371419 44.353816 
L 151.943488 45.606367 
L 152.515557 47.408118 
L 154.231764 53.704763 
L 154.803833 55.031789 
L 155.375902 55.813915 
L 155.947971 56.383715 
L 156.52004 57.228731 
L 157.092109 58.670364 
L 157.664178 60.75135 
L 159.952454 70.568478 
L 160.524523 71.604413 
L 161.096592 71.583351 
L 161.668661 70.678958 
L 162.240731 69.18456 
L 164.529007 61.668023 
L 165.101076 60.559682 
L 165.673145 60.151748 
L 166.245214 60.315357 
L 169.105559 62.510521 
L 169.677628 63.351465 
L 170.821766 66.024344 
L 171.965904 68.754991 
L 172.537973 69.524473 
L 173.110042 69.697958 
L 173.682111 69.305636 
L 175.970387 66.390113 
L 176.542456 66.050339 
L 177.686594 65.774704 
L 178.258663 65.642941 
L 178.830732 65.296178 
L 179.402801 64.589135 
L 179.97487 63.488813 
L 181.119008 60.36452 
L 182.835215 55.026257 
L 183.979354 52.3794 
L 184.551423 51.095943 
L 185.123492 49.480787 
L 185.695561 47.340642 
L 186.839699 41.633726 
L 187.983837 36.190008 
L 188.555906 34.49517 
L 189.127975 33.590525 
L 189.700044 33.334678 
L 190.272113 33.611367 
L 190.844182 34.422197 
L 191.416251 35.846008 
L 191.98832 37.947936 
L 192.560389 40.717554 
L 193.704527 47.825263 
L 195.420734 59.467923 
L 196.564872 65.483909 
L 197.136941 67.638744 
L 197.70901 69.211658 
L 198.281079 70.190453 
L 198.853148 70.53997 
L 199.425217 70.236114 
L 199.997286 69.310491 
L 200.569355 67.866869 
L 201.713493 64.062494 
L 204.001769 56.19436 
L 205.145908 52.993766 
L 205.717977 51.998279 
L 206.290046 51.533524 
L 206.862115 51.482174 
L 209.150391 52.080186 
L 209.72246 52.461099 
L 210.294529 53.154688 
L 210.866598 54.222781 
L 211.438667 55.677086 
L 212.010736 57.508755 
L 213.154874 62.371477 
L 214.871081 71.041088 
L 215.44315 72.625931 
L 216.015219 72.916765 
L 216.587288 72.064963 
L 217.731426 68.670453 
L 218.303495 66.988694 
L 218.875564 65.684149 
L 219.447633 64.80703 
L 220.591771 63.573984 
L 221.16384 62.656261 
L 221.735909 61.342229 
L 224.024185 54.812346 
L 224.596254 53.815847 
L 225.168323 53.153051 
L 228.028669 50.747025 
L 228.600738 50.395448 
L 229.172807 50.253005 
L 229.744876 50.415532 
L 230.316945 50.942653 
L 230.889014 51.834317 
L 233.17729 56.572319 
L 233.749359 57.1943 
L 234.321428 57.508467 
L 235.465566 57.662634 
L 236.037635 57.574805 
L 237.181773 56.991346 
L 237.753842 56.666868 
L 238.325911 56.525119 
L 238.89798 56.632022 
L 240.042118 57.193267 
L 240.614187 57.288093 
L 241.186256 57.033819 
L 241.758325 56.327244 
L 242.330394 55.154934 
L 243.474532 51.911886 
L 245.190739 46.757896 
L 245.762808 44.711233 
L 246.906946 39.425276 
L 248.051085 34.010466 
L 248.623154 32.184512 
L 249.195223 31.170319 
L 249.767292 30.880159 
L 250.339361 31.165166 
L 250.91143 31.981055 
L 251.483499 33.442303 
L 252.055568 35.740032 
L 252.627637 38.980295 
L 253.771775 47.655004 
L 255.487982 61.043726 
L 256.060051 64.485597 
L 256.63212 67.172939 
L 257.204189 69.058025 
L 257.776258 70.143903 
L 258.348327 70.480542 
L 258.920396 70.181198 
L 259.492465 69.439487 
L 261.780741 65.520723 
L 262.35281 64.074029 
L 263.496948 59.940871 
L 264.641086 55.361521 
L 265.213155 53.529344 
L 265.785224 52.165166 
L 266.929362 50.395825 
L 268.64557 47.988377 
L 269.789708 46.273478 
L 270.361777 45.654001 
L 270.933846 45.380931 
L 271.505915 45.505945 
L 272.077984 45.986144 
L 272.650053 46.750696 
L 273.222122 47.761433 
L 274.36626 50.428392 
L 275.510398 53.296318 
L 276.082467 54.427278 
L 276.654536 55.246141 
L 277.226605 55.763206 
L 277.798674 56.033645 
L 278.370743 56.122389 
L 279.514881 55.975971 
L 280.659019 55.713862 
L 281.231088 55.709635 
L 281.803157 55.926251 
L 282.375226 56.433567 
L 284.091433 58.525568 
L 284.663502 58.61148 
L 285.235571 58.199215 
L 285.80764 57.408559 
L 286.951778 55.236981 
L 288.095916 52.550722 
L 289.812124 48.371014 
L 290.956262 46.310725 
L 292.1004 44.897829 
L 292.672469 44.569566 
L 293.244538 44.592806 
L 293.816607 44.931429 
L 294.960745 45.761522 
L 295.532814 45.697464 
L 296.104883 45.032619 
L 296.676952 43.787544 
L 297.82109 40.745977 
L 298.393159 39.65716 
L 298.965228 38.981466 
L 300.109366 37.860252 
L 300.681435 36.848277 
L 302.397642 32.362186 
L 302.969711 31.629748 
L 303.54178 31.844905 
L 304.113849 33.006668 
L 304.685918 34.949795 
L 305.830056 40.523458 
L 306.974194 47.651318 
L 309.26247 62.486756 
L 310.406608 68.669001 
L 310.978678 71.228796 
L 311.550747 73.199511 
L 312.122816 74.38034 
L 312.694885 74.692893 
L 313.266954 74.187681 
L 313.839023 73.020355 
L 315.55523 68.642697 
L 316.127299 68.02911 
L 316.699368 67.993506 
L 317.843506 68.511275 
L 318.415575 68.505498 
L 318.987644 68.195158 
L 320.703851 66.807574 
L 321.847989 66.266914 
L 322.420058 65.768454 
L 322.992127 64.933349 
L 323.564196 63.714535 
L 324.136265 62.11565 
L 325.280403 57.976013 
L 327.568679 48.95039 
L 328.712817 45.684496 
L 329.284886 44.579834 
L 329.284886 44.579834 
" style="fill:none;stroke:#1f77b4;stroke-linecap:square;stroke-opacity:0.5;stroke-width:0.5;"/>
   </g>
   <g id="line2d_14">
    <path clip-path="url(#p370b9c8905)" d="M 36.957614 48.793449 
L 37.529683 49.88899 
L 38.101752 51.842636 
L 40.390028 61.572239 
L 43.250373 71.572006 
L 43.822442 72.879545 
L 44.394511 73.414582 
L 44.96658 73.034733 
L 45.538649 71.814056 
L 47.254856 66.727202 
L 48.398994 64.502053 
L 49.543132 62.373958 
L 50.68727 59.549798 
L 52.975546 52.668965 
L 54.691753 47.719762 
L 56.407961 43.490733 
L 57.552099 41.376305 
L 58.124168 40.763644 
L 58.696237 40.630552 
L 59.268306 41.113756 
L 59.840375 42.279818 
L 60.412444 44.092563 
L 61.556582 49.258943 
L 63.272789 58.491877 
L 63.844858 60.854671 
L 64.416927 62.546032 
L 66.133134 65.956646 
L 66.705203 67.097248 
L 67.277272 67.943446 
L 67.849341 68.150001 
L 68.42141 67.561505 
L 70.709686 62.91769 
L 71.281755 62.44663 
L 74.1421 60.911452 
L 75.286238 60.663008 
L 76.430376 60.69155 
L 77.574515 61.222489 
L 78.146584 61.47593 
L 78.718653 61.478333 
L 79.290722 61.155872 
L 82.151067 58.332603 
L 83.867274 57.078314 
L 85.011412 55.926696 
L 86.15555 54.373539 
L 86.727619 53.35941 
L 87.299688 52.115416 
L 88.443826 48.805274 
L 90.160033 42.350674 
L 91.304171 37.904775 
L 91.87624 36.092578 
L 92.448309 34.923024 
L 93.020378 34.615894 
L 93.592447 35.226131 
L 94.164516 36.611981 
L 95.308654 40.698167 
L 95.880723 43.218964 
L 96.452792 46.383639 
L 97.024861 50.592194 
L 98.169 62.1325 
L 99.313138 74.589386 
L 99.885207 79.771285 
L 100.457276 83.817093 
L 101.029345 86.600108 
L 101.601414 88.113098 
L 102.173483 88.444246 
L 102.745552 87.759484 
L 103.317621 86.290594 
L 104.461759 82.095404 
L 107.322104 71.136989 
L 108.466242 67.110181 
L 109.61038 63.744813 
L 111.326587 59.583102 
L 113.614863 54.564141 
L 114.186932 53.531858 
L 114.759001 52.813219 
L 115.33107 52.506553 
L 115.903139 52.599791 
L 116.475208 52.992276 
L 117.619346 54.287317 
L 118.191415 55.182906 
L 118.763484 56.342741 
L 119.907623 59.505443 
L 121.62383 64.541174 
L 124.484175 71.611883 
L 125.056244 72.512995 
L 125.628313 72.907105 
L 126.200382 72.785651 
L 127.34452 71.949303 
L 127.916589 72.018997 
L 128.488658 72.757357 
L 130.204865 76.523262 
L 130.776934 77.140772 
L 131.349003 77.197369 
L 131.921072 76.738507 
L 132.493141 75.864423 
L 134.781417 71.028042 
L 135.925555 68.552703 
L 137.069693 65.506121 
L 138.213831 61.765866 
L 140.502107 53.76684 
L 141.646246 50.593039 
L 145.650729 41.296116 
L 146.794867 39.321793 
L 148.511074 37.201501 
L 149.083143 36.628914 
L 149.655212 36.220033 
L 150.227281 36.079693 
L 150.79935 36.304565 
L 151.371419 36.957719 
L 151.943488 38.049411 
L 154.231764 43.938979 
L 155.947971 46.603185 
L 156.52004 48.333066 
L 157.664178 53.718802 
L 158.808316 59.619898 
L 159.380385 62.084134 
L 159.952454 64.021754 
L 160.524523 65.361062 
L 161.096592 66.132664 
L 161.668661 66.471793 
L 163.384869 66.840425 
L 163.956938 67.561064 
L 164.529007 68.9127 
L 166.245214 74.408357 
L 166.817283 75.479605 
L 167.389352 75.949138 
L 167.961421 75.951772 
L 168.53349 75.647906 
L 169.677628 74.557175 
L 171.393835 72.634198 
L 173.682111 70.510978 
L 175.398318 68.148142 
L 175.970387 67.670969 
L 176.542456 67.4187 
L 177.114525 67.338524 
L 178.258663 67.514904 
L 178.830732 67.654403 
L 179.402801 67.678452 
L 179.97487 67.463293 
L 180.546939 66.942909 
L 181.119008 66.128467 
L 182.263146 63.786408 
L 182.835215 62.217399 
L 183.407285 60.254341 
L 184.551423 54.904935 
L 187.411768 39.230711 
L 187.983837 37.099741 
L 188.555906 35.438064 
L 189.127975 34.186014 
L 189.700044 33.327488 
L 190.272113 32.914082 
L 190.844182 33.034563 
L 191.416251 33.767107 
L 191.98832 35.148895 
L 192.560389 37.172207 
L 193.704527 42.899105 
L 195.992803 56.326372 
L 196.564872 58.845469 
L 197.136941 60.825127 
L 197.70901 62.321439 
L 198.281079 63.382783 
L 198.853148 64.009692 
L 199.425217 64.175092 
L 199.997286 63.869081 
L 200.569355 63.117394 
L 201.141424 61.953613 
L 201.713493 60.386563 
L 202.285562 58.406475 
L 203.4297 53.309379 
L 205.145908 45.037585 
L 205.717977 43.320717 
L 206.290046 42.649126 
L 206.862115 43.020415 
L 207.434184 44.180141 
L 208.578322 47.589567 
L 209.72246 51.640618 
L 210.866598 56.816149 
L 213.726943 71.536218 
L 214.299012 73.3993 
L 214.871081 74.425227 
L 215.44315 74.49868 
L 216.015219 73.700699 
L 217.159357 70.58992 
L 218.303495 67.296327 
L 220.591771 61.648056 
L 223.452116 53.414318 
L 224.596254 50.987936 
L 225.168323 50.291807 
L 225.740393 50.073929 
L 226.312462 50.308432 
L 226.884531 50.886758 
L 228.028669 52.584653 
L 232.033152 59.47047 
L 233.17729 61.840975 
L 233.749359 62.781261 
L 234.321428 63.270421 
L 234.893497 63.180708 
L 235.465566 62.476395 
L 236.037635 61.199755 
L 237.753842 55.993274 
L 238.325911 54.937034 
L 238.89798 54.613738 
L 239.470049 54.9083 
L 240.614187 56.330473 
L 241.758325 57.648121 
L 242.330394 57.983969 
L 242.902463 57.983885 
L 243.474532 57.654356 
L 244.61867 56.409627 
L 245.762808 54.776483 
L 246.334877 53.685693 
L 246.906946 52.300748 
L 248.051085 48.702681 
L 251.483499 36.722771 
L 252.055568 35.2142 
L 252.627637 34.203683 
L 253.199706 33.732817 
L 253.771775 33.763804 
L 254.343844 34.256298 
L 254.915913 35.20862 
L 255.487982 36.628207 
L 256.63212 40.631765 
L 261.780741 61.512951 
L 262.35281 62.940079 
L 262.924879 63.4627 
L 263.496948 63.111047 
L 264.069017 62.0161 
L 264.641086 60.336437 
L 265.785224 55.923102 
L 267.501431 49.16432 
L 268.64557 45.649726 
L 269.217639 44.504202 
L 269.789708 43.961589 
L 270.361777 44.082511 
L 270.933846 44.781751 
L 271.505915 45.893291 
L 272.650053 48.885932 
L 273.222122 50.821606 
L 273.794191 53.23209 
L 274.938329 59.572701 
L 276.082467 66.196278 
L 276.654536 68.746397 
L 277.226605 70.531265 
L 277.798674 71.534445 
L 278.370743 71.836186 
L 278.942812 71.576224 
L 279.514881 70.917573 
L 280.659019 68.914478 
L 281.803157 66.607234 
L 282.375226 65.738064 
L 282.947295 65.323332 
L 283.519364 65.403974 
L 284.663502 66.057531 
L 285.235571 65.898683 
L 285.80764 65.134482 
L 286.379709 63.758165 
L 287.523847 59.610219 
L 288.667985 55.091821 
L 289.240054 53.424789 
L 289.812124 52.327493 
L 290.384193 51.68502 
L 291.528331 51.030095 
L 293.244538 50.293155 
L 293.816607 49.929442 
L 294.388676 49.412131 
L 294.960745 48.687885 
L 296.104883 46.584441 
L 297.249021 43.767609 
L 297.82109 41.991278 
L 298.965228 37.314505 
L 301.253504 26.753435 
L 301.825573 24.918083 
L 302.397642 23.720203 
L 302.969711 23.299064 
L 303.54178 23.771009 
L 304.113849 25.215575 
L 304.685918 27.659125 
L 305.257987 31.07081 
L 306.402125 40.464837 
L 309.26247 69.15046 
L 309.834539 73.328137 
L 310.406608 76.46131 
L 310.978678 78.49984 
L 311.550747 79.48142 
L 312.122816 79.515812 
L 312.694885 78.75852 
L 313.266954 77.391501 
L 315.55523 70.287242 
L 316.699368 67.932023 
L 320.131782 61.641049 
L 321.27592 59.780023 
L 322.420058 57.314928 
L 323.564196 54.824404 
L 324.136265 53.929702 
L 324.708334 53.396302 
L 326.424541 52.796611 
L 326.99661 52.286135 
L 327.568679 51.456557 
L 328.712817 49.338224 
L 329.284886 48.675944 
L 329.284886 48.675944 
" style="fill:none;stroke:#1f77b4;stroke-linecap:square;stroke-opacity:0.5;stroke-width:0.5;"/>
   </g>
   <g id="line2d_15">
    <path clip-path="url(#p370b9c8905)" d="M 36.957614 54.478539 
L 37.529683 55.984134 
L 38.673821 60.113105 
L 40.390028 66.64666 
L 41.534166 70.242495 
L 42.678304 72.921448 
L 43.250373 73.806869 
L 43.822442 74.316485 
L 44.394511 74.391275 
L 44.96658 73.994724 
L 45.538649 73.152718 
L 46.682787 70.656014 
L 47.826925 68.145788 
L 49.543132 64.753801 
L 50.68727 61.732113 
L 52.403477 56.801742 
L 53.547615 53.795761 
L 54.691753 49.778436 
L 56.407961 42.869025 
L 56.98003 41.386585 
L 57.552099 40.55432 
L 58.124168 40.392888 
L 58.696237 40.93989 
L 59.268306 42.265062 
L 59.840375 44.431868 
L 60.412444 47.456143 
L 61.556582 55.812807 
L 64.416927 80.35185 
L 64.988996 83.71192 
L 65.561065 86.073811 
L 66.133134 87.367248 
L 66.705203 87.599653 
L 67.277272 86.868103 
L 67.849341 85.368414 
L 68.993479 81.128832 
L 70.709686 74.631973 
L 71.281755 72.918462 
L 71.853824 71.653994 
L 72.425893 70.873318 
L 74.1421 69.606156 
L 74.714169 68.830859 
L 75.858307 66.670996 
L 77.574515 62.735422 
L 78.718653 60.022884 
L 79.290722 59.021002 
L 79.862791 58.428103 
L 80.43486 58.271574 
L 81.006929 58.4761 
L 82.151067 59.186913 
L 82.723136 59.217935 
L 83.295205 58.85402 
L 83.867274 58.158084 
L 85.011412 56.291875 
L 86.15555 54.148909 
L 87.299688 51.6387 
L 89.015895 47.287133 
L 91.87624 39.671731 
L 92.448309 38.920281 
L 93.020378 38.765476 
L 93.592447 39.216945 
L 94.164516 40.206452 
L 94.736585 41.665277 
L 95.308654 43.588445 
L 95.880723 46.046683 
L 96.452792 49.138238 
L 97.59693 57.256787 
L 99.313138 71.085605 
L 100.457276 78.204917 
L 101.029345 80.618125 
L 101.601414 82.176773 
L 102.173483 82.866417 
L 102.745552 82.681505 
L 103.317621 81.635629 
L 103.88969 79.837026 
L 105.605897 73.499292 
L 106.177966 72.373191 
L 106.750035 71.870172 
L 108.466242 71.498584 
L 109.61038 70.614815 
L 110.182449 70.179085 
L 110.754518 69.990642 
L 111.326587 70.089079 
L 113.042794 70.795162 
L 114.186932 70.691275 
L 115.903139 70.173295 
L 118.191415 69.332459 
L 118.763484 69.457736 
L 119.335554 69.830713 
L 121.051761 71.498768 
L 121.62383 71.870323 
L 122.767968 72.21312 
L 123.912106 72.481465 
L 125.628313 73.153831 
L 126.200382 73.152521 
L 126.772451 72.928753 
L 128.488658 71.705616 
L 129.060727 71.514431 
L 130.776934 71.405505 
L 131.349003 71.194641 
L 131.921072 70.803528 
L 132.493141 70.221499 
L 133.637279 68.495578 
L 134.781417 66.024418 
L 137.069693 59.701296 
L 138.213831 56.315878 
L 139.357969 51.631968 
L 141.074177 43.145764 
L 141.646246 40.900208 
L 142.218315 39.242163 
L 142.790384 38.088678 
L 144.506591 35.560465 
L 145.07866 34.432263 
L 145.650729 32.936193 
L 146.794867 28.806044 
L 147.939005 24.871181 
L 148.511074 23.813716 
L 149.083143 23.542124 
L 149.655212 23.945591 
L 150.227281 24.814378 
L 150.79935 25.982198 
L 151.371419 27.450111 
L 151.943488 29.402767 
L 152.515557 32.060669 
L 153.659695 39.493458 
L 154.803833 47.491332 
L 155.947971 53.549524 
L 157.664178 61.997258 
L 158.808316 67.525992 
L 159.380385 69.517295 
L 159.952454 70.894623 
L 160.524523 71.786724 
L 161.096592 72.37335 
L 161.668661 72.765116 
L 163.384869 73.542582 
L 163.956938 74.269861 
L 165.673145 78.048172 
L 166.245214 78.717363 
L 166.817283 78.776111 
L 167.389352 78.350567 
L 168.53349 76.842999 
L 171.393835 72.599174 
L 173.110042 69.435812 
L 173.682111 68.725156 
L 174.25418 68.435591 
L 174.826249 68.499349 
L 175.398318 68.690312 
L 175.970387 68.757111 
L 176.542456 68.556559 
L 178.258663 67.303554 
L 178.830732 67.205899 
L 179.97487 67.165301 
L 180.546939 66.823584 
L 181.119008 66.151076 
L 181.691077 65.161679 
L 182.263146 63.830849 
L 182.835215 62.07235 
L 183.407285 59.810955 
L 184.551423 54.027991 
L 185.695561 47.928898 
L 186.26763 45.381342 
L 186.839699 43.445453 
L 187.411768 42.17507 
L 187.983837 41.427331 
L 189.700044 39.742059 
L 190.272113 39.125914 
L 190.844182 38.6804 
L 191.416251 38.508883 
L 191.98832 38.640269 
L 192.560389 39.079864 
L 193.132458 39.857388 
L 193.704527 41.02018 
L 194.276596 42.623558 
L 194.848665 44.70069 
L 195.992803 50.014635 
L 197.136941 55.466758 
L 197.70901 57.608747 
L 198.281079 59.194548 
L 198.853148 60.238375 
L 199.425217 60.787192 
L 199.997286 60.893612 
L 200.569355 60.650424 
L 201.713493 59.875778 
L 202.285562 59.779541 
L 202.857631 60.032783 
L 203.4297 60.632943 
L 204.001769 61.562651 
L 204.573839 62.852583 
L 205.145908 64.574382 
L 205.717977 66.780224 
L 206.862115 72.400336 
L 209.72246 87.468338 
L 210.866598 91.879012 
L 211.438667 93.228472 
L 212.010736 93.930372 
L 212.582805 94.036336 
L 213.154874 93.636334 
L 213.726943 92.807751 
L 214.299012 91.590148 
L 214.871081 90.004628 
L 216.015219 85.933214 
L 218.303495 76.454034 
L 219.447633 70.700556 
L 221.735909 57.243591 
L 222.307978 54.845599 
L 222.880047 53.188787 
L 223.452116 52.306711 
L 224.024185 52.099389 
L 225.168323 52.530762 
L 225.740393 52.528715 
L 226.312462 52.214141 
L 227.4566 51.136021 
L 228.028669 50.846076 
L 228.600738 51.072921 
L 229.172807 51.9405 
L 231.461083 57.409809 
L 232.033152 57.938599 
L 232.605221 57.910136 
L 233.17729 57.411251 
L 235.465566 54.333326 
L 237.181773 52.59842 
L 238.325911 51.823333 
L 238.89798 51.660902 
L 239.470049 51.675744 
L 240.042118 51.856369 
L 241.186256 52.612853 
L 242.330394 53.754871 
L 243.474532 54.999275 
L 244.046601 55.499975 
L 244.61867 55.852338 
L 245.190739 56.047291 
L 246.906946 56.194603 
L 247.479016 56.436808 
L 248.051085 56.91824 
L 249.767292 58.991346 
L 250.339361 59.40253 
L 250.91143 59.566356 
L 252.055568 59.71139 
L 252.627637 60.061088 
L 253.199706 60.676329 
L 254.915913 62.930288 
L 255.487982 63.424784 
L 256.63212 63.950154 
L 257.776258 64.459475 
L 258.920396 65.431879 
L 259.492465 65.935381 
L 260.064534 66.109063 
L 260.636603 65.598973 
L 261.208672 64.20508 
L 263.496948 55.632689 
L 264.641086 53.21174 
L 265.213155 52.001528 
L 266.357293 48.680907 
L 267.501431 45.146363 
L 268.0735 43.863352 
L 268.64557 43.044506 
L 269.217639 42.6564 
L 269.789708 42.582506 
L 270.933846 42.830348 
L 271.505915 43.044416 
L 272.077984 43.425752 
L 272.650053 44.145136 
L 273.222122 45.381974 
L 273.794191 47.259661 
L 274.938329 52.785316 
L 276.082467 58.862111 
L 276.654536 61.202166 
L 277.226605 62.739855 
L 277.798674 63.523813 
L 278.370743 63.938383 
L 278.942812 64.564077 
L 279.514881 65.857324 
L 281.231088 72.002973 
L 281.803157 73.153637 
L 282.375226 73.36458 
L 282.947295 72.723802 
L 284.091433 70.020319 
L 286.379709 63.87385 
L 287.523847 59.611211 
L 288.667985 55.091821 
L 289.240054 53.425415 
L 289.812124 52.335624 
L 290.384193 51.715992 
L 292.1004 50.684414 
L 293.244538 49.510181 
L 294.388676 48.35594 
L 294.960745 48.027798 
L 296.676952 47.549248 
L 297.249021 47.162115 
L 297.82109 46.530003 
L 299.537297 44.178153 
L 300.109366 43.71985 
L 300.681435 43.555654 
L 301.253504 43.671703 
L 302.397642 44.440158 
L 303.54178 45.260255 
L 304.685918 45.965961 
L 305.257987 46.49206 
L 305.830056 47.324359 
L 306.402125 48.575241 
L 307.546263 52.207529 
L 309.26247 58.228896 
L 310.406608 61.532866 
L 310.978678 62.684599 
L 311.550747 63.383156 
L 312.122816 63.637045 
L 312.694885 63.524558 
L 313.266954 63.130092 
L 314.411092 61.748385 
L 315.55523 60.129233 
L 316.127299 59.495521 
L 316.699368 59.050649 
L 317.843506 58.535241 
L 322.992127 56.545487 
L 323.564196 55.923936 
L 324.708334 53.917329 
L 325.280403 52.820781 
L 325.852472 51.984512 
L 326.424541 51.562629 
L 326.99661 51.54907 
L 327.568679 51.816266 
L 328.712817 52.73381 
L 329.284886 53.432158 
L 329.284886 53.432158 
" style="fill:none;stroke:#1f77b4;stroke-linecap:square;stroke-opacity:0.5;stroke-width:0.5;"/>
   </g>
   <g id="patch_3">
    <path d="M 22.34125 97.5732 
L 22.34125 19.7622 
" style="fill:none;stroke:#000000;stroke-linecap:square;stroke-linejoin:miter;stroke-width:0.5;"/>
   </g>
   <g id="patch_4">
    <path d="M 343.90125 97.5732 
L 343.90125 19.7622 
" style="fill:none;stroke:#000000;stroke-linecap:square;stroke-linejoin:miter;stroke-width:0.5;"/>
   </g>
   <g id="patch_5">
    <path d="M 22.34125 97.5732 
L 343.90125 97.5732 
" style="fill:none;stroke:#000000;stroke-linecap:square;stroke-linejoin:miter;stroke-width:0.5;"/>
   </g>
   <g id="patch_6">
    <path d="M 22.34125 19.7622 
L 343.90125 19.7622 
" style="fill:none;stroke:#000000;stroke-linecap:square;stroke-linejoin:miter;stroke-width:0.5;"/>
   </g>
   <g id="legend_1">
    <g id="line2d_16">
     <path d="M 126.633594 11.724375 
L 138.633594 11.724375 
" style="fill:none;stroke:#ff7f0e;stroke-linecap:square;stroke-width:0.5;"/>
    </g>
    <g id="line2d_17"/>
    <g id="text_11">
     <!-- True state -->
     <defs>
      <path d="M 72.796875 44.90625 
L 70.796875 67.59375 
L 5.796875 67.59375 
L 3.796875 44.90625 
L 6.90625 44.90625 
C 8.296875 61.796875 10.59375 64.296875 25.90625 64.296875 
C 27.796875 64.296875 30.90625 64.296875 31.703125 64.09375 
C 33.59375 63.703125 33.703125 62.703125 33.703125 60.203125 
L 33.703125 8.203125 
C 33.703125 4.703125 33.703125 3.296875 23.296875 3.296875 
L 19.5 3.296875 
L 19.5 0 
C 23.203125 0.296875 34 0.296875 38.296875 0.296875 
C 42.59375 0.296875 53.40625 0.296875 57.09375 0 
L 57.09375 3.296875 
L 53.296875 3.296875 
C 42.90625 3.296875 42.90625 4.703125 42.90625 8.203125 
L 42.90625 60.203125 
C 42.90625 62.5 42.90625 63.703125 45 64.09375 
C 45.90625 64.296875 48.796875 64.296875 50.703125 64.296875 
C 66 64.296875 68.296875 61.796875 69.703125 44.90625 
z
" id="LMRoman8-Regular-84"/>
      <path d="M 56.203125 0 
L 56.203125 3.296875 
C 49.40625 3.296875 48.59375 4 48.59375 8.90625 
L 48.59375 44.09375 
L 33.40625 43 
L 33.40625 39.703125 
C 40.203125 39.703125 41 39 41 34.09375 
L 41 16.703125 
C 41 8.09375 35.796875 1.796875 28.296875 1.796875 
C 19.703125 1.796875 19.296875 6.09375 19.296875 11.09375 
L 19.296875 44.09375 
L 4.09375 43 
L 4.09375 39.703125 
C 11.703125 39.703125 11.703125 39.40625 11.703125 30.5 
L 11.703125 15.5 
C 11.703125 8.296875 11.703125 -1 27.703125 -1 
C 37.09375 -1 40.703125 6.203125 41.203125 7.09375 
L 41.296875 7.09375 
L 41.296875 -1 
z
" id="LMRoman8-Regular-117"/>
      <path d="M 38.296875 12.90625 
C 38.296875 17.703125 35.40625 24.703125 23.5 26.90625 
C 22.703125 27.09375 17.09375 28.09375 16.703125 28.09375 
C 13.59375 28.796875 8.90625 30.90625 8.90625 34.90625 
C 8.90625 37.90625 11.09375 42.09375 20.59375 42.09375 
C 31.796875 42.09375 32.296875 33.90625 32.5 31.09375 
C 32.59375 30.296875 33.296875 30 34 30 
C 35.59375 30 35.59375 30.703125 35.59375 32.59375 
L 35.59375 42 
C 35.59375 43.59375 35.59375 44.59375 34.296875 44.59375 
C 33.796875 44.59375 33.5 44.59375 31.90625 43 
C 31.703125 42.90625 30.796875 42 30.5 42 
C 30.5 42 30.203125 42 29.59375 42.40625 
C 28 43.5 25.09375 44.59375 20.59375 44.59375 
C 6.59375 44.59375 3.5 37 3.5 32.203125 
C 3.5 27.203125 7.203125 24.296875 7.5 24 
C 11.5 21 13.796875 20.59375 20.5 19.40625 
C 25.203125 18.5 32.90625 17.09375 32.90625 10.296875 
C 32.90625 6.40625 30.296875 1.796875 21.09375 1.796875 
C 11 1.796875 8.09375 9.59375 6.796875 14.90625 
C 6.40625 16.203125 6.296875 16.703125 5.09375 16.703125 
C 3.5 16.703125 3.5 15.90625 3.5 14 
L 3.5 1.59375 
C 3.5 0 3.5 -1 4.796875 -1 
C 5.40625 -1 5.5 -0.90625 7.296875 1 
C 7.796875 1.5 8.90625 2.796875 9.40625 3.296875 
C 13.90625 -0.796875 18.59375 -1 21.203125 -1 
C 33.90625 -1 38.296875 6.296875 38.296875 12.90625 
z
" id="LMRoman8-Regular-115"/>
     </defs>
     <g transform="translate(143.433594 13.824375)scale(0.06 -0.06)">
      <use xlink:href="#LMRoman8-Regular-84"/>
      <use x="76.699982" xlink:href="#LMRoman8-Regular-114"/>
      <use x="118.099976" xlink:href="#LMRoman8-Regular-117"/>
      <use x="177.09996" xlink:href="#LMRoman8-Regular-101"/>
      <use x="224.299957" xlink:href="#LMRoman8-Regular-32"/>
      <use x="259.699951" xlink:href="#LMRoman8-Regular-115"/>
      <use x="301.599945" xlink:href="#LMRoman8-Regular-116"/>
      <use x="342.899933" xlink:href="#LMRoman8-Regular-97"/>
      <use x="395.999924" xlink:href="#LMRoman8-Regular-116"/>
      <use x="437.299911" xlink:href="#LMRoman8-Regular-101"/>
     </g>
    </g>
    <g id="line2d_18">
     <path d="M 184.504531 11.724375 
L 196.504531 11.724375 
" style="fill:none;stroke:#1f77b4;stroke-linecap:square;stroke-opacity:0.5;stroke-width:0.5;"/>
    </g>
    <g id="line2d_19"/>
    <g id="text_12">
     <!-- State samples -->
     <defs>
      <path d="M 85.703125 0 
L 85.703125 3.296875 
C 79.296875 3.296875 78.09375 3.296875 78.09375 7.796875 
L 78.09375 30.296875 
C 78.09375 38.40625 74.59375 44.09375 63.703125 44.09375 
C 54.5 44.09375 49.90625 37.796875 48.296875 34.90625 
C 46.5 42.09375 40.796875 44.09375 34.296875 44.09375 
C 24.59375 44.09375 20 37.203125 18.703125 34.5 
L 18.59375 34.5 
L 18.59375 44.09375 
L 4.09375 43 
L 4.09375 39.703125 
C 10.90625 39.703125 11.703125 39 11.703125 34.09375 
L 11.703125 7.796875 
C 11.703125 3.296875 10.5 3.296875 4.09375 3.296875 
L 4.09375 0 
C 8.40625 0.296875 12.796875 0.296875 15.5 0.296875 
C 18.40625 0.296875 22.59375 0.296875 26.90625 0 
L 26.90625 3.296875 
C 20.5 3.296875 19.296875 3.296875 19.296875 7.796875 
L 19.296875 25.90625 
C 19.296875 36.40625 27.203125 41.296875 33.5 41.296875 
C 40 41.296875 41.09375 36.203125 41.09375 30.703125 
L 41.09375 7.796875 
C 41.09375 3.296875 39.90625 3.296875 33.5 3.296875 
L 33.5 0 
C 37.796875 0.296875 42.203125 0.296875 44.90625 0.296875 
C 47.796875 0.296875 52 0.296875 56.296875 0 
L 56.296875 3.296875 
C 49.90625 3.296875 48.703125 3.296875 48.703125 7.796875 
L 48.703125 25.90625 
C 48.703125 36.40625 56.59375 41.296875 62.90625 41.296875 
C 69.40625 41.296875 70.5 36.203125 70.5 30.703125 
L 70.5 7.796875 
C 70.5 3.296875 69.296875 3.296875 62.90625 3.296875 
L 62.90625 0 
C 67.203125 0.296875 71.59375 0.296875 74.296875 0.296875 
C 77.203125 0.296875 81.40625 0.296875 85.703125 0 
z
" id="LMRoman8-Regular-109"/>
     </defs>
     <g transform="translate(201.304531 13.824375)scale(0.06 -0.06)">
      <use xlink:href="#LMRoman8-Regular-83"/>
      <use x="58.999985" xlink:href="#LMRoman8-Regular-116"/>
      <use x="100.299973" xlink:href="#LMRoman8-Regular-97"/>
      <use x="153.399963" xlink:href="#LMRoman8-Regular-116"/>
      <use x="194.699951" xlink:href="#LMRoman8-Regular-101"/>
      <use x="241.899948" xlink:href="#LMRoman8-Regular-32"/>
      <use x="277.299942" xlink:href="#LMRoman8-Regular-115"/>
      <use x="319.199936" xlink:href="#LMRoman8-Regular-97"/>
      <use x="372.299927" xlink:href="#LMRoman8-Regular-109"/>
      <use x="460.799911" xlink:href="#LMRoman8-Regular-112"/>
      <use x="519.799896" xlink:href="#LMRoman8-Regular-108"/>
      <use x="549.299881" xlink:href="#LMRoman8-Regular-101"/>
      <use x="596.499878" xlink:href="#LMRoman8-Regular-115"/>
     </g>
    </g>
   </g>
  </g>
 </g>
 <defs>
  <clipPath id="p370b9c8905">
   <rect height="77.811" width="321.56" x="22.34125" y="19.7622"/>
  </clipPath>
 </defs>
</svg>
