<?xml version="1.0" encoding="utf-8" standalone="no"?>
<!DOCTYPE svg PUBLIC "-//W3C//DTD SVG 1.1//EN"
  "http://www.w3.org/Graphics/SVG/1.1/DTD/svg11.dtd">
<!-- Created with matplotlib (http://matplotlib.org/) -->
<svg height="360pt" version="1.1" viewBox="0 0 360 360" width="360pt" xmlns="http://www.w3.org/2000/svg" xmlns:xlink="http://www.w3.org/1999/xlink">
 <defs>
  <style type="text/css">
*{stroke-linecap:butt;stroke-linejoin:round;}
  </style>
 </defs>
 <g id="figure_1">
  <g id="patch_1">
   <path d="M 0 360 
L 360 360 
L 360 0 
L 0 0 
z
" style="fill:#ffffff;"/>
  </g>
  <g id="axes_1">
   <g id="patch_2">
    <path d="M 66.45625 305.2 
L 345.7 305.2 
L 345.7 14.3 
L 66.45625 14.3 
z
" style="fill:#ffffff;"/>
   </g>
   <g id="matplotlib.axis_1">
    <g id="xtick_1">
     <g id="line2d_1">
      <defs>
       <path d="M 0 0 
L 0 3.5 
" id="m0e35af6b9b" style="stroke:#000000;stroke-width:0.8;"/>
      </defs>
      <g>
       <use style="stroke:#000000;stroke-width:0.8;" x="79.149148" xlink:href="#m0e35af6b9b" y="305.2"/>
      </g>
     </g>
     <g id="text_1">
      <!-- $0$ -->
      <defs>
       <path d="M 47.59375 33 
Q 47.59375 26.296875 46.296875 20.34375 
Q 45 14.40625 42.453125 9.40625 
Q 39.90625 4.40625 35.40625 1.5 
Q 30.90625 -1.40625 25 -1.40625 
Q 18.90625 -1.40625 14.296875 1.6875 
Q 9.703125 4.796875 7.203125 10 
Q 4.703125 15.203125 3.546875 21.09375 
Q 2.40625 27 2.40625 33.59375 
Q 2.40625 42.90625 4.703125 50.34375 
Q 7 57.796875 12.34375 62.6875 
Q 17.703125 67.59375 25.40625 67.59375 
Q 35.203125 67.59375 41.390625 58 
Q 47.59375 48.40625 47.59375 33 
z
M 38 32.5 
Q 38 48.296875 34.640625 56.640625 
Q 31.296875 65 24.796875 65 
Q 18.59375 65 15.296875 56.59375 
Q 12 48.203125 12 32.90625 
Q 12 17.5 15.296875 9.34375 
Q 18.59375 1.203125 25 1.203125 
Q 31.296875 1.203125 34.640625 9.34375 
Q 38 17.5 38 32.5 
z
" id="STIXGeneral-Regular-30"/>
      </defs>
      <g transform="translate(75.149148 324.3575)scale(0.16 -0.16)">
       <use transform="translate(0 0.40625)" xlink:href="#STIXGeneral-Regular-30"/>
      </g>
     </g>
    </g>
    <g id="xtick_2">
     <g id="line2d_2">
      <g>
       <use style="stroke:#000000;stroke-width:0.8;" x="333.007102" xlink:href="#m0e35af6b9b" y="305.2"/>
      </g>
     </g>
     <g id="text_2">
      <!-- $R$ -->
      <defs>
       <path d="M 13.203125 65.296875 
L 38.40625 65.296875 
Q 48.09375 65.296875 53.4375 61.5 
Q 58.796875 57.703125 58.796875 51.203125 
Q 58.796875 43.40625 52.203125 38.40625 
Q 48.296875 35.40625 39.09375 33.296875 
L 48 9.796875 
Q 49.703125 5.203125 51.546875 3.390625 
Q 53.40625 1.59375 56.703125 1.59375 
L 56.703125 0 
L 42 0 
L 29.703125 32.40625 
L 23.09375 32.90625 
L 17.59375 12.59375 
Q 16.296875 8 16.296875 6.296875 
Q 16.296875 4 17.59375 3 
Q 18.90625 2 23 1.59375 
L 23 0 
L -1.296875 0 
L -1.296875 1.59375 
Q 2.703125 2.09375 4.34375 3.796875 
Q 6 5.5 7.203125 10.09375 
L 19.09375 53.203125 
Q 20.296875 57.796875 20.296875 59.5 
Q 20.296875 61.296875 18.90625 62.296875 
Q 17.703125 63.09375 13.203125 63.703125 
z
M 30.59375 59.296875 
L 24.296875 36.59375 
Q 27.40625 36.09375 29.40625 36.09375 
Q 38.296875 36.09375 43.296875 40.09375 
Q 48.296875 44.09375 48.296875 51.09375 
Q 48.296875 56.296875 45.1875 59.296875 
Q 42.09375 62.296875 36.296875 62.296875 
Q 31.40625 62.296875 30.59375 59.296875 
z
" id="STIXGeneral-Italic-52"/>
      </defs>
      <g transform="translate(328.047102 324.3575)scale(0.16 -0.16)">
       <use transform="translate(0 0.703125)" xlink:href="#STIXGeneral-Italic-52"/>
      </g>
     </g>
    </g>
    <g id="text_3">
     <!-- $d$ -->
     <defs>
      <path d="M 52.09375 68.296875 
L 52.703125 67.703125 
L 48.796875 52.5 
L 42.796875 30.59375 
Q 36.296875 6.703125 36.296875 6 
Q 36.296875 4 38.09375 4 
Q 39.40625 4 40.84375 5.25 
Q 42.296875 6.5 46.296875 11.09375 
L 47.5 10.09375 
Q 39.796875 -1.296875 32.796875 -1.296875 
Q 30.90625 -1.296875 29.796875 -0.09375 
Q 28.703125 1.09375 28.703125 3.203125 
Q 28.703125 6.203125 30 12.09375 
Q 25.703125 4.796875 21.546875 1.84375 
Q 17.40625 -1.09375 12.203125 -1.09375 
Q 7.203125 -1.09375 4.34375 1.953125 
Q 1.5 5 1.5 10.59375 
Q 1.5 22.5 11.140625 33.296875 
Q 20.796875 44.09375 30.703125 44.09375 
Q 33.796875 44.09375 35.25 42.6875 
Q 36.703125 41.296875 37.203125 38.296875 
L 37.296875 38.296875 
L 41.796875 54.59375 
Q 43.203125 59.5 43.203125 61.703125 
Q 43.203125 63.296875 42.09375 63.6875 
Q 41 64.09375 36.796875 64.296875 
L 36.796875 66 
Q 44.5 66.703125 52.09375 68.296875 
z
M 35.59375 36.09375 
Q 35.59375 38.703125 34.140625 40.25 
Q 32.703125 41.796875 30.90625 41.796875 
Q 26.203125 41.796875 21.796875 37.203125 
Q 16.796875 31.90625 13.5 24.546875 
Q 10.203125 17.203125 10.203125 11 
Q 10.203125 7.59375 11.75 5.640625 
Q 13.296875 3.703125 16 3.703125 
Q 20.5 3.703125 25.09375 8.59375 
Q 29.703125 13.5 32.640625 21.09375 
Q 35.59375 28.703125 35.59375 36.09375 
z
" id="STIXGeneral-Italic-64"/>
     </defs>
     <g transform="translate(201.578125 345.362188)scale(0.18 -0.18)">
      <use transform="translate(0 0.703125)" xlink:href="#STIXGeneral-Italic-64"/>
     </g>
    </g>
   </g>
   <g id="matplotlib.axis_2">
    <g id="ytick_1">
     <g id="line2d_3">
      <defs>
       <path d="M 0 0 
L -3.5 0 
" id="m0e0f6b1db2" style="stroke:#000000;stroke-width:0.8;"/>
      </defs>
      <g>
       <use style="stroke:#000000;stroke-width:0.8;" x="66.45625" xlink:href="#m0e0f6b1db2" y="291.977273"/>
      </g>
     </g>
     <g id="text_4">
      <!-- 0.0 -->
      <defs>
       <path d="M 31.78125 66.40625 
Q 24.171875 66.40625 20.328125 58.90625 
Q 16.5 51.421875 16.5 36.375 
Q 16.5 21.390625 20.328125 13.890625 
Q 24.171875 6.390625 31.78125 6.390625 
Q 39.453125 6.390625 43.28125 13.890625 
Q 47.125 21.390625 47.125 36.375 
Q 47.125 51.421875 43.28125 58.90625 
Q 39.453125 66.40625 31.78125 66.40625 
z
M 31.78125 74.21875 
Q 44.046875 74.21875 50.515625 64.515625 
Q 56.984375 54.828125 56.984375 36.375 
Q 56.984375 17.96875 50.515625 8.265625 
Q 44.046875 -1.421875 31.78125 -1.421875 
Q 19.53125 -1.421875 13.0625 8.265625 
Q 6.59375 17.96875 6.59375 36.375 
Q 6.59375 54.828125 13.0625 64.515625 
Q 19.53125 74.21875 31.78125 74.21875 
z
" id="DejaVuSans-30"/>
       <path d="M 10.6875 12.40625 
L 21 12.40625 
L 21 0 
L 10.6875 0 
z
" id="DejaVuSans-2e"/>
      </defs>
      <g transform="translate(34.01125 298.056023)scale(0.16 -0.16)">
       <use xlink:href="#DejaVuSans-30"/>
       <use x="63.623047" xlink:href="#DejaVuSans-2e"/>
       <use x="95.410156" xlink:href="#DejaVuSans-30"/>
      </g>
     </g>
    </g>
    <g id="ytick_2">
     <g id="line2d_4">
      <g>
       <use style="stroke:#000000;stroke-width:0.8;" x="66.45625" xlink:href="#m0e0f6b1db2" y="239.086364"/>
      </g>
     </g>
     <g id="text_5">
      <!-- 0.2 -->
      <defs>
       <path d="M 19.1875 8.296875 
L 53.609375 8.296875 
L 53.609375 0 
L 7.328125 0 
L 7.328125 8.296875 
Q 12.9375 14.109375 22.625 23.890625 
Q 32.328125 33.6875 34.8125 36.53125 
Q 39.546875 41.84375 41.421875 45.53125 
Q 43.3125 49.21875 43.3125 52.78125 
Q 43.3125 58.59375 39.234375 62.25 
Q 35.15625 65.921875 28.609375 65.921875 
Q 23.96875 65.921875 18.8125 64.3125 
Q 13.671875 62.703125 7.8125 59.421875 
L 7.8125 69.390625 
Q 13.765625 71.78125 18.9375 73 
Q 24.125 74.21875 28.421875 74.21875 
Q 39.75 74.21875 46.484375 68.546875 
Q 53.21875 62.890625 53.21875 53.421875 
Q 53.21875 48.921875 51.53125 44.890625 
Q 49.859375 40.875 45.40625 35.40625 
Q 44.1875 33.984375 37.640625 27.21875 
Q 31.109375 20.453125 19.1875 8.296875 
z
" id="DejaVuSans-32"/>
      </defs>
      <g transform="translate(34.01125 245.165114)scale(0.16 -0.16)">
       <use xlink:href="#DejaVuSans-30"/>
       <use x="63.623047" xlink:href="#DejaVuSans-2e"/>
       <use x="95.410156" xlink:href="#DejaVuSans-32"/>
      </g>
     </g>
    </g>
    <g id="ytick_3">
     <g id="line2d_5">
      <g>
       <use style="stroke:#000000;stroke-width:0.8;" x="66.45625" xlink:href="#m0e0f6b1db2" y="186.195455"/>
      </g>
     </g>
     <g id="text_6">
      <!-- 0.4 -->
      <defs>
       <path d="M 37.796875 64.3125 
L 12.890625 25.390625 
L 37.796875 25.390625 
z
M 35.203125 72.90625 
L 47.609375 72.90625 
L 47.609375 25.390625 
L 58.015625 25.390625 
L 58.015625 17.1875 
L 47.609375 17.1875 
L 47.609375 0 
L 37.796875 0 
L 37.796875 17.1875 
L 4.890625 17.1875 
L 4.890625 26.703125 
z
" id="DejaVuSans-34"/>
      </defs>
      <g transform="translate(34.01125 192.274205)scale(0.16 -0.16)">
       <use xlink:href="#DejaVuSans-30"/>
       <use x="63.623047" xlink:href="#DejaVuSans-2e"/>
       <use x="95.410156" xlink:href="#DejaVuSans-34"/>
      </g>
     </g>
    </g>
    <g id="ytick_4">
     <g id="line2d_6">
      <g>
       <use style="stroke:#000000;stroke-width:0.8;" x="66.45625" xlink:href="#m0e0f6b1db2" y="133.304545"/>
      </g>
     </g>
     <g id="text_7">
      <!-- 0.6 -->
      <defs>
       <path d="M 33.015625 40.375 
Q 26.375 40.375 22.484375 35.828125 
Q 18.609375 31.296875 18.609375 23.390625 
Q 18.609375 15.53125 22.484375 10.953125 
Q 26.375 6.390625 33.015625 6.390625 
Q 39.65625 6.390625 43.53125 10.953125 
Q 47.40625 15.53125 47.40625 23.390625 
Q 47.40625 31.296875 43.53125 35.828125 
Q 39.65625 40.375 33.015625 40.375 
z
M 52.59375 71.296875 
L 52.59375 62.3125 
Q 48.875 64.0625 45.09375 64.984375 
Q 41.3125 65.921875 37.59375 65.921875 
Q 27.828125 65.921875 22.671875 59.328125 
Q 17.53125 52.734375 16.796875 39.40625 
Q 19.671875 43.65625 24.015625 45.921875 
Q 28.375 48.1875 33.59375 48.1875 
Q 44.578125 48.1875 50.953125 41.515625 
Q 57.328125 34.859375 57.328125 23.390625 
Q 57.328125 12.15625 50.6875 5.359375 
Q 44.046875 -1.421875 33.015625 -1.421875 
Q 20.359375 -1.421875 13.671875 8.265625 
Q 6.984375 17.96875 6.984375 36.375 
Q 6.984375 53.65625 15.1875 63.9375 
Q 23.390625 74.21875 37.203125 74.21875 
Q 40.921875 74.21875 44.703125 73.484375 
Q 48.484375 72.75 52.59375 71.296875 
z
" id="DejaVuSans-36"/>
      </defs>
      <g transform="translate(34.01125 139.383295)scale(0.16 -0.16)">
       <use xlink:href="#DejaVuSans-30"/>
       <use x="63.623047" xlink:href="#DejaVuSans-2e"/>
       <use x="95.410156" xlink:href="#DejaVuSans-36"/>
      </g>
     </g>
    </g>
    <g id="ytick_5">
     <g id="line2d_7">
      <g>
       <use style="stroke:#000000;stroke-width:0.8;" x="66.45625" xlink:href="#m0e0f6b1db2" y="80.413636"/>
      </g>
     </g>
     <g id="text_8">
      <!-- 0.8 -->
      <defs>
       <path d="M 31.78125 34.625 
Q 24.75 34.625 20.71875 30.859375 
Q 16.703125 27.09375 16.703125 20.515625 
Q 16.703125 13.921875 20.71875 10.15625 
Q 24.75 6.390625 31.78125 6.390625 
Q 38.8125 6.390625 42.859375 10.171875 
Q 46.921875 13.96875 46.921875 20.515625 
Q 46.921875 27.09375 42.890625 30.859375 
Q 38.875 34.625 31.78125 34.625 
z
M 21.921875 38.8125 
Q 15.578125 40.375 12.03125 44.71875 
Q 8.5 49.078125 8.5 55.328125 
Q 8.5 64.0625 14.71875 69.140625 
Q 20.953125 74.21875 31.78125 74.21875 
Q 42.671875 74.21875 48.875 69.140625 
Q 55.078125 64.0625 55.078125 55.328125 
Q 55.078125 49.078125 51.53125 44.71875 
Q 48 40.375 41.703125 38.8125 
Q 48.828125 37.15625 52.796875 32.3125 
Q 56.78125 27.484375 56.78125 20.515625 
Q 56.78125 9.90625 50.3125 4.234375 
Q 43.84375 -1.421875 31.78125 -1.421875 
Q 19.734375 -1.421875 13.25 4.234375 
Q 6.78125 9.90625 6.78125 20.515625 
Q 6.78125 27.484375 10.78125 32.3125 
Q 14.796875 37.15625 21.921875 38.8125 
z
M 18.3125 54.390625 
Q 18.3125 48.734375 21.84375 45.5625 
Q 25.390625 42.390625 31.78125 42.390625 
Q 38.140625 42.390625 41.71875 45.5625 
Q 45.3125 48.734375 45.3125 54.390625 
Q 45.3125 60.0625 41.71875 63.234375 
Q 38.140625 66.40625 31.78125 66.40625 
Q 25.390625 66.40625 21.84375 63.234375 
Q 18.3125 60.0625 18.3125 54.390625 
z
" id="DejaVuSans-38"/>
      </defs>
      <g transform="translate(34.01125 86.492386)scale(0.16 -0.16)">
       <use xlink:href="#DejaVuSans-30"/>
       <use x="63.623047" xlink:href="#DejaVuSans-2e"/>
       <use x="95.410156" xlink:href="#DejaVuSans-38"/>
      </g>
     </g>
    </g>
    <g id="ytick_6">
     <g id="line2d_8">
      <g>
       <use style="stroke:#000000;stroke-width:0.8;" x="66.45625" xlink:href="#m0e0f6b1db2" y="27.522727"/>
      </g>
     </g>
     <g id="text_9">
      <!-- 1.0 -->
      <defs>
       <path d="M 12.40625 8.296875 
L 28.515625 8.296875 
L 28.515625 63.921875 
L 10.984375 60.40625 
L 10.984375 69.390625 
L 28.421875 72.90625 
L 38.28125 72.90625 
L 38.28125 8.296875 
L 54.390625 8.296875 
L 54.390625 0 
L 12.40625 0 
z
" id="DejaVuSans-31"/>
      </defs>
      <g transform="translate(34.01125 33.601477)scale(0.16 -0.16)">
       <use xlink:href="#DejaVuSans-31"/>
       <use x="63.623047" xlink:href="#DejaVuSans-2e"/>
       <use x="95.410156" xlink:href="#DejaVuSans-30"/>
      </g>
     </g>
    </g>
    <g id="text_10">
     <!-- $k(d)$ -->
     <defs>
      <path d="M 46.09375 42.796875 
L 46.09375 41.203125 
Q 42.5 41 38.5 38.25 
Q 34.5 35.5 23.59375 25.796875 
L 27.296875 17 
Q 32.796875 4.09375 35.40625 4.09375 
Q 37.5 4.09375 39.90625 8.296875 
Q 40.40625 9.09375 41.40625 10.90625 
L 42.90625 9.796875 
Q 39.40625 3.5 37.09375 1.203125 
Q 34.796875 -1.09375 31.796875 -1.09375 
Q 29.59375 -1.09375 27.84375 0.65625 
Q 26.09375 2.40625 23.703125 7.09375 
Q 20.703125 12.90625 17.703125 21.203125 
L 13.703125 18 
L 8.90625 0 
L 1.40625 0 
L 15.5 52.796875 
Q 16.90625 57.796875 17.296875 61.59375 
Q 17 64 12.203125 64 
L 10.40625 64 
L 10.40625 65.59375 
Q 17.90625 66.5 26.09375 68.296875 
L 26.703125 67.703125 
L 14.703125 22.09375 
L 19 25.40625 
Q 33.296875 36.40625 33.296875 39.40625 
Q 33.296875 41.203125 29.59375 41.203125 
L 28.203125 41.203125 
L 28.203125 42.796875 
z
" id="STIXGeneral-Italic-6b"/>
      <path d="M 30.40625 -16.09375 
L 29.203125 -17.703125 
Q 17.59375 -11.09375 11.1875 0.5 
Q 4.796875 12.09375 4.796875 25.203125 
Q 4.796875 52.90625 29.5 67.59375 
L 30.40625 66 
Q 20.203125 57.296875 16.796875 48.84375 
Q 13.40625 40.40625 13.40625 25.5 
Q 13.40625 10.703125 16.90625 1.5 
Q 20.40625 -7.703125 30.40625 -16.09375 
z
" id="STIXGeneral-Regular-28"/>
      <path d="M 2.90625 66 
L 4.09375 67.59375 
Q 15.5 60.796875 22 49.1875 
Q 28.5 37.59375 28.5 24.703125 
Q 28.5 -2.59375 3.796875 -17.703125 
L 2.90625 -16.09375 
Q 13.203125 -7.59375 16.546875 0.84375 
Q 19.90625 9.296875 19.90625 24.40625 
Q 19.90625 39.59375 16.546875 48.75 
Q 13.203125 57.90625 2.90625 66 
z
" id="STIXGeneral-Regular-29"/>
     </defs>
     <g transform="translate(26.267812 174.24)rotate(-90)scale(0.18 -0.18)">
      <use transform="translate(0 0.703125)" xlink:href="#STIXGeneral-Italic-6b"/>
      <use transform="translate(44.399994 0.703125)" xlink:href="#STIXGeneral-Regular-28"/>
      <use transform="translate(77.699982 0.703125)" xlink:href="#STIXGeneral-Italic-64"/>
      <use transform="translate(127.699966 0.703125)" xlink:href="#STIXGeneral-Regular-29"/>
     </g>
    </g>
   </g>
   <g id="line2d_9">
    <path clip-path="url(#p5bdb0907c7)" d="M 79.149148 27.522727 
L 333.007102 27.522727 
L 333.007102 291.977273 
" style="fill:none;stroke:#1f77b4;stroke-linecap:square;stroke-width:1.5;"/>
   </g>
   <g id="line2d_10">
    <path clip-path="url(#p5bdb0907c7)" d="M 79.149148 27.522727 
L 81.713369 30.193985 
L 84.277591 32.865243 
L 86.841813 35.536501 
L 89.406035 38.207759 
L 91.970257 40.879017 
L 94.534478 43.550275 
L 97.0987 46.221534 
L 99.662922 48.892792 
L 102.227144 51.56405 
L 104.791365 54.235308 
L 107.355587 56.906566 
L 109.919809 59.577824 
L 112.484031 62.249082 
L 115.048252 64.92034 
L 117.612474 67.591598 
L 120.176696 70.262856 
L 122.740918 72.934114 
L 125.305139 75.605372 
L 127.869361 78.27663 
L 130.433583 80.947888 
L 132.997805 83.619146 
L 135.562027 86.290404 
L 138.126248 88.961662 
L 140.69047 91.63292 
L 143.254692 94.304178 
L 145.818914 96.975436 
L 148.383135 99.646694 
L 150.947357 102.317952 
L 153.511579 104.98921 
L 156.075801 107.660468 
L 158.640022 110.331726 
L 161.204244 113.002984 
L 163.768466 115.674242 
L 166.332688 118.3455 
L 168.896909 121.016758 
L 171.461131 123.688017 
L 174.025353 126.359275 
L 176.589575 129.030533 
L 179.153796 131.701791 
L 181.718018 134.373049 
L 184.28224 137.044307 
L 186.846462 139.715565 
L 189.410684 142.386823 
L 191.974905 145.058081 
L 194.539127 147.729339 
L 197.103349 150.400597 
L 199.667571 153.071855 
L 202.231792 155.743113 
L 204.796014 158.414371 
L 207.360236 161.085629 
L 209.924458 163.756887 
L 212.488679 166.428145 
L 215.052901 169.099403 
L 217.617123 171.770661 
L 220.181345 174.441919 
L 222.745566 177.113177 
L 225.309788 179.784435 
L 227.87401 182.455693 
L 230.438232 185.126951 
L 233.002454 187.798209 
L 235.566675 190.469467 
L 238.130897 193.140725 
L 240.695119 195.811983 
L 243.259341 198.483242 
L 245.823562 201.1545 
L 248.387784 203.825758 
L 250.952006 206.497016 
L 253.516228 209.168274 
L 256.080449 211.839532 
L 258.644671 214.51079 
L 261.208893 217.182048 
L 263.773115 219.853306 
L 266.337336 222.524564 
L 268.901558 225.195822 
L 271.46578 227.86708 
L 274.030002 230.538338 
L 276.594223 233.209596 
L 279.158445 235.880854 
L 281.722667 238.552112 
L 284.286889 241.22337 
L 286.851111 243.894628 
L 289.415332 246.565886 
L 291.979554 249.237144 
L 294.543776 251.908402 
L 297.107998 254.57966 
L 299.672219 257.250918 
L 302.236441 259.922176 
L 304.800663 262.593434 
L 307.364885 265.264692 
L 309.929106 267.93595 
L 312.493328 270.607208 
L 315.05755 273.278466 
L 317.621772 275.949725 
L 320.185993 278.620983 
L 322.750215 281.292241 
L 325.314437 283.963499 
L 327.878659 286.634757 
L 330.442881 289.306015 
L 333.007102 291.977273 
" style="fill:none;stroke:#ff7f0e;stroke-linecap:square;stroke-width:1.5;"/>
   </g>
   <g id="line2d_11">
    <path clip-path="url(#p5bdb0907c7)" d="M 79.149148 27.522727 
L 81.713369 27.701225 
L 84.277591 28.231011 
L 86.841813 29.103147 
L 89.406035 30.308224 
L 91.970257 31.836381 
L 94.534478 33.677337 
L 97.0987 35.820416 
L 99.662922 38.254572 
L 102.227144 40.968418 
L 104.791365 43.950254 
L 107.355587 47.188088 
L 109.919809 50.66967 
L 112.484031 54.382513 
L 115.048252 58.313922 
L 117.612474 62.451021 
L 120.176696 66.780778 
L 122.740918 71.290034 
L 125.305139 75.965529 
L 127.869361 80.793927 
L 130.433583 85.761845 
L 132.997805 90.855877 
L 135.562027 96.062624 
L 138.126248 101.368719 
L 140.69047 106.760852 
L 143.254692 112.225801 
L 145.818914 117.750454 
L 148.383135 123.321838 
L 150.947357 128.927148 
L 153.511579 134.553767 
L 156.075801 140.189301 
L 158.640022 145.821599 
L 161.204244 151.438783 
L 163.768466 157.029274 
L 166.332688 162.58182 
L 168.896909 168.085519 
L 171.461131 173.529849 
L 174.025353 178.904695 
L 176.589575 184.200373 
L 179.153796 189.407659 
L 181.718018 194.517815 
L 184.28224 199.522614 
L 186.846462 204.41437 
L 189.410684 209.185962 
L 191.974905 213.830863 
L 194.539127 218.343163 
L 197.103349 222.7176 
L 199.667571 226.949584 
L 202.231792 231.035225 
L 204.796014 234.971358 
L 207.360236 238.755572 
L 209.924458 242.386229 
L 212.488679 245.862437 
L 215.052901 249.183991 
L 217.617123 252.351301 
L 220.181345 255.365336 
L 222.745566 258.22757 
L 225.309788 260.939933 
L 227.87401 263.504768 
L 230.438232 265.924786 
L 233.002454 268.20303 
L 235.566675 270.34284 
L 238.130897 272.347822 
L 240.695119 274.221814 
L 243.259341 275.968861 
L 245.823562 277.593187 
L 248.387784 279.099171 
L 250.952006 280.491321 
L 253.516228 281.774256 
L 256.080449 282.952681 
L 258.644671 284.031369 
L 261.208893 285.015143 
L 263.773115 285.908854 
L 266.337336 286.717369 
L 268.901558 287.445549 
L 271.46578 288.098235 
L 274.030002 288.680233 
L 276.594223 289.1963 
L 279.158445 289.651125 
L 281.722667 290.049322 
L 284.286889 290.395407 
L 286.851111 290.693794 
L 289.415332 290.948776 
L 291.979554 291.164512 
L 294.543776 291.345021 
L 297.107998 291.494161 
L 299.672219 291.615622 
L 302.236441 291.712916 
L 304.800663 291.78936 
L 307.364885 291.848068 
L 309.929106 291.891941 
L 312.493328 291.923651 
L 315.05755 291.945637 
L 317.621772 291.960086 
L 320.185993 291.968932 
L 322.750215 291.973835 
L 325.314437 291.976178 
L 327.878659 291.977055 
L 330.442881 291.977259 
L 333.007102 291.977273 
" style="fill:none;stroke:#2ca02c;stroke-linecap:square;stroke-width:1.5;"/>
   </g>
   <g id="patch_3">
    <path d="M 66.45625 305.2 
L 66.45625 14.3 
" style="fill:none;stroke:#000000;stroke-linecap:square;stroke-linejoin:miter;stroke-width:0.8;"/>
   </g>
   <g id="patch_4">
    <path d="M 345.7 305.2 
L 345.7 14.3 
" style="fill:none;stroke:#000000;stroke-linecap:square;stroke-linejoin:miter;stroke-width:0.8;"/>
   </g>
   <g id="patch_5">
    <path d="M 66.45625 305.2 
L 345.7 305.2 
" style="fill:none;stroke:#000000;stroke-linecap:square;stroke-linejoin:miter;stroke-width:0.8;"/>
   </g>
   <g id="patch_6">
    <path d="M 66.45625 14.3 
L 345.7 14.3 
" style="fill:none;stroke:#000000;stroke-linecap:square;stroke-linejoin:miter;stroke-width:0.8;"/>
   </g>
   <g id="legend_1">
    <g id="line2d_12">
     <path d="M 77.25625 252.476875 
L 101.25625 252.476875 
" style="fill:none;stroke:#1f77b4;stroke-linecap:square;stroke-width:1.5;"/>
    </g>
    <g id="line2d_13"/>
    <g id="text_11">
     <!-- Uniform -->
     <defs>
      <path d="M 8.6875 72.90625 
L 18.609375 72.90625 
L 18.609375 28.609375 
Q 18.609375 16.890625 22.84375 11.734375 
Q 27.09375 6.59375 36.625 6.59375 
Q 46.09375 6.59375 50.34375 11.734375 
Q 54.59375 16.890625 54.59375 28.609375 
L 54.59375 72.90625 
L 64.5 72.90625 
L 64.5 27.390625 
Q 64.5 13.140625 57.4375 5.859375 
Q 50.390625 -1.421875 36.625 -1.421875 
Q 22.796875 -1.421875 15.734375 5.859375 
Q 8.6875 13.140625 8.6875 27.390625 
z
" id="DejaVuSans-55"/>
      <path d="M 54.890625 33.015625 
L 54.890625 0 
L 45.90625 0 
L 45.90625 32.71875 
Q 45.90625 40.484375 42.875 44.328125 
Q 39.84375 48.1875 33.796875 48.1875 
Q 26.515625 48.1875 22.3125 43.546875 
Q 18.109375 38.921875 18.109375 30.90625 
L 18.109375 0 
L 9.078125 0 
L 9.078125 54.6875 
L 18.109375 54.6875 
L 18.109375 46.1875 
Q 21.34375 51.125 25.703125 53.5625 
Q 30.078125 56 35.796875 56 
Q 45.21875 56 50.046875 50.171875 
Q 54.890625 44.34375 54.890625 33.015625 
z
" id="DejaVuSans-6e"/>
      <path d="M 9.421875 54.6875 
L 18.40625 54.6875 
L 18.40625 0 
L 9.421875 0 
z
M 9.421875 75.984375 
L 18.40625 75.984375 
L 18.40625 64.59375 
L 9.421875 64.59375 
z
" id="DejaVuSans-69"/>
      <path d="M 37.109375 75.984375 
L 37.109375 68.5 
L 28.515625 68.5 
Q 23.6875 68.5 21.796875 66.546875 
Q 19.921875 64.59375 19.921875 59.515625 
L 19.921875 54.6875 
L 34.71875 54.6875 
L 34.71875 47.703125 
L 19.921875 47.703125 
L 19.921875 0 
L 10.890625 0 
L 10.890625 47.703125 
L 2.296875 47.703125 
L 2.296875 54.6875 
L 10.890625 54.6875 
L 10.890625 58.5 
Q 10.890625 67.625 15.140625 71.796875 
Q 19.390625 75.984375 28.609375 75.984375 
z
" id="DejaVuSans-66"/>
      <path d="M 30.609375 48.390625 
Q 23.390625 48.390625 19.1875 42.75 
Q 14.984375 37.109375 14.984375 27.296875 
Q 14.984375 17.484375 19.15625 11.84375 
Q 23.34375 6.203125 30.609375 6.203125 
Q 37.796875 6.203125 41.984375 11.859375 
Q 46.1875 17.53125 46.1875 27.296875 
Q 46.1875 37.015625 41.984375 42.703125 
Q 37.796875 48.390625 30.609375 48.390625 
z
M 30.609375 56 
Q 42.328125 56 49.015625 48.375 
Q 55.71875 40.765625 55.71875 27.296875 
Q 55.71875 13.875 49.015625 6.21875 
Q 42.328125 -1.421875 30.609375 -1.421875 
Q 18.84375 -1.421875 12.171875 6.21875 
Q 5.515625 13.875 5.515625 27.296875 
Q 5.515625 40.765625 12.171875 48.375 
Q 18.84375 56 30.609375 56 
z
" id="DejaVuSans-6f"/>
      <path d="M 41.109375 46.296875 
Q 39.59375 47.171875 37.8125 47.578125 
Q 36.03125 48 33.890625 48 
Q 26.265625 48 22.1875 43.046875 
Q 18.109375 38.09375 18.109375 28.8125 
L 18.109375 0 
L 9.078125 0 
L 9.078125 54.6875 
L 18.109375 54.6875 
L 18.109375 46.1875 
Q 20.953125 51.171875 25.484375 53.578125 
Q 30.03125 56 36.53125 56 
Q 37.453125 56 38.578125 55.875 
Q 39.703125 55.765625 41.0625 55.515625 
z
" id="DejaVuSans-72"/>
      <path d="M 52 44.1875 
Q 55.375 50.25 60.0625 53.125 
Q 64.75 56 71.09375 56 
Q 79.640625 56 84.28125 50.015625 
Q 88.921875 44.046875 88.921875 33.015625 
L 88.921875 0 
L 79.890625 0 
L 79.890625 32.71875 
Q 79.890625 40.578125 77.09375 44.375 
Q 74.3125 48.1875 68.609375 48.1875 
Q 61.625 48.1875 57.5625 43.546875 
Q 53.515625 38.921875 53.515625 30.90625 
L 53.515625 0 
L 44.484375 0 
L 44.484375 32.71875 
Q 44.484375 40.625 41.703125 44.40625 
Q 38.921875 48.1875 33.109375 48.1875 
Q 26.21875 48.1875 22.15625 43.53125 
Q 18.109375 38.875 18.109375 30.90625 
L 18.109375 0 
L 9.078125 0 
L 9.078125 54.6875 
L 18.109375 54.6875 
L 18.109375 46.1875 
Q 21.1875 51.21875 25.484375 53.609375 
Q 29.78125 56 35.6875 56 
Q 41.65625 56 45.828125 52.96875 
Q 50 49.953125 52 44.1875 
z
" id="DejaVuSans-6d"/>
     </defs>
     <g transform="translate(110.85625 256.676875)scale(0.12 -0.12)">
      <use xlink:href="#DejaVuSans-55"/>
      <use x="73.193359" xlink:href="#DejaVuSans-6e"/>
      <use x="136.572266" xlink:href="#DejaVuSans-69"/>
      <use x="164.355469" xlink:href="#DejaVuSans-66"/>
      <use x="199.560547" xlink:href="#DejaVuSans-6f"/>
      <use x="260.742188" xlink:href="#DejaVuSans-72"/>
      <use x="301.839844" xlink:href="#DejaVuSans-6d"/>
     </g>
    </g>
    <g id="line2d_14">
     <path d="M 77.25625 270.090625 
L 101.25625 270.090625 
" style="fill:none;stroke:#ff7f0e;stroke-linecap:square;stroke-width:1.5;"/>
    </g>
    <g id="line2d_15"/>
    <g id="text_12">
     <!-- Triangular -->
     <defs>
      <path d="M -0.296875 72.90625 
L 61.375 72.90625 
L 61.375 64.59375 
L 35.5 64.59375 
L 35.5 0 
L 25.59375 0 
L 25.59375 64.59375 
L -0.296875 64.59375 
z
" id="DejaVuSans-54"/>
      <path d="M 34.28125 27.484375 
Q 23.390625 27.484375 19.1875 25 
Q 14.984375 22.515625 14.984375 16.5 
Q 14.984375 11.71875 18.140625 8.90625 
Q 21.296875 6.109375 26.703125 6.109375 
Q 34.1875 6.109375 38.703125 11.40625 
Q 43.21875 16.703125 43.21875 25.484375 
L 43.21875 27.484375 
z
M 52.203125 31.203125 
L 52.203125 0 
L 43.21875 0 
L 43.21875 8.296875 
Q 40.140625 3.328125 35.546875 0.953125 
Q 30.953125 -1.421875 24.3125 -1.421875 
Q 15.921875 -1.421875 10.953125 3.296875 
Q 6 8.015625 6 15.921875 
Q 6 25.140625 12.171875 29.828125 
Q 18.359375 34.515625 30.609375 34.515625 
L 43.21875 34.515625 
L 43.21875 35.40625 
Q 43.21875 41.609375 39.140625 45 
Q 35.0625 48.390625 27.6875 48.390625 
Q 23 48.390625 18.546875 47.265625 
Q 14.109375 46.140625 10.015625 43.890625 
L 10.015625 52.203125 
Q 14.9375 54.109375 19.578125 55.046875 
Q 24.21875 56 28.609375 56 
Q 40.484375 56 46.34375 49.84375 
Q 52.203125 43.703125 52.203125 31.203125 
z
" id="DejaVuSans-61"/>
      <path d="M 45.40625 27.984375 
Q 45.40625 37.75 41.375 43.109375 
Q 37.359375 48.484375 30.078125 48.484375 
Q 22.859375 48.484375 18.828125 43.109375 
Q 14.796875 37.75 14.796875 27.984375 
Q 14.796875 18.265625 18.828125 12.890625 
Q 22.859375 7.515625 30.078125 7.515625 
Q 37.359375 7.515625 41.375 12.890625 
Q 45.40625 18.265625 45.40625 27.984375 
z
M 54.390625 6.78125 
Q 54.390625 -7.171875 48.1875 -13.984375 
Q 42 -20.796875 29.203125 -20.796875 
Q 24.46875 -20.796875 20.265625 -20.09375 
Q 16.0625 -19.390625 12.109375 -17.921875 
L 12.109375 -9.1875 
Q 16.0625 -11.328125 19.921875 -12.34375 
Q 23.78125 -13.375 27.78125 -13.375 
Q 36.625 -13.375 41.015625 -8.765625 
Q 45.40625 -4.15625 45.40625 5.171875 
L 45.40625 9.625 
Q 42.625 4.78125 38.28125 2.390625 
Q 33.9375 0 27.875 0 
Q 17.828125 0 11.671875 7.65625 
Q 5.515625 15.328125 5.515625 27.984375 
Q 5.515625 40.671875 11.671875 48.328125 
Q 17.828125 56 27.875 56 
Q 33.9375 56 38.28125 53.609375 
Q 42.625 51.21875 45.40625 46.390625 
L 45.40625 54.6875 
L 54.390625 54.6875 
z
" id="DejaVuSans-67"/>
      <path d="M 8.5 21.578125 
L 8.5 54.6875 
L 17.484375 54.6875 
L 17.484375 21.921875 
Q 17.484375 14.15625 20.5 10.265625 
Q 23.53125 6.390625 29.59375 6.390625 
Q 36.859375 6.390625 41.078125 11.03125 
Q 45.3125 15.671875 45.3125 23.6875 
L 45.3125 54.6875 
L 54.296875 54.6875 
L 54.296875 0 
L 45.3125 0 
L 45.3125 8.40625 
Q 42.046875 3.421875 37.71875 1 
Q 33.40625 -1.421875 27.6875 -1.421875 
Q 18.265625 -1.421875 13.375 4.4375 
Q 8.5 10.296875 8.5 21.578125 
z
M 31.109375 56 
z
" id="DejaVuSans-75"/>
      <path d="M 9.421875 75.984375 
L 18.40625 75.984375 
L 18.40625 0 
L 9.421875 0 
z
" id="DejaVuSans-6c"/>
     </defs>
     <g transform="translate(110.85625 274.290625)scale(0.12 -0.12)">
      <use xlink:href="#DejaVuSans-54"/>
      <use x="60.865234" xlink:href="#DejaVuSans-72"/>
      <use x="101.978516" xlink:href="#DejaVuSans-69"/>
      <use x="129.761719" xlink:href="#DejaVuSans-61"/>
      <use x="191.041016" xlink:href="#DejaVuSans-6e"/>
      <use x="254.419922" xlink:href="#DejaVuSans-67"/>
      <use x="317.896484" xlink:href="#DejaVuSans-75"/>
      <use x="381.275391" xlink:href="#DejaVuSans-6c"/>
      <use x="409.058594" xlink:href="#DejaVuSans-61"/>
      <use x="470.337891" xlink:href="#DejaVuSans-72"/>
     </g>
    </g>
    <g id="line2d_16">
     <path d="M 77.25625 287.704375 
L 101.25625 287.704375 
" style="fill:none;stroke:#2ca02c;stroke-linecap:square;stroke-width:1.5;"/>
    </g>
    <g id="line2d_17"/>
    <g id="text_13">
     <!-- Gaspari &amp; Cohn -->
     <defs>
      <path d="M 59.515625 10.40625 
L 59.515625 29.984375 
L 43.40625 29.984375 
L 43.40625 38.09375 
L 69.28125 38.09375 
L 69.28125 6.78125 
Q 63.578125 2.734375 56.6875 0.65625 
Q 49.8125 -1.421875 42 -1.421875 
Q 24.90625 -1.421875 15.25 8.5625 
Q 5.609375 18.5625 5.609375 36.375 
Q 5.609375 54.25 15.25 64.234375 
Q 24.90625 74.21875 42 74.21875 
Q 49.125 74.21875 55.546875 72.453125 
Q 61.96875 70.703125 67.390625 67.28125 
L 67.390625 56.78125 
Q 61.921875 61.421875 55.765625 63.765625 
Q 49.609375 66.109375 42.828125 66.109375 
Q 29.4375 66.109375 22.71875 58.640625 
Q 16.015625 51.171875 16.015625 36.375 
Q 16.015625 21.625 22.71875 14.15625 
Q 29.4375 6.6875 42.828125 6.6875 
Q 48.046875 6.6875 52.140625 7.59375 
Q 56.25 8.5 59.515625 10.40625 
z
" id="DejaVuSans-47"/>
      <path d="M 44.28125 53.078125 
L 44.28125 44.578125 
Q 40.484375 46.53125 36.375 47.5 
Q 32.28125 48.484375 27.875 48.484375 
Q 21.1875 48.484375 17.84375 46.4375 
Q 14.5 44.390625 14.5 40.28125 
Q 14.5 37.15625 16.890625 35.375 
Q 19.28125 33.59375 26.515625 31.984375 
L 29.59375 31.296875 
Q 39.15625 29.25 43.1875 25.515625 
Q 47.21875 21.78125 47.21875 15.09375 
Q 47.21875 7.46875 41.1875 3.015625 
Q 35.15625 -1.421875 24.609375 -1.421875 
Q 20.21875 -1.421875 15.453125 -0.5625 
Q 10.6875 0.296875 5.421875 2 
L 5.421875 11.28125 
Q 10.40625 8.6875 15.234375 7.390625 
Q 20.0625 6.109375 24.8125 6.109375 
Q 31.15625 6.109375 34.5625 8.28125 
Q 37.984375 10.453125 37.984375 14.40625 
Q 37.984375 18.0625 35.515625 20.015625 
Q 33.0625 21.96875 24.703125 23.78125 
L 21.578125 24.515625 
Q 13.234375 26.265625 9.515625 29.90625 
Q 5.8125 33.546875 5.8125 39.890625 
Q 5.8125 47.609375 11.28125 51.796875 
Q 16.75 56 26.8125 56 
Q 31.78125 56 36.171875 55.265625 
Q 40.578125 54.546875 44.28125 53.078125 
z
" id="DejaVuSans-73"/>
      <path d="M 18.109375 8.203125 
L 18.109375 -20.796875 
L 9.078125 -20.796875 
L 9.078125 54.6875 
L 18.109375 54.6875 
L 18.109375 46.390625 
Q 20.953125 51.265625 25.265625 53.625 
Q 29.59375 56 35.59375 56 
Q 45.5625 56 51.78125 48.09375 
Q 58.015625 40.1875 58.015625 27.296875 
Q 58.015625 14.40625 51.78125 6.484375 
Q 45.5625 -1.421875 35.59375 -1.421875 
Q 29.59375 -1.421875 25.265625 0.953125 
Q 20.953125 3.328125 18.109375 8.203125 
z
M 48.6875 27.296875 
Q 48.6875 37.203125 44.609375 42.84375 
Q 40.53125 48.484375 33.40625 48.484375 
Q 26.265625 48.484375 22.1875 42.84375 
Q 18.109375 37.203125 18.109375 27.296875 
Q 18.109375 17.390625 22.1875 11.75 
Q 26.265625 6.109375 33.40625 6.109375 
Q 40.53125 6.109375 44.609375 11.75 
Q 48.6875 17.390625 48.6875 27.296875 
z
" id="DejaVuSans-70"/>
      <path id="DejaVuSans-20"/>
      <path d="M 24.3125 39.203125 
Q 19.875 35.25 17.796875 31.3125 
Q 15.71875 27.390625 15.71875 23.09375 
Q 15.71875 15.96875 20.890625 11.234375 
Q 26.078125 6.5 33.890625 6.5 
Q 38.53125 6.5 42.578125 8.03125 
Q 46.625 9.578125 50.203125 12.703125 
z
M 31.203125 44.671875 
L 56 19.28125 
Q 58.890625 23.640625 60.5 28.59375 
Q 62.109375 33.546875 62.40625 39.109375 
L 71.484375 39.109375 
Q 70.90625 32.671875 68.359375 26.359375 
Q 65.828125 20.0625 61.28125 13.921875 
L 74.90625 0 
L 62.59375 0 
L 55.609375 7.171875 
Q 50.53125 2.828125 44.96875 0.703125 
Q 39.40625 -1.421875 33.015625 -1.421875 
Q 21.234375 -1.421875 13.765625 5.296875 
Q 6.296875 12.015625 6.296875 22.515625 
Q 6.296875 28.765625 9.5625 34.25 
Q 12.84375 39.75 19.390625 44.578125 
Q 17.046875 47.65625 15.8125 50.703125 
Q 14.59375 53.765625 14.59375 56.6875 
Q 14.59375 64.59375 20.015625 69.40625 
Q 25.4375 74.21875 34.421875 74.21875 
Q 38.484375 74.21875 42.5 73.34375 
Q 46.53125 72.46875 50.6875 70.703125 
L 50.6875 61.8125 
Q 46.4375 64.109375 42.578125 65.296875 
Q 38.71875 66.5 35.40625 66.5 
Q 30.28125 66.5 27.078125 63.78125 
Q 23.875 61.078125 23.875 56.78125 
Q 23.875 54.296875 25.3125 51.78125 
Q 26.765625 49.265625 31.203125 44.671875 
z
" id="DejaVuSans-26"/>
      <path d="M 64.40625 67.28125 
L 64.40625 56.890625 
Q 59.421875 61.53125 53.78125 63.8125 
Q 48.140625 66.109375 41.796875 66.109375 
Q 29.296875 66.109375 22.65625 58.46875 
Q 16.015625 50.828125 16.015625 36.375 
Q 16.015625 21.96875 22.65625 14.328125 
Q 29.296875 6.6875 41.796875 6.6875 
Q 48.140625 6.6875 53.78125 8.984375 
Q 59.421875 11.28125 64.40625 15.921875 
L 64.40625 5.609375 
Q 59.234375 2.09375 53.4375 0.328125 
Q 47.65625 -1.421875 41.21875 -1.421875 
Q 24.65625 -1.421875 15.125 8.703125 
Q 5.609375 18.84375 5.609375 36.375 
Q 5.609375 53.953125 15.125 64.078125 
Q 24.65625 74.21875 41.21875 74.21875 
Q 47.75 74.21875 53.53125 72.484375 
Q 59.328125 70.75 64.40625 67.28125 
z
" id="DejaVuSans-43"/>
      <path d="M 54.890625 33.015625 
L 54.890625 0 
L 45.90625 0 
L 45.90625 32.71875 
Q 45.90625 40.484375 42.875 44.328125 
Q 39.84375 48.1875 33.796875 48.1875 
Q 26.515625 48.1875 22.3125 43.546875 
Q 18.109375 38.921875 18.109375 30.90625 
L 18.109375 0 
L 9.078125 0 
L 9.078125 75.984375 
L 18.109375 75.984375 
L 18.109375 46.1875 
Q 21.34375 51.125 25.703125 53.5625 
Q 30.078125 56 35.796875 56 
Q 45.21875 56 50.046875 50.171875 
Q 54.890625 44.34375 54.890625 33.015625 
z
" id="DejaVuSans-68"/>
     </defs>
     <g transform="translate(110.85625 291.904375)scale(0.12 -0.12)">
      <use xlink:href="#DejaVuSans-47"/>
      <use x="77.490234" xlink:href="#DejaVuSans-61"/>
      <use x="138.769531" xlink:href="#DejaVuSans-73"/>
      <use x="190.869141" xlink:href="#DejaVuSans-70"/>
      <use x="254.345703" xlink:href="#DejaVuSans-61"/>
      <use x="315.625" xlink:href="#DejaVuSans-72"/>
      <use x="356.738281" xlink:href="#DejaVuSans-69"/>
      <use x="384.521484" xlink:href="#DejaVuSans-20"/>
      <use x="416.308594" xlink:href="#DejaVuSans-26"/>
      <use x="494.287109" xlink:href="#DejaVuSans-20"/>
      <use x="526.074219" xlink:href="#DejaVuSans-43"/>
      <use x="595.898438" xlink:href="#DejaVuSans-6f"/>
      <use x="657.080078" xlink:href="#DejaVuSans-68"/>
      <use x="720.458984" xlink:href="#DejaVuSans-6e"/>
     </g>
    </g>
   </g>
  </g>
 </g>
 <defs>
  <clipPath id="p5bdb0907c7">
   <rect height="290.9" width="279.24375" x="66.45625" y="14.3"/>
  </clipPath>
 </defs>
</svg>
