<?xml version="1.0" encoding="utf-8" standalone="no"?>
<!DOCTYPE svg PUBLIC "-//W3C//DTD SVG 1.1//EN"
  "http://www.w3.org/Graphics/SVG/1.1/DTD/svg11.dtd">
<!-- Created with matplotlib (https://matplotlib.org/) -->
<svg height="120pt" version="1.1" viewBox="0 0 360 120" width="360pt" xmlns="http://www.w3.org/2000/svg" xmlns:xlink="http://www.w3.org/1999/xlink">
 <defs>
  <style type="text/css">
*{stroke-linecap:butt;stroke-linejoin:round;}
  </style>
 </defs>
 <g id="figure_1">
  <g id="patch_1">
   <path d="M 0 120 
L 360 120 
L 360 0 
L 0 0 
z
" style="fill:#ffffff;"/>
  </g>
  <g id="axes_1">
   <g id="patch_2">
    <path d="M 29.68 95.12 
L 111.986667 95.12 
L 111.986667 12.9025 
L 29.68 12.9025 
z
" style="fill:#ffffff;"/>
   </g>
   <g id="matplotlib.axis_1">
    <g id="xtick_1">
     <g id="line2d_1">
      <defs>
       <path d="M 0 0 
L 0 3.5 
" id="m5b08bdf004" style="stroke:#000000;stroke-width:0.8;"/>
      </defs>
      <g>
       <use style="stroke:#000000;stroke-width:0.8;" x="33.421212" xlink:href="#m5b08bdf004" y="95.12"/>
      </g>
     </g>
     <g id="text_1">
      <!-- $0$ -->
      <defs>
       <path d="M 25 -2.203125 
Q 12.75 -2.203125 8.328125 7.875 
Q 3.90625 17.96875 3.90625 31.890625 
Q 3.90625 40.578125 5.484375 48.234375 
Q 7.078125 55.90625 11.78125 61.25 
Q 16.5 66.609375 25 66.609375 
Q 31.59375 66.609375 35.78125 63.375 
Q 39.984375 60.15625 42.1875 55.046875 
Q 44.390625 49.953125 45.1875 44.109375 
Q 46 38.28125 46 31.890625 
Q 46 23.296875 44.40625 15.796875 
Q 42.828125 8.296875 38.1875 3.046875 
Q 33.546875 -2.203125 25 -2.203125 
z
M 25 0.390625 
Q 30.5625 0.390625 33.296875 6.09375 
Q 36.03125 11.8125 36.671875 18.75 
Q 37.3125 25.6875 37.3125 33.5 
Q 37.3125 41.015625 36.671875 47.359375 
Q 36.03125 53.71875 33.3125 58.859375 
Q 30.609375 64.015625 25 64.015625 
Q 19.34375 64.015625 16.609375 58.828125 
Q 13.875 53.65625 13.234375 47.328125 
Q 12.59375 41.015625 12.59375 33.5 
Q 12.59375 27.9375 12.859375 23 
Q 13.140625 18.0625 14.3125 12.8125 
Q 15.484375 7.5625 18.09375 3.96875 
Q 20.703125 0.390625 25 0.390625 
z
" id="Cmr10-48"/>
      </defs>
      <g transform="translate(31.921212 106.284375)scale(0.06 -0.06)">
       <use transform="translate(0 0.390625)" xlink:href="#Cmr10-48"/>
      </g>
     </g>
    </g>
    <g id="xtick_2">
     <g id="line2d_2">
      <g>
       <use style="stroke:#000000;stroke-width:0.8;" x="108.245455" xlink:href="#m5b08bdf004" y="95.12"/>
      </g>
     </g>
     <g id="text_2">
      <!-- $r$ -->
      <defs>
       <path d="M 7.71875 1.703125 
Q 7.71875 2.296875 7.8125 2.59375 
L 15.28125 32.421875 
Q 16.015625 35.203125 16.015625 37.3125 
Q 16.015625 41.609375 13.09375 41.609375 
Q 9.96875 41.609375 8.453125 37.859375 
Q 6.9375 34.125 5.515625 28.421875 
Q 5.515625 28.125 5.21875 27.953125 
Q 4.9375 27.78125 4.6875 27.78125 
L 3.515625 27.78125 
Q 3.171875 27.78125 2.921875 28.140625 
Q 2.6875 28.515625 2.6875 28.8125 
Q 3.765625 33.15625 4.765625 36.171875 
Q 5.765625 39.203125 7.890625 41.6875 
Q 10.015625 44.1875 13.1875 44.1875 
Q 16.65625 44.1875 19.265625 42.1875 
Q 21.875 40.1875 22.515625 36.921875 
Q 25.046875 40.234375 28.296875 42.203125 
Q 31.546875 44.1875 35.40625 44.1875 
Q 38.578125 44.1875 40.984375 42.328125 
Q 43.40625 40.484375 43.40625 37.3125 
Q 43.40625 34.765625 41.8125 32.875 
Q 40.234375 31 37.59375 31 
Q 35.984375 31 34.890625 32 
Q 33.796875 33.015625 33.796875 34.625 
Q 33.796875 36.8125 35.40625 38.546875 
Q 37.015625 40.28125 39.109375 40.28125 
Q 37.5 41.609375 35.203125 41.609375 
Q 30.90625 41.609375 27.734375 38.546875 
Q 24.5625 35.5 22.015625 30.8125 
L 14.890625 2.203125 
Q 14.546875 0.828125 13.34375 -0.140625 
Q 12.15625 -1.125 10.6875 -1.125 
Q 9.46875 -1.125 8.59375 -0.34375 
Q 7.71875 0.4375 7.71875 1.703125 
z
" id="Cmmi10-114"/>
      </defs>
      <g transform="translate(106.865455 106.284375)scale(0.06 -0.06)">
       <use transform="translate(0 0.8125)" xlink:href="#Cmmi10-114"/>
      </g>
     </g>
    </g>
    <g id="text_3">
     <!-- $d$ -->
     <defs>
      <path d="M 17.390625 -1.125 
Q 11.078125 -1.125 7.4375 3.640625 
Q 3.8125 8.40625 3.8125 14.890625 
Q 3.8125 21.296875 7.125 28.171875 
Q 10.453125 35.0625 16.09375 39.625 
Q 21.734375 44.1875 28.21875 44.1875 
Q 31.15625 44.1875 33.515625 42.546875 
Q 35.890625 40.921875 37.203125 38.1875 
L 42.828125 60.5 
Q 43.21875 62.203125 43.3125 63.1875 
Q 43.3125 64.796875 36.8125 64.796875 
Q 35.796875 64.796875 35.796875 66.109375 
Q 35.84375 66.359375 36.015625 66.984375 
Q 36.1875 67.625 36.453125 67.96875 
Q 36.71875 68.3125 37.203125 68.3125 
L 50.6875 69.390625 
Q 51.90625 69.390625 51.90625 68.109375 
L 37.5 10.59375 
Q 36.8125 8.9375 36.8125 5.8125 
Q 36.8125 1.515625 39.703125 1.515625 
Q 42.828125 1.515625 44.453125 5.484375 
Q 46.09375 9.46875 47.21875 14.703125 
Q 47.40625 15.28125 48 15.28125 
L 49.21875 15.28125 
Q 49.609375 15.28125 49.84375 14.9375 
Q 50.09375 14.59375 50.09375 14.3125 
Q 48.34375 7.328125 46.265625 3.09375 
Q 44.1875 -1.125 39.5 -1.125 
Q 36.140625 -1.125 33.546875 0.84375 
Q 30.953125 2.828125 30.328125 6.109375 
Q 23.875 -1.125 17.390625 -1.125 
z
M 17.484375 1.515625 
Q 21.09375 1.515625 24.484375 4.21875 
Q 27.875 6.9375 30.328125 10.59375 
Q 30.421875 10.6875 30.421875 10.984375 
L 35.890625 33.015625 
Q 35.296875 36.53125 33.296875 39.0625 
Q 31.296875 41.609375 27.984375 41.609375 
Q 24.609375 41.609375 21.703125 38.84375 
Q 18.796875 36.078125 16.796875 32.328125 
Q 14.84375 28.328125 13.0625 21.34375 
Q 11.28125 14.359375 11.28125 10.5 
Q 11.28125 7.03125 12.765625 4.265625 
Q 14.265625 1.515625 17.484375 1.515625 
z
" id="Cmmi10-100"/>
     </defs>
     <g transform="translate(68.183333 116.389375)scale(0.1 -0.1)">
      <use transform="translate(0 0.609375)" xlink:href="#Cmmi10-100"/>
     </g>
    </g>
   </g>
   <g id="matplotlib.axis_2">
    <g id="ytick_1">
     <g id="line2d_3">
      <defs>
       <path d="M 0 0 
L -3.5 0 
" id="md18656384a" style="stroke:#000000;stroke-width:0.8;"/>
      </defs>
      <g>
       <use style="stroke:#000000;stroke-width:0.8;" x="29.68" xlink:href="#md18656384a" y="91.382841"/>
      </g>
     </g>
     <g id="text_4">
      <!-- 0.0 -->
      <defs>
       <path d="M 48.90625 31.90625 
C 48.90625 42.59375 47.796875 49.09375 44.5 55.5 
C 40.09375 64.296875 32 66.5 26.5 66.5 
C 13.90625 66.5 9.296875 57.09375 7.90625 54.296875 
C 4.296875 47 4.09375 37.09375 4.09375 31.90625 
C 4.09375 25.296875 4.40625 15.203125 9.203125 7.203125 
C 13.796875 -0.203125 21.203125 -2.09375 26.5 -2.09375 
C 31.296875 -2.09375 39.90625 -0.59375 44.90625 9.296875 
C 48.59375 16.5 48.90625 25.40625 48.90625 31.90625 
z
M 40 33.09375 
C 40 27.203125 40 18.203125 38.796875 12.59375 
C 36.703125 2.09375 29.796875 0.703125 26.5 0.703125 
C 23.09375 0.703125 16.203125 2.296875 14.09375 12.796875 
C 13 18.5 13 27.90625 13 33.09375 
C 13 40 13 47 14.09375 52.5 
C 16.203125 62.703125 24 63.703125 26.5 63.703125 
C 29.90625 63.703125 36.796875 62 38.796875 52.90625 
C 40 47.40625 40 39.90625 40 33.09375 
z
" id="LMRoman8-Regular-48"/>
       <path d="M 20.296875 5.5 
C 20.296875 8.90625 17.59375 11.09375 14.796875 11.09375 
C 11.40625 11.09375 9.203125 8.40625 9.203125 5.59375 
C 9.203125 2.203125 11.90625 0 14.703125 0 
C 18.09375 0 20.296875 2.703125 20.296875 5.5 
z
" id="LMRoman8-Regular-46"/>
      </defs>
      <g transform="translate(14.53875 93.465028)scale(0.06 -0.06)">
       <use xlink:href="#LMRoman8-Regular-48"/>
       <use x="53.099991" xlink:href="#LMRoman8-Regular-46"/>
       <use x="82.599976" xlink:href="#LMRoman8-Regular-48"/>
      </g>
     </g>
    </g>
    <g id="ytick_2">
     <g id="line2d_4">
      <g>
       <use style="stroke:#000000;stroke-width:0.8;" x="29.68" xlink:href="#md18656384a" y="76.434205"/>
      </g>
     </g>
     <g id="text_5">
      <!-- 0.2 -->
      <defs>
       <path d="M 47.703125 17.90625 
L 44.59375 17.90625 
C 44.296875 15.90625 43.5 10.90625 42.296875 9 
C 41.703125 8.203125 34.09375 8.203125 32.5 8.203125 
L 14.703125 8.203125 
L 28.203125 20.40625 
C 29.796875 21.90625 34 25.203125 35.59375 26.59375 
C 41.796875 32.296875 47.703125 37.796875 47.703125 46.90625 
C 47.703125 58.796875 37.703125 66.5 25.203125 66.5 
C 13.203125 66.5 5.296875 57.40625 5.296875 48.5 
C 5.296875 43.59375 9.203125 42.90625 10.59375 42.90625 
C 12.703125 42.90625 15.796875 44.40625 15.796875 48.203125 
C 15.796875 53.40625 10.796875 53.40625 9.59375 53.40625 
C 12.5 60.703125 19.203125 63.203125 24.09375 63.203125 
C 33.40625 63.203125 38.203125 55.296875 38.203125 46.90625 
C 38.203125 36.5 30.90625 28.90625 19.09375 16.796875 
L 6.5 3.796875 
C 5.296875 2.703125 5.296875 2.5 5.296875 0 
L 44.796875 0 
z
" id="LMRoman8-Regular-50"/>
      </defs>
      <g transform="translate(14.53875 78.516392)scale(0.06 -0.06)">
       <use xlink:href="#LMRoman8-Regular-48"/>
       <use x="53.099991" xlink:href="#LMRoman8-Regular-46"/>
       <use x="82.599976" xlink:href="#LMRoman8-Regular-50"/>
      </g>
     </g>
    </g>
    <g id="ytick_3">
     <g id="line2d_5">
      <g>
       <use style="stroke:#000000;stroke-width:0.8;" x="29.68" xlink:href="#md18656384a" y="61.485568"/>
      </g>
     </g>
     <g id="text_6">
      <!-- 0.4 -->
      <defs>
       <path d="M 50 16.40625 
L 50 19.703125 
L 39.40625 19.703125 
L 39.40625 64.703125 
C 39.40625 66.703125 39.40625 67.5 37.296875 67.5 
C 36 67.5 35.90625 67.40625 34.90625 66 
L 3 19.703125 
L 3 16.40625 
L 31.203125 16.40625 
L 31.203125 8.09375 
C 31.203125 4.40625 30.90625 3.296875 23.203125 3.296875 
L 20.90625 3.296875 
L 20.90625 0 
L 35.296875 0.296875 
L 49.703125 0 
L 49.703125 3.296875 
L 47.40625 3.296875 
C 39.703125 3.296875 39.40625 4.40625 39.40625 8.09375 
L 39.40625 16.40625 
z
M 31.90625 19.703125 
L 6.5 19.703125 
L 31.90625 56.59375 
z
" id="LMRoman8-Regular-52"/>
      </defs>
      <g transform="translate(14.53875 63.567756)scale(0.06 -0.06)">
       <use xlink:href="#LMRoman8-Regular-48"/>
       <use x="53.099991" xlink:href="#LMRoman8-Regular-46"/>
       <use x="82.599976" xlink:href="#LMRoman8-Regular-52"/>
      </g>
     </g>
    </g>
    <g id="ytick_4">
     <g id="line2d_6">
      <g>
       <use style="stroke:#000000;stroke-width:0.8;" x="29.68" xlink:href="#md18656384a" y="46.536932"/>
      </g>
     </g>
     <g id="text_7">
      <!-- 0.6 -->
      <defs>
       <path d="M 48.59375 20.296875 
C 48.59375 33.40625 38.703125 42.59375 27.59375 42.59375 
C 20.40625 42.59375 16.09375 38 13.796875 33.09375 
C 13.796875 41.40625 14.5 48.703125 18.09375 54.796875 
C 21.09375 59.796875 26.203125 63.90625 32.5 63.90625 
C 34.5 63.90625 39.09375 63.59375 41.40625 60.09375 
C 36.90625 59.90625 36.5 56.5 36.5 55.40625 
C 36.5 52.40625 38.796875 50.703125 41.203125 50.703125 
C 43 50.703125 45.90625 51.796875 45.90625 55.59375 
C 45.90625 61.59375 41.40625 66.5 32.40625 66.5 
C 18.5 66.5 4.40625 53.296875 4.40625 31.703125 
C 4.40625 4.59375 17 -2.09375 26.703125 -2.09375 
C 31.5 -2.09375 36.703125 -0.796875 41.203125 3.5 
C 45.203125 7.40625 48.59375 11.59375 48.59375 20.296875 
z
M 39.203125 20.40625 
C 39.203125 15.296875 39.203125 10.90625 37.203125 7.296875 
C 34.59375 2.703125 31.09375 0.90625 26.703125 0.90625 
C 21.40625 0.90625 18.09375 4.59375 16.59375 7.40625 
C 14.296875 11.90625 14.09375 18.703125 14.09375 22.5 
C 14.09375 32.40625 19.5 39.796875 27.203125 39.796875 
C 32.203125 39.796875 35.203125 37.203125 37.09375 33.703125 
C 39.203125 30 39.203125 25.5 39.203125 20.40625 
z
" id="LMRoman8-Regular-54"/>
      </defs>
      <g transform="translate(14.53875 48.619119)scale(0.06 -0.06)">
       <use xlink:href="#LMRoman8-Regular-48"/>
       <use x="53.099991" xlink:href="#LMRoman8-Regular-46"/>
       <use x="82.599976" xlink:href="#LMRoman8-Regular-54"/>
      </g>
     </g>
    </g>
    <g id="ytick_5">
     <g id="line2d_7">
      <g>
       <use style="stroke:#000000;stroke-width:0.8;" x="29.68" xlink:href="#md18656384a" y="31.588295"/>
      </g>
     </g>
     <g id="text_8">
      <!-- 0.8 -->
      <defs>
       <path d="M 48.59375 16.796875 
C 48.59375 23.09375 45.203125 27.296875 43.59375 29 
C 41.90625 30.59375 41.796875 30.703125 33.203125 36.09375 
C 38.796875 38.796875 45.59375 43.796875 45.59375 51.59375 
C 45.59375 61.09375 35.90625 66.5 26.59375 66.5 
C 16 66.5 7.40625 59.203125 7.40625 49.796875 
C 7.40625 46.09375 8.703125 42.703125 11.203125 39.796875 
C 12.90625 37.703125 13.296875 37.5 19.5 33.59375 
C 7.09375 28.09375 4.40625 20.796875 4.40625 15.203125 
C 4.40625 4.203125 15.5 -2.09375 26.40625 -2.09375 
C 38.703125 -2.09375 48.59375 6.203125 48.59375 16.796875 
z
M 40.59375 51.59375 
C 40.59375 45.796875 36.09375 40.90625 30.203125 38 
L 17.703125 45.5 
C 14.796875 47.203125 12.40625 50.09375 12.40625 53.59375 
C 12.40625 59.90625 19.296875 63.90625 26.40625 63.90625 
C 34.203125 63.90625 40.59375 58.59375 40.59375 51.59375 
z
M 42.90625 13.40625 
C 42.90625 5.703125 34.796875 0.90625 26.59375 0.90625 
C 17.703125 0.90625 10.09375 7 10.09375 15.203125 
C 10.09375 22.703125 15.703125 28.59375 22.59375 31.796875 
L 36.09375 23.5 
C 37.703125 22.59375 42.90625 19.40625 42.90625 13.40625 
z
" id="LMRoman8-Regular-56"/>
      </defs>
      <g transform="translate(14.53875 33.670483)scale(0.06 -0.06)">
       <use xlink:href="#LMRoman8-Regular-48"/>
       <use x="53.099991" xlink:href="#LMRoman8-Regular-46"/>
       <use x="82.599976" xlink:href="#LMRoman8-Regular-56"/>
      </g>
     </g>
    </g>
    <g id="ytick_6">
     <g id="line2d_8">
      <g>
       <use style="stroke:#000000;stroke-width:0.8;" x="29.68" xlink:href="#md18656384a" y="16.639659"/>
      </g>
     </g>
     <g id="text_9">
      <!-- 1.0 -->
      <defs>
       <path d="M 44.703125 0 
L 44.703125 3.296875 
L 41.203125 3.296875 
C 31.703125 3.296875 31.40625 4.5 31.40625 8.203125 
L 31.40625 63.703125 
C 31.40625 66.40625 31.203125 66.5 28.5 66.5 
C 24.40625 62.5 19.09375 60.09375 9.59375 60.09375 
L 9.59375 56.796875 
C 12.296875 56.796875 17.703125 56.796875 23.5 59.5 
L 23.5 8.203125 
C 23.5 4.5 23.203125 3.296875 13.703125 3.296875 
L 10.203125 3.296875 
L 10.203125 0 
C 14.296875 0.296875 22.90625 0.296875 27.40625 0.296875 
C 31.90625 0.296875 40.59375 0.296875 44.703125 0 
z
" id="LMRoman8-Regular-49"/>
      </defs>
      <g transform="translate(14.53875 18.721847)scale(0.06 -0.06)">
       <use xlink:href="#LMRoman8-Regular-49"/>
       <use x="53.099991" xlink:href="#LMRoman8-Regular-46"/>
       <use x="82.599976" xlink:href="#LMRoman8-Regular-48"/>
      </g>
     </g>
    </g>
    <g id="text_10">
     <!-- $\ell_r(d)$ -->
     <defs>
      <path d="M 2.390625 7.421875 
Q 1.953125 7.421875 1.46875 7.953125 
Q 0.984375 8.5 0.984375 8.984375 
Q 0.984375 9.8125 9.28125 17.390625 
Q 9.28125 17.828125 9.25 18.109375 
Q 9.234375 18.40625 9.1875 18.703125 
Q 9.1875 23 9.859375 27.46875 
Q 10.546875 31.9375 11.734375 36.375 
Q 12.9375 40.828125 14.734375 45.65625 
Q 16.546875 50.484375 18.40625 54.109375 
Q 21.625 60.6875 25.4375 65.59375 
Q 29.25 70.515625 33.890625 70.515625 
Q 37.0625 70.515625 38.421875 68.328125 
Q 39.796875 66.15625 39.796875 62.890625 
Q 39.796875 44.578125 15.484375 19.828125 
Q 15.09375 15.53125 15.09375 13.71875 
Q 15.09375 1.21875 20.796875 1.21875 
Q 23.25 1.21875 25.65625 2.515625 
Q 28.078125 3.8125 29.8125 5.328125 
Q 31.546875 6.84375 34.625 9.8125 
Q 34.8125 10.015625 35.203125 10.015625 
Q 35.75 10.015625 36.234375 9.421875 
Q 36.71875 8.84375 36.71875 8.296875 
Q 36.71875 7.953125 36.28125 7.625 
Q 31.84375 3.265625 28.265625 0.875 
Q 24.703125 -1.515625 20.609375 -1.515625 
Q 15.328125 -1.515625 12.765625 3.015625 
Q 10.203125 7.5625 9.515625 13.8125 
Q 6.84375 11.140625 2.984375 7.625 
Q 2.875 7.421875 2.390625 7.421875 
z
M 16.3125 24.609375 
Q 21.625 30.28125 26.265625 36.53125 
Q 30.90625 42.78125 34 49.6875 
Q 37.109375 56.59375 37.109375 63.1875 
Q 37.109375 67.921875 33.796875 67.921875 
Q 30.21875 67.921875 26.5 59.390625 
Q 22.796875 50.875 20.15625 40.96875 
Q 17.53125 31.0625 16.3125 24.609375 
z
" id="Cmmi10-96"/>
      <path d="M 31 -24.8125 
Q 25.4375 -20.40625 21.40625 -14.71875 
Q 17.390625 -9.03125 14.8125 -2.578125 
Q 12.25 3.859375 10.984375 10.890625 
Q 9.71875 17.921875 9.71875 25 
Q 9.71875 32.171875 10.984375 39.203125 
Q 12.25 46.234375 14.859375 52.734375 
Q 17.484375 59.234375 21.53125 64.890625 
Q 25.59375 70.5625 31 74.8125 
Q 31 75 31.5 75 
L 32.421875 75 
Q 32.71875 75 32.953125 74.734375 
Q 33.203125 74.46875 33.203125 74.125 
Q 33.203125 73.6875 33.015625 73.484375 
Q 28.125 68.703125 24.875 63.234375 
Q 21.625 57.765625 19.640625 51.578125 
Q 17.671875 45.40625 16.796875 38.78125 
Q 15.921875 32.171875 15.921875 25 
Q 15.921875 -6.78125 32.90625 -23.296875 
Q 33.203125 -23.578125 33.203125 -24.125 
Q 33.203125 -24.359375 32.9375 -24.671875 
Q 32.671875 -25 32.421875 -25 
L 31.5 -25 
Q 31 -25 31 -24.8125 
z
" id="Cmr10-40"/>
      <path d="M 6.5 -25 
Q 5.609375 -25 5.609375 -24.125 
Q 5.609375 -23.6875 5.8125 -23.484375 
Q 22.90625 -6.78125 22.90625 25 
Q 22.90625 56.78125 6 73.296875 
Q 5.609375 73.53125 5.609375 74.125 
Q 5.609375 74.46875 5.875 74.734375 
Q 6.15625 75 6.5 75 
L 7.421875 75 
Q 7.71875 75 7.90625 74.8125 
Q 15.09375 69.140625 19.875 61.03125 
Q 24.65625 52.9375 26.875 43.75 
Q 29.109375 34.578125 29.109375 25 
Q 29.109375 17.921875 27.90625 11.0625 
Q 26.703125 4.203125 24.09375 -2.453125 
Q 21.484375 -9.125 17.484375 -14.765625 
Q 13.484375 -20.40625 7.90625 -24.8125 
Q 7.71875 -25 7.421875 -25 
z
" id="Cmr10-41"/>
     </defs>
     <g transform="translate(10.03875 64.51125)rotate(-90)scale(0.1 -0.1)">
      <use xlink:href="#Cmmi10-96"/>
      <use transform="translate(41.601562 -17.00625)scale(0.7)" xlink:href="#Cmmi10-114"/>
      <use transform="translate(79.560937 0)" xlink:href="#Cmr10-40"/>
      <use transform="translate(118.379297 0)" xlink:href="#Cmmi10-100"/>
      <use transform="translate(170.38125 0)" xlink:href="#Cmr10-41"/>
     </g>
    </g>
   </g>
   <g id="line2d_9">
    <path clip-path="url(#pd13a86e513)" d="M 33.421212 16.639659 
L 108.245455 16.639659 
L 108.245455 91.382841 
" style="fill:none;stroke:#1f77b4;stroke-linecap:square;stroke-width:0.75;"/>
   </g>
   <g id="patch_3">
    <path d="M 29.68 95.12 
L 29.68 12.9025 
" style="fill:none;stroke:#000000;stroke-linecap:square;stroke-linejoin:miter;stroke-width:0.5;"/>
   </g>
   <g id="patch_4">
    <path d="M 111.986667 95.12 
L 111.986667 12.9025 
" style="fill:none;stroke:#000000;stroke-linecap:square;stroke-linejoin:miter;stroke-width:0.5;"/>
   </g>
   <g id="patch_5">
    <path d="M 29.68 95.12 
L 111.986667 95.12 
" style="fill:none;stroke:#000000;stroke-linecap:square;stroke-linejoin:miter;stroke-width:0.5;"/>
   </g>
   <g id="patch_6">
    <path d="M 29.68 12.9025 
L 111.986667 12.9025 
" style="fill:none;stroke:#000000;stroke-linecap:square;stroke-linejoin:miter;stroke-width:0.5;"/>
   </g>
   <g id="text_11">
    <!-- Uniform -->
    <defs>
     <path d="M 75.09375 65 
L 75.09375 68.296875 
C 70.59375 68 66.09375 68 63.40625 68 
C 60.5 68 56.09375 68 51.59375 68.296875 
L 51.59375 65 
C 61.703125 65 61.703125 60.203125 61.703125 57.59375 
L 61.703125 23.09375 
C 61.703125 9.5 51.5 1.203125 41.296875 1.203125 
C 35.90625 1.203125 23.703125 4.296875 23.703125 22.59375 
L 23.703125 60.203125 
C 23.703125 63.90625 23.90625 65 31.59375 65 
L 33.796875 65 
L 33.796875 68.296875 
L 19.09375 68 
L 4.40625 68.296875 
L 4.40625 65 
L 6.59375 65 
C 14.296875 65 14.5 63.90625 14.5 60.203125 
L 14.5 22.90625 
C 14.5 8.59375 26.90625 -2.09375 41.09375 -2.09375 
C 54.5 -2.09375 65 9.09375 65 22.796875 
L 65 57.59375 
C 65 60.203125 65 65 75.09375 65 
z
" id="LMRoman8-Regular-85"/>
     <path d="M 56.203125 0 
L 56.203125 3.296875 
C 49.796875 3.296875 48.59375 3.296875 48.59375 7.796875 
L 48.59375 30.296875 
C 48.59375 38.703125 44.796875 44.09375 34.296875 44.09375 
C 24.40625 44.09375 19.90625 36.90625 18.703125 34.5 
L 18.59375 34.5 
L 18.59375 44.09375 
L 4.09375 43 
L 4.09375 39.703125 
C 10.90625 39.703125 11.703125 39 11.703125 34.09375 
L 11.703125 7.796875 
C 11.703125 3.296875 10.5 3.296875 4.09375 3.296875 
L 4.09375 0 
C 8.40625 0.296875 12.796875 0.296875 15.5 0.296875 
C 18.40625 0.296875 22.59375 0.296875 26.90625 0 
L 26.90625 3.296875 
C 20.5 3.296875 19.296875 3.296875 19.296875 7.796875 
L 19.296875 25.90625 
C 19.296875 36.40625 27.296875 41.296875 33.40625 41.296875 
C 39.5 41.296875 41 37 41 30.703125 
L 41 7.796875 
C 41 3.296875 39.796875 3.296875 33.40625 3.296875 
L 33.40625 0 
C 37.703125 0.296875 42.09375 0.296875 44.796875 0.296875 
C 47.703125 0.296875 51.90625 0.296875 56.203125 0 
z
" id="LMRoman8-Regular-110"/>
     <path d="M 26 0 
L 26 3.296875 
C 19.5 3.296875 19.09375 3.796875 19.09375 7.703125 
L 19.09375 44.09375 
L 4.5 43 
L 4.5 39.703125 
C 10.90625 39.703125 11.796875 39.09375 11.796875 34.203125 
L 11.796875 7.796875 
C 11.796875 3.296875 10.59375 3.296875 4.203125 3.296875 
L 4.203125 0 
C 8.09375 0.296875 13.703125 0.296875 15.203125 0.296875 
C 16.5 0.296875 22.5 0.296875 26 0 
z
M 20.296875 60.203125 
C 20.296875 63.5 17.703125 65.796875 14.796875 65.796875 
C 11.90625 65.796875 9.296875 63.5 9.296875 60.203125 
C 9.296875 57.296875 11.59375 54.703125 14.796875 54.703125 
C 17.90625 54.703125 20.296875 57.296875 20.296875 60.203125 
z
" id="LMRoman8-Regular-105"/>
     <path d="M 37.703125 63.203125 
C 37.703125 67.5 33.5 70.40625 28.203125 70.40625 
C 20.703125 70.40625 11.796875 65 11.796875 54.296875 
L 11.796875 43.09375 
L 3.59375 43.09375 
L 3.59375 39.796875 
L 11.796875 39.796875 
L 11.796875 7.796875 
C 11.796875 3.296875 10.59375 3.296875 4.203125 3.296875 
L 4.203125 0 
C 8.09375 0.296875 13.59375 0.296875 16 0.296875 
C 21.90625 0.296875 22.09375 0.296875 28.59375 0 
L 28.59375 3.296875 
L 26.59375 3.296875 
C 19.296875 3.296875 19.09375 4.40625 19.09375 8 
L 19.09375 39.796875 
L 31.09375 39.796875 
L 31.09375 43.09375 
L 18.796875 43.09375 
L 18.796875 54.40625 
C 18.796875 63.09375 23.703125 67.59375 28.09375 67.59375 
C 29.703125 67.59375 30.59375 67.203125 31 67.09375 
C 29.203125 66.203125 28.703125 64.5 28.703125 63.203125 
C 28.703125 60.59375 30.59375 58.703125 33.203125 58.703125 
C 35.90625 58.703125 37.703125 60.59375 37.703125 63.203125 
z
" id="LMRoman8-Regular-102"/>
     <path d="M 50 21.296875 
C 50 33.796875 39.703125 44.59375 26.5 44.59375 
C 13.296875 44.59375 3 33.796875 3 21.296875 
C 3 8.796875 13.703125 -1 26.5 -1 
C 39.40625 -1 50 8.796875 50 21.296875 
z
M 41.09375 22.203125 
C 41.09375 17.59375 40.90625 12.09375 38.09375 7.90625 
C 35.40625 3.90625 30.90625 2.09375 26.5 2.09375 
C 21.09375 2.09375 16.90625 4.703125 14.703125 8.203125 
C 12.203125 12.296875 11.90625 17.203125 11.90625 22.203125 
C 11.90625 26 11.90625 32 15 36.296875 
C 17.59375 39.796875 21.796875 41.796875 26.5 41.796875 
C 31.703125 41.796875 36 39.296875 38.296875 35.796875 
C 41 31.59375 41.09375 26.203125 41.09375 22.203125 
z
" id="LMRoman8-Regular-111"/>
     <path d="M 38.40625 37.796875 
C 38.40625 41.296875 35.203125 44.09375 30.796875 44.09375 
C 24.296875 44.09375 19.90625 39.203125 17.796875 33.59375 
L 17.703125 33.59375 
L 17.703125 44.09375 
L 3.5 43 
L 3.5 39.703125 
C 10.296875 39.703125 11.09375 39 11.09375 34.09375 
L 11.09375 7.796875 
C 11.09375 3.296875 9.90625 3.296875 3.5 3.296875 
L 3.5 0 
C 7.40625 0.296875 12.90625 0.296875 15.296875 0.296875 
C 21.203125 0.296875 21.40625 0.296875 27.90625 0 
L 27.90625 3.296875 
L 25.90625 3.296875 
C 18.59375 3.296875 18.40625 4.40625 18.40625 8 
L 18.40625 22.796875 
C 18.40625 30.296875 21.5 41.09375 31.09375 41.296875 
C 30.5 40.90625 29.5 40.09375 29.5 37.796875 
C 29.5 34.703125 31.90625 33.296875 33.90625 33.296875 
C 36.296875 33.296875 38.40625 34.90625 38.40625 37.796875 
z
" id="LMRoman8-Regular-114"/>
     <path d="M 85.703125 0 
L 85.703125 3.296875 
C 79.296875 3.296875 78.09375 3.296875 78.09375 7.796875 
L 78.09375 30.296875 
C 78.09375 38.40625 74.59375 44.09375 63.703125 44.09375 
C 54.5 44.09375 49.90625 37.796875 48.296875 34.90625 
C 46.5 42.09375 40.796875 44.09375 34.296875 44.09375 
C 24.59375 44.09375 20 37.203125 18.703125 34.5 
L 18.59375 34.5 
L 18.59375 44.09375 
L 4.09375 43 
L 4.09375 39.703125 
C 10.90625 39.703125 11.703125 39 11.703125 34.09375 
L 11.703125 7.796875 
C 11.703125 3.296875 10.5 3.296875 4.09375 3.296875 
L 4.09375 0 
C 8.40625 0.296875 12.796875 0.296875 15.5 0.296875 
C 18.40625 0.296875 22.59375 0.296875 26.90625 0 
L 26.90625 3.296875 
C 20.5 3.296875 19.296875 3.296875 19.296875 7.796875 
L 19.296875 25.90625 
C 19.296875 36.40625 27.203125 41.296875 33.5 41.296875 
C 40 41.296875 41.09375 36.203125 41.09375 30.703125 
L 41.09375 7.796875 
C 41.09375 3.296875 39.90625 3.296875 33.5 3.296875 
L 33.5 0 
C 37.796875 0.296875 42.203125 0.296875 44.90625 0.296875 
C 47.796875 0.296875 52 0.296875 56.296875 0 
L 56.296875 3.296875 
C 49.90625 3.296875 48.703125 3.296875 48.703125 7.796875 
L 48.703125 25.90625 
C 48.703125 36.40625 56.59375 41.296875 62.90625 41.296875 
C 69.40625 41.296875 70.5 36.203125 70.5 30.703125 
L 70.5 7.796875 
C 70.5 3.296875 69.296875 3.296875 62.90625 3.296875 
L 62.90625 0 
C 67.203125 0.296875 71.59375 0.296875 74.296875 0.296875 
C 77.203125 0.296875 81.40625 0.296875 85.703125 0 
z
" id="LMRoman8-Regular-109"/>
    </defs>
    <g transform="translate(55.489583 6.9025)scale(0.08 -0.08)">
     <use xlink:href="#LMRoman8-Regular-85"/>
     <use x="79.599991" xlink:href="#LMRoman8-Regular-110"/>
     <use x="138.599976" xlink:href="#LMRoman8-Regular-105"/>
     <use x="168.09996" xlink:href="#LMRoman8-Regular-102"/>
     <use x="200.599945" xlink:href="#LMRoman8-Regular-111"/>
     <use x="253.699936" xlink:href="#LMRoman8-Regular-114"/>
     <use x="295.09993" xlink:href="#LMRoman8-Regular-109"/>
    </g>
   </g>
  </g>
  <g id="axes_2">
   <g id="patch_7">
    <path d="M 152.346667 95.12 
L 234.653333 95.12 
L 234.653333 12.9025 
L 152.346667 12.9025 
z
" style="fill:#ffffff;"/>
   </g>
   <g id="matplotlib.axis_3">
    <g id="xtick_3">
     <g id="line2d_10">
      <g>
       <use style="stroke:#000000;stroke-width:0.8;" x="156.087879" xlink:href="#m5b08bdf004" y="95.12"/>
      </g>
     </g>
     <g id="text_12">
      <!-- $0$ -->
      <g transform="translate(154.587879 106.284375)scale(0.06 -0.06)">
       <use transform="translate(0 0.390625)" xlink:href="#Cmr10-48"/>
      </g>
     </g>
    </g>
    <g id="xtick_4">
     <g id="line2d_11">
      <g>
       <use style="stroke:#000000;stroke-width:0.8;" x="230.912121" xlink:href="#m5b08bdf004" y="95.12"/>
      </g>
     </g>
     <g id="text_13">
      <!-- $r$ -->
      <g transform="translate(229.532121 106.284375)scale(0.06 -0.06)">
       <use transform="translate(0 0.8125)" xlink:href="#Cmmi10-114"/>
      </g>
     </g>
    </g>
    <g id="text_14">
     <!-- $d$ -->
     <g transform="translate(190.85 116.389375)scale(0.1 -0.1)">
      <use transform="translate(0 0.609375)" xlink:href="#Cmmi10-100"/>
     </g>
    </g>
   </g>
   <g id="matplotlib.axis_4">
    <g id="ytick_7">
     <g id="line2d_12">
      <g>
       <use style="stroke:#000000;stroke-width:0.8;" x="152.346667" xlink:href="#md18656384a" y="91.382841"/>
      </g>
     </g>
     <g id="text_15">
      <!-- 0.0 -->
      <g transform="translate(137.205417 93.465028)scale(0.06 -0.06)">
       <use xlink:href="#LMRoman8-Regular-48"/>
       <use x="53.099991" xlink:href="#LMRoman8-Regular-46"/>
       <use x="82.599976" xlink:href="#LMRoman8-Regular-48"/>
      </g>
     </g>
    </g>
    <g id="ytick_8">
     <g id="line2d_13">
      <g>
       <use style="stroke:#000000;stroke-width:0.8;" x="152.346667" xlink:href="#md18656384a" y="76.434205"/>
      </g>
     </g>
     <g id="text_16">
      <!-- 0.2 -->
      <g transform="translate(137.205417 78.516392)scale(0.06 -0.06)">
       <use xlink:href="#LMRoman8-Regular-48"/>
       <use x="53.099991" xlink:href="#LMRoman8-Regular-46"/>
       <use x="82.599976" xlink:href="#LMRoman8-Regular-50"/>
      </g>
     </g>
    </g>
    <g id="ytick_9">
     <g id="line2d_14">
      <g>
       <use style="stroke:#000000;stroke-width:0.8;" x="152.346667" xlink:href="#md18656384a" y="61.485568"/>
      </g>
     </g>
     <g id="text_17">
      <!-- 0.4 -->
      <g transform="translate(137.205417 63.567756)scale(0.06 -0.06)">
       <use xlink:href="#LMRoman8-Regular-48"/>
       <use x="53.099991" xlink:href="#LMRoman8-Regular-46"/>
       <use x="82.599976" xlink:href="#LMRoman8-Regular-52"/>
      </g>
     </g>
    </g>
    <g id="ytick_10">
     <g id="line2d_15">
      <g>
       <use style="stroke:#000000;stroke-width:0.8;" x="152.346667" xlink:href="#md18656384a" y="46.536932"/>
      </g>
     </g>
     <g id="text_18">
      <!-- 0.6 -->
      <g transform="translate(137.205417 48.619119)scale(0.06 -0.06)">
       <use xlink:href="#LMRoman8-Regular-48"/>
       <use x="53.099991" xlink:href="#LMRoman8-Regular-46"/>
       <use x="82.599976" xlink:href="#LMRoman8-Regular-54"/>
      </g>
     </g>
    </g>
    <g id="ytick_11">
     <g id="line2d_16">
      <g>
       <use style="stroke:#000000;stroke-width:0.8;" x="152.346667" xlink:href="#md18656384a" y="31.588295"/>
      </g>
     </g>
     <g id="text_19">
      <!-- 0.8 -->
      <g transform="translate(137.205417 33.670483)scale(0.06 -0.06)">
       <use xlink:href="#LMRoman8-Regular-48"/>
       <use x="53.099991" xlink:href="#LMRoman8-Regular-46"/>
       <use x="82.599976" xlink:href="#LMRoman8-Regular-56"/>
      </g>
     </g>
    </g>
    <g id="ytick_12">
     <g id="line2d_17">
      <g>
       <use style="stroke:#000000;stroke-width:0.8;" x="152.346667" xlink:href="#md18656384a" y="16.639659"/>
      </g>
     </g>
     <g id="text_20">
      <!-- 1.0 -->
      <g transform="translate(137.205417 18.721847)scale(0.06 -0.06)">
       <use xlink:href="#LMRoman8-Regular-49"/>
       <use x="53.099991" xlink:href="#LMRoman8-Regular-46"/>
       <use x="82.599976" xlink:href="#LMRoman8-Regular-48"/>
      </g>
     </g>
    </g>
    <g id="text_21">
     <!-- $\ell_r(d)$ -->
     <g transform="translate(132.705417 64.51125)rotate(-90)scale(0.1 -0.1)">
      <use xlink:href="#Cmmi10-96"/>
      <use transform="translate(41.601562 -17.00625)scale(0.7)" xlink:href="#Cmmi10-114"/>
      <use transform="translate(79.560937 0)" xlink:href="#Cmr10-40"/>
      <use transform="translate(118.379297 0)" xlink:href="#Cmmi10-100"/>
      <use transform="translate(170.38125 0)" xlink:href="#Cmr10-41"/>
     </g>
    </g>
   </g>
   <g id="line2d_18">
    <path clip-path="url(#p6babff0fe0)" d="M 156.087879 16.639659 
L 156.843679 17.394641 
L 157.59948 18.149622 
L 158.35528 18.904604 
L 159.111081 19.659586 
L 159.866881 20.414567 
L 160.622681 21.169549 
L 161.378482 21.924531 
L 162.134282 22.679512 
L 162.890083 23.434494 
L 163.645883 24.189475 
L 164.401684 24.944457 
L 165.157484 25.699439 
L 165.913284 26.45442 
L 166.669085 27.209402 
L 167.424885 27.964384 
L 168.180686 28.719365 
L 168.936486 29.474347 
L 169.692287 30.229329 
L 170.448087 30.98431 
L 171.203887 31.739292 
L 171.959688 32.494273 
L 172.715488 33.249255 
L 173.471289 34.004237 
L 174.227089 34.759218 
L 174.98289 35.5142 
L 175.73869 36.269182 
L 176.49449 37.024163 
L 177.250291 37.779145 
L 178.006091 38.534126 
L 178.761892 39.289108 
L 179.517692 40.04409 
L 180.273493 40.799071 
L 181.029293 41.554053 
L 181.785093 42.309035 
L 182.540894 43.064016 
L 183.296694 43.818998 
L 184.052495 44.57398 
L 184.808295 45.328961 
L 185.564096 46.083943 
L 186.319896 46.838924 
L 187.075696 47.593906 
L 187.831497 48.348888 
L 188.587297 49.103869 
L 189.343098 49.858851 
L 190.098898 50.613833 
L 190.854699 51.368814 
L 191.610499 52.123796 
L 192.366299 52.878778 
L 193.1221 53.633759 
L 193.8779 54.388741 
L 194.633701 55.143722 
L 195.389501 55.898704 
L 196.145301 56.653686 
L 196.901102 57.408667 
L 197.656902 58.163649 
L 198.412703 58.918631 
L 199.168503 59.673612 
L 199.924304 60.428594 
L 200.680104 61.183576 
L 201.435904 61.938557 
L 202.191705 62.693539 
L 202.947505 63.44852 
L 203.703306 64.203502 
L 204.459106 64.958484 
L 205.214907 65.713465 
L 205.970707 66.468447 
L 206.726507 67.223429 
L 207.482308 67.97841 
L 208.238108 68.733392 
L 208.993909 69.488374 
L 209.749709 70.243355 
L 210.50551 70.998337 
L 211.26131 71.753318 
L 212.01711 72.5083 
L 212.772911 73.263282 
L 213.528711 74.018263 
L 214.284512 74.773245 
L 215.040312 75.528227 
L 215.796113 76.283208 
L 216.551913 77.03819 
L 217.307713 77.793171 
L 218.063514 78.548153 
L 218.819314 79.303135 
L 219.575115 80.058116 
L 220.330915 80.813098 
L 221.086716 81.56808 
L 221.842516 82.323061 
L 222.598316 83.078043 
L 223.354117 83.833025 
L 224.109917 84.588006 
L 224.865718 85.342988 
L 225.621518 86.097969 
L 226.377319 86.852951 
L 227.133119 87.607933 
L 227.888919 88.362914 
L 228.64472 89.117896 
L 229.40052 89.872878 
L 230.156321 90.627859 
L 230.912121 91.382841 
" style="fill:none;stroke:#1f77b4;stroke-linecap:square;stroke-width:0.75;"/>
   </g>
   <g id="patch_8">
    <path d="M 152.346667 95.12 
L 152.346667 12.9025 
" style="fill:none;stroke:#000000;stroke-linecap:square;stroke-linejoin:miter;stroke-width:0.5;"/>
   </g>
   <g id="patch_9">
    <path d="M 234.653333 95.12 
L 234.653333 12.9025 
" style="fill:none;stroke:#000000;stroke-linecap:square;stroke-linejoin:miter;stroke-width:0.5;"/>
   </g>
   <g id="patch_10">
    <path d="M 152.346667 95.12 
L 234.653333 95.12 
" style="fill:none;stroke:#000000;stroke-linecap:square;stroke-linejoin:miter;stroke-width:0.5;"/>
   </g>
   <g id="patch_11">
    <path d="M 152.346667 12.9025 
L 234.653333 12.9025 
" style="fill:none;stroke:#000000;stroke-linecap:square;stroke-linejoin:miter;stroke-width:0.5;"/>
   </g>
   <g id="text_22">
    <!-- Triangular -->
    <defs>
     <path d="M 72.796875 44.90625 
L 70.796875 67.59375 
L 5.796875 67.59375 
L 3.796875 44.90625 
L 6.90625 44.90625 
C 8.296875 61.796875 10.59375 64.296875 25.90625 64.296875 
C 27.796875 64.296875 30.90625 64.296875 31.703125 64.09375 
C 33.59375 63.703125 33.703125 62.703125 33.703125 60.203125 
L 33.703125 8.203125 
C 33.703125 4.703125 33.703125 3.296875 23.296875 3.296875 
L 19.5 3.296875 
L 19.5 0 
C 23.203125 0.296875 34 0.296875 38.296875 0.296875 
C 42.59375 0.296875 53.40625 0.296875 57.09375 0 
L 57.09375 3.296875 
L 53.296875 3.296875 
C 42.90625 3.296875 42.90625 4.703125 42.90625 8.203125 
L 42.90625 60.203125 
C 42.90625 62.5 42.90625 63.703125 45 64.09375 
C 45.90625 64.296875 48.796875 64.296875 50.703125 64.296875 
C 66 64.296875 68.296875 61.796875 69.703125 44.90625 
z
" id="LMRoman8-Regular-84"/>
     <path d="M 51.40625 9 
L 51.40625 14.5 
L 48.296875 14.5 
L 48.296875 9 
C 48.296875 4.90625 46.796875 3.296875 44.703125 3.296875 
C 41 3.296875 41 7.90625 41 9 
L 41 29.796875 
C 41 39.59375 31.5 44.59375 22.40625 44.59375 
C 14.09375 44.59375 6.703125 41.40625 6.703125 34.796875 
C 6.703125 31.796875 8.796875 30 11.40625 30 
C 14.203125 30 16.09375 32 16.09375 34.703125 
C 16.09375 37.09375 14.59375 38.796875 12.40625 39.296875 
C 16.09375 41.796875 21.5 41.796875 22.203125 41.796875 
C 27.796875 41.796875 33.40625 37.90625 33.40625 29.703125 
L 33.40625 26.59375 
C 27.59375 26.296875 20.90625 26 13.90625 23.09375 
C 5.09375 19.296875 3.40625 13.5 3.40625 10.203125 
C 3.40625 1.59375 13.5 -1 20.40625 -1 
C 27.703125 -1 32.203125 3.09375 34.40625 7.09375 
C 34.90625 3.296875 37.5 -0.5 41.90625 -0.5 
C 42.90625 -0.5 51.40625 -0.09375 51.40625 9 
z
M 33.40625 14.09375 
C 33.40625 4.40625 25.203125 1.796875 21.203125 1.796875 
C 16 1.796875 11.59375 5.296875 11.59375 10.09375 
C 11.59375 16.703125 17.796875 23.5 33.40625 24 
z
" id="LMRoman8-Regular-97"/>
     <path d="M 51.5 40.09375 
C 51.5 41.796875 50.203125 45.203125 45.796875 45.203125 
C 44.09375 45.203125 39.296875 44.796875 34.703125 40.59375 
C 32.203125 42.40625 28.296875 44.09375 23.59375 44.09375 
C 13.703125 44.09375 6.40625 37.203125 6.40625 29.40625 
C 6.40625 24.703125 9 21.203125 11.09375 19.203125 
C 8.90625 16.703125 8.09375 13.5 8.09375 11.09375 
C 8.09375 7 10.09375 3.90625 12.296875 2.203125 
C 7.09375 0.796875 3 -3.09375 3 -7.703125 
C 3 -14.90625 13.296875 -20.5 26.5 -20.5 
C 39 -20.5 50 -15.40625 50 -7.5 
C 50 -2.09375 46.796875 2.09375 43.5 3.796875 
C 37.59375 6.90625 32.703125 6.90625 22.90625 6.90625 
L 17.296875 6.90625 
C 14.203125 7.203125 11.703125 9.90625 11.703125 13.5 
C 11.703125 15.90625 12.296875 16.796875 13 17.703125 
C 17.203125 15.203125 21.09375 14.703125 23.5 14.703125 
C 33.40625 14.703125 40.703125 21.59375 40.703125 29.40625 
C 40.703125 33.203125 39 36.40625 36.59375 39 
C 38 40.203125 41.296875 42.296875 46.203125 42.40625 
C 45.796875 42.09375 45.296875 41.59375 45.296875 40 
C 45.296875 38.203125 46.59375 36.90625 48.40625 36.90625 
C 49.796875 36.90625 51.5 37.796875 51.5 40.09375 
z
M 32.796875 29.40625 
C 32.796875 25.703125 32.296875 23.09375 30.796875 21.09375 
C 28.59375 18.296875 25.40625 17.59375 23.59375 17.59375 
C 14.296875 17.59375 14.296875 27.203125 14.296875 29.40625 
C 14.296875 33.09375 14.796875 35.703125 16.296875 37.703125 
C 18 40 20.796875 41.203125 23.5 41.203125 
C 32.796875 41.203125 32.796875 31.59375 32.796875 29.40625 
z
M 44.09375 -7.59375 
C 44.09375 -13 36.40625 -17.59375 26.5 -17.59375 
C 16.5 -17.59375 8.90625 -13 8.90625 -7.59375 
C 8.90625 -5.5 10.5 0.40625 18.703125 0.40625 
L 28.296875 0.40625 
C 31 0.40625 44.09375 0.40625 44.09375 -7.59375 
z
" id="LMRoman8-Regular-103"/>
     <path d="M 56.203125 0 
L 56.203125 3.296875 
C 49.40625 3.296875 48.59375 4 48.59375 8.90625 
L 48.59375 44.09375 
L 33.40625 43 
L 33.40625 39.703125 
C 40.203125 39.703125 41 39 41 34.09375 
L 41 16.703125 
C 41 8.09375 35.796875 1.796875 28.296875 1.796875 
C 19.703125 1.796875 19.296875 6.09375 19.296875 11.09375 
L 19.296875 44.09375 
L 4.09375 43 
L 4.09375 39.703125 
C 11.703125 39.703125 11.703125 39.40625 11.703125 30.5 
L 11.703125 15.5 
C 11.703125 8.296875 11.703125 -1 27.703125 -1 
C 37.09375 -1 40.703125 6.203125 41.203125 7.09375 
L 41.296875 7.09375 
L 41.296875 -1 
z
" id="LMRoman8-Regular-117"/>
     <path d="M 26.703125 0 
L 26.703125 3.296875 
C 20.296875 3.296875 19.09375 3.296875 19.09375 7.796875 
L 19.09375 69.40625 
L 4.203125 68.296875 
L 4.203125 65 
C 11 65 11.796875 64.296875 11.796875 59.40625 
L 11.796875 7.796875 
C 11.796875 3.296875 10.59375 3.296875 4.203125 3.296875 
L 4.203125 0 
C 8.09375 0.296875 13.703125 0.296875 15.40625 0.296875 
C 17.40625 0.296875 22.796875 0.296875 26.703125 0 
z
" id="LMRoman8-Regular-108"/>
    </defs>
    <g transform="translate(173.668125 6.9025)scale(0.08 -0.08)">
     <use xlink:href="#LMRoman8-Regular-84"/>
     <use x="76.699982" xlink:href="#LMRoman8-Regular-114"/>
     <use x="118.099976" xlink:href="#LMRoman8-Regular-105"/>
     <use x="147.59996" xlink:href="#LMRoman8-Regular-97"/>
     <use x="200.699951" xlink:href="#LMRoman8-Regular-110"/>
     <use x="259.699936" xlink:href="#LMRoman8-Regular-103"/>
     <use x="312.799927" xlink:href="#LMRoman8-Regular-117"/>
     <use x="371.799911" xlink:href="#LMRoman8-Regular-108"/>
     <use x="401.299896" xlink:href="#LMRoman8-Regular-97"/>
     <use x="454.399887" xlink:href="#LMRoman8-Regular-114"/>
    </g>
   </g>
  </g>
  <g id="axes_3">
   <g id="patch_12">
    <path d="M 275.013333 95.12 
L 357.32 95.12 
L 357.32 12.9025 
L 275.013333 12.9025 
z
" style="fill:#ffffff;"/>
   </g>
   <g id="matplotlib.axis_5">
    <g id="xtick_5">
     <g id="line2d_19">
      <g>
       <use style="stroke:#000000;stroke-width:0.8;" x="278.754545" xlink:href="#m5b08bdf004" y="95.12"/>
      </g>
     </g>
     <g id="text_23">
      <!-- $0$ -->
      <g transform="translate(277.254545 106.284375)scale(0.06 -0.06)">
       <use transform="translate(0 0.390625)" xlink:href="#Cmr10-48"/>
      </g>
     </g>
    </g>
    <g id="xtick_6">
     <g id="line2d_20">
      <g>
       <use style="stroke:#000000;stroke-width:0.8;" x="353.578788" xlink:href="#m5b08bdf004" y="95.12"/>
      </g>
     </g>
     <g id="text_24">
      <!-- $r$ -->
      <g transform="translate(352.198788 106.284375)scale(0.06 -0.06)">
       <use transform="translate(0 0.8125)" xlink:href="#Cmmi10-114"/>
      </g>
     </g>
    </g>
    <g id="text_25">
     <!-- $d$ -->
     <g transform="translate(313.516667 116.389375)scale(0.1 -0.1)">
      <use transform="translate(0 0.609375)" xlink:href="#Cmmi10-100"/>
     </g>
    </g>
   </g>
   <g id="matplotlib.axis_6">
    <g id="ytick_13">
     <g id="line2d_21">
      <g>
       <use style="stroke:#000000;stroke-width:0.8;" x="275.013333" xlink:href="#md18656384a" y="91.382841"/>
      </g>
     </g>
     <g id="text_26">
      <!-- 0.0 -->
      <g transform="translate(259.872083 93.465028)scale(0.06 -0.06)">
       <use xlink:href="#LMRoman8-Regular-48"/>
       <use x="53.099991" xlink:href="#LMRoman8-Regular-46"/>
       <use x="82.599976" xlink:href="#LMRoman8-Regular-48"/>
      </g>
     </g>
    </g>
    <g id="ytick_14">
     <g id="line2d_22">
      <g>
       <use style="stroke:#000000;stroke-width:0.8;" x="275.013333" xlink:href="#md18656384a" y="76.434205"/>
      </g>
     </g>
     <g id="text_27">
      <!-- 0.2 -->
      <g transform="translate(259.872083 78.516392)scale(0.06 -0.06)">
       <use xlink:href="#LMRoman8-Regular-48"/>
       <use x="53.099991" xlink:href="#LMRoman8-Regular-46"/>
       <use x="82.599976" xlink:href="#LMRoman8-Regular-50"/>
      </g>
     </g>
    </g>
    <g id="ytick_15">
     <g id="line2d_23">
      <g>
       <use style="stroke:#000000;stroke-width:0.8;" x="275.013333" xlink:href="#md18656384a" y="61.485568"/>
      </g>
     </g>
     <g id="text_28">
      <!-- 0.4 -->
      <g transform="translate(259.872083 63.567756)scale(0.06 -0.06)">
       <use xlink:href="#LMRoman8-Regular-48"/>
       <use x="53.099991" xlink:href="#LMRoman8-Regular-46"/>
       <use x="82.599976" xlink:href="#LMRoman8-Regular-52"/>
      </g>
     </g>
    </g>
    <g id="ytick_16">
     <g id="line2d_24">
      <g>
       <use style="stroke:#000000;stroke-width:0.8;" x="275.013333" xlink:href="#md18656384a" y="46.536932"/>
      </g>
     </g>
     <g id="text_29">
      <!-- 0.6 -->
      <g transform="translate(259.872083 48.619119)scale(0.06 -0.06)">
       <use xlink:href="#LMRoman8-Regular-48"/>
       <use x="53.099991" xlink:href="#LMRoman8-Regular-46"/>
       <use x="82.599976" xlink:href="#LMRoman8-Regular-54"/>
      </g>
     </g>
    </g>
    <g id="ytick_17">
     <g id="line2d_25">
      <g>
       <use style="stroke:#000000;stroke-width:0.8;" x="275.013333" xlink:href="#md18656384a" y="31.588295"/>
      </g>
     </g>
     <g id="text_30">
      <!-- 0.8 -->
      <g transform="translate(259.872083 33.670483)scale(0.06 -0.06)">
       <use xlink:href="#LMRoman8-Regular-48"/>
       <use x="53.099991" xlink:href="#LMRoman8-Regular-46"/>
       <use x="82.599976" xlink:href="#LMRoman8-Regular-56"/>
      </g>
     </g>
    </g>
    <g id="ytick_18">
     <g id="line2d_26">
      <g>
       <use style="stroke:#000000;stroke-width:0.8;" x="275.013333" xlink:href="#md18656384a" y="16.639659"/>
      </g>
     </g>
     <g id="text_31">
      <!-- 1.0 -->
      <g transform="translate(259.872083 18.721847)scale(0.06 -0.06)">
       <use xlink:href="#LMRoman8-Regular-49"/>
       <use x="53.099991" xlink:href="#LMRoman8-Regular-46"/>
       <use x="82.599976" xlink:href="#LMRoman8-Regular-48"/>
      </g>
     </g>
    </g>
    <g id="text_32">
     <!-- $\ell_r(d)$ -->
     <g transform="translate(255.372083 64.51125)rotate(-90)scale(0.1 -0.1)">
      <use xlink:href="#Cmmi10-96"/>
      <use transform="translate(41.601562 -17.00625)scale(0.7)" xlink:href="#Cmmi10-114"/>
      <use transform="translate(79.560937 0)" xlink:href="#Cmr10-40"/>
      <use transform="translate(118.379297 0)" xlink:href="#Cmmi10-100"/>
      <use transform="translate(170.38125 0)" xlink:href="#Cmr10-41"/>
     </g>
    </g>
   </g>
   <g id="line2d_27">
    <path clip-path="url(#p5fb2faeb5c)" d="M 278.754545 16.639659 
L 279.510346 16.690108 
L 280.266146 16.839842 
L 281.021947 17.086336 
L 281.777747 17.426928 
L 282.533548 17.858834 
L 283.289348 18.379146 
L 284.045148 18.984847 
L 284.800949 19.672816 
L 285.556749 20.439835 
L 286.31255 21.282595 
L 287.06835 22.197709 
L 287.824151 23.181714 
L 288.579951 24.23108 
L 289.335751 25.34222 
L 290.091552 26.511495 
L 290.847352 27.73522 
L 291.603153 29.009678 
L 292.358953 30.33112 
L 293.114754 31.695778 
L 293.870554 33.099868 
L 294.626354 34.539601 
L 295.382155 36.011192 
L 296.137955 37.510862 
L 296.893756 39.034848 
L 297.649556 40.579415 
L 298.405357 42.140856 
L 299.161157 43.715504 
L 299.916957 45.299741 
L 300.672758 46.890001 
L 301.428558 48.48278 
L 302.184359 50.074645 
L 302.940159 51.662238 
L 303.69596 53.242287 
L 304.45176 54.811611 
L 305.20756 56.36713 
L 305.963361 57.905869 
L 306.719161 59.42497 
L 307.474962 60.921695 
L 308.230762 62.393438 
L 308.986563 63.837729 
L 309.742363 65.252243 
L 310.498163 66.634807 
L 311.253964 67.98341 
L 312.009764 69.296205 
L 312.765565 70.571523 
L 313.521365 71.807876 
L 314.277166 73.003968 
L 315.032966 74.158699 
L 315.788766 75.271174 
L 316.544567 76.340712 
L 317.300367 77.36685 
L 318.056168 78.349336 
L 318.811968 79.288112 
L 319.567769 80.183293 
L 320.323569 81.035155 
L 321.079369 81.844112 
L 321.83517 82.610712 
L 322.59097 83.335615 
L 323.346771 84.019588 
L 324.102571 84.663491 
L 324.858372 85.268269 
L 325.614172 85.83494 
L 326.369972 86.364589 
L 327.125773 86.85836 
L 327.881573 87.317445 
L 328.637374 87.743084 
L 329.393174 88.136549 
L 330.148975 88.499147 
L 330.904775 88.832207 
L 331.660575 89.137078 
L 332.416376 89.415124 
L 333.172176 89.667715 
L 333.927977 89.896227 
L 334.683777 90.102033 
L 335.439578 90.286503 
L 336.195378 90.450994 
L 336.951178 90.59685 
L 337.706979 90.725398 
L 338.462779 90.837941 
L 339.21858 90.935756 
L 339.97438 91.020089 
L 340.730181 91.092155 
L 341.485981 91.153129 
L 342.241781 91.204147 
L 342.997582 91.246298 
L 343.753382 91.280627 
L 344.509183 91.308125 
L 345.264983 91.329731 
L 346.020784 91.346324 
L 346.776584 91.358723 
L 347.532384 91.367686 
L 348.288185 91.3739 
L 349.043985 91.377984 
L 349.799786 91.380483 
L 350.555586 91.381869 
L 351.311387 91.382532 
L 352.067187 91.382779 
L 352.822987 91.382837 
L 353.578788 91.382841 
" style="fill:none;stroke:#1f77b4;stroke-linecap:square;stroke-width:0.75;"/>
   </g>
   <g id="patch_13">
    <path d="M 275.013333 95.12 
L 275.013333 12.9025 
" style="fill:none;stroke:#000000;stroke-linecap:square;stroke-linejoin:miter;stroke-width:0.5;"/>
   </g>
   <g id="patch_14">
    <path d="M 357.32 95.12 
L 357.32 12.9025 
" style="fill:none;stroke:#000000;stroke-linecap:square;stroke-linejoin:miter;stroke-width:0.5;"/>
   </g>
   <g id="patch_15">
    <path d="M 275.013333 95.12 
L 357.32 95.12 
" style="fill:none;stroke:#000000;stroke-linecap:square;stroke-linejoin:miter;stroke-width:0.5;"/>
   </g>
   <g id="patch_16">
    <path d="M 275.013333 12.9025 
L 357.32 12.9025 
" style="fill:none;stroke:#000000;stroke-linecap:square;stroke-linejoin:miter;stroke-width:0.5;"/>
   </g>
   <g id="text_33">
    <!-- Gaspari &amp; Cohn -->
    <defs>
     <path d="M 78.203125 24.296875 
L 78.203125 27.59375 
C 73.09375 27.296875 70.296875 27.296875 64.59375 27.296875 
C 60.296875 27.296875 52.203125 27.296875 48.296875 27.59375 
L 48.296875 24.296875 
L 51.796875 24.296875 
C 61.296875 24.296875 61.59375 23.09375 61.59375 19.40625 
L 61.59375 13 
C 61.59375 11 61.59375 6.90625 56.296875 4 
C 51.296875 1.203125 45.703125 1.203125 44.5 1.203125 
C 34.296875 1.203125 16.296875 7.40625 16.296875 34.203125 
C 16.296875 61.296875 34.59375 67.09375 43.796875 67.09375 
C 53.796875 67.09375 65 59.796875 67.5 43.296875 
C 67.59375 42.296875 67.703125 41.703125 69.09375 41.703125 
C 70.796875 41.703125 70.796875 42.40625 70.796875 44.296875 
L 70.796875 67.796875 
C 70.796875 69.40625 70.796875 70.40625 69.5 70.40625 
C 68.796875 70.40625 68.703125 70.296875 67.796875 69 
L 62.703125 61.59375 
C 58.40625 66.203125 51.796875 70.40625 42.796875 70.40625 
C 22.796875 70.40625 5.90625 54.296875 5.90625 34.203125 
C 5.90625 14.296875 22.296875 -2.09375 43.09375 -2.09375 
C 50.796875 -2.09375 59.40625 0.203125 63.40625 6.09375 
C 65.203125 3.296875 68.59375 0 69.59375 0 
C 70.796875 0 70.796875 1.09375 70.796875 2.59375 
L 70.796875 19.796875 
C 70.796875 23.796875 71.203125 24.296875 78.203125 24.296875 
z
" id="LMRoman8-Regular-71"/>
     <path d="M 38.296875 12.90625 
C 38.296875 17.703125 35.40625 24.703125 23.5 26.90625 
C 22.703125 27.09375 17.09375 28.09375 16.703125 28.09375 
C 13.59375 28.796875 8.90625 30.90625 8.90625 34.90625 
C 8.90625 37.90625 11.09375 42.09375 20.59375 42.09375 
C 31.796875 42.09375 32.296875 33.90625 32.5 31.09375 
C 32.59375 30.296875 33.296875 30 34 30 
C 35.59375 30 35.59375 30.703125 35.59375 32.59375 
L 35.59375 42 
C 35.59375 43.59375 35.59375 44.59375 34.296875 44.59375 
C 33.796875 44.59375 33.5 44.59375 31.90625 43 
C 31.703125 42.90625 30.796875 42 30.5 42 
C 30.5 42 30.203125 42 29.59375 42.40625 
C 28 43.5 25.09375 44.59375 20.59375 44.59375 
C 6.59375 44.59375 3.5 37 3.5 32.203125 
C 3.5 27.203125 7.203125 24.296875 7.5 24 
C 11.5 21 13.796875 20.59375 20.5 19.40625 
C 25.203125 18.5 32.90625 17.09375 32.90625 10.296875 
C 32.90625 6.40625 30.296875 1.796875 21.09375 1.796875 
C 11 1.796875 8.09375 9.59375 6.796875 14.90625 
C 6.40625 16.203125 6.296875 16.703125 5.09375 16.703125 
C 3.5 16.703125 3.5 15.90625 3.5 14 
L 3.5 1.59375 
C 3.5 0 3.5 -1 4.796875 -1 
C 5.40625 -1 5.5 -0.90625 7.296875 1 
C 7.796875 1.5 8.90625 2.796875 9.40625 3.296875 
C 13.90625 -0.796875 18.59375 -1 21.203125 -1 
C 33.90625 -1 38.296875 6.296875 38.296875 12.90625 
z
" id="LMRoman8-Regular-115"/>
     <path d="M 55.40625 21.59375 
C 55.40625 34.09375 45.296875 44.09375 33.203125 44.09375 
C 29.296875 44.09375 23.5 43.09375 18.40625 37.90625 
L 18.40625 44.09375 
L 3.5 43 
L 3.5 39.703125 
C 10.59375 39.703125 11.09375 39.09375 11.09375 34.90625 
L 11.09375 -11.59375 
C 11.09375 -16.09375 9.90625 -16.09375 3.5 -16.09375 
L 3.5 -19.40625 
C 7.796875 -19.09375 12.203125 -19.09375 14.90625 -19.09375 
C 17.796875 -19.09375 22 -19.09375 26.296875 -19.40625 
L 26.296875 -16.09375 
C 19.90625 -16.09375 18.703125 -16.09375 18.703125 -11.59375 
L 18.703125 4.90625 
C 23.40625 -0.203125 28.5 -1 31.703125 -1 
C 44.40625 -1 55.40625 8.796875 55.40625 21.59375 
z
M 46.5 21.59375 
C 46.5 10.09375 39.296875 1.796875 31.203125 1.796875 
C 27.703125 1.796875 23.09375 3.296875 19.90625 8.296875 
C 18.703125 10 18.703125 10.09375 18.703125 12 
L 18.703125 33.296875 
C 21 37.296875 26 41 32.296875 41 
C 40 41 46.5 32.5 46.5 21.59375 
z
" id="LMRoman8-Regular-112"/>
     <path id="LMRoman8-Regular-32"/>
     <path d="M 77.203125 39.796875 
L 77.203125 43.09375 
C 74.09375 42.796875 69.703125 42.796875 67 42.796875 
C 62.5 42.796875 61.09375 42.796875 55 43.09375 
L 55 39.796875 
C 59.90625 39.796875 61.59375 37.703125 61.59375 35.59375 
C 61.59375 34.40625 60.09375 32.203125 59.09375 30.5 
C 55 24.203125 50.796875 17.59375 45.5 12 
C 44 13.703125 33 26.59375 28.296875 38 
C 41.40625 51.296875 41.40625 55.90625 41.40625 58.296875 
C 41.40625 63.09375 39.296875 71.5 31.90625 71.5 
C 25.09375 71.5 17.203125 65.796875 17.203125 55.09375 
C 17.203125 49.203125 18.59375 41.90625 21.296875 35.203125 
L 10.90625 24.90625 
C 7.203125 21.296875 4.40625 18.59375 4.40625 13.09375 
C 4.40625 4.09375 13.203125 -2.09375 23.703125 -2.09375 
C 31.90625 -2.09375 38.703125 1.796875 42.90625 5.296875 
C 45.203125 3.40625 52.203125 -2.09375 61.59375 -2.09375 
C 69.296875 -2.09375 76.40625 3.203125 76.59375 12.09375 
L 73.5 12.09375 
C 73.296875 4.5 66.703125 1.203125 62 1.203125 
C 57.59375 1.203125 53 3.90625 47.59375 9.59375 
C 53.203125 16 56.09375 20.203125 63.09375 31.203125 
C 65.796875 35.5 68.5 39.703125 77.203125 39.796875 
z
M 38.296875 58.40625 
C 38.296875 53.203125 34.5 49.09375 27.203125 41 
C 24.90625 47.40625 24.203125 53.296875 24.203125 57.296875 
C 24.203125 66.40625 29.296875 68.703125 32 68.703125 
C 37.203125 68.703125 38.296875 61.203125 38.296875 58.40625 
z
M 40.5 7.296875 
C 34.796875 3 29.296875 1.203125 24.296875 1.203125 
C 16.09375 1.203125 13.296875 10.09375 13.296875 15.796875 
C 13.296875 20.59375 14.90625 23.90625 16 25.59375 
C 16.703125 26.59375 16.796875 26.703125 22.5 32.296875 
C 27.09375 23 31.5 16.59375 40.5 7.296875 
z
" id="LMRoman8-Regular-38"/>
     <path d="M 70.703125 23.40625 
C 70.703125 24.40625 70.703125 25.296875 69.09375 25.296875 
C 68 25.296875 67.703125 24.796875 67.59375 23.796875 
C 66.796875 8.40625 54.40625 1.203125 43.796875 1.203125 
C 35.296875 1.203125 16.296875 6.40625 16.296875 34.203125 
C 16.296875 61.09375 34.296875 67.09375 43.796875 67.09375 
C 53.203125 67.09375 64.796875 60.40625 67.40625 43.203125 
C 67.5 42.40625 67.59375 41.703125 69 41.703125 
C 70.703125 41.703125 70.703125 42.40625 70.703125 44.296875 
L 70.703125 67.796875 
C 70.703125 69.40625 70.703125 70.40625 69.40625 70.40625 
C 68.703125 70.40625 68.59375 70.296875 67.703125 69 
L 62.59375 61.59375 
C 59 65.5 52.40625 70.40625 42.796875 70.40625 
C 22.703125 70.40625 5.90625 54.296875 5.90625 34.203125 
C 5.90625 14 22.59375 -2.09375 42.90625 -2.09375 
C 59.703125 -2.09375 70.703125 11.203125 70.703125 23.40625 
z
" id="LMRoman8-Regular-67"/>
     <path d="M 56.203125 0 
L 56.203125 3.296875 
C 49.796875 3.296875 48.59375 3.296875 48.59375 7.796875 
L 48.59375 30.296875 
C 48.59375 38.703125 44.796875 44.09375 34.296875 44.09375 
C 25.5 44.09375 20.90625 38.5 19.09375 35.296875 
L 19 35.296875 
L 19 69.40625 
L 4.09375 68.296875 
L 4.09375 65 
C 10.90625 65 11.703125 64.296875 11.703125 59.40625 
L 11.703125 7.796875 
C 11.703125 3.296875 10.5 3.296875 4.09375 3.296875 
L 4.09375 0 
C 8.40625 0.296875 12.796875 0.296875 15.5 0.296875 
C 18.40625 0.296875 22.59375 0.296875 26.90625 0 
L 26.90625 3.296875 
C 20.5 3.296875 19.296875 3.296875 19.296875 7.796875 
L 19.296875 25.90625 
C 19.296875 36.40625 27.296875 41.296875 33.40625 41.296875 
C 39.5 41.296875 41 37 41 30.703125 
L 41 7.796875 
C 41 3.296875 39.796875 3.296875 33.40625 3.296875 
L 33.40625 0 
C 37.703125 0.296875 42.09375 0.296875 44.796875 0.296875 
C 47.703125 0.296875 51.90625 0.296875 56.203125 0 
z
" id="LMRoman8-Regular-104"/>
    </defs>
    <g transform="translate(285.662292 6.9025)scale(0.08 -0.08)">
     <use xlink:href="#LMRoman8-Regular-71"/>
     <use x="83.399994" xlink:href="#LMRoman8-Regular-97"/>
     <use x="136.499985" xlink:href="#LMRoman8-Regular-115"/>
     <use x="178.399979" xlink:href="#LMRoman8-Regular-112"/>
     <use x="237.399963" xlink:href="#LMRoman8-Regular-97"/>
     <use x="290.499954" xlink:href="#LMRoman8-Regular-114"/>
     <use x="331.899948" xlink:href="#LMRoman8-Regular-105"/>
     <use x="361.399933" xlink:href="#LMRoman8-Regular-32"/>
     <use x="396.799927" xlink:href="#LMRoman8-Regular-38"/>
     <use x="479.399918" xlink:href="#LMRoman8-Regular-32"/>
     <use x="514.799911" xlink:href="#LMRoman8-Regular-67"/>
     <use x="591.499893" xlink:href="#LMRoman8-Regular-111"/>
     <use x="644.599884" xlink:href="#LMRoman8-Regular-104"/>
     <use x="703.599869" xlink:href="#LMRoman8-Regular-110"/>
    </g>
   </g>
  </g>
 </g>
 <defs>
  <clipPath id="pd13a86e513">
   <rect height="82.2175" width="82.306667" x="29.68" y="12.9025"/>
  </clipPath>
  <clipPath id="p6babff0fe0">
   <rect height="82.2175" width="82.306667" x="152.346667" y="12.9025"/>
  </clipPath>
  <clipPath id="p5fb2faeb5c">
   <rect height="82.2175" width="82.306667" x="275.013333" y="12.9025"/>
  </clipPath>
 </defs>
</svg>
