<?xml version="1.0" encoding="UTF-8" standalone="no"?>
<!-- Created with Inkscape (http://www.inkscape.org/) -->

<svg
   xmlns:dc="http://purl.org/dc/elements/1.1/"
   xmlns:cc="http://creativecommons.org/ns#"
   xmlns:rdf="http://www.w3.org/1999/02/22-rdf-syntax-ns#"
   xmlns:svg="http://www.w3.org/2000/svg"
   xmlns="http://www.w3.org/2000/svg"
   xmlns:sodipodi="http://sodipodi.sourceforge.net/DTD/sodipodi-0.dtd"
   xmlns:inkscape="http://www.inkscape.org/namespaces/inkscape"
   version="1.1"
   id="svg2"
   xml:space="preserve"
   width="621.47998"
   height="284.26666"
   viewBox="0 0 621.47998 284.26666"
   sodipodi:docname="nus-logo.svg"
   inkscape:version="0.92.3 (2405546, 2018-03-11)"><metadata
     id="metadata8"><rdf:RDF><cc:Work
         rdf:about=""><dc:format>image/svg+xml</dc:format><dc:type
           rdf:resource="http://purl.org/dc/dcmitype/StillImage" /><dc:title></dc:title></cc:Work></rdf:RDF></metadata><defs
     id="defs6" /><sodipodi:namedview
     pagecolor="#ffffff"
     bordercolor="#666666"
     borderopacity="1"
     objecttolerance="10"
     gridtolerance="10"
     guidetolerance="10"
     inkscape:pageopacity="0"
     inkscape:pageshadow="2"
     inkscape:window-width="2560"
     inkscape:window-height="1348"
     id="namedview4"
     showgrid="false"
     inkscape:zoom="1.9478774"
     inkscape:cx="362.50628"
     inkscape:cy="109.24946"
     inkscape:window-x="0"
     inkscape:window-y="50"
     inkscape:window-maximized="1"
     inkscape:current-layer="g10" /><g
     id="g10"
     inkscape:groupmode="layer"
     inkscape:label="ink_ext_XXXXXX"
     transform="matrix(1.3333333,0,0,-1.3333333,0,284.26667)"><g
       id="g12"
       transform="scale(0.1)"><path
         d="m 1874.15,892.609 h 42.58 l 96.38,-175.929 h 0.67 v 175.929 h 31.29 V 674.082 h -40.06 l -98.95,179.641 h -0.6 V 674.082 h -31.31 v 218.527"
         style="fill:#173e7d;fill-opacity:1;fill-rule:nonzero;stroke:none"
         id="path14"
         inkscape:connector-curvature="0" /><path
         d="m 2192.51,736.023 c 0,-23.777 -15.35,-41.921 -44.47,-41.921 -13.42,0 -29.75,9.082 -29.75,25.976 0,28.176 39.46,30.695 55.47,30.695 6.23,0 12.44,-0.625 18.75,-0.625 z m -85.8,61.411 c 11.88,10 29.75,16.226 46.33,16.226 29.45,0 39.47,-14.058 39.47,-41.637 -11.58,0.625 -19.73,0.625 -31.33,0.625 -30.33,0 -74.18,-12.484 -74.18,-52.57 0,-34.707 24.13,-49.785 58.56,-49.785 26.91,0 42.55,14.766 49.45,24.453 h 0.6 v -20.664 h 27.58 c -0.64,4.707 -1.26,13.145 -1.26,31.328 v 66.004 c 0,43.496 -18.46,66.074 -64.18,66.074 -20.36,0 -37.87,-6.226 -52.58,-15.054 l 1.54,-25"
         style="fill:#173e7d;fill-opacity:1;fill-rule:nonzero;stroke:none"
         id="path16"
         inkscape:connector-curvature="0" /><path
         d="m 2356.53,809.949 h -42.28 v -87.332 c 0,-18.496 11.31,-28.515 24.75,-28.515 9.1,0 15.66,2.832 20.03,5.644 v -25.058 c -6.58,-1.875 -15.62,-4.395 -25.03,-4.395 -30.37,0 -49.15,14.414 -49.15,46.387 v 93.269 h -36.01 v 23.774 h 36.01 v 36.992 l 29.4,9.336 v -46.328 h 42.28 v -23.774"
         style="fill:#173e7d;fill-opacity:1;fill-rule:nonzero;stroke:none"
         id="path18"
         inkscape:connector-curvature="0" /><path
         d="m 2397.23,674.082 h 29.44 v 159.641 h -29.44 z m 31.33,228.508 h -33.22 v -33.164 h 33.22 v 33.164"
         style="fill:#173e7d;fill-opacity:1;fill-rule:nonzero;stroke:none"
         id="path20"
         inkscape:connector-curvature="0" /><path
         d="m 2501.14,753.898 c 0,30.352 18.48,59.762 50.1,59.762 31.29,0 49.78,-29.41 49.78,-59.762 0,-28.5 -15.33,-59.796 -49.78,-59.796 -34.72,0 -50.1,31.296 -50.1,59.796 z m -31.29,0 c 0,-45.656 33.17,-83.605 81.39,-83.605 47.89,0 81.07,37.949 81.07,83.605 0,48.536 -32.54,83.59 -81.07,83.59 -48.83,0 -81.39,-35.054 -81.39,-83.59"
         style="fill:#173e7d;fill-opacity:1;fill-rule:nonzero;stroke:none"
         id="path22"
         inkscape:connector-curvature="0" /><path
         d="m 2671.81,833.723 h 28.46 v -25.356 h 0.6 c 8.77,18.164 30.08,29.121 52.28,29.121 41.33,0 59.83,-25.679 59.83,-68.574 v -94.832 h -29.47 v 82.609 c 0,37.262 -8.09,55.426 -33.79,56.969 -33.5,0 -48.54,-26.89 -48.54,-65.703 v -73.875 h -29.37 v 159.641"
         style="fill:#173e7d;fill-opacity:1;fill-rule:nonzero;stroke:none"
         id="path24"
         inkscape:connector-curvature="0" /><path
         d="m 2957.88,736.023 c 0,-23.777 -15.33,-41.921 -44.43,-41.921 -13.48,0 -29.77,9.082 -29.77,25.976 0,28.176 39.42,30.695 55.43,30.695 6.23,0 12.52,-0.625 18.77,-0.625 z m -85.8,61.411 c 11.92,10 29.77,16.226 46.31,16.226 29.43,0 39.49,-14.058 39.49,-41.637 -11.58,0.625 -19.73,0.625 -31.31,0.625 -30.33,0 -74.18,-12.484 -74.18,-52.57 0,-34.707 24.11,-49.785 58.52,-49.785 26.93,0 42.57,14.766 49.49,24.453 h 0.61 v -20.664 h 27.55 c -0.62,4.707 -1.26,13.145 -1.26,31.328 v 66.004 c 0,43.496 -18.46,66.074 -64.2,66.074 -20.28,0 -37.82,-6.226 -52.54,-15.054 l 1.52,-25"
         style="fill:#173e7d;fill-opacity:1;fill-rule:nonzero;stroke:none"
         id="path26"
         inkscape:connector-curvature="0" /><path
         d="m 3040.85,908.879 h 29.42 V 674.082 h -29.42 v 234.797"
         style="fill:#173e7d;fill-opacity:1;fill-rule:nonzero;stroke:none"
         id="path28"
         inkscape:connector-curvature="0" /><path
         d="m 3375.21,764.539 c 0,-61.355 -30.98,-94.246 -84.81,-94.246 -53.85,0 -84.84,32.891 -84.84,94.246 v 128.07 h 31.33 V 768.605 c 0,-41.957 13.1,-70.714 53.51,-70.714 40.35,0 53.49,28.757 53.49,70.714 v 124.004 h 31.32 v -128.07"
         style="fill:#173e7d;fill-opacity:1;fill-rule:nonzero;stroke:none"
         id="path30"
         inkscape:connector-curvature="0" /><path
         d="m 3428.45,833.723 h 28.48 v -25.356 h 0.62 c 8.79,18.164 30.09,29.121 52.26,29.121 41.35,0 59.85,-25.679 59.85,-68.574 v -94.832 h -29.45 v 82.609 c 0,37.262 -8.15,55.426 -33.83,56.969 -33.5,0 -48.56,-26.89 -48.56,-65.703 v -73.875 h -29.37 v 159.641"
         style="fill:#173e7d;fill-opacity:1;fill-rule:nonzero;stroke:none"
         id="path32"
         inkscape:connector-curvature="0" /><path
         d="m 3623.45,833.723 h 29.43 V 674.082 h -29.43 z m 31.32,35.703 h -33.18 v 33.164 h 33.18 v -33.164"
         style="fill:#173e7d;fill-opacity:1;fill-rule:nonzero;stroke:none"
         id="path34"
         inkscape:connector-curvature="0" /><path
         d="m 3777.47,674.082 h -35.04 l -57.29,159.641 h 32.24 l 43.22,-130.246 h 0.6 l 44.12,130.246 h 29.45 l -57.3,-159.641"
         style="fill:#173e7d;fill-opacity:1;fill-rule:nonzero;stroke:none"
         id="path36"
         inkscape:connector-curvature="0" /><path
         d="m 3883.92,769.246 c 2.18,20.664 14.06,44.414 42.89,44.414 25.31,0 39.73,-20.035 39.73,-44.414 z m 101.72,-59.187 c -7.19,-5.938 -29.71,-15.957 -49.12,-15.957 -27.84,0 -52.6,21.64 -52.6,53.23 h 113.96 c 0,51.313 -17.24,90.156 -70.45,90.156 -45.08,0 -74.84,-33.496 -74.84,-80.797 0,-51.906 26,-86.398 82.66,-86.398 26.3,0 39.14,6.328 50.39,10.352 v 29.414"
         style="fill:#173e7d;fill-opacity:1;fill-rule:nonzero;stroke:none"
         id="path38"
         inkscape:connector-curvature="0" /><path
         d="m 4037.31,833.723 h 27.54 v -24.707 h 0.67 c 7.77,16.597 24.71,28.472 41.6,28.472 8.75,0 13.13,-0.933 19.42,-2.222 v -26.25 c -5.34,2.183 -11.29,2.793 -16.29,2.793 -26.31,0 -43.52,-25.039 -43.52,-65.137 v -72.59 h -29.42 v 159.641"
         style="fill:#173e7d;fill-opacity:1;fill-rule:nonzero;stroke:none"
         id="path40"
         inkscape:connector-curvature="0" /><path
         d="m 4147.22,705.41 c 11.54,-7.519 28.14,-11.308 36.56,-11.308 13.48,0 30.08,5.644 30.08,22.851 0,29.113 -69.22,26.629 -69.22,71.399 0,33.179 24.75,49.136 56.38,49.136 13.79,0 25.03,-2.832 36.65,-6.226 l -2.54,-25.727 c -6.57,4.121 -24.11,8.125 -30.98,8.125 -15.02,0 -28.14,-6.226 -28.14,-19.41 0,-32.52 69.16,-23.145 69.16,-74.172 0,-34.082 -27.27,-49.785 -55.74,-49.785 -15.02,0 -30.36,1.582 -43.83,8.789 l 1.62,26.328"
         style="fill:#173e7d;fill-opacity:1;fill-rule:nonzero;stroke:none"
         id="path42"
         inkscape:connector-curvature="0" /><path
         d="m 4284.56,833.723 h 29.48 V 674.082 h -29.48 z m 31.35,35.703 h -33.16 v 33.164 h 33.16 v -33.164"
         style="fill:#173e7d;fill-opacity:1;fill-rule:nonzero;stroke:none"
         id="path44"
         inkscape:connector-curvature="0" /><path
         d="m 4452.69,809.949 h -42.21 v -87.332 c 0,-18.496 11.21,-28.515 24.69,-28.515 9.12,0 15.66,2.832 20.04,5.644 v -25.058 c -6.57,-1.875 -15.65,-4.395 -25.02,-4.395 -30.38,0 -49.17,14.414 -49.17,46.387 v 93.269 h -36.01 v 23.774 h 36.01 v 36.992 l 29.46,9.336 v -46.328 h 42.21 v -23.774"
         style="fill:#173e7d;fill-opacity:1;fill-rule:nonzero;stroke:none"
         id="path46"
         inkscape:connector-curvature="0" /><path
         d="m 4477.77,630.898 c 3.73,-1.289 8.73,-2.539 13.73,-2.539 26.29,0 35.05,36.348 35.05,39.454 0,3.437 -3.73,11.582 -5.62,16.894 l -54.16,149.016 h 32.25 l 42.89,-132.141 h 0.6 l 43.87,132.141 h 29.76 l -58.87,-163.078 c -10.95,-30.665 -22.57,-66.055 -61.34,-66.055 -9.43,0 -14.77,1.25 -20.04,2.187 l 1.88,24.121"
         style="fill:#173e7d;fill-opacity:1;fill-rule:nonzero;stroke:none"
         id="path48"
         inkscape:connector-curvature="0" /><path
         d="m 1892.3,383.945 c 0,30.332 18.45,59.766 50.09,59.766 31.29,0 49.79,-29.434 49.79,-59.766 0,-28.457 -15.35,-59.824 -49.79,-59.824 -34.76,0 -50.09,31.367 -50.09,59.824 z m -31.32,0 c 0,-45.703 33.17,-83.613 81.41,-83.613 47.88,0 81.08,37.91 81.08,83.613 0,48.516 -32.58,83.614 -81.08,83.614 -48.8,0 -81.41,-35.098 -81.41,-83.614"
         style="fill:#173e7d;fill-opacity:1;fill-rule:nonzero;stroke:none"
         id="path50"
         inkscape:connector-curvature="0" /><path
         d="m 2081.96,439.961 h -37.56 v 23.789 h 37.56 v 14.766 c 0,38.769 10.08,64.121 53.58,64.121 7.52,0 13.77,-0.918 19.67,-1.856 l -1.19,-23.789 c -3.46,1.25 -9.13,1.836 -14.13,1.836 -25.33,0 -28.47,-16.25 -28.47,-37.851 V 463.75 h 42.28 v -23.789 h -42.28 V 304.16 h -29.46 v 135.801"
         style="fill:#173e7d;fill-opacity:1;fill-rule:nonzero;stroke:none"
         id="path52"
         inkscape:connector-curvature="0" /><path
         d="m 2365.03,489.746 c -15.96,6.231 -24.73,9.102 -40.98,9.102 -17.55,0 -38.22,-6.309 -38.22,-29.141 0,-41.992 93.93,-32.207 93.93,-104.258 0,-46.601 -36,-65.117 -79.83,-65.117 -15.31,0 -30.37,4.434 -44.72,9.121 l 3.08,29.063 c 10.63,-4.356 29.44,-10.606 45.41,-10.606 17.83,0 42.87,10 42.87,35.703 0,48.809 -93.93,35.313 -93.93,103.242 0,38.887 30.69,59.512 70.18,59.512 14.4,0 31.58,-2.5 46.61,-7.773 l -4.4,-28.848"
         style="fill:#173e7d;fill-opacity:1;fill-rule:nonzero;stroke:none"
         id="path54"
         inkscape:connector-curvature="0" /><path
         d="m 2423.25,463.75 h 29.46 V 304.16 h -29.46 z m 31.33,35.723 h -33.16 v 33.125 h 33.16 v -33.125"
         style="fill:#173e7d;fill-opacity:1;fill-rule:nonzero;stroke:none"
         id="path56"
         inkscape:connector-curvature="0" /><path
         d="m 2506.55,463.75 h 28.5 v -25.332 h 0.6 c 8.79,18.164 30.06,29.141 52.27,29.141 41.35,0 59.83,-25.704 59.83,-68.633 V 304.16 h -29.46 v 82.617 c 0,37.246 -8.12,55.391 -33.81,56.934 -33.47,0 -48.51,-26.934 -48.51,-65.703 V 304.16 h -29.42 v 159.59"
         style="fill:#173e7d;fill-opacity:1;fill-rule:nonzero;stroke:none"
         id="path58"
         inkscape:connector-curvature="0" /><path
         d="m 2762.94,327.91 c -27.58,0 -44.46,26.309 -44.46,56.367 0,27.207 14.75,59.434 44.46,59.434 31.31,0 46.6,-28.457 46.6,-61.66 0,-29.746 -19.06,-54.141 -46.6,-54.141 z m 76.09,135.84 h -27.28 v -23.789 h -0.61 c -8.76,17.207 -24.39,27.598 -52.59,27.598 -48.21,0 -71.35,-43.868 -71.35,-84.903 0,-41.269 22.5,-78.496 68.18,-78.496 20.39,0 41.08,8.106 53.58,24.688 h 0.58 v -15.645 c 0,-33.808 -18.45,-54.765 -49.45,-54.765 -21.61,0 -35.04,4.042 -57.58,14.355 l -3.15,-27.227 c 25.69,-8.75 40.41,-10.937 57.29,-10.937 57.31,0 82.38,27.851 82.38,76.406 V 463.75"
         style="fill:#173e7d;fill-opacity:1;fill-rule:nonzero;stroke:none"
         id="path60"
         inkscape:connector-curvature="0" /><path
         d="m 2983.92,366.113 c 0,-23.789 -15.32,-41.992 -44.46,-41.992 -13.48,0 -29.73,9.121 -29.73,26.035 0,28.106 39.46,30.645 55.41,30.645 6.28,0 12.53,-0.645 18.78,-0.645 z m -85.73,61.367 c 11.86,10.02 29.69,16.231 46.31,16.231 29.39,0 39.42,-14.063 39.42,-41.621 -11.54,0.644 -19.71,0.644 -31.29,0.644 -30.37,0 -74.18,-12.558 -74.18,-52.578 0,-34.765 24.06,-49.824 58.51,-49.824 26.9,0 42.58,14.746 49.5,24.473 h 0.62 V 304.16 h 27.5 c -0.58,4.649 -1.19,13.047 -1.19,31.27 v 66.035 c 0,43.535 -18.54,66.094 -64.2,66.094 -20.31,0 -37.87,-6.289 -52.6,-15.118 l 1.6,-24.961"
         style="fill:#173e7d;fill-opacity:1;fill-rule:nonzero;stroke:none"
         id="path62"
         inkscape:connector-curvature="0" /><path
         d="m 3183.66,384.59 c 0.63,-25.078 -12.52,-60.469 -44.16,-60.469 -33.16,0 -46.95,32.891 -46.95,59.512 0,29.707 15.35,60.078 47.26,60.078 31.92,0 44.48,-30.371 43.85,-59.121 z M 3063.14,238.379 h 29.41 v 87.656 h 0.64 c 9.08,-14.726 25.02,-25.703 53.23,-25.703 48.2,0 68.55,42.598 68.55,86.445 0,42.871 -22.54,80.782 -68.87,80.782 -28.18,0 -46.34,-14.473 -54.17,-26.348 h -0.59 v 22.539 h -28.2 V 238.379"
         style="fill:#173e7d;fill-opacity:1;fill-rule:nonzero;stroke:none"
         id="path64"
         inkscape:connector-curvature="0" /><path
         d="m 3275.05,383.945 c 0,30.332 18.47,59.766 50.09,59.766 31.3,0 49.77,-29.434 49.77,-59.766 0,-28.457 -15.33,-59.824 -49.77,-59.824 -34.74,0 -50.09,31.367 -50.09,59.824 z m -31.29,0 c 0,-45.703 33.18,-83.613 81.38,-83.613 47.88,0 81.06,37.91 81.06,83.613 0,48.516 -32.54,83.614 -81.06,83.614 -48.86,0 -81.38,-35.098 -81.38,-83.614"
         style="fill:#173e7d;fill-opacity:1;fill-rule:nonzero;stroke:none"
         id="path66"
         inkscape:connector-curvature="0" /><path
         d="m 3445.68,463.75 h 27.53 v -24.727 h 0.61 c 7.85,16.641 24.74,28.536 41.66,28.536 8.73,0 13.12,-0.957 19.4,-2.246 v -26.29 c -5.34,2.188 -11.25,2.832 -16.25,2.832 -26.29,0 -43.54,-25.078 -43.54,-65.117 V 304.16 h -29.41 v 159.59"
         style="fill:#173e7d;fill-opacity:1;fill-rule:nonzero;stroke:none"
         id="path68"
         inkscape:connector-curvature="0" /><path
         d="m 3588.08,399.297 c 2.21,20.625 14.1,44.414 42.91,44.414 25.35,0 39.74,-20.02 39.74,-44.414 z m 101.76,-59.199 c -7.2,-5.938 -29.79,-15.977 -49.15,-15.977 -27.89,0 -52.61,21.66 -52.61,53.242 h 113.94 c 0,51.328 -17.17,90.196 -70.41,90.196 -45.06,0 -74.82,-33.536 -74.82,-80.782 0,-51.953 26,-86.445 82.65,-86.445 26.31,0 39.15,6.289 50.4,10.352 v 29.414"
         style="fill:#173e7d;fill-opacity:1;fill-rule:nonzero;stroke:none"
         id="path70"
         inkscape:connector-curvature="0" /><path
         d="m 3897.61,1328.18 c 59.94,-55.27 178.07,-105.7 322.36,-107.95 126.47,-2.16 228.5,35.93 234.77,140.77 13.42,226.97 -568.64,136.14 -546.06,519.3 11.21,191.73 201.57,255.21 406.94,251.72 110.97,-1.88 221.97,-28.2 282.77,-59.07 l 0.25,-136.15 c -74.2,50.89 -177.73,83.28 -263.39,84.9 -130.3,2.39 -233.71,-21.6 -235.36,-116.83 -3.51,-198.64 583.63,-151 561.2,-530.98 -12.58,-213.97 -220.53,-279.59 -438.19,-275.61 -125.19,1.72 -247.81,27.15 -325,66.66 l -0.29,163.24"
         style="fill:#173e7d;fill-opacity:1;fill-rule:nonzero;stroke:none"
         id="path72"
         inkscape:connector-curvature="0" /><path
         d="m 3347,1097.21 c -270.35,0 -426.03,121.44 -426.03,371.22 v 634.09 h 202.71 l 0.08,-634.09 c 0,-155.28 74.55,-249.49 223.24,-249.49 148.68,0 223.29,94.21 223.29,249.49 l 0.07,634.09 h 202.58 v -634.09 c 0,-249.78 -155.64,-371.22 -425.94,-371.22"
         style="fill:#173e7d;fill-opacity:1;fill-rule:nonzero;stroke:none"
         id="path74"
         inkscape:connector-curvature="0" /><path
         d="m 2591.73,2102.52 v -714.28 l -464.53,663.74 c -21.99,30.63 -58.31,50.54 -98.75,50.54 h -153.79 v -973.95 h 135.11 v 714.71 l 463.75,-661.76 c 22.04,-31.6 58.58,-52.95 100.4,-52.95 h 152.89 v 973.95 h -135.08"
         style="fill:#173e7d;fill-opacity:1;fill-rule:nonzero;stroke:none"
         id="path76"
         inkscape:connector-curvature="0" /><path
         d="M 1641.99,1090.43 V 2098.25 H 0.136719 V 1089.67 C 0.0585938,1088.82 0,1086.18 0,1081.9 0,1034.29 10.3203,782.332 212.93,463.164 434.258,113.926 799.453,5.97656 814.875,1.58203 L 820.398,0 825.906,1.58203 C 841.379,5.97656 1207.75,113.906 1429.23,463.164 c 220.79,347.961 213.15,616.056 212.76,627.266"
         style="fill:#173e7d;fill-opacity:1;fill-rule:nonzero;stroke:none"
         id="path78"
         inkscape:connector-curvature="0" /><path
         d="M 1393.64,493.289 C 1194.73,179.543 864.543,65.1094 818.672,50.4805 772.938,65.1484 443.848,179.543 245,493.289 v 0 C 45.625,807.383 38.3672,1059.24 38.3672,1093.63 c 0,2.46 0.0508,3.81 0.0508,3.99 0,0 0,163.79 0,356.79 H 1600.2 c 0,-192.66 0,-356.05 0,-356.05 0,-0.23 0.07,-1.62 0.07,-4.18 0,-35.25 -7.37,-286.914 -206.63,-600.891"
         style="fill:#ffffff;fill-opacity:1;fill-rule:nonzero;stroke:none"
         id="path80"
         inkscape:connector-curvature="0" /><path
         d="m 1146.22,1307.32 0.33,0.07 v 0 c -0.05,-0.03 -0.21,-0.03 -0.33,-0.07"
         style="fill:#5b261b;fill-opacity:1;fill-rule:nonzero;stroke:none"
         id="path82"
         inkscape:connector-curvature="0" /><path
         d="m 769.148,1982.27 c -2.808,0.5 -69.628,12.27 -149.429,12.27 -63.242,0 -120.317,-18.99 -145.41,-28.68 -25.082,9.69 -82.161,28.68 -145.391,28.68 -79.785,0 -146.621,-11.77 -149.438,-12.27 l -8.98,-1.61 v -69.07 -297.35 -58.61 l 13.23,2.89 c 0.559,0.12 55.84,11.99 137.254,11.99 61.196,0 124.621,-17.04 149.614,-26.05 l 3.691,-1.33 3.785,1.33 c 24.965,9.01 88.364,26.05 149.594,26.05 81.402,0 136.68,-11.87 137.227,-11.99 l 13.242,-2.89 v 58.61 297.35 69.06 l -8.989,1.62"
         style="fill:#f57c14;fill-opacity:1;fill-rule:nonzero;stroke:none"
         id="path84"
         inkscape:connector-curvature="0" /><path
         d="m 463.855,1946.14 c -25.292,9.49 -77.46,26.01 -134.441,26.01 -61.738,0 -116.199,-7.38 -136.609,-10.51 0,-16.92 0,-297.68 0,-321.29 21.343,3.64 67.3,10.02 128.672,10.02 55,0 110.015,-12.57 142.378,-22.57 v 318.34"
         style="fill:#ffffff;fill-opacity:1;fill-rule:nonzero;stroke:none"
         id="path86"
         inkscape:connector-curvature="0" /><path
         d="m 620.215,1972.15 c -57.727,0 -110.535,-16.95 -135.442,-26.38 v -318.29 c 32.192,10.05 87.754,22.89 143.391,22.89 61.356,0 107.305,-6.38 128.652,-10.02 0,23.61 0,304.37 0,321.29 -20.398,3.14 -74.851,10.51 -136.601,10.51"
         style="fill:#ffffff;fill-opacity:1;fill-rule:nonzero;stroke:none"
         id="path88"
         inkscape:connector-curvature="0" /><path
         d="m 253.367,1918.57 c -7.906,-2.12 -12.265,-9.35 -9.859,-16.19 2.437,-6.83 10.801,-10.63 18.687,-8.53 0.41,0.13 41.211,7.34 75.981,7.34 31.558,0 66.953,-14.33 67.324,-14.5 7.691,-2.5 16.309,0.9 19.18,7.59 2.886,6.68 -1.016,14.14 -8.711,16.68 -1.719,0.58 -40.727,16.05 -77.793,16.05 -39.399,0 -83.008,-7.97 -84.809,-8.44"
         style="fill:#173e7d;fill-opacity:1;fill-rule:nonzero;stroke:none"
         id="path90"
         inkscape:connector-curvature="0" /><path
         d="m 253.367,1854.76 c -7.906,-2.11 -12.265,-9.38 -9.859,-16.21 2.437,-6.81 10.801,-10.62 18.687,-8.51 0.41,0.07 41.211,7.3 75.981,7.3 31.558,0 66.953,-14.34 67.324,-14.47 7.691,-2.49 16.309,0.91 19.18,7.6 2.886,6.67 -1.016,14.12 -8.711,16.64 -1.719,0.56 -40.727,16.1 -77.793,16.1 -39.399,0 -83.008,-7.98 -84.809,-8.45"
         style="fill:#173e7d;fill-opacity:1;fill-rule:nonzero;stroke:none"
         id="path92"
         inkscape:connector-curvature="0" /><path
         d="m 253.367,1790.91 c -7.906,-2.11 -12.265,-9.39 -9.859,-16.18 2.437,-6.84 10.801,-10.66 18.687,-8.54 0.41,0.11 41.211,7.33 75.981,7.33 31.558,0 66.953,-14.34 67.324,-14.45 7.691,-2.53 16.309,0.87 19.18,7.55 2.886,6.71 -1.016,14.13 -8.711,16.64 -1.719,0.57 -40.727,16.13 -77.793,16.13 -39.399,0 -83.008,-7.97 -84.809,-8.48"
         style="fill:#173e7d;fill-opacity:1;fill-rule:nonzero;stroke:none"
         id="path94"
         inkscape:connector-curvature="0" /><path
         d="m 253.367,1727.09 c -7.906,-2.16 -12.265,-9.39 -9.859,-16.19 2.437,-6.85 10.801,-10.65 18.687,-8.54 0.41,0.11 41.211,7.37 75.981,7.37 31.558,0 66.953,-14.41 67.324,-14.5 7.691,-2.52 16.309,0.86 19.18,7.55 2.886,6.68 -1.016,14.16 -8.711,16.67 -1.719,0.53 -40.727,16.12 -77.793,16.12 -39.399,0 -83.008,-8.03 -84.809,-8.48"
         style="fill:#173e7d;fill-opacity:1;fill-rule:nonzero;stroke:none"
         id="path96"
         inkscape:connector-curvature="0" /><path
         d="m 697.512,1918.57 c 7.847,-2.12 12.246,-9.35 9.824,-16.19 -2.441,-6.83 -10.781,-10.63 -18.672,-8.53 -0.41,0.13 -41.215,7.34 -75.996,7.34 -31.543,0 -66.938,-14.33 -67.324,-14.5 -7.676,-2.5 -16.289,0.9 -19.16,7.59 -2.914,6.68 0.996,14.14 8.691,16.68 1.719,0.58 40.738,16.05 77.793,16.05 39.395,0 83.008,-7.97 84.844,-8.44"
         style="fill:#173e7d;fill-opacity:1;fill-rule:nonzero;stroke:none"
         id="path98"
         inkscape:connector-curvature="0" /><path
         d="m 697.512,1854.76 c 7.847,-2.11 12.246,-9.38 9.824,-16.21 -2.441,-6.81 -10.781,-10.62 -18.672,-8.51 -0.41,0.07 -41.215,7.3 -75.996,7.3 -31.543,0 -66.938,-14.34 -67.324,-14.47 -7.676,-2.49 -16.289,0.91 -19.16,7.6 -2.914,6.67 0.996,14.12 8.691,16.64 1.719,0.56 40.738,16.1 77.793,16.1 39.395,0 83.008,-7.98 84.844,-8.45"
         style="fill:#173e7d;fill-opacity:1;fill-rule:nonzero;stroke:none"
         id="path100"
         inkscape:connector-curvature="0" /><path
         d="m 697.512,1790.91 c 7.847,-2.11 12.246,-9.39 9.824,-16.18 -2.441,-6.84 -10.781,-10.66 -18.672,-8.54 -0.41,0.11 -41.215,7.33 -75.996,7.33 -31.543,0 -66.938,-14.34 -67.324,-14.45 -7.676,-2.53 -16.289,0.87 -19.16,7.55 -2.914,6.71 0.996,14.13 8.691,16.64 1.719,0.57 40.738,16.13 77.793,16.13 39.395,0 83.008,-7.97 84.844,-8.48"
         style="fill:#173e7d;fill-opacity:1;fill-rule:nonzero;stroke:none"
         id="path102"
         inkscape:connector-curvature="0" /><path
         d="m 697.512,1727.09 c 7.847,-2.16 12.246,-9.39 9.824,-16.19 -2.441,-6.85 -10.781,-10.65 -18.672,-8.54 -0.41,0.11 -41.215,7.37 -75.996,7.37 -31.543,0 -66.938,-14.41 -67.324,-14.5 -7.676,-2.52 -16.289,0.86 -19.16,7.55 -2.914,6.68 0.996,14.16 8.691,16.67 1.719,0.53 40.738,16.12 77.793,16.12 39.395,0 83.008,-8.03 84.844,-8.48"
         style="fill:#173e7d;fill-opacity:1;fill-rule:nonzero;stroke:none"
         id="path104"
         inkscape:connector-curvature="0" /><path
         d="m 1529.64,1164.32 c -8.05,29.37 -22.87,42.37 -42.62,52.84 -54.45,28.9 -125.54,8.65 -187.91,-12.59 -47.05,-16.03 -61.25,-20.88 -114.57,-29.04 -40.27,-6.19 -175,-23.64 -217.575,11.58 -6.113,5.04 -12.246,16.1 -12.871,23.21 -1.196,14.7 5.449,32.21 10.547,37.78 10.757,11.77 35.839,17.49 76.719,17.49 l 104.29,-1.64 c 6.55,-8.38 23.23,-21.9 65.59,-30.96 67.39,-14.38 141.49,9 141.49,9 0,0 -12.25,2.44 -22.45,10.11 -9,6.73 -8.24,16.85 -8.24,16.85 0,0 14.86,-7.17 36.48,-6.51 26.96,0.76 39.42,13.58 64.58,19.96 25.15,6.39 53.16,1.14 53.16,1.14 0,0 -25.41,27.14 -50.61,31.95 -25.09,4.79 -56.46,-1.64 -56.46,-1.64 0,0 7.87,3.51 17.23,11.97 7.5,6.73 9,18.33 9,18.33 0,0 -30.1,-11.69 -60.65,-10.09 -30.56,1.6 -28.31,12.61 -87.57,14.22 -44.94,1.21 -82.07,-25.49 -97.44,-38.49 -48.05,3.12 -85.9,4.83 -108.03,4.83 -61.093,0 -96.371,-10.01 -117.929,-33.45 -18.008,-19.56 -25.84,-44.91 -23.262,-75.33 1.988,-23.67 12.559,-43.55 31.387,-59.1 57.031,-47.17 209.924,-32.69 264.024,-23.13 60.6,10.71 78.71,15.37 113.81,27.02 l 2.01,0.67 c 27.15,9.07 109.78,36.7 144.43,18.29 7.03,-3.71 11.86,-10.68 14.78,-21.34 1.32,-4.77 1.98,-9.09 1.98,-13.05 0,-7.16 -2.19,-13.17 -6.64,-18.63 -31.55,-38.57 -150.22,-45.13 -201.76,-47.91 -5.68,1.35 -40.13,9.08 -85.9,9.35 -30.6,0.17 -56.25,-1.77 -83.39,-3.82 -49.54,-3.75 -100.75,-7.63 -185.805,2.1 -39.453,4.51 -76.426,11.72 -104.27,19.96 -1.3,10.57 -6.257,20.65 -16.824,32.49 20.406,-6.59 46.934,15.83 54.395,27 -0.098,1.12 -36.25,10.69 -38.403,34.15 -0.074,0.74 25.61,-2.12 36.274,33.06 -25.625,13.87 -17.559,18.99 -29.867,36.29 -10.856,15.19 -26.559,22.86 -45.875,22.38 7.812,1 8.511,0 17.046,4.29 11.118,5.56 18.852,20.88 29.887,20.25 -22.285,34.88 -82.133,39.48 -106.953,32.12 6.363,7.94 16.148,16.72 16.27,27.58 -33.086,-9.12 -65.508,8.09 -98.872,1.83 -27.632,-5.19 -43.418,-16.41 -52.085,-42.67 h -0.083 -1.113 -0.074 c -8.711,26.26 -24.453,37.48 -52.109,42.67 -33.364,6.26 -65.801,-10.95 -98.911,-1.83 0.176,-10.86 9.946,-19.64 16.274,-27.58 -24.77,7.36 -84.629,2.76 -106.914,-32.12 11.035,0.63 18.75,-14.69 29.859,-20.25 9.809,-4.93 11.778,-3.93 17.071,-4.29 -19.293,0.48 -35,-7.19 -45.875,-22.38 -12.344,-17.3 -4.258,-22.42 -29.868,-36.29 10.688,-35.18 36.328,-32.32 36.289,-33.06 -2.144,-23.46 -38.339,-33.03 -38.418,-34.15 7.461,-11.17 33.989,-33.59 54.414,-27 -16.753,-18.73 -19.546,-33.09 -15.718,-51.95 -26.035,19.73 -51.719,41.52 -65.371,59.6 -3.203,4.65 -13.418,38.27 -20.188,60.52 l -5.515,18.09 c -0.012,0.02 -2.715,9.61 -2.715,9.61 -8.157,29.98 -16.016,55.05 -29.629,58.38 -7.5,1.78 -14.145,2.19 -20.156,1.81 -4.711,7.34 -11.231,15.09 -18.911,17.47 -15.777,4.82 -23.418,1.36 -23.418,1.36 0,0 12.778,-9.17 17.075,-18.61 1.089,-2.42 1.793,-4.72 2.222,-6.8 -2.886,-1.63 -5.445,-3.38 -7.605,-5.15 l -1.153,-0.93 c -1.609,-1.3 -3.816,-3.12 -6.179,-5.25 -1.074,0.33 -2.168,0.59 -3.262,0.74 -16.391,2.16 -23.383,-2.61 -23.383,-2.61 0,0 8.918,-4.34 15.512,-10.42 -5.703,-7.92 -10.41,-18.11 -10.41,-30.65 0,-1.24 0.125,-2.54 0.254,-3.84 -15.664,-1.2 -21.45,-6.86 -21.45,-6.86 0,0 15.2,-4.1 22.583,-11.36 0.808,-0.82 1.511,-1.63 2.175,-2.44 -0.715,-0.8 -1.261,-1.4 -1.261,-1.4 -3.164,-4.96 -4.547,-10.59 -4.547,-16.43 0,-13.65 7.656,-28.4 18.172,-38.01 0,0 28.093,-23.26 30.711,-25.43 11.132,-24.8 23.402,-46.61 31.488,-55.78 2.488,-3.15 19.656,-32.7 37.832,-63.97 2.422,-4.172 4.898,-8.442 7.422,-12.778 3.906,-19.175 8.32,-43.074 10.293,-61.824 3.613,-33.769 0.172,-71.473 0.172,-71.473 0,0 21.875,1.083 31.796,15.34 0.2,0.352 8.071,-23.41 6.914,-50.144 -0.855,-19.778 -6.128,-47.219 -6.128,-47.219 0,0 21.328,11.301 37.378,25.496 8.071,7.133 16.25,18.918 21.196,26.66 17.637,-11.258 68.125,6.703 93.308,16.836 4.922,-10.015 11.668,-21.082 20.965,-33.609 3.676,15.113 19.809,22.676 27.285,34.765 2.278,0.02 4.563,0.028 6.86,0.04 0.918,-16.555 -3.867,-32.09 11.797,-63.047 4.429,-8.75 26.129,-41.106 41.922,-57.727 -5.977,-28 -17.313,-79.082 -29.063,-120.93 -13.43,-47.859 -24.309,-71.597 -30.527,-82.671 -17.981,-0.879 -50.926,-1.997 -61.375,-1.536 -25.051,1.204 -43.594,-4.043 -55.11,-15.578 -0.847,-0.855 -1.531,-1.726 -2.258,-2.605 -8.75,-1.211 -18.789,-3.953 -24.214,-10.059 -10.903,-12.344 -10.977,-20.781 -10.977,-20.781 0,0 13.649,7.871 24.004,7.871 0.762,0 1.465,-0.066 2.184,-0.117 -0.016,-0.867 -0.008,-1.61 0.023,-2.141 0.113,-2.41 1.543,-6.336 3.816,-11.082 -1.687,-1.23 -3.203,-2.605 -4.421,-4.179 -10.059,-13.079 -9.512,-21.485 -9.512,-21.485 0,0 12.793,8.574 23.086,9.426 3.219,-5.117 6.836,-10.41 10.625,-15.539 -0.442,-0.527 -0.903,-1.055 -1.274,-1.621 -9.058,-13.809 -7.871,-22.149 -7.871,-22.149 0,0 10.156,7.95 19.731,10.567 3.281,-3.731 6.519,-7.09 9.57,-9.778 15.059,-13.269 52.5,-4.668 99.898,7.961 l 29.415,7.254 c 20.753,3.867 33.656,12.16 43.148,27.727 2.254,3.683 4.312,9.734 7.5,19.316 l 2.793,8.281 c 6.519,18.411 11.629,30.157 24.656,51.028 0.403,0.633 13.113,21.07 30.422,49.234 15.332,12.754 33.809,27.59 47.242,36.66 20.512,13.84 61.328,34.68 61.328,34.68 0,0 -10.918,17.703 -27.105,20.098 -0.356,0.058 20.703,21.418 38.281,29.023 19.844,8.652 45.406,13.34 45.406,13.34 0,0 -9.296,19.133 -23.711,28.379 5.997,1.953 11.489,5.461 18.325,9.961 34.468,22.48 59.902,21.699 83.867,14.961 0.957,15.547 -2.969,25.066 -16.465,34.062 11.363,4.832 23.063,8.938 35.484,11.926 7.871,-13.508 16.762,-28.422 20.805,-34.16 17.774,-25.207 44.488,-59.863 66.131,-81.567 0.56,-0.543 0.82,-1.55 0.82,-2.918 0,-9.082 -11.072,-34.179 -17.385,-48.527 l -5.425,-12.371 c 0,-0.012 -21.782,-51.191 -28.125,-66.133 -12.66,-0.73 -49.399,-2.722 -62.285,-2.082 -24.418,1.156 -42.5,-3.941 -53.731,-15.152 -1.437,-1.43 -2.668,-2.895 -3.75,-4.356 -9.082,-1.625 -19.992,-4.945 -25.394,-11.82 -10.192,-13.008 -9.786,-21.375 -9.786,-21.375 0,0 13.188,8.613 23.496,9.231 1.622,0.093 3.11,0.046 4.536,-0.063 0.425,-2.754 1.922,-6.641 4.254,-11.277 -2.418,-1.731 -4.532,-3.7 -6.036,-6.004 -9.043,-13.813 -7.847,-22.102 -7.847,-22.102 0,0 12.34,9.707 22.617,11.211 0.391,0.059 0.73,0.059 1.109,0.11 2.485,-3.813 5.141,-7.661 7.895,-11.418 -0.988,-0.989 -1.914,-2.024 -2.656,-3.157 -9.063,-13.816 -7.891,-22.195 -7.891,-22.195 0,0 11.824,9.348 21.934,11.113 3.164,-3.625 6.25,-6.836 9.082,-9.328 14.429,-12.722 45.234,-5.152 87.207,6.914 l 29.863,7.817 c 20.258,3.777 32.848,11.863 42.108,27.039 0.02,0.019 7.91,16.933 7.91,16.933 3.69,8.575 7.87,18.301 11.11,23.352 4.87,7.644 9.98,16.875 15.16,26.812 7.03,6.028 13.57,11.516 18.18,15.063 13.38,10.262 47.37,28.973 47.37,28.973 0,0 -6.76,14.902 -20.63,16.289 -0.17,0.031 13.48,15.214 29.87,24.726 11.64,6.758 34.72,10.762 34.72,10.762 0,0 -15.94,13.476 -28.01,18.738 -4.86,2.113 -11.27,3.547 -17.26,4.582 -0.76,6.922 -4.4,14.668 -11.04,24.91 -11.91,18.418 5.53,58.039 18.05,80.473 6.29,-8.898 17.6,-23.652 36.43,-44.582 0,0 60.5,-66.199 73.9,-80.859 -2.6,-10.547 -11.11,-43.555 -24.51,-79.993 -9.69,-26.492 -23.5,-54.129 -30.57,-67.711 -14.57,-0.812 -47.6,-2.511 -59.66,-1.957 -24.42,1.172 -42.5,-3.921 -53.75,-15.164 -1.9,-1.894 -3.38,-3.847 -4.69,-5.793 -8.21,-1.953 -17.11,-5.386 -21.72,-11.472 -9.98,-13.203 -9.37,-21.582 -9.37,-21.582 0,0 9.87,9.289 23.29,9.636 0.63,0.024 1.17,-0.015 1.76,-0.027 0.65,-2.844 2.23,-6.687 4.52,-11.152 -2.39,-1.707 -4.46,-3.645 -5.95,-5.899 -9.04,-13.847 -7.84,-22.175 -7.84,-22.175 0,0 12.32,9.792 22.55,11.25 0.4,0.054 0.75,0.054 1.12,0.093 3.18,-4.812 6.64,-9.707 10.17,-14.351 -0.05,-0.102 -0.16,-0.176 -0.21,-0.278 -9.07,-13.789 -7.87,-22.168 -7.87,-22.168 0,0 9.1,7.239 18.2,10.188 2.63,-2.93 5.22,-5.559 7.6,-7.656 14.47,-12.774 45.39,-5.176 87.48,6.953 l 29.63,7.773 c 20.21,3.75 32.81,11.836 42.11,27.024 4.12,6.765 22.5,49.636 27.57,62.019 9.08,22.293 19.32,45.281 29.23,66.328 4.96,4.207 9.64,7.996 13.41,10.606 16.52,11.496 51.96,31.699 51.96,31.699 0,0 -7.07,15.156 -20.65,16.277 -0.17,0.051 13.88,13.508 27.93,22.461 13.01,8.332 36.64,13.039 36.64,13.039 0,0 -17.01,12.95 -29.08,18.164 -7.09,3.094 -17.17,5.047 -24.32,6.145 -2.07,10.059 -7.17,13.418 -14.8,17.281 -6.76,3.442 -16.06,8.156 -30.2,24.809 -18.18,21.386 -20.92,62.254 -20.92,103.054 0,8.965 0.14,17.93 0.28,26.68 l 0.08,39.16 c -1.21,45.996 -7.95,78.117 -14.3,99.287 59.98,5.45 169.94,17.6 214.98,72.69 13.51,16.54 20.37,35.89 20.37,57 0,9.42 -1.37,19.2 -4.12,29.23"
         style="fill:#173e7d;fill-opacity:1;fill-rule:nonzero;stroke:none"
         id="path106"
         inkscape:connector-curvature="0" /><path
         d="m 687.59,1209.51 c 9.39,6.51 31.836,25.1 19.844,47.74 -12.715,23.88 -41.914,14.13 -50.586,10.56 -1.211,1.23 -65.879,29.36 -66.758,28.87 0.601,0.42 -25.254,-29.93 -25.238,-29.93 -0.016,0 -25.758,30.35 -25.196,29.93 -0.879,0.49 -65.547,-27.64 -66.734,-28.87 -8.672,3.57 -37.871,13.32 -50.586,-10.56 -12.031,-22.64 10.406,-41.23 19.805,-47.74 -0.121,-0.39 -0.215,-0.56 -0.215,-0.56 0,0 -21.094,-37.37 -20.84,-36.92 0.332,0.6 60.934,-73.4 60.918,-73.4 0.059,0.16 -0.102,-47.61 -0.117,-47.82 0,0 24.097,-16.21 25.933,-16.7 3.852,-18.16 5.024,-27.55 9.262,-37.36 1.348,-3.184 24.449,-9.926 46.895,-10.312 0.293,0 1.816,0 1.816,0 22.422,0.386 45.523,7.128 46.875,10.312 4.219,9.81 5.406,19.2 9.258,37.36 1.851,0.49 25.801,16.7 25.801,16.7 0.054,-0.08 0,47.7 0.054,47.82 -0.054,0 60.59,74 60.922,73.4 0.235,-0.45 -20.844,36.92 -20.844,36.92 0,0 -0.117,0.17 -0.269,0.56 z m -209.504,-3.71 54.133,0.63 2.144,0.02 -2.019,-31.51 z m 126.406,-31.61 c 0.281,-2.49 8.633,-75.45 8.633,-75.45 0,0 -39.59,-21.47 -41.555,-22.55 -0.015,-2.09 -0.242,-25.14 -0.254,-26.91 1.821,-1.41 8.965,-6.76 16.372,-9.89 13.347,-5.66 26.746,-2.32 26.882,-2.28 l 3.379,0.86 -2.859,-9.99 -1.211,-0.23 c -0.637,-0.11 -15.688,-2.87 -27.961,0.84 -10.652,3.23 -16.23,7.33 -17.703,8.52 -1.035,0 -5.461,0 -6.457,0 -1.465,-1.11 -7.332,-5.27 -18.106,-8.52 -12.234,-3.71 -27.304,-0.95 -27.937,-0.84 l -1.211,0.23 -2.863,9.99 3.379,-0.86 c 0.136,-0.04 13.515,-3.38 26.921,2.28 7.368,3.13 14.536,8.5 16.34,9.89 -0.011,1.79 -0.105,25.35 -0.105,27.2 -1.606,1.14 -41.406,29.47 -41.406,29.47 0,0 70.339,0.07 74.109,0.09 0,3.82 0,98.72 0,98.72 l 58.586,0.46 7.398,0.06 c 0,0 -50.254,-29.83 -52.371,-31.09"
         style="fill:#f57c14;fill-opacity:1;fill-rule:nonzero;stroke:none"
         id="path108"
         inkscape:connector-curvature="0" /><path
         d="m 1099.25,663.879 c 7.97,7.383 11.97,11.426 11.97,16.687 0,4.512 -2.95,9.922 -8.91,19.114 -4.49,6.953 -6.3,15.3 -6.3,24.218 0,29.532 19.67,65.047 27.42,77.95 -2.21,2.769 -5.35,6.812 -9.24,12.144 -2.07,1.36 -3.89,2.571 -4.98,3.352 -5.02,3.547 -17.93,14.414 -25.98,25.011 -1.09,1.493 -2.26,3.336 -3.43,5.36 -16.65,0.488 -55.49,1.609 -95.452,-10.547 12.324,-7.09 15.172,-16.277 15.722,-28.059 -26.308,5.727 -48.515,6.067 -68.476,3.164 6.953,-11.863 14.121,-23.816 17.461,-28.543 17.422,-24.699 43.511,-58.582 64.495,-79.597 3.41,-3.418 4.88,-7.934 4.88,-13.442 0,-12.996 -8.18,-31.582 -18.36,-54.668 l -5.375,-12.261 -31.718,-74.614 -4.625,-0.281 c -2.129,-0.129 -52.188,-3.176 -68.555,-2.351 -17.871,0.847 -31.527,-2.18 -39.914,-8.684 0.988,-3.43 1.68,-7.922 0.422,-12.148 -1.653,-5.594 -5.16,-8.418 -7.969,-9.871 0.371,-0.793 0.801,-1.641 1.277,-2.571 9.832,3.281 19.231,4.207 19.231,4.207 0,0 5.426,-7.144 3.219,-16.07 -1.735,-6.828 -5.04,-10.41 -7.379,-12.199 0.679,-0.946 1.343,-1.875 2.031,-2.813 11.113,4.473 23.223,5.696 23.223,5.696 0,0 5.683,-8.672 3.789,-18.032 -1,-5.078 -3.555,-7.984 -5.899,-9.668 13.399,-4.254 48.024,5.664 69.59,11.875 l 31.25,8.149 c 16.07,2.996 25.062,8.633 32.052,20.086 l 6.93,15.066 c 3.93,9.106 8.38,19.426 12.24,25.5 9.66,15.137 20.55,37.305 31.08,58.738 13.71,27.922 25.57,52.036 34.28,60.102"
         style="fill:#f57c14;fill-opacity:1;fill-rule:nonzero;stroke:none"
         id="path110"
         inkscape:connector-curvature="0" /><path
         d="m 502.082,856.398 c 0.035,-0.312 0.008,-0.585 0.027,-0.898 0.086,0 0.164,0 0.266,0 -0.109,0.301 -0.18,0.594 -0.293,0.898"
         style="fill:#f57c14;fill-opacity:1;fill-rule:nonzero;stroke:none"
         id="path112"
         inkscape:connector-curvature="0" /><path
         d="m 437.59,942.527 c -9.692,-14.586 -27.27,-21.382 -50.039,-24.214 4.297,22.734 0.387,38.257 -7.988,56.25 -7.29,15.859 -27.305,46.957 -33.247,64.587 -1.675,4.99 -3.257,9.62 -4.707,14 -31.675,23.03 -66.472,51.05 -83.941,74.19 -4.133,5.45 -10.344,25 -22.563,65.21 l -5.503,18.02 -2.852,10.11 c -8.051,29.57 -14.387,45.62 -18.84,47.75 -3.058,0.71 -5.867,1.08 -8.562,1.3 l 0.015,-0.04 c 0,0 -1.402,-9.05 -16.636,-8.34 -3.555,0.15 -6.528,1.34 -8.832,2.67 -1.305,-0.84 -2.54,-1.7 -3.59,-2.57 l -1.25,-1 c -0.762,-0.61 -1.516,-1.24 -2.266,-1.88 8.914,-8.07 15.352,-18.53 15.352,-18.53 0,0 -3.403,-9.27 -15.024,-11.34 -8.355,-1.44 -14.859,4.5 -14.859,4.5 0,0 0.117,2.89 -1.074,7.06 -3.516,-6.8 -5.149,-14.7 -3.352,-23.98 11.785,-6.08 21.965,-17.08 21.965,-17.08 0,0 -0.277,-8.71 -12.383,-14.82 -4.57,-2.33 -9.238,-0.98 -12.285,0.48 -1.527,-8.98 3.516,-21.66 12.848,-30.19 l 32.804,-27.13 0.711,-1.61 c 10.434,-23.49 22.68,-45.53 29.809,-53.61 2.683,-3.06 12.422,-19.67 39.551,-66.36 35.984,-61.929 90.371,-155.511 104.355,-171.085 5.391,-5.039 42.469,3.609 79.102,18.223 -13.086,36.179 -1.719,58.308 -6.719,89.429"
         style="fill:#f57c14;fill-opacity:1;fill-rule:nonzero;stroke:none"
         id="path114"
         inkscape:connector-curvature="0" /><path
         d="m 1515.28,1160.45 c -6.68,24.39 -17.97,34.44 -35.17,43.57 -49.18,26.09 -116.66,6.69 -176.06,-13.54 -50.57,-17.24 -64.51,-21.61 -117.12,-29.67 -53.62,-8.23 -183.33,-23.28 -229.418,14.83 -9.242,7.64 -17.266,22.33 -18.262,33.51 -1.484,18.37 6.27,40.27 14.434,49.18 14.121,15.46 41.191,22.36 87.796,22.36 0,0 69.91,-1.1 108.55,-1.71 l 8.15,7.34 -7.95,8.5 c -48.33,3.16 -86.37,4.91 -108.4,4.91 -56.471,0 -88.439,-8.56 -106.896,-28.6 -15.039,-16.36 -21.543,-37.86 -19.356,-63.92 1.656,-19.51 10.406,-35.92 26.016,-48.79 48.472,-40.12 190.626,-30.75 251.856,-19.92 59.66,10.52 77.42,15.11 111.68,26.46 l 1.99,0.68 c 31.68,10.59 115.88,38.74 156.21,17.32 10.88,-5.75 18.17,-15.77 22.23,-30.62 4.98,-18.1 2.52,-32.87 -7.52,-45.15 -35.9,-43.89 -151.39,-50.11 -213.42,-53.45 l -1.35,-0.07 -1.07,0.28 c -0.37,0.08 -36.39,8.89 -83.52,9.16 -29.98,0.18 -55.33,-1.74 -82.16,-3.77 -50.24,-3.8 -102.172,-7.74 -188.637,2.15 -38.418,4.4 -74.629,11.4 -102.969,19.52 -1.789,-11.61 -6.43,-24.76 -12.168,-41.82 -5.937,-17.64 -25.91,-48.729 -33.266,-64.588 -8.347,-17.993 -12.261,-33.516 -8.003,-56.25 -22.739,2.832 -40.305,9.628 -50.02,24.214 -6.816,-42.691 17.305,-68.336 -33.43,-136.773 -5.066,20.699 -33.507,27.187 -31.007,50.645 -8.922,-24.375 5.414,-38.516 -14.938,-78.887 -5.129,-10.156 -33.574,-52.094 -48.984,-64.317 -6.25,-29.054 -17.231,-78.039 -28.535,-118.363 -15.43,-54.988 -28.032,-79.898 -34.165,-89.859 l -2.066,-3.352 -3.93,-0.207 c -16.316,-0.867 -54.714,-2.254 -66.875,-1.719 -16.89,0.813 -30.113,-1.765 -38.882,-7.371 0.796,-4.211 1.257,-10.168 -1.293,-14.531 -3.043,-5.223 -7.293,-7.512 -9.52,-8.406 0.383,-0.903 0.852,-1.899 1.418,-3.047 10.938,3.113 21.973,3.355 21.973,3.355 0,0 4.547,-9.187 -0.16,-20.308 -1.903,-4.516 -4.571,-6.75 -6.512,-7.863 1.062,-1.512 2.137,-3.008 3.242,-4.5 11.594,5.125 25.129,6.472 25.129,6.472 0,0 5.269,-6.844 1.836,-20.957 -1.074,-4.394 -3.442,-6.594 -5.442,-7.723 15.286,-4.765 58.211,6.637 82.332,13.067 0,0 30.508,7.508 30.52,7.508 16.582,3.093 25.871,8.918 33.105,20.8 1.477,2.415 3.915,9.747 6.067,16.219 0,0 2.848,8.481 2.871,8.52 6.773,19.121 12.398,32.078 26.094,54.011 31.226,49.954 123.55,200.938 127.293,213.067 0.109,0.625 0.148,1.387 0.148,2.273 0,7.981 -3.906,25.637 -7.055,36.868 l -1.988,7.136 c 0,0 298.937,87.414 316.247,92.473 -6.03,10.422 -18.4,31.797 -18.4,31.797 l 10.9,9.836 c 0.98,-0.703 23.94,-17.395 36.58,-30.024 11.08,-11.101 21.78,-28.238 33.11,-46.375 l 5.78,-9.211 c 12.79,-20.269 25.41,-35.293 25.53,-35.445 l 0.47,-0.551 0.33,-0.601 c 0.1,-0.168 10.1,-17.563 41.4,-52.364 l 79.16,-86.64 -0.87,-3.84 c -0.1,-0.399 -9.48,-40.731 -25.96,-85.574 -10.8,-29.551 -26.89,-61.106 -33.3,-73.301 l -1.99,-3.75 -4.22,-0.246 c -15.2,-0.86 -51.97,-2.813 -65.53,-2.188 -16.74,0.801 -29.79,-1.797 -38.26,-7.468 1.15,-3.95 2.22,-10.032 -0.1,-14.805 -2.6,-5.293 -6.39,-8.203 -8.56,-9.543 0.36,-0.684 0.73,-1.414 1.14,-2.188 9.88,3.313 19.36,4.258 19.36,4.258 0,0 4.8,-7.801 3.24,-17.715 -1.1,-6.629 -4.53,-9.636 -7.12,-11.004 0.96,-1.332 1.94,-2.648 2.92,-3.957 11.89,5.75 26.74,7.239 26.74,7.239 0,0 5,-6.899 3.3,-17.539 -0.79,-4.946 -4.14,-8.282 -6.8,-10.227 15.37,-1.816 46.17,7.039 65.97,12.742 0,0 31.04,8.11 31.06,8.11 16.03,2.976 25.02,8.609 32.05,20.093 3.03,4.973 20.06,44.204 26.51,59.883 18.75,46.02 46.42,104.199 64.35,135.324 l 9.96,15.684 c 5.88,8.77 10.96,16.34 10.49,21.492 -0.63,7.016 -1,7.207 -7.4,10.449 -7.46,3.793 -18.73,9.512 -34.85,28.469 -25.81,30.371 -24.96,88.438 -24.21,139.668 l 0.07,38.543 c -1.32,50.649 -9.53,84.445 -16.17,103.872 l -3.11,9.05 9.54,0.85 c 55.37,4.92 170.54,15.16 213.8,68.09 16.37,20.01 21,45.17 13.42,72.76"
         style="fill:#f57c14;fill-opacity:1;fill-rule:nonzero;stroke:none"
         id="path116"
         inkscape:connector-curvature="0" /><path
         d="m 1216.93,1754.95 c 6.48,-8.47 11.92,-17.79 15.99,-27.82 -5.25,-0.7 -10.57,-1.19 -15.99,-1.19 -5.45,0 -10.77,0.43 -16.02,1.13 4.08,10.06 9.51,19.39 16.02,27.88"
         style="fill:#ffffff;fill-opacity:1;fill-rule:nonzero;stroke:none"
         id="path118"
         inkscape:connector-curvature="0" /><path
         d="m 1395.32,1840.12 c 0.06,1.92 0.29,3.81 0.29,5.74 0,98.53 -80.15,178.69 -178.68,178.69 -98.54,0 -178.7,-80.16 -178.7,-178.69 l 0.21,-5.81 c -56.631,-30.01 -95.335,-89.51 -95.335,-157.94 0,-98.52 80.165,-178.69 178.695,-178.69 33.98,0 66.72,9.61 95.24,27.62 27.56,-17.39 60.08,-27.62 95,-27.62 98.54,0 178.69,80.17 178.69,178.69 0,66.03 -37.27,127.27 -95.41,158.01 z m -192.22,-171.94 13.83,-1.01 c 4.66,0 9.24,0.35 13.82,0.7 -1.86,-14.4 -6.52,-28.14 -13.79,-40.67 -7.16,12.35 -11.97,26.2 -13.86,40.98 z m 97.18,19.75 c 34.06,18.05 61.47,46.81 78.03,81.73 27.47,-20.71 43.66,-52.61 43.66,-87.55 0,-60.61 -49.31,-109.92 -109.93,-109.92 -15.25,0 -29.79,3.14 -43.02,8.78 20.58,29.79 31.47,64.48 31.47,101.14 z M 1121.8,1860.8 c -4.69,0 -9.29,-0.34 -13.9,-0.7 6.9,54.49 52.79,95.69 109.03,95.69 55.87,0 102.05,-41.94 108.93,-95.99 l -13.82,1 c -33.85,0 -66.46,-9.53 -94.92,-27.41 -27.83,17.51 -60.59,27.41 -95.32,27.41 z m 190.24,-68.76 0.6,-0.04 c -7.39,-13.08 -17.39,-24.45 -29.29,-33.52 -4.1,8.71 -8.79,17.01 -14.1,24.79 13.48,5.68 28.05,8.77 42.79,8.77 z m -256.58,-22.48 c 16.5,-34.97 43.77,-63.44 78.13,-81.59 -0.07,-1.95 -0.24,-3.89 -0.24,-5.86 0,-37.48 11.66,-72.27 31.46,-101.04 -13.53,-5.75 -28.17,-8.88 -43.01,-8.88 -60.62,0 -109.92,49.31 -109.92,109.92 0,35.69 17.15,67.36 43.58,87.45 z m 95.01,-11.18 c -11.92,9.1 -21.92,20.6 -29.29,33.63 0.21,0 0.41,0.03 0.62,0.03 15.15,0 29.7,-3.11 43.04,-8.75 -5.51,-7.97 -10.28,-16.29 -14.37,-24.91"
         style="fill:#f57c14;fill-opacity:1;fill-rule:nonzero;stroke:none"
         id="path120"
         inkscape:connector-curvature="0" /><path
         d="m 1250.85,1669.69 c 10.09,1.97 19.8,4.88 29.2,8.47 -0.61,-32.12 -10.61,-62.44 -29.05,-88.44 -8.08,5.38 -15.35,11.83 -21.73,19.09 12.29,18.22 19.67,38.98 21.58,60.88"
         style="fill:#ffffff;fill-opacity:1;fill-rule:nonzero;stroke:none"
         id="path122"
         inkscape:connector-curvature="0" /><path
         d="m 1216.89,2003.53 c 87.51,0 158.7,-71.19 158.7,-158.69 0,-87.5 -71.19,-158.69 -158.7,-158.69 l -14.55,1.06 c 0.52,9.74 2.26,19.24 5.25,28.32 l 9.3,-0.62 c 71.65,0 129.93,58.29 129.93,129.93 0,71.64 -58.28,129.93 -129.93,129.93 -68.23,0 -123.44,-51.38 -129.26,-118.35 -10.1,-1.96 -19.85,-4.88 -29.27,-8.47 1.68,86.05 72.08,155.58 158.53,155.58"
         style="fill:#ffffff;fill-opacity:1;fill-rule:nonzero;stroke:none"
         id="path124"
         inkscape:connector-curvature="0" /><path
         d="m 1312.01,1839.78 14.51,-1.05 c -0.55,-9.83 -2.33,-19.33 -5.3,-28.32 l -9.21,0.61 c -19.21,0 -38.1,-4.51 -55.34,-12.65 -6.71,7.74 -13.98,14.9 -21.85,21.32 23.53,13.14 49.91,20.09 77.19,20.09"
         style="fill:#ffffff;fill-opacity:1;fill-rule:nonzero;stroke:none"
         id="path126"
         inkscape:connector-curvature="0" /><path
         d="m 1121.77,1522.4 c -87.5,0 -158.692,71.19 -158.692,158.69 0,87.5 71.192,158.69 158.692,158.69 62.95,0 118.69,-36.28 144.43,-93.05 -8.52,-4.3 -17.63,-7.62 -27.24,-9.59 -21.53,45.12 -66.66,73.88 -117.19,73.88 -71.64,0 -129.922,-58.29 -129.922,-129.93 0,-71.64 58.282,-129.93 129.922,-129.93 19.32,0 38.32,4.56 55.63,12.79 6.69,-7.69 13.94,-14.87 21.85,-21.32 -23.6,-13.24 -50.1,-20.23 -77.48,-20.23"
         style="fill:#ffffff;fill-opacity:1;fill-rule:nonzero;stroke:none"
         id="path128"
         inkscape:connector-curvature="0" /><path
         d="m 1099.73,1788.79 c 9.68,-20.15 24.59,-37.68 42.94,-50.51 -3.24,-9.62 -5.63,-19.53 -7.18,-29.65 -27.74,16.57 -49.56,41.13 -62.95,70.6 8.51,4.29 17.6,7.6 27.19,9.56"
         style="fill:#ffffff;fill-opacity:1;fill-rule:nonzero;stroke:none"
         id="path130"
         inkscape:connector-curvature="0" /><path
         d="m 1312.01,1522.4 c -87.51,0 -158.69,71.19 -158.69,158.69 0,33.31 10.16,64.79 29.28,91.66 8.04,-5.33 15.33,-11.75 21.75,-19.07 -14.55,-21.47 -22.26,-46.38 -22.26,-72.59 0,-71.64 58.28,-129.93 129.92,-129.93 71.65,0 129.93,58.29 129.93,129.93 0,43.07 -20.88,82.17 -55.93,106.49 3.26,9.59 5.64,19.53 7.24,29.76 47.44,-28.41 77.45,-80.41 77.45,-136.25 0,-87.5 -71.18,-158.69 -158.69,-158.69"
         style="fill:#ffffff;fill-opacity:1;fill-rule:nonzero;stroke:none"
         id="path132"
         inkscape:connector-curvature="0" /></g></g></svg>