<?xml version="1.0" encoding="utf-8" standalone="no"?>
<!DOCTYPE svg PUBLIC "-//W3C//DTD SVG 1.1//EN"
  "http://www.w3.org/Graphics/SVG/1.1/DTD/svg11.dtd">
<!-- Created with matplotlib (https://matplotlib.org/) -->
<svg height="180pt" version="1.1" viewBox="0 0 360 180" width="360pt" xmlns="http://www.w3.org/2000/svg" xmlns:xlink="http://www.w3.org/1999/xlink">
 <defs>
  <style type="text/css">
*{stroke-linecap:butt;stroke-linejoin:round;}
  </style>
 </defs>
 <g id="figure_1">
  <g id="patch_1">
   <path d="M 0 180 
L 360 180 
L 360 0 
L 0 0 
z
" style="fill:#ffffff;"/>
  </g>
  <g id="axes_1">
   <g id="patch_2">
    <path d="M 28.68 132.435 
L 358.32 132.435 
L 358.32 23.9895 
L 28.68 23.9895 
z
" style="fill:#ffffff;"/>
   </g>
   <g id="matplotlib.axis_1">
    <g id="xtick_1">
     <g id="line2d_1">
      <defs>
       <path d="M 0 0 
L 0 3.5 
" id="md473bf0bdc" style="stroke:#000000;stroke-width:0.8;"/>
      </defs>
      <g>
       <use style="stroke:#000000;stroke-width:0.8;" x="43.663636" xlink:href="#md473bf0bdc" y="132.435"/>
      </g>
     </g>
     <g id="text_1">
      <!-- 0.0 -->
      <defs>
       <path d="M 48.90625 31.90625 
C 48.90625 42.59375 47.796875 49.09375 44.5 55.5 
C 40.09375 64.296875 32 66.5 26.5 66.5 
C 13.90625 66.5 9.296875 57.09375 7.90625 54.296875 
C 4.296875 47 4.09375 37.09375 4.09375 31.90625 
C 4.09375 25.296875 4.40625 15.203125 9.203125 7.203125 
C 13.796875 -0.203125 21.203125 -2.09375 26.5 -2.09375 
C 31.296875 -2.09375 39.90625 -0.59375 44.90625 9.296875 
C 48.59375 16.5 48.90625 25.40625 48.90625 31.90625 
z
M 40 33.09375 
C 40 27.203125 40 18.203125 38.796875 12.59375 
C 36.703125 2.09375 29.796875 0.703125 26.5 0.703125 
C 23.09375 0.703125 16.203125 2.296875 14.09375 12.796875 
C 13 18.5 13 27.90625 13 33.09375 
C 13 40 13 47 14.09375 52.5 
C 16.203125 62.703125 24 63.703125 26.5 63.703125 
C 29.90625 63.703125 36.796875 62 38.796875 52.90625 
C 40 47.40625 40 39.90625 40 33.09375 
z
" id="LMRoman8-Regular-48"/>
       <path d="M 20.296875 5.5 
C 20.296875 8.90625 17.59375 11.09375 14.796875 11.09375 
C 11.40625 11.09375 9.203125 8.40625 9.203125 5.59375 
C 9.203125 2.203125 11.90625 0 14.703125 0 
C 18.09375 0 20.296875 2.703125 20.296875 5.5 
z
" id="LMRoman8-Regular-46"/>
      </defs>
      <g transform="translate(39.593011 143.599375)scale(0.06 -0.06)">
       <use xlink:href="#LMRoman8-Regular-48"/>
       <use x="53.099991" xlink:href="#LMRoman8-Regular-46"/>
       <use x="82.599976" xlink:href="#LMRoman8-Regular-48"/>
      </g>
     </g>
    </g>
    <g id="xtick_2">
     <g id="line2d_2">
      <g>
       <use style="stroke:#000000;stroke-width:0.8;" x="103.598182" xlink:href="#md473bf0bdc" y="132.435"/>
      </g>
     </g>
     <g id="text_2">
      <!-- 0.2 -->
      <defs>
       <path d="M 47.703125 17.90625 
L 44.59375 17.90625 
C 44.296875 15.90625 43.5 10.90625 42.296875 9 
C 41.703125 8.203125 34.09375 8.203125 32.5 8.203125 
L 14.703125 8.203125 
L 28.203125 20.40625 
C 29.796875 21.90625 34 25.203125 35.59375 26.59375 
C 41.796875 32.296875 47.703125 37.796875 47.703125 46.90625 
C 47.703125 58.796875 37.703125 66.5 25.203125 66.5 
C 13.203125 66.5 5.296875 57.40625 5.296875 48.5 
C 5.296875 43.59375 9.203125 42.90625 10.59375 42.90625 
C 12.703125 42.90625 15.796875 44.40625 15.796875 48.203125 
C 15.796875 53.40625 10.796875 53.40625 9.59375 53.40625 
C 12.5 60.703125 19.203125 63.203125 24.09375 63.203125 
C 33.40625 63.203125 38.203125 55.296875 38.203125 46.90625 
C 38.203125 36.5 30.90625 28.90625 19.09375 16.796875 
L 6.5 3.796875 
C 5.296875 2.703125 5.296875 2.5 5.296875 0 
L 44.796875 0 
z
" id="LMRoman8-Regular-50"/>
      </defs>
      <g transform="translate(99.527557 143.599375)scale(0.06 -0.06)">
       <use xlink:href="#LMRoman8-Regular-48"/>
       <use x="53.099991" xlink:href="#LMRoman8-Regular-46"/>
       <use x="82.599976" xlink:href="#LMRoman8-Regular-50"/>
      </g>
     </g>
    </g>
    <g id="xtick_3">
     <g id="line2d_3">
      <g>
       <use style="stroke:#000000;stroke-width:0.8;" x="163.532727" xlink:href="#md473bf0bdc" y="132.435"/>
      </g>
     </g>
     <g id="text_3">
      <!-- 0.4 -->
      <defs>
       <path d="M 50 16.40625 
L 50 19.703125 
L 39.40625 19.703125 
L 39.40625 64.703125 
C 39.40625 66.703125 39.40625 67.5 37.296875 67.5 
C 36 67.5 35.90625 67.40625 34.90625 66 
L 3 19.703125 
L 3 16.40625 
L 31.203125 16.40625 
L 31.203125 8.09375 
C 31.203125 4.40625 30.90625 3.296875 23.203125 3.296875 
L 20.90625 3.296875 
L 20.90625 0 
L 35.296875 0.296875 
L 49.703125 0 
L 49.703125 3.296875 
L 47.40625 3.296875 
C 39.703125 3.296875 39.40625 4.40625 39.40625 8.09375 
L 39.40625 16.40625 
z
M 31.90625 19.703125 
L 6.5 19.703125 
L 31.90625 56.59375 
z
" id="LMRoman8-Regular-52"/>
      </defs>
      <g transform="translate(159.462102 143.599375)scale(0.06 -0.06)">
       <use xlink:href="#LMRoman8-Regular-48"/>
       <use x="53.099991" xlink:href="#LMRoman8-Regular-46"/>
       <use x="82.599976" xlink:href="#LMRoman8-Regular-52"/>
      </g>
     </g>
    </g>
    <g id="xtick_4">
     <g id="line2d_4">
      <g>
       <use style="stroke:#000000;stroke-width:0.8;" x="223.467273" xlink:href="#md473bf0bdc" y="132.435"/>
      </g>
     </g>
     <g id="text_4">
      <!-- 0.6 -->
      <defs>
       <path d="M 48.59375 20.296875 
C 48.59375 33.40625 38.703125 42.59375 27.59375 42.59375 
C 20.40625 42.59375 16.09375 38 13.796875 33.09375 
C 13.796875 41.40625 14.5 48.703125 18.09375 54.796875 
C 21.09375 59.796875 26.203125 63.90625 32.5 63.90625 
C 34.5 63.90625 39.09375 63.59375 41.40625 60.09375 
C 36.90625 59.90625 36.5 56.5 36.5 55.40625 
C 36.5 52.40625 38.796875 50.703125 41.203125 50.703125 
C 43 50.703125 45.90625 51.796875 45.90625 55.59375 
C 45.90625 61.59375 41.40625 66.5 32.40625 66.5 
C 18.5 66.5 4.40625 53.296875 4.40625 31.703125 
C 4.40625 4.59375 17 -2.09375 26.703125 -2.09375 
C 31.5 -2.09375 36.703125 -0.796875 41.203125 3.5 
C 45.203125 7.40625 48.59375 11.59375 48.59375 20.296875 
z
M 39.203125 20.40625 
C 39.203125 15.296875 39.203125 10.90625 37.203125 7.296875 
C 34.59375 2.703125 31.09375 0.90625 26.703125 0.90625 
C 21.40625 0.90625 18.09375 4.59375 16.59375 7.40625 
C 14.296875 11.90625 14.09375 18.703125 14.09375 22.5 
C 14.09375 32.40625 19.5 39.796875 27.203125 39.796875 
C 32.203125 39.796875 35.203125 37.203125 37.09375 33.703125 
C 39.203125 30 39.203125 25.5 39.203125 20.40625 
z
" id="LMRoman8-Regular-54"/>
      </defs>
      <g transform="translate(219.396648 143.599375)scale(0.06 -0.06)">
       <use xlink:href="#LMRoman8-Regular-48"/>
       <use x="53.099991" xlink:href="#LMRoman8-Regular-46"/>
       <use x="82.599976" xlink:href="#LMRoman8-Regular-54"/>
      </g>
     </g>
    </g>
    <g id="xtick_5">
     <g id="line2d_5">
      <g>
       <use style="stroke:#000000;stroke-width:0.8;" x="283.401818" xlink:href="#md473bf0bdc" y="132.435"/>
      </g>
     </g>
     <g id="text_5">
      <!-- 0.8 -->
      <defs>
       <path d="M 48.59375 16.796875 
C 48.59375 23.09375 45.203125 27.296875 43.59375 29 
C 41.90625 30.59375 41.796875 30.703125 33.203125 36.09375 
C 38.796875 38.796875 45.59375 43.796875 45.59375 51.59375 
C 45.59375 61.09375 35.90625 66.5 26.59375 66.5 
C 16 66.5 7.40625 59.203125 7.40625 49.796875 
C 7.40625 46.09375 8.703125 42.703125 11.203125 39.796875 
C 12.90625 37.703125 13.296875 37.5 19.5 33.59375 
C 7.09375 28.09375 4.40625 20.796875 4.40625 15.203125 
C 4.40625 4.203125 15.5 -2.09375 26.40625 -2.09375 
C 38.703125 -2.09375 48.59375 6.203125 48.59375 16.796875 
z
M 40.59375 51.59375 
C 40.59375 45.796875 36.09375 40.90625 30.203125 38 
L 17.703125 45.5 
C 14.796875 47.203125 12.40625 50.09375 12.40625 53.59375 
C 12.40625 59.90625 19.296875 63.90625 26.40625 63.90625 
C 34.203125 63.90625 40.59375 58.59375 40.59375 51.59375 
z
M 42.90625 13.40625 
C 42.90625 5.703125 34.796875 0.90625 26.59375 0.90625 
C 17.703125 0.90625 10.09375 7 10.09375 15.203125 
C 10.09375 22.703125 15.703125 28.59375 22.59375 31.796875 
L 36.09375 23.5 
C 37.703125 22.59375 42.90625 19.40625 42.90625 13.40625 
z
" id="LMRoman8-Regular-56"/>
      </defs>
      <g transform="translate(279.331193 143.599375)scale(0.06 -0.06)">
       <use xlink:href="#LMRoman8-Regular-48"/>
       <use x="53.099991" xlink:href="#LMRoman8-Regular-46"/>
       <use x="82.599976" xlink:href="#LMRoman8-Regular-56"/>
      </g>
     </g>
    </g>
    <g id="xtick_6">
     <g id="line2d_6">
      <g>
       <use style="stroke:#000000;stroke-width:0.8;" x="343.336364" xlink:href="#md473bf0bdc" y="132.435"/>
      </g>
     </g>
     <g id="text_6">
      <!-- 1.0 -->
      <defs>
       <path d="M 44.703125 0 
L 44.703125 3.296875 
L 41.203125 3.296875 
C 31.703125 3.296875 31.40625 4.5 31.40625 8.203125 
L 31.40625 63.703125 
C 31.40625 66.40625 31.203125 66.5 28.5 66.5 
C 24.40625 62.5 19.09375 60.09375 9.59375 60.09375 
L 9.59375 56.796875 
C 12.296875 56.796875 17.703125 56.796875 23.5 59.5 
L 23.5 8.203125 
C 23.5 4.5 23.203125 3.296875 13.703125 3.296875 
L 10.203125 3.296875 
L 10.203125 0 
C 14.296875 0.296875 22.90625 0.296875 27.40625 0.296875 
C 31.90625 0.296875 40.59375 0.296875 44.703125 0 
z
" id="LMRoman8-Regular-49"/>
      </defs>
      <g transform="translate(339.265739 143.599375)scale(0.06 -0.06)">
       <use xlink:href="#LMRoman8-Regular-49"/>
       <use x="53.099991" xlink:href="#LMRoman8-Regular-46"/>
       <use x="82.599976" xlink:href="#LMRoman8-Regular-48"/>
      </g>
     </g>
    </g>
    <g id="text_7">
     <!-- $s$ -->
     <defs>
      <path d="M 8.6875 6.109375 
Q 11.375 1.515625 19.484375 1.515625 
Q 23 1.515625 26.171875 2.703125 
Q 29.34375 3.90625 31.421875 6.296875 
Q 33.5 8.6875 33.5 12.109375 
Q 33.5 14.703125 31.640625 16.359375 
Q 29.78125 18.015625 27.09375 18.609375 
L 21.6875 19.671875 
Q 17.96875 20.609375 15.578125 23.140625 
Q 13.1875 25.6875 13.1875 29.296875 
Q 13.1875 33.734375 15.59375 37.15625 
Q 18.015625 40.578125 21.96875 42.375 
Q 25.921875 44.1875 30.171875 44.1875 
Q 34.71875 44.1875 38.296875 42.015625 
Q 41.890625 39.84375 41.890625 35.59375 
Q 41.890625 33.296875 40.59375 31.53125 
Q 39.3125 29.78125 37.015625 29.78125 
Q 35.6875 29.78125 34.734375 30.640625 
Q 33.796875 31.5 33.796875 32.8125 
Q 33.796875 33.984375 34.453125 35.078125 
Q 35.109375 36.1875 36.203125 36.84375 
Q 37.3125 37.5 38.484375 37.5 
Q 37.59375 39.65625 35.171875 40.625 
Q 32.765625 41.609375 29.984375 41.609375 
Q 27.4375 41.609375 24.890625 40.578125 
Q 22.359375 39.546875 20.8125 37.5625 
Q 19.28125 35.59375 19.28125 32.90625 
Q 19.28125 31.109375 20.546875 29.734375 
Q 21.828125 28.375 23.6875 27.78125 
L 29.5 26.609375 
Q 32.28125 26.03125 34.59375 24.53125 
Q 36.921875 23.046875 38.25 20.765625 
Q 39.59375 18.5 39.59375 15.578125 
Q 39.59375 11.859375 37.515625 8.25 
Q 35.453125 4.640625 32.421875 2.484375 
Q 27.09375 -1.125 19.390625 -1.125 
Q 14.0625 -1.125 9.609375 1.3125 
Q 5.171875 3.765625 5.171875 8.59375 
Q 5.171875 11.328125 6.75 13.34375 
Q 8.34375 15.375 11.078125 15.375 
Q 12.703125 15.375 13.796875 14.390625 
Q 14.890625 13.421875 14.890625 11.8125 
Q 14.890625 9.515625 13.171875 7.8125 
Q 11.46875 6.109375 9.1875 6.109375 
z
" id="Cmmi10-115"/>
     </defs>
     <g transform="translate(191.15 146.704375)scale(0.1 -0.1)">
      <use transform="translate(0 0.8125)" xlink:href="#Cmmi10-115"/>
     </g>
    </g>
   </g>
   <g id="matplotlib.axis_2">
    <g id="ytick_1">
     <g id="line2d_7">
      <defs>
       <path d="M 0 0 
L -3.5 0 
" id="m10ba66f459" style="stroke:#000000;stroke-width:0.8;"/>
      </defs>
      <g>
       <use style="stroke:#000000;stroke-width:0.8;" x="28.68" xlink:href="#m10ba66f459" y="127.505659"/>
      </g>
     </g>
     <g id="text_8">
      <!-- 0.0 -->
      <g transform="translate(13.53875 129.587847)scale(0.06 -0.06)">
       <use xlink:href="#LMRoman8-Regular-48"/>
       <use x="53.099991" xlink:href="#LMRoman8-Regular-46"/>
       <use x="82.599976" xlink:href="#LMRoman8-Regular-48"/>
      </g>
     </g>
    </g>
    <g id="ytick_2">
     <g id="line2d_8">
      <g>
       <use style="stroke:#000000;stroke-width:0.8;" x="28.68" xlink:href="#m10ba66f459" y="107.788295"/>
      </g>
     </g>
     <g id="text_9">
      <!-- 0.2 -->
      <g transform="translate(13.53875 109.870483)scale(0.06 -0.06)">
       <use xlink:href="#LMRoman8-Regular-48"/>
       <use x="53.099991" xlink:href="#LMRoman8-Regular-46"/>
       <use x="82.599976" xlink:href="#LMRoman8-Regular-50"/>
      </g>
     </g>
    </g>
    <g id="ytick_3">
     <g id="line2d_9">
      <g>
       <use style="stroke:#000000;stroke-width:0.8;" x="28.68" xlink:href="#m10ba66f459" y="88.070932"/>
      </g>
     </g>
     <g id="text_10">
      <!-- 0.4 -->
      <g transform="translate(13.53875 90.153119)scale(0.06 -0.06)">
       <use xlink:href="#LMRoman8-Regular-48"/>
       <use x="53.099991" xlink:href="#LMRoman8-Regular-46"/>
       <use x="82.599976" xlink:href="#LMRoman8-Regular-52"/>
      </g>
     </g>
    </g>
    <g id="ytick_4">
     <g id="line2d_10">
      <g>
       <use style="stroke:#000000;stroke-width:0.8;" x="28.68" xlink:href="#m10ba66f459" y="68.353568"/>
      </g>
     </g>
     <g id="text_11">
      <!-- 0.6 -->
      <g transform="translate(13.53875 70.435756)scale(0.06 -0.06)">
       <use xlink:href="#LMRoman8-Regular-48"/>
       <use x="53.099991" xlink:href="#LMRoman8-Regular-46"/>
       <use x="82.599976" xlink:href="#LMRoman8-Regular-54"/>
      </g>
     </g>
    </g>
    <g id="ytick_5">
     <g id="line2d_11">
      <g>
       <use style="stroke:#000000;stroke-width:0.8;" x="28.68" xlink:href="#m10ba66f459" y="48.636205"/>
      </g>
     </g>
     <g id="text_12">
      <!-- 0.8 -->
      <g transform="translate(13.53875 50.718392)scale(0.06 -0.06)">
       <use xlink:href="#LMRoman8-Regular-48"/>
       <use x="53.099991" xlink:href="#LMRoman8-Regular-46"/>
       <use x="82.599976" xlink:href="#LMRoman8-Regular-56"/>
      </g>
     </g>
    </g>
    <g id="ytick_6">
     <g id="line2d_12">
      <g>
       <use style="stroke:#000000;stroke-width:0.8;" x="28.68" xlink:href="#m10ba66f459" y="28.918841"/>
      </g>
     </g>
     <g id="text_13">
      <!-- 1.0 -->
      <g transform="translate(13.53875 31.001028)scale(0.06 -0.06)">
       <use xlink:href="#LMRoman8-Regular-49"/>
       <use x="53.099991" xlink:href="#LMRoman8-Regular-46"/>
       <use x="82.599976" xlink:href="#LMRoman8-Regular-48"/>
      </g>
     </g>
    </g>
    <g id="text_14">
     <!-- $\phi_b(s)$ -->
     <defs>
      <path d="M 19.390625 -19.484375 
L 23.875 -1.421875 
Q 18.796875 -1.421875 14.40625 0.953125 
Q 10.015625 3.328125 7.34375 7.5625 
Q 4.6875 11.8125 4.6875 16.796875 
Q 4.6875 22.21875 7.375 27.140625 
Q 10.0625 32.078125 14.71875 36.109375 
Q 19.390625 40.140625 24.75 42.3125 
Q 30.125 44.484375 35.40625 44.484375 
L 41.40625 68.796875 
Q 41.609375 69.390625 42.1875 69.390625 
L 43.40625 69.390625 
Q 43.796875 69.390625 44.03125 69.046875 
Q 44.28125 68.703125 44.28125 68.40625 
L 38.28125 44.484375 
Q 42.046875 44.484375 45.5625 43.109375 
Q 49.078125 41.75 51.78125 39.28125 
Q 54.5 36.8125 56 33.46875 
Q 57.515625 30.125 57.515625 26.3125 
Q 57.515625 20.90625 54.828125 15.96875 
Q 52.15625 11.03125 47.609375 7.078125 
Q 43.0625 3.125 37.46875 0.84375 
Q 31.890625 -1.421875 26.8125 -1.421875 
L 22.21875 -19.921875 
Q 22.015625 -20.515625 21.390625 -20.515625 
L 20.21875 -20.515625 
Q 19.828125 -20.515625 19.609375 -20.140625 
Q 19.390625 -19.78125 19.390625 -19.484375 
z
M 24.515625 1.21875 
L 34.71875 41.890625 
Q 32.171875 41.890625 29.390625 40.859375 
Q 26.609375 39.84375 24.140625 38.28125 
Q 21.6875 36.71875 19.671875 34.71875 
Q 17.234375 32.28125 15.375 28.953125 
Q 13.53125 25.640625 12.578125 21.953125 
Q 11.625 18.265625 11.625 14.703125 
Q 11.625 10.9375 13.234375 7.859375 
Q 14.84375 4.78125 17.765625 3 
Q 20.703125 1.21875 24.515625 1.21875 
z
M 27.484375 1.21875 
Q 31.25 1.21875 35.5 3.359375 
Q 39.75 5.515625 42.484375 8.40625 
Q 46.234375 12.109375 48.40625 17.5 
Q 50.59375 22.90625 50.59375 28.421875 
Q 50.59375 32.125 48.96875 35.21875 
Q 47.359375 38.328125 44.421875 40.109375 
Q 41.5 41.890625 37.703125 41.890625 
z
" id="Cmmi10-193"/>
      <path d="M 17.28125 -1.125 
Q 11.234375 -1.125 7.859375 3.609375 
Q 4.5 8.34375 4.5 14.703125 
Q 4.5 15.625 4.953125 18.328125 
Q 5.421875 21.046875 5.421875 21.6875 
L 15.09375 60.5 
Q 15.484375 62.203125 15.578125 63.1875 
Q 15.578125 64.796875 9.078125 64.796875 
Q 8.109375 64.796875 8.109375 66.109375 
Q 8.15625 66.359375 8.328125 66.984375 
Q 8.5 67.625 8.765625 67.96875 
Q 9.03125 68.3125 9.515625 68.3125 
L 23 69.390625 
Q 24.21875 69.390625 24.21875 68.109375 
L 16.796875 38.625 
Q 22.46875 44.1875 28.21875 44.1875 
Q 32.46875 44.1875 35.515625 41.9375 
Q 38.578125 39.703125 40.09375 36.03125 
Q 41.609375 32.375 41.609375 28.21875 
Q 41.609375 23.390625 39.71875 18.234375 
Q 37.84375 13.09375 34.515625 8.671875 
Q 31.203125 4.25 26.75 1.5625 
Q 22.3125 -1.125 17.28125 -1.125 
z
M 17.484375 1.515625 
Q 20.90625 1.515625 23.875 4.375 
Q 26.859375 7.234375 28.71875 10.796875 
Q 30.71875 14.796875 32.453125 21.65625 
Q 34.1875 28.515625 34.1875 32.625 
Q 34.1875 36.1875 32.6875 38.890625 
Q 31.203125 41.609375 27.984375 41.609375 
Q 24.359375 41.609375 21.0625 38.9375 
Q 17.78125 36.28125 15.28125 32.625 
L 12.5 21.296875 
Q 10.890625 14.984375 10.796875 11.1875 
Q 10.796875 7.421875 12.421875 4.46875 
Q 14.0625 1.515625 17.484375 1.515625 
z
" id="Cmmi10-98"/>
      <path d="M 31 -24.8125 
Q 25.4375 -20.40625 21.40625 -14.71875 
Q 17.390625 -9.03125 14.8125 -2.578125 
Q 12.25 3.859375 10.984375 10.890625 
Q 9.71875 17.921875 9.71875 25 
Q 9.71875 32.171875 10.984375 39.203125 
Q 12.25 46.234375 14.859375 52.734375 
Q 17.484375 59.234375 21.53125 64.890625 
Q 25.59375 70.5625 31 74.8125 
Q 31 75 31.5 75 
L 32.421875 75 
Q 32.71875 75 32.953125 74.734375 
Q 33.203125 74.46875 33.203125 74.125 
Q 33.203125 73.6875 33.015625 73.484375 
Q 28.125 68.703125 24.875 63.234375 
Q 21.625 57.765625 19.640625 51.578125 
Q 17.671875 45.40625 16.796875 38.78125 
Q 15.921875 32.171875 15.921875 25 
Q 15.921875 -6.78125 32.90625 -23.296875 
Q 33.203125 -23.578125 33.203125 -24.125 
Q 33.203125 -24.359375 32.9375 -24.671875 
Q 32.671875 -25 32.421875 -25 
L 31.5 -25 
Q 31 -25 31 -24.8125 
z
" id="Cmr10-40"/>
      <path d="M 6.5 -25 
Q 5.609375 -25 5.609375 -24.125 
Q 5.609375 -23.6875 5.8125 -23.484375 
Q 22.90625 -6.78125 22.90625 25 
Q 22.90625 56.78125 6 73.296875 
Q 5.609375 73.53125 5.609375 74.125 
Q 5.609375 74.46875 5.875 74.734375 
Q 6.15625 75 6.5 75 
L 7.421875 75 
Q 7.71875 75 7.90625 74.8125 
Q 15.09375 69.140625 19.875 61.03125 
Q 24.65625 52.9375 26.875 43.75 
Q 29.109375 34.578125 29.109375 25 
Q 29.109375 17.921875 27.90625 11.0625 
Q 26.703125 4.203125 24.09375 -2.453125 
Q 21.484375 -9.125 17.484375 -14.765625 
Q 13.484375 -20.40625 7.90625 -24.8125 
Q 7.71875 -25 7.421875 -25 
z
" id="Cmr10-41"/>
     </defs>
     <g transform="translate(9.03875 89.26225)rotate(-90)scale(0.1 -0.1)">
      <use xlink:href="#Cmmi10-193"/>
      <use transform="translate(59.521484 -17.00625)scale(0.7)" xlink:href="#Cmmi10-98"/>
      <use transform="translate(95.942773 0)" xlink:href="#Cmr10-40"/>
      <use transform="translate(134.761133 0)" xlink:href="#Cmmi10-115"/>
      <use transform="translate(181.538477 0)" xlink:href="#Cmr10-41"/>
     </g>
    </g>
   </g>
   <g id="line2d_13">
    <path d="M 43.663636 170.390925 
L 71.812934 170.390925 
" style="fill:none;stroke:#1f77b4;stroke-linecap:square;stroke-width:0.75;"/>
   </g>
   <g id="line2d_14">
    <path d="M 315.77351 170.390925 
L 343.336364 170.390925 
" style="fill:none;stroke:#1f77b4;stroke-linecap:square;stroke-width:0.75;"/>
   </g>
   <g id="line2d_15">
    <path clip-path="url(#p5ee9912836)" d="M 43.663636 28.918841 
L 44.25008 28.918841 
L 44.836524 28.918841 
L 45.422967 28.918841 
L 46.009411 28.918841 
L 46.595855 28.918841 
L 47.182299 28.918841 
L 47.768742 28.918841 
L 48.355186 28.918841 
L 48.94163 28.918841 
L 49.528073 28.918841 
L 50.114517 28.918841 
L 50.700961 28.918841 
L 51.287404 28.918841 
L 51.873848 28.918841 
L 52.460292 28.918841 
L 53.046735 28.918841 
L 53.633179 28.919483 
L 54.219623 28.929345 
L 54.806067 28.977153 
L 55.39251 29.12139 
L 55.978954 29.456261 
L 56.565398 30.113439 
L 57.151841 31.258558 
L 57.738285 33.080496 
L 58.324729 35.769879 
L 58.911172 39.487059 
L 59.497616 44.331942 
L 60.08406 50.321564 
L 60.670503 57.37568 
L 61.256947 65.310362 
L 61.843391 73.839599 
L 62.429835 82.584901 
L 63.016278 91.114138 
L 63.602722 99.04882 
L 64.189166 106.102936 
L 64.775609 112.092558 
L 65.362053 116.937441 
L 65.948497 120.654621 
L 66.53494 123.344004 
L 67.121384 125.165942 
L 67.707828 126.311061 
L 68.294271 126.968239 
L 68.880715 127.30311 
L 69.467159 127.447347 
L 70.053603 127.495155 
L 70.640046 127.505017 
L 71.22649 127.505659 
" style="fill:none;stroke:#1f77b4;stroke-linecap:square;stroke-width:0.75;"/>
   </g>
   <g id="line2d_16">
    <path clip-path="url(#p5ee9912836)" d="M 315.77351 127.505659 
L 316.359954 127.505017 
L 316.946397 127.495155 
L 317.532841 127.447347 
L 318.119285 127.30311 
L 318.705729 126.968239 
L 319.292172 126.311061 
L 319.878616 125.165942 
L 320.46506 123.344004 
L 321.051503 120.654621 
L 321.637947 116.937441 
L 322.224391 112.092558 
L 322.810834 106.102936 
L 323.397278 99.04882 
L 323.983722 91.114138 
L 324.570165 82.584901 
L 325.156609 73.839599 
L 325.743053 65.310362 
L 326.329497 57.37568 
L 326.91594 50.321564 
L 327.502384 44.331942 
L 328.088828 39.487059 
L 328.675271 35.769879 
L 329.261715 33.080496 
L 329.848159 31.258558 
L 330.434602 30.113439 
L 331.021046 29.456261 
L 331.60749 29.12139 
L 332.193933 28.977153 
L 332.780377 28.929345 
L 333.366821 28.919483 
L 333.953265 28.918841 
L 334.539708 28.918841 
L 335.126152 28.918841 
L 335.712596 28.918841 
L 336.299039 28.918841 
L 336.885483 28.918841 
L 337.471927 28.918841 
L 338.05837 28.918841 
L 338.644814 28.918841 
L 339.231258 28.918841 
L 339.817701 28.918841 
L 340.404145 28.918841 
L 340.990589 28.918841 
L 341.577033 28.918841 
L 342.163476 28.918841 
L 342.74992 28.918841 
L 343.336364 28.918841 
" style="fill:none;stroke:#1f77b4;stroke-linecap:square;stroke-width:0.75;"/>
   </g>
   <g id="line2d_17">
    <path clip-path="url(#p5ee9912836)" d="M 53.046735 127.505659 
L 53.633179 127.505017 
L 54.219623 127.495155 
L 54.806067 127.447347 
L 55.39251 127.30311 
L 55.978954 126.968239 
L 56.565398 126.311061 
L 57.151841 125.165942 
L 57.738285 123.344004 
L 58.324729 120.654621 
L 58.911172 116.937441 
L 59.497616 112.092558 
L 60.08406 106.102936 
L 60.670503 99.04882 
L 61.256947 91.114138 
L 61.843391 82.584901 
L 62.429835 73.839599 
L 63.016278 65.310362 
L 63.602722 57.37568 
L 64.189166 50.321564 
L 64.775609 44.331942 
L 65.362053 39.487059 
L 65.948497 35.769879 
L 66.53494 33.080496 
L 67.121384 31.258558 
L 67.707828 30.113439 
L 68.294271 29.456261 
L 68.880715 29.12139 
L 69.467159 28.977153 
L 70.053603 28.929345 
L 70.640046 28.919483 
L 71.22649 28.918841 
L 71.812934 28.918841 
L 72.399377 28.918841 
L 72.985821 28.918841 
L 73.572265 28.918841 
L 74.158708 28.918841 
L 74.745152 28.918841 
L 75.331596 28.918841 
L 75.918039 28.918841 
L 76.504483 28.918841 
L 77.090927 28.918841 
L 77.677371 28.918841 
L 78.263814 28.918841 
L 78.850258 28.918841 
L 79.436702 28.918841 
L 80.023145 28.918841 
L 80.609589 28.918841 
L 81.196033 28.918841 
L 81.782476 28.918841 
L 82.36892 28.918841 
L 82.955364 28.918841 
L 83.541808 28.918841 
L 84.128251 28.918841 
L 84.714695 28.918841 
L 85.301139 28.918841 
L 85.887582 28.918841 
L 86.474026 28.918841 
L 87.06047 28.918841 
L 87.646913 28.918841 
L 88.233357 28.918841 
L 88.819801 28.918841 
L 89.406244 28.918841 
L 89.992688 28.918841 
L 90.579132 28.918841 
L 91.165576 28.919483 
L 91.752019 28.929345 
L 92.338463 28.977153 
L 92.924907 29.12139 
L 93.51135 29.456261 
L 94.097794 30.113439 
L 94.684238 31.258558 
L 95.270681 33.080496 
L 95.857125 35.769879 
L 96.443569 39.487059 
L 97.030012 44.331942 
L 97.616456 50.321564 
L 98.2029 57.37568 
L 98.789344 65.310362 
L 99.375787 73.839599 
L 99.962231 82.584901 
L 100.548675 91.114138 
L 101.135118 99.04882 
L 101.721562 106.102936 
L 102.308006 112.092558 
L 102.894449 116.937441 
L 103.480893 120.654621 
L 104.067337 123.344004 
L 104.65378 125.165942 
L 105.240224 126.311061 
L 105.826668 126.968239 
L 106.413112 127.30311 
L 106.999555 127.447347 
L 107.585999 127.495155 
L 108.172443 127.505017 
L 108.758886 127.505659 
" style="fill:none;stroke:#d62728;stroke-linecap:square;stroke-width:0.75;"/>
   </g>
   <g id="line2d_18">
    <path d="M 53.046735 159.546375 
L 109.34533 159.546375 
" style="fill:none;stroke:#d62728;stroke-linecap:square;stroke-width:0.75;"/>
   </g>
   <g id="line2d_19">
    <path clip-path="url(#p5ee9912836)" d="M 90.579132 127.505659 
L 91.165576 127.505017 
L 91.752019 127.495155 
L 92.338463 127.447347 
L 92.924907 127.30311 
L 93.51135 126.968239 
L 94.097794 126.311061 
L 94.684238 125.165942 
L 95.270681 123.344004 
L 95.857125 120.654621 
L 96.443569 116.937441 
L 97.030012 112.092558 
L 97.616456 106.102936 
L 98.2029 99.04882 
L 98.789344 91.114138 
L 99.375787 82.584901 
L 99.962231 73.839599 
L 100.548675 65.310362 
L 101.135118 57.37568 
L 101.721562 50.321564 
L 102.308006 44.331942 
L 102.894449 39.487059 
L 103.480893 35.769879 
L 104.067337 33.080496 
L 104.65378 31.258558 
L 105.240224 30.113439 
L 105.826668 29.456261 
L 106.413112 29.12139 
L 106.999555 28.977153 
L 107.585999 28.929345 
L 108.172443 28.919483 
L 108.758886 28.918841 
L 109.34533 28.918841 
L 109.931774 28.918841 
L 110.518217 28.918841 
L 111.104661 28.918841 
L 111.691105 28.918841 
L 112.277548 28.918841 
L 112.863992 28.918841 
L 113.450436 28.918841 
L 114.03688 28.918841 
L 114.623323 28.918841 
L 115.209767 28.918841 
L 115.796211 28.918841 
L 116.382654 28.918841 
L 116.969098 28.918841 
L 117.555542 28.918841 
L 118.141985 28.918841 
L 118.728429 28.918841 
L 119.314873 28.918841 
L 119.901316 28.918841 
L 120.48776 28.918841 
L 121.074204 28.918841 
L 121.660648 28.918841 
L 122.247091 28.918841 
L 122.833535 28.918841 
L 123.419979 28.918841 
L 124.006422 28.918841 
L 124.592866 28.918841 
L 125.17931 28.918841 
L 125.765753 28.918841 
L 126.352197 28.918841 
L 126.938641 28.918841 
L 127.525085 28.918841 
L 128.111528 28.918841 
L 128.697972 28.919483 
L 129.284416 28.929345 
L 129.870859 28.977153 
L 130.457303 29.12139 
L 131.043747 29.456261 
L 131.63019 30.113439 
L 132.216634 31.258558 
L 132.803078 33.080496 
L 133.389521 35.769879 
L 133.975965 39.487059 
L 134.562409 44.331942 
L 135.148853 50.321564 
L 135.735296 57.37568 
L 136.32174 65.310362 
L 136.908184 73.839599 
L 137.494627 82.584901 
L 138.081071 91.114138 
L 138.667515 99.04882 
L 139.253958 106.102936 
L 139.840402 112.092558 
L 140.426846 116.937441 
L 141.013289 120.654621 
L 141.599733 123.344004 
L 142.186177 125.165942 
L 142.772621 126.311061 
L 143.359064 126.968239 
L 143.945508 127.30311 
L 144.531952 127.447347 
L 145.118395 127.495155 
L 145.704839 127.505017 
L 146.291283 127.505659 
" style="fill:none;stroke:#1f77b4;stroke-linecap:square;stroke-width:0.75;"/>
   </g>
   <g id="line2d_20">
    <path d="M 90.579132 170.390925 
L 146.877726 170.390925 
" style="fill:none;stroke:#1f77b4;stroke-linecap:square;stroke-width:0.75;"/>
   </g>
   <g id="line2d_21">
    <path clip-path="url(#p5ee9912836)" d="M 128.111528 127.505659 
L 128.697972 127.505017 
L 129.284416 127.495155 
L 129.870859 127.447347 
L 130.457303 127.30311 
L 131.043747 126.968239 
L 131.63019 126.311061 
L 132.216634 125.165942 
L 132.803078 123.344004 
L 133.389521 120.654621 
L 133.975965 116.937441 
L 134.562409 112.092558 
L 135.148853 106.102936 
L 135.735296 99.04882 
L 136.32174 91.114138 
L 136.908184 82.584901 
L 137.494627 73.839599 
L 138.081071 65.310362 
L 138.667515 57.37568 
L 139.253958 50.321564 
L 139.840402 44.331942 
L 140.426846 39.487059 
L 141.013289 35.769879 
L 141.599733 33.080496 
L 142.186177 31.258558 
L 142.772621 30.113439 
L 143.359064 29.456261 
L 143.945508 29.12139 
L 144.531952 28.977153 
L 145.118395 28.929345 
L 145.704839 28.919483 
L 146.291283 28.918841 
L 146.877726 28.918841 
L 147.46417 28.918841 
L 148.050614 28.918841 
L 148.637057 28.918841 
L 149.223501 28.918841 
L 149.809945 28.918841 
L 150.396389 28.918841 
L 150.982832 28.918841 
L 151.569276 28.918841 
L 152.15572 28.918841 
L 152.742163 28.918841 
L 153.328607 28.918841 
L 153.915051 28.918841 
L 154.501494 28.918841 
L 155.087938 28.918841 
L 155.674382 28.918841 
L 156.260825 28.918841 
L 156.847269 28.918841 
L 157.433713 28.918841 
L 158.020157 28.918841 
L 158.6066 28.918841 
L 159.193044 28.918841 
L 159.779488 28.918841 
L 160.365931 28.918841 
L 160.952375 28.918841 
L 161.538819 28.918841 
L 162.125262 28.918841 
L 162.711706 28.918841 
L 163.29815 28.918841 
L 163.884593 28.918841 
L 164.471037 28.918841 
L 165.057481 28.918841 
L 165.643925 28.918841 
L 166.230368 28.919483 
L 166.816812 28.929345 
L 167.403256 28.977153 
L 167.989699 29.12139 
L 168.576143 29.456261 
L 169.162587 30.113439 
L 169.74903 31.258558 
L 170.335474 33.080496 
L 170.921918 35.769879 
L 171.508362 39.487059 
L 172.094805 44.331942 
L 172.681249 50.321564 
L 173.267693 57.37568 
L 173.854136 65.310362 
L 174.44058 73.839599 
L 175.027024 82.584901 
L 175.613467 91.114138 
L 176.199911 99.04882 
L 176.786355 106.102936 
L 177.372798 112.092558 
L 177.959242 116.937441 
L 178.545686 120.654621 
L 179.13213 123.344004 
L 179.718573 125.165942 
L 180.305017 126.311061 
L 180.891461 126.968239 
L 181.477904 127.30311 
L 182.064348 127.447347 
L 182.650792 127.495155 
L 183.237235 127.505017 
L 183.823679 127.505659 
" style="fill:none;stroke:#d62728;stroke-linecap:square;stroke-width:0.75;"/>
   </g>
   <g id="line2d_22">
    <path d="M 128.111528 159.546375 
L 184.410123 159.546375 
" style="fill:none;stroke:#d62728;stroke-linecap:square;stroke-width:0.75;"/>
   </g>
   <g id="line2d_23">
    <path clip-path="url(#p5ee9912836)" d="M 165.643925 127.505659 
L 166.230368 127.505017 
L 166.816812 127.495155 
L 167.403256 127.447347 
L 167.989699 127.30311 
L 168.576143 126.968239 
L 169.162587 126.311061 
L 169.74903 125.165942 
L 170.335474 123.344004 
L 170.921918 120.654621 
L 171.508362 116.937441 
L 172.094805 112.092558 
L 172.681249 106.102936 
L 173.267693 99.04882 
L 173.854136 91.114138 
L 174.44058 82.584901 
L 175.027024 73.839599 
L 175.613467 65.310362 
L 176.199911 57.37568 
L 176.786355 50.321564 
L 177.372798 44.331942 
L 177.959242 39.487059 
L 178.545686 35.769879 
L 179.13213 33.080496 
L 179.718573 31.258558 
L 180.305017 30.113439 
L 180.891461 29.456261 
L 181.477904 29.12139 
L 182.064348 28.977153 
L 182.650792 28.929345 
L 183.237235 28.919483 
L 183.823679 28.918841 
L 184.410123 28.918841 
L 184.996566 28.918841 
L 185.58301 28.918841 
L 186.169454 28.918841 
L 186.755898 28.918841 
L 187.342341 28.918841 
L 187.928785 28.918841 
L 188.515229 28.918841 
L 189.101672 28.918841 
L 189.688116 28.918841 
L 190.27456 28.918841 
L 190.861003 28.918841 
L 191.447447 28.918841 
L 192.033891 28.918841 
L 192.620334 28.918841 
L 193.206778 28.918841 
L 193.793222 28.918841 
L 194.379666 28.918841 
L 194.966109 28.918841 
L 195.552553 28.918841 
L 196.138997 28.918841 
L 196.72544 28.918841 
L 197.311884 28.918841 
L 197.898328 28.918841 
L 198.484771 28.918841 
L 199.071215 28.918841 
L 199.657659 28.918841 
L 200.244102 28.918841 
L 200.830546 28.918841 
L 201.41699 28.918841 
L 202.003434 28.918841 
L 202.589877 28.918841 
L 203.176321 28.918841 
L 203.762765 28.919483 
L 204.349208 28.929345 
L 204.935652 28.977153 
L 205.522096 29.12139 
L 206.108539 29.456261 
L 206.694983 30.113439 
L 207.281427 31.258558 
L 207.86787 33.080496 
L 208.454314 35.769879 
L 209.040758 39.487059 
L 209.627202 44.331942 
L 210.213645 50.321564 
L 210.800089 57.37568 
L 211.386533 65.310362 
L 211.972976 73.839599 
L 212.55942 82.584901 
L 213.145864 91.114138 
L 213.732307 99.04882 
L 214.318751 106.102936 
L 214.905195 112.092558 
L 215.491638 116.937441 
L 216.078082 120.654621 
L 216.664526 123.344004 
L 217.25097 125.165942 
L 217.837413 126.311061 
L 218.423857 126.968239 
L 219.010301 127.30311 
L 219.596744 127.447347 
L 220.183188 127.495155 
L 220.769632 127.505017 
L 221.356075 127.505659 
" style="fill:none;stroke:#1f77b4;stroke-linecap:square;stroke-width:0.75;"/>
   </g>
   <g id="line2d_24">
    <path d="M 165.643925 170.390925 
L 221.942519 170.390925 
" style="fill:none;stroke:#1f77b4;stroke-linecap:square;stroke-width:0.75;"/>
   </g>
   <g id="line2d_25">
    <path clip-path="url(#p5ee9912836)" d="M 203.176321 127.505659 
L 203.762765 127.505017 
L 204.349208 127.495155 
L 204.935652 127.447347 
L 205.522096 127.30311 
L 206.108539 126.968239 
L 206.694983 126.311061 
L 207.281427 125.165942 
L 207.86787 123.344004 
L 208.454314 120.654621 
L 209.040758 116.937441 
L 209.627202 112.092558 
L 210.213645 106.102936 
L 210.800089 99.04882 
L 211.386533 91.114138 
L 211.972976 82.584901 
L 212.55942 73.839599 
L 213.145864 65.310362 
L 213.732307 57.37568 
L 214.318751 50.321564 
L 214.905195 44.331942 
L 215.491638 39.487059 
L 216.078082 35.769879 
L 216.664526 33.080496 
L 217.25097 31.258558 
L 217.837413 30.113439 
L 218.423857 29.456261 
L 219.010301 29.12139 
L 219.596744 28.977153 
L 220.183188 28.929345 
L 220.769632 28.919483 
L 221.356075 28.918841 
L 221.942519 28.918841 
L 222.528963 28.918841 
L 223.115407 28.918841 
L 223.70185 28.918841 
L 224.288294 28.918841 
L 224.874738 28.918841 
L 225.461181 28.918841 
L 226.047625 28.918841 
L 226.634069 28.918841 
L 227.220512 28.918841 
L 227.806956 28.918841 
L 228.3934 28.918841 
L 228.979843 28.918841 
L 229.566287 28.918841 
L 230.152731 28.918841 
L 230.739175 28.918841 
L 231.325618 28.918841 
L 231.912062 28.918841 
L 232.498506 28.918841 
L 233.084949 28.918841 
L 233.671393 28.918841 
L 234.257837 28.918841 
L 234.84428 28.918841 
L 235.430724 28.918841 
L 236.017168 28.918841 
L 236.603611 28.918841 
L 237.190055 28.918841 
L 237.776499 28.918841 
L 238.362943 28.918841 
L 238.949386 28.918841 
L 239.53583 28.918841 
L 240.122274 28.918841 
L 240.708717 28.918841 
L 241.295161 28.919483 
L 241.881605 28.929345 
L 242.468048 28.977153 
L 243.054492 29.12139 
L 243.640936 29.456261 
L 244.227379 30.113439 
L 244.813823 31.258558 
L 245.400267 33.080496 
L 245.986711 35.769879 
L 246.573154 39.487059 
L 247.159598 44.331942 
L 247.746042 50.321564 
L 248.332485 57.37568 
L 248.918929 65.310362 
L 249.505373 73.839599 
L 250.091816 82.584901 
L 250.67826 91.114138 
L 251.264704 99.04882 
L 251.851147 106.102936 
L 252.437591 112.092558 
L 253.024035 116.937441 
L 253.610479 120.654621 
L 254.196922 123.344004 
L 254.783366 125.165942 
L 255.36981 126.311061 
L 255.956253 126.968239 
L 256.542697 127.30311 
L 257.129141 127.447347 
L 257.715584 127.495155 
L 258.302028 127.505017 
L 258.888472 127.505659 
" style="fill:none;stroke:#d62728;stroke-linecap:square;stroke-width:0.75;"/>
   </g>
   <g id="line2d_26">
    <path d="M 203.176321 159.546375 
L 259.474915 159.546375 
" style="fill:none;stroke:#d62728;stroke-linecap:square;stroke-width:0.75;"/>
   </g>
   <g id="line2d_27">
    <path clip-path="url(#p5ee9912836)" d="M 240.708717 127.505659 
L 241.295161 127.505017 
L 241.881605 127.495155 
L 242.468048 127.447347 
L 243.054492 127.30311 
L 243.640936 126.968239 
L 244.227379 126.311061 
L 244.813823 125.165942 
L 245.400267 123.344004 
L 245.986711 120.654621 
L 246.573154 116.937441 
L 247.159598 112.092558 
L 247.746042 106.102936 
L 248.332485 99.04882 
L 248.918929 91.114138 
L 249.505373 82.584901 
L 250.091816 73.839599 
L 250.67826 65.310362 
L 251.264704 57.37568 
L 251.851147 50.321564 
L 252.437591 44.331942 
L 253.024035 39.487059 
L 253.610479 35.769879 
L 254.196922 33.080496 
L 254.783366 31.258558 
L 255.36981 30.113439 
L 255.956253 29.456261 
L 256.542697 29.12139 
L 257.129141 28.977153 
L 257.715584 28.929345 
L 258.302028 28.919483 
L 258.888472 28.918841 
L 259.474915 28.918841 
L 260.061359 28.918841 
L 260.647803 28.918841 
L 261.234247 28.918841 
L 261.82069 28.918841 
L 262.407134 28.918841 
L 262.993578 28.918841 
L 263.580021 28.918841 
L 264.166465 28.918841 
L 264.752909 28.918841 
L 265.339352 28.918841 
L 265.925796 28.918841 
L 266.51224 28.918841 
L 267.098684 28.918841 
L 267.685127 28.918841 
L 268.271571 28.918841 
L 268.858015 28.918841 
L 269.444458 28.918841 
L 270.030902 28.918841 
L 270.617346 28.918841 
L 271.203789 28.918841 
L 271.790233 28.918841 
L 272.376677 28.918841 
L 272.96312 28.918841 
L 273.549564 28.918841 
L 274.136008 28.918841 
L 274.722452 28.918841 
L 275.308895 28.918841 
L 275.895339 28.918841 
L 276.481783 28.918841 
L 277.068226 28.918841 
L 277.65467 28.918841 
L 278.241114 28.918841 
L 278.827557 28.919483 
L 279.414001 28.929345 
L 280.000445 28.977153 
L 280.586888 29.12139 
L 281.173332 29.456261 
L 281.759776 30.113439 
L 282.34622 31.258558 
L 282.932663 33.080496 
L 283.519107 35.769879 
L 284.105551 39.487059 
L 284.691994 44.331942 
L 285.278438 50.321564 
L 285.864882 57.37568 
L 286.451325 65.310362 
L 287.037769 73.839599 
L 287.624213 82.584901 
L 288.210656 91.114138 
L 288.7971 99.04882 
L 289.383544 106.102936 
L 289.969988 112.092558 
L 290.556431 116.937441 
L 291.142875 120.654621 
L 291.729319 123.344004 
L 292.315762 125.165942 
L 292.902206 126.311061 
L 293.48865 126.968239 
L 294.075093 127.30311 
L 294.661537 127.447347 
L 295.247981 127.495155 
L 295.834424 127.505017 
L 296.420868 127.505659 
" style="fill:none;stroke:#1f77b4;stroke-linecap:square;stroke-width:0.75;"/>
   </g>
   <g id="line2d_28">
    <path d="M 240.708717 170.390925 
L 297.007312 170.390925 
" style="fill:none;stroke:#1f77b4;stroke-linecap:square;stroke-width:0.75;"/>
   </g>
   <g id="line2d_29">
    <path clip-path="url(#p5ee9912836)" d="M 278.241114 127.505659 
L 278.827557 127.505017 
L 279.414001 127.495155 
L 280.000445 127.447347 
L 280.586888 127.30311 
L 281.173332 126.968239 
L 281.759776 126.311061 
L 282.34622 125.165942 
L 282.932663 123.344004 
L 283.519107 120.654621 
L 284.105551 116.937441 
L 284.691994 112.092558 
L 285.278438 106.102936 
L 285.864882 99.04882 
L 286.451325 91.114138 
L 287.037769 82.584901 
L 287.624213 73.839599 
L 288.210656 65.310362 
L 288.7971 57.37568 
L 289.383544 50.321564 
L 289.969988 44.331942 
L 290.556431 39.487059 
L 291.142875 35.769879 
L 291.729319 33.080496 
L 292.315762 31.258558 
L 292.902206 30.113439 
L 293.48865 29.456261 
L 294.075093 29.12139 
L 294.661537 28.977153 
L 295.247981 28.929345 
L 295.834424 28.919483 
L 296.420868 28.918841 
L 297.007312 28.918841 
L 297.593756 28.918841 
L 298.180199 28.918841 
L 298.766643 28.918841 
L 299.353087 28.918841 
L 299.93953 28.918841 
L 300.525974 28.918841 
L 301.112418 28.918841 
L 301.698861 28.918841 
L 302.285305 28.918841 
L 302.871749 28.918841 
L 303.458192 28.918841 
L 304.044636 28.918841 
L 304.63108 28.918841 
L 305.217524 28.918841 
L 305.803967 28.918841 
L 306.390411 28.918841 
L 306.976855 28.918841 
L 307.563298 28.918841 
L 308.149742 28.918841 
L 308.736186 28.918841 
L 309.322629 28.918841 
L 309.909073 28.918841 
L 310.495517 28.918841 
L 311.081961 28.918841 
L 311.668404 28.918841 
L 312.254848 28.918841 
L 312.841292 28.918841 
L 313.427735 28.918841 
L 314.014179 28.918841 
L 314.600623 28.918841 
L 315.187066 28.918841 
L 315.77351 28.918841 
L 316.359954 28.919483 
L 316.946397 28.929345 
L 317.532841 28.977153 
L 318.119285 29.12139 
L 318.705729 29.456261 
L 319.292172 30.113439 
L 319.878616 31.258558 
L 320.46506 33.080496 
L 321.051503 35.769879 
L 321.637947 39.487059 
L 322.224391 44.331942 
L 322.810834 50.321564 
L 323.397278 57.37568 
L 323.983722 65.310362 
L 324.570165 73.839599 
L 325.156609 82.584901 
L 325.743053 91.114138 
L 326.329497 99.04882 
L 326.91594 106.102936 
L 327.502384 112.092558 
L 328.088828 116.937441 
L 328.675271 120.654621 
L 329.261715 123.344004 
L 329.848159 125.165942 
L 330.434602 126.311061 
L 331.021046 126.968239 
L 331.60749 127.30311 
L 332.193933 127.447347 
L 332.780377 127.495155 
L 333.366821 127.505017 
L 333.953265 127.505659 
" style="fill:none;stroke:#d62728;stroke-linecap:square;stroke-width:0.75;"/>
   </g>
   <g id="line2d_30">
    <path d="M 278.241114 159.546375 
L 334.539708 159.546375 
" style="fill:none;stroke:#d62728;stroke-linecap:square;stroke-width:0.75;"/>
   </g>
   <g id="line2d_31">
    <path d="M 43.663636 13.14495 
L 62.429835 13.14495 
" style="fill:none;stroke:#1f77b4;stroke-linecap:square;stroke-width:0.75;"/>
   </g>
   <g id="line2d_32">
    <path d="M 62.429835 13.14495 
L 99.962231 13.14495 
" style="fill:none;stroke:#d62728;stroke-linecap:square;stroke-width:0.75;"/>
   </g>
   <g id="line2d_33">
    <path d="M 99.962231 13.14495 
L 137.494627 13.14495 
" style="fill:none;stroke:#1f77b4;stroke-linecap:square;stroke-width:0.75;"/>
   </g>
   <g id="line2d_34">
    <path d="M 137.494627 13.14495 
L 175.027024 13.14495 
" style="fill:none;stroke:#d62728;stroke-linecap:square;stroke-width:0.75;"/>
   </g>
   <g id="line2d_35">
    <path d="M 175.027024 13.14495 
L 212.55942 13.14495 
" style="fill:none;stroke:#1f77b4;stroke-linecap:square;stroke-width:0.75;"/>
   </g>
   <g id="line2d_36">
    <path d="M 212.55942 13.14495 
L 250.091816 13.14495 
" style="fill:none;stroke:#d62728;stroke-linecap:square;stroke-width:0.75;"/>
   </g>
   <g id="line2d_37">
    <path d="M 250.091816 13.14495 
L 287.624213 13.14495 
" style="fill:none;stroke:#1f77b4;stroke-linecap:square;stroke-width:0.75;"/>
   </g>
   <g id="line2d_38">
    <path d="M 287.624213 13.14495 
L 325.156609 13.14495 
" style="fill:none;stroke:#d62728;stroke-linecap:square;stroke-width:0.75;"/>
   </g>
   <g id="line2d_39">
    <path d="M 325.156609 13.14495 
L 343.336364 13.14495 
" style="fill:none;stroke:#1f77b4;stroke-linecap:square;stroke-width:0.75;"/>
   </g>
   <g id="patch_3">
    <path d="M 28.68 132.435 
L 28.68 23.9895 
" style="fill:none;stroke:#000000;stroke-linecap:square;stroke-linejoin:miter;stroke-width:0.5;"/>
   </g>
   <g id="patch_4">
    <path d="M 358.32 132.435 
L 358.32 23.9895 
" style="fill:none;stroke:#000000;stroke-linecap:square;stroke-linejoin:miter;stroke-width:0.5;"/>
   </g>
   <g id="patch_5">
    <path d="M 28.68 132.435 
L 358.32 132.435 
" style="fill:none;stroke:#000000;stroke-linecap:square;stroke-linejoin:miter;stroke-width:0.5;"/>
   </g>
   <g id="patch_6">
    <path d="M 28.68 23.9895 
L 358.32 23.9895 
" style="fill:none;stroke:#000000;stroke-linecap:square;stroke-linejoin:miter;stroke-width:0.5;"/>
   </g>
   <g id="text_15">
    <!-- $\phi_1$ -->
    <defs>
     <path d="M 9.28125 0 
L 9.28125 3.515625 
Q 21.78125 3.515625 21.78125 6.6875 
L 21.78125 59.1875 
Q 16.609375 56.6875 8.6875 56.6875 
L 8.6875 60.203125 
Q 20.953125 60.203125 27.203125 66.609375 
L 28.609375 66.609375 
Q 28.953125 66.609375 29.265625 66.328125 
Q 29.59375 66.0625 29.59375 65.71875 
L 29.59375 6.6875 
Q 29.59375 3.515625 42.09375 3.515625 
L 42.09375 0 
z
" id="Cmr10-49"/>
    </defs>
    <g style="fill:#1f77b4;" transform="translate(43.663636 80.17225)scale(0.08 -0.08)">
     <use transform="translate(0 0.609375)" xlink:href="#Cmmi10-193"/>
     <use transform="translate(59.521484 -16.396875)scale(0.7)" xlink:href="#Cmr10-49"/>
    </g>
   </g>
   <g id="text_16">
    <!-- $\hat{\mathcal{S}}_1$ -->
    <defs>
     <path d="M 13.484375 53.8125 
L 11.53125 55.90625 
L 25 69.390625 
L 38.375 55.90625 
L 36.375 53.8125 
L 25 63.8125 
z
" id="Cmr10-94"/>
     <path d="M 1.8125 12.40625 
Q 1.8125 18.171875 6.203125 22.703125 
Q 8.109375 24.46875 10.59375 25.6875 
Q 13.09375 26.90625 15.375 26.90625 
L 16.015625 26.90625 
Q 16.703125 26.5625 16.703125 26.125 
Q 16.703125 25.59375 16.359375 25.125 
Q 16.015625 24.65625 15.671875 24.359375 
Q 15.328125 24.078125 14.59375 23.484375 
Q 13.96875 23 13.203125 22.578125 
Q 12.453125 22.171875 12.15625 21.890625 
Q 11.859375 21.625 11.53125 20.90625 
Q 10.6875 18.84375 10.6875 16.703125 
Q 10.6875 12.75 13.546875 9.796875 
Q 16.40625 6.84375 20.625 5.28125 
Q 24.859375 3.71875 28.8125 3.71875 
Q 33.890625 3.71875 38.359375 5.28125 
Q 42.828125 6.84375 45.65625 10.109375 
Q 48.484375 13.375 48.484375 18.5 
Q 48.484375 21.625 47 24.109375 
Q 45.515625 26.609375 42.96875 28.5625 
Q 40.4375 30.515625 37.984375 31.765625 
Q 35.546875 33.015625 32.171875 34.515625 
Q 26.375 37.203125 22.734375 40.59375 
Q 19.09375 44 19.09375 48.875 
Q 19.09375 54.890625 23.828125 59.859375 
Q 28.5625 64.84375 35.5 67.671875 
Q 42.4375 70.515625 48 70.515625 
L 48.578125 70.515625 
Q 51.953125 70.515625 55.59375 69.609375 
Q 59.234375 68.703125 61.71875 66.546875 
Q 64.203125 64.40625 64.203125 60.890625 
Q 64.203125 56.6875 62.109375 54.59375 
Q 58.59375 51.953125 55.90625 51.703125 
L 55.328125 51.703125 
Q 54.59375 52.046875 54.59375 52.59375 
Q 54.78125 53.46875 54.90625 53.859375 
Q 55.03125 54.25 55.171875 55.03125 
Q 55.328125 55.8125 55.328125 56.5 
Q 55.328125 60.890625 50.90625 62.734375 
Q 46.484375 64.59375 41.3125 64.59375 
Q 35.59375 64.59375 31.78125 61.609375 
Q 27.984375 58.640625 27.984375 53.328125 
Q 27.984375 45.796875 39.703125 40.375 
Q 44.578125 38.234375 48.328125 36.0625 
Q 52.09375 33.890625 54.75 30.609375 
Q 57.421875 27.34375 57.421875 22.90625 
Q 57.421875 15.671875 51.65625 9.90625 
Q 45.90625 4.15625 37.5 0.96875 
Q 29.109375 -2.203125 22.125 -2.203125 
L 21.578125 -2.203125 
Q 17.390625 -2.203125 12.703125 -0.4375 
Q 8.015625 1.3125 4.90625 4.625 
Q 1.8125 7.953125 1.8125 12.40625 
z
" id="Cmsy10-83"/>
    </defs>
    <g style="fill:#1f77b4;" transform="translate(43.663636 167.75397)scale(0.08 -0.08)">
     <use transform="translate(12.593262 29.609375)" xlink:href="#Cmr10-94"/>
     <use transform="translate(0 0.40625)" xlink:href="#Cmsy10-83"/>
     <use transform="translate(64.962187 -16.6)scale(0.7)" xlink:href="#Cmr10-49"/>
    </g>
   </g>
   <g id="text_17">
    <!-- $\phi_9$ -->
    <defs>
     <path d="M 11.28125 4.203125 
Q 14.015625 0.984375 20.796875 0.984375 
Q 24.609375 0.984375 27.90625 3.5625 
Q 31.203125 6.15625 33.015625 9.90625 
Q 35.109375 14.15625 35.6875 18.96875 
Q 36.28125 23.78125 36.28125 30.90625 
Q 34.578125 26.859375 31.375 24.265625 
Q 28.171875 21.6875 24.03125 21.6875 
Q 18.21875 21.6875 13.640625 24.828125 
Q 9.078125 27.984375 6.640625 33.125 
Q 4.203125 38.28125 4.203125 44.09375 
Q 4.203125 50.09375 6.9375 55.296875 
Q 9.671875 60.5 14.5 63.546875 
Q 19.34375 66.609375 25.484375 66.609375 
Q 31.546875 66.609375 35.625 63.3125 
Q 39.703125 60.015625 41.84375 54.8125 
Q 44 49.609375 44.84375 43.796875 
Q 45.703125 37.984375 45.703125 32.328125 
Q 45.703125 24.609375 42.875 16.578125 
Q 40.046875 8.546875 34.40625 3.171875 
Q 28.765625 -2.203125 20.796875 -2.203125 
Q 14.890625 -2.203125 10.78125 0.578125 
Q 6.6875 3.375 6.6875 8.984375 
Q 6.6875 11.03125 8.078125 12.421875 
Q 9.46875 13.8125 11.53125 13.8125 
Q 13.53125 13.8125 14.921875 12.421875 
Q 16.3125 11.03125 16.3125 8.984375 
Q 16.3125 7.03125 14.890625 5.609375 
Q 13.484375 4.203125 11.53125 4.203125 
z
M 24.421875 24.3125 
Q 28.515625 24.3125 31.125 27.0625 
Q 33.734375 29.828125 34.90625 33.921875 
Q 36.078125 38.03125 36.078125 42.09375 
L 36.078125 44 
L 36.078125 44.390625 
Q 36.078125 51.90625 33.875 57.8125 
Q 31.6875 63.71875 25.484375 63.71875 
Q 21.53125 63.71875 19.0625 61.984375 
Q 16.609375 60.25 15.4375 57.375 
Q 14.265625 54.5 13.9375 51.21875 
Q 13.625 47.953125 13.625 44.09375 
Q 13.625 38.421875 14.15625 34.421875 
Q 14.703125 30.421875 17.09375 27.359375 
Q 19.484375 24.3125 24.421875 24.3125 
z
" id="Cmr10-57"/>
    </defs>
    <g style="fill:#1f77b4;" transform="translate(335.256364 80.17225)scale(0.08 -0.08)">
     <use transform="translate(0 0.609375)" xlink:href="#Cmmi10-193"/>
     <use transform="translate(59.521484 -16.396875)scale(0.7)" xlink:href="#Cmr10-57"/>
    </g>
   </g>
   <g id="text_18">
    <!-- $\hat{\mathcal{S}}_9$ -->
    <g style="fill:#1f77b4;" transform="translate(334.776364 167.75397)scale(0.08 -0.08)">
     <use transform="translate(12.593262 29.609375)" xlink:href="#Cmr10-94"/>
     <use transform="translate(0 0.40625)" xlink:href="#Cmsy10-83"/>
     <use transform="translate(64.962187 -16.6)scale(0.7)" xlink:href="#Cmr10-57"/>
    </g>
   </g>
   <g id="text_19">
    <!-- $\phi_2$ -->
    <defs>
     <path d="M 4.984375 0 
L 4.984375 2.6875 
Q 4.984375 2.9375 5.171875 3.21875 
L 20.703125 20.40625 
Q 24.21875 24.21875 26.40625 26.796875 
Q 28.609375 29.390625 30.75 32.765625 
Q 32.90625 36.140625 34.15625 39.625 
Q 35.40625 43.109375 35.40625 47.015625 
Q 35.40625 51.125 33.890625 54.859375 
Q 32.375 58.59375 29.375 60.84375 
Q 26.375 63.09375 22.125 63.09375 
Q 17.78125 63.09375 14.3125 60.46875 
Q 10.84375 57.859375 9.421875 53.71875 
Q 9.8125 53.8125 10.5 53.8125 
Q 12.75 53.8125 14.328125 52.296875 
Q 15.921875 50.78125 15.921875 48.390625 
Q 15.921875 46.09375 14.328125 44.5 
Q 12.75 42.921875 10.5 42.921875 
Q 8.15625 42.921875 6.5625 44.546875 
Q 4.984375 46.1875 4.984375 48.390625 
Q 4.984375 52.15625 6.390625 55.4375 
Q 7.8125 58.734375 10.46875 61.296875 
Q 13.140625 63.875 16.484375 65.234375 
Q 19.828125 66.609375 23.578125 66.609375 
Q 29.296875 66.609375 34.21875 64.1875 
Q 39.15625 61.765625 42.03125 57.34375 
Q 44.921875 52.9375 44.921875 47.015625 
Q 44.921875 42.671875 43.015625 38.765625 
Q 41.109375 34.859375 38.125 31.65625 
Q 35.15625 28.46875 30.515625 24.40625 
Q 25.875 20.359375 24.421875 19 
L 13.09375 8.109375 
L 22.703125 8.109375 
Q 29.78125 8.109375 34.546875 8.21875 
Q 39.3125 8.34375 39.59375 8.59375 
Q 40.765625 9.859375 42 17.828125 
L 44.921875 17.828125 
L 42.09375 0 
z
" id="Cmr10-50"/>
    </defs>
    <g style="fill:#d62728;" transform="translate(77.156033 80.17225)scale(0.08 -0.08)">
     <use transform="translate(0 0.609375)" xlink:href="#Cmmi10-193"/>
     <use transform="translate(59.521484 -16.396875)scale(0.7)" xlink:href="#Cmr10-50"/>
    </g>
   </g>
   <g id="text_20">
    <!-- $\hat{\mathcal{S}}_2$ -->
    <g style="fill:#d62728;" transform="translate(76.916033 156.90942)scale(0.08 -0.08)">
     <use transform="translate(12.593262 29.609375)" xlink:href="#Cmr10-94"/>
     <use transform="translate(0 0.40625)" xlink:href="#Cmsy10-83"/>
     <use transform="translate(64.962187 -16.6)scale(0.7)" xlink:href="#Cmr10-50"/>
    </g>
   </g>
   <g id="text_21">
    <!-- $\phi_3$ -->
    <defs>
     <path d="M 9.515625 7.71875 
Q 11.859375 4.296875 15.8125 2.640625 
Q 19.78125 0.984375 24.3125 0.984375 
Q 30.125 0.984375 32.5625 5.9375 
Q 35.015625 10.890625 35.015625 17.1875 
Q 35.015625 20.015625 34.5 22.84375 
Q 33.984375 25.6875 32.765625 28.125 
Q 31.546875 30.5625 29.421875 32.03125 
Q 27.296875 33.5 24.21875 33.5 
L 17.578125 33.5 
Q 16.703125 33.5 16.703125 34.421875 
L 16.703125 35.296875 
Q 16.703125 36.078125 17.578125 36.078125 
L 23.09375 36.53125 
Q 26.609375 36.53125 28.921875 39.15625 
Q 31.25 41.796875 32.328125 45.578125 
Q 33.40625 49.359375 33.40625 52.78125 
Q 33.40625 57.5625 31.15625 60.640625 
Q 28.90625 63.71875 24.3125 63.71875 
Q 20.515625 63.71875 17.046875 62.28125 
Q 13.578125 60.84375 11.53125 57.90625 
Q 11.71875 57.953125 11.859375 57.984375 
Q 12.015625 58.015625 12.203125 58.015625 
Q 14.453125 58.015625 15.96875 56.453125 
Q 17.484375 54.890625 17.484375 52.6875 
Q 17.484375 50.53125 15.96875 48.96875 
Q 14.453125 47.40625 12.203125 47.40625 
Q 10.015625 47.40625 8.453125 48.96875 
Q 6.890625 50.53125 6.890625 52.6875 
Q 6.890625 56.984375 9.46875 60.15625 
Q 12.0625 63.328125 16.140625 64.96875 
Q 20.21875 66.609375 24.3125 66.609375 
Q 27.34375 66.609375 30.703125 65.703125 
Q 34.078125 64.796875 36.8125 63.109375 
Q 39.546875 61.421875 41.28125 58.78125 
Q 43.015625 56.15625 43.015625 52.78125 
Q 43.015625 48.578125 41.140625 45.015625 
Q 39.265625 41.453125 35.984375 38.859375 
Q 32.71875 36.28125 28.8125 35.015625 
Q 33.15625 34.1875 37.0625 31.734375 
Q 40.96875 29.296875 43.328125 25.484375 
Q 45.703125 21.6875 45.703125 17.28125 
Q 45.703125 11.765625 42.671875 7.296875 
Q 39.65625 2.828125 34.71875 0.3125 
Q 29.78125 -2.203125 24.3125 -2.203125 
Q 19.625 -2.203125 14.90625 -0.40625 
Q 10.203125 1.375 7.203125 4.9375 
Q 4.203125 8.5 4.203125 13.484375 
Q 4.203125 15.96875 5.859375 17.625 
Q 7.515625 19.28125 10.015625 19.28125 
Q 11.625 19.28125 12.96875 18.53125 
Q 14.3125 17.78125 15.0625 16.40625 
Q 15.828125 15.046875 15.828125 13.484375 
Q 15.828125 11.03125 14.109375 9.375 
Q 12.40625 7.71875 10.015625 7.71875 
z
" id="Cmr10-51"/>
    </defs>
    <g style="fill:#1f77b4;" transform="translate(114.688429 80.17225)scale(0.08 -0.08)">
     <use transform="translate(0 0.609375)" xlink:href="#Cmmi10-193"/>
     <use transform="translate(59.521484 -16.396875)scale(0.7)" xlink:href="#Cmr10-51"/>
    </g>
   </g>
   <g id="text_22">
    <!-- $\hat{\mathcal{S}}_3$ -->
    <g style="fill:#1f77b4;" transform="translate(114.448429 167.75397)scale(0.08 -0.08)">
     <use transform="translate(12.593262 29.609375)" xlink:href="#Cmr10-94"/>
     <use transform="translate(0 0.40625)" xlink:href="#Cmsy10-83"/>
     <use transform="translate(64.962187 -16.6)scale(0.7)" xlink:href="#Cmr10-51"/>
    </g>
   </g>
   <g id="text_23">
    <!-- $\phi_4$ -->
    <defs>
     <path d="M 2.78125 16.5 
L 2.78125 20.015625 
L 33.6875 66.109375 
Q 34.03125 66.609375 34.71875 66.609375 
L 36.1875 66.609375 
Q 37.3125 66.609375 37.3125 65.484375 
L 37.3125 20.015625 
L 47.125 20.015625 
L 47.125 16.5 
L 37.3125 16.5 
L 37.3125 6.6875 
Q 37.3125 4.640625 40.234375 4.078125 
Q 43.171875 3.515625 47.015625 3.515625 
L 47.015625 0 
L 19.484375 0 
L 19.484375 3.515625 
Q 23.34375 3.515625 26.265625 4.078125 
Q 29.203125 4.640625 29.203125 6.6875 
L 29.203125 16.5 
z
M 6.109375 20.015625 
L 29.78125 20.015625 
L 29.78125 55.421875 
z
" id="Cmr10-52"/>
    </defs>
    <g style="fill:#d62728;" transform="translate(152.220825 80.17225)scale(0.08 -0.08)">
     <use transform="translate(0 0.609375)" xlink:href="#Cmmi10-193"/>
     <use transform="translate(59.521484 -16.396875)scale(0.7)" xlink:href="#Cmr10-52"/>
    </g>
   </g>
   <g id="text_24">
    <!-- $\hat{\mathcal{S}}_4$ -->
    <g style="fill:#d62728;" transform="translate(151.980825 156.90942)scale(0.08 -0.08)">
     <use transform="translate(12.593262 29.609375)" xlink:href="#Cmr10-94"/>
     <use transform="translate(0 0.40625)" xlink:href="#Cmsy10-83"/>
     <use transform="translate(64.962187 -16.6)scale(0.7)" xlink:href="#Cmr10-52"/>
    </g>
   </g>
   <g id="text_25">
    <!-- $\phi_5$ -->
    <defs>
     <path d="M 8.6875 11.375 
Q 9.71875 8.453125 11.84375 6.046875 
Q 13.96875 3.65625 16.875 2.3125 
Q 19.78125 0.984375 22.90625 0.984375 
Q 30.125 0.984375 32.859375 6.59375 
Q 35.59375 12.203125 35.59375 20.21875 
Q 35.59375 23.6875 35.46875 26.046875 
Q 35.359375 28.421875 34.8125 30.609375 
Q 33.890625 34.125 31.5625 36.765625 
Q 29.25 39.40625 25.875 39.40625 
Q 22.515625 39.40625 20.09375 38.375 
Q 17.671875 37.359375 16.15625 35.984375 
Q 14.65625 34.625 13.484375 33.109375 
Q 12.3125 31.59375 12.015625 31.5 
L 10.890625 31.5 
Q 10.640625 31.5 10.265625 31.8125 
Q 9.90625 32.125 9.90625 32.421875 
L 9.90625 65.828125 
Q 9.90625 66.0625 10.21875 66.328125 
Q 10.546875 66.609375 10.890625 66.609375 
L 11.1875 66.609375 
Q 17.921875 63.375 25.484375 63.375 
Q 32.90625 63.375 39.796875 66.609375 
L 40.09375 66.609375 
Q 40.4375 66.609375 40.71875 66.359375 
Q 41.015625 66.109375 41.015625 65.828125 
L 41.015625 64.890625 
Q 41.015625 64.40625 40.828125 64.40625 
Q 37.40625 59.859375 32.25 57.3125 
Q 27.09375 54.78125 21.578125 54.78125 
Q 17.578125 54.78125 13.375 55.90625 
L 13.375 37.015625 
Q 16.703125 39.703125 19.3125 40.84375 
Q 21.921875 42 25.984375 42 
Q 31.5 42 35.859375 38.8125 
Q 40.234375 35.640625 42.578125 30.53125 
Q 44.921875 25.4375 44.921875 20.125 
Q 44.921875 14.109375 41.96875 8.984375 
Q 39.015625 3.859375 33.9375 0.828125 
Q 28.859375 -2.203125 22.90625 -2.203125 
Q 17.96875 -2.203125 13.84375 0.328125 
Q 9.71875 2.875 7.34375 7.171875 
Q 4.984375 11.46875 4.984375 16.3125 
Q 4.984375 18.5625 6.4375 19.96875 
Q 7.90625 21.390625 10.109375 21.390625 
Q 12.3125 21.390625 13.796875 19.9375 
Q 15.28125 18.5 15.28125 16.3125 
Q 15.28125 14.15625 13.796875 12.671875 
Q 12.3125 11.1875 10.109375 11.1875 
Q 9.765625 11.1875 9.328125 11.25 
Q 8.890625 11.328125 8.6875 11.375 
z
" id="Cmr10-53"/>
    </defs>
    <g style="fill:#1f77b4;" transform="translate(189.753222 80.17225)scale(0.08 -0.08)">
     <use transform="translate(0 0.609375)" xlink:href="#Cmmi10-193"/>
     <use transform="translate(59.521484 -16.396875)scale(0.7)" xlink:href="#Cmr10-53"/>
    </g>
   </g>
   <g id="text_26">
    <!-- $\hat{\mathcal{S}}_5$ -->
    <g style="fill:#1f77b4;" transform="translate(189.513222 167.75397)scale(0.08 -0.08)">
     <use transform="translate(12.593262 29.609375)" xlink:href="#Cmr10-94"/>
     <use transform="translate(0 0.40625)" xlink:href="#Cmsy10-83"/>
     <use transform="translate(64.962187 -16.6)scale(0.7)" xlink:href="#Cmr10-53"/>
    </g>
   </g>
   <g id="text_27">
    <!-- $\phi_6$ -->
    <defs>
     <path d="M 25 -2.203125 
Q 18.796875 -2.203125 14.640625 1.09375 
Q 10.5 4.390625 8.21875 9.640625 
Q 5.953125 14.890625 5.078125 20.65625 
Q 4.203125 26.421875 4.203125 32.328125 
Q 4.203125 40.234375 7.28125 48.1875 
Q 10.359375 56.15625 16.328125 61.375 
Q 22.3125 66.609375 30.515625 66.609375 
Q 33.9375 66.609375 36.890625 65.3125 
Q 39.84375 64.015625 41.53125 61.5 
Q 43.21875 58.984375 43.21875 55.421875 
Q 43.21875 53.375 41.828125 51.984375 
Q 40.4375 50.59375 38.375 50.59375 
Q 36.421875 50.59375 35 52 
Q 33.59375 53.421875 33.59375 55.421875 
Q 33.59375 57.375 35 58.78125 
Q 36.421875 60.203125 38.375 60.203125 
L 38.921875 60.203125 
Q 37.640625 62.015625 35.328125 62.859375 
Q 33.015625 63.71875 30.515625 63.71875 
Q 27.484375 63.71875 24.921875 62.390625 
Q 22.359375 61.078125 20.3125 58.828125 
Q 18.265625 56.59375 16.890625 53.875 
Q 15.53125 51.171875 14.765625 47.703125 
Q 14.015625 44.234375 13.8125 41.203125 
Q 13.625 38.1875 13.625 33.59375 
Q 15.375 37.703125 18.59375 40.3125 
Q 21.828125 42.921875 25.875 42.921875 
Q 30.328125 42.921875 33.984375 41.109375 
Q 37.640625 39.3125 40.28125 36.109375 
Q 42.921875 32.90625 44.3125 28.796875 
Q 45.703125 24.703125 45.703125 20.515625 
Q 45.703125 14.65625 43.09375 9.34375 
Q 40.484375 4.046875 35.734375 0.921875 
Q 31 -2.203125 25 -2.203125 
z
M 25 0.984375 
Q 28.859375 0.984375 31.203125 2.734375 
Q 33.546875 4.5 34.640625 7.390625 
Q 35.75 10.296875 36.015625 13.25 
Q 36.28125 16.21875 36.28125 20.515625 
Q 36.28125 26.171875 35.734375 30.171875 
Q 35.203125 34.1875 32.8125 37.234375 
Q 30.421875 40.28125 25.484375 40.28125 
Q 21.4375 40.28125 18.828125 37.546875 
Q 16.21875 34.8125 15.015625 30.640625 
Q 13.8125 26.46875 13.8125 22.609375 
Q 13.8125 21.296875 13.921875 20.609375 
Q 13.921875 20.453125 13.890625 20.359375 
Q 13.875 20.265625 13.8125 20.125 
Q 13.8125 15.828125 14.6875 11.421875 
Q 15.578125 7.03125 18.0625 4 
Q 20.5625 0.984375 25 0.984375 
z
" id="Cmr10-54"/>
    </defs>
    <g style="fill:#d62728;" transform="translate(227.285618 80.17225)scale(0.08 -0.08)">
     <use transform="translate(0 0.609375)" xlink:href="#Cmmi10-193"/>
     <use transform="translate(59.521484 -16.396875)scale(0.7)" xlink:href="#Cmr10-54"/>
    </g>
   </g>
   <g id="text_28">
    <!-- $\hat{\mathcal{S}}_6$ -->
    <g style="fill:#d62728;" transform="translate(227.045618 156.90942)scale(0.08 -0.08)">
     <use transform="translate(12.593262 29.609375)" xlink:href="#Cmr10-94"/>
     <use transform="translate(0 0.40625)" xlink:href="#Cmsy10-83"/>
     <use transform="translate(64.962187 -16.6)scale(0.7)" xlink:href="#Cmr10-54"/>
    </g>
   </g>
   <g id="text_29">
    <!-- $\phi_7$ -->
    <defs>
     <path d="M 17.390625 2.59375 
Q 17.390625 8.15625 18.359375 13.46875 
Q 19.34375 18.796875 21.21875 24 
Q 23.09375 29.203125 25.75 34.203125 
Q 28.421875 39.203125 31.59375 43.609375 
L 40.71875 56.296875 
L 29.296875 56.296875 
Q 11.53125 56.296875 10.984375 55.8125 
Q 9.671875 54.203125 8.5 46.578125 
L 5.609375 46.578125 
L 8.890625 67.578125 
L 11.8125 67.578125 
L 11.8125 67.28125 
Q 11.8125 65.484375 17.921875 64.9375 
Q 24.03125 64.40625 29.890625 64.40625 
L 48.484375 64.40625 
L 48.484375 61.8125 
Q 48.484375 61.71875 48.453125 61.671875 
Q 48.4375 61.625 48.390625 61.53125 
L 34.625 42.1875 
Q 29.546875 34.671875 28.265625 25.484375 
Q 27 16.3125 27 2.59375 
Q 27 0.640625 25.578125 -0.78125 
Q 24.171875 -2.203125 22.21875 -2.203125 
Q 20.21875 -2.203125 18.796875 -0.78125 
Q 17.390625 0.640625 17.390625 2.59375 
z
" id="Cmr10-55"/>
    </defs>
    <g style="fill:#1f77b4;" transform="translate(264.818015 80.17225)scale(0.08 -0.08)">
     <use transform="translate(0 0.609375)" xlink:href="#Cmmi10-193"/>
     <use transform="translate(59.521484 -16.396875)scale(0.7)" xlink:href="#Cmr10-55"/>
    </g>
   </g>
   <g id="text_30">
    <!-- $\hat{\mathcal{S}}_7$ -->
    <g style="fill:#1f77b4;" transform="translate(264.578015 167.75397)scale(0.08 -0.08)">
     <use transform="translate(12.593262 29.609375)" xlink:href="#Cmr10-94"/>
     <use transform="translate(0 0.40625)" xlink:href="#Cmsy10-83"/>
     <use transform="translate(64.962187 -16.6)scale(0.7)" xlink:href="#Cmr10-55"/>
    </g>
   </g>
   <g id="text_31">
    <!-- $\phi_8$ -->
    <defs>
     <path d="M 4.203125 15.1875 
Q 4.203125 21.1875 8.15625 25.796875 
Q 12.109375 30.421875 18.3125 33.5 
L 14.59375 35.890625 
Q 11.1875 38.140625 9.03125 41.875 
Q 6.890625 45.609375 6.890625 49.703125 
Q 6.890625 54.5 9.40625 58.34375 
Q 11.921875 62.203125 16.09375 64.40625 
Q 20.265625 66.609375 25 66.609375 
Q 29.4375 66.609375 33.5625 64.796875 
Q 37.703125 62.984375 40.359375 59.609375 
Q 43.015625 56.25 43.015625 51.609375 
Q 43.015625 48.25 41.421875 45.359375 
Q 39.84375 42.484375 37.078125 40.1875 
Q 34.328125 37.890625 31.203125 36.28125 
L 36.921875 32.625 
Q 40.875 30.03125 43.28125 25.828125 
Q 45.703125 21.625 45.703125 17 
Q 45.703125 11.578125 42.796875 7.125 
Q 39.890625 2.6875 35.109375 0.234375 
Q 30.328125 -2.203125 25 -2.203125 
Q 19.828125 -2.203125 15.015625 -0.09375 
Q 10.203125 2 7.203125 5.984375 
Q 4.203125 9.96875 4.203125 15.1875 
z
M 9.625 15.1875 
Q 9.625 11.234375 11.796875 7.953125 
Q 13.96875 4.6875 17.53125 2.828125 
Q 21.09375 0.984375 25 0.984375 
Q 30.8125 0.984375 35.546875 4.375 
Q 40.28125 7.765625 40.28125 13.375 
Q 40.28125 15.28125 39.515625 17.15625 
Q 38.765625 19.046875 37.421875 20.578125 
Q 36.078125 22.125 34.421875 23.09375 
L 21 31.78125 
Q 17.875 30.125 15.25 27.578125 
Q 12.640625 25.046875 11.125 21.875 
Q 9.625 18.703125 9.625 15.1875 
z
M 16.5 45.703125 
L 28.609375 37.890625 
Q 32.8125 40.328125 35.5 43.796875 
Q 38.1875 47.265625 38.1875 51.609375 
Q 38.1875 54.984375 36.296875 57.78125 
Q 34.421875 60.59375 31.390625 62.15625 
Q 28.375 63.71875 24.90625 63.71875 
Q 21.875 63.71875 18.796875 62.546875 
Q 15.71875 61.375 13.71875 59.046875 
Q 11.71875 56.734375 11.71875 53.609375 
Q 11.71875 48.921875 16.5 45.703125 
z
" id="Cmr10-56"/>
    </defs>
    <g style="fill:#d62728;" transform="translate(302.350411 80.17225)scale(0.08 -0.08)">
     <use transform="translate(0 0.609375)" xlink:href="#Cmmi10-193"/>
     <use transform="translate(59.521484 -16.396875)scale(0.7)" xlink:href="#Cmr10-56"/>
    </g>
   </g>
   <g id="text_32">
    <!-- $\hat{\mathcal{S}}_8$ -->
    <g style="fill:#d62728;" transform="translate(302.110411 156.90942)scale(0.08 -0.08)">
     <use transform="translate(12.593262 29.609375)" xlink:href="#Cmr10-94"/>
     <use transform="translate(0 0.40625)" xlink:href="#Cmsy10-83"/>
     <use transform="translate(64.962187 -16.6)scale(0.7)" xlink:href="#Cmr10-56"/>
    </g>
   </g>
   <g id="text_33">
    <!-- $\mathcal{S}_1$ -->
    <g style="fill:#1f77b4;" transform="translate(48.766735 10.507995)scale(0.08 -0.08)">
     <use transform="translate(0 0.484375)" xlink:href="#Cmsy10-83"/>
     <use transform="translate(64.962187 -16.521875)scale(0.7)" xlink:href="#Cmr10-49"/>
    </g>
   </g>
   <g id="text_34">
    <!-- $\mathcal{S}_2$ -->
    <g style="fill:#d62728;" transform="translate(76.916033 10.507995)scale(0.08 -0.08)">
     <use transform="translate(0 0.484375)" xlink:href="#Cmsy10-83"/>
     <use transform="translate(64.962187 -16.521875)scale(0.7)" xlink:href="#Cmr10-50"/>
    </g>
   </g>
   <g id="text_35">
    <!-- $\mathcal{S}_3$ -->
    <g style="fill:#1f77b4;" transform="translate(114.448429 10.507995)scale(0.08 -0.08)">
     <use transform="translate(0 0.484375)" xlink:href="#Cmsy10-83"/>
     <use transform="translate(64.962187 -16.521875)scale(0.7)" xlink:href="#Cmr10-51"/>
    </g>
   </g>
   <g id="text_36">
    <!-- $\mathcal{S}_4$ -->
    <g style="fill:#d62728;" transform="translate(151.980825 10.507995)scale(0.08 -0.08)">
     <use transform="translate(0 0.484375)" xlink:href="#Cmsy10-83"/>
     <use transform="translate(64.962187 -16.521875)scale(0.7)" xlink:href="#Cmr10-52"/>
    </g>
   </g>
   <g id="text_37">
    <!-- $\mathcal{S}_5$ -->
    <g style="fill:#1f77b4;" transform="translate(189.513222 10.507995)scale(0.08 -0.08)">
     <use transform="translate(0 0.484375)" xlink:href="#Cmsy10-83"/>
     <use transform="translate(64.962187 -16.521875)scale(0.7)" xlink:href="#Cmr10-53"/>
    </g>
   </g>
   <g id="text_38">
    <!-- $\mathcal{S}_6$ -->
    <g style="fill:#d62728;" transform="translate(227.045618 10.507995)scale(0.08 -0.08)">
     <use transform="translate(0 0.484375)" xlink:href="#Cmsy10-83"/>
     <use transform="translate(64.962187 -16.521875)scale(0.7)" xlink:href="#Cmr10-54"/>
    </g>
   </g>
   <g id="text_39">
    <!-- $\mathcal{S}_7$ -->
    <g style="fill:#1f77b4;" transform="translate(264.578015 10.507995)scale(0.08 -0.08)">
     <use transform="translate(0 0.484375)" xlink:href="#Cmsy10-83"/>
     <use transform="translate(64.962187 -16.521875)scale(0.7)" xlink:href="#Cmr10-55"/>
    </g>
   </g>
   <g id="text_40">
    <!-- $\mathcal{S}_8$ -->
    <g style="fill:#d62728;" transform="translate(302.110411 10.507995)scale(0.08 -0.08)">
     <use transform="translate(0 0.484375)" xlink:href="#Cmsy10-83"/>
     <use transform="translate(64.962187 -16.521875)scale(0.7)" xlink:href="#Cmr10-56"/>
    </g>
   </g>
   <g id="text_41">
    <!-- $\mathcal{S}_9$ -->
    <g style="fill:#1f77b4;" transform="translate(329.966486 10.507995)scale(0.08 -0.08)">
     <use transform="translate(0 0.484375)" xlink:href="#Cmsy10-83"/>
     <use transform="translate(64.962187 -16.521875)scale(0.7)" xlink:href="#Cmr10-57"/>
    </g>
   </g>
  </g>
 </g>
 <defs>
  <clipPath id="p5ee9912836">
   <rect height="108.4455" width="329.64" x="28.68" y="23.9895"/>
  </clipPath>
 </defs>
</svg>
