<?xml version="1.0" encoding="utf-8" standalone="no"?>
<!DOCTYPE svg PUBLIC "-//W3C//DTD SVG 1.1//EN"
  "http://www.w3.org/Graphics/SVG/1.1/DTD/svg11.dtd">
<!-- Created with matplotlib (https://matplotlib.org/) -->
<svg height="288pt" version="1.1" viewBox="0 0 360 288" width="360pt" xmlns="http://www.w3.org/2000/svg" xmlns:xlink="http://www.w3.org/1999/xlink">
 <defs>
  <style type="text/css">
*{stroke-linecap:butt;stroke-linejoin:round;}
  </style>
 </defs>
 <g id="figure_1">
  <g id="patch_1">
   <path d="M 0 288 
L 360 288 
L 360 0 
L 0 0 
z
" style="fill:#ffffff;"/>
  </g>
  <g id="axes_1">
   <g id="patch_2">
    <path d="M 36.78 131.46375 
L 358.32 131.46375 
L 358.32 1.68 
L 36.78 1.68 
z
" style="fill:#ffffff;"/>
   </g>
   <g id="matplotlib.axis_1"/>
   <g id="matplotlib.axis_2">
    <g id="ytick_1">
     <g id="line2d_1">
      <defs>
       <path d="M 0 0 
L -3.5 0 
" id="m56e11fbdec" style="stroke:#000000;stroke-width:0.8;"/>
      </defs>
      <g>
       <use style="stroke:#000000;stroke-width:0.8;" x="36.78" xlink:href="#m56e11fbdec" y="124.253542"/>
      </g>
     </g>
     <g id="text_1">
      <!-- −0.8 -->
      <defs>
       <path d="M 76.59375 25 
C 76.59375 27.296875 74.203125 27.296875 72.703125 27.296875 
L 9.796875 27.296875 
C 8.296875 27.296875 5.90625 27.296875 5.90625 25 
C 5.90625 22.703125 7.90625 22.703125 9.40625 22.703125 
L 73.09375 22.703125 
C 74.59375 22.703125 76.59375 22.703125 76.59375 25 
z
" id="LMRoman8-Regular-8722"/>
       <path d="M 48.90625 31.90625 
C 48.90625 42.59375 47.796875 49.09375 44.5 55.5 
C 40.09375 64.296875 32 66.5 26.5 66.5 
C 13.90625 66.5 9.296875 57.09375 7.90625 54.296875 
C 4.296875 47 4.09375 37.09375 4.09375 31.90625 
C 4.09375 25.296875 4.40625 15.203125 9.203125 7.203125 
C 13.796875 -0.203125 21.203125 -2.09375 26.5 -2.09375 
C 31.296875 -2.09375 39.90625 -0.59375 44.90625 9.296875 
C 48.59375 16.5 48.90625 25.40625 48.90625 31.90625 
z
M 40 33.09375 
C 40 27.203125 40 18.203125 38.796875 12.59375 
C 36.703125 2.09375 29.796875 0.703125 26.5 0.703125 
C 23.09375 0.703125 16.203125 2.296875 14.09375 12.796875 
C 13 18.5 13 27.90625 13 33.09375 
C 13 40 13 47 14.09375 52.5 
C 16.203125 62.703125 24 63.703125 26.5 63.703125 
C 29.90625 63.703125 36.796875 62 38.796875 52.90625 
C 40 47.40625 40 39.90625 40 33.09375 
z
" id="LMRoman8-Regular-48"/>
       <path d="M 20.296875 5.5 
C 20.296875 8.90625 17.59375 11.09375 14.796875 11.09375 
C 11.40625 11.09375 9.203125 8.40625 9.203125 5.59375 
C 9.203125 2.203125 11.90625 0 14.703125 0 
C 18.09375 0 20.296875 2.703125 20.296875 5.5 
z
" id="LMRoman8-Regular-46"/>
       <path d="M 48.59375 16.796875 
C 48.59375 23.09375 45.203125 27.296875 43.59375 29 
C 41.90625 30.59375 41.796875 30.703125 33.203125 36.09375 
C 38.796875 38.796875 45.59375 43.796875 45.59375 51.59375 
C 45.59375 61.09375 35.90625 66.5 26.59375 66.5 
C 16 66.5 7.40625 59.203125 7.40625 49.796875 
C 7.40625 46.09375 8.703125 42.703125 11.203125 39.796875 
C 12.90625 37.703125 13.296875 37.5 19.5 33.59375 
C 7.09375 28.09375 4.40625 20.796875 4.40625 15.203125 
C 4.40625 4.203125 15.5 -2.09375 26.40625 -2.09375 
C 38.703125 -2.09375 48.59375 6.203125 48.59375 16.796875 
z
M 40.59375 51.59375 
C 40.59375 45.796875 36.09375 40.90625 30.203125 38 
L 17.703125 45.5 
C 14.796875 47.203125 12.40625 50.09375 12.40625 53.59375 
C 12.40625 59.90625 19.296875 63.90625 26.40625 63.90625 
C 34.203125 63.90625 40.59375 58.59375 40.59375 51.59375 
z
M 42.90625 13.40625 
C 42.90625 5.703125 34.796875 0.90625 26.59375 0.90625 
C 17.703125 0.90625 10.09375 7 10.09375 15.203125 
C 10.09375 22.703125 15.703125 28.59375 22.59375 31.796875 
L 36.09375 23.5 
C 37.703125 22.59375 42.90625 19.40625 42.90625 13.40625 
z
" id="LMRoman8-Regular-56"/>
      </defs>
      <g transform="translate(16.683125 126.335729)scale(0.06 -0.06)">
       <use xlink:href="#LMRoman8-Regular-8722"/>
       <use x="82.599991" xlink:href="#LMRoman8-Regular-48"/>
       <use x="135.699982" xlink:href="#LMRoman8-Regular-46"/>
       <use x="165.199966" xlink:href="#LMRoman8-Regular-56"/>
      </g>
     </g>
    </g>
    <g id="ytick_2">
     <g id="line2d_2">
      <g>
       <use style="stroke:#000000;stroke-width:0.8;" x="36.78" xlink:href="#m56e11fbdec" y="109.833125"/>
      </g>
     </g>
     <g id="text_2">
      <!-- −0.6 -->
      <defs>
       <path d="M 48.59375 20.296875 
C 48.59375 33.40625 38.703125 42.59375 27.59375 42.59375 
C 20.40625 42.59375 16.09375 38 13.796875 33.09375 
C 13.796875 41.40625 14.5 48.703125 18.09375 54.796875 
C 21.09375 59.796875 26.203125 63.90625 32.5 63.90625 
C 34.5 63.90625 39.09375 63.59375 41.40625 60.09375 
C 36.90625 59.90625 36.5 56.5 36.5 55.40625 
C 36.5 52.40625 38.796875 50.703125 41.203125 50.703125 
C 43 50.703125 45.90625 51.796875 45.90625 55.59375 
C 45.90625 61.59375 41.40625 66.5 32.40625 66.5 
C 18.5 66.5 4.40625 53.296875 4.40625 31.703125 
C 4.40625 4.59375 17 -2.09375 26.703125 -2.09375 
C 31.5 -2.09375 36.703125 -0.796875 41.203125 3.5 
C 45.203125 7.40625 48.59375 11.59375 48.59375 20.296875 
z
M 39.203125 20.40625 
C 39.203125 15.296875 39.203125 10.90625 37.203125 7.296875 
C 34.59375 2.703125 31.09375 0.90625 26.703125 0.90625 
C 21.40625 0.90625 18.09375 4.59375 16.59375 7.40625 
C 14.296875 11.90625 14.09375 18.703125 14.09375 22.5 
C 14.09375 32.40625 19.5 39.796875 27.203125 39.796875 
C 32.203125 39.796875 35.203125 37.203125 37.09375 33.703125 
C 39.203125 30 39.203125 25.5 39.203125 20.40625 
z
" id="LMRoman8-Regular-54"/>
      </defs>
      <g transform="translate(16.683125 111.915312)scale(0.06 -0.06)">
       <use xlink:href="#LMRoman8-Regular-8722"/>
       <use x="82.599991" xlink:href="#LMRoman8-Regular-48"/>
       <use x="135.699982" xlink:href="#LMRoman8-Regular-46"/>
       <use x="165.199966" xlink:href="#LMRoman8-Regular-54"/>
      </g>
     </g>
    </g>
    <g id="ytick_3">
     <g id="line2d_3">
      <g>
       <use style="stroke:#000000;stroke-width:0.8;" x="36.78" xlink:href="#m56e11fbdec" y="95.412708"/>
      </g>
     </g>
     <g id="text_3">
      <!-- −0.4 -->
      <defs>
       <path d="M 50 16.40625 
L 50 19.703125 
L 39.40625 19.703125 
L 39.40625 64.703125 
C 39.40625 66.703125 39.40625 67.5 37.296875 67.5 
C 36 67.5 35.90625 67.40625 34.90625 66 
L 3 19.703125 
L 3 16.40625 
L 31.203125 16.40625 
L 31.203125 8.09375 
C 31.203125 4.40625 30.90625 3.296875 23.203125 3.296875 
L 20.90625 3.296875 
L 20.90625 0 
L 35.296875 0.296875 
L 49.703125 0 
L 49.703125 3.296875 
L 47.40625 3.296875 
C 39.703125 3.296875 39.40625 4.40625 39.40625 8.09375 
L 39.40625 16.40625 
z
M 31.90625 19.703125 
L 6.5 19.703125 
L 31.90625 56.59375 
z
" id="LMRoman8-Regular-52"/>
      </defs>
      <g transform="translate(16.683125 97.494896)scale(0.06 -0.06)">
       <use xlink:href="#LMRoman8-Regular-8722"/>
       <use x="82.599991" xlink:href="#LMRoman8-Regular-48"/>
       <use x="135.699982" xlink:href="#LMRoman8-Regular-46"/>
       <use x="165.199966" xlink:href="#LMRoman8-Regular-52"/>
      </g>
     </g>
    </g>
    <g id="ytick_4">
     <g id="line2d_4">
      <g>
       <use style="stroke:#000000;stroke-width:0.8;" x="36.78" xlink:href="#m56e11fbdec" y="80.992292"/>
      </g>
     </g>
     <g id="text_4">
      <!-- −0.2 -->
      <defs>
       <path d="M 47.703125 17.90625 
L 44.59375 17.90625 
C 44.296875 15.90625 43.5 10.90625 42.296875 9 
C 41.703125 8.203125 34.09375 8.203125 32.5 8.203125 
L 14.703125 8.203125 
L 28.203125 20.40625 
C 29.796875 21.90625 34 25.203125 35.59375 26.59375 
C 41.796875 32.296875 47.703125 37.796875 47.703125 46.90625 
C 47.703125 58.796875 37.703125 66.5 25.203125 66.5 
C 13.203125 66.5 5.296875 57.40625 5.296875 48.5 
C 5.296875 43.59375 9.203125 42.90625 10.59375 42.90625 
C 12.703125 42.90625 15.796875 44.40625 15.796875 48.203125 
C 15.796875 53.40625 10.796875 53.40625 9.59375 53.40625 
C 12.5 60.703125 19.203125 63.203125 24.09375 63.203125 
C 33.40625 63.203125 38.203125 55.296875 38.203125 46.90625 
C 38.203125 36.5 30.90625 28.90625 19.09375 16.796875 
L 6.5 3.796875 
C 5.296875 2.703125 5.296875 2.5 5.296875 0 
L 44.796875 0 
z
" id="LMRoman8-Regular-50"/>
      </defs>
      <g transform="translate(16.683125 83.074479)scale(0.06 -0.06)">
       <use xlink:href="#LMRoman8-Regular-8722"/>
       <use x="82.599991" xlink:href="#LMRoman8-Regular-48"/>
       <use x="135.699982" xlink:href="#LMRoman8-Regular-46"/>
       <use x="165.199966" xlink:href="#LMRoman8-Regular-50"/>
      </g>
     </g>
    </g>
    <g id="ytick_5">
     <g id="line2d_5">
      <g>
       <use style="stroke:#000000;stroke-width:0.8;" x="36.78" xlink:href="#m56e11fbdec" y="66.571875"/>
      </g>
     </g>
     <g id="text_5">
      <!-- 0.0 -->
      <g transform="translate(21.63875 68.654063)scale(0.06 -0.06)">
       <use xlink:href="#LMRoman8-Regular-48"/>
       <use x="53.099991" xlink:href="#LMRoman8-Regular-46"/>
       <use x="82.599976" xlink:href="#LMRoman8-Regular-48"/>
      </g>
     </g>
    </g>
    <g id="ytick_6">
     <g id="line2d_6">
      <g>
       <use style="stroke:#000000;stroke-width:0.8;" x="36.78" xlink:href="#m56e11fbdec" y="52.151458"/>
      </g>
     </g>
     <g id="text_6">
      <!-- 0.2 -->
      <g transform="translate(21.63875 54.233646)scale(0.06 -0.06)">
       <use xlink:href="#LMRoman8-Regular-48"/>
       <use x="53.099991" xlink:href="#LMRoman8-Regular-46"/>
       <use x="82.599976" xlink:href="#LMRoman8-Regular-50"/>
      </g>
     </g>
    </g>
    <g id="ytick_7">
     <g id="line2d_7">
      <g>
       <use style="stroke:#000000;stroke-width:0.8;" x="36.78" xlink:href="#m56e11fbdec" y="37.731042"/>
      </g>
     </g>
     <g id="text_7">
      <!-- 0.4 -->
      <g transform="translate(21.63875 39.813229)scale(0.06 -0.06)">
       <use xlink:href="#LMRoman8-Regular-48"/>
       <use x="53.099991" xlink:href="#LMRoman8-Regular-46"/>
       <use x="82.599976" xlink:href="#LMRoman8-Regular-52"/>
      </g>
     </g>
    </g>
    <g id="ytick_8">
     <g id="line2d_8">
      <g>
       <use style="stroke:#000000;stroke-width:0.8;" x="36.78" xlink:href="#m56e11fbdec" y="23.310625"/>
      </g>
     </g>
     <g id="text_8">
      <!-- 0.6 -->
      <g transform="translate(21.63875 25.392812)scale(0.06 -0.06)">
       <use xlink:href="#LMRoman8-Regular-48"/>
       <use x="53.099991" xlink:href="#LMRoman8-Regular-46"/>
       <use x="82.599976" xlink:href="#LMRoman8-Regular-54"/>
      </g>
     </g>
    </g>
    <g id="ytick_9">
     <g id="line2d_9">
      <g>
       <use style="stroke:#000000;stroke-width:0.8;" x="36.78" xlink:href="#m56e11fbdec" y="8.890208"/>
      </g>
     </g>
     <g id="text_9">
      <!-- 0.8 -->
      <g transform="translate(21.63875 10.972396)scale(0.06 -0.06)">
       <use xlink:href="#LMRoman8-Regular-48"/>
       <use x="53.099991" xlink:href="#LMRoman8-Regular-46"/>
       <use x="82.599976" xlink:href="#LMRoman8-Regular-56"/>
      </g>
     </g>
    </g>
    <g id="text_10">
     <!-- $\phi_{b}(s)\,\vec{z}^{\,p}(s)$ -->
     <defs>
      <path d="M 19.390625 -19.484375 
L 23.875 -1.421875 
Q 18.796875 -1.421875 14.40625 0.953125 
Q 10.015625 3.328125 7.34375 7.5625 
Q 4.6875 11.8125 4.6875 16.796875 
Q 4.6875 22.21875 7.375 27.140625 
Q 10.0625 32.078125 14.71875 36.109375 
Q 19.390625 40.140625 24.75 42.3125 
Q 30.125 44.484375 35.40625 44.484375 
L 41.40625 68.796875 
Q 41.609375 69.390625 42.1875 69.390625 
L 43.40625 69.390625 
Q 43.796875 69.390625 44.03125 69.046875 
Q 44.28125 68.703125 44.28125 68.40625 
L 38.28125 44.484375 
Q 42.046875 44.484375 45.5625 43.109375 
Q 49.078125 41.75 51.78125 39.28125 
Q 54.5 36.8125 56 33.46875 
Q 57.515625 30.125 57.515625 26.3125 
Q 57.515625 20.90625 54.828125 15.96875 
Q 52.15625 11.03125 47.609375 7.078125 
Q 43.0625 3.125 37.46875 0.84375 
Q 31.890625 -1.421875 26.8125 -1.421875 
L 22.21875 -19.921875 
Q 22.015625 -20.515625 21.390625 -20.515625 
L 20.21875 -20.515625 
Q 19.828125 -20.515625 19.609375 -20.140625 
Q 19.390625 -19.78125 19.390625 -19.484375 
z
M 24.515625 1.21875 
L 34.71875 41.890625 
Q 32.171875 41.890625 29.390625 40.859375 
Q 26.609375 39.84375 24.140625 38.28125 
Q 21.6875 36.71875 19.671875 34.71875 
Q 17.234375 32.28125 15.375 28.953125 
Q 13.53125 25.640625 12.578125 21.953125 
Q 11.625 18.265625 11.625 14.703125 
Q 11.625 10.9375 13.234375 7.859375 
Q 14.84375 4.78125 17.765625 3 
Q 20.703125 1.21875 24.515625 1.21875 
z
M 27.484375 1.21875 
Q 31.25 1.21875 35.5 3.359375 
Q 39.75 5.515625 42.484375 8.40625 
Q 46.234375 12.109375 48.40625 17.5 
Q 50.59375 22.90625 50.59375 28.421875 
Q 50.59375 32.125 48.96875 35.21875 
Q 47.359375 38.328125 44.421875 40.109375 
Q 41.5 41.890625 37.703125 41.890625 
z
" id="Cmmi10-193"/>
      <path d="M 17.28125 -1.125 
Q 11.234375 -1.125 7.859375 3.609375 
Q 4.5 8.34375 4.5 14.703125 
Q 4.5 15.625 4.953125 18.328125 
Q 5.421875 21.046875 5.421875 21.6875 
L 15.09375 60.5 
Q 15.484375 62.203125 15.578125 63.1875 
Q 15.578125 64.796875 9.078125 64.796875 
Q 8.109375 64.796875 8.109375 66.109375 
Q 8.15625 66.359375 8.328125 66.984375 
Q 8.5 67.625 8.765625 67.96875 
Q 9.03125 68.3125 9.515625 68.3125 
L 23 69.390625 
Q 24.21875 69.390625 24.21875 68.109375 
L 16.796875 38.625 
Q 22.46875 44.1875 28.21875 44.1875 
Q 32.46875 44.1875 35.515625 41.9375 
Q 38.578125 39.703125 40.09375 36.03125 
Q 41.609375 32.375 41.609375 28.21875 
Q 41.609375 23.390625 39.71875 18.234375 
Q 37.84375 13.09375 34.515625 8.671875 
Q 31.203125 4.25 26.75 1.5625 
Q 22.3125 -1.125 17.28125 -1.125 
z
M 17.484375 1.515625 
Q 20.90625 1.515625 23.875 4.375 
Q 26.859375 7.234375 28.71875 10.796875 
Q 30.71875 14.796875 32.453125 21.65625 
Q 34.1875 28.515625 34.1875 32.625 
Q 34.1875 36.1875 32.6875 38.890625 
Q 31.203125 41.609375 27.984375 41.609375 
Q 24.359375 41.609375 21.0625 38.9375 
Q 17.78125 36.28125 15.28125 32.625 
L 12.5 21.296875 
Q 10.890625 14.984375 10.796875 11.1875 
Q 10.796875 7.421875 12.421875 4.46875 
Q 14.0625 1.515625 17.484375 1.515625 
z
" id="Cmmi10-98"/>
      <path d="M 31 -24.8125 
Q 25.4375 -20.40625 21.40625 -14.71875 
Q 17.390625 -9.03125 14.8125 -2.578125 
Q 12.25 3.859375 10.984375 10.890625 
Q 9.71875 17.921875 9.71875 25 
Q 9.71875 32.171875 10.984375 39.203125 
Q 12.25 46.234375 14.859375 52.734375 
Q 17.484375 59.234375 21.53125 64.890625 
Q 25.59375 70.5625 31 74.8125 
Q 31 75 31.5 75 
L 32.421875 75 
Q 32.71875 75 32.953125 74.734375 
Q 33.203125 74.46875 33.203125 74.125 
Q 33.203125 73.6875 33.015625 73.484375 
Q 28.125 68.703125 24.875 63.234375 
Q 21.625 57.765625 19.640625 51.578125 
Q 17.671875 45.40625 16.796875 38.78125 
Q 15.921875 32.171875 15.921875 25 
Q 15.921875 -6.78125 32.90625 -23.296875 
Q 33.203125 -23.578125 33.203125 -24.125 
Q 33.203125 -24.359375 32.9375 -24.671875 
Q 32.671875 -25 32.421875 -25 
L 31.5 -25 
Q 31 -25 31 -24.8125 
z
" id="Cmr10-40"/>
      <path d="M 8.6875 6.109375 
Q 11.375 1.515625 19.484375 1.515625 
Q 23 1.515625 26.171875 2.703125 
Q 29.34375 3.90625 31.421875 6.296875 
Q 33.5 8.6875 33.5 12.109375 
Q 33.5 14.703125 31.640625 16.359375 
Q 29.78125 18.015625 27.09375 18.609375 
L 21.6875 19.671875 
Q 17.96875 20.609375 15.578125 23.140625 
Q 13.1875 25.6875 13.1875 29.296875 
Q 13.1875 33.734375 15.59375 37.15625 
Q 18.015625 40.578125 21.96875 42.375 
Q 25.921875 44.1875 30.171875 44.1875 
Q 34.71875 44.1875 38.296875 42.015625 
Q 41.890625 39.84375 41.890625 35.59375 
Q 41.890625 33.296875 40.59375 31.53125 
Q 39.3125 29.78125 37.015625 29.78125 
Q 35.6875 29.78125 34.734375 30.640625 
Q 33.796875 31.5 33.796875 32.8125 
Q 33.796875 33.984375 34.453125 35.078125 
Q 35.109375 36.1875 36.203125 36.84375 
Q 37.3125 37.5 38.484375 37.5 
Q 37.59375 39.65625 35.171875 40.625 
Q 32.765625 41.609375 29.984375 41.609375 
Q 27.4375 41.609375 24.890625 40.578125 
Q 22.359375 39.546875 20.8125 37.5625 
Q 19.28125 35.59375 19.28125 32.90625 
Q 19.28125 31.109375 20.546875 29.734375 
Q 21.828125 28.375 23.6875 27.78125 
L 29.5 26.609375 
Q 32.28125 26.03125 34.59375 24.53125 
Q 36.921875 23.046875 38.25 20.765625 
Q 39.59375 18.5 39.59375 15.578125 
Q 39.59375 11.859375 37.515625 8.25 
Q 35.453125 4.640625 32.421875 2.484375 
Q 27.09375 -1.125 19.390625 -1.125 
Q 14.0625 -1.125 9.609375 1.3125 
Q 5.171875 3.765625 5.171875 8.59375 
Q 5.171875 11.328125 6.75 13.34375 
Q 8.34375 15.375 11.078125 15.375 
Q 12.703125 15.375 13.796875 14.390625 
Q 14.890625 13.421875 14.890625 11.8125 
Q 14.890625 9.515625 13.171875 7.8125 
Q 11.46875 6.109375 9.1875 6.109375 
z
" id="Cmmi10-115"/>
      <path d="M 6.5 -25 
Q 5.609375 -25 5.609375 -24.125 
Q 5.609375 -23.6875 5.8125 -23.484375 
Q 22.90625 -6.78125 22.90625 25 
Q 22.90625 56.78125 6 73.296875 
Q 5.609375 73.53125 5.609375 74.125 
Q 5.609375 74.46875 5.875 74.734375 
Q 6.15625 75 6.5 75 
L 7.421875 75 
Q 7.71875 75 7.90625 74.8125 
Q 15.09375 69.140625 19.875 61.03125 
Q 24.65625 52.9375 26.875 43.75 
Q 29.109375 34.578125 29.109375 25 
Q 29.109375 17.921875 27.90625 11.0625 
Q 26.703125 4.203125 24.09375 -2.453125 
Q 21.484375 -9.125 17.484375 -14.765625 
Q 13.484375 -20.40625 7.90625 -24.8125 
Q 7.71875 -25 7.421875 -25 
z
" id="Cmr10-41"/>
      <path d="M 20.015625 59.515625 
Q 19.234375 59.515625 18.71875 60.09375 
Q 18.21875 60.6875 18.21875 61.53125 
Q 18.21875 62.25 18.71875 62.859375 
Q 19.234375 63.484375 20.015625 63.484375 
L 55.421875 63.484375 
Q 52.78125 67.046875 52.78125 69.390625 
Q 52.78125 70.265625 53.390625 70.828125 
Q 54 71.390625 54.78125 71.390625 
Q 56.453125 71.390625 56.78125 69.828125 
Q 57.765625 65.53125 61.53125 63.1875 
Q 62.5 62.546875 62.5 61.53125 
Q 62.5 60.296875 61.53125 59.8125 
Q 55.859375 56.984375 52.390625 52.296875 
Q 52 51.609375 50.875 51.609375 
Q 50.140625 51.609375 49.5 52.1875 
Q 48.875 52.78125 48.875 53.609375 
Q 48.875 55.421875 53.71875 59.515625 
z
" id="Cmmi10-126"/>
      <path d="M 4.890625 -1.125 
Q 4.109375 -1.125 4.109375 -0.203125 
Q 4.109375 0.296875 4.296875 0.484375 
Q 6.984375 5.125 10.765625 9.34375 
Q 14.546875 13.578125 19.359375 17.890625 
Q 24.171875 22.21875 29.03125 26.5625 
Q 33.890625 30.90625 36.921875 34.28125 
L 36.53125 34.28125 
Q 34.328125 34.28125 30.078125 35.6875 
Q 25.828125 37.109375 23.390625 37.109375 
Q 20.75 37.109375 18.25 35.953125 
Q 15.765625 34.8125 15.09375 32.421875 
Q 14.9375 31.6875 14.3125 31.6875 
L 13.09375 31.6875 
Q 12.3125 31.6875 12.3125 32.71875 
L 12.3125 33.015625 
Q 13.09375 35.9375 14.875 38.46875 
Q 16.65625 41.015625 19.265625 42.59375 
Q 21.875 44.1875 24.703125 44.1875 
Q 26.703125 44.1875 28.015625 43.28125 
Q 29.34375 42.390625 31.09375 40.484375 
Q 32.859375 38.578125 33.953125 37.75 
Q 35.0625 36.921875 36.71875 36.921875 
Q 38.921875 36.921875 40.65625 38.921875 
Q 42.390625 40.921875 44.09375 43.890625 
Q 44.390625 44.1875 44.828125 44.1875 
L 46 44.1875 
Q 46.34375 44.1875 46.5625 43.9375 
Q 46.78125 43.703125 46.78125 43.3125 
Q 46.78125 42.96875 46.578125 42.671875 
Q 43.890625 38.03125 40.296875 34 
Q 36.71875 29.984375 30.921875 24.78125 
Q 25.140625 19.578125 21.15625 15.984375 
Q 17.1875 12.40625 13.71875 8.59375 
Q 14.5 8.796875 15.828125 8.796875 
Q 18.265625 8.796875 22.484375 7.390625 
Q 26.703125 6 29 6 
Q 31.5 6 34.03125 7.078125 
Q 36.578125 8.15625 38.421875 10.109375 
Q 40.28125 12.0625 40.921875 14.59375 
Q 41.15625 15.28125 41.703125 15.28125 
L 42.921875 15.28125 
Q 43.3125 15.28125 43.546875 14.96875 
Q 43.796875 14.65625 43.796875 14.3125 
Q 43.796875 14.203125 43.703125 14.015625 
Q 42.78125 10.203125 40.484375 6.765625 
Q 38.1875 3.328125 34.84375 1.09375 
Q 31.5 -1.125 27.6875 -1.125 
Q 25.78125 -1.125 24.453125 -0.234375 
Q 23.140625 0.640625 21.359375 2.5625 
Q 19.578125 4.5 18.453125 5.34375 
Q 17.328125 6.203125 15.71875 6.203125 
Q 10.75 6.203125 6.78125 -0.78125 
Q 6.453125 -1.125 6.109375 -1.125 
z
" id="Cmmi10-122"/>
      <path d="M -2.484375 -19.390625 
Q -3.421875 -19.390625 -3.421875 -18.109375 
Q -3.078125 -15.921875 -2.09375 -15.921875 
Q 1.03125 -15.921875 2.265625 -15.359375 
Q 3.515625 -14.796875 4.203125 -12.5 
L 15.484375 32.515625 
Q 16.21875 34.375 16.21875 37.3125 
Q 16.21875 41.609375 13.28125 41.609375 
Q 10.15625 41.609375 8.640625 37.859375 
Q 7.125 34.125 5.71875 28.421875 
Q 5.71875 27.78125 4.890625 27.78125 
L 3.71875 27.78125 
Q 3.46875 27.78125 3.171875 28.140625 
Q 2.875 28.515625 2.875 28.8125 
Q 3.953125 33.15625 4.953125 36.171875 
Q 5.953125 39.203125 8.078125 41.6875 
Q 10.203125 44.1875 13.375 44.1875 
Q 16.796875 44.1875 19.375 42.25 
Q 21.96875 40.328125 22.703125 37.015625 
Q 25.4375 40.1875 28.75 42.1875 
Q 32.078125 44.1875 35.59375 44.1875 
Q 39.796875 44.1875 42.890625 41.9375 
Q 46 39.703125 47.5625 36.0625 
Q 49.125 32.421875 49.125 28.21875 
Q 49.125 21.78125 45.828125 14.890625 
Q 42.53125 8.015625 36.890625 3.4375 
Q 31.25 -1.125 24.8125 -1.125 
Q 21.875 -1.125 19.5 0.53125 
Q 17.140625 2.203125 15.828125 4.890625 
L 11.28125 -12.890625 
Q 11.03125 -14.359375 10.984375 -14.59375 
Q 10.984375 -15.921875 17.578125 -15.921875 
Q 18.609375 -15.921875 18.609375 -17.1875 
Q 18.265625 -18.5 18.046875 -18.9375 
Q 17.828125 -19.390625 16.890625 -19.390625 
z
M 24.90625 1.515625 
Q 28.375 1.515625 31.34375 4.375 
Q 34.328125 7.234375 36.1875 10.796875 
Q 37.546875 13.484375 38.734375 17.359375 
Q 39.9375 21.234375 40.8125 25.625 
Q 41.703125 30.03125 41.703125 32.625 
Q 41.703125 34.90625 41.09375 36.90625 
Q 40.484375 38.921875 39.09375 40.265625 
Q 37.703125 41.609375 35.40625 41.609375 
Q 31.734375 41.609375 28.484375 38.984375 
Q 25.25 36.375 22.609375 32.515625 
L 22.609375 32.171875 
L 17.09375 10.109375 
Q 17.78125 6.546875 19.734375 4.03125 
Q 21.6875 1.515625 24.90625 1.515625 
z
" id="Cmmi10-112"/>
     </defs>
     <g transform="translate(12.183125 89.721875)rotate(-90)scale(0.1 -0.1)">
      <use transform="translate(0 0.53125)" xlink:href="#Cmmi10-193"/>
      <use transform="translate(59.521484 -16.475)scale(0.7)" xlink:href="#Cmmi10-98"/>
      <use transform="translate(95.942773 0.53125)" xlink:href="#Cmr10-40"/>
      <use transform="translate(134.761133 0.53125)" xlink:href="#Cmmi10-115"/>
      <use transform="translate(181.538477 0.53125)" xlink:href="#Cmr10-41"/>
      <use transform="translate(223.391634 5.609375)" xlink:href="#Cmmi10-126"/>
      <use transform="translate(234.98929 0.53125)" xlink:href="#Cmmi10-122"/>
      <use transform="translate(296.180524 38.795313)scale(0.7)" xlink:href="#Cmmi10-112"/>
      <use transform="translate(337.762945 0.53125)" xlink:href="#Cmr10-40"/>
      <use transform="translate(376.581305 0.53125)" xlink:href="#Cmmi10-115"/>
      <use transform="translate(423.358649 0.53125)" xlink:href="#Cmr10-41"/>
     </g>
    </g>
   </g>
   <g id="line2d_10">
    <path clip-path="url(#p14defd034f)" d="M 51.395455 33.442038 
L 51.967488 29.154085 
L 52.539521 24.820091 
L 53.111555 20.851107 
L 53.683588 17.561445 
L 54.255622 15.137498 
L 54.827655 13.625153 
L 55.399689 12.969533 
L 55.971722 13.004462 
L 56.543756 13.557393 
L 57.115789 14.559499 
L 57.687822 16.033602 
L 58.259856 18.041475 
L 58.831889 20.643008 
L 59.403923 23.903917 
L 59.975956 27.842986 
L 60.54799 32.38764 
L 61.120023 37.448926 
L 61.692057 42.884929 
L 62.26409 48.530134 
L 62.836123 54.126694 
L 63.408157 59.414224 
L 63.98019 64.227958 
L 64.552224 68.454161 
L 65.124257 71.969004 
L 65.696291 74.720054 
L 66.268324 76.729575 
L 66.840358 78.039022 
L 67.412391 78.689655 
L 67.984424 78.791159 
L 68.556458 78.428482 
L 69.128491 77.635162 
L 69.700525 76.444577 
L 70.272558 74.929416 
L 70.844592 73.20127 
L 71.416625 71.429213 
L 71.988659 69.796538 
L 72.560692 68.457766 
L 73.132725 67.494358 
L 73.704759 66.897625 
L 74.276792 66.597953 
L 74.848826 66.496116 
L 75.420859 66.49559 
L 75.992893 66.52707 
L 76.564926 66.554539 
L 77.13696 66.568035 
L 77.708993 66.571604 
L 78.281027 66.571875 
" style="fill:none;stroke:#1f77b4;stroke-linecap:square;stroke-width:0.75;"/>
   </g>
   <g id="line2d_11">
    <path clip-path="url(#p14defd034f)" d="M 316.818973 66.571875 
L 317.391007 66.57179 
L 317.96304 66.570778 
L 318.535074 66.567268 
L 319.107107 66.560306 
L 319.679141 66.551368 
L 320.251174 66.547026 
L 320.823208 66.565748 
L 321.395241 66.646765 
L 321.967275 66.855537 
L 322.539308 67.290229 
L 323.111341 68.070534 
L 323.683375 69.29105 
L 324.255408 70.979196 
L 324.827442 73.062037 
L 325.399475 75.310261 
L 325.971509 77.353219 
L 326.543542 78.772291 
L 327.115576 79.183761 
L 327.687609 78.397448 
L 328.259642 76.498675 
L 328.831676 73.802498 
L 329.403709 70.646074 
L 329.975743 67.376748 
L 330.547776 64.246413 
L 331.11981 61.361937 
L 331.691843 58.669165 
L 332.263877 55.960299 
L 332.83591 52.994481 
L 333.407943 49.644448 
L 333.979977 45.897373 
L 334.55201 41.873987 
L 335.124044 37.763855 
L 335.696077 33.810406 
L 336.268111 30.331508 
L 336.840144 27.645228 
L 337.412178 26.024323 
L 337.984211 25.627994 
L 338.556244 26.457537 
L 339.128278 28.344097 
L 339.700311 31.022382 
L 340.272345 34.143196 
L 340.844378 37.224858 
L 341.416412 39.748067 
L 341.988445 41.238011 
L 342.560479 41.338676 
L 343.132512 39.945132 
L 343.704545 37.202251 
" style="fill:none;stroke:#1f77b4;stroke-linecap:square;stroke-width:0.75;"/>
   </g>
   <g id="line2d_12">
    <path clip-path="url(#p14defd034f)" d="M 97.15813 66.571875 
L 97.730164 66.571863 
L 98.302197 66.571584 
L 98.874231 66.570389 
L 99.446264 66.569029 
L 100.018297 66.573723 
L 100.590331 66.598852 
L 101.162364 66.663391 
L 101.734398 66.778817 
L 102.306431 66.936076 
L 102.878465 67.104756 
L 103.450498 67.234628 
L 104.022532 67.278581 
L 104.594565 67.237344 
L 105.166598 67.200819 
L 105.738632 67.29841 
L 106.310665 67.630114 
L 106.882699 68.229124 
L 107.454732 69.049467 
L 108.026766 69.881588 
L 108.598799 70.461074 
L 109.170833 70.580934 
L 109.742866 70.131663 
L 110.314899 69.155618 
L 110.886933 67.865771 
L 111.458966 66.50157 
L 112.031 65.351276 
L 112.603033 64.676389 
L 113.175067 64.611162 
L 113.7471 65.149925 
L 114.319134 66.187325 
L 114.891167 67.535163 
L 115.4632 69.012402 
L 116.035234 70.444195 
L 116.607267 71.676703 
L 117.179301 72.568349 
L 117.751334 73.060013 
L 118.323368 73.168896 
L 118.895401 72.924252 
L 119.467435 72.308023 
L 120.039468 71.305496 
L 120.611502 69.968904 
L 121.183535 68.445944 
L 121.755568 66.909344 
L 122.327602 65.538916 
L 122.899635 64.522532 
L 123.471669 63.9546 
L 124.043702 63.891525 
L 124.615736 64.465186 
L 125.187769 65.752462 
L 125.759803 67.708736 
L 126.331836 70.213884 
L 126.903869 73.037284 
L 127.475903 75.817662 
L 128.047936 78.224136 
L 128.61997 80.005773 
L 129.192003 81.068692 
L 129.764037 81.460909 
L 130.33607 81.393657 
L 130.908104 81.145964 
L 131.480137 80.971106 
L 132.05217 81.03622 
L 132.624204 81.420626 
L 133.196237 82.181331 
L 133.768271 83.317349 
L 134.340304 84.66534 
L 134.912338 85.878584 
L 135.484371 86.57029 
L 136.056405 86.371378 
L 136.628438 85.070955 
L 137.200471 82.682076 
L 137.772505 79.375097 
L 138.344538 75.48718 
L 138.916572 71.454299 
L 139.488605 67.736738 
L 140.060639 64.69726 
L 140.632672 62.508328 
L 141.204706 61.204361 
L 141.776739 60.665298 
L 142.348772 60.709106 
L 142.920806 61.144828 
L 143.492839 61.81873 
L 144.064873 62.62471 
L 144.636906 63.473756 
L 145.20894 64.316473 
L 145.780973 65.094345 
L 146.353007 65.742037 
L 146.92504 66.209052 
L 147.497073 66.48679 
L 148.069107 66.607945 
L 148.64114 66.63038 
L 149.213174 66.611106 
L 149.785207 66.588079 
L 150.357241 66.575596 
L 150.929274 66.572142 
L 151.501308 66.571875 
" style="fill:none;stroke:#1f77b4;stroke-linecap:square;stroke-width:0.75;"/>
   </g>
   <g id="line2d_13">
    <path clip-path="url(#p14defd034f)" d="M 170.378411 66.571875 
L 170.950445 66.571912 
L 171.522478 66.572678 
L 172.094512 66.577208 
L 172.666545 66.592469 
L 173.238579 66.630054 
L 173.810612 66.706658 
L 174.382645 66.845855 
L 174.954679 67.080552 
L 175.526712 67.445651 
L 176.098746 67.954909 
L 176.670779 68.542477 
L 177.242813 69.017208 
L 177.814846 69.091226 
L 178.38688 68.434425 
L 178.958913 66.761 
L 179.530946 63.924524 
L 180.10298 60.019577 
L 180.675013 55.47651 
L 181.247047 50.929441 
L 181.81908 47.061242 
L 182.391114 44.428785 
L 182.963147 43.385956 
L 183.535181 43.979221 
L 184.107214 45.978876 
L 184.679247 48.918455 
L 185.251281 52.215912 
L 185.823314 55.345756 
L 186.395348 57.885536 
L 186.967381 59.602202 
L 187.539415 60.377705 
L 188.111448 60.174569 
L 188.683482 59.056912 
L 189.255515 57.232668 
L 189.827548 55.007931 
L 190.399582 52.781696 
L 190.971615 51.01984 
L 191.543649 50.195433 
L 192.115682 50.671896 
L 192.687716 52.637197 
L 193.259749 56.099717 
L 193.831783 60.882962 
L 194.403816 66.618446 
L 194.975849 72.793822 
L 195.547883 78.831029 
L 196.119916 84.182717 
L 196.69195 88.380562 
L 197.263983 91.151696 
L 197.836017 92.380222 
L 198.40805 92.17506 
L 198.980084 90.795256 
L 199.552117 88.548142 
L 200.124151 85.707851 
L 200.696184 82.48075 
L 201.268217 79.015703 
L 201.840251 75.405826 
L 202.412284 71.674257 
L 202.984318 67.835893 
L 203.556351 63.946805 
L 204.128385 60.155539 
L 204.700418 56.609839 
L 205.272452 53.486542 
L 205.844485 50.956111 
L 206.416518 49.164591 
L 206.988552 48.329008 
L 207.560585 48.58868 
L 208.132619 49.868919 
L 208.704652 51.944322 
L 209.276686 54.474503 
L 209.848719 57.107652 
L 210.420753 59.510817 
L 210.992786 61.376498 
L 211.564819 62.472432 
L 212.136853 62.633363 
L 212.708886 61.919501 
L 213.28092 60.554496 
L 213.852953 58.938242 
L 214.424987 57.62604 
L 214.99702 57.056355 
L 215.569054 57.359011 
L 216.141087 58.426449 
L 216.71312 59.990695 
L 217.285154 61.719625 
L 217.857187 63.333897 
L 218.429221 64.628395 
L 219.001254 65.524734 
L 219.573288 66.067122 
L 220.145321 66.355013 
L 220.717355 66.487125 
L 221.289388 66.540258 
L 221.861421 66.559754 
L 222.433455 66.566891 
L 223.005488 66.570012 
L 223.577522 66.571425 
L 224.149555 66.571838 
L 224.721589 66.571875 
" style="fill:none;stroke:#1f77b4;stroke-linecap:square;stroke-width:0.75;"/>
   </g>
   <g id="line2d_14">
    <path clip-path="url(#p14defd034f)" d="M 243.598692 66.571875 
L 244.170726 66.572052 
L 244.742759 66.57425 
L 245.314793 66.582708 
L 245.886826 66.603834 
L 246.45886 66.648572 
L 247.030893 66.738471 
L 247.602927 66.913773 
L 248.17496 67.239039 
L 248.746993 67.794977 
L 249.319027 68.650684 
L 249.89106 69.830565 
L 250.463094 71.274465 
L 251.035127 72.789524 
L 251.607161 74.060439 
L 252.179194 74.701198 
L 252.751228 74.334342 
L 253.323261 72.752103 
L 253.895294 69.962808 
L 254.467328 66.16568 
L 255.039361 61.674326 
L 255.611395 56.886508 
L 256.183428 52.346032 
L 256.755462 48.621358 
L 257.327495 46.124646 
L 257.899529 45.072522 
L 258.471562 45.545389 
L 259.043595 47.435532 
L 259.615629 50.564631 
L 260.187662 54.640889 
L 260.759696 59.284913 
L 261.331729 64.11014 
L 261.903763 68.762674 
L 262.475796 72.941448 
L 263.04783 76.466643 
L 263.619863 79.274022 
L 264.191896 81.392774 
L 264.76393 82.98061 
L 265.335963 84.147584 
L 265.907997 84.995102 
L 266.48003 85.557975 
L 267.052064 85.907434 
L 267.624097 86.101895 
L 268.196131 86.186745 
L 268.768164 86.20922 
L 269.340197 86.30794 
L 269.912231 86.632757 
L 270.484264 87.283012 
L 271.056298 88.327864 
L 271.628331 89.713262 
L 272.200365 91.195494 
L 272.772398 92.312948 
L 273.344432 92.600031 
L 273.916465 91.736843 
L 274.488498 89.531158 
L 275.060532 85.956562 
L 275.632565 81.225749 
L 276.204599 75.717074 
L 276.776632 69.874202 
L 277.348666 64.195438 
L 277.920699 59.249644 
L 278.492733 55.500965 
L 279.064766 53.2228 
L 279.6368 52.554636 
L 280.208833 53.523352 
L 280.780866 55.987372 
L 281.3529 59.619583 
L 281.924933 63.917911 
L 282.496967 68.35079 
L 283.069 72.482215 
L 283.641034 75.987333 
L 284.213067 78.668194 
L 284.785101 80.426023 
L 285.357134 81.287046 
L 285.929167 81.415958 
L 286.501201 80.956767 
L 287.073234 80.03487 
L 287.645268 78.74721 
L 288.217301 77.180042 
L 288.789335 75.453651 
L 289.361368 73.699609 
L 289.933402 72.032883 
L 290.505435 70.540155 
L 291.077468 69.278397 
L 291.649502 68.284272 
L 292.221535 67.563963 
L 292.793569 67.089299 
L 293.365602 66.809153 
L 293.937636 66.663973 
L 294.509669 66.599892 
L 295.081703 66.577164 
L 295.653736 66.571727 
L 296.225769 66.571419 
L 296.797803 66.571752 
L 297.369836 66.571867 
L 297.94187 66.571875 
" style="fill:none;stroke:#1f77b4;stroke-linecap:square;stroke-width:0.75;"/>
   </g>
   <g id="line2d_15">
    <path clip-path="url(#p14defd034f)" d="M 51.395455 56.083251 
L 51.967488 57.964049 
L 52.539521 60.681549 
L 53.111555 63.787675 
L 53.683588 66.807406 
L 54.255622 69.19398 
L 54.827655 70.450575 
L 55.399689 70.227362 
L 55.971722 68.44973 
L 56.543756 65.240238 
L 57.115789 60.992051 
L 57.687822 56.240292 
L 58.259856 51.646363 
L 58.831889 47.921567 
L 59.403923 45.661968 
L 59.975956 45.27482 
L 60.54799 46.836993 
L 61.120023 50.110189 
L 61.692057 54.660443 
L 62.26409 59.937058 
L 62.836123 65.365277 
L 63.408157 70.304801 
L 63.98019 74.156993 
L 64.552224 76.523054 
L 65.124257 77.280067 
L 65.696291 76.673018 
L 66.268324 75.084044 
L 66.840358 72.908649 
L 67.412391 70.501006 
L 67.984424 68.188016 
L 68.556458 66.209933 
L 69.128491 64.728347 
L 69.700525 63.805618 
L 70.272558 63.401226 
L 70.844592 63.419945 
L 71.416625 63.742786 
L 71.988659 64.241529 
L 72.560692 64.798101 
L 73.132725 65.332013 
L 73.704759 65.787057 
L 74.276792 66.129352 
L 74.848826 66.354958 
L 75.420859 66.482498 
L 75.992893 66.542774 
L 76.564926 66.565172 
L 77.13696 66.571018 
L 77.708993 66.571846 
L 78.281027 66.571875 
" style="fill:none;stroke:#1f77b4;stroke-dasharray:0.75,1.2375;stroke-dashoffset:0;stroke-width:0.75;"/>
   </g>
   <g id="line2d_16">
    <path clip-path="url(#p14defd034f)" d="M 316.818973 66.571875 
L 317.391007 66.572085 
L 317.96304 66.575721 
L 318.535074 66.595356 
L 319.107107 66.660269 
L 319.679141 66.82255 
L 320.251174 67.159825 
L 320.823208 67.772629 
L 321.395241 68.770811 
L 321.967275 70.241473 
L 322.539308 72.208462 
L 323.111341 74.593184 
L 323.683375 77.19181 
L 324.255408 79.6697 
L 324.827442 81.61651 
L 325.399475 82.63349 
L 325.971509 82.447705 
L 326.543542 80.976735 
L 327.115576 78.393069 
L 327.687609 75.092208 
L 328.259642 71.590542 
L 328.831676 68.474826 
L 329.403709 66.201277 
L 329.975743 65.039223 
L 330.547776 65.084875 
L 331.11981 66.27359 
L 331.691843 68.459944 
L 332.263877 71.413321 
L 332.83591 74.893988 
L 333.407943 78.654342 
L 333.979977 82.460554 
L 334.55201 86.063221 
L 335.124044 89.202161 
L 335.696077 91.676385 
L 336.268111 93.323714 
L 336.840144 94.010348 
L 337.412178 93.644251 
L 337.984211 92.181386 
L 338.556244 89.635512 
L 339.128278 86.09175 
L 339.700311 81.741117 
L 340.272345 76.841063 
L 340.844378 71.703914 
L 341.416412 66.646404 
L 341.988445 62.096373 
L 342.560479 58.52341 
L 343.132512 56.255691 
L 343.704545 55.448925 
" style="fill:none;stroke:#1f77b4;stroke-dasharray:0.75,1.2375;stroke-dashoffset:0;stroke-width:0.75;"/>
   </g>
   <g id="line2d_17">
    <path clip-path="url(#p14defd034f)" d="M 97.15813 66.571875 
L 97.730164 66.571893 
L 98.302197 66.571667 
L 98.874231 66.56782 
L 99.446264 66.548658 
L 100.018297 66.491775 
L 100.590331 66.369445 
L 101.162364 66.160719 
L 101.734398 65.864251 
L 102.306431 65.500819 
L 102.878465 65.105201 
L 103.450498 64.715923 
L 104.022532 64.366837 
L 104.594565 64.063014 
L 105.166598 63.789817 
L 105.738632 63.508722 
L 106.310665 63.132258 
L 106.882699 62.606914 
L 107.454732 61.885424 
L 108.026766 60.950397 
L 108.598799 59.810224 
L 109.170833 58.441524 
L 109.742866 56.895366 
L 110.314899 55.325412 
L 110.886933 53.943975 
L 111.458966 52.9569 
L 112.031 52.581366 
L 112.603033 52.892331 
L 113.175067 53.827511 
L 113.7471 55.201952 
L 114.319134 56.775574 
L 114.891167 58.360916 
L 115.4632 59.812224 
L 116.035234 61.029531 
L 116.607267 61.951636 
L 117.179301 62.536513 
L 117.751334 62.657818 
L 118.323368 62.154419 
L 118.895401 61.01405 
L 119.467435 59.334049 
L 120.039468 57.236619 
L 120.611502 54.879305 
L 121.183535 52.415855 
L 121.755568 50.051007 
L 122.327602 47.993293 
L 122.899635 46.527427 
L 123.471669 45.859119 
L 124.043702 46.000987 
L 124.615736 46.861587 
L 125.187769 48.358219 
L 125.759803 50.428808 
L 126.331836 52.885688 
L 126.903869 55.495919 
L 127.475903 58.149431 
L 128.047936 60.830744 
L 128.61997 63.446038 
L 129.192003 65.80522 
L 129.764037 67.65362 
L 130.33607 68.79155 
L 130.908104 69.056526 
L 131.480137 68.319969 
L 132.05217 66.553436 
L 132.624204 63.837537 
L 133.196237 60.32716 
L 133.768271 56.361464 
L 134.340304 52.385357 
L 134.912338 48.936473 
L 135.484371 46.480915 
L 136.056405 45.296161 
L 136.628438 45.424095 
L 137.200471 46.669382 
L 137.772505 48.794007 
L 138.344538 51.405715 
L 138.916572 54.053452 
L 139.488605 56.245821 
L 140.060639 57.626437 
L 140.632672 58.063046 
L 141.204706 57.72579 
L 141.776739 57.049655 
L 142.348772 56.51112 
L 142.920806 56.50369 
L 143.492839 57.255884 
L 144.064873 58.723945 
L 144.636906 60.627024 
L 145.20894 62.593491 
L 145.780973 64.286795 
L 146.353007 65.513532 
L 146.92504 66.244517 
L 147.497073 66.580607 
L 148.069107 66.673094 
L 148.64114 66.656398 
L 149.213174 66.615554 
L 149.785207 66.586845 
L 150.357241 66.574815 
L 150.929274 66.572059 
L 151.501308 66.571875 
" style="fill:none;stroke:#1f77b4;stroke-dasharray:0.75,1.2375;stroke-dashoffset:0;stroke-width:0.75;"/>
   </g>
   <g id="line2d_18">
    <path clip-path="url(#p14defd034f)" d="M 170.378411 66.571875 
L 170.950445 66.571869 
L 171.522478 66.57167 
L 172.094512 66.570662 
L 172.666545 66.568937 
L 173.238579 66.570709 
L 173.810612 66.587999 
L 174.382645 66.640683 
L 174.954679 66.74944 
L 175.526712 66.927448 
L 176.098746 67.167525 
L 176.670779 67.437942 
L 177.242813 67.680153 
L 177.814846 67.818651 
L 178.38688 67.773512 
L 178.958913 67.503215 
L 179.530946 67.013203 
L 180.10298 66.336312 
L 180.675013 65.585457 
L 181.247047 64.987528 
L 181.81908 64.820569 
L 182.391114 65.252136 
L 182.963147 66.335168 
L 183.535181 68.080967 
L 184.107214 70.354254 
L 184.679247 72.892584 
L 185.251281 75.394628 
L 185.823314 77.641935 
L 186.395348 79.518627 
L 186.967381 81.017667 
L 187.539415 82.206388 
L 188.111448 83.137321 
L 188.683482 83.786352 
L 189.255515 84.143107 
L 189.827548 84.192302 
L 190.399582 83.786268 
L 190.971615 82.767864 
L 191.543649 81.051446 
L 192.115682 78.654364 
L 192.687716 75.695691 
L 193.259749 72.464268 
L 193.831783 69.333008 
L 194.403816 66.61982 
L 194.975849 64.572475 
L 195.547883 63.407757 
L 196.119916 63.232623 
L 196.69195 64.057149 
L 197.263983 65.75959 
L 197.836017 68.045543 
L 198.40805 70.624807 
L 198.980084 73.281809 
L 199.552117 75.913433 
L 200.124151 78.462292 
L 200.696184 80.942879 
L 201.268217 83.352532 
L 201.840251 85.763618 
L 202.412284 88.230435 
L 202.984318 90.698971 
L 203.556351 93.040614 
L 204.128385 95.096293 
L 204.700418 96.740311 
L 205.272452 97.96023 
L 205.844485 98.713657 
L 206.416518 98.986265 
L 206.988552 98.766288 
L 207.560585 98.045897 
L 208.132619 96.763571 
L 208.704652 94.846184 
L 209.276686 92.269475 
L 209.848719 89.076356 
L 210.420753 85.339306 
L 210.992786 81.143904 
L 211.564819 76.62046 
L 212.136853 72.122916 
L 212.708886 68.218387 
L 213.28092 65.38069 
L 213.852953 63.847766 
L 214.424987 63.567402 
L 214.99702 64.240192 
L 215.569054 65.453897 
L 216.141087 66.75689 
L 216.71312 67.780502 
L 217.285154 68.3301 
L 217.857187 68.370827 
L 218.429221 68.053474 
L 219.001254 67.59041 
L 219.573288 67.154441 
L 220.145321 66.839584 
L 220.717355 66.662071 
L 221.289388 66.587499 
L 221.861421 66.568185 
L 222.433455 66.568568 
L 223.005488 66.571191 
L 223.577522 66.571961 
L 224.149555 66.571903 
L 224.721589 66.571875 
" style="fill:none;stroke:#1f77b4;stroke-dasharray:0.75,1.2375;stroke-dashoffset:0;stroke-width:0.75;"/>
   </g>
   <g id="line2d_19">
    <path clip-path="url(#p14defd034f)" d="M 243.598692 66.571875 
L 244.170726 66.571725 
L 244.742759 66.569464 
L 245.314793 66.558522 
L 245.886826 66.524445 
L 246.45886 66.439724 
L 247.030893 66.255718 
L 247.602927 65.894112 
L 248.17496 65.247957 
L 248.746993 64.201544 
L 249.319027 62.676451 
L 249.89106 60.692722 
L 250.463094 58.409744 
L 251.035127 56.127098 
L 251.607161 54.2597 
L 252.179194 53.26732 
L 252.751228 53.444379 
L 253.323261 54.795025 
L 253.895294 57.00911 
L 254.467328 59.479485 
L 255.039361 61.442404 
L 255.611395 62.231306 
L 256.183428 61.482844 
L 256.755462 59.177086 
L 257.327495 55.624879 
L 257.899529 51.354562 
L 258.471562 46.985384 
L 259.043595 43.163347 
L 259.615629 40.492899 
L 260.187662 39.346733 
L 260.759696 39.868035 
L 261.331729 42.003816 
L 261.903763 45.50903 
L 262.475796 49.978251 
L 263.04783 54.979663 
L 263.619863 60.070925 
L 264.191896 64.825113 
L 264.76393 69.022493 
L 265.335963 72.566943 
L 265.907997 75.483758 
L 266.48003 77.835588 
L 267.052064 79.735582 
L 267.624097 81.295308 
L 268.196131 82.558768 
L 268.768164 83.489755 
L 269.340197 84.050908 
L 269.912231 84.134881 
L 270.484264 83.680977 
L 271.056298 82.680879 
L 271.628331 81.215641 
L 272.200365 79.451108 
L 272.772398 77.565491 
L 273.344432 75.853552 
L 273.916465 74.56692 
L 274.488498 73.914392 
L 275.060532 74.046084 
L 275.632565 74.962176 
L 276.204599 76.560017 
L 276.776632 78.655725 
L 277.348666 80.920547 
L 277.920699 83.05152 
L 278.492733 84.831117 
L 279.064766 86.136897 
L 279.6368 86.904439 
L 280.208833 87.053717 
L 280.780866 86.539621 
L 281.3529 85.454048 
L 281.924933 83.980844 
L 282.496967 82.301148 
L 283.069 80.51694 
L 283.641034 78.665283 
L 284.213067 76.714243 
L 284.785101 74.693533 
L 285.357134 72.701431 
L 285.929167 70.883981 
L 286.501201 69.298201 
L 287.073234 67.955301 
L 287.645268 66.826418 
L 288.217301 65.869618 
L 288.789335 65.059693 
L 289.361368 64.42432 
L 289.933402 64.017446 
L 290.505435 63.857697 
L 291.077468 63.954519 
L 291.649502 64.280195 
L 292.221535 64.756996 
L 292.793569 65.280188 
L 293.365602 65.751391 
L 293.937636 66.111558 
L 294.509669 66.348562 
L 295.081703 66.481235 
L 295.653736 66.542538 
L 296.225769 66.564904 
L 296.797803 66.570855 
L 297.369836 66.571822 
L 297.94187 66.571875 
" style="fill:none;stroke:#1f77b4;stroke-dasharray:0.75,1.2375;stroke-dashoffset:0;stroke-width:0.75;"/>
   </g>
   <g id="patch_3">
    <path d="M 36.78 131.46375 
L 36.78 1.68 
" style="fill:none;stroke:#000000;stroke-linecap:square;stroke-linejoin:miter;stroke-width:0.5;"/>
   </g>
   <g id="patch_4">
    <path d="M 358.32 131.46375 
L 358.32 1.68 
" style="fill:none;stroke:#000000;stroke-linecap:square;stroke-linejoin:miter;stroke-width:0.5;"/>
   </g>
   <g id="patch_5">
    <path d="M 36.78 131.46375 
L 358.32 131.46375 
" style="fill:none;stroke:#000000;stroke-linecap:square;stroke-linejoin:miter;stroke-width:0.5;"/>
   </g>
   <g id="patch_6">
    <path d="M 36.78 1.68 
L 358.32 1.68 
" style="fill:none;stroke:#000000;stroke-linecap:square;stroke-linejoin:miter;stroke-width:0.5;"/>
   </g>
   <g id="text_11">
    <!-- $b=1$ -->
    <defs>
     <path d="M 7.515625 13.28125 
Q 6.6875 13.28125 6.140625 13.90625 
Q 5.609375 14.546875 5.609375 15.28125 
Q 5.609375 16.109375 6.140625 16.6875 
Q 6.6875 17.28125 7.515625 17.28125 
L 70.3125 17.28125 
Q 71.046875 17.28125 71.578125 16.6875 
Q 72.125 16.109375 72.125 15.28125 
Q 72.125 14.546875 71.578125 13.90625 
Q 71.046875 13.28125 70.3125 13.28125 
z
M 7.515625 32.71875 
Q 6.6875 32.71875 6.140625 33.296875 
Q 5.609375 33.890625 5.609375 34.71875 
Q 5.609375 35.453125 6.140625 36.078125 
Q 6.6875 36.71875 7.515625 36.71875 
L 70.3125 36.71875 
Q 71.046875 36.71875 71.578125 36.078125 
Q 72.125 35.453125 72.125 34.71875 
Q 72.125 33.890625 71.578125 33.296875 
Q 71.046875 32.71875 70.3125 32.71875 
z
" id="Cmr10-61"/>
     <path d="M 9.28125 0 
L 9.28125 3.515625 
Q 21.78125 3.515625 21.78125 6.6875 
L 21.78125 59.1875 
Q 16.609375 56.6875 8.6875 56.6875 
L 8.6875 60.203125 
Q 20.953125 60.203125 27.203125 66.609375 
L 28.609375 66.609375 
Q 28.953125 66.609375 29.265625 66.328125 
Q 29.59375 66.0625 29.59375 65.71875 
L 29.59375 6.6875 
Q 29.59375 3.515625 42.09375 3.515625 
L 42.09375 0 
z
" id="Cmr10-49"/>
    </defs>
    <g style="fill:#1f77b4;" transform="translate(51.395455 124.864104)scale(0.08 -0.08)">
     <use transform="translate(0 0.609375)" xlink:href="#Cmmi10-98"/>
     <use transform="translate(60.478516 0.609375)" xlink:href="#Cmr10-61"/>
     <use transform="translate(155.722656 0.609375)" xlink:href="#Cmr10-49"/>
    </g>
   </g>
   <g id="text_12">
    <!-- $b=3$ -->
    <defs>
     <path d="M 9.515625 7.71875 
Q 11.859375 4.296875 15.8125 2.640625 
Q 19.78125 0.984375 24.3125 0.984375 
Q 30.125 0.984375 32.5625 5.9375 
Q 35.015625 10.890625 35.015625 17.1875 
Q 35.015625 20.015625 34.5 22.84375 
Q 33.984375 25.6875 32.765625 28.125 
Q 31.546875 30.5625 29.421875 32.03125 
Q 27.296875 33.5 24.21875 33.5 
L 17.578125 33.5 
Q 16.703125 33.5 16.703125 34.421875 
L 16.703125 35.296875 
Q 16.703125 36.078125 17.578125 36.078125 
L 23.09375 36.53125 
Q 26.609375 36.53125 28.921875 39.15625 
Q 31.25 41.796875 32.328125 45.578125 
Q 33.40625 49.359375 33.40625 52.78125 
Q 33.40625 57.5625 31.15625 60.640625 
Q 28.90625 63.71875 24.3125 63.71875 
Q 20.515625 63.71875 17.046875 62.28125 
Q 13.578125 60.84375 11.53125 57.90625 
Q 11.71875 57.953125 11.859375 57.984375 
Q 12.015625 58.015625 12.203125 58.015625 
Q 14.453125 58.015625 15.96875 56.453125 
Q 17.484375 54.890625 17.484375 52.6875 
Q 17.484375 50.53125 15.96875 48.96875 
Q 14.453125 47.40625 12.203125 47.40625 
Q 10.015625 47.40625 8.453125 48.96875 
Q 6.890625 50.53125 6.890625 52.6875 
Q 6.890625 56.984375 9.46875 60.15625 
Q 12.0625 63.328125 16.140625 64.96875 
Q 20.21875 66.609375 24.3125 66.609375 
Q 27.34375 66.609375 30.703125 65.703125 
Q 34.078125 64.796875 36.8125 63.109375 
Q 39.546875 61.421875 41.28125 58.78125 
Q 43.015625 56.15625 43.015625 52.78125 
Q 43.015625 48.578125 41.140625 45.015625 
Q 39.265625 41.453125 35.984375 38.859375 
Q 32.71875 36.28125 28.8125 35.015625 
Q 33.15625 34.1875 37.0625 31.734375 
Q 40.96875 29.296875 43.328125 25.484375 
Q 45.703125 21.6875 45.703125 17.28125 
Q 45.703125 11.765625 42.671875 7.296875 
Q 39.65625 2.828125 34.71875 0.3125 
Q 29.78125 -2.203125 24.3125 -2.203125 
Q 19.625 -2.203125 14.90625 -0.40625 
Q 10.203125 1.375 7.203125 4.9375 
Q 4.203125 8.5 4.203125 13.484375 
Q 4.203125 15.96875 5.859375 17.625 
Q 7.515625 19.28125 10.015625 19.28125 
Q 11.625 19.28125 12.96875 18.53125 
Q 14.3125 17.78125 15.0625 16.40625 
Q 15.828125 15.046875 15.828125 13.484375 
Q 15.828125 11.03125 14.109375 9.375 
Q 12.40625 7.71875 10.015625 7.71875 
z
" id="Cmr10-51"/>
    </defs>
    <g style="fill:#1f77b4;" transform="translate(116.375736 124.864104)scale(0.08 -0.08)">
     <use transform="translate(0 0.609375)" xlink:href="#Cmmi10-98"/>
     <use transform="translate(60.478516 0.609375)" xlink:href="#Cmr10-61"/>
     <use transform="translate(155.722656 0.609375)" xlink:href="#Cmr10-51"/>
    </g>
   </g>
   <g id="text_13">
    <!-- $b=5$ -->
    <defs>
     <path d="M 8.6875 11.375 
Q 9.71875 8.453125 11.84375 6.046875 
Q 13.96875 3.65625 16.875 2.3125 
Q 19.78125 0.984375 22.90625 0.984375 
Q 30.125 0.984375 32.859375 6.59375 
Q 35.59375 12.203125 35.59375 20.21875 
Q 35.59375 23.6875 35.46875 26.046875 
Q 35.359375 28.421875 34.8125 30.609375 
Q 33.890625 34.125 31.5625 36.765625 
Q 29.25 39.40625 25.875 39.40625 
Q 22.515625 39.40625 20.09375 38.375 
Q 17.671875 37.359375 16.15625 35.984375 
Q 14.65625 34.625 13.484375 33.109375 
Q 12.3125 31.59375 12.015625 31.5 
L 10.890625 31.5 
Q 10.640625 31.5 10.265625 31.8125 
Q 9.90625 32.125 9.90625 32.421875 
L 9.90625 65.828125 
Q 9.90625 66.0625 10.21875 66.328125 
Q 10.546875 66.609375 10.890625 66.609375 
L 11.1875 66.609375 
Q 17.921875 63.375 25.484375 63.375 
Q 32.90625 63.375 39.796875 66.609375 
L 40.09375 66.609375 
Q 40.4375 66.609375 40.71875 66.359375 
Q 41.015625 66.109375 41.015625 65.828125 
L 41.015625 64.890625 
Q 41.015625 64.40625 40.828125 64.40625 
Q 37.40625 59.859375 32.25 57.3125 
Q 27.09375 54.78125 21.578125 54.78125 
Q 17.578125 54.78125 13.375 55.90625 
L 13.375 37.015625 
Q 16.703125 39.703125 19.3125 40.84375 
Q 21.921875 42 25.984375 42 
Q 31.5 42 35.859375 38.8125 
Q 40.234375 35.640625 42.578125 30.53125 
Q 44.921875 25.4375 44.921875 20.125 
Q 44.921875 14.109375 41.96875 8.984375 
Q 39.015625 3.859375 33.9375 0.828125 
Q 28.859375 -2.203125 22.90625 -2.203125 
Q 17.96875 -2.203125 13.84375 0.328125 
Q 9.71875 2.875 7.34375 7.171875 
Q 4.984375 11.46875 4.984375 16.3125 
Q 4.984375 18.5625 6.4375 19.96875 
Q 7.90625 21.390625 10.109375 21.390625 
Q 12.3125 21.390625 13.796875 19.9375 
Q 15.28125 18.5 15.28125 16.3125 
Q 15.28125 14.15625 13.796875 12.671875 
Q 12.3125 11.1875 10.109375 11.1875 
Q 9.765625 11.1875 9.328125 11.25 
Q 8.890625 11.328125 8.6875 11.375 
z
" id="Cmr10-53"/>
    </defs>
    <g style="fill:#1f77b4;" transform="translate(189.596017 124.864104)scale(0.08 -0.08)">
     <use transform="translate(0 0.609375)" xlink:href="#Cmmi10-98"/>
     <use transform="translate(60.478516 0.609375)" xlink:href="#Cmr10-61"/>
     <use transform="translate(155.722656 0.609375)" xlink:href="#Cmr10-53"/>
    </g>
   </g>
   <g id="text_14">
    <!-- $b=7$ -->
    <defs>
     <path d="M 17.390625 2.59375 
Q 17.390625 8.15625 18.359375 13.46875 
Q 19.34375 18.796875 21.21875 24 
Q 23.09375 29.203125 25.75 34.203125 
Q 28.421875 39.203125 31.59375 43.609375 
L 40.71875 56.296875 
L 29.296875 56.296875 
Q 11.53125 56.296875 10.984375 55.8125 
Q 9.671875 54.203125 8.5 46.578125 
L 5.609375 46.578125 
L 8.890625 67.578125 
L 11.8125 67.578125 
L 11.8125 67.28125 
Q 11.8125 65.484375 17.921875 64.9375 
Q 24.03125 64.40625 29.890625 64.40625 
L 48.484375 64.40625 
L 48.484375 61.8125 
Q 48.484375 61.71875 48.453125 61.671875 
Q 48.4375 61.625 48.390625 61.53125 
L 34.625 42.1875 
Q 29.546875 34.671875 28.265625 25.484375 
Q 27 16.3125 27 2.59375 
Q 27 0.640625 25.578125 -0.78125 
Q 24.171875 -2.203125 22.21875 -2.203125 
Q 20.21875 -2.203125 18.796875 -0.78125 
Q 17.390625 0.640625 17.390625 2.59375 
z
" id="Cmr10-55"/>
    </defs>
    <g style="fill:#1f77b4;" transform="translate(262.816298 124.864104)scale(0.08 -0.08)">
     <use transform="translate(0 0.609375)" xlink:href="#Cmmi10-98"/>
     <use transform="translate(60.478516 0.609375)" xlink:href="#Cmr10-61"/>
     <use transform="translate(155.722656 0.609375)" xlink:href="#Cmr10-55"/>
    </g>
   </g>
   <g id="text_15">
    <!-- $b=9$ -->
    <defs>
     <path d="M 11.28125 4.203125 
Q 14.015625 0.984375 20.796875 0.984375 
Q 24.609375 0.984375 27.90625 3.5625 
Q 31.203125 6.15625 33.015625 9.90625 
Q 35.109375 14.15625 35.6875 18.96875 
Q 36.28125 23.78125 36.28125 30.90625 
Q 34.578125 26.859375 31.375 24.265625 
Q 28.171875 21.6875 24.03125 21.6875 
Q 18.21875 21.6875 13.640625 24.828125 
Q 9.078125 27.984375 6.640625 33.125 
Q 4.203125 38.28125 4.203125 44.09375 
Q 4.203125 50.09375 6.9375 55.296875 
Q 9.671875 60.5 14.5 63.546875 
Q 19.34375 66.609375 25.484375 66.609375 
Q 31.546875 66.609375 35.625 63.3125 
Q 39.703125 60.015625 41.84375 54.8125 
Q 44 49.609375 44.84375 43.796875 
Q 45.703125 37.984375 45.703125 32.328125 
Q 45.703125 24.609375 42.875 16.578125 
Q 40.046875 8.546875 34.40625 3.171875 
Q 28.765625 -2.203125 20.796875 -2.203125 
Q 14.890625 -2.203125 10.78125 0.578125 
Q 6.6875 3.375 6.6875 8.984375 
Q 6.6875 11.03125 8.078125 12.421875 
Q 9.46875 13.8125 11.53125 13.8125 
Q 13.53125 13.8125 14.921875 12.421875 
Q 16.3125 11.03125 16.3125 8.984375 
Q 16.3125 7.03125 14.890625 5.609375 
Q 13.484375 4.203125 11.53125 4.203125 
z
M 24.421875 24.3125 
Q 28.515625 24.3125 31.125 27.0625 
Q 33.734375 29.828125 34.90625 33.921875 
Q 36.078125 38.03125 36.078125 42.09375 
L 36.078125 44 
L 36.078125 44.390625 
Q 36.078125 51.90625 33.875 57.8125 
Q 31.6875 63.71875 25.484375 63.71875 
Q 21.53125 63.71875 19.0625 61.984375 
Q 16.609375 60.25 15.4375 57.375 
Q 14.265625 54.5 13.9375 51.21875 
Q 13.625 47.953125 13.625 44.09375 
Q 13.625 38.421875 14.15625 34.421875 
Q 14.703125 30.421875 17.09375 27.359375 
Q 19.484375 24.3125 24.421875 24.3125 
z
" id="Cmr10-57"/>
    </defs>
    <g style="fill:#1f77b4;" transform="translate(327.224545 124.864104)scale(0.08 -0.08)">
     <use transform="translate(0 0.609375)" xlink:href="#Cmmi10-98"/>
     <use transform="translate(60.478516 0.609375)" xlink:href="#Cmr10-61"/>
     <use transform="translate(155.722656 0.609375)" xlink:href="#Cmr10-57"/>
    </g>
   </g>
   <g id="legend_1">
    <g id="line2d_20">
     <path d="M 150.03 11.68 
L 166.03 11.68 
" style="fill:none;stroke:#1f77b4;stroke-linecap:square;stroke-width:0.75;"/>
    </g>
    <g id="line2d_21"/>
    <g id="text_16">
     <!-- $p=1$ -->
     <g transform="translate(172.43 14.48)scale(0.08 -0.08)">
      <use transform="translate(0 0.390625)" xlink:href="#Cmmi10-112"/>
      <use transform="translate(67.851562 0.390625)" xlink:href="#Cmr10-61"/>
      <use transform="translate(163.095703 0.390625)" xlink:href="#Cmr10-49"/>
     </g>
    </g>
    <g id="line2d_22">
     <path d="M 205.55 11.68 
L 221.55 11.68 
" style="fill:none;stroke:#1f77b4;stroke-dasharray:0.75,1.2375;stroke-dashoffset:0;stroke-width:0.75;"/>
    </g>
    <g id="line2d_23"/>
    <g id="text_17">
     <!-- $p=2$ -->
     <defs>
      <path d="M 4.984375 0 
L 4.984375 2.6875 
Q 4.984375 2.9375 5.171875 3.21875 
L 20.703125 20.40625 
Q 24.21875 24.21875 26.40625 26.796875 
Q 28.609375 29.390625 30.75 32.765625 
Q 32.90625 36.140625 34.15625 39.625 
Q 35.40625 43.109375 35.40625 47.015625 
Q 35.40625 51.125 33.890625 54.859375 
Q 32.375 58.59375 29.375 60.84375 
Q 26.375 63.09375 22.125 63.09375 
Q 17.78125 63.09375 14.3125 60.46875 
Q 10.84375 57.859375 9.421875 53.71875 
Q 9.8125 53.8125 10.5 53.8125 
Q 12.75 53.8125 14.328125 52.296875 
Q 15.921875 50.78125 15.921875 48.390625 
Q 15.921875 46.09375 14.328125 44.5 
Q 12.75 42.921875 10.5 42.921875 
Q 8.15625 42.921875 6.5625 44.546875 
Q 4.984375 46.1875 4.984375 48.390625 
Q 4.984375 52.15625 6.390625 55.4375 
Q 7.8125 58.734375 10.46875 61.296875 
Q 13.140625 63.875 16.484375 65.234375 
Q 19.828125 66.609375 23.578125 66.609375 
Q 29.296875 66.609375 34.21875 64.1875 
Q 39.15625 61.765625 42.03125 57.34375 
Q 44.921875 52.9375 44.921875 47.015625 
Q 44.921875 42.671875 43.015625 38.765625 
Q 41.109375 34.859375 38.125 31.65625 
Q 35.15625 28.46875 30.515625 24.40625 
Q 25.875 20.359375 24.421875 19 
L 13.09375 8.109375 
L 22.703125 8.109375 
Q 29.78125 8.109375 34.546875 8.21875 
Q 39.3125 8.34375 39.59375 8.59375 
Q 40.765625 9.859375 42 17.828125 
L 44.921875 17.828125 
L 42.09375 0 
z
" id="Cmr10-50"/>
     </defs>
     <g transform="translate(227.95 14.48)scale(0.08 -0.08)">
      <use transform="translate(0 0.390625)" xlink:href="#Cmmi10-112"/>
      <use transform="translate(67.851562 0.390625)" xlink:href="#Cmr10-61"/>
      <use transform="translate(163.095703 0.390625)" xlink:href="#Cmr10-50"/>
     </g>
    </g>
   </g>
  </g>
  <g id="axes_2">
   <g id="patch_7">
    <path d="M 36.78 264.6075 
L 358.32 264.6075 
L 358.32 134.82375 
L 36.78 134.82375 
z
" style="fill:#ffffff;"/>
   </g>
   <g id="matplotlib.axis_3">
    <g id="xtick_1">
     <g id="line2d_24">
      <defs>
       <path d="M 0 0 
L 0 3.5 
" id="m14e0c29348" style="stroke:#000000;stroke-width:0.8;"/>
      </defs>
      <g>
       <use style="stroke:#000000;stroke-width:0.8;" x="41.631477" xlink:href="#m14e0c29348" y="264.6075"/>
      </g>
     </g>
     <g id="text_18">
      <!-- 0.0 -->
      <g transform="translate(37.560852 275.771875)scale(0.06 -0.06)">
       <use xlink:href="#LMRoman8-Regular-48"/>
       <use x="53.099991" xlink:href="#LMRoman8-Regular-46"/>
       <use x="82.599976" xlink:href="#LMRoman8-Regular-48"/>
      </g>
     </g>
    </g>
    <g id="xtick_2">
     <g id="line2d_25">
      <g>
       <use style="stroke:#000000;stroke-width:0.8;" x="103.998886" xlink:href="#m14e0c29348" y="264.6075"/>
      </g>
     </g>
     <g id="text_19">
      <!-- 0.2 -->
      <g transform="translate(99.928261 275.771875)scale(0.06 -0.06)">
       <use xlink:href="#LMRoman8-Regular-48"/>
       <use x="53.099991" xlink:href="#LMRoman8-Regular-46"/>
       <use x="82.599976" xlink:href="#LMRoman8-Regular-50"/>
      </g>
     </g>
    </g>
    <g id="xtick_3">
     <g id="line2d_26">
      <g>
       <use style="stroke:#000000;stroke-width:0.8;" x="166.366295" xlink:href="#m14e0c29348" y="264.6075"/>
      </g>
     </g>
     <g id="text_20">
      <!-- 0.4 -->
      <g transform="translate(162.29567 275.771875)scale(0.06 -0.06)">
       <use xlink:href="#LMRoman8-Regular-48"/>
       <use x="53.099991" xlink:href="#LMRoman8-Regular-46"/>
       <use x="82.599976" xlink:href="#LMRoman8-Regular-52"/>
      </g>
     </g>
    </g>
    <g id="xtick_4">
     <g id="line2d_27">
      <g>
       <use style="stroke:#000000;stroke-width:0.8;" x="228.733705" xlink:href="#m14e0c29348" y="264.6075"/>
      </g>
     </g>
     <g id="text_21">
      <!-- 0.6 -->
      <g transform="translate(224.66308 275.771875)scale(0.06 -0.06)">
       <use xlink:href="#LMRoman8-Regular-48"/>
       <use x="53.099991" xlink:href="#LMRoman8-Regular-46"/>
       <use x="82.599976" xlink:href="#LMRoman8-Regular-54"/>
      </g>
     </g>
    </g>
    <g id="xtick_5">
     <g id="line2d_28">
      <g>
       <use style="stroke:#000000;stroke-width:0.8;" x="291.101114" xlink:href="#m14e0c29348" y="264.6075"/>
      </g>
     </g>
     <g id="text_22">
      <!-- 0.8 -->
      <g transform="translate(287.030489 275.771875)scale(0.06 -0.06)">
       <use xlink:href="#LMRoman8-Regular-48"/>
       <use x="53.099991" xlink:href="#LMRoman8-Regular-46"/>
       <use x="82.599976" xlink:href="#LMRoman8-Regular-56"/>
      </g>
     </g>
    </g>
    <g id="xtick_6">
     <g id="line2d_29">
      <g>
       <use style="stroke:#000000;stroke-width:0.8;" x="353.468523" xlink:href="#m14e0c29348" y="264.6075"/>
      </g>
     </g>
     <g id="text_23">
      <!-- 1.0 -->
      <defs>
       <path d="M 44.703125 0 
L 44.703125 3.296875 
L 41.203125 3.296875 
C 31.703125 3.296875 31.40625 4.5 31.40625 8.203125 
L 31.40625 63.703125 
C 31.40625 66.40625 31.203125 66.5 28.5 66.5 
C 24.40625 62.5 19.09375 60.09375 9.59375 60.09375 
L 9.59375 56.796875 
C 12.296875 56.796875 17.703125 56.796875 23.5 59.5 
L 23.5 8.203125 
C 23.5 4.5 23.203125 3.296875 13.703125 3.296875 
L 10.203125 3.296875 
L 10.203125 0 
C 14.296875 0.296875 22.90625 0.296875 27.40625 0.296875 
C 31.90625 0.296875 40.59375 0.296875 44.703125 0 
z
" id="LMRoman8-Regular-49"/>
      </defs>
      <g transform="translate(349.397898 275.771875)scale(0.06 -0.06)">
       <use xlink:href="#LMRoman8-Regular-49"/>
       <use x="53.099991" xlink:href="#LMRoman8-Regular-46"/>
       <use x="82.599976" xlink:href="#LMRoman8-Regular-48"/>
      </g>
     </g>
    </g>
    <g id="text_24">
     <!-- $s$ -->
     <g transform="translate(195.2 285.876875)scale(0.1 -0.1)">
      <use transform="translate(0 0.8125)" xlink:href="#Cmmi10-115"/>
     </g>
    </g>
   </g>
   <g id="matplotlib.axis_4">
    <g id="ytick_10">
     <g id="line2d_30">
      <g>
       <use style="stroke:#000000;stroke-width:0.8;" x="36.78" xlink:href="#m56e11fbdec" y="257.397292"/>
      </g>
     </g>
     <g id="text_25">
      <!-- −0.8 -->
      <g transform="translate(16.683125 259.479479)scale(0.06 -0.06)">
       <use xlink:href="#LMRoman8-Regular-8722"/>
       <use x="82.599991" xlink:href="#LMRoman8-Regular-48"/>
       <use x="135.699982" xlink:href="#LMRoman8-Regular-46"/>
       <use x="165.199966" xlink:href="#LMRoman8-Regular-56"/>
      </g>
     </g>
    </g>
    <g id="ytick_11">
     <g id="line2d_31">
      <g>
       <use style="stroke:#000000;stroke-width:0.8;" x="36.78" xlink:href="#m56e11fbdec" y="242.976875"/>
      </g>
     </g>
     <g id="text_26">
      <!-- −0.6 -->
      <g transform="translate(16.683125 245.059063)scale(0.06 -0.06)">
       <use xlink:href="#LMRoman8-Regular-8722"/>
       <use x="82.599991" xlink:href="#LMRoman8-Regular-48"/>
       <use x="135.699982" xlink:href="#LMRoman8-Regular-46"/>
       <use x="165.199966" xlink:href="#LMRoman8-Regular-54"/>
      </g>
     </g>
    </g>
    <g id="ytick_12">
     <g id="line2d_32">
      <g>
       <use style="stroke:#000000;stroke-width:0.8;" x="36.78" xlink:href="#m56e11fbdec" y="228.556458"/>
      </g>
     </g>
     <g id="text_27">
      <!-- −0.4 -->
      <g transform="translate(16.683125 230.638646)scale(0.06 -0.06)">
       <use xlink:href="#LMRoman8-Regular-8722"/>
       <use x="82.599991" xlink:href="#LMRoman8-Regular-48"/>
       <use x="135.699982" xlink:href="#LMRoman8-Regular-46"/>
       <use x="165.199966" xlink:href="#LMRoman8-Regular-52"/>
      </g>
     </g>
    </g>
    <g id="ytick_13">
     <g id="line2d_33">
      <g>
       <use style="stroke:#000000;stroke-width:0.8;" x="36.78" xlink:href="#m56e11fbdec" y="214.136042"/>
      </g>
     </g>
     <g id="text_28">
      <!-- −0.2 -->
      <g transform="translate(16.683125 216.218229)scale(0.06 -0.06)">
       <use xlink:href="#LMRoman8-Regular-8722"/>
       <use x="82.599991" xlink:href="#LMRoman8-Regular-48"/>
       <use x="135.699982" xlink:href="#LMRoman8-Regular-46"/>
       <use x="165.199966" xlink:href="#LMRoman8-Regular-50"/>
      </g>
     </g>
    </g>
    <g id="ytick_14">
     <g id="line2d_34">
      <g>
       <use style="stroke:#000000;stroke-width:0.8;" x="36.78" xlink:href="#m56e11fbdec" y="199.715625"/>
      </g>
     </g>
     <g id="text_29">
      <!-- 0.0 -->
      <g transform="translate(21.63875 201.797813)scale(0.06 -0.06)">
       <use xlink:href="#LMRoman8-Regular-48"/>
       <use x="53.099991" xlink:href="#LMRoman8-Regular-46"/>
       <use x="82.599976" xlink:href="#LMRoman8-Regular-48"/>
      </g>
     </g>
    </g>
    <g id="ytick_15">
     <g id="line2d_35">
      <g>
       <use style="stroke:#000000;stroke-width:0.8;" x="36.78" xlink:href="#m56e11fbdec" y="185.295208"/>
      </g>
     </g>
     <g id="text_30">
      <!-- 0.2 -->
      <g transform="translate(21.63875 187.377396)scale(0.06 -0.06)">
       <use xlink:href="#LMRoman8-Regular-48"/>
       <use x="53.099991" xlink:href="#LMRoman8-Regular-46"/>
       <use x="82.599976" xlink:href="#LMRoman8-Regular-50"/>
      </g>
     </g>
    </g>
    <g id="ytick_16">
     <g id="line2d_36">
      <g>
       <use style="stroke:#000000;stroke-width:0.8;" x="36.78" xlink:href="#m56e11fbdec" y="170.874792"/>
      </g>
     </g>
     <g id="text_31">
      <!-- 0.4 -->
      <g transform="translate(21.63875 172.956979)scale(0.06 -0.06)">
       <use xlink:href="#LMRoman8-Regular-48"/>
       <use x="53.099991" xlink:href="#LMRoman8-Regular-46"/>
       <use x="82.599976" xlink:href="#LMRoman8-Regular-52"/>
      </g>
     </g>
    </g>
    <g id="ytick_17">
     <g id="line2d_37">
      <g>
       <use style="stroke:#000000;stroke-width:0.8;" x="36.78" xlink:href="#m56e11fbdec" y="156.454375"/>
      </g>
     </g>
     <g id="text_32">
      <!-- 0.6 -->
      <g transform="translate(21.63875 158.536563)scale(0.06 -0.06)">
       <use xlink:href="#LMRoman8-Regular-48"/>
       <use x="53.099991" xlink:href="#LMRoman8-Regular-46"/>
       <use x="82.599976" xlink:href="#LMRoman8-Regular-54"/>
      </g>
     </g>
    </g>
    <g id="ytick_18">
     <g id="line2d_38">
      <g>
       <use style="stroke:#000000;stroke-width:0.8;" x="36.78" xlink:href="#m56e11fbdec" y="142.033958"/>
      </g>
     </g>
     <g id="text_33">
      <!-- 0.8 -->
      <g transform="translate(21.63875 144.116146)scale(0.06 -0.06)">
       <use xlink:href="#LMRoman8-Regular-48"/>
       <use x="53.099991" xlink:href="#LMRoman8-Regular-46"/>
       <use x="82.599976" xlink:href="#LMRoman8-Regular-56"/>
      </g>
     </g>
    </g>
    <g id="text_34">
     <!-- $\phi_{b}(s)\,\vec{z}^{\,p}(s)$ -->
     <g transform="translate(12.183125 222.865625)rotate(-90)scale(0.1 -0.1)">
      <use transform="translate(0 0.53125)" xlink:href="#Cmmi10-193"/>
      <use transform="translate(59.521484 -16.475)scale(0.7)" xlink:href="#Cmmi10-98"/>
      <use transform="translate(95.942773 0.53125)" xlink:href="#Cmr10-40"/>
      <use transform="translate(134.761133 0.53125)" xlink:href="#Cmmi10-115"/>
      <use transform="translate(181.538477 0.53125)" xlink:href="#Cmr10-41"/>
      <use transform="translate(223.391634 5.609375)" xlink:href="#Cmmi10-126"/>
      <use transform="translate(234.98929 0.53125)" xlink:href="#Cmmi10-122"/>
      <use transform="translate(296.180524 38.795313)scale(0.7)" xlink:href="#Cmmi10-112"/>
      <use transform="translate(337.762945 0.53125)" xlink:href="#Cmr10-40"/>
      <use transform="translate(376.581305 0.53125)" xlink:href="#Cmmi10-115"/>
      <use transform="translate(423.358649 0.53125)" xlink:href="#Cmr10-41"/>
     </g>
    </g>
   </g>
   <g id="line2d_39">
    <path clip-path="url(#pa5f27a886b)" d="M 51.395455 199.715625 
L 52.005703 199.715435 
L 52.615952 199.713101 
L 53.2262 199.704947 
L 53.836449 199.690003 
L 54.446698 199.676393 
L 55.056946 199.686875 
L 55.667195 199.761382 
L 56.277444 199.953496 
L 56.887692 200.32415 
L 57.497941 200.93524 
L 58.108189 201.840627 
L 58.718438 203.075818 
L 59.328687 204.673878 
L 59.938935 206.653126 
L 60.549184 208.976063 
L 61.159433 211.510373 
L 61.769681 213.999164 
L 62.37993 216.053326 
L 62.990178 217.232519 
L 63.600427 217.116871 
L 64.210676 215.42248 
L 64.820924 212.067726 
L 65.431173 207.106683 
L 66.041422 200.78838 
L 66.65167 193.539186 
L 67.261919 185.797751 
L 67.872167 177.95244 
L 68.482416 170.42304 
L 69.092665 163.681151 
L 69.702913 158.14411 
L 70.313162 154.081127 
L 70.923411 151.563854 
L 71.533659 150.471671 
L 72.143908 150.51981 
L 72.754156 151.360854 
L 73.364405 152.703445 
L 73.974654 154.314576 
L 74.584902 155.964566 
L 75.195151 157.488037 
L 75.8054 158.848699 
L 76.415648 160.222688 
L 77.025897 161.900434 
L 77.636145 164.210774 
L 78.246394 167.458833 
L 78.856643 171.789204 
L 79.466891 177.145586 
L 80.07714 183.352115 
L 80.687388 190.07412 
L 81.297637 196.941879 
L 81.907886 203.571016 
L 82.518134 209.619377 
L 83.128383 214.849662 
L 83.738632 219.095985 
L 84.34888 222.166544 
L 84.959129 223.902367 
L 85.569377 224.262205 
L 86.179626 223.331042 
L 86.789875 221.291798 
L 87.400123 218.371169 
L 88.010372 214.793768 
L 88.620621 210.792986 
L 89.230869 206.718513 
L 89.841118 202.953564 
L 90.451366 199.891357 
L 91.061615 197.862562 
L 91.671864 196.981235 
L 92.282112 197.204943 
L 92.892361 198.333028 
L 93.50261 200.052776 
L 94.112858 201.914986 
L 94.723107 203.480234 
L 95.333355 204.411007 
L 95.943604 204.592294 
L 96.553853 204.153787 
L 97.164101 203.292038 
L 97.77435 202.264203 
L 98.384599 201.35563 
L 98.994847 200.790528 
L 99.605096 200.583604 
L 100.215344 200.601416 
L 100.825593 200.685309 
L 101.435842 200.720964 
L 102.04609 200.63339 
L 102.656339 200.436341 
L 103.266588 200.196985 
L 103.876836 199.981478 
L 104.487085 199.8295 
L 105.097333 199.747079 
L 105.707582 199.714763 
L 106.317831 199.708935 
L 106.928079 199.711723 
L 107.538328 199.714465 
L 108.148577 199.715473 
L 108.758825 199.715622 
L 109.369074 199.715625 
" style="fill:none;stroke:#d62728;stroke-linecap:square;stroke-width:0.75;"/>
   </g>
   <g id="line2d_40">
    <path clip-path="url(#pa5f27a886b)" d="M 129.507278 199.715625 
L 130.117527 199.715743 
L 130.727776 199.717682 
L 131.338024 199.727461 
L 131.948273 199.756387 
L 132.558522 199.817021 
L 133.16877 199.91323 
L 133.779019 200.026865 
L 134.389267 200.108554 
L 134.999516 200.080256 
L 135.609765 199.855488 
L 136.220013 199.368236 
L 136.830262 198.588826 
L 137.440511 197.537634 
L 138.050759 196.259587 
L 138.661008 194.80824 
L 139.271256 193.232025 
L 139.881505 191.592215 
L 140.491754 189.988099 
L 141.102002 188.542958 
L 141.712251 187.544802 
L 142.3225 187.409853 
L 142.932748 188.604053 
L 143.542997 191.483407 
L 144.153245 196.21554 
L 144.763494 202.656305 
L 145.373743 210.389538 
L 145.983991 218.771383 
L 146.59424 227.095473 
L 147.204489 234.635606 
L 147.814737 240.724012 
L 148.424986 244.837839 
L 149.035234 246.704091 
L 149.645483 246.313822 
L 150.255732 243.903427 
L 150.86598 239.91235 
L 151.476229 234.947893 
L 152.086478 229.675286 
L 152.696726 224.71407 
L 153.306975 220.526029 
L 153.917223 217.433323 
L 154.527472 215.614633 
L 155.137721 215.0335 
L 155.747969 215.535626 
L 156.358218 216.801413 
L 156.968467 218.375924 
L 157.578715 219.840664 
L 158.188964 220.889313 
L 158.799212 221.257255 
L 159.409461 220.750372 
L 160.01971 219.340637 
L 160.629958 217.177951 
L 161.240207 214.404624 
L 161.850455 211.174385 
L 162.460704 207.672077 
L 163.070953 204.197057 
L 163.681201 201.051742 
L 164.29145 198.520743 
L 164.901699 196.790402 
L 165.511947 195.99471 
L 166.122196 196.133243 
L 166.732444 197.117499 
L 167.342693 198.758451 
L 167.952942 200.854619 
L 168.56319 203.152188 
L 169.173439 205.353175 
L 169.783688 207.253235 
L 170.393936 208.726944 
L 171.004185 209.718769 
L 171.614433 210.330157 
L 172.224682 210.704066 
L 172.834931 210.986111 
L 173.445179 211.257163 
L 174.055428 211.415537 
L 174.665677 211.234383 
L 175.275925 210.349585 
L 175.886174 208.534168 
L 176.496422 205.924397 
L 177.106671 202.898835 
L 177.71692 199.94157 
L 178.327168 197.49968 
L 178.937417 195.881764 
L 179.547666 195.213427 
L 180.157914 195.378065 
L 180.768163 196.100067 
L 181.378411 197.056948 
L 181.98866 197.984048 
L 182.598909 198.719886 
L 183.209157 199.21502 
L 183.819406 199.499091 
L 184.429655 199.636938 
L 185.039903 199.692513 
L 185.650152 199.710484 
L 186.2604 199.714882 
L 186.870649 199.715585 
L 187.480898 199.715625 
" style="fill:none;stroke:#d62728;stroke-linecap:square;stroke-width:0.75;"/>
   </g>
   <g id="line2d_41">
    <path clip-path="url(#pa5f27a886b)" d="M 207.619102 199.715625 
L 208.229351 199.715508 
L 208.8396 199.713845 
L 209.449848 199.706968 
L 210.060097 199.690719 
L 210.670345 199.663751 
L 211.280594 199.629015 
L 211.890843 199.589328 
L 212.501091 199.534948 
L 213.11134 199.421488 
L 213.721589 199.157024 
L 214.331837 198.600531 
L 214.942086 197.598861 
L 215.552334 196.085648 
L 216.162583 194.147933 
L 216.772832 192.004069 
L 217.38308 189.984424 
L 217.993329 188.467992 
L 218.603578 187.757578 
L 219.213826 188.038587 
L 219.824075 189.228023 
L 220.434323 190.994393 
L 221.044572 192.956954 
L 221.654821 194.795165 
L 222.265069 196.229331 
L 222.875318 197.138022 
L 223.485567 197.504284 
L 224.095815 197.294579 
L 224.706064 196.567715 
L 225.316312 195.488726 
L 225.926561 194.102783 
L 226.53681 192.475997 
L 227.147058 190.745179 
L 227.757307 189.107092 
L 228.367556 187.792814 
L 228.977804 186.958241 
L 229.588053 186.712821 
L 230.198301 187.085997 
L 230.80855 188.04159 
L 231.418799 189.463454 
L 232.029047 191.184267 
L 232.639296 193.093628 
L 233.249545 195.105713 
L 233.859793 197.149045 
L 234.470042 199.19645 
L 235.08029 201.278683 
L 235.690539 203.469349 
L 236.300788 205.871268 
L 236.911036 208.592856 
L 237.521285 211.706198 
L 238.131533 215.251296 
L 238.741782 219.227089 
L 239.352031 223.559418 
L 239.962279 228.165826 
L 240.572528 232.883422 
L 241.182777 237.495964 
L 241.793025 241.674718 
L 242.403274 245.034113 
L 243.013522 247.220044 
L 243.623771 248.062751 
L 244.23402 247.476316 
L 244.844268 245.420348 
L 245.454517 242.003766 
L 246.064766 237.482262 
L 246.675014 232.278436 
L 247.285263 226.922395 
L 247.895511 222.007079 
L 248.50576 218.019167 
L 249.116009 215.239038 
L 249.726257 213.708663 
L 250.336506 213.297752 
L 250.946755 213.779999 
L 251.557003 214.853137 
L 252.167252 216.093022 
L 252.7775 217.029219 
L 253.387749 217.300496 
L 253.997998 216.674455 
L 254.608246 215.038607 
L 255.218495 212.514032 
L 255.828744 209.427588 
L 256.438992 206.213137 
L 257.049241 203.331781 
L 257.659489 201.091574 
L 258.269738 199.602989 
L 258.879987 198.80805 
L 259.490235 198.552722 
L 260.100484 198.653206 
L 260.710733 198.924481 
L 261.320981 199.218563 
L 261.93123 199.451917 
L 262.541478 199.600376 
L 263.151727 199.676228 
L 263.761976 199.706151 
L 264.372224 199.714354 
L 264.982473 199.715578 
L 265.592722 199.715625 
" style="fill:none;stroke:#d62728;stroke-linecap:square;stroke-width:0.75;"/>
   </g>
   <g id="line2d_42">
    <path clip-path="url(#pa5f27a886b)" d="M 285.730926 199.715625 
L 286.341175 199.715556 
L 286.951423 199.714884 
L 287.561672 199.714054 
L 288.171921 199.719287 
L 288.782169 199.74802 
L 289.392418 199.831114 
L 290.002667 200.00968 
L 290.612915 200.326227 
L 291.223164 200.814588 
L 291.833412 201.497925 
L 292.443661 202.381321 
L 293.05391 203.448839 
L 293.664158 204.656045 
L 294.274407 205.922643 
L 294.884656 207.150046 
L 295.494904 208.231007 
L 296.105153 209.048816 
L 296.715401 209.495187 
L 297.32565 209.476085 
L 297.935899 208.956231 
L 298.546147 207.978342 
L 299.156396 206.643955 
L 299.766645 205.099298 
L 300.376893 203.504181 
L 300.987142 201.999762 
L 301.59739 200.680542 
L 302.207639 199.643729 
L 302.817888 198.945787 
L 303.428136 198.559245 
L 304.038385 198.425554 
L 304.648634 198.577007 
L 305.258882 199.103922 
L 305.869131 200.102751 
L 306.479379 201.560362 
L 307.089628 203.356653 
L 307.699877 205.362755 
L 308.310125 207.4441 
L 308.920374 209.330839 
L 309.530623 210.628564 
L 310.140871 211.019006 
L 310.75112 210.314112 
L 311.361368 208.358828 
L 311.971617 205.030106 
L 312.581866 200.359949 
L 313.192114 194.549822 
L 313.802363 187.988092 
L 314.412612 181.138547 
L 315.02286 174.482137 
L 315.633109 168.455806 
L 316.243357 163.426817 
L 316.853606 159.678392 
L 317.463855 157.317264 
L 318.074103 156.302542 
L 318.684352 156.472703 
L 319.2946 157.658987 
L 319.904849 159.610319 
L 320.515098 162.086444 
L 321.125346 164.885852 
L 321.735595 167.87492 
L 322.345844 170.92355 
L 322.956092 173.976411 
L 323.566341 177.117463 
L 324.176589 180.338025 
L 324.786838 183.533773 
L 325.397087 186.599446 
L 326.007335 189.42325 
L 326.617584 191.930775 
L 327.227833 194.09645 
L 327.838081 195.974291 
L 328.44833 197.689749 
L 329.058578 199.46358 
L 329.668827 201.414836 
L 330.279076 203.513877 
L 330.889324 205.698519 
L 331.499573 207.80284 
L 332.109822 209.521716 
L 332.72007 210.577173 
L 333.330319 210.807701 
L 333.940567 210.155225 
L 334.550816 208.740065 
L 335.161065 206.854295 
L 335.771313 204.833185 
L 336.381562 202.994791 
L 336.991811 201.555182 
L 337.602059 200.583792 
L 338.212308 200.019896 
L 338.822556 199.751099 
L 339.432805 199.659094 
L 340.043054 199.651721 
L 340.653302 199.672309 
L 341.263551 199.693778 
L 341.8738 199.707589 
L 342.484048 199.713821 
L 343.094297 199.71549 
L 343.704545 199.715625 
" style="fill:none;stroke:#d62728;stroke-linecap:square;stroke-width:0.75;"/>
   </g>
   <g id="line2d_43">
    <path clip-path="url(#pa5f27a886b)" d="M 51.395455 199.715625 
L 52.005703 199.715518 
L 52.615952 199.714356 
L 53.2262 199.711698 
L 53.836449 199.713141 
L 54.446698 199.736086 
L 55.056946 199.808663 
L 55.667195 199.957533 
L 56.277444 200.187573 
L 56.887692 200.470001 
L 57.497941 200.737664 
L 58.108189 200.889906 
L 58.718438 200.805151 
L 59.328687 200.371411 
L 59.938935 199.503847 
L 60.549184 198.172514 
L 61.159433 196.410826 
L 61.769681 194.296795 
L 62.37993 191.947903 
L 62.990178 189.513153 
L 63.600427 187.140381 
L 64.210676 184.942549 
L 64.820924 183.113797 
L 65.431173 181.908639 
L 66.041422 181.511888 
L 66.65167 182.031008 
L 67.261919 183.40919 
L 67.872167 185.580453 
L 68.482416 188.390263 
L 69.092665 191.670627 
L 69.702913 195.234298 
L 70.313162 198.854967 
L 70.923411 202.323525 
L 71.533659 205.443848 
L 72.143908 208.024635 
L 72.754156 209.936239 
L 73.364405 211.153978 
L 73.974654 211.713789 
L 74.584902 211.694928 
L 75.195151 211.102855 
L 75.8054 209.859007 
L 76.415648 208.013674 
L 77.025897 205.764107 
L 77.636145 203.350811 
L 78.246394 200.951478 
L 78.856643 198.686463 
L 79.466891 196.64133 
L 80.07714 194.961499 
L 80.687388 193.782708 
L 81.297637 193.143777 
L 81.907886 192.91515 
L 82.518134 192.996868 
L 83.128383 193.375217 
L 83.738632 194.082669 
L 84.34888 195.22265 
L 84.959129 196.916446 
L 85.569377 199.159361 
L 86.179626 201.825788 
L 86.789875 204.686111 
L 87.400123 207.344569 
L 88.010372 209.409082 
L 88.620621 210.549892 
L 89.230869 210.492206 
L 89.841118 209.11491 
L 90.451366 206.391566 
L 91.061615 202.47618 
L 91.671864 197.763962 
L 92.282112 192.864637 
L 92.892361 188.438628 
L 93.50261 185.101869 
L 94.112858 183.212055 
L 94.723107 182.802239 
L 95.333355 183.660105 
L 95.943604 185.37412 
L 96.553853 187.500263 
L 97.164101 189.700354 
L 97.77435 191.763653 
L 98.384599 193.532706 
L 98.994847 194.96092 
L 99.605096 196.056129 
L 100.215344 196.836521 
L 100.825593 197.395659 
L 101.435842 197.813991 
L 102.04609 198.15682 
L 102.656339 198.462609 
L 103.266588 198.73943 
L 103.876836 198.992961 
L 104.487085 199.219953 
L 105.097333 199.408647 
L 105.707582 199.548626 
L 106.317831 199.638941 
L 106.928079 199.687462 
L 107.538328 199.708082 
L 108.148577 199.714413 
L 108.758825 199.715561 
L 109.369074 199.715625 
" style="fill:none;stroke:#d62728;stroke-dasharray:0.75,1.2375;stroke-dashoffset:0;stroke-width:0.75;"/>
   </g>
   <g id="line2d_44">
    <path clip-path="url(#pa5f27a886b)" d="M 129.507278 199.715625 
L 130.117527 199.715533 
L 130.727776 199.713746 
L 131.338024 199.703734 
L 131.948273 199.671823 
L 132.558522 199.599712 
L 133.16877 199.471504 
L 133.779019 199.283454 
L 134.389267 199.047198 
L 134.999516 198.780721 
L 135.609765 198.475796 
L 136.220013 198.057927 
L 136.830262 197.356174 
L 137.440511 196.126124 
L 138.050759 194.144013 
L 138.661008 191.294348 
L 139.271256 187.687337 
L 139.881505 183.794037 
L 140.491754 180.374926 
L 141.102002 178.276861 
L 141.712251 178.247071 
L 142.3225 180.684082 
L 142.932748 185.544351 
L 143.542997 192.288098 
L 144.153245 200.074822 
L 144.763494 207.967694 
L 145.373743 215.136436 
L 145.983991 220.931688 
L 146.59424 225.010602 
L 147.204489 227.309542 
L 147.814737 228.024956 
L 148.424986 227.517768 
L 149.035234 226.289662 
L 149.645483 224.866051 
L 150.255732 223.678169 
L 150.86598 222.993127 
L 151.476229 222.878585 
L 152.086478 223.282198 
L 152.696726 224.127272 
L 153.306975 225.250064 
L 153.917223 226.451614 
L 154.527472 227.462366 
L 155.137721 228.054829 
L 155.747969 228.056499 
L 156.358218 227.408272 
L 156.968467 226.196625 
L 157.578715 224.569955 
L 158.188964 222.755949 
L 158.799212 220.994801 
L 159.409461 219.463896 
L 160.01971 218.276607 
L 160.629958 217.43332 
L 161.240207 216.880177 
L 161.850455 216.570458 
L 162.460704 216.361429 
L 163.070953 216.128207 
L 163.681201 215.82724 
L 164.29145 215.313122 
L 164.901699 214.360483 
L 165.511947 212.795417 
L 166.122196 210.61301 
L 166.732444 208.014307 
L 167.342693 205.237023 
L 167.952942 202.601664 
L 168.56319 200.368228 
L 169.173439 198.718296 
L 169.783688 197.793465 
L 170.393936 197.665517 
L 171.004185 198.288337 
L 171.614433 199.502888 
L 172.224682 201.030199 
L 172.834931 202.546107 
L 173.445179 203.744463 
L 174.055428 204.476768 
L 174.665677 204.676567 
L 175.275925 204.389183 
L 175.886174 203.71238 
L 176.496422 202.788221 
L 177.106671 201.769295 
L 177.71692 200.828281 
L 178.327168 200.085035 
L 178.937417 199.577793 
L 179.547666 199.315363 
L 180.157914 199.276294 
L 180.768163 199.391087 
L 181.378411 199.557167 
L 181.98866 199.697947 
L 182.598909 199.782136 
L 183.209157 199.807573 
L 183.819406 199.793154 
L 184.429655 199.763983 
L 185.039903 199.738416 
L 185.650152 199.723287 
L 186.2604 199.717164 
L 186.870649 199.715727 
L 187.480898 199.715625 
" style="fill:none;stroke:#d62728;stroke-dasharray:0.75,1.2375;stroke-dashoffset:0;stroke-width:0.75;"/>
   </g>
   <g id="line2d_45">
    <path clip-path="url(#pa5f27a886b)" d="M 207.619102 199.715625 
L 208.229351 199.71583 
L 208.8396 199.718842 
L 209.449848 199.732359 
L 210.060097 199.76853 
L 210.670345 199.838975 
L 211.280594 199.945824 
L 211.890843 200.069864 
L 212.501091 200.158502 
L 213.11134 200.130189 
L 213.721589 199.913318 
L 214.331837 199.494884 
L 214.942086 198.960245 
L 215.552334 198.496491 
L 216.162583 198.351318 
L 216.772832 198.77983 
L 217.38308 199.936659 
L 217.993329 201.781241 
L 218.603578 204.048652 
L 219.213826 206.203139 
L 219.824075 207.710775 
L 220.434323 208.198607 
L 221.044572 207.51621 
L 221.654821 205.789773 
L 222.265069 203.425944 
L 222.875318 200.989433 
L 223.485567 199.042315 
L 224.095815 198.109078 
L 224.706064 198.559247 
L 225.316312 200.519318 
L 225.926561 203.939231 
L 226.53681 208.546899 
L 227.147058 213.939414 
L 227.757307 219.592226 
L 228.367556 224.984763 
L 228.977804 229.773476 
L 229.588053 233.792062 
L 230.198301 236.910737 
L 230.80855 239.075561 
L 231.418799 240.290412 
L 232.029047 240.646614 
L 232.639296 240.203561 
L 233.249545 238.980781 
L 233.859793 236.998016 
L 234.470042 234.346976 
L 235.08029 231.120089 
L 235.690539 227.34757 
L 236.300788 223.066357 
L 236.911036 218.410125 
L 237.521285 213.566193 
L 238.131533 208.756133 
L 238.741782 204.109792 
L 239.352031 199.65961 
L 239.962279 195.472903 
L 240.572528 191.627114 
L 241.182777 188.125986 
L 241.793025 184.974332 
L 242.403274 182.15076 
L 243.013522 179.646202 
L 243.623771 177.579941 
L 244.23402 176.118931 
L 244.844268 175.342492 
L 245.454517 175.169686 
L 246.064766 175.446832 
L 246.675014 175.997238 
L 247.285263 176.626146 
L 247.895511 177.091414 
L 248.50576 177.153107 
L 249.116009 176.67767 
L 249.726257 175.605346 
L 250.336506 173.940246 
L 250.946755 171.835007 
L 251.557003 169.67681 
L 252.167252 167.976759 
L 252.7775 167.272144 
L 253.387749 167.989951 
L 253.997998 170.280737 
L 254.608246 173.975169 
L 255.218495 178.673378 
L 255.828744 183.820901 
L 256.438992 188.727357 
L 257.049241 192.82479 
L 257.659489 195.835315 
L 258.269738 197.748945 
L 258.879987 198.765072 
L 259.490235 199.194461 
L 260.100484 199.335565 
L 260.710733 199.38971 
L 261.320981 199.449509 
L 261.93123 199.528972 
L 262.541478 199.608269 
L 263.151727 199.667433 
L 263.761976 199.700191 
L 264.372224 199.712724 
L 264.982473 199.715451 
L 265.592722 199.715625 
" style="fill:none;stroke:#d62728;stroke-dasharray:0.75,1.2375;stroke-dashoffset:0;stroke-width:0.75;"/>
   </g>
   <g id="line2d_46">
    <path clip-path="url(#pa5f27a886b)" d="M 285.730926 199.715625 
L 286.341175 199.715755 
L 286.951423 199.717637 
L 287.561672 199.725928 
L 288.171921 199.748008 
L 288.782169 199.792059 
L 289.392418 199.863961 
L 290.002667 199.962181 
L 290.612915 200.073576 
L 291.223164 200.173394 
L 291.833412 200.233371 
L 292.443661 200.220846 
L 293.05391 200.099241 
L 293.664158 199.818911 
L 294.274407 199.304723 
L 294.884656 198.449865 
L 295.494904 197.149978 
L 296.105153 195.349952 
L 296.715401 193.026714 
L 297.32565 190.276722 
L 297.935899 187.34903 
L 298.546147 184.600203 
L 299.156396 182.419859 
L 299.766645 181.099391 
L 300.376893 180.779934 
L 300.987142 181.509514 
L 301.59739 183.178767 
L 302.207639 185.465694 
L 302.817888 187.936138 
L 303.428136 190.142662 
L 304.038385 191.643874 
L 304.648634 192.06386 
L 305.258882 191.169493 
L 305.869131 188.894997 
L 306.479379 185.442476 
L 307.089628 181.221116 
L 307.699877 176.751264 
L 308.310125 172.597054 
L 308.920374 169.222061 
L 309.530623 166.911133 
L 310.140871 165.825435 
L 310.75112 165.992463 
L 311.361368 167.330751 
L 311.971617 169.651426 
L 312.581866 172.689493 
L 313.192114 176.168421 
L 313.802363 179.739211 
L 314.412612 183.142798 
L 315.02286 186.240358 
L 315.633109 188.935065 
L 316.243357 191.212049 
L 316.853606 193.137556 
L 317.463855 194.779823 
L 318.074103 196.272411 
L 318.684352 197.745728 
L 319.2946 199.33463 
L 319.904849 201.207189 
L 320.515098 203.504521 
L 321.125346 206.2741 
L 321.735595 209.423777 
L 322.345844 212.877467 
L 322.956092 216.571074 
L 323.566341 220.411523 
L 324.176589 224.292949 
L 324.786838 228.169303 
L 325.397087 232.021862 
L 326.007335 235.805116 
L 326.617584 239.391254 
L 327.227833 242.651495 
L 327.838081 245.450028 
L 328.44833 247.649521 
L 329.058578 249.110091 
L 329.668827 249.607993 
L 330.279076 248.851743 
L 330.889324 246.660577 
L 331.499573 243.001016 
L 332.109822 238.014026 
L 332.72007 231.994339 
L 333.330319 225.427811 
L 333.940567 218.904161 
L 334.550816 213.004365 
L 335.161065 208.144152 
L 335.771313 204.512344 
L 336.381562 202.078266 
L 336.991811 200.645645 
L 337.602059 199.944109 
L 338.212308 199.687948 
L 338.822556 199.648076 
L 339.432805 199.679477 
L 340.043054 199.711966 
L 340.653302 199.725974 
L 341.263551 199.725592 
L 341.8738 199.72055 
L 342.484048 199.716912 
L 343.094297 199.715728 
L 343.704545 199.715625 
" style="fill:none;stroke:#d62728;stroke-dasharray:0.75,1.2375;stroke-dashoffset:0;stroke-width:0.75;"/>
   </g>
   <g id="patch_8">
    <path d="M 36.78 264.6075 
L 36.78 134.82375 
" style="fill:none;stroke:#000000;stroke-linecap:square;stroke-linejoin:miter;stroke-width:0.5;"/>
   </g>
   <g id="patch_9">
    <path d="M 358.32 264.6075 
L 358.32 134.82375 
" style="fill:none;stroke:#000000;stroke-linecap:square;stroke-linejoin:miter;stroke-width:0.5;"/>
   </g>
   <g id="patch_10">
    <path d="M 36.78 264.6075 
L 358.32 264.6075 
" style="fill:none;stroke:#000000;stroke-linecap:square;stroke-linejoin:miter;stroke-width:0.5;"/>
   </g>
   <g id="patch_11">
    <path d="M 36.78 134.82375 
L 358.32 134.82375 
" style="fill:none;stroke:#000000;stroke-linecap:square;stroke-linejoin:miter;stroke-width:0.5;"/>
   </g>
   <g id="text_35">
    <!-- $b=2$ -->
    <g style="fill:#d62728;" transform="translate(72.447388 258.007854)scale(0.08 -0.08)">
     <use transform="translate(0 0.609375)" xlink:href="#Cmmi10-98"/>
     <use transform="translate(60.478516 0.609375)" xlink:href="#Cmr10-61"/>
     <use transform="translate(155.722656 0.609375)" xlink:href="#Cmr10-50"/>
    </g>
   </g>
   <g id="text_36">
    <!-- $b=4$ -->
    <defs>
     <path d="M 2.78125 16.5 
L 2.78125 20.015625 
L 33.6875 66.109375 
Q 34.03125 66.609375 34.71875 66.609375 
L 36.1875 66.609375 
Q 37.3125 66.609375 37.3125 65.484375 
L 37.3125 20.015625 
L 47.125 20.015625 
L 47.125 16.5 
L 37.3125 16.5 
L 37.3125 6.6875 
Q 37.3125 4.640625 40.234375 4.078125 
Q 43.171875 3.515625 47.015625 3.515625 
L 47.015625 0 
L 19.484375 0 
L 19.484375 3.515625 
Q 23.34375 3.515625 26.265625 4.078125 
Q 29.203125 4.640625 29.203125 6.6875 
L 29.203125 16.5 
z
M 6.109375 20.015625 
L 29.78125 20.015625 
L 29.78125 55.421875 
z
" id="Cmr10-52"/>
    </defs>
    <g style="fill:#d62728;" transform="translate(150.559212 258.007854)scale(0.08 -0.08)">
     <use transform="translate(0 0.609375)" xlink:href="#Cmmi10-98"/>
     <use transform="translate(60.478516 0.609375)" xlink:href="#Cmr10-61"/>
     <use transform="translate(155.722656 0.609375)" xlink:href="#Cmr10-52"/>
    </g>
   </g>
   <g id="text_37">
    <!-- $b=6$ -->
    <defs>
     <path d="M 25 -2.203125 
Q 18.796875 -2.203125 14.640625 1.09375 
Q 10.5 4.390625 8.21875 9.640625 
Q 5.953125 14.890625 5.078125 20.65625 
Q 4.203125 26.421875 4.203125 32.328125 
Q 4.203125 40.234375 7.28125 48.1875 
Q 10.359375 56.15625 16.328125 61.375 
Q 22.3125 66.609375 30.515625 66.609375 
Q 33.9375 66.609375 36.890625 65.3125 
Q 39.84375 64.015625 41.53125 61.5 
Q 43.21875 58.984375 43.21875 55.421875 
Q 43.21875 53.375 41.828125 51.984375 
Q 40.4375 50.59375 38.375 50.59375 
Q 36.421875 50.59375 35 52 
Q 33.59375 53.421875 33.59375 55.421875 
Q 33.59375 57.375 35 58.78125 
Q 36.421875 60.203125 38.375 60.203125 
L 38.921875 60.203125 
Q 37.640625 62.015625 35.328125 62.859375 
Q 33.015625 63.71875 30.515625 63.71875 
Q 27.484375 63.71875 24.921875 62.390625 
Q 22.359375 61.078125 20.3125 58.828125 
Q 18.265625 56.59375 16.890625 53.875 
Q 15.53125 51.171875 14.765625 47.703125 
Q 14.015625 44.234375 13.8125 41.203125 
Q 13.625 38.1875 13.625 33.59375 
Q 15.375 37.703125 18.59375 40.3125 
Q 21.828125 42.921875 25.875 42.921875 
Q 30.328125 42.921875 33.984375 41.109375 
Q 37.640625 39.3125 40.28125 36.109375 
Q 42.921875 32.90625 44.3125 28.796875 
Q 45.703125 24.703125 45.703125 20.515625 
Q 45.703125 14.65625 43.09375 9.34375 
Q 40.484375 4.046875 35.734375 0.921875 
Q 31 -2.203125 25 -2.203125 
z
M 25 0.984375 
Q 28.859375 0.984375 31.203125 2.734375 
Q 33.546875 4.5 34.640625 7.390625 
Q 35.75 10.296875 36.015625 13.25 
Q 36.28125 16.21875 36.28125 20.515625 
Q 36.28125 26.171875 35.734375 30.171875 
Q 35.203125 34.1875 32.8125 37.234375 
Q 30.421875 40.28125 25.484375 40.28125 
Q 21.4375 40.28125 18.828125 37.546875 
Q 16.21875 34.8125 15.015625 30.640625 
Q 13.8125 26.46875 13.8125 22.609375 
Q 13.8125 21.296875 13.921875 20.609375 
Q 13.921875 20.453125 13.890625 20.359375 
Q 13.875 20.265625 13.8125 20.125 
Q 13.8125 15.828125 14.6875 11.421875 
Q 15.578125 7.03125 18.0625 4 
Q 20.5625 0.984375 25 0.984375 
z
" id="Cmr10-54"/>
    </defs>
    <g style="fill:#d62728;" transform="translate(228.671036 258.007854)scale(0.08 -0.08)">
     <use transform="translate(0 0.609375)" xlink:href="#Cmmi10-98"/>
     <use transform="translate(60.478516 0.609375)" xlink:href="#Cmr10-61"/>
     <use transform="translate(155.722656 0.609375)" xlink:href="#Cmr10-54"/>
    </g>
   </g>
   <g id="text_38">
    <!-- $b=8$ -->
    <defs>
     <path d="M 4.203125 15.1875 
Q 4.203125 21.1875 8.15625 25.796875 
Q 12.109375 30.421875 18.3125 33.5 
L 14.59375 35.890625 
Q 11.1875 38.140625 9.03125 41.875 
Q 6.890625 45.609375 6.890625 49.703125 
Q 6.890625 54.5 9.40625 58.34375 
Q 11.921875 62.203125 16.09375 64.40625 
Q 20.265625 66.609375 25 66.609375 
Q 29.4375 66.609375 33.5625 64.796875 
Q 37.703125 62.984375 40.359375 59.609375 
Q 43.015625 56.25 43.015625 51.609375 
Q 43.015625 48.25 41.421875 45.359375 
Q 39.84375 42.484375 37.078125 40.1875 
Q 34.328125 37.890625 31.203125 36.28125 
L 36.921875 32.625 
Q 40.875 30.03125 43.28125 25.828125 
Q 45.703125 21.625 45.703125 17 
Q 45.703125 11.578125 42.796875 7.125 
Q 39.890625 2.6875 35.109375 0.234375 
Q 30.328125 -2.203125 25 -2.203125 
Q 19.828125 -2.203125 15.015625 -0.09375 
Q 10.203125 2 7.203125 5.984375 
Q 4.203125 9.96875 4.203125 15.1875 
z
M 9.625 15.1875 
Q 9.625 11.234375 11.796875 7.953125 
Q 13.96875 4.6875 17.53125 2.828125 
Q 21.09375 0.984375 25 0.984375 
Q 30.8125 0.984375 35.546875 4.375 
Q 40.28125 7.765625 40.28125 13.375 
Q 40.28125 15.28125 39.515625 17.15625 
Q 38.765625 19.046875 37.421875 20.578125 
Q 36.078125 22.125 34.421875 23.09375 
L 21 31.78125 
Q 17.875 30.125 15.25 27.578125 
Q 12.640625 25.046875 11.125 21.875 
Q 9.625 18.703125 9.625 15.1875 
z
M 16.5 45.703125 
L 28.609375 37.890625 
Q 32.8125 40.328125 35.5 43.796875 
Q 38.1875 47.265625 38.1875 51.609375 
Q 38.1875 54.984375 36.296875 57.78125 
Q 34.421875 60.59375 31.390625 62.15625 
Q 28.375 63.71875 24.90625 63.71875 
Q 21.875 63.71875 18.796875 62.546875 
Q 15.71875 61.375 13.71875 59.046875 
Q 11.71875 56.734375 11.71875 53.609375 
Q 11.71875 48.921875 16.5 45.703125 
z
" id="Cmr10-56"/>
    </defs>
    <g style="fill:#d62728;" transform="translate(306.78286 258.007854)scale(0.08 -0.08)">
     <use transform="translate(0 0.609375)" xlink:href="#Cmmi10-98"/>
     <use transform="translate(60.478516 0.609375)" xlink:href="#Cmr10-61"/>
     <use transform="translate(155.722656 0.609375)" xlink:href="#Cmr10-56"/>
    </g>
   </g>
   <g id="legend_2">
    <g id="line2d_47">
     <path d="M 150.03 144.82375 
L 166.03 144.82375 
" style="fill:none;stroke:#d62728;stroke-linecap:square;stroke-width:0.75;"/>
    </g>
    <g id="line2d_48"/>
    <g id="text_39">
     <!-- $p=1$ -->
     <g transform="translate(172.43 147.62375)scale(0.08 -0.08)">
      <use transform="translate(0 0.390625)" xlink:href="#Cmmi10-112"/>
      <use transform="translate(67.851562 0.390625)" xlink:href="#Cmr10-61"/>
      <use transform="translate(163.095703 0.390625)" xlink:href="#Cmr10-49"/>
     </g>
    </g>
    <g id="line2d_49">
     <path d="M 205.55 144.82375 
L 221.55 144.82375 
" style="fill:none;stroke:#d62728;stroke-dasharray:0.75,1.2375;stroke-dashoffset:0;stroke-width:0.75;"/>
    </g>
    <g id="line2d_50"/>
    <g id="text_40">
     <!-- $p=2$ -->
     <g transform="translate(227.95 147.62375)scale(0.08 -0.08)">
      <use transform="translate(0 0.390625)" xlink:href="#Cmmi10-112"/>
      <use transform="translate(67.851562 0.390625)" xlink:href="#Cmr10-61"/>
      <use transform="translate(163.095703 0.390625)" xlink:href="#Cmr10-50"/>
     </g>
    </g>
   </g>
  </g>
 </g>
 <defs>
  <clipPath id="p14defd034f">
   <rect height="129.78375" width="321.54" x="36.78" y="1.68"/>
  </clipPath>
  <clipPath id="pa5f27a886b">
   <rect height="129.78375" width="321.54" x="36.78" y="134.82375"/>
  </clipPath>
 </defs>
</svg>
