<?xml version="1.0" encoding="utf-8" standalone="no"?>
<!DOCTYPE svg PUBLIC "-//W3C//DTD SVG 1.1//EN"
  "http://www.w3.org/Graphics/SVG/1.1/DTD/svg11.dtd">
<!-- Created with matplotlib (https://matplotlib.org/) -->
<svg height="288pt" version="1.1" viewBox="0 0 360 288" width="360pt" xmlns="http://www.w3.org/2000/svg" xmlns:xlink="http://www.w3.org/1999/xlink">
 <defs>
  <style type="text/css">
*{stroke-linecap:butt;stroke-linejoin:round;}
  </style>
 </defs>
 <g id="figure_1">
  <g id="patch_1">
   <path d="M 0 288 
L 360 288 
L 360 0 
L 0 0 
z
" style="fill:#ffffff;"/>
  </g>
  <g id="axes_1">
   <g id="patch_2">
    <path d="M 36.78 131.46375 
L 358.32 131.46375 
L 358.32 1.68 
L 36.78 1.68 
z
" style="fill:#ffffff;"/>
   </g>
   <g id="matplotlib.axis_1"/>
   <g id="matplotlib.axis_2">
    <g id="ytick_1">
     <g id="line2d_1">
      <defs>
       <path d="M 0 0 
L -3.5 0 
" id="mb60dc88c52" style="stroke:#000000;stroke-width:0.8;"/>
      </defs>
      <g>
       <use style="stroke:#000000;stroke-width:0.8;" x="36.78" xlink:href="#mb60dc88c52" y="124.253542"/>
      </g>
     </g>
     <g id="text_1">
      <!-- −0.8 -->
      <defs>
       <path d="M 76.59375 25 
C 76.59375 27.296875 74.203125 27.296875 72.703125 27.296875 
L 9.796875 27.296875 
C 8.296875 27.296875 5.90625 27.296875 5.90625 25 
C 5.90625 22.703125 7.90625 22.703125 9.40625 22.703125 
L 73.09375 22.703125 
C 74.59375 22.703125 76.59375 22.703125 76.59375 25 
z
" id="LMRoman8-Regular-8722"/>
       <path d="M 48.90625 31.90625 
C 48.90625 42.59375 47.796875 49.09375 44.5 55.5 
C 40.09375 64.296875 32 66.5 26.5 66.5 
C 13.90625 66.5 9.296875 57.09375 7.90625 54.296875 
C 4.296875 47 4.09375 37.09375 4.09375 31.90625 
C 4.09375 25.296875 4.40625 15.203125 9.203125 7.203125 
C 13.796875 -0.203125 21.203125 -2.09375 26.5 -2.09375 
C 31.296875 -2.09375 39.90625 -0.59375 44.90625 9.296875 
C 48.59375 16.5 48.90625 25.40625 48.90625 31.90625 
z
M 40 33.09375 
C 40 27.203125 40 18.203125 38.796875 12.59375 
C 36.703125 2.09375 29.796875 0.703125 26.5 0.703125 
C 23.09375 0.703125 16.203125 2.296875 14.09375 12.796875 
C 13 18.5 13 27.90625 13 33.09375 
C 13 40 13 47 14.09375 52.5 
C 16.203125 62.703125 24 63.703125 26.5 63.703125 
C 29.90625 63.703125 36.796875 62 38.796875 52.90625 
C 40 47.40625 40 39.90625 40 33.09375 
z
" id="LMRoman8-Regular-48"/>
       <path d="M 20.296875 5.5 
C 20.296875 8.90625 17.59375 11.09375 14.796875 11.09375 
C 11.40625 11.09375 9.203125 8.40625 9.203125 5.59375 
C 9.203125 2.203125 11.90625 0 14.703125 0 
C 18.09375 0 20.296875 2.703125 20.296875 5.5 
z
" id="LMRoman8-Regular-46"/>
       <path d="M 48.59375 16.796875 
C 48.59375 23.09375 45.203125 27.296875 43.59375 29 
C 41.90625 30.59375 41.796875 30.703125 33.203125 36.09375 
C 38.796875 38.796875 45.59375 43.796875 45.59375 51.59375 
C 45.59375 61.09375 35.90625 66.5 26.59375 66.5 
C 16 66.5 7.40625 59.203125 7.40625 49.796875 
C 7.40625 46.09375 8.703125 42.703125 11.203125 39.796875 
C 12.90625 37.703125 13.296875 37.5 19.5 33.59375 
C 7.09375 28.09375 4.40625 20.796875 4.40625 15.203125 
C 4.40625 4.203125 15.5 -2.09375 26.40625 -2.09375 
C 38.703125 -2.09375 48.59375 6.203125 48.59375 16.796875 
z
M 40.59375 51.59375 
C 40.59375 45.796875 36.09375 40.90625 30.203125 38 
L 17.703125 45.5 
C 14.796875 47.203125 12.40625 50.09375 12.40625 53.59375 
C 12.40625 59.90625 19.296875 63.90625 26.40625 63.90625 
C 34.203125 63.90625 40.59375 58.59375 40.59375 51.59375 
z
M 42.90625 13.40625 
C 42.90625 5.703125 34.796875 0.90625 26.59375 0.90625 
C 17.703125 0.90625 10.09375 7 10.09375 15.203125 
C 10.09375 22.703125 15.703125 28.59375 22.59375 31.796875 
L 36.09375 23.5 
C 37.703125 22.59375 42.90625 19.40625 42.90625 13.40625 
z
" id="LMRoman8-Regular-56"/>
      </defs>
      <g transform="translate(16.683125 126.335729)scale(0.06 -0.06)">
       <use xlink:href="#LMRoman8-Regular-8722"/>
       <use x="82.599991" xlink:href="#LMRoman8-Regular-48"/>
       <use x="135.699982" xlink:href="#LMRoman8-Regular-46"/>
       <use x="165.199966" xlink:href="#LMRoman8-Regular-56"/>
      </g>
     </g>
    </g>
    <g id="ytick_2">
     <g id="line2d_2">
      <g>
       <use style="stroke:#000000;stroke-width:0.8;" x="36.78" xlink:href="#mb60dc88c52" y="109.833125"/>
      </g>
     </g>
     <g id="text_2">
      <!-- −0.6 -->
      <defs>
       <path d="M 48.59375 20.296875 
C 48.59375 33.40625 38.703125 42.59375 27.59375 42.59375 
C 20.40625 42.59375 16.09375 38 13.796875 33.09375 
C 13.796875 41.40625 14.5 48.703125 18.09375 54.796875 
C 21.09375 59.796875 26.203125 63.90625 32.5 63.90625 
C 34.5 63.90625 39.09375 63.59375 41.40625 60.09375 
C 36.90625 59.90625 36.5 56.5 36.5 55.40625 
C 36.5 52.40625 38.796875 50.703125 41.203125 50.703125 
C 43 50.703125 45.90625 51.796875 45.90625 55.59375 
C 45.90625 61.59375 41.40625 66.5 32.40625 66.5 
C 18.5 66.5 4.40625 53.296875 4.40625 31.703125 
C 4.40625 4.59375 17 -2.09375 26.703125 -2.09375 
C 31.5 -2.09375 36.703125 -0.796875 41.203125 3.5 
C 45.203125 7.40625 48.59375 11.59375 48.59375 20.296875 
z
M 39.203125 20.40625 
C 39.203125 15.296875 39.203125 10.90625 37.203125 7.296875 
C 34.59375 2.703125 31.09375 0.90625 26.703125 0.90625 
C 21.40625 0.90625 18.09375 4.59375 16.59375 7.40625 
C 14.296875 11.90625 14.09375 18.703125 14.09375 22.5 
C 14.09375 32.40625 19.5 39.796875 27.203125 39.796875 
C 32.203125 39.796875 35.203125 37.203125 37.09375 33.703125 
C 39.203125 30 39.203125 25.5 39.203125 20.40625 
z
" id="LMRoman8-Regular-54"/>
      </defs>
      <g transform="translate(16.683125 111.915312)scale(0.06 -0.06)">
       <use xlink:href="#LMRoman8-Regular-8722"/>
       <use x="82.599991" xlink:href="#LMRoman8-Regular-48"/>
       <use x="135.699982" xlink:href="#LMRoman8-Regular-46"/>
       <use x="165.199966" xlink:href="#LMRoman8-Regular-54"/>
      </g>
     </g>
    </g>
    <g id="ytick_3">
     <g id="line2d_3">
      <g>
       <use style="stroke:#000000;stroke-width:0.8;" x="36.78" xlink:href="#mb60dc88c52" y="95.412708"/>
      </g>
     </g>
     <g id="text_3">
      <!-- −0.4 -->
      <defs>
       <path d="M 50 16.40625 
L 50 19.703125 
L 39.40625 19.703125 
L 39.40625 64.703125 
C 39.40625 66.703125 39.40625 67.5 37.296875 67.5 
C 36 67.5 35.90625 67.40625 34.90625 66 
L 3 19.703125 
L 3 16.40625 
L 31.203125 16.40625 
L 31.203125 8.09375 
C 31.203125 4.40625 30.90625 3.296875 23.203125 3.296875 
L 20.90625 3.296875 
L 20.90625 0 
L 35.296875 0.296875 
L 49.703125 0 
L 49.703125 3.296875 
L 47.40625 3.296875 
C 39.703125 3.296875 39.40625 4.40625 39.40625 8.09375 
L 39.40625 16.40625 
z
M 31.90625 19.703125 
L 6.5 19.703125 
L 31.90625 56.59375 
z
" id="LMRoman8-Regular-52"/>
      </defs>
      <g transform="translate(16.683125 97.494896)scale(0.06 -0.06)">
       <use xlink:href="#LMRoman8-Regular-8722"/>
       <use x="82.599991" xlink:href="#LMRoman8-Regular-48"/>
       <use x="135.699982" xlink:href="#LMRoman8-Regular-46"/>
       <use x="165.199966" xlink:href="#LMRoman8-Regular-52"/>
      </g>
     </g>
    </g>
    <g id="ytick_4">
     <g id="line2d_4">
      <g>
       <use style="stroke:#000000;stroke-width:0.8;" x="36.78" xlink:href="#mb60dc88c52" y="80.992292"/>
      </g>
     </g>
     <g id="text_4">
      <!-- −0.2 -->
      <defs>
       <path d="M 47.703125 17.90625 
L 44.59375 17.90625 
C 44.296875 15.90625 43.5 10.90625 42.296875 9 
C 41.703125 8.203125 34.09375 8.203125 32.5 8.203125 
L 14.703125 8.203125 
L 28.203125 20.40625 
C 29.796875 21.90625 34 25.203125 35.59375 26.59375 
C 41.796875 32.296875 47.703125 37.796875 47.703125 46.90625 
C 47.703125 58.796875 37.703125 66.5 25.203125 66.5 
C 13.203125 66.5 5.296875 57.40625 5.296875 48.5 
C 5.296875 43.59375 9.203125 42.90625 10.59375 42.90625 
C 12.703125 42.90625 15.796875 44.40625 15.796875 48.203125 
C 15.796875 53.40625 10.796875 53.40625 9.59375 53.40625 
C 12.5 60.703125 19.203125 63.203125 24.09375 63.203125 
C 33.40625 63.203125 38.203125 55.296875 38.203125 46.90625 
C 38.203125 36.5 30.90625 28.90625 19.09375 16.796875 
L 6.5 3.796875 
C 5.296875 2.703125 5.296875 2.5 5.296875 0 
L 44.796875 0 
z
" id="LMRoman8-Regular-50"/>
      </defs>
      <g transform="translate(16.683125 83.074479)scale(0.06 -0.06)">
       <use xlink:href="#LMRoman8-Regular-8722"/>
       <use x="82.599991" xlink:href="#LMRoman8-Regular-48"/>
       <use x="135.699982" xlink:href="#LMRoman8-Regular-46"/>
       <use x="165.199966" xlink:href="#LMRoman8-Regular-50"/>
      </g>
     </g>
    </g>
    <g id="ytick_5">
     <g id="line2d_5">
      <g>
       <use style="stroke:#000000;stroke-width:0.8;" x="36.78" xlink:href="#mb60dc88c52" y="66.571875"/>
      </g>
     </g>
     <g id="text_5">
      <!-- 0.0 -->
      <g transform="translate(21.63875 68.654063)scale(0.06 -0.06)">
       <use xlink:href="#LMRoman8-Regular-48"/>
       <use x="53.099991" xlink:href="#LMRoman8-Regular-46"/>
       <use x="82.599976" xlink:href="#LMRoman8-Regular-48"/>
      </g>
     </g>
    </g>
    <g id="ytick_6">
     <g id="line2d_6">
      <g>
       <use style="stroke:#000000;stroke-width:0.8;" x="36.78" xlink:href="#mb60dc88c52" y="52.151458"/>
      </g>
     </g>
     <g id="text_6">
      <!-- 0.2 -->
      <g transform="translate(21.63875 54.233646)scale(0.06 -0.06)">
       <use xlink:href="#LMRoman8-Regular-48"/>
       <use x="53.099991" xlink:href="#LMRoman8-Regular-46"/>
       <use x="82.599976" xlink:href="#LMRoman8-Regular-50"/>
      </g>
     </g>
    </g>
    <g id="ytick_7">
     <g id="line2d_7">
      <g>
       <use style="stroke:#000000;stroke-width:0.8;" x="36.78" xlink:href="#mb60dc88c52" y="37.731042"/>
      </g>
     </g>
     <g id="text_7">
      <!-- 0.4 -->
      <g transform="translate(21.63875 39.813229)scale(0.06 -0.06)">
       <use xlink:href="#LMRoman8-Regular-48"/>
       <use x="53.099991" xlink:href="#LMRoman8-Regular-46"/>
       <use x="82.599976" xlink:href="#LMRoman8-Regular-52"/>
      </g>
     </g>
    </g>
    <g id="ytick_8">
     <g id="line2d_8">
      <g>
       <use style="stroke:#000000;stroke-width:0.8;" x="36.78" xlink:href="#mb60dc88c52" y="23.310625"/>
      </g>
     </g>
     <g id="text_8">
      <!-- 0.6 -->
      <g transform="translate(21.63875 25.392812)scale(0.06 -0.06)">
       <use xlink:href="#LMRoman8-Regular-48"/>
       <use x="53.099991" xlink:href="#LMRoman8-Regular-46"/>
       <use x="82.599976" xlink:href="#LMRoman8-Regular-54"/>
      </g>
     </g>
    </g>
    <g id="ytick_9">
     <g id="line2d_9">
      <g>
       <use style="stroke:#000000;stroke-width:0.8;" x="36.78" xlink:href="#mb60dc88c52" y="8.890208"/>
      </g>
     </g>
     <g id="text_9">
      <!-- 0.8 -->
      <g transform="translate(21.63875 10.972396)scale(0.06 -0.06)">
       <use xlink:href="#LMRoman8-Regular-48"/>
       <use x="53.099991" xlink:href="#LMRoman8-Regular-46"/>
       <use x="82.599976" xlink:href="#LMRoman8-Regular-56"/>
      </g>
     </g>
    </g>
    <g id="text_10">
     <!-- $\vec{z}^{\,p}(s)$ -->
     <defs>
      <path d="M 20.015625 59.515625 
Q 19.234375 59.515625 18.71875 60.09375 
Q 18.21875 60.6875 18.21875 61.53125 
Q 18.21875 62.25 18.71875 62.859375 
Q 19.234375 63.484375 20.015625 63.484375 
L 55.421875 63.484375 
Q 52.78125 67.046875 52.78125 69.390625 
Q 52.78125 70.265625 53.390625 70.828125 
Q 54 71.390625 54.78125 71.390625 
Q 56.453125 71.390625 56.78125 69.828125 
Q 57.765625 65.53125 61.53125 63.1875 
Q 62.5 62.546875 62.5 61.53125 
Q 62.5 60.296875 61.53125 59.8125 
Q 55.859375 56.984375 52.390625 52.296875 
Q 52 51.609375 50.875 51.609375 
Q 50.140625 51.609375 49.5 52.1875 
Q 48.875 52.78125 48.875 53.609375 
Q 48.875 55.421875 53.71875 59.515625 
z
" id="Cmmi10-126"/>
      <path d="M 4.890625 -1.125 
Q 4.109375 -1.125 4.109375 -0.203125 
Q 4.109375 0.296875 4.296875 0.484375 
Q 6.984375 5.125 10.765625 9.34375 
Q 14.546875 13.578125 19.359375 17.890625 
Q 24.171875 22.21875 29.03125 26.5625 
Q 33.890625 30.90625 36.921875 34.28125 
L 36.53125 34.28125 
Q 34.328125 34.28125 30.078125 35.6875 
Q 25.828125 37.109375 23.390625 37.109375 
Q 20.75 37.109375 18.25 35.953125 
Q 15.765625 34.8125 15.09375 32.421875 
Q 14.9375 31.6875 14.3125 31.6875 
L 13.09375 31.6875 
Q 12.3125 31.6875 12.3125 32.71875 
L 12.3125 33.015625 
Q 13.09375 35.9375 14.875 38.46875 
Q 16.65625 41.015625 19.265625 42.59375 
Q 21.875 44.1875 24.703125 44.1875 
Q 26.703125 44.1875 28.015625 43.28125 
Q 29.34375 42.390625 31.09375 40.484375 
Q 32.859375 38.578125 33.953125 37.75 
Q 35.0625 36.921875 36.71875 36.921875 
Q 38.921875 36.921875 40.65625 38.921875 
Q 42.390625 40.921875 44.09375 43.890625 
Q 44.390625 44.1875 44.828125 44.1875 
L 46 44.1875 
Q 46.34375 44.1875 46.5625 43.9375 
Q 46.78125 43.703125 46.78125 43.3125 
Q 46.78125 42.96875 46.578125 42.671875 
Q 43.890625 38.03125 40.296875 34 
Q 36.71875 29.984375 30.921875 24.78125 
Q 25.140625 19.578125 21.15625 15.984375 
Q 17.1875 12.40625 13.71875 8.59375 
Q 14.5 8.796875 15.828125 8.796875 
Q 18.265625 8.796875 22.484375 7.390625 
Q 26.703125 6 29 6 
Q 31.5 6 34.03125 7.078125 
Q 36.578125 8.15625 38.421875 10.109375 
Q 40.28125 12.0625 40.921875 14.59375 
Q 41.15625 15.28125 41.703125 15.28125 
L 42.921875 15.28125 
Q 43.3125 15.28125 43.546875 14.96875 
Q 43.796875 14.65625 43.796875 14.3125 
Q 43.796875 14.203125 43.703125 14.015625 
Q 42.78125 10.203125 40.484375 6.765625 
Q 38.1875 3.328125 34.84375 1.09375 
Q 31.5 -1.125 27.6875 -1.125 
Q 25.78125 -1.125 24.453125 -0.234375 
Q 23.140625 0.640625 21.359375 2.5625 
Q 19.578125 4.5 18.453125 5.34375 
Q 17.328125 6.203125 15.71875 6.203125 
Q 10.75 6.203125 6.78125 -0.78125 
Q 6.453125 -1.125 6.109375 -1.125 
z
" id="Cmmi10-122"/>
      <path d="M -2.484375 -19.390625 
Q -3.421875 -19.390625 -3.421875 -18.109375 
Q -3.078125 -15.921875 -2.09375 -15.921875 
Q 1.03125 -15.921875 2.265625 -15.359375 
Q 3.515625 -14.796875 4.203125 -12.5 
L 15.484375 32.515625 
Q 16.21875 34.375 16.21875 37.3125 
Q 16.21875 41.609375 13.28125 41.609375 
Q 10.15625 41.609375 8.640625 37.859375 
Q 7.125 34.125 5.71875 28.421875 
Q 5.71875 27.78125 4.890625 27.78125 
L 3.71875 27.78125 
Q 3.46875 27.78125 3.171875 28.140625 
Q 2.875 28.515625 2.875 28.8125 
Q 3.953125 33.15625 4.953125 36.171875 
Q 5.953125 39.203125 8.078125 41.6875 
Q 10.203125 44.1875 13.375 44.1875 
Q 16.796875 44.1875 19.375 42.25 
Q 21.96875 40.328125 22.703125 37.015625 
Q 25.4375 40.1875 28.75 42.1875 
Q 32.078125 44.1875 35.59375 44.1875 
Q 39.796875 44.1875 42.890625 41.9375 
Q 46 39.703125 47.5625 36.0625 
Q 49.125 32.421875 49.125 28.21875 
Q 49.125 21.78125 45.828125 14.890625 
Q 42.53125 8.015625 36.890625 3.4375 
Q 31.25 -1.125 24.8125 -1.125 
Q 21.875 -1.125 19.5 0.53125 
Q 17.140625 2.203125 15.828125 4.890625 
L 11.28125 -12.890625 
Q 11.03125 -14.359375 10.984375 -14.59375 
Q 10.984375 -15.921875 17.578125 -15.921875 
Q 18.609375 -15.921875 18.609375 -17.1875 
Q 18.265625 -18.5 18.046875 -18.9375 
Q 17.828125 -19.390625 16.890625 -19.390625 
z
M 24.90625 1.515625 
Q 28.375 1.515625 31.34375 4.375 
Q 34.328125 7.234375 36.1875 10.796875 
Q 37.546875 13.484375 38.734375 17.359375 
Q 39.9375 21.234375 40.8125 25.625 
Q 41.703125 30.03125 41.703125 32.625 
Q 41.703125 34.90625 41.09375 36.90625 
Q 40.484375 38.921875 39.09375 40.265625 
Q 37.703125 41.609375 35.40625 41.609375 
Q 31.734375 41.609375 28.484375 38.984375 
Q 25.25 36.375 22.609375 32.515625 
L 22.609375 32.171875 
L 17.09375 10.109375 
Q 17.78125 6.546875 19.734375 4.03125 
Q 21.6875 1.515625 24.90625 1.515625 
z
" id="Cmmi10-112"/>
      <path d="M 31 -24.8125 
Q 25.4375 -20.40625 21.40625 -14.71875 
Q 17.390625 -9.03125 14.8125 -2.578125 
Q 12.25 3.859375 10.984375 10.890625 
Q 9.71875 17.921875 9.71875 25 
Q 9.71875 32.171875 10.984375 39.203125 
Q 12.25 46.234375 14.859375 52.734375 
Q 17.484375 59.234375 21.53125 64.890625 
Q 25.59375 70.5625 31 74.8125 
Q 31 75 31.5 75 
L 32.421875 75 
Q 32.71875 75 32.953125 74.734375 
Q 33.203125 74.46875 33.203125 74.125 
Q 33.203125 73.6875 33.015625 73.484375 
Q 28.125 68.703125 24.875 63.234375 
Q 21.625 57.765625 19.640625 51.578125 
Q 17.671875 45.40625 16.796875 38.78125 
Q 15.921875 32.171875 15.921875 25 
Q 15.921875 -6.78125 32.90625 -23.296875 
Q 33.203125 -23.578125 33.203125 -24.125 
Q 33.203125 -24.359375 32.9375 -24.671875 
Q 32.671875 -25 32.421875 -25 
L 31.5 -25 
Q 31 -25 31 -24.8125 
z
" id="Cmr10-40"/>
      <path d="M 8.6875 6.109375 
Q 11.375 1.515625 19.484375 1.515625 
Q 23 1.515625 26.171875 2.703125 
Q 29.34375 3.90625 31.421875 6.296875 
Q 33.5 8.6875 33.5 12.109375 
Q 33.5 14.703125 31.640625 16.359375 
Q 29.78125 18.015625 27.09375 18.609375 
L 21.6875 19.671875 
Q 17.96875 20.609375 15.578125 23.140625 
Q 13.1875 25.6875 13.1875 29.296875 
Q 13.1875 33.734375 15.59375 37.15625 
Q 18.015625 40.578125 21.96875 42.375 
Q 25.921875 44.1875 30.171875 44.1875 
Q 34.71875 44.1875 38.296875 42.015625 
Q 41.890625 39.84375 41.890625 35.59375 
Q 41.890625 33.296875 40.59375 31.53125 
Q 39.3125 29.78125 37.015625 29.78125 
Q 35.6875 29.78125 34.734375 30.640625 
Q 33.796875 31.5 33.796875 32.8125 
Q 33.796875 33.984375 34.453125 35.078125 
Q 35.109375 36.1875 36.203125 36.84375 
Q 37.3125 37.5 38.484375 37.5 
Q 37.59375 39.65625 35.171875 40.625 
Q 32.765625 41.609375 29.984375 41.609375 
Q 27.4375 41.609375 24.890625 40.578125 
Q 22.359375 39.546875 20.8125 37.5625 
Q 19.28125 35.59375 19.28125 32.90625 
Q 19.28125 31.109375 20.546875 29.734375 
Q 21.828125 28.375 23.6875 27.78125 
L 29.5 26.609375 
Q 32.28125 26.03125 34.59375 24.53125 
Q 36.921875 23.046875 38.25 20.765625 
Q 39.59375 18.5 39.59375 15.578125 
Q 39.59375 11.859375 37.515625 8.25 
Q 35.453125 4.640625 32.421875 2.484375 
Q 27.09375 -1.125 19.390625 -1.125 
Q 14.0625 -1.125 9.609375 1.3125 
Q 5.171875 3.765625 5.171875 8.59375 
Q 5.171875 11.328125 6.75 13.34375 
Q 8.34375 15.375 11.078125 15.375 
Q 12.703125 15.375 13.796875 14.390625 
Q 14.890625 13.421875 14.890625 11.8125 
Q 14.890625 9.515625 13.171875 7.8125 
Q 11.46875 6.109375 9.1875 6.109375 
z
" id="Cmmi10-115"/>
      <path d="M 6.5 -25 
Q 5.609375 -25 5.609375 -24.125 
Q 5.609375 -23.6875 5.8125 -23.484375 
Q 22.90625 -6.78125 22.90625 25 
Q 22.90625 56.78125 6 73.296875 
Q 5.609375 73.53125 5.609375 74.125 
Q 5.609375 74.46875 5.875 74.734375 
Q 6.15625 75 6.5 75 
L 7.421875 75 
Q 7.71875 75 7.90625 74.8125 
Q 15.09375 69.140625 19.875 61.03125 
Q 24.65625 52.9375 26.875 43.75 
Q 29.109375 34.578125 29.109375 25 
Q 29.109375 17.921875 27.90625 11.0625 
Q 26.703125 4.203125 24.09375 -2.453125 
Q 21.484375 -9.125 17.484375 -14.765625 
Q 13.484375 -20.40625 7.90625 -24.8125 
Q 7.71875 -25 7.421875 -25 
z
" id="Cmr10-41"/>
     </defs>
     <g transform="translate(12.183125 77.971875)rotate(-90)scale(0.1 -0.1)">
      <use transform="translate(-11.597656 5.609375)" xlink:href="#Cmmi10-126"/>
      <use transform="translate(0 0.53125)" xlink:href="#Cmmi10-122"/>
      <use transform="translate(61.191233 38.795313)scale(0.7)" xlink:href="#Cmmi10-112"/>
      <use transform="translate(102.773655 0.53125)" xlink:href="#Cmr10-40"/>
      <use transform="translate(141.592015 0.53125)" xlink:href="#Cmmi10-115"/>
      <use transform="translate(188.369358 0.53125)" xlink:href="#Cmr10-41"/>
     </g>
    </g>
   </g>
   <g id="line2d_10">
    <path clip-path="url(#p9dc67ceec7)" d="M 51.395455 33.442038 
L 53.111555 20.851107 
L 53.683588 17.561445 
L 54.255622 15.137498 
L 54.827655 13.625153 
L 55.399689 12.969533 
L 55.971722 13.004462 
L 56.543756 13.557393 
L 57.115789 14.559499 
L 57.687822 16.033602 
L 58.259856 18.041475 
L 58.831889 20.643008 
L 59.403923 23.903917 
L 60.54799 32.38764 
L 62.26409 48.519456 
L 63.98019 64.199208 
L 65.124257 72.206875 
L 66.268324 77.949189 
L 67.412391 82.049848 
L 69.128491 86.8956 
L 69.700525 88.239325 
L 70.272558 89.212955 
L 70.844592 89.53897 
L 71.416625 88.946107 
L 71.988659 87.197784 
L 72.560692 84.164621 
L 73.132725 79.84646 
L 74.276792 67.670708 
L 77.13696 30.533561 
L 77.708993 25.000089 
L 78.281027 20.937377 
L 78.85306 18.420104 
L 79.425093 17.327921 
L 79.997127 17.37606 
L 80.56916 18.217104 
L 81.713227 21.170826 
L 82.857294 24.344287 
L 84.001361 27.078938 
L 84.573394 28.756684 
L 85.145428 31.067024 
L 85.717461 34.315083 
L 86.289495 38.645454 
L 87.433562 50.208365 
L 89.721695 76.475627 
L 90.865762 85.952235 
L 91.437796 89.022794 
L 92.009829 90.758617 
L 92.581863 91.118455 
L 93.153896 90.187292 
L 93.72593 88.148048 
L 94.297963 85.227419 
L 95.44203 77.649236 
L 96.586097 69.809814 
L 97.15813 66.747607 
L 97.730164 64.7188 
L 98.302197 63.837194 
L 98.874231 64.059707 
L 99.446264 65.186431 
L 101.162364 70.428 
L 101.734398 71.474199 
L 102.306431 71.812745 
L 102.878465 71.542919 
L 103.450498 70.811041 
L 104.594565 68.877349 
L 105.166598 68.275721 
L 105.738632 68.166388 
L 106.310665 68.515905 
L 106.882699 69.198808 
L 108.026766 70.799354 
L 108.598799 71.18179 
L 109.170833 71.062293 
L 109.742866 70.397517 
L 110.886933 67.897225 
L 112.031 65.344586 
L 112.603033 64.672487 
L 113.175067 64.610002 
L 113.7471 65.149773 
L 114.319134 66.187322 
L 116.607267 71.676703 
L 117.179301 72.568349 
L 117.751334 73.060013 
L 118.323368 73.168896 
L 118.895401 72.924252 
L 119.467435 72.308023 
L 120.039468 71.305496 
L 121.183535 68.445944 
L 122.327602 65.538916 
L 122.899635 64.522532 
L 123.471669 63.9546 
L 124.043702 63.891525 
L 124.615736 64.465186 
L 125.187769 65.752462 
L 125.759803 67.708736 
L 126.903869 73.037284 
L 128.047936 78.224136 
L 128.61997 80.005773 
L 129.192003 81.068692 
L 129.764037 81.460909 
L 130.33607 81.393657 
L 131.480137 80.971106 
L 132.05217 81.03622 
L 132.624204 81.420626 
L 133.196237 82.181331 
L 134.340304 84.665458 
L 134.912338 85.880642 
L 135.484371 86.582126 
L 136.056405 86.41214 
L 136.628438 85.172351 
L 137.200471 82.879682 
L 138.344538 75.880109 
L 140.060639 64.349871 
L 140.632672 61.381528 
L 141.204706 59.026369 
L 141.776739 57.20926 
L 142.920806 54.661228 
L 144.064873 52.897184 
L 144.636906 52.30109 
L 145.20894 52.14565 
L 145.780973 52.788574 
L 146.353007 54.630465 
L 146.92504 57.976834 
L 147.497073 62.986705 
L 148.64114 77.304293 
L 150.357241 101.495577 
L 150.929274 107.580529 
L 151.501308 111.694089 
L 152.073341 113.560341 
L 152.645374 113.170072 
L 153.217408 110.759677 
L 153.789441 106.7686 
L 156.077575 87.382279 
L 156.649609 84.289573 
L 157.221642 82.470883 
L 157.793676 81.88975 
L 158.365709 82.391876 
L 158.937742 83.657663 
L 160.081809 86.696914 
L 160.653843 87.745563 
L 161.225876 88.113505 
L 161.79791 87.606622 
L 162.369943 86.196887 
L 162.941977 84.034201 
L 164.086043 78.030635 
L 165.802144 67.907992 
L 166.374177 65.376993 
L 166.946211 63.646652 
L 167.518244 62.85096 
L 168.090278 62.989493 
L 168.662311 63.973749 
L 169.234344 65.614701 
L 171.522478 74.110289 
L 172.094512 75.588527 
L 172.666545 76.595613 
L 173.238579 77.244587 
L 176.098746 79.473667 
L 176.670779 79.176437 
L 177.242813 77.835751 
L 177.814846 75.299998 
L 178.38688 71.617634 
L 179.530946 61.708579 
L 180.675013 50.974312 
L 181.247047 46.591881 
L 181.81908 43.445685 
L 182.391114 41.770109 
L 182.963147 41.654379 
L 183.535181 42.983481 
L 184.107214 45.478271 
L 186.395348 57.880395 
L 186.967381 59.601459 
L 187.539415 60.377665 
L 188.111448 60.174569 
L 188.683482 59.056912 
L 189.255515 57.232668 
L 190.399582 52.781696 
L 190.971615 51.01984 
L 191.543649 50.195433 
L 192.115682 50.671896 
L 192.687716 52.637197 
L 193.259749 56.099717 
L 193.831783 60.882962 
L 196.119916 84.182717 
L 196.69195 88.380562 
L 197.263983 91.151696 
L 197.836017 92.380222 
L 198.40805 92.17506 
L 198.980084 90.795256 
L 199.552117 88.548142 
L 200.696184 82.48075 
L 202.412284 71.674257 
L 204.700418 56.609839 
L 205.844485 50.956111 
L 206.416518 49.164591 
L 206.988552 48.329008 
L 207.560585 48.588563 
L 208.132619 49.867139 
L 208.704652 51.935665 
L 210.420753 59.424207 
L 210.992786 61.250201 
L 211.564819 62.291755 
L 212.136853 62.339226 
L 212.708886 61.3609 
L 213.28092 59.439402 
L 214.99702 51.488663 
L 215.569054 49.647454 
L 216.141087 48.695247 
L 216.71312 48.743062 
L 217.285154 49.761578 
L 217.857187 51.656859 
L 220.145321 61.434553 
L 220.717355 63.000831 
L 221.289388 63.962655 
L 221.861421 64.348413 
L 222.433455 64.145844 
L 223.005488 63.422102 
L 223.577522 62.344526 
L 224.721589 59.332247 
L 225.865656 55.963342 
L 226.437689 54.649064 
L 227.009722 53.814491 
L 227.581756 53.569071 
L 228.153789 53.942247 
L 228.725823 54.89784 
L 229.297856 56.319704 
L 230.441923 59.949878 
L 233.30209 70.325599 
L 234.446157 75.449106 
L 235.590224 82.107546 
L 236.734291 90.415668 
L 239.022425 108.530968 
L 239.594458 111.890363 
L 240.166492 114.076294 
L 240.738525 114.919001 
L 241.310559 114.332566 
L 241.882592 112.276598 
L 242.454626 108.860016 
L 243.598692 99.134686 
L 244.742759 88.865705 
L 245.314793 84.88625 
L 245.886826 82.127247 
L 246.45886 80.64161 
L 247.030893 80.320599 
L 247.602927 80.978147 
L 248.17496 82.376551 
L 249.89106 87.415436 
L 250.463094 88.233295 
L 251.035127 88.112506 
L 251.607161 86.858846 
L 252.179194 84.413161 
L 252.751228 80.831854 
L 253.895294 71.338757 
L 255.611395 55.723605 
L 256.183428 51.283614 
L 256.755462 47.830214 
L 257.327495 45.627584 
L 257.899529 44.808814 
L 258.471562 45.43014 
L 259.043595 47.396135 
L 259.615629 50.555158 
L 260.759696 59.284866 
L 262.475796 72.941448 
L 263.04783 76.466643 
L 263.619863 79.274022 
L 264.191896 81.392774 
L 264.76393 82.98061 
L 265.335963 84.147584 
L 265.907997 84.995102 
L 266.48003 85.557975 
L 267.052064 85.907434 
L 268.196131 86.186745 
L 269.340197 86.30794 
L 269.912231 86.632757 
L 270.484264 87.283012 
L 271.056298 88.327864 
L 272.772398 92.312948 
L 273.344432 92.600031 
L 273.916465 91.736843 
L 274.488498 89.531158 
L 275.060532 85.956562 
L 276.204599 75.717074 
L 277.920699 59.249644 
L 278.492733 55.500965 
L 279.064766 53.2228 
L 279.6368 52.554636 
L 280.208833 53.523352 
L 280.780866 55.987303 
L 281.924933 63.91634 
L 283.069 72.51461 
L 283.641034 76.102822 
L 284.213067 78.962249 
L 284.785101 81.036625 
L 285.357134 82.386009 
L 285.929167 83.198257 
L 286.501201 83.622463 
L 287.073234 83.768084 
L 287.645268 83.687629 
L 288.217301 83.38706 
L 288.789335 82.888072 
L 289.361368 82.214991 
L 290.505435 80.319717 
L 291.649502 77.524878 
L 295.081703 67.542081 
L 295.653736 66.499831 
L 296.225769 65.801581 
L 296.797803 65.415372 
L 297.369836 65.281796 
L 297.94187 65.433257 
L 298.513903 65.960172 
L 299.085937 66.959001 
L 299.65797 68.416612 
L 300.802037 72.219005 
L 301.946104 76.187089 
L 302.518137 77.484814 
L 303.090171 77.875256 
L 303.662204 77.170362 
L 304.234238 75.215078 
L 304.806271 71.886356 
L 305.378305 67.216199 
L 306.522371 54.844342 
L 308.238472 35.312056 
L 308.810505 30.283067 
L 309.382539 26.534642 
L 309.954572 24.173514 
L 310.526606 23.158792 
L 311.098639 23.328953 
L 311.670672 24.515237 
L 312.242706 26.466569 
L 313.386773 31.742102 
L 316.24694 47.194275 
L 317.96304 56.278403 
L 319.107107 60.941131 
L 321.967275 70.653789 
L 323.111341 76.15775 
L 324.255408 81.840744 
L 324.827442 84.154113 
L 325.399475 85.749862 
L 325.971509 86.377658 
L 326.543542 85.910961 
L 327.115576 84.301321 
L 327.687609 81.676614 
L 328.831676 74.670665 
L 330.547776 64.189882 
L 333.407943 49.642645 
L 335.124044 37.763855 
L 336.268111 30.331508 
L 336.840144 27.645228 
L 337.412178 26.024323 
L 337.984211 25.627994 
L 338.556244 26.457537 
L 339.128278 28.344097 
L 340.272345 34.143196 
L 341.416412 39.748067 
L 341.988445 41.238011 
L 342.560479 41.338676 
L 343.132512 39.945132 
L 343.704545 37.202251 
L 343.704545 37.202251 
" style="fill:none;stroke:#2ca02c;stroke-linecap:square;stroke-width:0.75;"/>
   </g>
   <g id="line2d_11">
    <path clip-path="url(#p9dc67ceec7)" d="M 51.395455 56.083251 
L 51.967488 57.964049 
L 53.111555 63.787675 
L 53.683588 66.807406 
L 54.255622 69.19398 
L 54.827655 70.450575 
L 55.399689 70.227362 
L 55.971722 68.44973 
L 56.543756 65.240238 
L 57.687822 56.240292 
L 58.831889 47.921567 
L 59.403923 45.661968 
L 59.975956 45.27482 
L 60.54799 46.836993 
L 61.120023 50.110082 
L 62.26409 59.933131 
L 63.408157 70.325262 
L 63.98019 74.25003 
L 64.552224 76.764962 
L 65.124257 77.752015 
L 65.696291 77.427394 
L 66.268324 76.106083 
L 66.840358 74.082931 
L 67.984424 68.843802 
L 70.272558 57.982396 
L 71.416625 53.540315 
L 72.560692 50.025025 
L 73.132725 48.730185 
L 73.704759 47.980071 
L 74.276792 47.925615 
L 74.848826 48.670341 
L 75.420859 50.176062 
L 75.992893 52.407602 
L 77.13696 58.52602 
L 79.425093 72.300098 
L 79.997127 74.880885 
L 80.56916 76.792489 
L 81.141194 78.010228 
L 81.713227 78.570039 
L 82.285261 78.551178 
L 82.857294 77.959105 
L 83.429328 76.715257 
L 84.001361 74.869924 
L 87.433562 61.817749 
L 88.005595 60.638958 
L 88.577629 60.000027 
L 89.149662 59.7714 
L 89.721695 59.853118 
L 90.293729 60.231467 
L 90.865762 60.938919 
L 91.437796 62.0789 
L 92.009829 63.772696 
L 93.153896 68.682038 
L 94.297963 74.200819 
L 94.869996 76.265332 
L 95.44203 77.406142 
L 96.014063 77.348456 
L 96.586097 75.97116 
L 97.15813 73.247816 
L 97.730164 69.332448 
L 99.446264 55.271662 
L 100.018297 51.878019 
L 100.590331 49.865875 
L 101.162364 49.247333 
L 101.734398 49.808731 
L 102.306431 51.159313 
L 104.594565 57.880095 
L 105.166598 59.035112 
L 105.738632 59.849226 
L 106.310665 60.253154 
L 106.882699 60.286949 
L 107.454732 59.983789 
L 108.026766 59.391592 
L 108.598799 58.557208 
L 109.742866 56.172702 
L 110.886933 53.636997 
L 111.458966 52.789901 
L 112.031 52.504683 
L 112.603033 52.864168 
L 113.175067 53.819969 
L 114.319134 56.77551 
L 115.4632 59.812224 
L 116.035234 61.029531 
L 116.607267 61.951636 
L 117.179301 62.536513 
L 117.751334 62.657818 
L 118.323368 62.154419 
L 118.895401 61.01405 
L 119.467435 59.334049 
L 120.611502 54.879305 
L 121.755568 50.051007 
L 122.327602 47.993293 
L 122.899635 46.527427 
L 123.471669 45.859119 
L 124.043702 46.000987 
L 124.615736 46.861587 
L 125.187769 48.358219 
L 126.331836 52.885688 
L 129.192003 65.80522 
L 129.764037 67.65362 
L 130.33607 68.79155 
L 130.908104 69.056526 
L 131.480137 68.319969 
L 132.05217 66.553436 
L 132.624204 63.837537 
L 133.768271 56.361464 
L 134.912338 48.934594 
L 135.484371 46.469025 
L 136.056405 45.25236 
L 136.628438 45.308182 
L 137.200471 46.425261 
L 137.772505 48.361836 
L 138.916572 53.118547 
L 139.488605 55.005992 
L 140.060639 55.968739 
L 140.632672 55.703595 
L 141.204706 54.136289 
L 141.776739 51.478043 
L 143.492839 41.334296 
L 144.064873 39.383246 
L 144.636906 39.18826 
L 145.20894 41.124937 
L 145.780973 45.255253 
L 146.353007 51.342258 
L 149.213174 87.831616 
L 149.785207 91.881823 
L 150.357241 94.168732 
L 150.929274 94.88139 
L 151.501308 94.374018 
L 153.217408 90.534419 
L 153.789441 89.849377 
L 154.361475 89.734835 
L 154.933508 90.138448 
L 155.505542 90.983522 
L 157.221642 94.318616 
L 157.793676 94.911079 
L 158.365709 94.912749 
L 158.937742 94.264522 
L 159.509776 93.052875 
L 162.369943 85.132857 
L 162.941977 84.28957 
L 163.51401 83.736427 
L 164.658077 83.217679 
L 165.802144 82.68349 
L 166.374177 82.169372 
L 166.946211 81.216733 
L 167.518244 79.651667 
L 168.662311 74.870557 
L 169.806378 69.457914 
L 170.378411 67.224478 
L 170.950445 65.574539 
L 171.522478 64.64951 
L 172.094512 64.520554 
L 172.666545 65.141649 
L 173.238579 66.357972 
L 174.954679 70.778279 
L 175.526712 71.688591 
L 176.098746 72.128467 
L 176.670779 72.1115 
L 177.242813 71.676908 
L 177.814846 70.891246 
L 178.958913 68.615872 
L 180.10298 66.19848 
L 180.675013 65.185195 
L 181.247047 64.548197 
L 181.81908 64.49603 
L 182.391114 65.093678 
L 182.963147 66.31749 
L 183.535181 68.147478 
L 186.395348 79.526289 
L 187.539415 82.20649 
L 188.111448 83.137321 
L 188.683482 83.786352 
L 189.255515 84.143107 
L 189.827548 84.192302 
L 190.399582 83.786268 
L 190.971615 82.767864 
L 191.543649 81.051446 
L 192.115682 78.654364 
L 194.403816 66.61982 
L 194.975849 64.572475 
L 195.547883 63.407757 
L 196.119916 63.232623 
L 196.69195 64.057149 
L 197.263983 65.75959 
L 198.40805 70.624807 
L 200.696184 80.942879 
L 204.128385 95.096293 
L 204.700418 96.740311 
L 205.272452 97.96023 
L 205.844485 98.713657 
L 206.416518 98.986265 
L 206.988552 98.766288 
L 207.560585 98.046102 
L 208.132619 96.766788 
L 208.704652 94.862918 
L 209.276686 92.32238 
L 210.420753 85.569504 
L 211.564819 77.063337 
L 212.708886 68.41608 
L 213.28092 65.159949 
L 213.852953 63.092386 
L 214.424987 62.348268 
L 214.99702 62.875885 
L 215.569054 64.518102 
L 216.71312 69.846118 
L 217.285154 72.663126 
L 217.857187 74.85834 
L 218.429221 76.048623 
L 219.001254 76.073392 
L 219.573288 74.955025 
L 220.145321 72.913732 
L 221.289388 67.861307 
L 221.861421 65.894875 
L 222.433455 64.962021 
L 223.005488 65.414812 
L 223.577522 67.375654 
L 224.149555 70.795509 
L 225.293622 80.795664 
L 226.437689 91.841013 
L 227.581756 100.648312 
L 228.153789 103.766987 
L 228.725823 105.931811 
L 229.297856 107.146662 
L 229.86989 107.502864 
L 230.441923 107.059811 
L 231.013957 105.837031 
L 231.58599 103.854266 
L 232.158023 101.203226 
L 233.30209 94.20382 
L 234.446157 85.266375 
L 236.734291 66.51586 
L 237.878358 58.483364 
L 239.022425 51.830582 
L 240.166492 46.502452 
L 240.738525 44.436191 
L 241.310559 42.975181 
L 241.882592 42.198742 
L 242.454626 42.025936 
L 243.026659 42.303082 
L 244.742759 43.945253 
L 245.314793 43.996004 
L 245.886826 43.486491 
L 246.45886 42.329445 
L 247.030893 40.480339 
L 248.17496 35.209142 
L 249.319027 30.232969 
L 249.89106 28.967047 
L 250.463094 28.974856 
L 251.035127 30.386641 
L 251.607161 33.217453 
L 252.179194 37.372595 
L 254.467328 57.512805 
L 255.039361 60.49185 
L 255.611395 61.710142 
L 256.183428 61.102783 
L 256.755462 58.851172 
L 257.327495 55.358763 
L 259.043595 43.115155 
L 259.615629 40.477464 
L 260.187662 39.343832 
L 260.759696 39.867861 
L 261.331729 42.003816 
L 261.903763 45.50903 
L 263.04783 54.979663 
L 264.191896 64.825113 
L 265.335963 72.566943 
L 266.48003 77.835588 
L 267.624097 81.295308 
L 268.196131 82.558768 
L 268.768164 83.489755 
L 269.340197 84.050908 
L 269.912231 84.134881 
L 270.484264 83.680977 
L 271.056298 82.680879 
L 272.200365 79.451108 
L 273.344432 75.853552 
L 273.916465 74.56692 
L 274.488498 73.914392 
L 275.060532 74.046084 
L 275.632565 74.962176 
L 276.204599 76.560017 
L 278.492733 84.831117 
L 279.064766 86.136897 
L 279.6368 86.904439 
L 280.208833 87.053717 
L 280.780866 86.539751 
L 281.3529 85.45606 
L 282.496967 82.333531 
L 284.785101 75.051484 
L 285.929167 71.401727 
L 287.645268 66.929704 
L 288.789335 63.793933 
L 289.933402 59.651773 
L 292.221535 49.641574 
L 292.793569 47.984422 
L 293.365602 47.135157 
L 293.937636 47.175867 
L 294.509669 48.14245 
L 295.081703 49.944377 
L 296.797803 56.997892 
L 297.369836 58.500072 
L 297.94187 58.92011 
L 298.513903 58.025743 
L 299.085937 55.751247 
L 299.65797 52.298726 
L 301.946104 36.078311 
L 302.518137 33.767383 
L 303.090171 32.681685 
L 303.662204 32.848713 
L 304.234238 34.187001 
L 304.806271 36.507676 
L 305.950338 43.024671 
L 307.666438 53.096608 
L 308.810505 58.068299 
L 309.954572 61.636073 
L 311.670672 66.19088 
L 312.242706 68.063439 
L 312.814739 70.360771 
L 313.958806 76.280027 
L 315.674907 87.267773 
L 318.535074 106.270986 
L 319.679141 112.556953 
L 320.823208 117.167095 
L 321.395241 118.663178 
L 321.967275 119.377591 
L 322.539308 119.153414 
L 323.111341 117.878576 
L 323.683375 115.490211 
L 324.255408 111.948414 
L 325.399475 101.822026 
L 328.259642 72.520562 
L 328.831676 68.703309 
L 329.403709 66.1736 
L 329.975743 64.971673 
L 330.547776 65.048727 
L 331.11981 66.269931 
L 331.691843 68.470292 
L 332.83591 74.898913 
L 335.124044 89.202161 
L 335.696077 91.676385 
L 336.268111 93.323714 
L 336.840144 94.010348 
L 337.412178 93.644251 
L 337.984211 92.181386 
L 338.556244 89.635512 
L 339.128278 86.09175 
L 340.272345 76.841063 
L 341.988445 62.096373 
L 342.560479 58.52341 
L 343.132512 56.255691 
L 343.704545 55.448925 
L 343.704545 55.448925 
" style="fill:none;stroke:#2ca02c;stroke-dasharray:0.75,1.2375;stroke-dashoffset:0;stroke-width:0.75;"/>
   </g>
   <g id="patch_3">
    <path d="M 36.78 131.46375 
L 36.78 1.68 
" style="fill:none;stroke:#000000;stroke-linecap:square;stroke-linejoin:miter;stroke-width:0.5;"/>
   </g>
   <g id="patch_4">
    <path d="M 358.32 131.46375 
L 358.32 1.68 
" style="fill:none;stroke:#000000;stroke-linecap:square;stroke-linejoin:miter;stroke-width:0.5;"/>
   </g>
   <g id="patch_5">
    <path d="M 36.78 131.46375 
L 358.32 131.46375 
" style="fill:none;stroke:#000000;stroke-linecap:square;stroke-linejoin:miter;stroke-width:0.5;"/>
   </g>
   <g id="patch_6">
    <path d="M 36.78 1.68 
L 358.32 1.68 
" style="fill:none;stroke:#000000;stroke-linecap:square;stroke-linejoin:miter;stroke-width:0.5;"/>
   </g>
   <g id="legend_1">
    <g id="line2d_12">
     <path d="M 150.03 11.68 
L 166.03 11.68 
" style="fill:none;stroke:#2ca02c;stroke-linecap:square;stroke-width:0.75;"/>
    </g>
    <g id="line2d_13"/>
    <g id="text_11">
     <!-- $p=1$ -->
     <defs>
      <path d="M 7.515625 13.28125 
Q 6.6875 13.28125 6.140625 13.90625 
Q 5.609375 14.546875 5.609375 15.28125 
Q 5.609375 16.109375 6.140625 16.6875 
Q 6.6875 17.28125 7.515625 17.28125 
L 70.3125 17.28125 
Q 71.046875 17.28125 71.578125 16.6875 
Q 72.125 16.109375 72.125 15.28125 
Q 72.125 14.546875 71.578125 13.90625 
Q 71.046875 13.28125 70.3125 13.28125 
z
M 7.515625 32.71875 
Q 6.6875 32.71875 6.140625 33.296875 
Q 5.609375 33.890625 5.609375 34.71875 
Q 5.609375 35.453125 6.140625 36.078125 
Q 6.6875 36.71875 7.515625 36.71875 
L 70.3125 36.71875 
Q 71.046875 36.71875 71.578125 36.078125 
Q 72.125 35.453125 72.125 34.71875 
Q 72.125 33.890625 71.578125 33.296875 
Q 71.046875 32.71875 70.3125 32.71875 
z
" id="Cmr10-61"/>
      <path d="M 9.28125 0 
L 9.28125 3.515625 
Q 21.78125 3.515625 21.78125 6.6875 
L 21.78125 59.1875 
Q 16.609375 56.6875 8.6875 56.6875 
L 8.6875 60.203125 
Q 20.953125 60.203125 27.203125 66.609375 
L 28.609375 66.609375 
Q 28.953125 66.609375 29.265625 66.328125 
Q 29.59375 66.0625 29.59375 65.71875 
L 29.59375 6.6875 
Q 29.59375 3.515625 42.09375 3.515625 
L 42.09375 0 
z
" id="Cmr10-49"/>
     </defs>
     <g transform="translate(172.43 14.48)scale(0.08 -0.08)">
      <use transform="translate(0 0.390625)" xlink:href="#Cmmi10-112"/>
      <use transform="translate(67.851562 0.390625)" xlink:href="#Cmr10-61"/>
      <use transform="translate(163.095703 0.390625)" xlink:href="#Cmr10-49"/>
     </g>
    </g>
    <g id="line2d_14">
     <path d="M 205.55 11.68 
L 221.55 11.68 
" style="fill:none;stroke:#2ca02c;stroke-dasharray:0.75,1.2375;stroke-dashoffset:0;stroke-width:0.75;"/>
    </g>
    <g id="line2d_15"/>
    <g id="text_12">
     <!-- $p=2$ -->
     <defs>
      <path d="M 4.984375 0 
L 4.984375 2.6875 
Q 4.984375 2.9375 5.171875 3.21875 
L 20.703125 20.40625 
Q 24.21875 24.21875 26.40625 26.796875 
Q 28.609375 29.390625 30.75 32.765625 
Q 32.90625 36.140625 34.15625 39.625 
Q 35.40625 43.109375 35.40625 47.015625 
Q 35.40625 51.125 33.890625 54.859375 
Q 32.375 58.59375 29.375 60.84375 
Q 26.375 63.09375 22.125 63.09375 
Q 17.78125 63.09375 14.3125 60.46875 
Q 10.84375 57.859375 9.421875 53.71875 
Q 9.8125 53.8125 10.5 53.8125 
Q 12.75 53.8125 14.328125 52.296875 
Q 15.921875 50.78125 15.921875 48.390625 
Q 15.921875 46.09375 14.328125 44.5 
Q 12.75 42.921875 10.5 42.921875 
Q 8.15625 42.921875 6.5625 44.546875 
Q 4.984375 46.1875 4.984375 48.390625 
Q 4.984375 52.15625 6.390625 55.4375 
Q 7.8125 58.734375 10.46875 61.296875 
Q 13.140625 63.875 16.484375 65.234375 
Q 19.828125 66.609375 23.578125 66.609375 
Q 29.296875 66.609375 34.21875 64.1875 
Q 39.15625 61.765625 42.03125 57.34375 
Q 44.921875 52.9375 44.921875 47.015625 
Q 44.921875 42.671875 43.015625 38.765625 
Q 41.109375 34.859375 38.125 31.65625 
Q 35.15625 28.46875 30.515625 24.40625 
Q 25.875 20.359375 24.421875 19 
L 13.09375 8.109375 
L 22.703125 8.109375 
Q 29.78125 8.109375 34.546875 8.21875 
Q 39.3125 8.34375 39.59375 8.59375 
Q 40.765625 9.859375 42 17.828125 
L 44.921875 17.828125 
L 42.09375 0 
z
" id="Cmr10-50"/>
     </defs>
     <g transform="translate(227.95 14.48)scale(0.08 -0.08)">
      <use transform="translate(0 0.390625)" xlink:href="#Cmmi10-112"/>
      <use transform="translate(67.851562 0.390625)" xlink:href="#Cmr10-61"/>
      <use transform="translate(163.095703 0.390625)" xlink:href="#Cmr10-50"/>
     </g>
    </g>
   </g>
  </g>
  <g id="axes_2">
   <g id="patch_7">
    <path d="M 36.78 264.6075 
L 358.32 264.6075 
L 358.32 134.82375 
L 36.78 134.82375 
z
" style="fill:#ffffff;"/>
   </g>
   <g id="matplotlib.axis_3">
    <g id="xtick_1">
     <g id="line2d_16">
      <defs>
       <path d="M 0 0 
L 0 3.5 
" id="m4f1d4870d9" style="stroke:#000000;stroke-width:0.8;"/>
      </defs>
      <g>
       <use style="stroke:#000000;stroke-width:0.8;" x="51.395455" xlink:href="#m4f1d4870d9" y="264.6075"/>
      </g>
     </g>
     <g id="text_13">
      <!-- 0.0 -->
      <g transform="translate(47.32483 275.771875)scale(0.06 -0.06)">
       <use xlink:href="#LMRoman8-Regular-48"/>
       <use x="53.099991" xlink:href="#LMRoman8-Regular-46"/>
       <use x="82.599976" xlink:href="#LMRoman8-Regular-48"/>
      </g>
     </g>
    </g>
    <g id="xtick_2">
     <g id="line2d_17">
      <g>
       <use style="stroke:#000000;stroke-width:0.8;" x="109.857273" xlink:href="#m4f1d4870d9" y="264.6075"/>
      </g>
     </g>
     <g id="text_14">
      <!-- 0.2 -->
      <g transform="translate(105.786648 275.771875)scale(0.06 -0.06)">
       <use xlink:href="#LMRoman8-Regular-48"/>
       <use x="53.099991" xlink:href="#LMRoman8-Regular-46"/>
       <use x="82.599976" xlink:href="#LMRoman8-Regular-50"/>
      </g>
     </g>
    </g>
    <g id="xtick_3">
     <g id="line2d_18">
      <g>
       <use style="stroke:#000000;stroke-width:0.8;" x="168.319091" xlink:href="#m4f1d4870d9" y="264.6075"/>
      </g>
     </g>
     <g id="text_15">
      <!-- 0.4 -->
      <g transform="translate(164.248466 275.771875)scale(0.06 -0.06)">
       <use xlink:href="#LMRoman8-Regular-48"/>
       <use x="53.099991" xlink:href="#LMRoman8-Regular-46"/>
       <use x="82.599976" xlink:href="#LMRoman8-Regular-52"/>
      </g>
     </g>
    </g>
    <g id="xtick_4">
     <g id="line2d_19">
      <g>
       <use style="stroke:#000000;stroke-width:0.8;" x="226.780909" xlink:href="#m4f1d4870d9" y="264.6075"/>
      </g>
     </g>
     <g id="text_16">
      <!-- 0.6 -->
      <g transform="translate(222.710284 275.771875)scale(0.06 -0.06)">
       <use xlink:href="#LMRoman8-Regular-48"/>
       <use x="53.099991" xlink:href="#LMRoman8-Regular-46"/>
       <use x="82.599976" xlink:href="#LMRoman8-Regular-54"/>
      </g>
     </g>
    </g>
    <g id="xtick_5">
     <g id="line2d_20">
      <g>
       <use style="stroke:#000000;stroke-width:0.8;" x="285.242727" xlink:href="#m4f1d4870d9" y="264.6075"/>
      </g>
     </g>
     <g id="text_17">
      <!-- 0.8 -->
      <g transform="translate(281.172102 275.771875)scale(0.06 -0.06)">
       <use xlink:href="#LMRoman8-Regular-48"/>
       <use x="53.099991" xlink:href="#LMRoman8-Regular-46"/>
       <use x="82.599976" xlink:href="#LMRoman8-Regular-56"/>
      </g>
     </g>
    </g>
    <g id="xtick_6">
     <g id="line2d_21">
      <g>
       <use style="stroke:#000000;stroke-width:0.8;" x="343.704545" xlink:href="#m4f1d4870d9" y="264.6075"/>
      </g>
     </g>
     <g id="text_18">
      <!-- 1.0 -->
      <defs>
       <path d="M 44.703125 0 
L 44.703125 3.296875 
L 41.203125 3.296875 
C 31.703125 3.296875 31.40625 4.5 31.40625 8.203125 
L 31.40625 63.703125 
C 31.40625 66.40625 31.203125 66.5 28.5 66.5 
C 24.40625 62.5 19.09375 60.09375 9.59375 60.09375 
L 9.59375 56.796875 
C 12.296875 56.796875 17.703125 56.796875 23.5 59.5 
L 23.5 8.203125 
C 23.5 4.5 23.203125 3.296875 13.703125 3.296875 
L 10.203125 3.296875 
L 10.203125 0 
C 14.296875 0.296875 22.90625 0.296875 27.40625 0.296875 
C 31.90625 0.296875 40.59375 0.296875 44.703125 0 
z
" id="LMRoman8-Regular-49"/>
      </defs>
      <g transform="translate(339.63392 275.771875)scale(0.06 -0.06)">
       <use xlink:href="#LMRoman8-Regular-49"/>
       <use x="53.099991" xlink:href="#LMRoman8-Regular-46"/>
       <use x="82.599976" xlink:href="#LMRoman8-Regular-48"/>
      </g>
     </g>
    </g>
    <g id="text_19">
     <!-- $s$ -->
     <g transform="translate(195.2 285.876875)scale(0.1 -0.1)">
      <use transform="translate(0 0.8125)" xlink:href="#Cmmi10-115"/>
     </g>
    </g>
   </g>
   <g id="matplotlib.axis_4">
    <g id="ytick_10">
     <g id="line2d_22">
      <g>
       <use style="stroke:#000000;stroke-width:0.8;" x="36.78" xlink:href="#mb60dc88c52" y="258.708239"/>
      </g>
     </g>
     <g id="text_20">
      <!-- 0.0 -->
      <g transform="translate(21.63875 260.790426)scale(0.06 -0.06)">
       <use xlink:href="#LMRoman8-Regular-48"/>
       <use x="53.099991" xlink:href="#LMRoman8-Regular-46"/>
       <use x="82.599976" xlink:href="#LMRoman8-Regular-48"/>
      </g>
     </g>
    </g>
    <g id="ytick_11">
     <g id="line2d_23">
      <g>
       <use style="stroke:#000000;stroke-width:0.8;" x="36.78" xlink:href="#mb60dc88c52" y="235.111193"/>
      </g>
     </g>
     <g id="text_21">
      <!-- 0.2 -->
      <g transform="translate(21.63875 237.193381)scale(0.06 -0.06)">
       <use xlink:href="#LMRoman8-Regular-48"/>
       <use x="53.099991" xlink:href="#LMRoman8-Regular-46"/>
       <use x="82.599976" xlink:href="#LMRoman8-Regular-50"/>
      </g>
     </g>
    </g>
    <g id="ytick_12">
     <g id="line2d_24">
      <g>
       <use style="stroke:#000000;stroke-width:0.8;" x="36.78" xlink:href="#mb60dc88c52" y="211.514148"/>
      </g>
     </g>
     <g id="text_22">
      <!-- 0.4 -->
      <g transform="translate(21.63875 213.596335)scale(0.06 -0.06)">
       <use xlink:href="#LMRoman8-Regular-48"/>
       <use x="53.099991" xlink:href="#LMRoman8-Regular-46"/>
       <use x="82.599976" xlink:href="#LMRoman8-Regular-52"/>
      </g>
     </g>
    </g>
    <g id="ytick_13">
     <g id="line2d_25">
      <g>
       <use style="stroke:#000000;stroke-width:0.8;" x="36.78" xlink:href="#mb60dc88c52" y="187.917102"/>
      </g>
     </g>
     <g id="text_23">
      <!-- 0.6 -->
      <g transform="translate(21.63875 189.99929)scale(0.06 -0.06)">
       <use xlink:href="#LMRoman8-Regular-48"/>
       <use x="53.099991" xlink:href="#LMRoman8-Regular-46"/>
       <use x="82.599976" xlink:href="#LMRoman8-Regular-54"/>
      </g>
     </g>
    </g>
    <g id="ytick_14">
     <g id="line2d_26">
      <g>
       <use style="stroke:#000000;stroke-width:0.8;" x="36.78" xlink:href="#mb60dc88c52" y="164.320057"/>
      </g>
     </g>
     <g id="text_24">
      <!-- 0.8 -->
      <g transform="translate(21.63875 166.402244)scale(0.06 -0.06)">
       <use xlink:href="#LMRoman8-Regular-48"/>
       <use x="53.099991" xlink:href="#LMRoman8-Regular-46"/>
       <use x="82.599976" xlink:href="#LMRoman8-Regular-56"/>
      </g>
     </g>
    </g>
    <g id="ytick_15">
     <g id="line2d_27">
      <g>
       <use style="stroke:#000000;stroke-width:0.8;" x="36.78" xlink:href="#mb60dc88c52" y="140.723011"/>
      </g>
     </g>
     <g id="text_25">
      <!-- 1.0 -->
      <g transform="translate(21.63875 142.805199)scale(0.06 -0.06)">
       <use xlink:href="#LMRoman8-Regular-49"/>
       <use x="53.099991" xlink:href="#LMRoman8-Regular-46"/>
       <use x="82.599976" xlink:href="#LMRoman8-Regular-48"/>
      </g>
     </g>
    </g>
    <g id="text_26">
     <!-- $\phi_b(s)$ -->
     <defs>
      <path d="M 19.390625 -19.484375 
L 23.875 -1.421875 
Q 18.796875 -1.421875 14.40625 0.953125 
Q 10.015625 3.328125 7.34375 7.5625 
Q 4.6875 11.8125 4.6875 16.796875 
Q 4.6875 22.21875 7.375 27.140625 
Q 10.0625 32.078125 14.71875 36.109375 
Q 19.390625 40.140625 24.75 42.3125 
Q 30.125 44.484375 35.40625 44.484375 
L 41.40625 68.796875 
Q 41.609375 69.390625 42.1875 69.390625 
L 43.40625 69.390625 
Q 43.796875 69.390625 44.03125 69.046875 
Q 44.28125 68.703125 44.28125 68.40625 
L 38.28125 44.484375 
Q 42.046875 44.484375 45.5625 43.109375 
Q 49.078125 41.75 51.78125 39.28125 
Q 54.5 36.8125 56 33.46875 
Q 57.515625 30.125 57.515625 26.3125 
Q 57.515625 20.90625 54.828125 15.96875 
Q 52.15625 11.03125 47.609375 7.078125 
Q 43.0625 3.125 37.46875 0.84375 
Q 31.890625 -1.421875 26.8125 -1.421875 
L 22.21875 -19.921875 
Q 22.015625 -20.515625 21.390625 -20.515625 
L 20.21875 -20.515625 
Q 19.828125 -20.515625 19.609375 -20.140625 
Q 19.390625 -19.78125 19.390625 -19.484375 
z
M 24.515625 1.21875 
L 34.71875 41.890625 
Q 32.171875 41.890625 29.390625 40.859375 
Q 26.609375 39.84375 24.140625 38.28125 
Q 21.6875 36.71875 19.671875 34.71875 
Q 17.234375 32.28125 15.375 28.953125 
Q 13.53125 25.640625 12.578125 21.953125 
Q 11.625 18.265625 11.625 14.703125 
Q 11.625 10.9375 13.234375 7.859375 
Q 14.84375 4.78125 17.765625 3 
Q 20.703125 1.21875 24.515625 1.21875 
z
M 27.484375 1.21875 
Q 31.25 1.21875 35.5 3.359375 
Q 39.75 5.515625 42.484375 8.40625 
Q 46.234375 12.109375 48.40625 17.5 
Q 50.59375 22.90625 50.59375 28.421875 
Q 50.59375 32.125 48.96875 35.21875 
Q 47.359375 38.328125 44.421875 40.109375 
Q 41.5 41.890625 37.703125 41.890625 
z
" id="Cmmi10-193"/>
      <path d="M 17.28125 -1.125 
Q 11.234375 -1.125 7.859375 3.609375 
Q 4.5 8.34375 4.5 14.703125 
Q 4.5 15.625 4.953125 18.328125 
Q 5.421875 21.046875 5.421875 21.6875 
L 15.09375 60.5 
Q 15.484375 62.203125 15.578125 63.1875 
Q 15.578125 64.796875 9.078125 64.796875 
Q 8.109375 64.796875 8.109375 66.109375 
Q 8.15625 66.359375 8.328125 66.984375 
Q 8.5 67.625 8.765625 67.96875 
Q 9.03125 68.3125 9.515625 68.3125 
L 23 69.390625 
Q 24.21875 69.390625 24.21875 68.109375 
L 16.796875 38.625 
Q 22.46875 44.1875 28.21875 44.1875 
Q 32.46875 44.1875 35.515625 41.9375 
Q 38.578125 39.703125 40.09375 36.03125 
Q 41.609375 32.375 41.609375 28.21875 
Q 41.609375 23.390625 39.71875 18.234375 
Q 37.84375 13.09375 34.515625 8.671875 
Q 31.203125 4.25 26.75 1.5625 
Q 22.3125 -1.125 17.28125 -1.125 
z
M 17.484375 1.515625 
Q 20.90625 1.515625 23.875 4.375 
Q 26.859375 7.234375 28.71875 10.796875 
Q 30.71875 14.796875 32.453125 21.65625 
Q 34.1875 28.515625 34.1875 32.625 
Q 34.1875 36.1875 32.6875 38.890625 
Q 31.203125 41.609375 27.984375 41.609375 
Q 24.359375 41.609375 21.0625 38.9375 
Q 17.78125 36.28125 15.28125 32.625 
L 12.5 21.296875 
Q 10.890625 14.984375 10.796875 11.1875 
Q 10.796875 7.421875 12.421875 4.46875 
Q 14.0625 1.515625 17.484375 1.515625 
z
" id="Cmmi10-98"/>
     </defs>
     <g transform="translate(17.13875 210.765625)rotate(-90)scale(0.1 -0.1)">
      <use xlink:href="#Cmmi10-193"/>
      <use transform="translate(59.521484 -17.00625)scale(0.7)" xlink:href="#Cmmi10-98"/>
      <use transform="translate(95.942773 0)" xlink:href="#Cmr10-40"/>
      <use transform="translate(134.761133 0)" xlink:href="#Cmmi10-115"/>
      <use transform="translate(181.538477 0)" xlink:href="#Cmr10-41"/>
     </g>
    </g>
   </g>
   <g id="line2d_28">
    <path clip-path="url(#pc5ed18d6f1)" d="M 51.395455 140.723011 
L 51.967488 140.723011 
L 52.539521 140.723011 
L 53.111555 140.723011 
L 53.683588 140.723011 
L 54.255622 140.723011 
L 54.827655 140.723011 
L 55.399689 140.723011 
L 55.971722 140.723011 
L 56.543756 140.723011 
L 57.115789 140.723011 
L 57.687822 140.723011 
L 58.259856 140.723011 
L 58.831889 140.723011 
L 59.403923 140.723011 
L 59.975956 140.723011 
L 60.54799 140.723011 
L 61.120023 140.72378 
L 61.692057 140.735582 
L 62.26409 140.792798 
L 62.836123 140.965415 
L 63.408157 141.366176 
L 63.98019 142.152665 
L 64.552224 143.523103 
L 65.124257 145.703534 
L 65.696291 148.922092 
L 66.268324 153.370683 
L 66.840358 159.168868 
L 67.412391 166.337035 
L 67.984424 174.779153 
L 68.556458 184.275101 
L 69.128491 194.48259 
L 69.700525 204.94866 
L 70.272558 215.156149 
L 70.844592 224.652097 
L 71.416625 233.094215 
L 71.988659 240.262382 
L 72.560692 246.060567 
L 73.132725 250.509158 
L 73.704759 253.727716 
L 74.276792 255.908147 
L 74.848826 257.278585 
L 75.420859 258.065074 
L 75.992893 258.465835 
L 76.564926 258.638452 
L 77.13696 258.695668 
L 77.708993 258.70747 
L 78.281027 258.708239 
" style="fill:none;stroke:#1f77b4;stroke-linecap:square;stroke-width:0.75;"/>
   </g>
   <g id="line2d_29">
    <path clip-path="url(#pc5ed18d6f1)" d="M 316.818973 258.708239 
L 317.391007 258.70747 
L 317.96304 258.695668 
L 318.535074 258.638452 
L 319.107107 258.465835 
L 319.679141 258.065074 
L 320.251174 257.278585 
L 320.823208 255.908147 
L 321.395241 253.727716 
L 321.967275 250.509158 
L 322.539308 246.060567 
L 323.111341 240.262382 
L 323.683375 233.094215 
L 324.255408 224.652097 
L 324.827442 215.156149 
L 325.399475 204.94866 
L 325.971509 194.48259 
L 326.543542 184.275101 
L 327.115576 174.779153 
L 327.687609 166.337035 
L 328.259642 159.168868 
L 328.831676 153.370683 
L 329.403709 148.922092 
L 329.975743 145.703534 
L 330.547776 143.523103 
L 331.11981 142.152665 
L 331.691843 141.366176 
L 332.263877 140.965415 
L 332.83591 140.792798 
L 333.407943 140.735582 
L 333.979977 140.72378 
L 334.55201 140.723011 
L 335.124044 140.723011 
L 335.696077 140.723011 
L 336.268111 140.723011 
L 336.840144 140.723011 
L 337.412178 140.723011 
L 337.984211 140.723011 
L 338.556244 140.723011 
L 339.128278 140.723011 
L 339.700311 140.723011 
L 340.272345 140.723011 
L 340.844378 140.723011 
L 341.416412 140.723011 
L 341.988445 140.723011 
L 342.560479 140.723011 
L 343.132512 140.723011 
L 343.704545 140.723011 
" style="fill:none;stroke:#1f77b4;stroke-linecap:square;stroke-width:0.75;"/>
   </g>
   <g id="line2d_30">
    <path clip-path="url(#pc5ed18d6f1)" d="M 60.54799 258.708239 
L 61.120023 258.70747 
L 61.692057 258.695668 
L 62.26409 258.638452 
L 62.836123 258.465835 
L 63.408157 258.065074 
L 63.98019 257.278585 
L 64.552224 255.908147 
L 65.124257 253.727716 
L 65.696291 250.509158 
L 66.268324 246.060567 
L 66.840358 240.262382 
L 67.412391 233.094215 
L 67.984424 224.652097 
L 68.556458 215.156149 
L 69.128491 204.94866 
L 69.700525 194.48259 
L 70.272558 184.275101 
L 70.844592 174.779153 
L 71.416625 166.337035 
L 71.988659 159.168868 
L 72.560692 153.370683 
L 73.132725 148.922092 
L 73.704759 145.703534 
L 74.276792 143.523103 
L 74.848826 142.152665 
L 75.420859 141.366176 
L 75.992893 140.965415 
L 76.564926 140.792798 
L 77.13696 140.735582 
L 77.708993 140.72378 
L 78.281027 140.723011 
L 78.85306 140.723011 
L 79.425093 140.723011 
L 79.997127 140.723011 
L 80.56916 140.723011 
L 81.141194 140.723011 
L 81.713227 140.723011 
L 82.285261 140.723011 
L 82.857294 140.723011 
L 83.429328 140.723011 
L 84.001361 140.723011 
L 84.573394 140.723011 
L 85.145428 140.723011 
L 85.717461 140.723011 
L 86.289495 140.723011 
L 86.861528 140.723011 
L 87.433562 140.723011 
L 88.005595 140.723011 
L 88.577629 140.723011 
L 89.149662 140.723011 
L 89.721695 140.723011 
L 90.293729 140.723011 
L 90.865762 140.723011 
L 91.437796 140.723011 
L 92.009829 140.723011 
L 92.581863 140.723011 
L 93.153896 140.723011 
L 93.72593 140.723011 
L 94.297963 140.723011 
L 94.869996 140.723011 
L 95.44203 140.723011 
L 96.014063 140.723011 
L 96.586097 140.723011 
L 97.15813 140.723011 
L 97.730164 140.72378 
L 98.302197 140.735582 
L 98.874231 140.792798 
L 99.446264 140.965415 
L 100.018297 141.366176 
L 100.590331 142.152665 
L 101.162364 143.523103 
L 101.734398 145.703534 
L 102.306431 148.922092 
L 102.878465 153.370683 
L 103.450498 159.168868 
L 104.022532 166.337035 
L 104.594565 174.779153 
L 105.166598 184.275101 
L 105.738632 194.48259 
L 106.310665 204.94866 
L 106.882699 215.156149 
L 107.454732 224.652097 
L 108.026766 233.094215 
L 108.598799 240.262382 
L 109.170833 246.060567 
L 109.742866 250.509158 
L 110.314899 253.727716 
L 110.886933 255.908147 
L 111.458966 257.278585 
L 112.031 258.065074 
L 112.603033 258.465835 
L 113.175067 258.638452 
L 113.7471 258.695668 
L 114.319134 258.70747 
L 114.891167 258.708239 
" style="fill:none;stroke:#d62728;stroke-linecap:square;stroke-width:0.75;"/>
   </g>
   <g id="line2d_31">
    <path clip-path="url(#pc5ed18d6f1)" d="M 97.15813 258.708239 
L 97.730164 258.70747 
L 98.302197 258.695668 
L 98.874231 258.638452 
L 99.446264 258.465835 
L 100.018297 258.065074 
L 100.590331 257.278585 
L 101.162364 255.908147 
L 101.734398 253.727716 
L 102.306431 250.509158 
L 102.878465 246.060567 
L 103.450498 240.262382 
L 104.022532 233.094215 
L 104.594565 224.652097 
L 105.166598 215.156149 
L 105.738632 204.94866 
L 106.310665 194.48259 
L 106.882699 184.275101 
L 107.454732 174.779153 
L 108.026766 166.337035 
L 108.598799 159.168868 
L 109.170833 153.370683 
L 109.742866 148.922092 
L 110.314899 145.703534 
L 110.886933 143.523103 
L 111.458966 142.152665 
L 112.031 141.366176 
L 112.603033 140.965415 
L 113.175067 140.792798 
L 113.7471 140.735582 
L 114.319134 140.72378 
L 114.891167 140.723011 
L 115.4632 140.723011 
L 116.035234 140.723011 
L 116.607267 140.723011 
L 117.179301 140.723011 
L 117.751334 140.723011 
L 118.323368 140.723011 
L 118.895401 140.723011 
L 119.467435 140.723011 
L 120.039468 140.723011 
L 120.611502 140.723011 
L 121.183535 140.723011 
L 121.755568 140.723011 
L 122.327602 140.723011 
L 122.899635 140.723011 
L 123.471669 140.723011 
L 124.043702 140.723011 
L 124.615736 140.723011 
L 125.187769 140.723011 
L 125.759803 140.723011 
L 126.331836 140.723011 
L 126.903869 140.723011 
L 127.475903 140.723011 
L 128.047936 140.723011 
L 128.61997 140.723011 
L 129.192003 140.723011 
L 129.764037 140.723011 
L 130.33607 140.723011 
L 130.908104 140.723011 
L 131.480137 140.723011 
L 132.05217 140.723011 
L 132.624204 140.723011 
L 133.196237 140.723011 
L 133.768271 140.723011 
L 134.340304 140.72378 
L 134.912338 140.735582 
L 135.484371 140.792798 
L 136.056405 140.965415 
L 136.628438 141.366176 
L 137.200471 142.152665 
L 137.772505 143.523103 
L 138.344538 145.703534 
L 138.916572 148.922092 
L 139.488605 153.370683 
L 140.060639 159.168868 
L 140.632672 166.337035 
L 141.204706 174.779153 
L 141.776739 184.275101 
L 142.348772 194.48259 
L 142.920806 204.94866 
L 143.492839 215.156149 
L 144.064873 224.652097 
L 144.636906 233.094215 
L 145.20894 240.262382 
L 145.780973 246.060567 
L 146.353007 250.509158 
L 146.92504 253.727716 
L 147.497073 255.908147 
L 148.069107 257.278585 
L 148.64114 258.065074 
L 149.213174 258.465835 
L 149.785207 258.638452 
L 150.357241 258.695668 
L 150.929274 258.70747 
L 151.501308 258.708239 
" style="fill:none;stroke:#1f77b4;stroke-linecap:square;stroke-width:0.75;"/>
   </g>
   <g id="line2d_32">
    <path clip-path="url(#pc5ed18d6f1)" d="M 133.768271 258.708239 
L 134.340304 258.70747 
L 134.912338 258.695668 
L 135.484371 258.638452 
L 136.056405 258.465835 
L 136.628438 258.065074 
L 137.200471 257.278585 
L 137.772505 255.908147 
L 138.344538 253.727716 
L 138.916572 250.509158 
L 139.488605 246.060567 
L 140.060639 240.262382 
L 140.632672 233.094215 
L 141.204706 224.652097 
L 141.776739 215.156149 
L 142.348772 204.94866 
L 142.920806 194.48259 
L 143.492839 184.275101 
L 144.064873 174.779153 
L 144.636906 166.337035 
L 145.20894 159.168868 
L 145.780973 153.370683 
L 146.353007 148.922092 
L 146.92504 145.703534 
L 147.497073 143.523103 
L 148.069107 142.152665 
L 148.64114 141.366176 
L 149.213174 140.965415 
L 149.785207 140.792798 
L 150.357241 140.735582 
L 150.929274 140.72378 
L 151.501308 140.723011 
L 152.073341 140.723011 
L 152.645374 140.723011 
L 153.217408 140.723011 
L 153.789441 140.723011 
L 154.361475 140.723011 
L 154.933508 140.723011 
L 155.505542 140.723011 
L 156.077575 140.723011 
L 156.649609 140.723011 
L 157.221642 140.723011 
L 157.793676 140.723011 
L 158.365709 140.723011 
L 158.937742 140.723011 
L 159.509776 140.723011 
L 160.081809 140.723011 
L 160.653843 140.723011 
L 161.225876 140.723011 
L 161.79791 140.723011 
L 162.369943 140.723011 
L 162.941977 140.723011 
L 163.51401 140.723011 
L 164.086043 140.723011 
L 164.658077 140.723011 
L 165.23011 140.723011 
L 165.802144 140.723011 
L 166.374177 140.723011 
L 166.946211 140.723011 
L 167.518244 140.723011 
L 168.090278 140.723011 
L 168.662311 140.723011 
L 169.234344 140.723011 
L 169.806378 140.723011 
L 170.378411 140.723011 
L 170.950445 140.72378 
L 171.522478 140.735582 
L 172.094512 140.792798 
L 172.666545 140.965415 
L 173.238579 141.366176 
L 173.810612 142.152665 
L 174.382645 143.523103 
L 174.954679 145.703534 
L 175.526712 148.922092 
L 176.098746 153.370683 
L 176.670779 159.168868 
L 177.242813 166.337035 
L 177.814846 174.779153 
L 178.38688 184.275101 
L 178.958913 194.48259 
L 179.530946 204.94866 
L 180.10298 215.156149 
L 180.675013 224.652097 
L 181.247047 233.094215 
L 181.81908 240.262382 
L 182.391114 246.060567 
L 182.963147 250.509158 
L 183.535181 253.727716 
L 184.107214 255.908147 
L 184.679247 257.278585 
L 185.251281 258.065074 
L 185.823314 258.465835 
L 186.395348 258.638452 
L 186.967381 258.695668 
L 187.539415 258.70747 
L 188.111448 258.708239 
" style="fill:none;stroke:#d62728;stroke-linecap:square;stroke-width:0.75;"/>
   </g>
   <g id="line2d_33">
    <path clip-path="url(#pc5ed18d6f1)" d="M 170.378411 258.708239 
L 170.950445 258.70747 
L 171.522478 258.695668 
L 172.094512 258.638452 
L 172.666545 258.465835 
L 173.238579 258.065074 
L 173.810612 257.278585 
L 174.382645 255.908147 
L 174.954679 253.727716 
L 175.526712 250.509158 
L 176.098746 246.060567 
L 176.670779 240.262382 
L 177.242813 233.094215 
L 177.814846 224.652097 
L 178.38688 215.156149 
L 178.958913 204.94866 
L 179.530946 194.48259 
L 180.10298 184.275101 
L 180.675013 174.779153 
L 181.247047 166.337035 
L 181.81908 159.168868 
L 182.391114 153.370683 
L 182.963147 148.922092 
L 183.535181 145.703534 
L 184.107214 143.523103 
L 184.679247 142.152665 
L 185.251281 141.366176 
L 185.823314 140.965415 
L 186.395348 140.792798 
L 186.967381 140.735582 
L 187.539415 140.72378 
L 188.111448 140.723011 
L 188.683482 140.723011 
L 189.255515 140.723011 
L 189.827548 140.723011 
L 190.399582 140.723011 
L 190.971615 140.723011 
L 191.543649 140.723011 
L 192.115682 140.723011 
L 192.687716 140.723011 
L 193.259749 140.723011 
L 193.831783 140.723011 
L 194.403816 140.723011 
L 194.975849 140.723011 
L 195.547883 140.723011 
L 196.119916 140.723011 
L 196.69195 140.723011 
L 197.263983 140.723011 
L 197.836017 140.723011 
L 198.40805 140.723011 
L 198.980084 140.723011 
L 199.552117 140.723011 
L 200.124151 140.723011 
L 200.696184 140.723011 
L 201.268217 140.723011 
L 201.840251 140.723011 
L 202.412284 140.723011 
L 202.984318 140.723011 
L 203.556351 140.723011 
L 204.128385 140.723011 
L 204.700418 140.723011 
L 205.272452 140.723011 
L 205.844485 140.723011 
L 206.416518 140.723011 
L 206.988552 140.723011 
L 207.560585 140.72378 
L 208.132619 140.735582 
L 208.704652 140.792798 
L 209.276686 140.965415 
L 209.848719 141.366176 
L 210.420753 142.152665 
L 210.992786 143.523103 
L 211.564819 145.703534 
L 212.136853 148.922092 
L 212.708886 153.370683 
L 213.28092 159.168868 
L 213.852953 166.337035 
L 214.424987 174.779153 
L 214.99702 184.275101 
L 215.569054 194.48259 
L 216.141087 204.94866 
L 216.71312 215.156149 
L 217.285154 224.652097 
L 217.857187 233.094215 
L 218.429221 240.262382 
L 219.001254 246.060567 
L 219.573288 250.509158 
L 220.145321 253.727716 
L 220.717355 255.908147 
L 221.289388 257.278585 
L 221.861421 258.065074 
L 222.433455 258.465835 
L 223.005488 258.638452 
L 223.577522 258.695668 
L 224.149555 258.70747 
L 224.721589 258.708239 
" style="fill:none;stroke:#1f77b4;stroke-linecap:square;stroke-width:0.75;"/>
   </g>
   <g id="line2d_34">
    <path clip-path="url(#pc5ed18d6f1)" d="M 206.988552 258.708239 
L 207.560585 258.70747 
L 208.132619 258.695668 
L 208.704652 258.638452 
L 209.276686 258.465835 
L 209.848719 258.065074 
L 210.420753 257.278585 
L 210.992786 255.908147 
L 211.564819 253.727716 
L 212.136853 250.509158 
L 212.708886 246.060567 
L 213.28092 240.262382 
L 213.852953 233.094215 
L 214.424987 224.652097 
L 214.99702 215.156149 
L 215.569054 204.94866 
L 216.141087 194.48259 
L 216.71312 184.275101 
L 217.285154 174.779153 
L 217.857187 166.337035 
L 218.429221 159.168868 
L 219.001254 153.370683 
L 219.573288 148.922092 
L 220.145321 145.703534 
L 220.717355 143.523103 
L 221.289388 142.152665 
L 221.861421 141.366176 
L 222.433455 140.965415 
L 223.005488 140.792798 
L 223.577522 140.735582 
L 224.149555 140.72378 
L 224.721589 140.723011 
L 225.293622 140.723011 
L 225.865656 140.723011 
L 226.437689 140.723011 
L 227.009722 140.723011 
L 227.581756 140.723011 
L 228.153789 140.723011 
L 228.725823 140.723011 
L 229.297856 140.723011 
L 229.86989 140.723011 
L 230.441923 140.723011 
L 231.013957 140.723011 
L 231.58599 140.723011 
L 232.158023 140.723011 
L 232.730057 140.723011 
L 233.30209 140.723011 
L 233.874124 140.723011 
L 234.446157 140.723011 
L 235.018191 140.723011 
L 235.590224 140.723011 
L 236.162258 140.723011 
L 236.734291 140.723011 
L 237.306324 140.723011 
L 237.878358 140.723011 
L 238.450391 140.723011 
L 239.022425 140.723011 
L 239.594458 140.723011 
L 240.166492 140.723011 
L 240.738525 140.723011 
L 241.310559 140.723011 
L 241.882592 140.723011 
L 242.454626 140.723011 
L 243.026659 140.723011 
L 243.598692 140.723011 
L 244.170726 140.72378 
L 244.742759 140.735582 
L 245.314793 140.792798 
L 245.886826 140.965415 
L 246.45886 141.366176 
L 247.030893 142.152665 
L 247.602927 143.523103 
L 248.17496 145.703534 
L 248.746993 148.922092 
L 249.319027 153.370683 
L 249.89106 159.168868 
L 250.463094 166.337035 
L 251.035127 174.779153 
L 251.607161 184.275101 
L 252.179194 194.48259 
L 252.751228 204.94866 
L 253.323261 215.156149 
L 253.895294 224.652097 
L 254.467328 233.094215 
L 255.039361 240.262382 
L 255.611395 246.060567 
L 256.183428 250.509158 
L 256.755462 253.727716 
L 257.327495 255.908147 
L 257.899529 257.278585 
L 258.471562 258.065074 
L 259.043595 258.465835 
L 259.615629 258.638452 
L 260.187662 258.695668 
L 260.759696 258.70747 
L 261.331729 258.708239 
" style="fill:none;stroke:#d62728;stroke-linecap:square;stroke-width:0.75;"/>
   </g>
   <g id="line2d_35">
    <path clip-path="url(#pc5ed18d6f1)" d="M 243.598692 258.708239 
L 244.170726 258.70747 
L 244.742759 258.695668 
L 245.314793 258.638452 
L 245.886826 258.465835 
L 246.45886 258.065074 
L 247.030893 257.278585 
L 247.602927 255.908147 
L 248.17496 253.727716 
L 248.746993 250.509158 
L 249.319027 246.060567 
L 249.89106 240.262382 
L 250.463094 233.094215 
L 251.035127 224.652097 
L 251.607161 215.156149 
L 252.179194 204.94866 
L 252.751228 194.48259 
L 253.323261 184.275101 
L 253.895294 174.779153 
L 254.467328 166.337035 
L 255.039361 159.168868 
L 255.611395 153.370683 
L 256.183428 148.922092 
L 256.755462 145.703534 
L 257.327495 143.523103 
L 257.899529 142.152665 
L 258.471562 141.366176 
L 259.043595 140.965415 
L 259.615629 140.792798 
L 260.187662 140.735582 
L 260.759696 140.72378 
L 261.331729 140.723011 
L 261.903763 140.723011 
L 262.475796 140.723011 
L 263.04783 140.723011 
L 263.619863 140.723011 
L 264.191896 140.723011 
L 264.76393 140.723011 
L 265.335963 140.723011 
L 265.907997 140.723011 
L 266.48003 140.723011 
L 267.052064 140.723011 
L 267.624097 140.723011 
L 268.196131 140.723011 
L 268.768164 140.723011 
L 269.340197 140.723011 
L 269.912231 140.723011 
L 270.484264 140.723011 
L 271.056298 140.723011 
L 271.628331 140.723011 
L 272.200365 140.723011 
L 272.772398 140.723011 
L 273.344432 140.723011 
L 273.916465 140.723011 
L 274.488498 140.723011 
L 275.060532 140.723011 
L 275.632565 140.723011 
L 276.204599 140.723011 
L 276.776632 140.723011 
L 277.348666 140.723011 
L 277.920699 140.723011 
L 278.492733 140.723011 
L 279.064766 140.723011 
L 279.6368 140.723011 
L 280.208833 140.723011 
L 280.780866 140.72378 
L 281.3529 140.735582 
L 281.924933 140.792798 
L 282.496967 140.965415 
L 283.069 141.366176 
L 283.641034 142.152665 
L 284.213067 143.523103 
L 284.785101 145.703534 
L 285.357134 148.922092 
L 285.929167 153.370683 
L 286.501201 159.168868 
L 287.073234 166.337035 
L 287.645268 174.779153 
L 288.217301 184.275101 
L 288.789335 194.48259 
L 289.361368 204.94866 
L 289.933402 215.156149 
L 290.505435 224.652097 
L 291.077468 233.094215 
L 291.649502 240.262382 
L 292.221535 246.060567 
L 292.793569 250.509158 
L 293.365602 253.727716 
L 293.937636 255.908147 
L 294.509669 257.278585 
L 295.081703 258.065074 
L 295.653736 258.465835 
L 296.225769 258.638452 
L 296.797803 258.695668 
L 297.369836 258.70747 
L 297.94187 258.708239 
" style="fill:none;stroke:#1f77b4;stroke-linecap:square;stroke-width:0.75;"/>
   </g>
   <g id="line2d_36">
    <path clip-path="url(#pc5ed18d6f1)" d="M 280.208833 258.708239 
L 280.780866 258.70747 
L 281.3529 258.695668 
L 281.924933 258.638452 
L 282.496967 258.465835 
L 283.069 258.065074 
L 283.641034 257.278585 
L 284.213067 255.908147 
L 284.785101 253.727716 
L 285.357134 250.509158 
L 285.929167 246.060567 
L 286.501201 240.262382 
L 287.073234 233.094215 
L 287.645268 224.652097 
L 288.217301 215.156149 
L 288.789335 204.94866 
L 289.361368 194.48259 
L 289.933402 184.275101 
L 290.505435 174.779153 
L 291.077468 166.337035 
L 291.649502 159.168868 
L 292.221535 153.370683 
L 292.793569 148.922092 
L 293.365602 145.703534 
L 293.937636 143.523103 
L 294.509669 142.152665 
L 295.081703 141.366176 
L 295.653736 140.965415 
L 296.225769 140.792798 
L 296.797803 140.735582 
L 297.369836 140.72378 
L 297.94187 140.723011 
L 298.513903 140.723011 
L 299.085937 140.723011 
L 299.65797 140.723011 
L 300.230004 140.723011 
L 300.802037 140.723011 
L 301.37407 140.723011 
L 301.946104 140.723011 
L 302.518137 140.723011 
L 303.090171 140.723011 
L 303.662204 140.723011 
L 304.234238 140.723011 
L 304.806271 140.723011 
L 305.378305 140.723011 
L 305.950338 140.723011 
L 306.522371 140.723011 
L 307.094405 140.723011 
L 307.666438 140.723011 
L 308.238472 140.723011 
L 308.810505 140.723011 
L 309.382539 140.723011 
L 309.954572 140.723011 
L 310.526606 140.723011 
L 311.098639 140.723011 
L 311.670672 140.723011 
L 312.242706 140.723011 
L 312.814739 140.723011 
L 313.386773 140.723011 
L 313.958806 140.723011 
L 314.53084 140.723011 
L 315.102873 140.723011 
L 315.674907 140.723011 
L 316.24694 140.723011 
L 316.818973 140.723011 
L 317.391007 140.72378 
L 317.96304 140.735582 
L 318.535074 140.792798 
L 319.107107 140.965415 
L 319.679141 141.366176 
L 320.251174 142.152665 
L 320.823208 143.523103 
L 321.395241 145.703534 
L 321.967275 148.922092 
L 322.539308 153.370683 
L 323.111341 159.168868 
L 323.683375 166.337035 
L 324.255408 174.779153 
L 324.827442 184.275101 
L 325.399475 194.48259 
L 325.971509 204.94866 
L 326.543542 215.156149 
L 327.115576 224.652097 
L 327.687609 233.094215 
L 328.259642 240.262382 
L 328.831676 246.060567 
L 329.403709 250.509158 
L 329.975743 253.727716 
L 330.547776 255.908147 
L 331.11981 257.278585 
L 331.691843 258.065074 
L 332.263877 258.465835 
L 332.83591 258.638452 
L 333.407943 258.695668 
L 333.979977 258.70747 
L 334.55201 258.708239 
" style="fill:none;stroke:#d62728;stroke-linecap:square;stroke-width:0.75;"/>
   </g>
   <g id="patch_8">
    <path d="M 36.78 264.6075 
L 36.78 134.82375 
" style="fill:none;stroke:#000000;stroke-linecap:square;stroke-linejoin:miter;stroke-width:0.5;"/>
   </g>
   <g id="patch_9">
    <path d="M 358.32 264.6075 
L 358.32 134.82375 
" style="fill:none;stroke:#000000;stroke-linecap:square;stroke-linejoin:miter;stroke-width:0.5;"/>
   </g>
   <g id="patch_10">
    <path d="M 36.78 264.6075 
L 358.32 264.6075 
" style="fill:none;stroke:#000000;stroke-linecap:square;stroke-linejoin:miter;stroke-width:0.5;"/>
   </g>
   <g id="patch_11">
    <path d="M 36.78 134.82375 
L 358.32 134.82375 
" style="fill:none;stroke:#000000;stroke-linecap:square;stroke-linejoin:miter;stroke-width:0.5;"/>
   </g>
   <g id="text_27">
    <!-- $\phi_1$ -->
    <g style="fill:#1f77b4;" transform="translate(51.395455 201.675625)scale(0.08 -0.08)">
     <use transform="translate(0 0.609375)" xlink:href="#Cmmi10-193"/>
     <use transform="translate(59.521484 -16.396875)scale(0.7)" xlink:href="#Cmr10-49"/>
    </g>
   </g>
   <g id="text_28">
    <!-- $\phi_9$ -->
    <defs>
     <path d="M 11.28125 4.203125 
Q 14.015625 0.984375 20.796875 0.984375 
Q 24.609375 0.984375 27.90625 3.5625 
Q 31.203125 6.15625 33.015625 9.90625 
Q 35.109375 14.15625 35.6875 18.96875 
Q 36.28125 23.78125 36.28125 30.90625 
Q 34.578125 26.859375 31.375 24.265625 
Q 28.171875 21.6875 24.03125 21.6875 
Q 18.21875 21.6875 13.640625 24.828125 
Q 9.078125 27.984375 6.640625 33.125 
Q 4.203125 38.28125 4.203125 44.09375 
Q 4.203125 50.09375 6.9375 55.296875 
Q 9.671875 60.5 14.5 63.546875 
Q 19.34375 66.609375 25.484375 66.609375 
Q 31.546875 66.609375 35.625 63.3125 
Q 39.703125 60.015625 41.84375 54.8125 
Q 44 49.609375 44.84375 43.796875 
Q 45.703125 37.984375 45.703125 32.328125 
Q 45.703125 24.609375 42.875 16.578125 
Q 40.046875 8.546875 34.40625 3.171875 
Q 28.765625 -2.203125 20.796875 -2.203125 
Q 14.890625 -2.203125 10.78125 0.578125 
Q 6.6875 3.375 6.6875 8.984375 
Q 6.6875 11.03125 8.078125 12.421875 
Q 9.46875 13.8125 11.53125 13.8125 
Q 13.53125 13.8125 14.921875 12.421875 
Q 16.3125 11.03125 16.3125 8.984375 
Q 16.3125 7.03125 14.890625 5.609375 
Q 13.484375 4.203125 11.53125 4.203125 
z
M 24.421875 24.3125 
Q 28.515625 24.3125 31.125 27.0625 
Q 33.734375 29.828125 34.90625 33.921875 
Q 36.078125 38.03125 36.078125 42.09375 
L 36.078125 44 
L 36.078125 44.390625 
Q 36.078125 51.90625 33.875 57.8125 
Q 31.6875 63.71875 25.484375 63.71875 
Q 21.53125 63.71875 19.0625 61.984375 
Q 16.609375 60.25 15.4375 57.375 
Q 14.265625 54.5 13.9375 51.21875 
Q 13.625 47.953125 13.625 44.09375 
Q 13.625 38.421875 14.15625 34.421875 
Q 14.703125 30.421875 17.09375 27.359375 
Q 19.484375 24.3125 24.421875 24.3125 
z
" id="Cmr10-57"/>
    </defs>
    <g style="fill:#d62728;" transform="translate(335.624545 201.675625)scale(0.08 -0.08)">
     <use transform="translate(0 0.609375)" xlink:href="#Cmmi10-193"/>
     <use transform="translate(59.521484 -16.396875)scale(0.7)" xlink:href="#Cmr10-57"/>
    </g>
   </g>
   <g id="text_29">
    <!-- $\phi_2$ -->
    <g style="fill:#d62728;" transform="translate(83.965595 201.675625)scale(0.08 -0.08)">
     <use transform="translate(0 0.609375)" xlink:href="#Cmmi10-193"/>
     <use transform="translate(59.521484 -16.396875)scale(0.7)" xlink:href="#Cmr10-50"/>
    </g>
   </g>
   <g id="text_30">
    <!-- $\phi_3$ -->
    <defs>
     <path d="M 9.515625 7.71875 
Q 11.859375 4.296875 15.8125 2.640625 
Q 19.78125 0.984375 24.3125 0.984375 
Q 30.125 0.984375 32.5625 5.9375 
Q 35.015625 10.890625 35.015625 17.1875 
Q 35.015625 20.015625 34.5 22.84375 
Q 33.984375 25.6875 32.765625 28.125 
Q 31.546875 30.5625 29.421875 32.03125 
Q 27.296875 33.5 24.21875 33.5 
L 17.578125 33.5 
Q 16.703125 33.5 16.703125 34.421875 
L 16.703125 35.296875 
Q 16.703125 36.078125 17.578125 36.078125 
L 23.09375 36.53125 
Q 26.609375 36.53125 28.921875 39.15625 
Q 31.25 41.796875 32.328125 45.578125 
Q 33.40625 49.359375 33.40625 52.78125 
Q 33.40625 57.5625 31.15625 60.640625 
Q 28.90625 63.71875 24.3125 63.71875 
Q 20.515625 63.71875 17.046875 62.28125 
Q 13.578125 60.84375 11.53125 57.90625 
Q 11.71875 57.953125 11.859375 57.984375 
Q 12.015625 58.015625 12.203125 58.015625 
Q 14.453125 58.015625 15.96875 56.453125 
Q 17.484375 54.890625 17.484375 52.6875 
Q 17.484375 50.53125 15.96875 48.96875 
Q 14.453125 47.40625 12.203125 47.40625 
Q 10.015625 47.40625 8.453125 48.96875 
Q 6.890625 50.53125 6.890625 52.6875 
Q 6.890625 56.984375 9.46875 60.15625 
Q 12.0625 63.328125 16.140625 64.96875 
Q 20.21875 66.609375 24.3125 66.609375 
Q 27.34375 66.609375 30.703125 65.703125 
Q 34.078125 64.796875 36.8125 63.109375 
Q 39.546875 61.421875 41.28125 58.78125 
Q 43.015625 56.15625 43.015625 52.78125 
Q 43.015625 48.578125 41.140625 45.015625 
Q 39.265625 41.453125 35.984375 38.859375 
Q 32.71875 36.28125 28.8125 35.015625 
Q 33.15625 34.1875 37.0625 31.734375 
Q 40.96875 29.296875 43.328125 25.484375 
Q 45.703125 21.6875 45.703125 17.28125 
Q 45.703125 11.765625 42.671875 7.296875 
Q 39.65625 2.828125 34.71875 0.3125 
Q 29.78125 -2.203125 24.3125 -2.203125 
Q 19.625 -2.203125 14.90625 -0.40625 
Q 10.203125 1.375 7.203125 4.9375 
Q 4.203125 8.5 4.203125 13.484375 
Q 4.203125 15.96875 5.859375 17.625 
Q 7.515625 19.28125 10.015625 19.28125 
Q 11.625 19.28125 12.96875 18.53125 
Q 14.3125 17.78125 15.0625 16.40625 
Q 15.828125 15.046875 15.828125 13.484375 
Q 15.828125 11.03125 14.109375 9.375 
Q 12.40625 7.71875 10.015625 7.71875 
z
" id="Cmr10-51"/>
    </defs>
    <g style="fill:#1f77b4;" transform="translate(120.575736 201.675625)scale(0.08 -0.08)">
     <use transform="translate(0 0.609375)" xlink:href="#Cmmi10-193"/>
     <use transform="translate(59.521484 -16.396875)scale(0.7)" xlink:href="#Cmr10-51"/>
    </g>
   </g>
   <g id="text_31">
    <!-- $\phi_4$ -->
    <defs>
     <path d="M 2.78125 16.5 
L 2.78125 20.015625 
L 33.6875 66.109375 
Q 34.03125 66.609375 34.71875 66.609375 
L 36.1875 66.609375 
Q 37.3125 66.609375 37.3125 65.484375 
L 37.3125 20.015625 
L 47.125 20.015625 
L 47.125 16.5 
L 37.3125 16.5 
L 37.3125 6.6875 
Q 37.3125 4.640625 40.234375 4.078125 
Q 43.171875 3.515625 47.015625 3.515625 
L 47.015625 0 
L 19.484375 0 
L 19.484375 3.515625 
Q 23.34375 3.515625 26.265625 4.078125 
Q 29.203125 4.640625 29.203125 6.6875 
L 29.203125 16.5 
z
M 6.109375 20.015625 
L 29.78125 20.015625 
L 29.78125 55.421875 
z
" id="Cmr10-52"/>
    </defs>
    <g style="fill:#d62728;" transform="translate(157.185876 201.675625)scale(0.08 -0.08)">
     <use transform="translate(0 0.609375)" xlink:href="#Cmmi10-193"/>
     <use transform="translate(59.521484 -16.396875)scale(0.7)" xlink:href="#Cmr10-52"/>
    </g>
   </g>
   <g id="text_32">
    <!-- $\phi_5$ -->
    <defs>
     <path d="M 8.6875 11.375 
Q 9.71875 8.453125 11.84375 6.046875 
Q 13.96875 3.65625 16.875 2.3125 
Q 19.78125 0.984375 22.90625 0.984375 
Q 30.125 0.984375 32.859375 6.59375 
Q 35.59375 12.203125 35.59375 20.21875 
Q 35.59375 23.6875 35.46875 26.046875 
Q 35.359375 28.421875 34.8125 30.609375 
Q 33.890625 34.125 31.5625 36.765625 
Q 29.25 39.40625 25.875 39.40625 
Q 22.515625 39.40625 20.09375 38.375 
Q 17.671875 37.359375 16.15625 35.984375 
Q 14.65625 34.625 13.484375 33.109375 
Q 12.3125 31.59375 12.015625 31.5 
L 10.890625 31.5 
Q 10.640625 31.5 10.265625 31.8125 
Q 9.90625 32.125 9.90625 32.421875 
L 9.90625 65.828125 
Q 9.90625 66.0625 10.21875 66.328125 
Q 10.546875 66.609375 10.890625 66.609375 
L 11.1875 66.609375 
Q 17.921875 63.375 25.484375 63.375 
Q 32.90625 63.375 39.796875 66.609375 
L 40.09375 66.609375 
Q 40.4375 66.609375 40.71875 66.359375 
Q 41.015625 66.109375 41.015625 65.828125 
L 41.015625 64.890625 
Q 41.015625 64.40625 40.828125 64.40625 
Q 37.40625 59.859375 32.25 57.3125 
Q 27.09375 54.78125 21.578125 54.78125 
Q 17.578125 54.78125 13.375 55.90625 
L 13.375 37.015625 
Q 16.703125 39.703125 19.3125 40.84375 
Q 21.921875 42 25.984375 42 
Q 31.5 42 35.859375 38.8125 
Q 40.234375 35.640625 42.578125 30.53125 
Q 44.921875 25.4375 44.921875 20.125 
Q 44.921875 14.109375 41.96875 8.984375 
Q 39.015625 3.859375 33.9375 0.828125 
Q 28.859375 -2.203125 22.90625 -2.203125 
Q 17.96875 -2.203125 13.84375 0.328125 
Q 9.71875 2.875 7.34375 7.171875 
Q 4.984375 11.46875 4.984375 16.3125 
Q 4.984375 18.5625 6.4375 19.96875 
Q 7.90625 21.390625 10.109375 21.390625 
Q 12.3125 21.390625 13.796875 19.9375 
Q 15.28125 18.5 15.28125 16.3125 
Q 15.28125 14.15625 13.796875 12.671875 
Q 12.3125 11.1875 10.109375 11.1875 
Q 9.765625 11.1875 9.328125 11.25 
Q 8.890625 11.328125 8.6875 11.375 
z
" id="Cmr10-53"/>
    </defs>
    <g style="fill:#1f77b4;" transform="translate(193.796017 201.675625)scale(0.08 -0.08)">
     <use transform="translate(0 0.609375)" xlink:href="#Cmmi10-193"/>
     <use transform="translate(59.521484 -16.396875)scale(0.7)" xlink:href="#Cmr10-53"/>
    </g>
   </g>
   <g id="text_33">
    <!-- $\phi_6$ -->
    <defs>
     <path d="M 25 -2.203125 
Q 18.796875 -2.203125 14.640625 1.09375 
Q 10.5 4.390625 8.21875 9.640625 
Q 5.953125 14.890625 5.078125 20.65625 
Q 4.203125 26.421875 4.203125 32.328125 
Q 4.203125 40.234375 7.28125 48.1875 
Q 10.359375 56.15625 16.328125 61.375 
Q 22.3125 66.609375 30.515625 66.609375 
Q 33.9375 66.609375 36.890625 65.3125 
Q 39.84375 64.015625 41.53125 61.5 
Q 43.21875 58.984375 43.21875 55.421875 
Q 43.21875 53.375 41.828125 51.984375 
Q 40.4375 50.59375 38.375 50.59375 
Q 36.421875 50.59375 35 52 
Q 33.59375 53.421875 33.59375 55.421875 
Q 33.59375 57.375 35 58.78125 
Q 36.421875 60.203125 38.375 60.203125 
L 38.921875 60.203125 
Q 37.640625 62.015625 35.328125 62.859375 
Q 33.015625 63.71875 30.515625 63.71875 
Q 27.484375 63.71875 24.921875 62.390625 
Q 22.359375 61.078125 20.3125 58.828125 
Q 18.265625 56.59375 16.890625 53.875 
Q 15.53125 51.171875 14.765625 47.703125 
Q 14.015625 44.234375 13.8125 41.203125 
Q 13.625 38.1875 13.625 33.59375 
Q 15.375 37.703125 18.59375 40.3125 
Q 21.828125 42.921875 25.875 42.921875 
Q 30.328125 42.921875 33.984375 41.109375 
Q 37.640625 39.3125 40.28125 36.109375 
Q 42.921875 32.90625 44.3125 28.796875 
Q 45.703125 24.703125 45.703125 20.515625 
Q 45.703125 14.65625 43.09375 9.34375 
Q 40.484375 4.046875 35.734375 0.921875 
Q 31 -2.203125 25 -2.203125 
z
M 25 0.984375 
Q 28.859375 0.984375 31.203125 2.734375 
Q 33.546875 4.5 34.640625 7.390625 
Q 35.75 10.296875 36.015625 13.25 
Q 36.28125 16.21875 36.28125 20.515625 
Q 36.28125 26.171875 35.734375 30.171875 
Q 35.203125 34.1875 32.8125 37.234375 
Q 30.421875 40.28125 25.484375 40.28125 
Q 21.4375 40.28125 18.828125 37.546875 
Q 16.21875 34.8125 15.015625 30.640625 
Q 13.8125 26.46875 13.8125 22.609375 
Q 13.8125 21.296875 13.921875 20.609375 
Q 13.921875 20.453125 13.890625 20.359375 
Q 13.875 20.265625 13.8125 20.125 
Q 13.8125 15.828125 14.6875 11.421875 
Q 15.578125 7.03125 18.0625 4 
Q 20.5625 0.984375 25 0.984375 
z
" id="Cmr10-54"/>
    </defs>
    <g style="fill:#d62728;" transform="translate(230.406157 201.675625)scale(0.08 -0.08)">
     <use transform="translate(0 0.609375)" xlink:href="#Cmmi10-193"/>
     <use transform="translate(59.521484 -16.396875)scale(0.7)" xlink:href="#Cmr10-54"/>
    </g>
   </g>
   <g id="text_34">
    <!-- $\phi_7$ -->
    <defs>
     <path d="M 17.390625 2.59375 
Q 17.390625 8.15625 18.359375 13.46875 
Q 19.34375 18.796875 21.21875 24 
Q 23.09375 29.203125 25.75 34.203125 
Q 28.421875 39.203125 31.59375 43.609375 
L 40.71875 56.296875 
L 29.296875 56.296875 
Q 11.53125 56.296875 10.984375 55.8125 
Q 9.671875 54.203125 8.5 46.578125 
L 5.609375 46.578125 
L 8.890625 67.578125 
L 11.8125 67.578125 
L 11.8125 67.28125 
Q 11.8125 65.484375 17.921875 64.9375 
Q 24.03125 64.40625 29.890625 64.40625 
L 48.484375 64.40625 
L 48.484375 61.8125 
Q 48.484375 61.71875 48.453125 61.671875 
Q 48.4375 61.625 48.390625 61.53125 
L 34.625 42.1875 
Q 29.546875 34.671875 28.265625 25.484375 
Q 27 16.3125 27 2.59375 
Q 27 0.640625 25.578125 -0.78125 
Q 24.171875 -2.203125 22.21875 -2.203125 
Q 20.21875 -2.203125 18.796875 -0.78125 
Q 17.390625 0.640625 17.390625 2.59375 
z
" id="Cmr10-55"/>
    </defs>
    <g style="fill:#1f77b4;" transform="translate(267.016298 201.675625)scale(0.08 -0.08)">
     <use transform="translate(0 0.609375)" xlink:href="#Cmmi10-193"/>
     <use transform="translate(59.521484 -16.396875)scale(0.7)" xlink:href="#Cmr10-55"/>
    </g>
   </g>
   <g id="text_35">
    <!-- $\phi_8$ -->
    <defs>
     <path d="M 4.203125 15.1875 
Q 4.203125 21.1875 8.15625 25.796875 
Q 12.109375 30.421875 18.3125 33.5 
L 14.59375 35.890625 
Q 11.1875 38.140625 9.03125 41.875 
Q 6.890625 45.609375 6.890625 49.703125 
Q 6.890625 54.5 9.40625 58.34375 
Q 11.921875 62.203125 16.09375 64.40625 
Q 20.265625 66.609375 25 66.609375 
Q 29.4375 66.609375 33.5625 64.796875 
Q 37.703125 62.984375 40.359375 59.609375 
Q 43.015625 56.25 43.015625 51.609375 
Q 43.015625 48.25 41.421875 45.359375 
Q 39.84375 42.484375 37.078125 40.1875 
Q 34.328125 37.890625 31.203125 36.28125 
L 36.921875 32.625 
Q 40.875 30.03125 43.28125 25.828125 
Q 45.703125 21.625 45.703125 17 
Q 45.703125 11.578125 42.796875 7.125 
Q 39.890625 2.6875 35.109375 0.234375 
Q 30.328125 -2.203125 25 -2.203125 
Q 19.828125 -2.203125 15.015625 -0.09375 
Q 10.203125 2 7.203125 5.984375 
Q 4.203125 9.96875 4.203125 15.1875 
z
M 9.625 15.1875 
Q 9.625 11.234375 11.796875 7.953125 
Q 13.96875 4.6875 17.53125 2.828125 
Q 21.09375 0.984375 25 0.984375 
Q 30.8125 0.984375 35.546875 4.375 
Q 40.28125 7.765625 40.28125 13.375 
Q 40.28125 15.28125 39.515625 17.15625 
Q 38.765625 19.046875 37.421875 20.578125 
Q 36.078125 22.125 34.421875 23.09375 
L 21 31.78125 
Q 17.875 30.125 15.25 27.578125 
Q 12.640625 25.046875 11.125 21.875 
Q 9.625 18.703125 9.625 15.1875 
z
M 16.5 45.703125 
L 28.609375 37.890625 
Q 32.8125 40.328125 35.5 43.796875 
Q 38.1875 47.265625 38.1875 51.609375 
Q 38.1875 54.984375 36.296875 57.78125 
Q 34.421875 60.59375 31.390625 62.15625 
Q 28.375 63.71875 24.90625 63.71875 
Q 21.875 63.71875 18.796875 62.546875 
Q 15.71875 61.375 13.71875 59.046875 
Q 11.71875 56.734375 11.71875 53.609375 
Q 11.71875 48.921875 16.5 45.703125 
z
" id="Cmr10-56"/>
    </defs>
    <g style="fill:#d62728;" transform="translate(303.626438 201.675625)scale(0.08 -0.08)">
     <use transform="translate(0 0.609375)" xlink:href="#Cmmi10-193"/>
     <use transform="translate(59.521484 -16.396875)scale(0.7)" xlink:href="#Cmr10-56"/>
    </g>
   </g>
  </g>
 </g>
 <defs>
  <clipPath id="p9dc67ceec7">
   <rect height="129.78375" width="321.54" x="36.78" y="1.68"/>
  </clipPath>
  <clipPath id="pc5ed18d6f1">
   <rect height="129.78375" width="321.54" x="36.78" y="134.82375"/>
  </clipPath>
 </defs>
</svg>
