<?xml version="1.0" encoding="utf-8" standalone="no"?>
<!DOCTYPE svg PUBLIC "-//W3C//DTD SVG 1.1//EN"
  "http://www.w3.org/Graphics/SVG/1.1/DTD/svg11.dtd">
<!-- Created with matplotlib (https://matplotlib.org/) -->
<svg height="288pt" version="1.1" viewBox="0 0 360 288" width="360pt" xmlns="http://www.w3.org/2000/svg" xmlns:xlink="http://www.w3.org/1999/xlink">
 <defs>
  <style type="text/css">
*{stroke-linecap:butt;stroke-linejoin:round;}
  </style>
 </defs>
 <g id="figure_1">
  <g id="patch_1">
   <path d="M 0 288 
L 360 288 
L 360 0 
L 0 0 
z
" style="fill:#ffffff;"/>
  </g>
  <g id="axes_1">
   <g id="patch_2">
    <path d="M 36.78 131.46375 
L 358.32 131.46375 
L 358.32 1.68 
L 36.78 1.68 
z
" style="fill:#ffffff;"/>
   </g>
   <g id="matplotlib.axis_1"/>
   <g id="matplotlib.axis_2">
    <g id="ytick_1">
     <g id="line2d_1">
      <defs>
       <path d="M 0 0 
L -3.5 0 
" id="mf3a1c62bb2" style="stroke:#000000;stroke-width:0.8;"/>
      </defs>
      <g>
       <use style="stroke:#000000;stroke-width:0.8;" x="36.78" xlink:href="#mf3a1c62bb2" y="124.253542"/>
      </g>
     </g>
     <g id="text_1">
      <!-- −0.8 -->
      <defs>
       <path d="M 76.59375 25 
C 76.59375 27.296875 74.203125 27.296875 72.703125 27.296875 
L 9.796875 27.296875 
C 8.296875 27.296875 5.90625 27.296875 5.90625 25 
C 5.90625 22.703125 7.90625 22.703125 9.40625 22.703125 
L 73.09375 22.703125 
C 74.59375 22.703125 76.59375 22.703125 76.59375 25 
z
" id="LMRoman8-Regular-8722"/>
       <path d="M 48.90625 31.90625 
C 48.90625 42.59375 47.796875 49.09375 44.5 55.5 
C 40.09375 64.296875 32 66.5 26.5 66.5 
C 13.90625 66.5 9.296875 57.09375 7.90625 54.296875 
C 4.296875 47 4.09375 37.09375 4.09375 31.90625 
C 4.09375 25.296875 4.40625 15.203125 9.203125 7.203125 
C 13.796875 -0.203125 21.203125 -2.09375 26.5 -2.09375 
C 31.296875 -2.09375 39.90625 -0.59375 44.90625 9.296875 
C 48.59375 16.5 48.90625 25.40625 48.90625 31.90625 
z
M 40 33.09375 
C 40 27.203125 40 18.203125 38.796875 12.59375 
C 36.703125 2.09375 29.796875 0.703125 26.5 0.703125 
C 23.09375 0.703125 16.203125 2.296875 14.09375 12.796875 
C 13 18.5 13 27.90625 13 33.09375 
C 13 40 13 47 14.09375 52.5 
C 16.203125 62.703125 24 63.703125 26.5 63.703125 
C 29.90625 63.703125 36.796875 62 38.796875 52.90625 
C 40 47.40625 40 39.90625 40 33.09375 
z
" id="LMRoman8-Regular-48"/>
       <path d="M 20.296875 5.5 
C 20.296875 8.90625 17.59375 11.09375 14.796875 11.09375 
C 11.40625 11.09375 9.203125 8.40625 9.203125 5.59375 
C 9.203125 2.203125 11.90625 0 14.703125 0 
C 18.09375 0 20.296875 2.703125 20.296875 5.5 
z
" id="LMRoman8-Regular-46"/>
       <path d="M 48.59375 16.796875 
C 48.59375 23.09375 45.203125 27.296875 43.59375 29 
C 41.90625 30.59375 41.796875 30.703125 33.203125 36.09375 
C 38.796875 38.796875 45.59375 43.796875 45.59375 51.59375 
C 45.59375 61.09375 35.90625 66.5 26.59375 66.5 
C 16 66.5 7.40625 59.203125 7.40625 49.796875 
C 7.40625 46.09375 8.703125 42.703125 11.203125 39.796875 
C 12.90625 37.703125 13.296875 37.5 19.5 33.59375 
C 7.09375 28.09375 4.40625 20.796875 4.40625 15.203125 
C 4.40625 4.203125 15.5 -2.09375 26.40625 -2.09375 
C 38.703125 -2.09375 48.59375 6.203125 48.59375 16.796875 
z
M 40.59375 51.59375 
C 40.59375 45.796875 36.09375 40.90625 30.203125 38 
L 17.703125 45.5 
C 14.796875 47.203125 12.40625 50.09375 12.40625 53.59375 
C 12.40625 59.90625 19.296875 63.90625 26.40625 63.90625 
C 34.203125 63.90625 40.59375 58.59375 40.59375 51.59375 
z
M 42.90625 13.40625 
C 42.90625 5.703125 34.796875 0.90625 26.59375 0.90625 
C 17.703125 0.90625 10.09375 7 10.09375 15.203125 
C 10.09375 22.703125 15.703125 28.59375 22.59375 31.796875 
L 36.09375 23.5 
C 37.703125 22.59375 42.90625 19.40625 42.90625 13.40625 
z
" id="LMRoman8-Regular-56"/>
      </defs>
      <g transform="translate(16.683125 126.335729)scale(0.06 -0.06)">
       <use xlink:href="#LMRoman8-Regular-8722"/>
       <use x="82.599991" xlink:href="#LMRoman8-Regular-48"/>
       <use x="135.699982" xlink:href="#LMRoman8-Regular-46"/>
       <use x="165.199966" xlink:href="#LMRoman8-Regular-56"/>
      </g>
     </g>
    </g>
    <g id="ytick_2">
     <g id="line2d_2">
      <g>
       <use style="stroke:#000000;stroke-width:0.8;" x="36.78" xlink:href="#mf3a1c62bb2" y="109.833125"/>
      </g>
     </g>
     <g id="text_2">
      <!-- −0.6 -->
      <defs>
       <path d="M 48.59375 20.296875 
C 48.59375 33.40625 38.703125 42.59375 27.59375 42.59375 
C 20.40625 42.59375 16.09375 38 13.796875 33.09375 
C 13.796875 41.40625 14.5 48.703125 18.09375 54.796875 
C 21.09375 59.796875 26.203125 63.90625 32.5 63.90625 
C 34.5 63.90625 39.09375 63.59375 41.40625 60.09375 
C 36.90625 59.90625 36.5 56.5 36.5 55.40625 
C 36.5 52.40625 38.796875 50.703125 41.203125 50.703125 
C 43 50.703125 45.90625 51.796875 45.90625 55.59375 
C 45.90625 61.59375 41.40625 66.5 32.40625 66.5 
C 18.5 66.5 4.40625 53.296875 4.40625 31.703125 
C 4.40625 4.59375 17 -2.09375 26.703125 -2.09375 
C 31.5 -2.09375 36.703125 -0.796875 41.203125 3.5 
C 45.203125 7.40625 48.59375 11.59375 48.59375 20.296875 
z
M 39.203125 20.40625 
C 39.203125 15.296875 39.203125 10.90625 37.203125 7.296875 
C 34.59375 2.703125 31.09375 0.90625 26.703125 0.90625 
C 21.40625 0.90625 18.09375 4.59375 16.59375 7.40625 
C 14.296875 11.90625 14.09375 18.703125 14.09375 22.5 
C 14.09375 32.40625 19.5 39.796875 27.203125 39.796875 
C 32.203125 39.796875 35.203125 37.203125 37.09375 33.703125 
C 39.203125 30 39.203125 25.5 39.203125 20.40625 
z
" id="LMRoman8-Regular-54"/>
      </defs>
      <g transform="translate(16.683125 111.915312)scale(0.06 -0.06)">
       <use xlink:href="#LMRoman8-Regular-8722"/>
       <use x="82.599991" xlink:href="#LMRoman8-Regular-48"/>
       <use x="135.699982" xlink:href="#LMRoman8-Regular-46"/>
       <use x="165.199966" xlink:href="#LMRoman8-Regular-54"/>
      </g>
     </g>
    </g>
    <g id="ytick_3">
     <g id="line2d_3">
      <g>
       <use style="stroke:#000000;stroke-width:0.8;" x="36.78" xlink:href="#mf3a1c62bb2" y="95.412708"/>
      </g>
     </g>
     <g id="text_3">
      <!-- −0.4 -->
      <defs>
       <path d="M 50 16.40625 
L 50 19.703125 
L 39.40625 19.703125 
L 39.40625 64.703125 
C 39.40625 66.703125 39.40625 67.5 37.296875 67.5 
C 36 67.5 35.90625 67.40625 34.90625 66 
L 3 19.703125 
L 3 16.40625 
L 31.203125 16.40625 
L 31.203125 8.09375 
C 31.203125 4.40625 30.90625 3.296875 23.203125 3.296875 
L 20.90625 3.296875 
L 20.90625 0 
L 35.296875 0.296875 
L 49.703125 0 
L 49.703125 3.296875 
L 47.40625 3.296875 
C 39.703125 3.296875 39.40625 4.40625 39.40625 8.09375 
L 39.40625 16.40625 
z
M 31.90625 19.703125 
L 6.5 19.703125 
L 31.90625 56.59375 
z
" id="LMRoman8-Regular-52"/>
      </defs>
      <g transform="translate(16.683125 97.494896)scale(0.06 -0.06)">
       <use xlink:href="#LMRoman8-Regular-8722"/>
       <use x="82.599991" xlink:href="#LMRoman8-Regular-48"/>
       <use x="135.699982" xlink:href="#LMRoman8-Regular-46"/>
       <use x="165.199966" xlink:href="#LMRoman8-Regular-52"/>
      </g>
     </g>
    </g>
    <g id="ytick_4">
     <g id="line2d_4">
      <g>
       <use style="stroke:#000000;stroke-width:0.8;" x="36.78" xlink:href="#mf3a1c62bb2" y="80.992292"/>
      </g>
     </g>
     <g id="text_4">
      <!-- −0.2 -->
      <defs>
       <path d="M 47.703125 17.90625 
L 44.59375 17.90625 
C 44.296875 15.90625 43.5 10.90625 42.296875 9 
C 41.703125 8.203125 34.09375 8.203125 32.5 8.203125 
L 14.703125 8.203125 
L 28.203125 20.40625 
C 29.796875 21.90625 34 25.203125 35.59375 26.59375 
C 41.796875 32.296875 47.703125 37.796875 47.703125 46.90625 
C 47.703125 58.796875 37.703125 66.5 25.203125 66.5 
C 13.203125 66.5 5.296875 57.40625 5.296875 48.5 
C 5.296875 43.59375 9.203125 42.90625 10.59375 42.90625 
C 12.703125 42.90625 15.796875 44.40625 15.796875 48.203125 
C 15.796875 53.40625 10.796875 53.40625 9.59375 53.40625 
C 12.5 60.703125 19.203125 63.203125 24.09375 63.203125 
C 33.40625 63.203125 38.203125 55.296875 38.203125 46.90625 
C 38.203125 36.5 30.90625 28.90625 19.09375 16.796875 
L 6.5 3.796875 
C 5.296875 2.703125 5.296875 2.5 5.296875 0 
L 44.796875 0 
z
" id="LMRoman8-Regular-50"/>
      </defs>
      <g transform="translate(16.683125 83.074479)scale(0.06 -0.06)">
       <use xlink:href="#LMRoman8-Regular-8722"/>
       <use x="82.599991" xlink:href="#LMRoman8-Regular-48"/>
       <use x="135.699982" xlink:href="#LMRoman8-Regular-46"/>
       <use x="165.199966" xlink:href="#LMRoman8-Regular-50"/>
      </g>
     </g>
    </g>
    <g id="ytick_5">
     <g id="line2d_5">
      <g>
       <use style="stroke:#000000;stroke-width:0.8;" x="36.78" xlink:href="#mf3a1c62bb2" y="66.571875"/>
      </g>
     </g>
     <g id="text_5">
      <!-- 0.0 -->
      <g transform="translate(21.63875 68.654063)scale(0.06 -0.06)">
       <use xlink:href="#LMRoman8-Regular-48"/>
       <use x="53.099991" xlink:href="#LMRoman8-Regular-46"/>
       <use x="82.599976" xlink:href="#LMRoman8-Regular-48"/>
      </g>
     </g>
    </g>
    <g id="ytick_6">
     <g id="line2d_6">
      <g>
       <use style="stroke:#000000;stroke-width:0.8;" x="36.78" xlink:href="#mf3a1c62bb2" y="52.151458"/>
      </g>
     </g>
     <g id="text_6">
      <!-- 0.2 -->
      <g transform="translate(21.63875 54.233646)scale(0.06 -0.06)">
       <use xlink:href="#LMRoman8-Regular-48"/>
       <use x="53.099991" xlink:href="#LMRoman8-Regular-46"/>
       <use x="82.599976" xlink:href="#LMRoman8-Regular-50"/>
      </g>
     </g>
    </g>
    <g id="ytick_7">
     <g id="line2d_7">
      <g>
       <use style="stroke:#000000;stroke-width:0.8;" x="36.78" xlink:href="#mf3a1c62bb2" y="37.731042"/>
      </g>
     </g>
     <g id="text_7">
      <!-- 0.4 -->
      <g transform="translate(21.63875 39.813229)scale(0.06 -0.06)">
       <use xlink:href="#LMRoman8-Regular-48"/>
       <use x="53.099991" xlink:href="#LMRoman8-Regular-46"/>
       <use x="82.599976" xlink:href="#LMRoman8-Regular-52"/>
      </g>
     </g>
    </g>
    <g id="ytick_8">
     <g id="line2d_8">
      <g>
       <use style="stroke:#000000;stroke-width:0.8;" x="36.78" xlink:href="#mf3a1c62bb2" y="23.310625"/>
      </g>
     </g>
     <g id="text_8">
      <!-- 0.6 -->
      <g transform="translate(21.63875 25.392812)scale(0.06 -0.06)">
       <use xlink:href="#LMRoman8-Regular-48"/>
       <use x="53.099991" xlink:href="#LMRoman8-Regular-46"/>
       <use x="82.599976" xlink:href="#LMRoman8-Regular-54"/>
      </g>
     </g>
    </g>
    <g id="ytick_9">
     <g id="line2d_9">
      <g>
       <use style="stroke:#000000;stroke-width:0.8;" x="36.78" xlink:href="#mf3a1c62bb2" y="8.890208"/>
      </g>
     </g>
     <g id="text_9">
      <!-- 0.8 -->
      <g transform="translate(21.63875 10.972396)scale(0.06 -0.06)">
       <use xlink:href="#LMRoman8-Regular-48"/>
       <use x="53.099991" xlink:href="#LMRoman8-Regular-46"/>
       <use x="82.599976" xlink:href="#LMRoman8-Regular-56"/>
      </g>
     </g>
    </g>
    <g id="text_10">
     <!-- $\vec{z}^{\,p}(s)$ -->
     <defs>
      <path d="M 20.015625 59.515625 
Q 19.234375 59.515625 18.71875 60.09375 
Q 18.21875 60.6875 18.21875 61.53125 
Q 18.21875 62.25 18.71875 62.859375 
Q 19.234375 63.484375 20.015625 63.484375 
L 55.421875 63.484375 
Q 52.78125 67.046875 52.78125 69.390625 
Q 52.78125 70.265625 53.390625 70.828125 
Q 54 71.390625 54.78125 71.390625 
Q 56.453125 71.390625 56.78125 69.828125 
Q 57.765625 65.53125 61.53125 63.1875 
Q 62.5 62.546875 62.5 61.53125 
Q 62.5 60.296875 61.53125 59.8125 
Q 55.859375 56.984375 52.390625 52.296875 
Q 52 51.609375 50.875 51.609375 
Q 50.140625 51.609375 49.5 52.1875 
Q 48.875 52.78125 48.875 53.609375 
Q 48.875 55.421875 53.71875 59.515625 
z
" id="Cmmi10-126"/>
      <path d="M 4.890625 -1.125 
Q 4.109375 -1.125 4.109375 -0.203125 
Q 4.109375 0.296875 4.296875 0.484375 
Q 6.984375 5.125 10.765625 9.34375 
Q 14.546875 13.578125 19.359375 17.890625 
Q 24.171875 22.21875 29.03125 26.5625 
Q 33.890625 30.90625 36.921875 34.28125 
L 36.53125 34.28125 
Q 34.328125 34.28125 30.078125 35.6875 
Q 25.828125 37.109375 23.390625 37.109375 
Q 20.75 37.109375 18.25 35.953125 
Q 15.765625 34.8125 15.09375 32.421875 
Q 14.9375 31.6875 14.3125 31.6875 
L 13.09375 31.6875 
Q 12.3125 31.6875 12.3125 32.71875 
L 12.3125 33.015625 
Q 13.09375 35.9375 14.875 38.46875 
Q 16.65625 41.015625 19.265625 42.59375 
Q 21.875 44.1875 24.703125 44.1875 
Q 26.703125 44.1875 28.015625 43.28125 
Q 29.34375 42.390625 31.09375 40.484375 
Q 32.859375 38.578125 33.953125 37.75 
Q 35.0625 36.921875 36.71875 36.921875 
Q 38.921875 36.921875 40.65625 38.921875 
Q 42.390625 40.921875 44.09375 43.890625 
Q 44.390625 44.1875 44.828125 44.1875 
L 46 44.1875 
Q 46.34375 44.1875 46.5625 43.9375 
Q 46.78125 43.703125 46.78125 43.3125 
Q 46.78125 42.96875 46.578125 42.671875 
Q 43.890625 38.03125 40.296875 34 
Q 36.71875 29.984375 30.921875 24.78125 
Q 25.140625 19.578125 21.15625 15.984375 
Q 17.1875 12.40625 13.71875 8.59375 
Q 14.5 8.796875 15.828125 8.796875 
Q 18.265625 8.796875 22.484375 7.390625 
Q 26.703125 6 29 6 
Q 31.5 6 34.03125 7.078125 
Q 36.578125 8.15625 38.421875 10.109375 
Q 40.28125 12.0625 40.921875 14.59375 
Q 41.15625 15.28125 41.703125 15.28125 
L 42.921875 15.28125 
Q 43.3125 15.28125 43.546875 14.96875 
Q 43.796875 14.65625 43.796875 14.3125 
Q 43.796875 14.203125 43.703125 14.015625 
Q 42.78125 10.203125 40.484375 6.765625 
Q 38.1875 3.328125 34.84375 1.09375 
Q 31.5 -1.125 27.6875 -1.125 
Q 25.78125 -1.125 24.453125 -0.234375 
Q 23.140625 0.640625 21.359375 2.5625 
Q 19.578125 4.5 18.453125 5.34375 
Q 17.328125 6.203125 15.71875 6.203125 
Q 10.75 6.203125 6.78125 -0.78125 
Q 6.453125 -1.125 6.109375 -1.125 
z
" id="Cmmi10-122"/>
      <path d="M -2.484375 -19.390625 
Q -3.421875 -19.390625 -3.421875 -18.109375 
Q -3.078125 -15.921875 -2.09375 -15.921875 
Q 1.03125 -15.921875 2.265625 -15.359375 
Q 3.515625 -14.796875 4.203125 -12.5 
L 15.484375 32.515625 
Q 16.21875 34.375 16.21875 37.3125 
Q 16.21875 41.609375 13.28125 41.609375 
Q 10.15625 41.609375 8.640625 37.859375 
Q 7.125 34.125 5.71875 28.421875 
Q 5.71875 27.78125 4.890625 27.78125 
L 3.71875 27.78125 
Q 3.46875 27.78125 3.171875 28.140625 
Q 2.875 28.515625 2.875 28.8125 
Q 3.953125 33.15625 4.953125 36.171875 
Q 5.953125 39.203125 8.078125 41.6875 
Q 10.203125 44.1875 13.375 44.1875 
Q 16.796875 44.1875 19.375 42.25 
Q 21.96875 40.328125 22.703125 37.015625 
Q 25.4375 40.1875 28.75 42.1875 
Q 32.078125 44.1875 35.59375 44.1875 
Q 39.796875 44.1875 42.890625 41.9375 
Q 46 39.703125 47.5625 36.0625 
Q 49.125 32.421875 49.125 28.21875 
Q 49.125 21.78125 45.828125 14.890625 
Q 42.53125 8.015625 36.890625 3.4375 
Q 31.25 -1.125 24.8125 -1.125 
Q 21.875 -1.125 19.5 0.53125 
Q 17.140625 2.203125 15.828125 4.890625 
L 11.28125 -12.890625 
Q 11.03125 -14.359375 10.984375 -14.59375 
Q 10.984375 -15.921875 17.578125 -15.921875 
Q 18.609375 -15.921875 18.609375 -17.1875 
Q 18.265625 -18.5 18.046875 -18.9375 
Q 17.828125 -19.390625 16.890625 -19.390625 
z
M 24.90625 1.515625 
Q 28.375 1.515625 31.34375 4.375 
Q 34.328125 7.234375 36.1875 10.796875 
Q 37.546875 13.484375 38.734375 17.359375 
Q 39.9375 21.234375 40.8125 25.625 
Q 41.703125 30.03125 41.703125 32.625 
Q 41.703125 34.90625 41.09375 36.90625 
Q 40.484375 38.921875 39.09375 40.265625 
Q 37.703125 41.609375 35.40625 41.609375 
Q 31.734375 41.609375 28.484375 38.984375 
Q 25.25 36.375 22.609375 32.515625 
L 22.609375 32.171875 
L 17.09375 10.109375 
Q 17.78125 6.546875 19.734375 4.03125 
Q 21.6875 1.515625 24.90625 1.515625 
z
" id="Cmmi10-112"/>
      <path d="M 31 -24.8125 
Q 25.4375 -20.40625 21.40625 -14.71875 
Q 17.390625 -9.03125 14.8125 -2.578125 
Q 12.25 3.859375 10.984375 10.890625 
Q 9.71875 17.921875 9.71875 25 
Q 9.71875 32.171875 10.984375 39.203125 
Q 12.25 46.234375 14.859375 52.734375 
Q 17.484375 59.234375 21.53125 64.890625 
Q 25.59375 70.5625 31 74.8125 
Q 31 75 31.5 75 
L 32.421875 75 
Q 32.71875 75 32.953125 74.734375 
Q 33.203125 74.46875 33.203125 74.125 
Q 33.203125 73.6875 33.015625 73.484375 
Q 28.125 68.703125 24.875 63.234375 
Q 21.625 57.765625 19.640625 51.578125 
Q 17.671875 45.40625 16.796875 38.78125 
Q 15.921875 32.171875 15.921875 25 
Q 15.921875 -6.78125 32.90625 -23.296875 
Q 33.203125 -23.578125 33.203125 -24.125 
Q 33.203125 -24.359375 32.9375 -24.671875 
Q 32.671875 -25 32.421875 -25 
L 31.5 -25 
Q 31 -25 31 -24.8125 
z
" id="Cmr10-40"/>
      <path d="M 8.6875 6.109375 
Q 11.375 1.515625 19.484375 1.515625 
Q 23 1.515625 26.171875 2.703125 
Q 29.34375 3.90625 31.421875 6.296875 
Q 33.5 8.6875 33.5 12.109375 
Q 33.5 14.703125 31.640625 16.359375 
Q 29.78125 18.015625 27.09375 18.609375 
L 21.6875 19.671875 
Q 17.96875 20.609375 15.578125 23.140625 
Q 13.1875 25.6875 13.1875 29.296875 
Q 13.1875 33.734375 15.59375 37.15625 
Q 18.015625 40.578125 21.96875 42.375 
Q 25.921875 44.1875 30.171875 44.1875 
Q 34.71875 44.1875 38.296875 42.015625 
Q 41.890625 39.84375 41.890625 35.59375 
Q 41.890625 33.296875 40.59375 31.53125 
Q 39.3125 29.78125 37.015625 29.78125 
Q 35.6875 29.78125 34.734375 30.640625 
Q 33.796875 31.5 33.796875 32.8125 
Q 33.796875 33.984375 34.453125 35.078125 
Q 35.109375 36.1875 36.203125 36.84375 
Q 37.3125 37.5 38.484375 37.5 
Q 37.59375 39.65625 35.171875 40.625 
Q 32.765625 41.609375 29.984375 41.609375 
Q 27.4375 41.609375 24.890625 40.578125 
Q 22.359375 39.546875 20.8125 37.5625 
Q 19.28125 35.59375 19.28125 32.90625 
Q 19.28125 31.109375 20.546875 29.734375 
Q 21.828125 28.375 23.6875 27.78125 
L 29.5 26.609375 
Q 32.28125 26.03125 34.59375 24.53125 
Q 36.921875 23.046875 38.25 20.765625 
Q 39.59375 18.5 39.59375 15.578125 
Q 39.59375 11.859375 37.515625 8.25 
Q 35.453125 4.640625 32.421875 2.484375 
Q 27.09375 -1.125 19.390625 -1.125 
Q 14.0625 -1.125 9.609375 1.3125 
Q 5.171875 3.765625 5.171875 8.59375 
Q 5.171875 11.328125 6.75 13.34375 
Q 8.34375 15.375 11.078125 15.375 
Q 12.703125 15.375 13.796875 14.390625 
Q 14.890625 13.421875 14.890625 11.8125 
Q 14.890625 9.515625 13.171875 7.8125 
Q 11.46875 6.109375 9.1875 6.109375 
z
" id="Cmmi10-115"/>
      <path d="M 6.5 -25 
Q 5.609375 -25 5.609375 -24.125 
Q 5.609375 -23.6875 5.8125 -23.484375 
Q 22.90625 -6.78125 22.90625 25 
Q 22.90625 56.78125 6 73.296875 
Q 5.609375 73.53125 5.609375 74.125 
Q 5.609375 74.46875 5.875 74.734375 
Q 6.15625 75 6.5 75 
L 7.421875 75 
Q 7.71875 75 7.90625 74.8125 
Q 15.09375 69.140625 19.875 61.03125 
Q 24.65625 52.9375 26.875 43.75 
Q 29.109375 34.578125 29.109375 25 
Q 29.109375 17.921875 27.90625 11.0625 
Q 26.703125 4.203125 24.09375 -2.453125 
Q 21.484375 -9.125 17.484375 -14.765625 
Q 13.484375 -20.40625 7.90625 -24.8125 
Q 7.71875 -25 7.421875 -25 
z
" id="Cmr10-41"/>
     </defs>
     <g transform="translate(12.183125 77.971875)rotate(-90)scale(0.1 -0.1)">
      <use transform="translate(-11.597656 5.609375)" xlink:href="#Cmmi10-126"/>
      <use transform="translate(0 0.53125)" xlink:href="#Cmmi10-122"/>
      <use transform="translate(61.191233 38.795313)scale(0.7)" xlink:href="#Cmmi10-112"/>
      <use transform="translate(102.773655 0.53125)" xlink:href="#Cmr10-40"/>
      <use transform="translate(141.592015 0.53125)" xlink:href="#Cmmi10-115"/>
      <use transform="translate(188.369358 0.53125)" xlink:href="#Cmr10-41"/>
     </g>
    </g>
   </g>
   <g id="line2d_10">
    <path clip-path="url(#p5bef7960e4)" d="M 51.395455 33.442038 
L 53.111555 20.851107 
L 53.683588 17.561445 
L 54.255622 15.137498 
L 54.827655 13.625153 
L 55.399689 12.969533 
L 55.971722 13.004462 
L 56.543756 13.557393 
L 57.115789 14.559499 
L 57.687822 16.033602 
L 58.259856 18.041475 
L 58.831889 20.643008 
L 59.403923 23.903917 
L 60.54799 32.38764 
L 62.26409 48.519456 
L 63.98019 64.199208 
L 65.124257 72.206875 
L 66.268324 77.949189 
L 67.412391 82.049848 
L 69.128491 86.8956 
L 69.700525 88.239325 
L 70.272558 89.212955 
L 70.844592 89.53897 
L 71.416625 88.946107 
L 71.988659 87.197784 
L 72.560692 84.164621 
L 73.132725 79.84646 
L 74.276792 67.670708 
L 77.13696 30.533561 
L 77.708993 25.000089 
L 78.281027 20.937377 
L 78.85306 18.420104 
L 79.425093 17.327921 
L 79.997127 17.37606 
L 80.56916 18.217104 
L 81.713227 21.170826 
L 82.857294 24.344287 
L 84.001361 27.078938 
L 84.573394 28.756684 
L 85.145428 31.067024 
L 85.717461 34.315083 
L 86.289495 38.645454 
L 87.433562 50.208365 
L 89.721695 76.475627 
L 90.865762 85.952235 
L 91.437796 89.022794 
L 92.009829 90.758617 
L 92.581863 91.118455 
L 93.153896 90.187292 
L 93.72593 88.148048 
L 94.297963 85.227419 
L 95.44203 77.649236 
L 96.586097 69.809814 
L 97.15813 66.747607 
L 97.730164 64.7188 
L 98.302197 63.837194 
L 98.874231 64.059707 
L 99.446264 65.186431 
L 101.162364 70.428 
L 101.734398 71.474199 
L 102.306431 71.812745 
L 102.878465 71.542919 
L 103.450498 70.811041 
L 104.594565 68.877349 
L 105.166598 68.275721 
L 105.738632 68.166388 
L 106.310665 68.515905 
L 106.882699 69.198808 
L 108.026766 70.799354 
L 108.598799 71.18179 
L 109.170833 71.062293 
L 109.742866 70.397517 
L 110.886933 67.897225 
L 112.031 65.344586 
L 112.603033 64.672487 
L 113.175067 64.610002 
L 113.7471 65.149773 
L 114.319134 66.187322 
L 116.607267 71.676703 
L 117.179301 72.568349 
L 117.751334 73.060013 
L 118.323368 73.168896 
L 118.895401 72.924252 
L 119.467435 72.308023 
L 120.039468 71.305496 
L 121.183535 68.445944 
L 122.327602 65.538916 
L 122.899635 64.522532 
L 123.471669 63.9546 
L 124.043702 63.891525 
L 124.615736 64.465186 
L 125.187769 65.752462 
L 125.759803 67.708736 
L 126.903869 73.037284 
L 128.047936 78.224136 
L 128.61997 80.005773 
L 129.192003 81.068692 
L 129.764037 81.460909 
L 130.33607 81.393657 
L 131.480137 80.971106 
L 132.05217 81.03622 
L 132.624204 81.420626 
L 133.196237 82.181331 
L 134.340304 84.665458 
L 134.912338 85.880642 
L 135.484371 86.582126 
L 136.056405 86.41214 
L 136.628438 85.172351 
L 137.200471 82.879682 
L 138.344538 75.880109 
L 140.060639 64.349871 
L 140.632672 61.381528 
L 141.204706 59.026369 
L 141.776739 57.20926 
L 142.920806 54.661228 
L 144.064873 52.897184 
L 144.636906 52.30109 
L 145.20894 52.14565 
L 145.780973 52.788574 
L 146.353007 54.630465 
L 146.92504 57.976834 
L 147.497073 62.986705 
L 148.64114 77.304293 
L 150.357241 101.495577 
L 150.929274 107.580529 
L 151.501308 111.694089 
L 152.073341 113.560341 
L 152.645374 113.170072 
L 153.217408 110.759677 
L 153.789441 106.7686 
L 156.077575 87.382279 
L 156.649609 84.289573 
L 157.221642 82.470883 
L 157.793676 81.88975 
L 158.365709 82.391876 
L 158.937742 83.657663 
L 160.081809 86.696914 
L 160.653843 87.745563 
L 161.225876 88.113505 
L 161.79791 87.606622 
L 162.369943 86.196887 
L 162.941977 84.034201 
L 164.086043 78.030635 
L 165.802144 67.907992 
L 166.374177 65.376993 
L 166.946211 63.646652 
L 167.518244 62.85096 
L 168.090278 62.989493 
L 168.662311 63.973749 
L 169.234344 65.614701 
L 171.522478 74.110289 
L 172.094512 75.588527 
L 172.666545 76.595613 
L 173.238579 77.244587 
L 176.098746 79.473667 
L 176.670779 79.176437 
L 177.242813 77.835751 
L 177.814846 75.299998 
L 178.38688 71.617634 
L 179.530946 61.708579 
L 180.675013 50.974312 
L 181.247047 46.591881 
L 181.81908 43.445685 
L 182.391114 41.770109 
L 182.963147 41.654379 
L 183.535181 42.983481 
L 184.107214 45.478271 
L 186.395348 57.880395 
L 186.967381 59.601459 
L 187.539415 60.377665 
L 188.111448 60.174569 
L 188.683482 59.056912 
L 189.255515 57.232668 
L 190.399582 52.781696 
L 190.971615 51.01984 
L 191.543649 50.195433 
L 192.115682 50.671896 
L 192.687716 52.637197 
L 193.259749 56.099717 
L 193.831783 60.882962 
L 196.119916 84.182717 
L 196.69195 88.380562 
L 197.263983 91.151696 
L 197.836017 92.380222 
L 198.40805 92.17506 
L 198.980084 90.795256 
L 199.552117 88.548142 
L 200.696184 82.48075 
L 202.412284 71.674257 
L 204.700418 56.609839 
L 205.844485 50.956111 
L 206.416518 49.164591 
L 206.988552 48.329008 
L 207.560585 48.588563 
L 208.132619 49.867139 
L 208.704652 51.935665 
L 210.420753 59.424207 
L 210.992786 61.250201 
L 211.564819 62.291755 
L 212.136853 62.339226 
L 212.708886 61.3609 
L 213.28092 59.439402 
L 214.99702 51.488663 
L 215.569054 49.647454 
L 216.141087 48.695247 
L 216.71312 48.743062 
L 217.285154 49.761578 
L 217.857187 51.656859 
L 220.145321 61.434553 
L 220.717355 63.000831 
L 221.289388 63.962655 
L 221.861421 64.348413 
L 222.433455 64.145844 
L 223.005488 63.422102 
L 223.577522 62.344526 
L 224.721589 59.332247 
L 225.865656 55.963342 
L 226.437689 54.649064 
L 227.009722 53.814491 
L 227.581756 53.569071 
L 228.153789 53.942247 
L 228.725823 54.89784 
L 229.297856 56.319704 
L 230.441923 59.949878 
L 233.30209 70.325599 
L 234.446157 75.449106 
L 235.590224 82.107546 
L 236.734291 90.415668 
L 239.022425 108.530968 
L 239.594458 111.890363 
L 240.166492 114.076294 
L 240.738525 114.919001 
L 241.310559 114.332566 
L 241.882592 112.276598 
L 242.454626 108.860016 
L 243.598692 99.134686 
L 244.742759 88.865705 
L 245.314793 84.88625 
L 245.886826 82.127247 
L 246.45886 80.64161 
L 247.030893 80.320599 
L 247.602927 80.978147 
L 248.17496 82.376551 
L 249.89106 87.415436 
L 250.463094 88.233295 
L 251.035127 88.112506 
L 251.607161 86.858846 
L 252.179194 84.413161 
L 252.751228 80.831854 
L 253.895294 71.338757 
L 255.611395 55.723605 
L 256.183428 51.283614 
L 256.755462 47.830214 
L 257.327495 45.627584 
L 257.899529 44.808814 
L 258.471562 45.43014 
L 259.043595 47.396135 
L 259.615629 50.555158 
L 260.759696 59.284866 
L 262.475796 72.941448 
L 263.04783 76.466643 
L 263.619863 79.274022 
L 264.191896 81.392774 
L 264.76393 82.98061 
L 265.335963 84.147584 
L 265.907997 84.995102 
L 266.48003 85.557975 
L 267.052064 85.907434 
L 268.196131 86.186745 
L 269.340197 86.30794 
L 269.912231 86.632757 
L 270.484264 87.283012 
L 271.056298 88.327864 
L 272.772398 92.312948 
L 273.344432 92.600031 
L 273.916465 91.736843 
L 274.488498 89.531158 
L 275.060532 85.956562 
L 276.204599 75.717074 
L 277.920699 59.249644 
L 278.492733 55.500965 
L 279.064766 53.2228 
L 279.6368 52.554636 
L 280.208833 53.523352 
L 280.780866 55.987303 
L 281.924933 63.91634 
L 283.069 72.51461 
L 283.641034 76.102822 
L 284.213067 78.962249 
L 284.785101 81.036625 
L 285.357134 82.386009 
L 285.929167 83.198257 
L 286.501201 83.622463 
L 287.073234 83.768084 
L 287.645268 83.687629 
L 288.217301 83.38706 
L 288.789335 82.888072 
L 289.361368 82.214991 
L 290.505435 80.319717 
L 291.649502 77.524878 
L 295.081703 67.542081 
L 295.653736 66.499831 
L 296.225769 65.801581 
L 296.797803 65.415372 
L 297.369836 65.281796 
L 297.94187 65.433257 
L 298.513903 65.960172 
L 299.085937 66.959001 
L 299.65797 68.416612 
L 300.802037 72.219005 
L 301.946104 76.187089 
L 302.518137 77.484814 
L 303.090171 77.875256 
L 303.662204 77.170362 
L 304.234238 75.215078 
L 304.806271 71.886356 
L 305.378305 67.216199 
L 306.522371 54.844342 
L 308.238472 35.312056 
L 308.810505 30.283067 
L 309.382539 26.534642 
L 309.954572 24.173514 
L 310.526606 23.158792 
L 311.098639 23.328953 
L 311.670672 24.515237 
L 312.242706 26.466569 
L 313.386773 31.742102 
L 316.24694 47.194275 
L 317.96304 56.278403 
L 319.107107 60.941131 
L 321.967275 70.653789 
L 323.111341 76.15775 
L 324.255408 81.840744 
L 324.827442 84.154113 
L 325.399475 85.749862 
L 325.971509 86.377658 
L 326.543542 85.910961 
L 327.115576 84.301321 
L 327.687609 81.676614 
L 328.831676 74.670665 
L 330.547776 64.189882 
L 333.407943 49.642645 
L 335.124044 37.763855 
L 336.268111 30.331508 
L 336.840144 27.645228 
L 337.412178 26.024323 
L 337.984211 25.627994 
L 338.556244 26.457537 
L 339.128278 28.344097 
L 340.272345 34.143196 
L 341.416412 39.748067 
L 341.988445 41.238011 
L 342.560479 41.338676 
L 343.132512 39.945132 
L 343.704545 37.202251 
L 343.704545 37.202251 
" style="fill:none;stroke:#2ca02c;stroke-linecap:square;stroke-width:0.75;"/>
   </g>
   <g id="line2d_11">
    <path clip-path="url(#p5bef7960e4)" d="M 51.395455 56.083251 
L 51.967488 57.964049 
L 53.111555 63.787675 
L 53.683588 66.807406 
L 54.255622 69.19398 
L 54.827655 70.450575 
L 55.399689 70.227362 
L 55.971722 68.44973 
L 56.543756 65.240238 
L 57.687822 56.240292 
L 58.831889 47.921567 
L 59.403923 45.661968 
L 59.975956 45.27482 
L 60.54799 46.836993 
L 61.120023 50.110082 
L 62.26409 59.933131 
L 63.408157 70.325262 
L 63.98019 74.25003 
L 64.552224 76.764962 
L 65.124257 77.752015 
L 65.696291 77.427394 
L 66.268324 76.106083 
L 66.840358 74.082931 
L 67.984424 68.843802 
L 70.272558 57.982396 
L 71.416625 53.540315 
L 72.560692 50.025025 
L 73.132725 48.730185 
L 73.704759 47.980071 
L 74.276792 47.925615 
L 74.848826 48.670341 
L 75.420859 50.176062 
L 75.992893 52.407602 
L 77.13696 58.52602 
L 79.425093 72.300098 
L 79.997127 74.880885 
L 80.56916 76.792489 
L 81.141194 78.010228 
L 81.713227 78.570039 
L 82.285261 78.551178 
L 82.857294 77.959105 
L 83.429328 76.715257 
L 84.001361 74.869924 
L 87.433562 61.817749 
L 88.005595 60.638958 
L 88.577629 60.000027 
L 89.149662 59.7714 
L 89.721695 59.853118 
L 90.293729 60.231467 
L 90.865762 60.938919 
L 91.437796 62.0789 
L 92.009829 63.772696 
L 93.153896 68.682038 
L 94.297963 74.200819 
L 94.869996 76.265332 
L 95.44203 77.406142 
L 96.014063 77.348456 
L 96.586097 75.97116 
L 97.15813 73.247816 
L 97.730164 69.332448 
L 99.446264 55.271662 
L 100.018297 51.878019 
L 100.590331 49.865875 
L 101.162364 49.247333 
L 101.734398 49.808731 
L 102.306431 51.159313 
L 104.594565 57.880095 
L 105.166598 59.035112 
L 105.738632 59.849226 
L 106.310665 60.253154 
L 106.882699 60.286949 
L 107.454732 59.983789 
L 108.026766 59.391592 
L 108.598799 58.557208 
L 109.742866 56.172702 
L 110.886933 53.636997 
L 111.458966 52.789901 
L 112.031 52.504683 
L 112.603033 52.864168 
L 113.175067 53.819969 
L 114.319134 56.77551 
L 115.4632 59.812224 
L 116.035234 61.029531 
L 116.607267 61.951636 
L 117.179301 62.536513 
L 117.751334 62.657818 
L 118.323368 62.154419 
L 118.895401 61.01405 
L 119.467435 59.334049 
L 120.611502 54.879305 
L 121.755568 50.051007 
L 122.327602 47.993293 
L 122.899635 46.527427 
L 123.471669 45.859119 
L 124.043702 46.000987 
L 124.615736 46.861587 
L 125.187769 48.358219 
L 126.331836 52.885688 
L 129.192003 65.80522 
L 129.764037 67.65362 
L 130.33607 68.79155 
L 130.908104 69.056526 
L 131.480137 68.319969 
L 132.05217 66.553436 
L 132.624204 63.837537 
L 133.768271 56.361464 
L 134.912338 48.934594 
L 135.484371 46.469025 
L 136.056405 45.25236 
L 136.628438 45.308182 
L 137.200471 46.425261 
L 137.772505 48.361836 
L 138.916572 53.118547 
L 139.488605 55.005992 
L 140.060639 55.968739 
L 140.632672 55.703595 
L 141.204706 54.136289 
L 141.776739 51.478043 
L 143.492839 41.334296 
L 144.064873 39.383246 
L 144.636906 39.18826 
L 145.20894 41.124937 
L 145.780973 45.255253 
L 146.353007 51.342258 
L 149.213174 87.831616 
L 149.785207 91.881823 
L 150.357241 94.168732 
L 150.929274 94.88139 
L 151.501308 94.374018 
L 153.217408 90.534419 
L 153.789441 89.849377 
L 154.361475 89.734835 
L 154.933508 90.138448 
L 155.505542 90.983522 
L 157.221642 94.318616 
L 157.793676 94.911079 
L 158.365709 94.912749 
L 158.937742 94.264522 
L 159.509776 93.052875 
L 162.369943 85.132857 
L 162.941977 84.28957 
L 163.51401 83.736427 
L 164.658077 83.217679 
L 165.802144 82.68349 
L 166.374177 82.169372 
L 166.946211 81.216733 
L 167.518244 79.651667 
L 168.662311 74.870557 
L 169.806378 69.457914 
L 170.378411 67.224478 
L 170.950445 65.574539 
L 171.522478 64.64951 
L 172.094512 64.520554 
L 172.666545 65.141649 
L 173.238579 66.357972 
L 174.954679 70.778279 
L 175.526712 71.688591 
L 176.098746 72.128467 
L 176.670779 72.1115 
L 177.242813 71.676908 
L 177.814846 70.891246 
L 178.958913 68.615872 
L 180.10298 66.19848 
L 180.675013 65.185195 
L 181.247047 64.548197 
L 181.81908 64.49603 
L 182.391114 65.093678 
L 182.963147 66.31749 
L 183.535181 68.147478 
L 186.395348 79.526289 
L 187.539415 82.20649 
L 188.111448 83.137321 
L 188.683482 83.786352 
L 189.255515 84.143107 
L 189.827548 84.192302 
L 190.399582 83.786268 
L 190.971615 82.767864 
L 191.543649 81.051446 
L 192.115682 78.654364 
L 194.403816 66.61982 
L 194.975849 64.572475 
L 195.547883 63.407757 
L 196.119916 63.232623 
L 196.69195 64.057149 
L 197.263983 65.75959 
L 198.40805 70.624807 
L 200.696184 80.942879 
L 204.128385 95.096293 
L 204.700418 96.740311 
L 205.272452 97.96023 
L 205.844485 98.713657 
L 206.416518 98.986265 
L 206.988552 98.766288 
L 207.560585 98.046102 
L 208.132619 96.766788 
L 208.704652 94.862918 
L 209.276686 92.32238 
L 210.420753 85.569504 
L 211.564819 77.063337 
L 212.708886 68.41608 
L 213.28092 65.159949 
L 213.852953 63.092386 
L 214.424987 62.348268 
L 214.99702 62.875885 
L 215.569054 64.518102 
L 216.71312 69.846118 
L 217.285154 72.663126 
L 217.857187 74.85834 
L 218.429221 76.048623 
L 219.001254 76.073392 
L 219.573288 74.955025 
L 220.145321 72.913732 
L 221.289388 67.861307 
L 221.861421 65.894875 
L 222.433455 64.962021 
L 223.005488 65.414812 
L 223.577522 67.375654 
L 224.149555 70.795509 
L 225.293622 80.795664 
L 226.437689 91.841013 
L 227.581756 100.648312 
L 228.153789 103.766987 
L 228.725823 105.931811 
L 229.297856 107.146662 
L 229.86989 107.502864 
L 230.441923 107.059811 
L 231.013957 105.837031 
L 231.58599 103.854266 
L 232.158023 101.203226 
L 233.30209 94.20382 
L 234.446157 85.266375 
L 236.734291 66.51586 
L 237.878358 58.483364 
L 239.022425 51.830582 
L 240.166492 46.502452 
L 240.738525 44.436191 
L 241.310559 42.975181 
L 241.882592 42.198742 
L 242.454626 42.025936 
L 243.026659 42.303082 
L 244.742759 43.945253 
L 245.314793 43.996004 
L 245.886826 43.486491 
L 246.45886 42.329445 
L 247.030893 40.480339 
L 248.17496 35.209142 
L 249.319027 30.232969 
L 249.89106 28.967047 
L 250.463094 28.974856 
L 251.035127 30.386641 
L 251.607161 33.217453 
L 252.179194 37.372595 
L 254.467328 57.512805 
L 255.039361 60.49185 
L 255.611395 61.710142 
L 256.183428 61.102783 
L 256.755462 58.851172 
L 257.327495 55.358763 
L 259.043595 43.115155 
L 259.615629 40.477464 
L 260.187662 39.343832 
L 260.759696 39.867861 
L 261.331729 42.003816 
L 261.903763 45.50903 
L 263.04783 54.979663 
L 264.191896 64.825113 
L 265.335963 72.566943 
L 266.48003 77.835588 
L 267.624097 81.295308 
L 268.196131 82.558768 
L 268.768164 83.489755 
L 269.340197 84.050908 
L 269.912231 84.134881 
L 270.484264 83.680977 
L 271.056298 82.680879 
L 272.200365 79.451108 
L 273.344432 75.853552 
L 273.916465 74.56692 
L 274.488498 73.914392 
L 275.060532 74.046084 
L 275.632565 74.962176 
L 276.204599 76.560017 
L 278.492733 84.831117 
L 279.064766 86.136897 
L 279.6368 86.904439 
L 280.208833 87.053717 
L 280.780866 86.539751 
L 281.3529 85.45606 
L 282.496967 82.333531 
L 284.785101 75.051484 
L 285.929167 71.401727 
L 287.645268 66.929704 
L 288.789335 63.793933 
L 289.933402 59.651773 
L 292.221535 49.641574 
L 292.793569 47.984422 
L 293.365602 47.135157 
L 293.937636 47.175867 
L 294.509669 48.14245 
L 295.081703 49.944377 
L 296.797803 56.997892 
L 297.369836 58.500072 
L 297.94187 58.92011 
L 298.513903 58.025743 
L 299.085937 55.751247 
L 299.65797 52.298726 
L 301.946104 36.078311 
L 302.518137 33.767383 
L 303.090171 32.681685 
L 303.662204 32.848713 
L 304.234238 34.187001 
L 304.806271 36.507676 
L 305.950338 43.024671 
L 307.666438 53.096608 
L 308.810505 58.068299 
L 309.954572 61.636073 
L 311.670672 66.19088 
L 312.242706 68.063439 
L 312.814739 70.360771 
L 313.958806 76.280027 
L 315.674907 87.267773 
L 318.535074 106.270986 
L 319.679141 112.556953 
L 320.823208 117.167095 
L 321.395241 118.663178 
L 321.967275 119.377591 
L 322.539308 119.153414 
L 323.111341 117.878576 
L 323.683375 115.490211 
L 324.255408 111.948414 
L 325.399475 101.822026 
L 328.259642 72.520562 
L 328.831676 68.703309 
L 329.403709 66.1736 
L 329.975743 64.971673 
L 330.547776 65.048727 
L 331.11981 66.269931 
L 331.691843 68.470292 
L 332.83591 74.898913 
L 335.124044 89.202161 
L 335.696077 91.676385 
L 336.268111 93.323714 
L 336.840144 94.010348 
L 337.412178 93.644251 
L 337.984211 92.181386 
L 338.556244 89.635512 
L 339.128278 86.09175 
L 340.272345 76.841063 
L 341.988445 62.096373 
L 342.560479 58.52341 
L 343.132512 56.255691 
L 343.704545 55.448925 
L 343.704545 55.448925 
" style="fill:none;stroke:#2ca02c;stroke-dasharray:0.75,1.2375;stroke-dashoffset:0;stroke-width:0.75;"/>
   </g>
   <g id="patch_3">
    <path d="M 36.78 131.46375 
L 36.78 1.68 
" style="fill:none;stroke:#000000;stroke-linecap:square;stroke-linejoin:miter;stroke-width:0.5;"/>
   </g>
   <g id="patch_4">
    <path d="M 358.32 131.46375 
L 358.32 1.68 
" style="fill:none;stroke:#000000;stroke-linecap:square;stroke-linejoin:miter;stroke-width:0.5;"/>
   </g>
   <g id="patch_5">
    <path d="M 36.78 131.46375 
L 358.32 131.46375 
" style="fill:none;stroke:#000000;stroke-linecap:square;stroke-linejoin:miter;stroke-width:0.5;"/>
   </g>
   <g id="patch_6">
    <path d="M 36.78 1.68 
L 358.32 1.68 
" style="fill:none;stroke:#000000;stroke-linecap:square;stroke-linejoin:miter;stroke-width:0.5;"/>
   </g>
   <g id="legend_1">
    <g id="line2d_12">
     <path d="M 150.03 11.68 
L 166.03 11.68 
" style="fill:none;stroke:#2ca02c;stroke-linecap:square;stroke-width:0.75;"/>
    </g>
    <g id="line2d_13"/>
    <g id="text_11">
     <!-- $p=1$ -->
     <defs>
      <path d="M 7.515625 13.28125 
Q 6.6875 13.28125 6.140625 13.90625 
Q 5.609375 14.546875 5.609375 15.28125 
Q 5.609375 16.109375 6.140625 16.6875 
Q 6.6875 17.28125 7.515625 17.28125 
L 70.3125 17.28125 
Q 71.046875 17.28125 71.578125 16.6875 
Q 72.125 16.109375 72.125 15.28125 
Q 72.125 14.546875 71.578125 13.90625 
Q 71.046875 13.28125 70.3125 13.28125 
z
M 7.515625 32.71875 
Q 6.6875 32.71875 6.140625 33.296875 
Q 5.609375 33.890625 5.609375 34.71875 
Q 5.609375 35.453125 6.140625 36.078125 
Q 6.6875 36.71875 7.515625 36.71875 
L 70.3125 36.71875 
Q 71.046875 36.71875 71.578125 36.078125 
Q 72.125 35.453125 72.125 34.71875 
Q 72.125 33.890625 71.578125 33.296875 
Q 71.046875 32.71875 70.3125 32.71875 
z
" id="Cmr10-61"/>
      <path d="M 9.28125 0 
L 9.28125 3.515625 
Q 21.78125 3.515625 21.78125 6.6875 
L 21.78125 59.1875 
Q 16.609375 56.6875 8.6875 56.6875 
L 8.6875 60.203125 
Q 20.953125 60.203125 27.203125 66.609375 
L 28.609375 66.609375 
Q 28.953125 66.609375 29.265625 66.328125 
Q 29.59375 66.0625 29.59375 65.71875 
L 29.59375 6.6875 
Q 29.59375 3.515625 42.09375 3.515625 
L 42.09375 0 
z
" id="Cmr10-49"/>
     </defs>
     <g transform="translate(172.43 14.48)scale(0.08 -0.08)">
      <use transform="translate(0 0.390625)" xlink:href="#Cmmi10-112"/>
      <use transform="translate(67.851562 0.390625)" xlink:href="#Cmr10-61"/>
      <use transform="translate(163.095703 0.390625)" xlink:href="#Cmr10-49"/>
     </g>
    </g>
    <g id="line2d_14">
     <path d="M 205.55 11.68 
L 221.55 11.68 
" style="fill:none;stroke:#2ca02c;stroke-dasharray:0.75,1.2375;stroke-dashoffset:0;stroke-width:0.75;"/>
    </g>
    <g id="line2d_15"/>
    <g id="text_12">
     <!-- $p=2$ -->
     <defs>
      <path d="M 4.984375 0 
L 4.984375 2.6875 
Q 4.984375 2.9375 5.171875 3.21875 
L 20.703125 20.40625 
Q 24.21875 24.21875 26.40625 26.796875 
Q 28.609375 29.390625 30.75 32.765625 
Q 32.90625 36.140625 34.15625 39.625 
Q 35.40625 43.109375 35.40625 47.015625 
Q 35.40625 51.125 33.890625 54.859375 
Q 32.375 58.59375 29.375 60.84375 
Q 26.375 63.09375 22.125 63.09375 
Q 17.78125 63.09375 14.3125 60.46875 
Q 10.84375 57.859375 9.421875 53.71875 
Q 9.8125 53.8125 10.5 53.8125 
Q 12.75 53.8125 14.328125 52.296875 
Q 15.921875 50.78125 15.921875 48.390625 
Q 15.921875 46.09375 14.328125 44.5 
Q 12.75 42.921875 10.5 42.921875 
Q 8.15625 42.921875 6.5625 44.546875 
Q 4.984375 46.1875 4.984375 48.390625 
Q 4.984375 52.15625 6.390625 55.4375 
Q 7.8125 58.734375 10.46875 61.296875 
Q 13.140625 63.875 16.484375 65.234375 
Q 19.828125 66.609375 23.578125 66.609375 
Q 29.296875 66.609375 34.21875 64.1875 
Q 39.15625 61.765625 42.03125 57.34375 
Q 44.921875 52.9375 44.921875 47.015625 
Q 44.921875 42.671875 43.015625 38.765625 
Q 41.109375 34.859375 38.125 31.65625 
Q 35.15625 28.46875 30.515625 24.40625 
Q 25.875 20.359375 24.421875 19 
L 13.09375 8.109375 
L 22.703125 8.109375 
Q 29.78125 8.109375 34.546875 8.21875 
Q 39.3125 8.34375 39.59375 8.59375 
Q 40.765625 9.859375 42 17.828125 
L 44.921875 17.828125 
L 42.09375 0 
z
" id="Cmr10-50"/>
     </defs>
     <g transform="translate(227.95 14.48)scale(0.08 -0.08)">
      <use transform="translate(0 0.390625)" xlink:href="#Cmmi10-112"/>
      <use transform="translate(67.851562 0.390625)" xlink:href="#Cmr10-61"/>
      <use transform="translate(163.095703 0.390625)" xlink:href="#Cmr10-50"/>
     </g>
    </g>
   </g>
  </g>
  <g id="axes_2">
   <g id="patch_7">
    <path d="M 36.78 264.6075 
L 358.32 264.6075 
L 358.32 134.82375 
L 36.78 134.82375 
z
" style="fill:#ffffff;"/>
   </g>
   <g id="matplotlib.axis_3">
    <g id="xtick_1">
     <g id="line2d_16">
      <defs>
       <path d="M 0 0 
L 0 3.5 
" id="ma4faddf90f" style="stroke:#000000;stroke-width:0.8;"/>
      </defs>
      <g>
       <use style="stroke:#000000;stroke-width:0.8;" x="51.395455" xlink:href="#ma4faddf90f" y="264.6075"/>
      </g>
     </g>
     <g id="text_13">
      <!-- 0.0 -->
      <g transform="translate(47.32483 275.771875)scale(0.06 -0.06)">
       <use xlink:href="#LMRoman8-Regular-48"/>
       <use x="53.099991" xlink:href="#LMRoman8-Regular-46"/>
       <use x="82.599976" xlink:href="#LMRoman8-Regular-48"/>
      </g>
     </g>
    </g>
    <g id="xtick_2">
     <g id="line2d_17">
      <g>
       <use style="stroke:#000000;stroke-width:0.8;" x="109.857273" xlink:href="#ma4faddf90f" y="264.6075"/>
      </g>
     </g>
     <g id="text_14">
      <!-- 0.2 -->
      <g transform="translate(105.786648 275.771875)scale(0.06 -0.06)">
       <use xlink:href="#LMRoman8-Regular-48"/>
       <use x="53.099991" xlink:href="#LMRoman8-Regular-46"/>
       <use x="82.599976" xlink:href="#LMRoman8-Regular-50"/>
      </g>
     </g>
    </g>
    <g id="xtick_3">
     <g id="line2d_18">
      <g>
       <use style="stroke:#000000;stroke-width:0.8;" x="168.319091" xlink:href="#ma4faddf90f" y="264.6075"/>
      </g>
     </g>
     <g id="text_15">
      <!-- 0.4 -->
      <g transform="translate(164.248466 275.771875)scale(0.06 -0.06)">
       <use xlink:href="#LMRoman8-Regular-48"/>
       <use x="53.099991" xlink:href="#LMRoman8-Regular-46"/>
       <use x="82.599976" xlink:href="#LMRoman8-Regular-52"/>
      </g>
     </g>
    </g>
    <g id="xtick_4">
     <g id="line2d_19">
      <g>
       <use style="stroke:#000000;stroke-width:0.8;" x="226.780909" xlink:href="#ma4faddf90f" y="264.6075"/>
      </g>
     </g>
     <g id="text_16">
      <!-- 0.6 -->
      <g transform="translate(222.710284 275.771875)scale(0.06 -0.06)">
       <use xlink:href="#LMRoman8-Regular-48"/>
       <use x="53.099991" xlink:href="#LMRoman8-Regular-46"/>
       <use x="82.599976" xlink:href="#LMRoman8-Regular-54"/>
      </g>
     </g>
    </g>
    <g id="xtick_5">
     <g id="line2d_20">
      <g>
       <use style="stroke:#000000;stroke-width:0.8;" x="285.242727" xlink:href="#ma4faddf90f" y="264.6075"/>
      </g>
     </g>
     <g id="text_17">
      <!-- 0.8 -->
      <g transform="translate(281.172102 275.771875)scale(0.06 -0.06)">
       <use xlink:href="#LMRoman8-Regular-48"/>
       <use x="53.099991" xlink:href="#LMRoman8-Regular-46"/>
       <use x="82.599976" xlink:href="#LMRoman8-Regular-56"/>
      </g>
     </g>
    </g>
    <g id="xtick_6">
     <g id="line2d_21">
      <g>
       <use style="stroke:#000000;stroke-width:0.8;" x="343.704545" xlink:href="#ma4faddf90f" y="264.6075"/>
      </g>
     </g>
     <g id="text_18">
      <!-- 1.0 -->
      <defs>
       <path d="M 44.703125 0 
L 44.703125 3.296875 
L 41.203125 3.296875 
C 31.703125 3.296875 31.40625 4.5 31.40625 8.203125 
L 31.40625 63.703125 
C 31.40625 66.40625 31.203125 66.5 28.5 66.5 
C 24.40625 62.5 19.09375 60.09375 9.59375 60.09375 
L 9.59375 56.796875 
C 12.296875 56.796875 17.703125 56.796875 23.5 59.5 
L 23.5 8.203125 
C 23.5 4.5 23.203125 3.296875 13.703125 3.296875 
L 10.203125 3.296875 
L 10.203125 0 
C 14.296875 0.296875 22.90625 0.296875 27.40625 0.296875 
C 31.90625 0.296875 40.59375 0.296875 44.703125 0 
z
" id="LMRoman8-Regular-49"/>
      </defs>
      <g transform="translate(339.63392 275.771875)scale(0.06 -0.06)">
       <use xlink:href="#LMRoman8-Regular-49"/>
       <use x="53.099991" xlink:href="#LMRoman8-Regular-46"/>
       <use x="82.599976" xlink:href="#LMRoman8-Regular-48"/>
      </g>
     </g>
    </g>
    <g id="text_19">
     <!-- $s$ -->
     <g transform="translate(195.2 285.876875)scale(0.1 -0.1)">
      <use transform="translate(0 0.8125)" xlink:href="#Cmmi10-115"/>
     </g>
    </g>
   </g>
   <g id="matplotlib.axis_4">
    <g id="ytick_10">
     <g id="line2d_22">
      <g>
       <use style="stroke:#000000;stroke-width:0.8;" x="36.78" xlink:href="#mf3a1c62bb2" y="257.397292"/>
      </g>
     </g>
     <g id="text_20">
      <!-- −0.8 -->
      <g transform="translate(16.683125 259.479479)scale(0.06 -0.06)">
       <use xlink:href="#LMRoman8-Regular-8722"/>
       <use x="82.599991" xlink:href="#LMRoman8-Regular-48"/>
       <use x="135.699982" xlink:href="#LMRoman8-Regular-46"/>
       <use x="165.199966" xlink:href="#LMRoman8-Regular-56"/>
      </g>
     </g>
    </g>
    <g id="ytick_11">
     <g id="line2d_23">
      <g>
       <use style="stroke:#000000;stroke-width:0.8;" x="36.78" xlink:href="#mf3a1c62bb2" y="242.976875"/>
      </g>
     </g>
     <g id="text_21">
      <!-- −0.6 -->
      <g transform="translate(16.683125 245.059063)scale(0.06 -0.06)">
       <use xlink:href="#LMRoman8-Regular-8722"/>
       <use x="82.599991" xlink:href="#LMRoman8-Regular-48"/>
       <use x="135.699982" xlink:href="#LMRoman8-Regular-46"/>
       <use x="165.199966" xlink:href="#LMRoman8-Regular-54"/>
      </g>
     </g>
    </g>
    <g id="ytick_12">
     <g id="line2d_24">
      <g>
       <use style="stroke:#000000;stroke-width:0.8;" x="36.78" xlink:href="#mf3a1c62bb2" y="228.556458"/>
      </g>
     </g>
     <g id="text_22">
      <!-- −0.4 -->
      <g transform="translate(16.683125 230.638646)scale(0.06 -0.06)">
       <use xlink:href="#LMRoman8-Regular-8722"/>
       <use x="82.599991" xlink:href="#LMRoman8-Regular-48"/>
       <use x="135.699982" xlink:href="#LMRoman8-Regular-46"/>
       <use x="165.199966" xlink:href="#LMRoman8-Regular-52"/>
      </g>
     </g>
    </g>
    <g id="ytick_13">
     <g id="line2d_25">
      <g>
       <use style="stroke:#000000;stroke-width:0.8;" x="36.78" xlink:href="#mf3a1c62bb2" y="214.136042"/>
      </g>
     </g>
     <g id="text_23">
      <!-- −0.2 -->
      <g transform="translate(16.683125 216.218229)scale(0.06 -0.06)">
       <use xlink:href="#LMRoman8-Regular-8722"/>
       <use x="82.599991" xlink:href="#LMRoman8-Regular-48"/>
       <use x="135.699982" xlink:href="#LMRoman8-Regular-46"/>
       <use x="165.199966" xlink:href="#LMRoman8-Regular-50"/>
      </g>
     </g>
    </g>
    <g id="ytick_14">
     <g id="line2d_26">
      <g>
       <use style="stroke:#000000;stroke-width:0.8;" x="36.78" xlink:href="#mf3a1c62bb2" y="199.715625"/>
      </g>
     </g>
     <g id="text_24">
      <!-- 0.0 -->
      <g transform="translate(21.63875 201.797813)scale(0.06 -0.06)">
       <use xlink:href="#LMRoman8-Regular-48"/>
       <use x="53.099991" xlink:href="#LMRoman8-Regular-46"/>
       <use x="82.599976" xlink:href="#LMRoman8-Regular-48"/>
      </g>
     </g>
    </g>
    <g id="ytick_15">
     <g id="line2d_27">
      <g>
       <use style="stroke:#000000;stroke-width:0.8;" x="36.78" xlink:href="#mf3a1c62bb2" y="185.295208"/>
      </g>
     </g>
     <g id="text_25">
      <!-- 0.2 -->
      <g transform="translate(21.63875 187.377396)scale(0.06 -0.06)">
       <use xlink:href="#LMRoman8-Regular-48"/>
       <use x="53.099991" xlink:href="#LMRoman8-Regular-46"/>
       <use x="82.599976" xlink:href="#LMRoman8-Regular-50"/>
      </g>
     </g>
    </g>
    <g id="ytick_16">
     <g id="line2d_28">
      <g>
       <use style="stroke:#000000;stroke-width:0.8;" x="36.78" xlink:href="#mf3a1c62bb2" y="170.874792"/>
      </g>
     </g>
     <g id="text_26">
      <!-- 0.4 -->
      <g transform="translate(21.63875 172.956979)scale(0.06 -0.06)">
       <use xlink:href="#LMRoman8-Regular-48"/>
       <use x="53.099991" xlink:href="#LMRoman8-Regular-46"/>
       <use x="82.599976" xlink:href="#LMRoman8-Regular-52"/>
      </g>
     </g>
    </g>
    <g id="ytick_17">
     <g id="line2d_29">
      <g>
       <use style="stroke:#000000;stroke-width:0.8;" x="36.78" xlink:href="#mf3a1c62bb2" y="156.454375"/>
      </g>
     </g>
     <g id="text_27">
      <!-- 0.6 -->
      <g transform="translate(21.63875 158.536563)scale(0.06 -0.06)">
       <use xlink:href="#LMRoman8-Regular-48"/>
       <use x="53.099991" xlink:href="#LMRoman8-Regular-46"/>
       <use x="82.599976" xlink:href="#LMRoman8-Regular-54"/>
      </g>
     </g>
    </g>
    <g id="ytick_18">
     <g id="line2d_30">
      <g>
       <use style="stroke:#000000;stroke-width:0.8;" x="36.78" xlink:href="#mf3a1c62bb2" y="142.033958"/>
      </g>
     </g>
     <g id="text_28">
      <!-- 0.8 -->
      <g transform="translate(21.63875 144.116146)scale(0.06 -0.06)">
       <use xlink:href="#LMRoman8-Regular-48"/>
       <use x="53.099991" xlink:href="#LMRoman8-Regular-46"/>
       <use x="82.599976" xlink:href="#LMRoman8-Regular-56"/>
      </g>
     </g>
    </g>
    <g id="text_29">
     <!-- $z^{\,p}(s)$ -->
     <g transform="translate(12.183125 211.215625)rotate(-90)scale(0.1 -0.1)">
      <use xlink:href="#Cmmi10-122"/>
      <use transform="translate(63.030374 38.264063)scale(0.7)" xlink:href="#Cmmi10-112"/>
      <use transform="translate(104.612796 0)" xlink:href="#Cmr10-40"/>
      <use transform="translate(143.431155 0)" xlink:href="#Cmmi10-115"/>
      <use transform="translate(190.208499 0)" xlink:href="#Cmr10-41"/>
     </g>
    </g>
   </g>
   <g id="line2d_31">
    <path clip-path="url(#p90599cb4c8)" d="M 51.395455 187.525365 
L 51.967488 188.94254 
L 53.111555 193.704459 
L 53.683588 196.249998 
L 54.255622 198.275029 
L 54.827655 199.32352 
L 55.399689 199.067809 
L 55.971722 197.426403 
L 56.543756 194.499682 
L 58.831889 179.015153 
L 59.403923 177.170457 
L 59.975956 177.108453 
L 60.54799 178.894779 
L 61.120023 182.302181 
L 62.26409 192.213592 
L 63.408157 202.597607 
L 63.98019 206.539605 
L 64.552224 209.12843 
L 65.124257 210.289137 
L 65.696291 210.295095 
L 66.268324 209.548621 
L 67.412391 207.362245 
L 67.984424 206.5978 
L 68.556458 206.396741 
L 69.128491 206.874394 
L 69.700525 207.977464 
L 70.844592 210.896163 
L 71.416625 211.829911 
L 71.988659 211.79622 
L 72.560692 210.458721 
L 73.132725 207.698825 
L 73.704759 203.540757 
L 74.848826 192.024601 
L 77.13696 166.861981 
L 77.708993 162.360565 
L 78.281027 159.171127 
L 78.85306 157.334337 
L 79.425093 156.721042 
L 79.997127 157.057099 
L 80.56916 158.019846 
L 81.713227 160.839858 
L 82.857294 163.5831 
L 84.573394 166.886964 
L 85.145428 168.660309 
L 85.717461 171.266358 
L 86.289495 174.84695 
L 87.433562 184.671898 
L 89.721695 207.72969 
L 90.865762 216.25241 
L 91.437796 219.103496 
L 92.009829 220.834542 
L 92.581863 221.408452 
L 93.153896 220.886272 
L 93.72593 219.404023 
L 94.297963 217.117638 
L 95.44203 210.765351 
L 96.586097 203.654001 
L 97.15813 200.630317 
L 97.730164 198.387067 
L 98.302197 197.070009 
L 98.874231 196.707472 
L 99.446264 197.184993 
L 100.590331 199.586376 
L 101.162364 200.718386 
L 101.734398 201.34443 
L 102.306431 201.336563 
L 102.878465 200.794032 
L 105.166598 197.34597 
L 106.882699 196.346744 
L 107.454732 195.704514 
L 108.026766 194.730959 
L 109.170833 191.901736 
L 110.886933 187.081623 
L 111.458966 186.081794 
L 112.031 185.711311 
L 112.603033 186.030198 
L 113.175067 186.970086 
L 114.319134 189.919935 
L 115.4632 192.956581 
L 116.035234 194.173902 
L 116.607267 195.096027 
L 117.179301 195.680925 
L 117.751334 195.802254 
L 118.323368 195.298896 
L 118.895401 194.158585 
L 119.467435 192.478654 
L 120.611502 188.02405 
L 121.755568 183.195869 
L 122.327602 181.138201 
L 122.899635 179.672363 
L 123.471669 179.004062 
L 124.043702 179.145917 
L 124.615736 180.006498 
L 125.187769 181.503117 
L 126.331836 186.030581 
L 129.192003 198.949977 
L 129.764037 200.798281 
L 130.33607 201.936131 
L 130.908104 202.201073 
L 131.480137 201.464553 
L 132.05217 199.698141 
L 132.624204 196.982447 
L 133.768271 189.506992 
L 134.912338 182.084716 
L 135.484371 179.639142 
L 136.056405 178.483373 
L 136.628438 178.67183 
L 137.200471 180.013062 
L 137.772505 182.250928 
L 138.916572 187.56283 
L 139.488605 189.530032 
L 140.060639 190.423113 
L 140.632672 190.080148 
L 141.204706 188.691615 
L 142.920806 183.163504 
L 143.492839 182.275622 
L 144.064873 182.139314 
L 144.636906 182.597108 
L 145.20894 183.565456 
L 145.780973 185.124049 
L 146.353007 187.545371 
L 146.92504 191.15614 
L 147.497073 196.224712 
L 148.64114 210.474608 
L 150.357241 234.637699 
L 150.929274 240.722727 
L 151.501308 244.835836 
L 152.073341 246.701729 
L 152.645374 246.311341 
L 153.217408 243.901087 
L 153.789441 239.910393 
L 156.077575 220.526575 
L 156.649609 217.434366 
L 157.221642 215.616004 
L 157.793676 215.035006 
L 158.365709 215.537074 
L 158.937742 216.802641 
L 160.081809 219.841212 
L 160.653843 220.889529 
L 161.225876 221.257225 
L 161.79791 220.750223 
L 162.369943 219.340514 
L 162.941977 217.17798 
L 164.086043 211.175009 
L 165.802144 201.053452 
L 166.374177 198.522686 
L 166.946211 196.792435 
L 167.518244 195.996654 
L 168.090278 196.134918 
L 168.662311 197.11876 
L 169.234344 198.7592 
L 171.522478 207.252914 
L 172.094512 208.730803 
L 172.666545 209.737342 
L 173.238579 210.385321 
L 176.098746 212.593273 
L 176.670779 212.286693 
L 177.242813 210.939233 
L 177.814846 208.40559 
L 178.38688 204.741625 
L 179.530946 194.944361 
L 180.675013 184.418769 
L 181.247047 180.153602 
L 181.81908 177.117261 
L 182.391114 175.532594 
L 182.963147 175.479911 
L 183.535181 176.843168 
L 184.107214 179.34603 
L 186.395348 191.666642 
L 186.967381 193.381241 
L 187.539415 194.169719 
L 188.111448 194.000305 
L 188.683482 192.935118 
L 189.255515 191.175648 
L 190.971615 185.106495 
L 191.543649 184.255596 
L 192.115682 184.646716 
L 192.687716 186.465776 
L 193.259749 189.729488 
L 193.831783 194.277675 
L 196.69195 220.801916 
L 197.263983 223.54131 
L 197.836017 224.801241 
L 198.40805 224.678775 
L 198.980084 223.418863 
L 199.552117 221.316645 
L 200.696184 215.578826 
L 202.412284 205.30972 
L 204.700418 190.94545 
L 205.844485 185.518244 
L 206.416518 183.788027 
L 206.988552 182.970728 
L 207.560585 183.201175 
L 208.132619 184.403646 
L 208.704652 186.353599 
L 210.420753 193.335227 
L 210.992786 194.981298 
L 211.564819 195.856037 
L 212.136853 195.7652 
L 212.708886 194.692138 
L 213.28092 192.726977 
L 214.99702 184.848066 
L 215.569054 183.03532 
L 216.141087 182.091843 
L 216.71312 182.125436 
L 217.285154 183.110553 
L 217.857187 184.960124 
L 220.145321 194.598698 
L 220.717355 196.153707 
L 221.289388 197.109911 
L 221.861421 197.493253 
L 222.433455 197.290089 
L 223.005488 196.566975 
L 223.577522 195.491039 
L 224.721589 192.484773 
L 225.865656 189.123739 
L 226.437689 187.813124 
L 227.009722 186.981622 
L 227.581756 186.73853 
L 228.153789 187.113205 
L 228.725823 188.069459 
L 229.297856 189.49121 
L 230.441923 193.119354 
L 233.30209 203.482389 
L 234.446157 208.598217 
L 235.590224 215.247749 
L 236.734291 223.546367 
L 239.022425 241.643755 
L 239.594458 244.999773 
L 240.166492 247.183144 
L 240.738525 248.024261 
L 241.310559 247.437349 
L 241.882592 245.382079 
L 242.454626 241.967269 
L 243.598692 232.247701 
L 244.742759 221.980885 
L 245.314793 217.987256 
L 245.886826 215.182887 
L 246.45886 213.588158 
L 247.030893 213.03512 
L 247.602927 213.23778 
L 248.746993 214.254815 
L 249.319027 214.034985 
L 249.89106 212.814383 
L 250.463094 210.486093 
L 251.607161 203.260299 
L 252.751228 196.322274 
L 253.323261 194.33962 
L 253.895294 193.538869 
L 254.467328 193.548584 
L 255.039361 193.714594 
L 255.611395 193.381952 
L 256.183428 192.14474 
L 256.755462 189.889647 
L 257.899529 183.258453 
L 259.043595 176.931568 
L 259.615629 175.192261 
L 260.187662 174.865835 
L 260.759696 176.029009 
L 261.331729 178.582763 
L 261.903763 182.266263 
L 264.76393 204.335254 
L 265.907997 210.105516 
L 267.052064 213.838403 
L 268.196131 216.266284 
L 268.768164 217.056094 
L 269.340197 217.545388 
L 269.912231 217.666786 
L 270.484264 217.384463 
L 271.056298 216.702139 
L 271.628331 215.679873 
L 272.772398 213.000911 
L 273.916465 210.378778 
L 274.488498 209.484898 
L 275.060532 209.040654 
L 275.632565 209.07925 
L 276.204599 209.572778 
L 277.348666 211.465311 
L 278.492733 213.417129 
L 279.064766 214.165985 
L 279.6368 214.710426 
L 280.208833 214.98704 
L 280.780866 214.935771 
L 281.3529 214.584104 
L 282.496967 213.29719 
L 283.641034 211.52718 
L 284.785101 209.1941 
L 285.929167 206.72299 
L 287.073234 204.79253 
L 288.789335 202.274287 
L 289.933402 199.90067 
L 291.077468 196.69906 
L 292.221535 193.221347 
L 292.793569 191.770985 
L 293.365602 190.70907 
L 293.937636 190.125598 
L 294.509669 190.089816 
L 295.081703 190.589296 
L 295.653736 191.505448 
L 296.797803 193.741916 
L 297.369836 194.544645 
L 297.94187 194.849813 
L 298.513903 194.563389 
L 299.085937 193.689035 
L 299.65797 192.336789 
L 301.37407 187.502635 
L 301.946104 186.378311 
L 302.518137 185.610959 
L 303.090171 185.15667 
L 303.662204 184.95074 
L 304.806271 184.78441 
L 305.378305 184.525337 
L 305.950338 184.030937 
L 306.522371 183.267612 
L 308.810505 179.32711 
L 309.382539 178.825632 
L 309.954572 178.755474 
L 310.526606 179.175578 
L 311.098639 180.091479 
L 311.670672 181.508164 
L 312.242706 183.414418 
L 313.386773 188.570565 
L 315.102873 198.351503 
L 318.535074 219.111735 
L 319.679141 224.51742 
L 321.395241 231.033005 
L 322.539308 234.406291 
L 323.111341 235.476331 
L 323.683375 235.852779 
L 324.255408 235.277972 
L 324.827442 233.575871 
L 325.399475 230.673091 
L 325.971509 226.673287 
L 328.831676 202.521089 
L 329.403709 199.793394 
L 329.975743 198.335171 
L 330.547776 198.120742 
L 331.11981 199.018768 
L 331.691843 200.855246 
L 332.83591 206.391227 
L 334.55201 215.885858 
L 335.124044 218.479983 
L 335.696077 220.471125 
L 336.268111 221.733184 
L 336.840144 222.166322 
L 337.412178 221.705918 
L 337.984211 220.32321 
L 338.556244 218.031021 
L 339.128278 214.895384 
L 340.272345 206.775787 
L 341.988445 193.672479 
L 342.560479 190.375614 
L 343.132512 188.173595 
L 343.704545 187.221317 
L 343.704545 187.221317 
" style="fill:none;stroke:#2ca02c;stroke-linecap:square;stroke-width:0.75;"/>
   </g>
   <g id="line2d_32">
    <path clip-path="url(#p90599cb4c8)" d="M 51.395455 186.295599 
L 51.967488 187.377717 
L 52.539521 189.182246 
L 54.255622 195.338932 
L 54.827655 196.237027 
L 55.399689 195.95783 
L 55.971722 194.414874 
L 56.543756 191.69251 
L 58.831889 177.533509 
L 59.403923 175.988661 
L 59.975956 176.161637 
L 60.54799 178.109957 
L 61.120023 181.614501 
L 62.26409 191.595717 
L 63.408157 202.021074 
L 63.98019 206.030896 
L 64.552224 208.739433 
L 65.124257 210.059459 
L 65.696291 210.225654 
L 66.268324 209.588372 
L 68.556458 205.264674 
L 69.128491 204.861849 
L 69.700525 204.871322 
L 70.844592 205.372755 
L 71.416625 205.284985 
L 71.988659 204.568592 
L 72.560692 203.001694 
L 73.132725 200.543765 
L 74.276792 193.373352 
L 76.564926 176.970439 
L 77.13696 173.892081 
L 77.708993 171.676688 
L 78.281027 170.417205 
L 78.85306 170.083907 
L 79.425093 170.52869 
L 79.997127 171.500884 
L 82.285261 176.298214 
L 82.857294 177.049813 
L 83.429328 177.4602 
L 84.573394 177.90443 
L 85.145428 178.491315 
L 85.717461 179.67888 
L 86.289495 181.602875 
L 86.861528 184.258757 
L 88.005595 191.427227 
L 89.721695 203.554528 
L 90.865762 209.969686 
L 91.437796 212.335858 
L 92.009829 214.056348 
L 92.581863 215.10324 
L 93.153896 215.484686 
L 93.72593 215.233086 
L 94.297963 214.34803 
L 94.869996 212.829124 
L 95.44203 210.704291 
L 96.586097 205.201578 
L 97.730164 199.545884 
L 98.302197 197.266583 
L 98.874231 195.618164 
L 99.446264 194.70666 
L 100.018297 194.545467 
L 100.590331 194.966315 
L 102.306431 196.995252 
L 102.878465 197.287905 
L 103.450498 197.329774 
L 105.166598 197.036301 
L 107.454732 197.399298 
L 108.026766 197.132008 
L 108.598799 196.560448 
L 109.170833 195.644681 
L 110.314899 193.042912 
L 111.458966 190.624775 
L 112.031 190.016194 
L 112.603033 190.012869 
L 113.175067 190.618622 
L 113.7471 191.713091 
L 116.607267 198.387847 
L 117.179301 199.076582 
L 117.751334 199.323274 
L 118.323368 199.027166 
L 118.895401 198.190048 
L 119.467435 196.870191 
L 120.611502 193.131701 
L 122.327602 187.077186 
L 122.899635 185.763494 
L 123.471669 185.129168 
L 124.043702 185.201653 
L 124.615736 185.965108 
L 125.187769 187.390862 
L 125.759803 189.422748 
L 127.475903 197.274833 
L 128.61997 202.196154 
L 129.192003 204.116481 
L 129.764037 205.471884 
L 130.33607 206.201795 
L 130.908104 206.293205 
L 131.480137 205.746813 
L 132.05217 204.600392 
L 132.624204 202.934114 
L 134.912338 194.585593 
L 135.484371 193.187281 
L 136.056405 192.309719 
L 136.628438 191.893621 
L 137.200471 191.800044 
L 138.916572 192.267535 
L 139.488605 192.161187 
L 140.060639 191.6214 
L 140.632672 190.46055 
L 141.204706 188.581665 
L 141.776739 186.031647 
L 143.492839 176.707555 
L 144.064873 174.691725 
L 144.636906 174.197224 
L 145.20894 175.668421 
L 145.780973 179.262976 
L 146.353007 184.832034 
L 147.497073 199.712918 
L 148.64114 214.795337 
L 149.213174 220.78417 
L 149.785207 225.209058 
L 150.357241 227.95603 
L 150.929274 229.140242 
L 151.501308 229.038601 
L 152.073341 228.082203 
L 153.217408 225.4541 
L 153.789441 224.478763 
L 154.361475 223.938362 
L 154.933508 223.84356 
L 155.505542 224.178798 
L 156.649609 225.65974 
L 157.221642 226.422045 
L 157.793676 226.911458 
L 158.365709 226.957071 
L 158.937742 226.476909 
L 159.509776 225.509909 
L 160.653843 222.592045 
L 161.79791 219.576858 
L 162.941977 217.410897 
L 164.086043 216.096642 
L 165.802144 214.52984 
L 166.374177 213.838624 
L 166.946211 212.817697 
L 167.518244 211.320188 
L 168.662311 207.057485 
L 169.806378 202.448261 
L 170.378411 200.61268 
L 170.950445 199.300882 
L 171.522478 198.623906 
L 172.094512 198.635626 
L 172.666545 199.289241 
L 173.238579 200.452851 
L 174.954679 204.584008 
L 175.526712 205.445229 
L 176.098746 205.85353 
L 176.670779 205.786316 
L 177.242813 205.253365 
L 177.814846 204.319245 
L 178.958913 201.676589 
L 180.10298 198.973668 
L 180.675013 197.898312 
L 181.247047 197.251679 
L 181.81908 197.227035 
L 182.391114 197.872766 
L 182.963147 199.150808 
L 183.535181 201.029983 
L 186.395348 212.518148 
L 187.539415 215.198097 
L 188.111448 216.121037 
L 188.683482 216.757756 
L 189.255515 217.099311 
L 189.827548 217.132658 
L 190.399582 216.713938 
L 190.971615 215.690353 
L 191.543649 213.980152 
L 192.115682 211.603096 
L 194.403816 199.76356 
L 194.975849 197.773522 
L 195.547883 196.658996 
L 196.119916 196.52238 
L 196.69195 197.370415 
L 197.263983 199.080305 
L 198.40805 203.918746 
L 200.696184 214.097346 
L 204.128385 227.996531 
L 204.700418 229.604381 
L 205.272452 230.794031 
L 205.844485 231.524571 
L 206.416518 231.782795 
L 206.988552 231.558527 
L 207.560585 230.845168 
L 208.132619 229.583661 
L 208.704652 227.707393 
L 209.276686 225.201867 
L 210.420753 218.529749 
L 211.564819 210.101597 
L 212.708886 201.507577 
L 213.28092 198.260184 
L 213.852953 196.18688 
L 214.424987 195.423977 
L 214.99702 195.923132 
L 215.569054 197.53058 
L 216.71312 202.7885 
L 217.285154 205.580829 
L 217.857187 207.766312 
L 218.429221 208.964313 
L 219.001254 209.01268 
L 219.573288 207.930352 
L 220.145321 205.932641 
L 221.289388 200.962179 
L 221.861421 199.021574 
L 222.433455 198.096761 
L 223.005488 198.536552 
L 223.577522 200.463824 
L 224.149555 203.830589 
L 225.293622 213.683174 
L 226.437689 224.573881 
L 227.581756 233.271949 
L 228.153789 236.360293 
L 228.725823 238.511758 
L 229.297856 239.728896 
L 229.86989 240.100173 
L 230.441923 239.683109 
L 231.013957 238.496067 
L 231.58599 236.55778 
L 232.158023 233.958647 
L 233.30209 227.083773 
L 234.446157 218.301668 
L 236.734291 199.923645 
L 237.878358 192.082897 
L 239.022425 185.600735 
L 240.166492 180.392731 
L 240.738525 178.358607 
L 241.310559 176.907259 
L 241.882592 176.116684 
L 242.454626 175.908043 
L 243.026659 176.132174 
L 244.742759 177.589992 
L 245.314793 177.615371 
L 245.886826 177.135507 
L 246.45886 176.102645 
L 247.030893 174.540843 
L 248.17496 170.839739 
L 248.746993 169.725428 
L 249.319027 169.890671 
L 249.89106 171.778142 
L 250.463094 175.474379 
L 251.607161 186.502728 
L 252.179194 192.197316 
L 252.751228 196.648108 
L 253.323261 199.091103 
L 253.895294 199.262681 
L 254.467328 197.352065 
L 255.039361 193.86761 
L 256.755462 181.451684 
L 257.327495 179.015597 
L 257.899529 178.03926 
L 258.471562 178.584101 
L 259.043595 180.524051 
L 259.615629 183.67619 
L 260.759696 192.396059 
L 262.475796 206.046844 
L 263.04783 209.574504 
L 263.619863 212.385698 
L 264.191896 214.508852 
L 264.76393 216.101046 
L 265.335963 217.271991 
L 265.907997 218.122966 
L 266.48003 218.688827 
L 267.052064 219.040875 
L 268.196131 219.324435 
L 269.340197 219.44792 
L 269.912231 219.772335 
L 270.484264 220.420746 
L 271.056298 221.462182 
L 272.772398 225.432066 
L 273.344432 225.71581 
L 273.916465 224.851915 
L 274.488498 222.648824 
L 275.060532 219.080419 
L 276.204599 208.862232 
L 277.920699 192.433149 
L 278.492733 188.693704 
L 279.064766 186.421525 
L 279.6368 185.755759 
L 280.208833 186.723106 
L 280.780866 189.182282 
L 281.924933 197.105473 
L 283.069 205.715816 
L 283.641034 209.283889 
L 284.213067 212.05524 
L 284.785101 213.918169 
L 285.357134 214.874277 
L 285.929167 215.059964 
L 286.501201 214.586439 
L 287.073234 213.542329 
L 287.645268 211.974723 
L 288.217301 209.894529 
L 289.361368 204.263108 
L 290.505435 196.985153 
L 292.221535 185.589477 
L 292.793569 182.936203 
L 293.365602 181.336827 
L 293.937636 180.872932 
L 294.509669 181.538754 
L 295.081703 183.185299 
L 296.797803 190.143212 
L 297.369836 191.644409 
L 297.94187 192.064382 
L 298.513903 191.170129 
L 299.085937 188.895895 
L 299.65797 185.443768 
L 301.946104 169.225277 
L 302.518137 166.914638 
L 303.090171 165.829059 
L 303.662204 165.996018 
L 304.234238 167.334041 
L 304.806271 169.654263 
L 305.950338 176.169895 
L 307.666438 186.239415 
L 308.810505 191.209821 
L 309.954572 194.776819 
L 311.670672 199.331288 
L 312.242706 201.203853 
L 312.814739 203.5012 
L 313.958806 209.420446 
L 315.674907 220.408052 
L 318.535074 239.407293 
L 319.679141 245.661625 
L 320.823208 250.150606 
L 321.395241 251.528059 
L 321.967275 252.079321 
L 322.539308 251.657106 
L 323.111341 250.175003 
L 323.683375 247.608749 
L 324.255408 243.96527 
L 325.399475 234.016922 
L 327.687609 211.026608 
L 328.259642 206.29985 
L 328.831676 202.536895 
L 329.403709 199.892853 
L 329.975743 198.418075 
L 330.547776 198.083918 
L 331.11981 198.777755 
L 331.691843 200.346407 
L 332.83591 205.20729 
L 334.55201 213.485705 
L 335.124044 215.686094 
L 335.696077 217.328114 
L 336.268111 218.311741 
L 336.840144 218.561677 
L 337.412178 218.033118 
L 337.984211 216.70834 
L 338.556244 214.599487 
L 339.128278 211.7588 
L 340.272345 204.456637 
L 341.988445 192.53955 
L 342.560479 189.442219 
L 343.132512 187.287681 
L 343.704545 186.230243 
L 343.704545 186.230243 
" style="fill:none;stroke:#2ca02c;stroke-dasharray:0.75,1.2375;stroke-dashoffset:0;stroke-width:0.75;"/>
   </g>
   <g id="patch_8">
    <path d="M 36.78 264.6075 
L 36.78 134.82375 
" style="fill:none;stroke:#000000;stroke-linecap:square;stroke-linejoin:miter;stroke-width:0.5;"/>
   </g>
   <g id="patch_9">
    <path d="M 358.32 264.6075 
L 358.32 134.82375 
" style="fill:none;stroke:#000000;stroke-linecap:square;stroke-linejoin:miter;stroke-width:0.5;"/>
   </g>
   <g id="patch_10">
    <path d="M 36.78 264.6075 
L 358.32 264.6075 
" style="fill:none;stroke:#000000;stroke-linecap:square;stroke-linejoin:miter;stroke-width:0.5;"/>
   </g>
   <g id="patch_11">
    <path d="M 36.78 134.82375 
L 358.32 134.82375 
" style="fill:none;stroke:#000000;stroke-linecap:square;stroke-linejoin:miter;stroke-width:0.5;"/>
   </g>
   <g id="legend_2">
    <g id="line2d_33">
     <path d="M 150.03 144.82375 
L 166.03 144.82375 
" style="fill:none;stroke:#2ca02c;stroke-linecap:square;stroke-width:0.75;"/>
    </g>
    <g id="line2d_34"/>
    <g id="text_30">
     <!-- $p=1$ -->
     <g transform="translate(172.43 147.62375)scale(0.08 -0.08)">
      <use transform="translate(0 0.390625)" xlink:href="#Cmmi10-112"/>
      <use transform="translate(67.851562 0.390625)" xlink:href="#Cmr10-61"/>
      <use transform="translate(163.095703 0.390625)" xlink:href="#Cmr10-49"/>
     </g>
    </g>
    <g id="line2d_35">
     <path d="M 205.55 144.82375 
L 221.55 144.82375 
" style="fill:none;stroke:#2ca02c;stroke-dasharray:0.75,1.2375;stroke-dashoffset:0;stroke-width:0.75;"/>
    </g>
    <g id="line2d_36"/>
    <g id="text_31">
     <!-- $p=2$ -->
     <g transform="translate(227.95 147.62375)scale(0.08 -0.08)">
      <use transform="translate(0 0.390625)" xlink:href="#Cmmi10-112"/>
      <use transform="translate(67.851562 0.390625)" xlink:href="#Cmr10-61"/>
      <use transform="translate(163.095703 0.390625)" xlink:href="#Cmr10-50"/>
     </g>
    </g>
   </g>
  </g>
 </g>
 <defs>
  <clipPath id="p5bef7960e4">
   <rect height="129.78375" width="321.54" x="36.78" y="1.68"/>
  </clipPath>
  <clipPath id="p90599cb4c8">
   <rect height="129.78375" width="321.54" x="36.78" y="134.82375"/>
  </clipPath>
 </defs>
</svg>
