<?xml version="1.0" encoding="utf-8" standalone="no"?>
<!DOCTYPE svg PUBLIC "-//W3C//DTD SVG 1.1//EN"
  "http://www.w3.org/Graphics/SVG/1.1/DTD/svg11.dtd">
<!-- Created with matplotlib (https://matplotlib.org/) -->
<svg height="144pt" version="1.1" viewBox="0 0 360 144" width="360pt" xmlns="http://www.w3.org/2000/svg" xmlns:xlink="http://www.w3.org/1999/xlink">
 <defs>
  <style type="text/css">
*{stroke-linecap:butt;stroke-linejoin:round;}
  </style>
 </defs>
 <g id="figure_1">
  <g id="patch_1">
   <path d="M 0 144 
L 360 144 
L 360 0 
L 0 0 
z
" style="fill:#ffffff;"/>
  </g>
  <g id="axes_1">
   <g id="patch_2">
    <path d="M 33.66 133.4125 
L 358.32 133.4125 
L 358.32 1.68 
L 33.66 1.68 
z
" style="fill:#ffffff;"/>
   </g>
   <g id="matplotlib.axis_1">
    <g id="text_1">
     <!-- $s$ -->
     <defs>
      <path d="M 8.6875 6.109375 
Q 11.375 1.515625 19.484375 1.515625 
Q 23 1.515625 26.171875 2.703125 
Q 29.34375 3.90625 31.421875 6.296875 
Q 33.5 8.6875 33.5 12.109375 
Q 33.5 14.703125 31.640625 16.359375 
Q 29.78125 18.015625 27.09375 18.609375 
L 21.6875 19.671875 
Q 17.96875 20.609375 15.578125 23.140625 
Q 13.1875 25.6875 13.1875 29.296875 
Q 13.1875 33.734375 15.59375 37.15625 
Q 18.015625 40.578125 21.96875 42.375 
Q 25.921875 44.1875 30.171875 44.1875 
Q 34.71875 44.1875 38.296875 42.015625 
Q 41.890625 39.84375 41.890625 35.59375 
Q 41.890625 33.296875 40.59375 31.53125 
Q 39.3125 29.78125 37.015625 29.78125 
Q 35.6875 29.78125 34.734375 30.640625 
Q 33.796875 31.5 33.796875 32.8125 
Q 33.796875 33.984375 34.453125 35.078125 
Q 35.109375 36.1875 36.203125 36.84375 
Q 37.3125 37.5 38.484375 37.5 
Q 37.59375 39.65625 35.171875 40.625 
Q 32.765625 41.609375 29.984375 41.609375 
Q 27.4375 41.609375 24.890625 40.578125 
Q 22.359375 39.546875 20.8125 37.5625 
Q 19.28125 35.59375 19.28125 32.90625 
Q 19.28125 31.109375 20.546875 29.734375 
Q 21.828125 28.375 23.6875 27.78125 
L 29.5 26.609375 
Q 32.28125 26.03125 34.59375 24.53125 
Q 36.921875 23.046875 38.25 20.765625 
Q 39.59375 18.5 39.59375 15.578125 
Q 39.59375 11.859375 37.515625 8.25 
Q 35.453125 4.640625 32.421875 2.484375 
Q 27.09375 -1.125 19.390625 -1.125 
Q 14.0625 -1.125 9.609375 1.3125 
Q 5.171875 3.765625 5.171875 8.59375 
Q 5.171875 11.328125 6.75 13.34375 
Q 8.34375 15.375 11.078125 15.375 
Q 12.703125 15.375 13.796875 14.390625 
Q 14.890625 13.421875 14.890625 11.8125 
Q 14.890625 9.515625 13.171875 7.8125 
Q 11.46875 6.109375 9.1875 6.109375 
z
" id="Cmmi10-115"/>
     </defs>
     <g transform="translate(193.64 142.353125)scale(0.1 -0.1)">
      <use transform="translate(0 0.8125)" xlink:href="#Cmmi10-115"/>
     </g>
    </g>
   </g>
   <g id="matplotlib.axis_2">
    <g id="ytick_1">
     <g id="line2d_1">
      <defs>
       <path d="M 0 0 
L -3.5 0 
" id="m0238711dbf" style="stroke:#000000;stroke-width:0.8;"/>
      </defs>
      <g>
       <use style="stroke:#000000;stroke-width:0.8;" x="33.66" xlink:href="#m0238711dbf" y="126.094028"/>
      </g>
     </g>
     <g id="text_2">
      <!-- −0.8 -->
      <defs>
       <path d="M 76.59375 25 
C 76.59375 27.296875 74.203125 27.296875 72.703125 27.296875 
L 9.796875 27.296875 
C 8.296875 27.296875 5.90625 27.296875 5.90625 25 
C 5.90625 22.703125 7.90625 22.703125 9.40625 22.703125 
L 73.09375 22.703125 
C 74.59375 22.703125 76.59375 22.703125 76.59375 25 
z
" id="LMRoman8-Regular-8722"/>
       <path d="M 48.90625 31.90625 
C 48.90625 42.59375 47.796875 49.09375 44.5 55.5 
C 40.09375 64.296875 32 66.5 26.5 66.5 
C 13.90625 66.5 9.296875 57.09375 7.90625 54.296875 
C 4.296875 47 4.09375 37.09375 4.09375 31.90625 
C 4.09375 25.296875 4.40625 15.203125 9.203125 7.203125 
C 13.796875 -0.203125 21.203125 -2.09375 26.5 -2.09375 
C 31.296875 -2.09375 39.90625 -0.59375 44.90625 9.296875 
C 48.59375 16.5 48.90625 25.40625 48.90625 31.90625 
z
M 40 33.09375 
C 40 27.203125 40 18.203125 38.796875 12.59375 
C 36.703125 2.09375 29.796875 0.703125 26.5 0.703125 
C 23.09375 0.703125 16.203125 2.296875 14.09375 12.796875 
C 13 18.5 13 27.90625 13 33.09375 
C 13 40 13 47 14.09375 52.5 
C 16.203125 62.703125 24 63.703125 26.5 63.703125 
C 29.90625 63.703125 36.796875 62 38.796875 52.90625 
C 40 47.40625 40 39.90625 40 33.09375 
z
" id="LMRoman8-Regular-48"/>
       <path d="M 20.296875 5.5 
C 20.296875 8.90625 17.59375 11.09375 14.796875 11.09375 
C 11.40625 11.09375 9.203125 8.40625 9.203125 5.59375 
C 9.203125 2.203125 11.90625 0 14.703125 0 
C 18.09375 0 20.296875 2.703125 20.296875 5.5 
z
" id="LMRoman8-Regular-46"/>
       <path d="M 48.59375 16.796875 
C 48.59375 23.09375 45.203125 27.296875 43.59375 29 
C 41.90625 30.59375 41.796875 30.703125 33.203125 36.09375 
C 38.796875 38.796875 45.59375 43.796875 45.59375 51.59375 
C 45.59375 61.09375 35.90625 66.5 26.59375 66.5 
C 16 66.5 7.40625 59.203125 7.40625 49.796875 
C 7.40625 46.09375 8.703125 42.703125 11.203125 39.796875 
C 12.90625 37.703125 13.296875 37.5 19.5 33.59375 
C 7.09375 28.09375 4.40625 20.796875 4.40625 15.203125 
C 4.40625 4.203125 15.5 -2.09375 26.40625 -2.09375 
C 38.703125 -2.09375 48.59375 6.203125 48.59375 16.796875 
z
M 40.59375 51.59375 
C 40.59375 45.796875 36.09375 40.90625 30.203125 38 
L 17.703125 45.5 
C 14.796875 47.203125 12.40625 50.09375 12.40625 53.59375 
C 12.40625 59.90625 19.296875 63.90625 26.40625 63.90625 
C 34.203125 63.90625 40.59375 58.59375 40.59375 51.59375 
z
M 42.90625 13.40625 
C 42.90625 5.703125 34.796875 0.90625 26.59375 0.90625 
C 17.703125 0.90625 10.09375 7 10.09375 15.203125 
C 10.09375 22.703125 15.703125 28.59375 22.59375 31.796875 
L 36.09375 23.5 
C 37.703125 22.59375 42.90625 19.40625 42.90625 13.40625 
z
" id="LMRoman8-Regular-56"/>
      </defs>
      <g transform="translate(13.563125 128.176215)scale(0.06 -0.06)">
       <use xlink:href="#LMRoman8-Regular-8722"/>
       <use x="82.599991" xlink:href="#LMRoman8-Regular-48"/>
       <use x="135.699982" xlink:href="#LMRoman8-Regular-46"/>
       <use x="165.199966" xlink:href="#LMRoman8-Regular-56"/>
      </g>
     </g>
    </g>
    <g id="ytick_2">
     <g id="line2d_2">
      <g>
       <use style="stroke:#000000;stroke-width:0.8;" x="33.66" xlink:href="#m0238711dbf" y="111.457083"/>
      </g>
     </g>
     <g id="text_3">
      <!-- −0.6 -->
      <defs>
       <path d="M 48.59375 20.296875 
C 48.59375 33.40625 38.703125 42.59375 27.59375 42.59375 
C 20.40625 42.59375 16.09375 38 13.796875 33.09375 
C 13.796875 41.40625 14.5 48.703125 18.09375 54.796875 
C 21.09375 59.796875 26.203125 63.90625 32.5 63.90625 
C 34.5 63.90625 39.09375 63.59375 41.40625 60.09375 
C 36.90625 59.90625 36.5 56.5 36.5 55.40625 
C 36.5 52.40625 38.796875 50.703125 41.203125 50.703125 
C 43 50.703125 45.90625 51.796875 45.90625 55.59375 
C 45.90625 61.59375 41.40625 66.5 32.40625 66.5 
C 18.5 66.5 4.40625 53.296875 4.40625 31.703125 
C 4.40625 4.59375 17 -2.09375 26.703125 -2.09375 
C 31.5 -2.09375 36.703125 -0.796875 41.203125 3.5 
C 45.203125 7.40625 48.59375 11.59375 48.59375 20.296875 
z
M 39.203125 20.40625 
C 39.203125 15.296875 39.203125 10.90625 37.203125 7.296875 
C 34.59375 2.703125 31.09375 0.90625 26.703125 0.90625 
C 21.40625 0.90625 18.09375 4.59375 16.59375 7.40625 
C 14.296875 11.90625 14.09375 18.703125 14.09375 22.5 
C 14.09375 32.40625 19.5 39.796875 27.203125 39.796875 
C 32.203125 39.796875 35.203125 37.203125 37.09375 33.703125 
C 39.203125 30 39.203125 25.5 39.203125 20.40625 
z
" id="LMRoman8-Regular-54"/>
      </defs>
      <g transform="translate(13.563125 113.539271)scale(0.06 -0.06)">
       <use xlink:href="#LMRoman8-Regular-8722"/>
       <use x="82.599991" xlink:href="#LMRoman8-Regular-48"/>
       <use x="135.699982" xlink:href="#LMRoman8-Regular-46"/>
       <use x="165.199966" xlink:href="#LMRoman8-Regular-54"/>
      </g>
     </g>
    </g>
    <g id="ytick_3">
     <g id="line2d_3">
      <g>
       <use style="stroke:#000000;stroke-width:0.8;" x="33.66" xlink:href="#m0238711dbf" y="96.820139"/>
      </g>
     </g>
     <g id="text_4">
      <!-- −0.4 -->
      <defs>
       <path d="M 50 16.40625 
L 50 19.703125 
L 39.40625 19.703125 
L 39.40625 64.703125 
C 39.40625 66.703125 39.40625 67.5 37.296875 67.5 
C 36 67.5 35.90625 67.40625 34.90625 66 
L 3 19.703125 
L 3 16.40625 
L 31.203125 16.40625 
L 31.203125 8.09375 
C 31.203125 4.40625 30.90625 3.296875 23.203125 3.296875 
L 20.90625 3.296875 
L 20.90625 0 
L 35.296875 0.296875 
L 49.703125 0 
L 49.703125 3.296875 
L 47.40625 3.296875 
C 39.703125 3.296875 39.40625 4.40625 39.40625 8.09375 
L 39.40625 16.40625 
z
M 31.90625 19.703125 
L 6.5 19.703125 
L 31.90625 56.59375 
z
" id="LMRoman8-Regular-52"/>
      </defs>
      <g transform="translate(13.563125 98.902326)scale(0.06 -0.06)">
       <use xlink:href="#LMRoman8-Regular-8722"/>
       <use x="82.599991" xlink:href="#LMRoman8-Regular-48"/>
       <use x="135.699982" xlink:href="#LMRoman8-Regular-46"/>
       <use x="165.199966" xlink:href="#LMRoman8-Regular-52"/>
      </g>
     </g>
    </g>
    <g id="ytick_4">
     <g id="line2d_4">
      <g>
       <use style="stroke:#000000;stroke-width:0.8;" x="33.66" xlink:href="#m0238711dbf" y="82.183194"/>
      </g>
     </g>
     <g id="text_5">
      <!-- −0.2 -->
      <defs>
       <path d="M 47.703125 17.90625 
L 44.59375 17.90625 
C 44.296875 15.90625 43.5 10.90625 42.296875 9 
C 41.703125 8.203125 34.09375 8.203125 32.5 8.203125 
L 14.703125 8.203125 
L 28.203125 20.40625 
C 29.796875 21.90625 34 25.203125 35.59375 26.59375 
C 41.796875 32.296875 47.703125 37.796875 47.703125 46.90625 
C 47.703125 58.796875 37.703125 66.5 25.203125 66.5 
C 13.203125 66.5 5.296875 57.40625 5.296875 48.5 
C 5.296875 43.59375 9.203125 42.90625 10.59375 42.90625 
C 12.703125 42.90625 15.796875 44.40625 15.796875 48.203125 
C 15.796875 53.40625 10.796875 53.40625 9.59375 53.40625 
C 12.5 60.703125 19.203125 63.203125 24.09375 63.203125 
C 33.40625 63.203125 38.203125 55.296875 38.203125 46.90625 
C 38.203125 36.5 30.90625 28.90625 19.09375 16.796875 
L 6.5 3.796875 
C 5.296875 2.703125 5.296875 2.5 5.296875 0 
L 44.796875 0 
z
" id="LMRoman8-Regular-50"/>
      </defs>
      <g transform="translate(13.563125 84.265382)scale(0.06 -0.06)">
       <use xlink:href="#LMRoman8-Regular-8722"/>
       <use x="82.599991" xlink:href="#LMRoman8-Regular-48"/>
       <use x="135.699982" xlink:href="#LMRoman8-Regular-46"/>
       <use x="165.199966" xlink:href="#LMRoman8-Regular-50"/>
      </g>
     </g>
    </g>
    <g id="ytick_5">
     <g id="line2d_5">
      <g>
       <use style="stroke:#000000;stroke-width:0.8;" x="33.66" xlink:href="#m0238711dbf" y="67.54625"/>
      </g>
     </g>
     <g id="text_6">
      <!-- 0.0 -->
      <g transform="translate(18.51875 69.628438)scale(0.06 -0.06)">
       <use xlink:href="#LMRoman8-Regular-48"/>
       <use x="53.099991" xlink:href="#LMRoman8-Regular-46"/>
       <use x="82.599976" xlink:href="#LMRoman8-Regular-48"/>
      </g>
     </g>
    </g>
    <g id="ytick_6">
     <g id="line2d_6">
      <g>
       <use style="stroke:#000000;stroke-width:0.8;" x="33.66" xlink:href="#m0238711dbf" y="52.909306"/>
      </g>
     </g>
     <g id="text_7">
      <!-- 0.2 -->
      <g transform="translate(18.51875 54.991493)scale(0.06 -0.06)">
       <use xlink:href="#LMRoman8-Regular-48"/>
       <use x="53.099991" xlink:href="#LMRoman8-Regular-46"/>
       <use x="82.599976" xlink:href="#LMRoman8-Regular-50"/>
      </g>
     </g>
    </g>
    <g id="ytick_7">
     <g id="line2d_7">
      <g>
       <use style="stroke:#000000;stroke-width:0.8;" x="33.66" xlink:href="#m0238711dbf" y="38.272361"/>
      </g>
     </g>
     <g id="text_8">
      <!-- 0.4 -->
      <g transform="translate(18.51875 40.354549)scale(0.06 -0.06)">
       <use xlink:href="#LMRoman8-Regular-48"/>
       <use x="53.099991" xlink:href="#LMRoman8-Regular-46"/>
       <use x="82.599976" xlink:href="#LMRoman8-Regular-52"/>
      </g>
     </g>
    </g>
    <g id="ytick_8">
     <g id="line2d_8">
      <g>
       <use style="stroke:#000000;stroke-width:0.8;" x="33.66" xlink:href="#m0238711dbf" y="23.635417"/>
      </g>
     </g>
     <g id="text_9">
      <!-- 0.6 -->
      <g transform="translate(18.51875 25.717604)scale(0.06 -0.06)">
       <use xlink:href="#LMRoman8-Regular-48"/>
       <use x="53.099991" xlink:href="#LMRoman8-Regular-46"/>
       <use x="82.599976" xlink:href="#LMRoman8-Regular-54"/>
      </g>
     </g>
    </g>
    <g id="ytick_9">
     <g id="line2d_9">
      <g>
       <use style="stroke:#000000;stroke-width:0.8;" x="33.66" xlink:href="#m0238711dbf" y="8.998472"/>
      </g>
     </g>
     <g id="text_10">
      <!-- 0.8 -->
      <g transform="translate(18.51875 11.08066)scale(0.06 -0.06)">
       <use xlink:href="#LMRoman8-Regular-48"/>
       <use x="53.099991" xlink:href="#LMRoman8-Regular-46"/>
       <use x="82.599976" xlink:href="#LMRoman8-Regular-56"/>
      </g>
     </g>
    </g>
    <g id="text_11">
     <!-- $z^{\,p}(s)$ -->
     <defs>
      <path d="M 4.890625 -1.125 
Q 4.109375 -1.125 4.109375 -0.203125 
Q 4.109375 0.296875 4.296875 0.484375 
Q 6.984375 5.125 10.765625 9.34375 
Q 14.546875 13.578125 19.359375 17.890625 
Q 24.171875 22.21875 29.03125 26.5625 
Q 33.890625 30.90625 36.921875 34.28125 
L 36.53125 34.28125 
Q 34.328125 34.28125 30.078125 35.6875 
Q 25.828125 37.109375 23.390625 37.109375 
Q 20.75 37.109375 18.25 35.953125 
Q 15.765625 34.8125 15.09375 32.421875 
Q 14.9375 31.6875 14.3125 31.6875 
L 13.09375 31.6875 
Q 12.3125 31.6875 12.3125 32.71875 
L 12.3125 33.015625 
Q 13.09375 35.9375 14.875 38.46875 
Q 16.65625 41.015625 19.265625 42.59375 
Q 21.875 44.1875 24.703125 44.1875 
Q 26.703125 44.1875 28.015625 43.28125 
Q 29.34375 42.390625 31.09375 40.484375 
Q 32.859375 38.578125 33.953125 37.75 
Q 35.0625 36.921875 36.71875 36.921875 
Q 38.921875 36.921875 40.65625 38.921875 
Q 42.390625 40.921875 44.09375 43.890625 
Q 44.390625 44.1875 44.828125 44.1875 
L 46 44.1875 
Q 46.34375 44.1875 46.5625 43.9375 
Q 46.78125 43.703125 46.78125 43.3125 
Q 46.78125 42.96875 46.578125 42.671875 
Q 43.890625 38.03125 40.296875 34 
Q 36.71875 29.984375 30.921875 24.78125 
Q 25.140625 19.578125 21.15625 15.984375 
Q 17.1875 12.40625 13.71875 8.59375 
Q 14.5 8.796875 15.828125 8.796875 
Q 18.265625 8.796875 22.484375 7.390625 
Q 26.703125 6 29 6 
Q 31.5 6 34.03125 7.078125 
Q 36.578125 8.15625 38.421875 10.109375 
Q 40.28125 12.0625 40.921875 14.59375 
Q 41.15625 15.28125 41.703125 15.28125 
L 42.921875 15.28125 
Q 43.3125 15.28125 43.546875 14.96875 
Q 43.796875 14.65625 43.796875 14.3125 
Q 43.796875 14.203125 43.703125 14.015625 
Q 42.78125 10.203125 40.484375 6.765625 
Q 38.1875 3.328125 34.84375 1.09375 
Q 31.5 -1.125 27.6875 -1.125 
Q 25.78125 -1.125 24.453125 -0.234375 
Q 23.140625 0.640625 21.359375 2.5625 
Q 19.578125 4.5 18.453125 5.34375 
Q 17.328125 6.203125 15.71875 6.203125 
Q 10.75 6.203125 6.78125 -0.78125 
Q 6.453125 -1.125 6.109375 -1.125 
z
" id="Cmmi10-122"/>
      <path d="M -2.484375 -19.390625 
Q -3.421875 -19.390625 -3.421875 -18.109375 
Q -3.078125 -15.921875 -2.09375 -15.921875 
Q 1.03125 -15.921875 2.265625 -15.359375 
Q 3.515625 -14.796875 4.203125 -12.5 
L 15.484375 32.515625 
Q 16.21875 34.375 16.21875 37.3125 
Q 16.21875 41.609375 13.28125 41.609375 
Q 10.15625 41.609375 8.640625 37.859375 
Q 7.125 34.125 5.71875 28.421875 
Q 5.71875 27.78125 4.890625 27.78125 
L 3.71875 27.78125 
Q 3.46875 27.78125 3.171875 28.140625 
Q 2.875 28.515625 2.875 28.8125 
Q 3.953125 33.15625 4.953125 36.171875 
Q 5.953125 39.203125 8.078125 41.6875 
Q 10.203125 44.1875 13.375 44.1875 
Q 16.796875 44.1875 19.375 42.25 
Q 21.96875 40.328125 22.703125 37.015625 
Q 25.4375 40.1875 28.75 42.1875 
Q 32.078125 44.1875 35.59375 44.1875 
Q 39.796875 44.1875 42.890625 41.9375 
Q 46 39.703125 47.5625 36.0625 
Q 49.125 32.421875 49.125 28.21875 
Q 49.125 21.78125 45.828125 14.890625 
Q 42.53125 8.015625 36.890625 3.4375 
Q 31.25 -1.125 24.8125 -1.125 
Q 21.875 -1.125 19.5 0.53125 
Q 17.140625 2.203125 15.828125 4.890625 
L 11.28125 -12.890625 
Q 11.03125 -14.359375 10.984375 -14.59375 
Q 10.984375 -15.921875 17.578125 -15.921875 
Q 18.609375 -15.921875 18.609375 -17.1875 
Q 18.265625 -18.5 18.046875 -18.9375 
Q 17.828125 -19.390625 16.890625 -19.390625 
z
M 24.90625 1.515625 
Q 28.375 1.515625 31.34375 4.375 
Q 34.328125 7.234375 36.1875 10.796875 
Q 37.546875 13.484375 38.734375 17.359375 
Q 39.9375 21.234375 40.8125 25.625 
Q 41.703125 30.03125 41.703125 32.625 
Q 41.703125 34.90625 41.09375 36.90625 
Q 40.484375 38.921875 39.09375 40.265625 
Q 37.703125 41.609375 35.40625 41.609375 
Q 31.734375 41.609375 28.484375 38.984375 
Q 25.25 36.375 22.609375 32.515625 
L 22.609375 32.171875 
L 17.09375 10.109375 
Q 17.78125 6.546875 19.734375 4.03125 
Q 21.6875 1.515625 24.90625 1.515625 
z
" id="Cmmi10-112"/>
      <path d="M 31 -24.8125 
Q 25.4375 -20.40625 21.40625 -14.71875 
Q 17.390625 -9.03125 14.8125 -2.578125 
Q 12.25 3.859375 10.984375 10.890625 
Q 9.71875 17.921875 9.71875 25 
Q 9.71875 32.171875 10.984375 39.203125 
Q 12.25 46.234375 14.859375 52.734375 
Q 17.484375 59.234375 21.53125 64.890625 
Q 25.59375 70.5625 31 74.8125 
Q 31 75 31.5 75 
L 32.421875 75 
Q 32.71875 75 32.953125 74.734375 
Q 33.203125 74.46875 33.203125 74.125 
Q 33.203125 73.6875 33.015625 73.484375 
Q 28.125 68.703125 24.875 63.234375 
Q 21.625 57.765625 19.640625 51.578125 
Q 17.671875 45.40625 16.796875 38.78125 
Q 15.921875 32.171875 15.921875 25 
Q 15.921875 -6.78125 32.90625 -23.296875 
Q 33.203125 -23.578125 33.203125 -24.125 
Q 33.203125 -24.359375 32.9375 -24.671875 
Q 32.671875 -25 32.421875 -25 
L 31.5 -25 
Q 31 -25 31 -24.8125 
z
" id="Cmr10-40"/>
      <path d="M 6.5 -25 
Q 5.609375 -25 5.609375 -24.125 
Q 5.609375 -23.6875 5.8125 -23.484375 
Q 22.90625 -6.78125 22.90625 25 
Q 22.90625 56.78125 6 73.296875 
Q 5.609375 73.53125 5.609375 74.125 
Q 5.609375 74.46875 5.875 74.734375 
Q 6.15625 75 6.5 75 
L 7.421875 75 
Q 7.71875 75 7.90625 74.8125 
Q 15.09375 69.140625 19.875 61.03125 
Q 24.65625 52.9375 26.875 43.75 
Q 29.109375 34.578125 29.109375 25 
Q 29.109375 17.921875 27.90625 11.0625 
Q 26.703125 4.203125 24.09375 -2.453125 
Q 21.484375 -9.125 17.484375 -14.765625 
Q 13.484375 -20.40625 7.90625 -24.8125 
Q 7.71875 -25 7.421875 -25 
z
" id="Cmr10-41"/>
     </defs>
     <g transform="translate(9.063125 79.04625)rotate(-90)scale(0.1 -0.1)">
      <use xlink:href="#Cmmi10-122"/>
      <use transform="translate(63.030374 38.264063)scale(0.7)" xlink:href="#Cmmi10-112"/>
      <use transform="translate(104.612796 0)" xlink:href="#Cmr10-40"/>
      <use transform="translate(143.431155 0)" xlink:href="#Cmmi10-115"/>
      <use transform="translate(190.208499 0)" xlink:href="#Cmr10-41"/>
     </g>
    </g>
   </g>
   <g id="line2d_10">
    <path clip-path="url(#p669617787b)" d="M 48.417273 55.172948 
L 48.994857 56.611404 
L 50.150025 61.444824 
L 50.727609 64.028585 
L 51.305193 66.084023 
L 51.882777 67.148257 
L 52.460361 66.888707 
L 53.037945 65.222654 
L 53.615529 62.251987 
L 55.925866 46.534953 
L 56.50345 44.662558 
L 57.081034 44.599623 
L 57.658618 46.412771 
L 58.236202 49.871337 
L 59.39137 59.931571 
L 60.546538 70.471506 
L 61.124122 74.472695 
L 61.701706 77.100392 
L 62.27929 78.278527 
L 62.856874 78.284575 
L 63.434458 77.526892 
L 64.589626 75.307687 
L 65.16721 74.531764 
L 65.744795 74.327686 
L 66.322379 74.81251 
L 66.899963 75.932144 
L 68.055131 78.894668 
L 68.632715 79.842436 
L 69.210299 79.80824 
L 69.787883 78.450657 
L 70.365467 75.649321 
L 70.943051 71.428818 
L 72.098219 59.739742 
L 74.408555 34.199297 
L 74.986139 29.63029 
L 75.563724 26.392961 
L 76.141308 24.528592 
L 76.718892 23.906088 
L 77.296476 24.247191 
L 77.87406 25.224394 
L 79.029228 28.086749 
L 80.184396 30.871182 
L 81.917148 34.224654 
L 82.494732 36.024627 
L 83.072316 38.669807 
L 83.6499 42.304163 
L 84.805068 52.276636 
L 87.115405 75.680649 
L 88.270573 84.331341 
L 88.848157 87.225237 
L 89.425741 88.982275 
L 90.003325 89.564803 
L 90.580909 89.034782 
L 91.158493 87.530276 
L 91.736077 85.209561 
L 92.891245 78.761891 
L 94.046413 71.543762 
L 94.623998 68.474676 
L 95.201582 66.197744 
L 95.779166 64.86091 
L 96.35675 64.492929 
L 96.934334 64.97762 
L 98.089502 67.41506 
L 98.667086 68.564068 
L 99.24467 69.199512 
L 99.822254 69.191527 
L 100.399838 68.640849 
L 102.710174 65.141014 
L 104.442927 64.126784 
L 105.020511 63.47491 
L 105.598095 62.486737 
L 106.753263 59.615032 
L 108.486015 54.722544 
L 109.063599 53.707703 
L 109.641183 53.331656 
L 110.218767 53.655332 
L 110.796351 54.609333 
L 111.951519 57.603475 
L 113.106687 60.685716 
L 113.684271 61.921316 
L 114.261856 62.857287 
L 114.83944 63.450967 
L 115.417024 63.574118 
L 115.994608 63.063202 
L 116.572192 61.905769 
L 117.149776 60.200614 
L 118.304944 55.679122 
L 119.460112 50.778443 
L 120.037696 48.689879 
L 120.61528 47.202032 
L 121.192864 46.523696 
L 121.770448 46.667681 
L 122.348032 47.541183 
L 122.925616 49.060274 
L 124.080785 53.65572 
L 126.968705 66.769105 
L 127.546289 68.645162 
L 128.123873 69.800098 
L 128.701457 70.069018 
L 129.279041 69.321439 
L 129.856625 67.528503 
L 130.434209 64.772032 
L 131.589377 57.18433 
L 132.744545 49.650607 
L 133.32213 47.168312 
L 133.899714 45.995188 
L 134.477298 46.186475 
L 135.054882 47.547846 
L 135.632466 49.819314 
L 136.787634 55.210976 
L 137.365218 57.207717 
L 137.942802 58.114208 
L 138.520386 57.766092 
L 139.09797 56.35671 
L 140.830722 50.745593 
L 141.408306 49.84438 
L 141.98589 49.706025 
L 142.563474 50.170692 
L 143.141059 51.15358 
L 143.718643 52.735576 
L 144.296227 55.193255 
L 144.873811 58.858241 
L 145.451395 64.00292 
L 146.606563 78.466784 
L 148.339315 102.992691 
L 148.916899 109.169088 
L 149.494483 113.343957 
L 150.072067 115.237868 
L 150.649651 114.841618 
L 151.227235 112.395173 
L 151.804819 108.344557 
L 154.115156 88.669684 
L 154.69274 85.531044 
L 155.270324 83.685379 
L 155.847908 83.095657 
L 156.425492 83.605264 
L 157.003076 84.889833 
L 158.158244 87.97403 
L 158.735828 89.038088 
L 159.313412 89.411305 
L 159.890996 88.896691 
L 160.46858 87.465814 
L 161.046164 85.270809 
L 162.201333 79.177701 
L 163.934085 68.904165 
L 164.511669 66.335398 
L 165.089253 64.579167 
L 165.666837 63.771438 
L 166.244421 63.911777 
L 166.822005 64.910392 
L 167.399589 66.575464 
L 169.709925 75.196714 
L 170.287509 76.696794 
L 170.865093 77.718446 
L 171.442677 78.376156 
L 174.330598 80.617261 
L 174.908182 80.306077 
L 175.485766 78.938385 
L 176.06335 76.366698 
L 176.640934 72.647717 
L 177.796102 62.703344 
L 178.95127 52.019706 
L 179.528854 47.690496 
L 180.106438 44.608564 
L 180.684022 43.000102 
L 181.261606 42.946628 
L 181.839191 44.330354 
L 182.416775 46.870798 
L 184.727111 59.376408 
L 185.304695 61.116753 
L 185.882279 61.917071 
L 186.459863 61.745112 
L 187.037447 60.663931 
L 187.615031 58.878042 
L 189.347783 52.717759 
L 189.925367 51.854083 
L 190.502951 52.251076 
L 191.080535 54.09745 
L 191.65812 57.410168 
L 192.235704 62.026648 
L 195.123624 88.949159 
L 195.701208 91.729686 
L 196.278792 93.008535 
L 196.856376 92.884231 
L 197.43396 91.6054 
L 198.011544 89.471618 
L 199.166712 83.647643 
L 200.899465 73.224342 
L 203.209801 58.644388 
L 204.364969 53.13569 
L 204.942553 51.379493 
L 205.520137 50.549922 
L 206.097721 50.78383 
L 206.675305 52.004356 
L 207.252889 53.983588 
L 208.985641 61.070048 
L 209.563225 62.740836 
L 210.140809 63.628709 
L 210.718394 63.536508 
L 211.295978 62.447333 
L 211.873562 60.452665 
L 213.606314 52.455449 
L 214.183898 50.615484 
L 214.761482 49.657841 
L 215.339066 49.691938 
L 215.91665 50.691847 
L 216.494234 52.569189 
L 218.80457 62.352491 
L 219.382154 63.930848 
L 219.959738 64.90141 
L 220.537323 65.290509 
L 221.114907 65.084294 
L 221.692491 64.350322 
L 222.270075 63.25823 
L 223.425243 60.206824 
L 224.580411 56.795323 
L 225.157995 55.465028 
L 225.735579 54.621041 
L 226.313163 54.374299 
L 226.890747 54.7546 
L 227.468331 55.725212 
L 228.045915 57.168312 
L 229.201083 60.850934 
L 232.089004 71.369573 
L 233.244172 76.562218 
L 234.39934 83.311594 
L 235.554508 91.734819 
L 237.864844 110.103946 
L 238.442428 113.510356 
L 239.020012 115.726511 
L 239.597597 116.580258 
L 240.175181 115.984533 
L 240.752765 113.898403 
L 241.330349 110.432318 
L 242.485517 100.566807 
L 243.640685 90.145831 
L 244.218269 86.092236 
L 244.795853 83.245759 
L 245.373437 81.627084 
L 245.951021 81.065742 
L 246.528605 81.271445 
L 247.683773 82.303751 
L 248.261357 82.08062 
L 248.838941 80.841691 
L 249.416526 78.478441 
L 250.571694 71.144148 
L 251.726862 64.101946 
L 252.304446 62.089523 
L 252.88203 61.276748 
L 253.459614 61.286609 
L 254.037198 61.455112 
L 254.614782 61.117475 
L 255.192366 59.861685 
L 255.76995 57.572731 
L 256.925118 50.841967 
L 258.080286 44.420082 
L 258.65787 42.654659 
L 259.235455 42.323332 
L 259.813039 43.503971 
L 260.390623 46.09607 
L 260.968207 49.83488 
L 263.856127 72.235245 
L 265.011295 78.092149 
L 265.588879 80.197125 
L 266.744047 83.248892 
L 267.321631 84.345424 
L 267.899215 85.147092 
L 268.4768 85.643733 
L 269.054384 85.766954 
L 269.631968 85.480392 
L 270.209552 84.787822 
L 270.787136 83.750207 
L 271.942304 81.03102 
L 273.097472 78.369514 
L 273.675056 77.462213 
L 274.25264 77.011298 
L 274.830224 77.050473 
L 275.407808 77.551412 
L 276.562976 79.472362 
L 277.718144 81.453487 
L 278.295729 82.213587 
L 278.873313 82.766203 
L 279.450897 83.04697 
L 280.028481 82.994932 
L 280.606065 82.637985 
L 281.761233 81.331747 
L 282.916401 79.53516 
L 284.071569 77.167047 
L 285.226737 74.658833 
L 286.381905 72.699387 
L 288.114658 70.143331 
L 289.269826 67.734073 
L 290.424994 64.48439 
L 291.580162 60.954458 
L 292.157746 59.482319 
L 292.73533 58.404458 
L 293.312914 57.812225 
L 293.890498 57.775906 
L 294.468082 58.282886 
L 295.045666 59.212795 
L 296.200834 61.482843 
L 296.778418 62.297626 
L 297.356002 62.607376 
L 297.933587 62.316652 
L 298.511171 61.429169 
L 299.088755 60.056618 
L 300.821507 55.149878 
L 301.399091 54.008672 
L 301.976675 53.229798 
L 302.554259 52.768687 
L 303.131843 52.559665 
L 304.287011 52.390837 
L 304.864595 52.127875 
L 305.442179 51.626051 
L 306.019763 50.851265 
L 308.3301 46.851594 
L 308.907684 46.342586 
L 309.485268 46.271375 
L 310.062852 46.697787 
L 310.640436 47.62744 
L 311.21802 49.065398 
L 311.795604 51.000274 
L 312.950772 56.233843 
L 314.683524 66.161646 
L 318.149029 87.2336 
L 319.304197 92.720453 
L 321.036949 99.333872 
L 322.192117 102.757809 
L 322.769701 103.843916 
L 323.347285 104.226017 
L 323.924869 103.642578 
L 324.502453 101.914919 
L 325.080037 98.968554 
L 325.657621 94.908691 
L 328.545542 70.393839 
L 329.123126 67.625187 
L 329.70071 66.145068 
L 330.278294 65.92742 
L 330.855878 66.83893 
L 331.433462 68.702983 
L 332.58863 74.322088 
L 334.321382 83.959285 
L 334.898966 86.592362 
L 335.47655 88.613402 
L 336.054134 89.894411 
L 336.631719 90.334052 
L 337.209303 89.866735 
L 337.786887 88.463266 
L 338.364471 86.136658 
L 338.942055 82.953938 
L 340.097223 74.712423 
L 341.829975 61.412364 
L 342.407559 58.065995 
L 342.985143 55.830912 
L 343.562727 54.864336 
L 343.562727 54.864336 
" style="fill:none;stroke:#2ca02c;stroke-linecap:square;stroke-width:0.75;"/>
   </g>
   <g id="line2d_11">
    <path clip-path="url(#p669617787b)" d="M 48.417273 53.924718 
L 48.994857 55.023084 
L 49.572441 56.854709 
L 51.305193 63.103839 
L 51.882777 64.01542 
L 52.460361 63.73203 
L 53.037945 62.165906 
L 53.615529 59.402665 
L 55.925866 45.031061 
L 56.50345 43.463017 
L 57.081034 43.63859 
L 57.658618 45.616165 
L 58.236202 49.173331 
L 59.39137 59.304418 
L 60.546538 69.886317 
L 61.124122 73.956347 
L 61.701706 76.705554 
L 62.27929 78.045401 
L 62.856874 78.214091 
L 63.434458 77.56724 
L 65.744795 73.17862 
L 66.322379 72.769746 
L 66.899963 72.779361 
L 68.055131 73.288324 
L 68.632715 73.199236 
L 69.210299 72.472086 
L 69.787883 70.881661 
L 70.365467 68.386825 
L 71.520635 61.108745 
L 73.830971 44.459537 
L 74.408555 41.334956 
L 74.986139 39.086298 
L 75.563724 37.807903 
L 76.141308 37.469601 
L 76.718892 37.921062 
L 77.296476 38.907855 
L 79.606812 43.777218 
L 80.184396 44.540102 
L 80.76198 44.956651 
L 81.917148 45.407552 
L 82.494732 46.00325 
L 83.072316 47.208646 
L 83.6499 49.16153 
L 84.227484 51.857292 
L 85.382653 59.133399 
L 87.115405 71.442795 
L 88.270573 77.954279 
L 88.848157 80.355981 
L 89.425741 82.102304 
L 90.003325 83.164916 
L 90.580909 83.552089 
L 91.158493 83.296711 
L 91.736077 82.398366 
L 92.313661 80.856653 
L 92.891245 78.699915 
L 94.046413 73.114577 
L 95.201582 67.37396 
L 95.779166 65.060435 
L 96.35675 63.387265 
L 96.934334 62.462074 
L 97.511918 62.29846 
L 98.089502 62.725628 
L 99.822254 64.78503 
L 100.399838 65.082077 
L 100.977422 65.124575 
L 102.710174 64.826695 
L 105.020511 65.195142 
L 105.598095 64.923839 
L 106.175679 64.343697 
L 106.753263 63.414179 
L 107.908431 60.773344 
L 109.063599 58.318898 
L 109.641183 57.701179 
L 110.218767 57.697803 
L 110.796351 58.312652 
L 111.373935 59.423555 
L 114.261856 66.198535 
L 114.83944 66.897612 
L 115.417024 67.148007 
L 115.994608 66.847453 
L 116.572192 65.997765 
L 117.149776 64.658091 
L 118.304944 60.863466 
L 120.037696 54.71804 
L 120.61528 53.384622 
L 121.192864 52.740772 
L 121.770448 52.814345 
L 122.348032 53.589264 
L 122.925616 55.036426 
L 123.5032 57.098822 
L 125.235953 65.068809 
L 126.391121 70.064025 
L 126.968705 72.013186 
L 127.546289 73.388942 
L 128.123873 74.129812 
L 128.701457 74.222595 
L 129.279041 73.667999 
L 129.856625 72.504363 
L 130.434209 70.813066 
L 132.744545 62.339189 
L 133.32213 60.91988 
L 133.899714 60.029141 
L 134.477298 59.606795 
L 135.054882 59.511814 
L 136.787634 59.986324 
L 137.365218 59.878379 
L 137.942802 59.330488 
L 138.520386 58.152206 
L 139.09797 56.24511 
L 139.675554 53.656803 
L 141.408306 44.192706 
L 141.98589 42.146607 
L 142.563474 41.644681 
L 143.141059 43.137968 
L 143.718643 46.786497 
L 144.296227 52.439177 
L 145.451395 67.543502 
L 146.606563 82.85239 
L 147.184147 88.931146 
L 147.761731 93.422476 
L 148.339315 96.210695 
L 148.916899 97.412688 
L 149.494483 97.309522 
L 150.072067 96.338763 
L 151.227235 93.671197 
L 151.804819 92.681215 
L 152.382403 92.1327 
L 152.959988 92.036474 
L 153.537572 92.376746 
L 154.115156 93.043063 
L 155.270324 94.653677 
L 155.847908 95.150438 
L 156.425492 95.196736 
L 157.003076 94.709365 
L 157.58066 93.727844 
L 158.735828 90.766167 
L 159.890996 87.705707 
L 161.046164 85.507223 
L 161.623748 84.747898 
L 164.511669 81.881311 
L 165.089253 80.845055 
L 165.666837 79.325059 
L 166.822005 74.99835 
L 167.977173 70.319917 
L 168.554757 68.456775 
L 169.132341 67.12528 
L 169.709925 66.438139 
L 170.287509 66.450035 
L 170.865093 67.113464 
L 171.442677 68.294546 
L 173.17543 72.487734 
L 173.753014 73.361886 
L 174.330598 73.776318 
L 174.908182 73.708095 
L 175.485766 73.167142 
L 176.06335 72.218995 
L 177.218518 69.536659 
L 178.373686 66.793152 
L 178.95127 65.70165 
L 179.528854 65.045307 
L 180.106438 65.020292 
L 180.684022 65.67572 
L 181.261606 66.972952 
L 181.839191 68.880343 
L 184.727111 80.541008 
L 185.304695 82.058818 
L 185.882279 83.261197 
L 186.459863 84.197996 
L 187.037447 84.844275 
L 187.615031 85.190959 
L 188.192615 85.224806 
L 188.770199 84.799799 
L 189.347783 83.760844 
L 189.925367 82.024964 
L 190.502951 79.612216 
L 192.813288 67.594905 
L 193.390872 65.574986 
L 193.968456 64.443725 
L 194.54604 64.305057 
L 195.123624 65.165826 
L 195.701208 66.90139 
L 196.856376 71.812482 
L 199.166712 82.143918 
L 202.632217 96.251804 
L 203.209801 97.883796 
L 203.787385 99.09131 
L 204.364969 99.832819 
L 204.942553 100.09492 
L 205.520137 99.867285 
L 206.097721 99.143215 
L 206.675305 97.862765 
L 207.252889 95.958324 
L 207.830473 93.415177 
L 208.985641 86.642875 
L 210.140809 78.088171 
L 211.295978 69.365108 
L 211.873562 66.068955 
L 212.451146 63.96452 
L 213.02873 63.190161 
L 213.606314 63.696811 
L 214.183898 65.328396 
L 215.339066 70.665265 
L 215.91665 73.499522 
L 216.494234 75.717821 
L 217.071818 76.93381 
L 217.649402 76.982904 
L 218.226986 75.884324 
L 218.80457 73.856617 
L 219.959738 68.811521 
L 220.537323 66.841778 
L 221.114907 65.903078 
L 221.692491 66.349473 
L 222.270075 68.305684 
L 222.847659 71.723002 
L 224.002827 81.723526 
L 225.157995 92.777762 
L 226.313163 101.606435 
L 226.890747 104.741151 
L 227.468331 106.924921 
L 228.045915 108.160334 
L 228.623499 108.537187 
L 229.201083 108.113861 
L 229.778667 106.908994 
L 230.356252 104.941603 
L 230.933836 102.303444 
L 232.089004 95.325341 
L 233.244172 86.411369 
L 235.554508 67.757394 
L 236.709676 59.798914 
L 237.864844 53.21942 
L 239.020012 47.933216 
L 239.597597 45.868549 
L 240.175181 44.395408 
L 240.752765 43.592963 
L 241.330349 43.381188 
L 241.907933 43.608685 
L 243.640685 45.088393 
L 244.218269 45.114153 
L 244.795853 44.627084 
L 245.373437 43.578713 
L 245.951021 41.993459 
L 247.106189 38.236782 
L 247.683773 37.10574 
L 248.261357 37.273463 
L 248.838941 39.189275 
L 249.416526 42.941013 
L 250.571694 54.134957 
L 251.149278 59.915051 
L 251.726862 64.432673 
L 252.304446 66.91235 
L 252.88203 67.086505 
L 253.459614 65.1472 
L 254.037198 61.610425 
L 255.76995 49.00807 
L 256.347534 46.535403 
L 256.925118 45.544406 
L 257.502702 46.097428 
L 258.080286 48.066507 
L 258.65787 51.265978 
L 259.813039 60.116779 
L 261.545791 73.972535 
L 262.123375 77.553164 
L 262.700959 80.406569 
L 263.278543 82.561603 
L 263.856127 84.177704 
L 264.433711 85.366231 
L 265.011295 86.229984 
L 265.588879 86.804341 
L 266.166463 87.161676 
L 267.321631 87.449493 
L 268.4768 87.574833 
L 269.054384 87.904118 
L 269.631968 88.562266 
L 270.209552 89.61934 
L 271.942304 93.648833 
L 272.519888 93.936837 
L 273.097472 93.059971 
L 273.675056 90.823799 
L 274.25264 87.201813 
L 275.407808 76.830196 
L 277.14056 60.154425 
L 277.718144 56.358831 
L 278.295729 54.052534 
L 278.873313 53.376771 
L 279.450897 54.358644 
L 280.028481 56.854745 
L 281.183649 64.896906 
L 282.338817 73.636536 
L 282.916401 77.258185 
L 283.493985 80.071149 
L 284.071569 81.96205 
L 284.649153 82.932515 
L 285.226737 83.12099 
L 285.804321 82.640355 
L 286.381905 81.580567 
L 286.959489 79.989423 
L 287.537073 77.877994 
L 288.692242 72.162015 
L 289.84741 64.774779 
L 291.580162 53.207993 
L 292.157746 50.514879 
L 292.73533 48.891487 
L 293.312914 48.420627 
L 293.890498 49.096447 
L 294.468082 50.767716 
L 296.200834 57.830104 
L 296.778418 59.353842 
L 297.356002 59.780121 
L 297.933587 58.87244 
L 298.511171 56.564058 
L 299.088755 53.060096 
L 301.399091 36.598079 
L 301.976675 34.252745 
L 302.554259 33.150865 
L 303.131843 33.320331 
L 303.709427 34.678444 
L 304.287011 37.033506 
L 305.442179 43.646973 
L 307.174932 53.86769 
L 308.3301 58.912728 
L 309.485268 62.533286 
L 311.21802 67.156142 
L 311.795604 69.056824 
L 312.373188 71.388667 
L 313.528356 77.396792 
L 315.261108 88.549381 
L 318.149029 107.833903 
L 319.304197 114.182146 
L 319.881781 116.712071 
L 320.459365 118.738531 
L 321.036949 120.136667 
L 321.614533 120.696206 
L 322.192117 120.267651 
L 322.769701 118.763294 
L 323.347285 116.158507 
L 323.924869 112.460319 
L 325.080037 102.362593 
L 327.390374 79.027072 
L 327.967958 74.22934 
L 328.545542 70.409882 
L 329.123126 67.726139 
L 329.70071 66.229217 
L 330.278294 65.890042 
L 330.855878 66.594298 
L 331.433462 68.186503 
L 332.58863 73.120375 
L 334.321382 81.523092 
L 334.898966 83.756521 
L 335.47655 85.423197 
L 336.054134 86.421593 
L 336.631719 86.675282 
L 337.209303 86.138787 
L 337.786887 84.794116 
L 338.364471 82.653598 
L 338.942055 79.770257 
L 340.097223 72.35845 
L 341.829975 60.262424 
L 342.407559 57.118585 
L 342.985143 54.931696 
L 343.562727 53.85838 
L 343.562727 53.85838 
" style="fill:none;stroke:#2ca02c;stroke-dasharray:0.75,1.2375;stroke-dashoffset:0;stroke-width:0.75;"/>
   </g>
   <g id="patch_3">
    <path d="M 33.66 133.4125 
L 33.66 1.68 
" style="fill:none;stroke:#000000;stroke-linecap:square;stroke-linejoin:miter;stroke-width:0.5;"/>
   </g>
   <g id="patch_4">
    <path d="M 358.32 133.4125 
L 358.32 1.68 
" style="fill:none;stroke:#000000;stroke-linecap:square;stroke-linejoin:miter;stroke-width:0.5;"/>
   </g>
   <g id="patch_5">
    <path d="M 33.66 133.4125 
L 358.32 133.4125 
" style="fill:none;stroke:#000000;stroke-linecap:square;stroke-linejoin:miter;stroke-width:0.5;"/>
   </g>
   <g id="patch_6">
    <path d="M 33.66 1.68 
L 358.32 1.68 
" style="fill:none;stroke:#000000;stroke-linecap:square;stroke-linejoin:miter;stroke-width:0.5;"/>
   </g>
   <g id="legend_1">
    <g id="line2d_12">
     <path d="M 148.47 11.68 
L 164.47 11.68 
" style="fill:none;stroke:#2ca02c;stroke-linecap:square;stroke-width:0.75;"/>
    </g>
    <g id="line2d_13"/>
    <g id="text_12">
     <!-- $p=1$ -->
     <defs>
      <path d="M 7.515625 13.28125 
Q 6.6875 13.28125 6.140625 13.90625 
Q 5.609375 14.546875 5.609375 15.28125 
Q 5.609375 16.109375 6.140625 16.6875 
Q 6.6875 17.28125 7.515625 17.28125 
L 70.3125 17.28125 
Q 71.046875 17.28125 71.578125 16.6875 
Q 72.125 16.109375 72.125 15.28125 
Q 72.125 14.546875 71.578125 13.90625 
Q 71.046875 13.28125 70.3125 13.28125 
z
M 7.515625 32.71875 
Q 6.6875 32.71875 6.140625 33.296875 
Q 5.609375 33.890625 5.609375 34.71875 
Q 5.609375 35.453125 6.140625 36.078125 
Q 6.6875 36.71875 7.515625 36.71875 
L 70.3125 36.71875 
Q 71.046875 36.71875 71.578125 36.078125 
Q 72.125 35.453125 72.125 34.71875 
Q 72.125 33.890625 71.578125 33.296875 
Q 71.046875 32.71875 70.3125 32.71875 
z
" id="Cmr10-61"/>
      <path d="M 9.28125 0 
L 9.28125 3.515625 
Q 21.78125 3.515625 21.78125 6.6875 
L 21.78125 59.1875 
Q 16.609375 56.6875 8.6875 56.6875 
L 8.6875 60.203125 
Q 20.953125 60.203125 27.203125 66.609375 
L 28.609375 66.609375 
Q 28.953125 66.609375 29.265625 66.328125 
Q 29.59375 66.0625 29.59375 65.71875 
L 29.59375 6.6875 
Q 29.59375 3.515625 42.09375 3.515625 
L 42.09375 0 
z
" id="Cmr10-49"/>
     </defs>
     <g transform="translate(170.87 14.48)scale(0.08 -0.08)">
      <use transform="translate(0 0.390625)" xlink:href="#Cmmi10-112"/>
      <use transform="translate(67.851562 0.390625)" xlink:href="#Cmr10-61"/>
      <use transform="translate(163.095703 0.390625)" xlink:href="#Cmr10-49"/>
     </g>
    </g>
    <g id="line2d_14">
     <path d="M 203.99 11.68 
L 219.99 11.68 
" style="fill:none;stroke:#2ca02c;stroke-dasharray:0.75,1.2375;stroke-dashoffset:0;stroke-width:0.75;"/>
    </g>
    <g id="line2d_15"/>
    <g id="text_13">
     <!-- $p=2$ -->
     <defs>
      <path d="M 4.984375 0 
L 4.984375 2.6875 
Q 4.984375 2.9375 5.171875 3.21875 
L 20.703125 20.40625 
Q 24.21875 24.21875 26.40625 26.796875 
Q 28.609375 29.390625 30.75 32.765625 
Q 32.90625 36.140625 34.15625 39.625 
Q 35.40625 43.109375 35.40625 47.015625 
Q 35.40625 51.125 33.890625 54.859375 
Q 32.375 58.59375 29.375 60.84375 
Q 26.375 63.09375 22.125 63.09375 
Q 17.78125 63.09375 14.3125 60.46875 
Q 10.84375 57.859375 9.421875 53.71875 
Q 9.8125 53.8125 10.5 53.8125 
Q 12.75 53.8125 14.328125 52.296875 
Q 15.921875 50.78125 15.921875 48.390625 
Q 15.921875 46.09375 14.328125 44.5 
Q 12.75 42.921875 10.5 42.921875 
Q 8.15625 42.921875 6.5625 44.546875 
Q 4.984375 46.1875 4.984375 48.390625 
Q 4.984375 52.15625 6.390625 55.4375 
Q 7.8125 58.734375 10.46875 61.296875 
Q 13.140625 63.875 16.484375 65.234375 
Q 19.828125 66.609375 23.578125 66.609375 
Q 29.296875 66.609375 34.21875 64.1875 
Q 39.15625 61.765625 42.03125 57.34375 
Q 44.921875 52.9375 44.921875 47.015625 
Q 44.921875 42.671875 43.015625 38.765625 
Q 41.109375 34.859375 38.125 31.65625 
Q 35.15625 28.46875 30.515625 24.40625 
Q 25.875 20.359375 24.421875 19 
L 13.09375 8.109375 
L 22.703125 8.109375 
Q 29.78125 8.109375 34.546875 8.21875 
Q 39.3125 8.34375 39.59375 8.59375 
Q 40.765625 9.859375 42 17.828125 
L 44.921875 17.828125 
L 42.09375 0 
z
" id="Cmr10-50"/>
     </defs>
     <g transform="translate(226.39 14.48)scale(0.08 -0.08)">
      <use transform="translate(0 0.390625)" xlink:href="#Cmmi10-112"/>
      <use transform="translate(67.851562 0.390625)" xlink:href="#Cmr10-61"/>
      <use transform="translate(163.095703 0.390625)" xlink:href="#Cmr10-50"/>
     </g>
    </g>
   </g>
  </g>
 </g>
 <defs>
  <clipPath id="p669617787b">
   <rect height="131.7325" width="324.66" x="33.66" y="1.68"/>
  </clipPath>
 </defs>
</svg>
