<?xml version="1.0" encoding="UTF-8" standalone="no"?>
<!-- Created with Inkscape (http://www.inkscape.org/) -->

<svg
   xmlns:dc="http://purl.org/dc/elements/1.1/"
   xmlns:cc="http://creativecommons.org/ns#"
   xmlns:rdf="http://www.w3.org/1999/02/22-rdf-syntax-ns#"
   xmlns:svg="http://www.w3.org/2000/svg"
   xmlns="http://www.w3.org/2000/svg"
   xmlns:sodipodi="http://sodipodi.sourceforge.net/DTD/sodipodi-0.dtd"
   xmlns:inkscape="http://www.inkscape.org/namespaces/inkscape"
   width="91.003067mm"
   height="67.748657mm"
   viewBox="0 0 91.003067 67.748657"
   version="1.1"
   id="svg29841"
   inkscape:version="0.92.2 (unknown)"
   sodipodi:docname="directed-generative-model-computation-graph.svg">
  <defs
     id="defs29835">
    <clipPath
       id="clip1-0">
      <path
         d="M 64,45 H 85 V 65.679688 H 64 Z m 0,0"
         id="path61"
         inkscape:connector-curvature="0" />
    </clipPath>
    <clipPath
       id="clip2-63">
      <path
         d="M 58,39 H 90 V 65.679688 H 58 Z m 0,0"
         id="path64-2"
         inkscape:connector-curvature="0" />
    </clipPath>
    <clipPath
       id="clip2-63-3">
      <path
         d="M 58,39 H 90 V 65.679688 H 58 Z m 0,0"
         id="path64-2-6"
         inkscape:connector-curvature="0" />
    </clipPath>
    <clipPath
       id="clip1-0-7">
      <path
         d="M 64,45 H 85 V 65.679688 H 64 Z m 0,0"
         id="path61-5"
         inkscape:connector-curvature="0" />
    </clipPath>
  </defs>
  <sodipodi:namedview
     id="base"
     pagecolor="#ffffff"
     bordercolor="#666666"
     borderopacity="1.0"
     inkscape:pageopacity="0.0"
     inkscape:pageshadow="2"
     inkscape:zoom="0.35"
     inkscape:cx="630.93051"
     inkscape:cy="243.62025"
     inkscape:document-units="mm"
     inkscape:current-layer="layer1"
     showgrid="false"
     inkscape:window-width="1366"
     inkscape:window-height="746"
     inkscape:window-x="0"
     inkscape:window-y="22"
     inkscape:window-maximized="1"
     fit-margin-top="0"
     fit-margin-left="0"
     fit-margin-right="0"
     fit-margin-bottom="0" />
  <metadata
     id="metadata29838">
    <rdf:RDF>
      <cc:Work
         rdf:about="">
        <dc:format>image/svg+xml</dc:format>
        <dc:type
           rdf:resource="http://purl.org/dc/dcmitype/StillImage" />
        <dc:title></dc:title>
      </cc:Work>
    </rdf:RDF>
  </metadata>
  <g
     inkscape:label="Layer 1"
     inkscape:groupmode="layer"
     id="layer1"
     transform="translate(-108.33477,-106.26555)">
    <path
       style="display:inline;fill:#ffffff;fill-opacity:1;fill-rule:nonzero;stroke:#000000;stroke-width:0.5;stroke-linecap:butt;stroke-linejoin:miter;stroke-miterlimit:10;stroke-dasharray:none;stroke-opacity:1"
       d="m 146.49777,116.77669 c 0,-5.66576 -4.59136,-10.26114 -10.26114,-10.26114 -5.66977,0 -10.26515,4.59538 -10.26515,10.26114 0,5.66977 4.59538,10.26515 10.26515,10.26515 5.66978,0 10.26114,-4.59538 10.26114,-10.26515 z m 0,0"
       id="path69"
       inkscape:connector-curvature="0" />
    <g
       id="use71"
       style="display:inline;fill:#008000;fill-opacity:1;stroke-width:0.34245709;stroke-linecap:butt;stroke-linejoin:round;stroke-miterlimit:100000"
       transform="matrix(1.0301371,0,0,1.0301371,131.59873,118.16826)">
      <path
         inkscape:connector-curvature="0"
         id="path42404"
         d="m 3.703125,-0.640625 h 0.03125 L 3.78125,0 c 0,0.015625 0.03125,0.03125 0.09375,0.03125 C 4,0.015625 4.296875,0 4.453125,0 4.5625,0 5.046875,0.015625 5.171875,0.03125 L 5.1875,0 C 5.109375,-0.421875 5.03125,-1.171875 5.03125,-1.90625 v -0.578125 c 0,-0.75 0,-1.265625 0.078125,-1.796875 V -4.3125 c 0,0 -0.421875,0.03125 -0.765625,0.03125 -0.34375,0 -0.6875,-0.03125 -0.6875,-0.03125 l -0.015625,0.03125 c 0.0625,0.5625 0.0625,1.046875 0.0625,1.796875 V -1.6875 c 0,0.578125 -0.65625,1.015625 -1.109375,1.015625 -0.296875,0 -0.59375,-0.09375 -0.5625,-0.90625 l 0.015625,-0.90625 C 2.0625,-3.234375 2.078125,-3.765625 2.125,-4.28125 L 2.109375,-4.3125 c 0,0 -0.390625,0.03125 -0.75,0.03125 -0.328125,0 -0.6875,-0.03125 -0.6875,-0.03125 l -0.03125,0.03125 c 0.0625,0.578125 0.09375,1.078125 0.09375,1.796875 L 0.703125,-1.25 c 0,0.6875 0.34375,1.34375 1.328125,1.34375 0.40625,0 1.125,-0.140625 1.671875,-0.734375 z m 0,0"
         style="stroke:none;stroke-linecap:butt;stroke-linejoin:round;stroke-miterlimit:100000" />
    </g>
    <g
       id="use75"
       style="display:inline;fill:#008000;fill-opacity:1;stroke-width:0.34245709;stroke-linecap:butt;stroke-linejoin:round;stroke-miterlimit:100000"
       transform="matrix(1.0301371,0,0,1.0301371,137.66418,119.70728)">
      <path
         inkscape:connector-curvature="0"
         id="path42408"
         d="M 1.734375,-0.890625 V -3.40625 c 0,-0.4375 0.015625,-0.875 0.03125,-0.96875 0,-0.046875 -0.015625,-0.046875 -0.046875,-0.046875 -0.40625,0.25 -0.78125,0.4375 -1.421875,0.734375 0.015625,0.078125 0.03125,0.15625 0.109375,0.1875 0.328125,-0.125 0.484375,-0.171875 0.625,-0.171875 0.125,0 0.140625,0.171875 0.140625,0.421875 v 2.359375 c 0,0.609375 -0.1875,0.640625 -0.703125,0.671875 -0.046875,0.03125 -0.046875,0.1875 0,0.234375 C 0.828125,0 1.09375,0 1.484375,0 1.828125,0 2,0 2.375,0.015625 2.40625,-0.03125 2.40625,-0.1875 2.375,-0.21875 1.859375,-0.25 1.734375,-0.28125 1.734375,-0.890625 Z m 0,0"
         style="stroke:none;stroke-linecap:butt;stroke-linejoin:round;stroke-miterlimit:100000" />
    </g>
    <path
       style="display:inline;fill:#000000;fill-opacity:1;fill-rule:nonzero;stroke:none;stroke-width:0.35277775;stroke-linecap:butt;stroke-linejoin:round;stroke-miterlimit:100000"
       d="m 108.7529,119.34399 h 5.13057 v -5.13056 h -5.13057 z m 0,0"
       id="path79"
       inkscape:connector-curvature="0" />
    <path
       style="display:inline;fill:none;stroke:#000000;stroke-width:0.5;stroke-linecap:butt;stroke-linejoin:miter;stroke-miterlimit:10;stroke-dasharray:none;stroke-opacity:1"
       d="m 113.66796,116.85239 h 7.45918"
       id="path89"
       inkscape:connector-curvature="0" />
    <path
       style="display:inline;fill:#000000;fill-opacity:1;fill-rule:nonzero;stroke:#000000;stroke-width:0.14058192;stroke-linecap:butt;stroke-linejoin:miter;stroke-miterlimit:10;stroke-opacity:1"
       d="m 125.64793,116.7767 c -0.5875,-0.14084 -3.17089,-0.94966 -4.78853,-1.83091 v 3.66584 c 1.61764,-0.88125 4.20103,-1.69007 4.78853,-1.83493 z m 0,0"
       id="path91"
       inkscape:connector-curvature="0" />
    <path
       style="display:inline;fill:#ffffff;fill-opacity:1;fill-rule:nonzero;stroke:#000000;stroke-width:0.5;stroke-linecap:butt;stroke-linejoin:miter;stroke-miterlimit:10;stroke-dasharray:none;stroke-opacity:1"
       d="m 190.79769,116.77669 c 0,-5.66576 -4.59538,-10.26114 -10.26516,-10.26114 -5.66575,0 -10.26113,4.59538 -10.26113,10.26114 0,5.66977 4.59538,10.26515 10.26113,10.26515 5.66978,0 10.26516,-4.59538 10.26516,-10.26515 z m 0,0"
       id="path93"
       inkscape:connector-curvature="0" />
    <g
       id="use95"
       style="display:inline;fill:#4682b4;fill-opacity:1;stroke-width:0.34245709;stroke-linecap:butt;stroke-linejoin:round;stroke-miterlimit:100000"
       transform="matrix(1.0301371,0,0,1.0301371,178.04966,118.91303)">
      <path
         inkscape:connector-curvature="0"
         id="path42412"
         d="m 2.703125,-3.6875 -2.28125,3.375 c -0.078125,0.109375 -0.125,0.15625 -0.21875,0.25 l 0.03125,0.09375 c 0,0 1.09375,-0.03125 1.375,-0.03125 H 3.875 C 4.0625,0 4.28125,0.015625 4.421875,0.03125 L 4.453125,0 C 4.4375,-0.125 4.421875,-0.234375 4.421875,-0.3125 c 0,-0.09375 0.015625,-0.28125 0.03125,-0.359375 l -0.03125,-0.03125 c 0,0 -1.234375,0.109375 -2.421875,0.109375 l 2.21875,-3.265625 c 0.171875,-0.25 0.234375,-0.34375 0.296875,-0.421875 0,-0.03125 -0.015625,-0.0625 -0.046875,-0.0625 -0.046875,0 -0.515625,0.0625 -0.8125,0.0625 H 1.140625 c -0.1875,0 -0.40625,0 -0.546875,-0.03125 L 0.5625,-4.28125 c 0.015625,0.140625 0.03125,0.234375 0.03125,0.328125 0,0.078125 -0.015625,0.265625 -0.03125,0.34375 l 0.03125,0.03125 c 0,0 0.984375,-0.09375 2.109375,-0.109375 z m 0,0"
         style="stroke:none;stroke-linecap:butt;stroke-linejoin:round;stroke-miterlimit:100000" />
    </g>
    <path
       style="display:inline;fill:#ffffff;fill-opacity:1;fill-rule:nonzero;stroke:#000000;stroke-width:0.5;stroke-linecap:butt;stroke-linejoin:miter;stroke-miterlimit:10;stroke-dasharray:none;stroke-opacity:1"
       d="m 161.01626,116.77669 -4.01995,-4.01995 -4.01995,4.01995 4.01995,4.02397 z m 0,0"
       id="path99"
       inkscape:connector-curvature="0" />
    <g
       id="use101"
       style="display:inline;fill:#000000;fill-opacity:1;stroke-width:0.34245709;stroke-linecap:butt;stroke-linejoin:round;stroke-miterlimit:100000"
       transform="matrix(1.0301371,0,0,1.0301371,153.67766,128.18221)">
      <path
         inkscape:connector-curvature="0"
         id="path42416"
         d="m 2.015625,-1.84375 c 0,0.625 -0.25,0.734375 -0.421875,0.734375 -0.40625,0 -0.53125,-0.515625 -0.53125,-0.84375 0,-0.46875 0.1875,-0.6875 0.4375,-0.6875 0.3125,0 0.515625,0.296875 0.515625,0.796875 z M 1.1875,0.09375 c 0.0625,0 0.171875,0 0.265625,0 0.09375,-0.015625 0.140625,-0.015625 0.203125,-0.015625 0.296875,0 0.9375,0.015625 0.9375,0.453125 0,0.484375 -0.609375,0.734375 -1.09375,0.734375 -0.1875,0 -0.671875,-0.1875 -0.671875,-0.640625 0,-0.21875 0,-0.40625 0.140625,-0.546875 C 1.03125,0.09375 1.109375,0.09375 1.1875,0.09375 Z m 1.703125,-2.578125 c 0.1875,0 0.28125,-0.09375 0.28125,-0.25 0,-0.125 -0.09375,-0.28125 -0.34375,-0.28125 -0.171875,0 -0.46875,0.09375 -0.65625,0.265625 C 2.0625,-2.8125 1.859375,-2.875 1.5625,-2.875 c -0.625,0 -1.1875,0.390625 -1.1875,0.984375 0,0.3125 0.15625,0.65625 0.390625,0.8125 -0.1875,0.1875 -0.328125,0.40625 -0.328125,0.59375 0,0.21875 0.125,0.375 0.3125,0.484375 -0.34375,0.21875 -0.53125,0.5 -0.53125,0.75 0,0.578125 0.5625,0.796875 1.09375,0.796875 0.90625,0 1.875,-0.484375 1.875,-1.1875 0,-0.25 -0.25,-0.71875 -1.3125,-0.71875 -0.25,0 -0.546875,0.046875 -0.609375,0.046875 -0.109375,0 -0.28125,-0.078125 -0.28125,-0.34375 0,-0.09375 0,-0.234375 0.03125,-0.3125 0.140625,0.0625 0.34375,0.09375 0.546875,0.09375 0.609375,0 1.15625,-0.34375 1.15625,-0.984375 0,-0.359375 -0.125,-0.578125 -0.34375,-0.765625 0.046875,-0.0625 0.109375,-0.125 0.1875,-0.125 0.046875,0 0.0625,0.046875 0.09375,0.078125 0.015625,0.09375 0.078125,0.1875 0.234375,0.1875 z m 0,0"
         style="stroke:none;stroke-linecap:butt;stroke-linejoin:round;stroke-miterlimit:100000" />
    </g>
    <g
       id="use105"
       style="display:inline;fill:#4682b4;fill-opacity:1;stroke-width:0.34245709;stroke-linecap:butt;stroke-linejoin:round;stroke-miterlimit:100000"
       transform="matrix(1.0301371,0,0,1.0301371,157.06681,129.18246)">
      <path
         inkscape:connector-curvature="0"
         id="path42420"
         d="m 1.484375,-2.03125 -1.25,1.859375 c -0.046875,0.0625 -0.0625,0.078125 -0.125,0.140625 L 0.125,0.015625 C 0.125,0.015625 0.734375,0 0.890625,0 H 2.125 C 2.234375,0 2.359375,0 2.4375,0.015625 L 2.453125,0 C 2.4375,-0.078125 2.4375,-0.125 2.4375,-0.171875 c 0,-0.046875 0,-0.15625 0.015625,-0.203125 L 2.4375,-0.390625 c 0,0 -0.6875,0.0625 -1.34375,0.0625 L 2.3125,-2.125 c 0.09375,-0.140625 0.140625,-0.1875 0.171875,-0.234375 0,-0.015625 0,-0.03125 -0.03125,-0.03125 -0.03125,0 -0.28125,0.03125 -0.4375,0.03125 H 0.625 c -0.109375,0 -0.21875,0 -0.296875,-0.015625 L 0.3125,-2.359375 c 0,0.078125 0.015625,0.125 0.015625,0.1875 0,0.046875 -0.015625,0.140625 -0.015625,0.1875 l 0.015625,0.015625 c 0,0 0.546875,-0.046875 1.15625,-0.0625 z m 0,0"
         style="stroke:none;stroke-linecap:butt;stroke-linejoin:round;stroke-miterlimit:100000" />
    </g>
    <path
       style="display:inline;fill:none;stroke:#000000;stroke-width:0.5;stroke-linecap:butt;stroke-linejoin:miter;stroke-miterlimit:10;stroke-dasharray:none;stroke-opacity:1"
       d="m 146.70299,116.77669 h 5.97962"
       id="path109"
       inkscape:connector-curvature="0" />
    <path
       style="display:inline;fill:none;stroke:#000000;stroke-width:0.5;stroke-linecap:butt;stroke-linejoin:miter;stroke-miterlimit:10;stroke-dasharray:none;stroke-opacity:1"
       d="m 160.92736,116.7767 h 4.69525"
       id="path111"
       inkscape:connector-curvature="0" />
    <path
       style="display:inline;fill:#000000;fill-opacity:1;fill-rule:nonzero;stroke:#000000;stroke-width:0.14058192;stroke-linecap:butt;stroke-linejoin:miter;stroke-miterlimit:10;stroke-opacity:1"
       d="m 169.92432,116.7767 c -0.59152,-0.14084 -3.17491,-0.94966 -4.78853,-1.83091 v 3.66584 c 1.61362,-0.88125 4.19701,-1.69007 4.78853,-1.83493 z m 0,0"
       id="path113"
       inkscape:connector-curvature="0" />
    <path
       inkscape:connector-curvature="0"
       id="path115"
       d="m 190.79769,163.49905 c 0,-5.66575 -4.59538,-10.26113 -10.26516,-10.26113 -5.66575,0 -10.26113,4.59538 -10.26113,10.26113 0,5.66978 4.59538,10.26516 10.26113,10.26516 5.66978,0 10.26516,-4.59538 10.26516,-10.26516 z m 0,0"
       style="clip-rule:nonzero;display:inline;fill:#dedede;fill-opacity:1;fill-rule:nonzero;stroke:none;stroke-width:0.35277775;stroke-linecap:butt;stroke-linejoin:round;stroke-miterlimit:100000" />
    <path
       inkscape:connector-curvature="0"
       id="path119"
       d="m 190.79769,163.49905 c 0,-5.66575 -4.59538,-10.26113 -10.26516,-10.26113 -5.66575,0 -10.26113,4.59538 -10.26113,10.26113 0,5.66978 4.59538,10.26516 10.26113,10.26516 5.66978,0 10.26516,-4.59538 10.26516,-10.26516 z m 0,0"
       style="clip-rule:nonzero;display:inline;fill:none;stroke:#000000;stroke-width:0.5;stroke-linecap:butt;stroke-linejoin:miter;stroke-miterlimit:10;stroke-dasharray:none;stroke-opacity:1" />
    <g
       id="use123"
       style="display:inline;fill:#ff0000;fill-opacity:1;stroke-width:0.34245709;stroke-linecap:butt;stroke-linejoin:round;stroke-miterlimit:100000"
       transform="matrix(1.0301371,0,0,1.0301371,177.79318,165.63387)">
      <path
         inkscape:connector-curvature="0"
         id="path42424"
         d="m 1.90625,-2.0625 -0.046875,0.03125 -1.625,2.0625 C 0.34375,0 0.6875,0 0.78125,0 0.890625,0 1.21875,0 1.328125,0.03125 1.671875,-0.5 2.046875,-1 2.40625,-1.515625 2.765625,-1 3.140625,-0.5 3.46875,0.03125 3.625,0 4.265625,0 4.421875,0 4.578125,0 4.96875,0 5.125,0.03125 c -0.59375,-0.765625 -1.140625,-1.5 -1.671875,-2.25 L 3.3125,-2.40625 4.9375,-4.3125 C 4.828125,-4.28125 4.59375,-4.28125 4.5,-4.28125 c -0.109375,0 -0.546875,0 -0.65625,-0.03125 -0.328125,0.46875 -0.671875,0.921875 -1.015625,1.375 -0.34375,-0.453125 -0.65625,-0.90625 -0.9375,-1.375 -0.171875,0.03125 -0.5625,0.03125 -0.71875,0.03125 -0.171875,0 -0.8125,0 -0.96875,-0.03125 l 1.65625,2.1875 z m 0,0"
         style="stroke:none;stroke-linecap:butt;stroke-linejoin:round;stroke-miterlimit:100000" />
    </g>
    <path
       style="display:inline;fill:#ffffff;fill-opacity:1;fill-rule:nonzero;stroke:#000000;stroke-width:0.5;stroke-linecap:butt;stroke-linejoin:miter;stroke-miterlimit:10;stroke-dasharray:none;stroke-opacity:1"
       d="m 184.55248,139.96282 -4.01995,-4.01995 -4.01995,4.01995 4.01995,4.01995 z m 0,0"
       id="path127"
       inkscape:connector-curvature="0" />
    <g
       id="use129"
       style="display:inline;fill:#000000;fill-opacity:1;stroke-width:0.34245709;stroke-linecap:butt;stroke-linejoin:round;stroke-miterlimit:100000"
       transform="matrix(1.0301371,0,0,1.0301371,188.79503,140.31208)">
      <path
         inkscape:connector-curvature="0"
         id="path42428"
         d="m 2.015625,-1.84375 c 0,0.625 -0.25,0.734375 -0.421875,0.734375 -0.40625,0 -0.53125,-0.515625 -0.53125,-0.84375 0,-0.46875 0.1875,-0.6875 0.4375,-0.6875 0.3125,0 0.515625,0.296875 0.515625,0.796875 z M 1.1875,0.09375 c 0.0625,0 0.171875,0 0.265625,0 0.09375,-0.015625 0.140625,-0.015625 0.203125,-0.015625 0.296875,0 0.9375,0.015625 0.9375,0.453125 0,0.484375 -0.609375,0.734375 -1.09375,0.734375 -0.1875,0 -0.671875,-0.1875 -0.671875,-0.640625 0,-0.21875 0,-0.40625 0.140625,-0.546875 C 1.03125,0.09375 1.109375,0.09375 1.1875,0.09375 Z m 1.703125,-2.578125 c 0.1875,0 0.28125,-0.09375 0.28125,-0.25 0,-0.125 -0.09375,-0.28125 -0.34375,-0.28125 -0.171875,0 -0.46875,0.09375 -0.65625,0.265625 C 2.0625,-2.8125 1.859375,-2.875 1.5625,-2.875 c -0.625,0 -1.1875,0.390625 -1.1875,0.984375 0,0.3125 0.15625,0.65625 0.390625,0.8125 -0.1875,0.1875 -0.328125,0.40625 -0.328125,0.59375 0,0.21875 0.125,0.375 0.3125,0.484375 -0.34375,0.21875 -0.53125,0.5 -0.53125,0.75 0,0.578125 0.5625,0.796875 1.09375,0.796875 0.90625,0 1.875,-0.484375 1.875,-1.1875 0,-0.25 -0.25,-0.71875 -1.3125,-0.71875 -0.25,0 -0.546875,0.046875 -0.609375,0.046875 -0.109375,0 -0.28125,-0.078125 -0.28125,-0.34375 0,-0.09375 0,-0.234375 0.03125,-0.3125 0.140625,0.0625 0.34375,0.09375 0.546875,0.09375 0.609375,0 1.15625,-0.34375 1.15625,-0.984375 0,-0.359375 -0.125,-0.578125 -0.34375,-0.765625 0.046875,-0.0625 0.109375,-0.125 0.1875,-0.125 0.046875,0 0.0625,0.046875 0.09375,0.078125 0.015625,0.09375 0.078125,0.1875 0.234375,0.1875 z m 0,0"
         style="stroke:none;stroke-linecap:butt;stroke-linejoin:round;stroke-miterlimit:100000" />
    </g>
    <g
       id="use133"
       style="display:inline;fill:#ff0000;fill-opacity:1;stroke-width:0.34245709;stroke-linecap:butt;stroke-linejoin:round;stroke-miterlimit:100000"
       transform="matrix(1.0301371,0,0,1.0301371,192.18418,141.82534)">
      <path
         inkscape:connector-curvature="0"
         id="path42432"
         d="M 1.046875,-1.140625 1.03125,-1.109375 0.125,0.015625 C 0.1875,0 0.375,0 0.4375,0 0.484375,0 0.671875,0 0.734375,0.015625 0.921875,-0.28125 1.125,-0.546875 1.328125,-0.828125 1.53125,-0.546875 1.734375,-0.28125 1.90625,0.015625 1.984375,0 2.34375,0 2.4375,0 2.515625,0 2.734375,0 2.8125,0.015625 2.5,-0.40625 2.1875,-0.8125 1.890625,-1.21875 L 1.828125,-1.328125 2.71875,-2.375 c -0.0625,0.015625 -0.1875,0.015625 -0.25,0.015625 -0.0625,0 -0.296875,0 -0.359375,-0.015625 -0.171875,0.265625 -0.359375,0.515625 -0.5625,0.765625 -0.1875,-0.25 -0.34375,-0.5 -0.5,-0.765625 -0.09375,0.015625 -0.3125,0.015625 -0.40625,0.015625 -0.09375,0 -0.4375,0 -0.53125,-0.015625 l 0.90625,1.203125 z m 0,0"
         style="stroke:none;stroke-linecap:butt;stroke-linejoin:round;stroke-miterlimit:100000" />
    </g>
    <g
       id="use137"
       style="display:inline;fill:#000000;fill-opacity:1;stroke-width:0.34245709;stroke-linecap:butt;stroke-linejoin:round;stroke-miterlimit:100000"
       transform="matrix(1.0301371,0,0,1.0301371,195.42398,141.82534)">
      <path
         inkscape:connector-curvature="0"
         id="path42436"
         d="M 0.703125,0.890625 V -3.71875 h -0.3125 v 4.609375 z m 0,0"
         style="stroke:none;stroke-linecap:butt;stroke-linejoin:round;stroke-miterlimit:100000" />
    </g>
    <g
       id="use141"
       style="display:inline;fill:#4682b4;fill-opacity:1;stroke-width:0.34245709;stroke-linecap:butt;stroke-linejoin:round;stroke-miterlimit:100000"
       transform="matrix(1.0301371,0,0,1.0301371,196.77859,141.82534)">
      <path
         inkscape:connector-curvature="0"
         id="path42440"
         d="m 1.484375,-2.03125 -1.25,1.859375 c -0.046875,0.0625 -0.0625,0.078125 -0.125,0.140625 L 0.125,0.015625 C 0.125,0.015625 0.734375,0 0.890625,0 H 2.125 C 2.234375,0 2.359375,0 2.4375,0.015625 L 2.453125,0 C 2.4375,-0.078125 2.4375,-0.125 2.4375,-0.171875 c 0,-0.046875 0,-0.15625 0.015625,-0.203125 L 2.4375,-0.390625 c 0,0 -0.6875,0.0625 -1.34375,0.0625 L 2.3125,-2.125 c 0.09375,-0.140625 0.140625,-0.1875 0.171875,-0.234375 0,-0.015625 0,-0.03125 -0.03125,-0.03125 -0.03125,0 -0.28125,0.03125 -0.4375,0.03125 H 0.625 c -0.109375,0 -0.21875,0 -0.296875,-0.015625 L 0.3125,-2.359375 c 0,0.078125 0.015625,0.125 0.015625,0.1875 0,0.046875 -0.015625,0.140625 -0.015625,0.1875 l 0.015625,0.015625 c 0,0 0.546875,-0.046875 1.15625,-0.0625 z m 0,0"
         style="stroke:none;stroke-linecap:butt;stroke-linejoin:round;stroke-miterlimit:100000" />
    </g>
    <path
       style="display:inline;fill:none;stroke:#000000;stroke-width:0.5;stroke-linecap:butt;stroke-linejoin:miter;stroke-miterlimit:10;stroke-dasharray:none;stroke-opacity:1"
       d="m 180.53254,127.24708 v 8.94296"
       id="path145"
       inkscape:connector-curvature="0" />
    <path
       style="display:inline;fill:none;stroke:#000000;stroke-width:0.50000006;stroke-linecap:butt;stroke-linejoin:miter;stroke-miterlimit:10;stroke-dasharray:none;stroke-opacity:1"
       d="m 180.53254,143.92092 v 4.28958"
       id="path147"
       inkscape:connector-curvature="0" />
    <path
       style="display:inline;fill:#000000;fill-opacity:1;fill-rule:nonzero;stroke:#000000;stroke-width:0.14058192;stroke-linecap:butt;stroke-linejoin:miter;stroke-miterlimit:10;stroke-opacity:1"
       d="m 180.53253,152.93141 c 0.14487,-0.59152 0.95369,-3.17491 1.83494,-4.78853 h -3.66585 c 0.88125,1.61362 1.69007,4.19701 1.83091,4.78853 z m 0,0"
       id="path149"
       inkscape:connector-curvature="0" />
    <path
       style="display:inline;fill:#ffffff;fill-opacity:1;fill-rule:nonzero;stroke:#000000;stroke-width:0.5;stroke-linecap:butt;stroke-linejoin:miter;stroke-miterlimit:10;stroke-dasharray:none;stroke-opacity:1"
       d="m 146.49777,139.96282 c 0,-5.66978 -4.59136,-10.26516 -10.26114,-10.26516 -5.66977,0 -10.26515,4.59538 -10.26515,10.26516 0,5.66575 4.59538,10.26113 10.26515,10.26113 5.66978,0 10.26114,-4.59538 10.26114,-10.26113 z m 0,0"
       id="path151"
       inkscape:connector-curvature="0" />
    <g
       id="use153"
       style="display:inline;fill:#008000;fill-opacity:1;stroke-width:0.34245709;stroke-linecap:butt;stroke-linejoin:round;stroke-miterlimit:100000"
       transform="matrix(1.0301371,0,0,1.0301371,131.1568,141.35044)">
      <path
         inkscape:connector-curvature="0"
         id="path42444"
         d="m 3.703125,-0.640625 h 0.03125 L 3.78125,0 c 0,0.015625 0.03125,0.03125 0.09375,0.03125 C 4,0.015625 4.296875,0 4.453125,0 4.5625,0 5.046875,0.015625 5.171875,0.03125 L 5.1875,0 C 5.109375,-0.421875 5.03125,-1.171875 5.03125,-1.90625 v -0.578125 c 0,-0.75 0,-1.265625 0.078125,-1.796875 V -4.3125 c 0,0 -0.421875,0.03125 -0.765625,0.03125 -0.34375,0 -0.6875,-0.03125 -0.6875,-0.03125 l -0.015625,0.03125 c 0.0625,0.5625 0.0625,1.046875 0.0625,1.796875 V -1.6875 c 0,0.578125 -0.65625,1.015625 -1.109375,1.015625 -0.296875,0 -0.59375,-0.09375 -0.5625,-0.90625 l 0.015625,-0.90625 C 2.0625,-3.234375 2.078125,-3.765625 2.125,-4.28125 L 2.109375,-4.3125 c 0,0 -0.390625,0.03125 -0.75,0.03125 -0.328125,0 -0.6875,-0.03125 -0.6875,-0.03125 l -0.03125,0.03125 c 0.0625,0.578125 0.09375,1.078125 0.09375,1.796875 L 0.703125,-1.25 c 0,0.6875 0.34375,1.34375 1.328125,1.34375 0.40625,0 1.125,-0.140625 1.671875,-0.734375 z m 0,0"
         style="stroke:none;stroke-linecap:butt;stroke-linejoin:round;stroke-miterlimit:100000" />
    </g>
    <g
       id="use157"
       style="display:inline;fill:#008000;fill-opacity:1;stroke-width:0.34245709;stroke-linecap:butt;stroke-linejoin:round;stroke-miterlimit:100000"
       transform="matrix(1.0301371,0,0,1.0301371,137.22225,142.8905)">
      <path
         inkscape:connector-curvature="0"
         id="path42448"
         d="m 0.4375,-3.40625 c 0,0.15625 0.140625,0.296875 0.296875,0.296875 0.125,0 0.34375,-0.140625 0.34375,-0.296875 0,-0.0625 -0.015625,-0.109375 -0.03125,-0.15625 -0.015625,-0.046875 -0.0625,-0.109375 -0.0625,-0.171875 0,-0.1875 0.1875,-0.4375 0.71875,-0.4375 0.265625,0 0.640625,0.171875 0.640625,0.875 0,0.46875 -0.171875,0.84375 -0.59375,1.28125 l -0.546875,0.53125 C 0.5,-0.765625 0.375,-0.421875 0.375,0.015625 0.375,0.015625 0.75,0 0.984375,0 H 2.25 C 2.484375,0 2.8125,0.015625 2.8125,0.015625 2.90625,-0.375 2.984375,-0.921875 3,-1.140625 2.953125,-1.171875 2.859375,-1.1875 2.78125,-1.171875 c -0.125,0.515625 -0.25,0.703125 -0.5,0.703125 H 0.984375 c 0,-0.359375 0.5,-0.84375 0.53125,-0.875 L 2.25,-2.0625 C 2.671875,-2.453125 2.984375,-2.78125 2.984375,-3.328125 2.984375,-4.109375 2.34375,-4.4375 1.75,-4.4375 c -0.8125,0 -1.3125,0.59375 -1.3125,1.03125 z m 0,0"
         style="stroke:none;stroke-linecap:butt;stroke-linejoin:round;stroke-miterlimit:100000" />
    </g>
    <path
       style="display:inline;fill:#000000;fill-opacity:1;fill-rule:nonzero;stroke:none;stroke-width:0.35277775;stroke-linecap:butt;stroke-linejoin:round;stroke-miterlimit:100000"
       d="m 108.7529,142.52611 h 5.13057 v -5.13057 h -5.13057 z m 0,0"
       id="path161"
       inkscape:connector-curvature="0" />
    <path
       style="display:inline;fill:none;stroke:#000000;stroke-width:0.5;stroke-linecap:butt;stroke-linejoin:miter;stroke-miterlimit:10;stroke-dasharray:none;stroke-opacity:1"
       d="m 113.66796,139.96364 h 7.45918"
       id="path171"
       inkscape:connector-curvature="0" />
    <path
       style="display:inline;fill:#000000;fill-opacity:1;fill-rule:nonzero;stroke:#000000;stroke-width:0.14058192;stroke-linecap:butt;stroke-linejoin:miter;stroke-miterlimit:10;stroke-opacity:1"
       d="m 125.64793,139.96283 c -0.5875,-0.14486 -3.17089,-0.95368 -4.78853,-1.83493 v 3.66584 c 1.61764,-0.88125 4.20103,-1.69007 4.78853,-1.83091 z m 0,0"
       id="path173"
       inkscape:connector-curvature="0" />
    <path
       style="display:inline;fill:none;stroke:#000000;stroke-width:0.5;stroke-linecap:butt;stroke-linejoin:miter;stroke-miterlimit:10;stroke-dasharray:none;stroke-opacity:1"
       d="M 146.70299,139.96283 H 176.7232"
       id="path175"
       inkscape:connector-curvature="0" />
    <path
       id="path42856"
       d="m 108.93033,124.58738 c 0.14486,-0.35411 0.54726,-0.65993 0.80479,-0.65993 0.45069,0 0.67603,0.41849 0.67603,1.175 0,0.54726 -0.14486,1.25548 -0.85308,1.25548 -0.11267,0 -0.3863,-0.0322 -0.62774,-0.30582 z m 0,-0.3863 v -0.48288 c 0,-0.0483 0,-0.0644 -0.0322,-0.0644 -0.16096,0.0322 -0.38631,0.0322 -0.54726,0.0161 l -0.0161,0.0161 c 0.0483,0.28973 0.0644,0.8048 0.0644,1.30377 v 1.77055 c 0,0.49897 -0.0161,0.98185 -0.0644,1.33596 l 0.0161,0.0161 c 0.0805,-0.0161 0.24143,-0.0161 0.32191,-0.0161 0.0644,0 0.22535,0 0.30583,0.0161 l 0.0161,-0.0161 c -0.0483,-0.3863 -0.0644,-0.83699 -0.0644,-1.33596 v -0.28973 c 0.17705,0.0966 0.41849,0.14486 0.65993,0.14486 0.88527,0 1.41644,-0.65993 1.41644,-1.60958 0,-0.70822 -0.4185,-1.38425 -1.15891,-1.38425 -0.25753,0 -0.59554,0.14486 -0.90137,0.61164 z m 0,0"
       style="display:inline;fill:#000000;fill-opacity:1;stroke:none;stroke-width:0.35277775;stroke-linecap:butt;stroke-linejoin:round;stroke-miterlimit:100000"
       inkscape:connector-curvature="0" />
    <g
       id="use42864"
       style="display:inline;fill:#008000;fill-opacity:1;stroke-width:0.62462306;stroke-linecap:butt;stroke-linejoin:round;stroke-miterlimit:100000"
       transform="matrix(0.56478498,0,0,0.56478498,111.13699,127.52969)">
      <path
         inkscape:connector-curvature="0"
         id="path42452"
         d="m 3.703125,-0.640625 h 0.03125 L 3.78125,0 c 0,0.015625 0.03125,0.03125 0.09375,0.03125 C 4,0.015625 4.296875,0 4.453125,0 4.5625,0 5.046875,0.015625 5.171875,0.03125 L 5.1875,0 C 5.109375,-0.421875 5.03125,-1.171875 5.03125,-1.90625 v -0.578125 c 0,-0.75 0,-1.265625 0.078125,-1.796875 V -4.3125 c 0,0 -0.421875,0.03125 -0.765625,0.03125 -0.34375,0 -0.6875,-0.03125 -0.6875,-0.03125 l -0.015625,0.03125 c 0.0625,0.5625 0.0625,1.046875 0.0625,1.796875 V -1.6875 c 0,0.578125 -0.65625,1.015625 -1.109375,1.015625 -0.296875,0 -0.59375,-0.09375 -0.5625,-0.90625 l 0.015625,-0.90625 C 2.0625,-3.234375 2.078125,-3.765625 2.125,-4.28125 L 2.109375,-4.3125 c 0,0 -0.390625,0.03125 -0.75,0.03125 -0.328125,0 -0.6875,-0.03125 -0.6875,-0.03125 l -0.03125,0.03125 c 0.0625,0.578125 0.09375,1.078125 0.09375,1.796875 L 0.703125,-1.25 c 0,0.6875 0.34375,1.34375 1.328125,1.34375 0.40625,0 1.125,-0.140625 1.671875,-0.734375 z m 0,0"
         style="stroke:none;stroke-linecap:butt;stroke-linejoin:round;stroke-miterlimit:100000" />
    </g>
    <g
       id="use42868"
       style="display:inline;fill:#008000;fill-opacity:1;stroke-width:0.62462306;stroke-linecap:butt;stroke-linejoin:round;stroke-miterlimit:100000"
       transform="matrix(0.56478498,0,0,0.56478498,114.46244,128.3735)">
      <path
         inkscape:connector-curvature="0"
         id="path42456"
         d="M 1.734375,-0.890625 V -3.40625 c 0,-0.4375 0.015625,-0.875 0.03125,-0.96875 0,-0.046875 -0.015625,-0.046875 -0.046875,-0.046875 -0.40625,0.25 -0.78125,0.4375 -1.421875,0.734375 0.015625,0.078125 0.03125,0.15625 0.109375,0.1875 0.328125,-0.125 0.484375,-0.171875 0.625,-0.171875 0.125,0 0.140625,0.171875 0.140625,0.421875 v 2.359375 c 0,0.609375 -0.1875,0.640625 -0.703125,0.671875 -0.046875,0.03125 -0.046875,0.1875 0,0.234375 C 0.828125,0 1.09375,0 1.484375,0 1.828125,0 2,0 2.375,0.015625 2.40625,-0.03125 2.40625,-0.1875 2.375,-0.21875 1.859375,-0.25 1.734375,-0.28125 1.734375,-0.890625 Z m 0,0"
         style="stroke:none;stroke-linecap:butt;stroke-linejoin:round;stroke-miterlimit:100000" />
    </g>
    <path
       inkscape:connector-curvature="0"
       style="display:inline;fill:#000000;fill-opacity:1;stroke:none;stroke-width:0.35277775;stroke-linecap:butt;stroke-linejoin:round;stroke-miterlimit:100000"
       d="m 108.93033,147.72503 c 0.14486,-0.35411 0.54726,-0.65993 0.80479,-0.65993 0.45069,0 0.67603,0.41849 0.67603,1.175 0,0.54726 -0.14486,1.25548 -0.85308,1.25548 -0.11267,0 -0.3863,-0.0322 -0.62774,-0.30582 z m 0,-0.3863 v -0.48288 c 0,-0.0483 0,-0.0644 -0.0322,-0.0644 -0.16096,0.0322 -0.38631,0.0322 -0.54726,0.0161 l -0.0161,0.0161 c 0.0483,0.28973 0.0644,0.8048 0.0644,1.30377 v 1.77055 c 0,0.49897 -0.0161,0.98185 -0.0644,1.33596 l 0.0161,0.0161 c 0.0805,-0.0161 0.24143,-0.0161 0.32191,-0.0161 0.0644,0 0.22535,0 0.30583,0.0161 l 0.0161,-0.0161 c -0.0483,-0.3863 -0.0644,-0.83699 -0.0644,-1.33596 v -0.28973 c 0.17705,0.0966 0.41849,0.14486 0.65993,0.14486 0.88527,0 1.41644,-0.65993 1.41644,-1.60959 0,-0.70821 -0.4185,-1.38424 -1.15891,-1.38424 -0.25753,0 -0.59554,0.14486 -0.90137,0.61164 z m 0,0"
       id="path42903" />
    <g
       id="use42907"
       style="display:inline;fill:#008000;fill-opacity:1;stroke-width:0.62462306;stroke-linecap:butt;stroke-linejoin:round;stroke-miterlimit:100000"
       transform="matrix(0.56478498,0,0,0.56478498,111.13218,150.66764)">
      <path
         inkscape:connector-curvature="0"
         id="path42460"
         d="m 3.703125,-0.640625 h 0.03125 L 3.78125,0 c 0,0.015625 0.03125,0.03125 0.09375,0.03125 C 4,0.015625 4.296875,0 4.453125,0 4.5625,0 5.046875,0.015625 5.171875,0.03125 L 5.1875,0 C 5.109375,-0.421875 5.03125,-1.171875 5.03125,-1.90625 v -0.578125 c 0,-0.75 0,-1.265625 0.078125,-1.796875 V -4.3125 c 0,0 -0.421875,0.03125 -0.765625,0.03125 -0.34375,0 -0.6875,-0.03125 -0.6875,-0.03125 l -0.015625,0.03125 c 0.0625,0.5625 0.0625,1.046875 0.0625,1.796875 V -1.6875 c 0,0.578125 -0.65625,1.015625 -1.109375,1.015625 -0.296875,0 -0.59375,-0.09375 -0.5625,-0.90625 l 0.015625,-0.90625 C 2.0625,-3.234375 2.078125,-3.765625 2.125,-4.28125 L 2.109375,-4.3125 c 0,0 -0.390625,0.03125 -0.75,0.03125 -0.328125,0 -0.6875,-0.03125 -0.6875,-0.03125 l -0.03125,0.03125 c 0.0625,0.578125 0.09375,1.078125 0.09375,1.796875 L 0.703125,-1.25 c 0,0.6875 0.34375,1.34375 1.328125,1.34375 0.40625,0 1.125,-0.140625 1.671875,-0.734375 z m 0,0"
         style="stroke:none;stroke-linecap:butt;stroke-linejoin:round;stroke-miterlimit:100000" />
    </g>
    <g
       id="use42911"
       style="display:inline;fill:#008000;fill-opacity:1;stroke-width:0.62462306;stroke-linecap:butt;stroke-linejoin:round;stroke-miterlimit:100000"
       transform="matrix(0.56478498,0,0,0.56478498,114.45763,151.51197)">
      <path
         inkscape:connector-curvature="0"
         id="path42464"
         d="m 0.4375,-3.40625 c 0,0.15625 0.140625,0.296875 0.296875,0.296875 0.125,0 0.34375,-0.140625 0.34375,-0.296875 0,-0.0625 -0.015625,-0.109375 -0.03125,-0.15625 -0.015625,-0.046875 -0.0625,-0.109375 -0.0625,-0.171875 0,-0.1875 0.1875,-0.4375 0.71875,-0.4375 0.265625,0 0.640625,0.171875 0.640625,0.875 0,0.46875 -0.171875,0.84375 -0.59375,1.28125 l -0.546875,0.53125 C 0.5,-0.765625 0.375,-0.421875 0.375,0.015625 0.375,0.015625 0.75,0 0.984375,0 H 2.25 C 2.484375,0 2.8125,0.015625 2.8125,0.015625 2.90625,-0.375 2.984375,-0.921875 3,-1.140625 2.953125,-1.171875 2.859375,-1.1875 2.78125,-1.171875 c -0.125,0.515625 -0.25,0.703125 -0.5,0.703125 H 0.984375 c 0,-0.359375 0.5,-0.84375 0.53125,-0.875 L 2.25,-2.0625 C 2.671875,-2.453125 2.984375,-2.78125 2.984375,-3.328125 2.984375,-4.109375 2.34375,-4.4375 1.75,-4.4375 c -0.8125,0 -1.3125,0.59375 -1.3125,1.03125 z m 0,0"
         style="stroke:none;stroke-linecap:butt;stroke-linejoin:round;stroke-miterlimit:100000" />
    </g>
  </g>
</svg>
