<?xml version="1.0" encoding="UTF-8" standalone="no"?>
<!-- Created with Inkscape (http://www.inkscape.org/) -->

<svg
   xmlns:dc="http://purl.org/dc/elements/1.1/"
   xmlns:cc="http://creativecommons.org/ns#"
   xmlns:rdf="http://www.w3.org/1999/02/22-rdf-syntax-ns#"
   xmlns:svg="http://www.w3.org/2000/svg"
   xmlns="http://www.w3.org/2000/svg"
   xmlns:sodipodi="http://sodipodi.sourceforge.net/DTD/sodipodi-0.dtd"
   xmlns:inkscape="http://www.inkscape.org/namespaces/inkscape"
   width="45.168034mm"
   height="67.748634mm"
   viewBox="0 0 45.168034 67.748634"
   version="1.1"
   id="svg30704"
   inkscape:version="0.92.2 (unknown)"
   sodipodi:docname="directed-generative-model-factor-graph.svg">
  <defs
     id="defs30698" />
  <sodipodi:namedview
     id="base"
     pagecolor="#ffffff"
     bordercolor="#666666"
     borderopacity="1.0"
     inkscape:pageopacity="0.0"
     inkscape:pageshadow="2"
     inkscape:zoom="1.4"
     inkscape:cx="138.59337"
     inkscape:cy="56.467481"
     inkscape:document-units="mm"
     inkscape:current-layer="layer1"
     showgrid="false"
     fit-margin-top="0"
     fit-margin-left="0"
     fit-margin-right="0"
     fit-margin-bottom="0"
     inkscape:window-width="1366"
     inkscape:window-height="746"
     inkscape:window-x="0"
     inkscape:window-y="22"
     inkscape:window-maximized="1" />
  <metadata
     id="metadata30701">
    <rdf:RDF>
      <cc:Work
         rdf:about="">
        <dc:format>image/svg+xml</dc:format>
        <dc:type
           rdf:resource="http://purl.org/dc/dcmitype/StillImage" />
        <dc:title></dc:title>
      </cc:Work>
    </rdf:RDF>
  </metadata>
  <g
     inkscape:label="Layer 1"
     inkscape:groupmode="layer"
     id="layer1"
     transform="translate(-78.713599,-36.339969)">
    <g
       style="display:inline;stroke-width:0.34245709;stroke-linecap:butt;stroke-linejoin:round;stroke-miterlimit:100000"
       transform="matrix(1.0301371,0,0,1.0301371,-22.54682,36.384746)"
       id="g76716">
      <g
         style="fill:#000000;fill-opacity:1;stroke-width:0.34245709;stroke-linecap:butt;stroke-linejoin:round;stroke-miterlimit:100000"
         transform="translate(99.074809,0.11853117)"
         id="surface203">
        <path
           inkscape:connector-curvature="0"
           id="path42-7"
           d="m 36.177035,10.041625 c 0,-5.5 -4.460937,-9.96093682 -9.964843,-9.96093682 -5.5,0 -9.960936,4.46093682 -9.960936,9.96093682 0,5.503906 4.460936,9.964843 9.960936,9.964843 5.503906,0 9.964843,-4.460937 9.964843,-9.964843 z m 0,0"
           style="fill:#ffffff;fill-opacity:1;fill-rule:nonzero;stroke:#000000;stroke-width:0.48537228;stroke-linecap:butt;stroke-linejoin:miter;stroke-miterlimit:10;stroke-dasharray:none;stroke-opacity:1" />
        <g
           id="use44-5"
           style="fill:#4682b4;fill-opacity:1;stroke-width:0.34245709;stroke-linecap:butt;stroke-linejoin:round;stroke-miterlimit:100000"
           transform="translate(23.802442,12.115468)">
          <path
             id="path4687"
             d="m 2.703125,-3.6875 -2.28125,3.375 c -0.078125,0.109375 -0.125,0.15625 -0.21875,0.25 l 0.03125,0.09375 c 0,0 1.09375,-0.03125 1.375,-0.03125 H 3.875 C 4.0625,0 4.28125,0.015625 4.421875,0.03125 L 4.453125,0 C 4.4375,-0.125 4.421875,-0.234375 4.421875,-0.3125 c 0,-0.09375 0.015625,-0.28125 0.03125,-0.359375 l -0.03125,-0.03125 c 0,0 -1.234375,0.109375 -2.421875,0.109375 l 2.21875,-3.265625 c 0.171875,-0.25 0.234375,-0.34375 0.296875,-0.421875 0,-0.03125 -0.015625,-0.0625 -0.046875,-0.0625 -0.046875,0 -0.515625,0.0625 -0.8125,0.0625 H 1.140625 c -0.1875,0 -0.40625,0 -0.546875,-0.03125 L 0.5625,-4.28125 c 0.015625,0.140625 0.03125,0.234375 0.03125,0.328125 0,0.078125 -0.015625,0.265625 -0.03125,0.34375 l 0.03125,0.03125 c 0,0 0.984375,-0.09375 2.109375,-0.109375 z m 0,0"
             style="fill:#4682b4;fill-opacity:1;stroke:none;stroke-width:0.34245709;stroke-linecap:butt;stroke-linejoin:round;stroke-miterlimit:100000"
             inkscape:connector-curvature="0" />
        </g>
        <path
           inkscape:connector-curvature="0"
           id="path48-3"
           d="M -0.46749456,12.533812 H 4.5129744 V 7.5533441 h -4.98046896 z m 0,0"
           style="fill:#000000;fill-opacity:1;fill-rule:nonzero;stroke:none;stroke-width:0.34245706;stroke-linecap:butt;stroke-linejoin:round;stroke-miterlimit:100000" />
        <g
           id="use50"
           style="fill:#000000;fill-opacity:1;stroke-width:0.34245709;stroke-linecap:butt;stroke-linejoin:round;stroke-miterlimit:100000"
           transform="translate(-1.2455566,19.456469)">
          <path
             id="path4683"
             d="M 1.046875,-1.90625 C 1.1875,-2.25 1.578125,-2.546875 1.828125,-2.546875 c 0.4375,0 0.65625,0.40625 0.65625,1.140625 0,0.53125 -0.140625,1.21875 -0.828125,1.21875 -0.109375,0 -0.375,-0.03125 -0.609375,-0.296875 z m 0,-0.375 V -2.75 c 0,-0.046875 0,-0.0625 -0.03125,-0.0625 -0.15625,0.03125 -0.375,0.03125 -0.53125,0.015625 L 0.46875,-2.78125 C 0.515625,-2.5 0.53125,-2 0.53125,-1.515625 v 1.71875 C 0.53125,0.6875 0.515625,1.15625 0.46875,1.5 L 0.484375,1.515625 C 0.5625,1.5 0.71875,1.5 0.796875,1.5 c 0.0625,0 0.21875,0 0.296875,0.015625 L 1.109375,1.5 C 1.0625,1.125 1.046875,0.6875 1.046875,0.203125 v -0.28125 C 1.21875,0.015625 1.453125,0.0625 1.6875,0.0625 c 0.859375,0 1.375,-0.640625 1.375,-1.5625 0,-0.6875 -0.40625,-1.34375 -1.125,-1.34375 -0.25,0 -0.578125,0.140625 -0.875,0.59375 z m 0,0"
             style="stroke:none;stroke-width:0.34245709;stroke-linecap:butt;stroke-linejoin:round;stroke-miterlimit:100000"
             inkscape:connector-curvature="0" />
        </g>
        <g
           id="use54"
           style="fill:#4682b4;fill-opacity:1;stroke-width:0.34245709;stroke-linecap:butt;stroke-linejoin:round;stroke-miterlimit:100000"
           transform="translate(2.1414434,20.427468)">
          <path
             id="path4679"
             d="m 1.484375,-2.03125 -1.25,1.859375 c -0.046875,0.0625 -0.0625,0.078125 -0.125,0.140625 L 0.125,0.015625 C 0.125,0.015625 0.734375,0 0.890625,0 H 2.125 C 2.234375,0 2.359375,0 2.4375,0.015625 L 2.453125,0 C 2.4375,-0.078125 2.4375,-0.125 2.4375,-0.171875 c 0,-0.046875 0,-0.15625 0.015625,-0.203125 L 2.4375,-0.390625 c 0,0 -0.6875,0.0625 -1.34375,0.0625 L 2.3125,-2.125 c 0.09375,-0.140625 0.140625,-0.1875 0.171875,-0.234375 0,-0.015625 0,-0.03125 -0.03125,-0.03125 -0.03125,0 -0.28125,0.03125 -0.4375,0.03125 H 0.625 c -0.109375,0 -0.21875,0 -0.296875,-0.015625 L 0.3125,-2.359375 c 0,0.078125 0.015625,0.125 0.015625,0.1875 0,0.046875 -0.015625,0.140625 -0.015625,0.1875 l 0.015625,0.015625 c 0,0 0.546875,-0.046875 1.15625,-0.0625 z m 0,0"
             style="fill:#4682b4;fill-opacity:1;stroke:none;stroke-width:0.34245709;stroke-linecap:butt;stroke-linejoin:round;stroke-miterlimit:100000"
             inkscape:connector-curvature="0" />
        </g>
        <path
           inkscape:connector-curvature="0"
           id="path58-5-1"
           d="M 4.2921275,10.041625 H 11.235733"
           style="fill:none;stroke:#000000;stroke-width:0.48537225;stroke-linecap:butt;stroke-linejoin:miter;stroke-miterlimit:10;stroke-dasharray:none;stroke-opacity:1" />
        <path
           inkscape:connector-curvature="0"
           id="path60-6"
           d="M 15.88417,10.041625 C 15.313858,9.9049071 12.806044,9.1197501 11.235733,8.2642821 v 3.5585919 c 1.570311,-0.855467 4.078125,-1.640624 4.648437,-1.781249 z m 0,0"
           style="fill:#000000;fill-opacity:1;fill-rule:nonzero;stroke:#000000;stroke-width:0.13646914;stroke-linecap:butt;stroke-linejoin:miter;stroke-miterlimit:10;stroke-opacity:1" />
        <path
           style="clip-rule:nonzero;fill:#dedede;fill-opacity:1;fill-rule:nonzero;stroke:none;stroke-width:0.34245706;stroke-linecap:butt;stroke-linejoin:round;stroke-miterlimit:100000"
           d="m 36.177035,55.397091 c 0,-5.5 -4.460937,-9.960936 -9.964843,-9.960936 -5.5,0 -9.960938,4.460936 -9.960938,9.960936 0,5.503906 4.460938,9.964843 9.960938,9.964843 5.503906,0 9.964843,-4.460937 9.964843,-9.964843 z m 0,0"
           id="path62-2"
           inkscape:connector-curvature="0" />
        <path
           style="clip-rule:nonzero;fill:none;stroke:#000000;stroke-width:0.48537228;stroke-linecap:butt;stroke-linejoin:miter;stroke-miterlimit:10;stroke-dasharray:none;stroke-opacity:1"
           d="m 36.177035,55.397091 c 0,-5.5 -4.460937,-9.960936 -9.964843,-9.960936 -5.5,0 -9.960936,4.460936 -9.960936,9.960936 0,5.503906 4.460936,9.964843 9.960936,9.964843 5.503906,0 9.964843,-4.460937 9.964843,-9.964843 z m 0,0"
           id="path66-9"
           inkscape:connector-curvature="0" />
        <g
           id="use70-1"
           style="fill:#ff0000;fill-opacity:1;stroke-width:0.34245709;stroke-linecap:butt;stroke-linejoin:round;stroke-miterlimit:100000"
           transform="translate(23.553441,57.469468)">
          <path
             id="path4675"
             d="m 1.90625,-2.0625 -0.046875,0.03125 -1.625,2.0625 C 0.34375,0 0.6875,0 0.78125,0 0.890625,0 1.21875,0 1.328125,0.03125 1.671875,-0.5 2.046875,-1 2.40625,-1.515625 2.765625,-1 3.140625,-0.5 3.46875,0.03125 3.625,0 4.265625,0 4.421875,0 4.578125,0 4.96875,0 5.125,0.03125 c -0.59375,-0.765625 -1.140625,-1.5 -1.671875,-2.25 L 3.3125,-2.40625 4.9375,-4.3125 C 4.828125,-4.28125 4.59375,-4.28125 4.5,-4.28125 c -0.109375,0 -0.546875,0 -0.65625,-0.03125 -0.328125,0.46875 -0.671875,0.921875 -1.015625,1.375 -0.34375,-0.453125 -0.65625,-0.90625 -0.9375,-1.375 -0.171875,0.03125 -0.5625,0.03125 -0.71875,0.03125 -0.171875,0 -0.8125,0 -0.96875,-0.03125 l 1.65625,2.1875 z m 0,0"
             style="fill:#ff0000;stroke:none;stroke-width:0.34245709;stroke-linecap:butt;stroke-linejoin:round;stroke-miterlimit:100000"
             inkscape:connector-curvature="0" />
        </g>
        <path
           inkscape:connector-curvature="0"
           id="path74-2"
           d="m 23.723911,33.697873 h 4.980469 v -4.980467 h -4.980469 z m 0,0"
           style="fill:#000000;fill-opacity:1;fill-rule:nonzero;stroke:none;stroke-width:0.34245706;stroke-linecap:butt;stroke-linejoin:round;stroke-miterlimit:100000" />
        <g
           id="use76-5"
           style="fill:#000000;fill-opacity:1;stroke-width:0.34245709;stroke-linecap:butt;stroke-linejoin:round;stroke-miterlimit:100000"
           transform="translate(32.738441,31.467467)">
          <path
             id="path4671-5"
             d="M 1.046875,-1.90625 C 1.1875,-2.25 1.578125,-2.546875 1.828125,-2.546875 c 0.4375,0 0.65625,0.40625 0.65625,1.140625 0,0.53125 -0.140625,1.21875 -0.828125,1.21875 -0.109375,0 -0.375,-0.03125 -0.609375,-0.296875 z m 0,-0.375 V -2.75 c 0,-0.046875 0,-0.0625 -0.03125,-0.0625 -0.15625,0.03125 -0.375,0.03125 -0.53125,0.015625 L 0.46875,-2.78125 C 0.515625,-2.5 0.53125,-2 0.53125,-1.515625 v 1.71875 C 0.53125,0.6875 0.515625,1.15625 0.46875,1.5 L 0.484375,1.515625 C 0.5625,1.5 0.71875,1.5 0.796875,1.5 c 0.0625,0 0.21875,0 0.296875,0.015625 L 1.109375,1.5 C 1.0625,1.125 1.046875,0.6875 1.046875,0.203125 v -0.28125 C 1.21875,0.015625 1.453125,0.0625 1.6875,0.0625 c 0.859375,0 1.375,-0.640625 1.375,-1.5625 0,-0.6875 -0.40625,-1.34375 -1.125,-1.34375 -0.25,0 -0.578125,0.140625 -0.875,0.59375 z m 0,0"
             style="stroke:none;stroke-width:0.34245709;stroke-linecap:butt;stroke-linejoin:round;stroke-miterlimit:100000"
             inkscape:connector-curvature="0" />
        </g>
        <g
           id="use80-4"
           style="fill:#ff0000;fill-opacity:1;stroke-width:0.34245709;stroke-linecap:butt;stroke-linejoin:round;stroke-miterlimit:100000"
           transform="translate(36.125442,32.936467)">
          <path
             id="path4667-7"
             d="M 1.046875,-1.140625 1.03125,-1.109375 0.125,0.015625 C 0.1875,0 0.375,0 0.4375,0 0.484375,0 0.671875,0 0.734375,0.015625 0.921875,-0.28125 1.125,-0.546875 1.328125,-0.828125 1.53125,-0.546875 1.734375,-0.28125 1.90625,0.015625 1.984375,0 2.34375,0 2.4375,0 2.515625,0 2.734375,0 2.8125,0.015625 2.5,-0.40625 2.1875,-0.8125 1.890625,-1.21875 L 1.828125,-1.328125 2.71875,-2.375 c -0.0625,0.015625 -0.1875,0.015625 -0.25,0.015625 -0.0625,0 -0.296875,0 -0.359375,-0.015625 -0.171875,0.265625 -0.359375,0.515625 -0.5625,0.765625 -0.1875,-0.25 -0.34375,-0.5 -0.5,-0.765625 -0.09375,0.015625 -0.3125,0.015625 -0.40625,0.015625 -0.09375,0 -0.4375,0 -0.53125,-0.015625 l 0.90625,1.203125 z m 0,0"
             style="fill:#ff0000;stroke:none;stroke-width:0.34245709;stroke-linecap:butt;stroke-linejoin:round;stroke-miterlimit:100000"
             inkscape:connector-curvature="0" />
        </g>
        <g
           id="use84"
           style="fill:#000000;fill-opacity:1;stroke-width:0.34245709;stroke-linecap:butt;stroke-linejoin:round;stroke-miterlimit:100000"
           transform="translate(39.270442,32.936467)">
          <path
             id="path4663"
             d="M 0.703125,0.890625 V -3.71875 h -0.3125 v 4.609375 z m 0,0"
             style="stroke:none;stroke-width:0.34245709;stroke-linecap:butt;stroke-linejoin:round;stroke-miterlimit:100000"
             inkscape:connector-curvature="0" />
        </g>
        <g
           id="use88-6"
           style="fill:#4682b4;fill-opacity:1;stroke-width:0.34245709;stroke-linecap:butt;stroke-linejoin:round;stroke-miterlimit:100000"
           transform="translate(40.585441,32.936467)">
          <path
             id="path4659-5"
             d="m 1.484375,-2.03125 -1.25,1.859375 c -0.046875,0.0625 -0.0625,0.078125 -0.125,0.140625 L 0.125,0.015625 C 0.125,0.015625 0.734375,0 0.890625,0 H 2.125 C 2.234375,0 2.359375,0 2.4375,0.015625 L 2.453125,0 C 2.4375,-0.078125 2.4375,-0.125 2.4375,-0.171875 c 0,-0.046875 0,-0.15625 0.015625,-0.203125 L 2.4375,-0.390625 c 0,0 -0.6875,0.0625 -1.34375,0.0625 L 2.3125,-2.125 c 0.09375,-0.140625 0.140625,-0.1875 0.171875,-0.234375 0,-0.015625 0,-0.03125 -0.03125,-0.03125 -0.03125,0 -0.28125,0.03125 -0.4375,0.03125 H 0.625 c -0.109375,0 -0.21875,0 -0.296875,-0.015625 L 0.3125,-2.359375 c 0,0.078125 0.015625,0.125 0.015625,0.1875 0,0.046875 -0.015625,0.140625 -0.015625,0.1875 l 0.015625,0.015625 c 0,0 0.546875,-0.046875 1.15625,-0.0625 z m 0,0"
             style="fill:#4682b4;fill-opacity:1;stroke:none;stroke-width:0.34245709;stroke-linecap:butt;stroke-linejoin:round;stroke-miterlimit:100000"
             inkscape:connector-curvature="0" />
        </g>
        <path
           inkscape:connector-curvature="0"
           id="path92-7"
           d="m 26.212191,20.205687 v 8.70631"
           style="fill:none;stroke:#000000;stroke-width:0.48537228;stroke-linecap:butt;stroke-linejoin:miter;stroke-miterlimit:10;stroke-dasharray:none;stroke-opacity:1" />
        <path
           inkscape:connector-curvature="0"
           id="path94-0"
           d="m 26.212191,33.555787 v 6.891098"
           style="fill:none;stroke:#000000;stroke-width:0.48537228;stroke-linecap:butt;stroke-linejoin:miter;stroke-miterlimit:10;stroke-dasharray:none;stroke-opacity:1" />
        <path
           inkscape:connector-curvature="0"
           id="path96-9"
           d="m 26.212192,45.095324 c 0.140625,-0.570312 0.92578,-3.078126 1.781249,-4.648438 h -3.558593 c 0.855469,1.570312 1.640625,4.078126 1.777344,4.648438 z m 0,0"
           style="fill:#000000;fill-opacity:1;fill-rule:nonzero;stroke:#000000;stroke-width:0.13646914;stroke-linecap:butt;stroke-linejoin:miter;stroke-miterlimit:10;stroke-opacity:1" />
      </g>
    </g>
  </g>
</svg>
