<?xml version="1.0" encoding="utf-8" standalone="no"?>
<!DOCTYPE svg PUBLIC "-//W3C//DTD SVG 1.1//EN"
  "http://www.w3.org/Graphics/SVG/1.1/DTD/svg11.dtd">
<!-- Created with matplotlib (http://matplotlib.org/) -->
<svg height="352pt" version="1.1" viewBox="0 0 712 352" width="712pt" xmlns="http://www.w3.org/2000/svg" xmlns:xlink="http://www.w3.org/1999/xlink">
 <defs>
  <style type="text/css">
*{stroke-linecap:butt;stroke-linejoin:round;}
  </style>
 </defs>
 <g id="figure_1">
  <g id="patch_1">
   <path d="M -0 352.750313 
L 712.919687 352.750313 
L 712.919687 0 
L -0 0 
z
" style="fill:#ffffff;"/>
  </g>
  <g id="axes_1">
   <g id="patch_2">
    <path d="M 48.194688 168.19625 
L 184.319687 168.19625 
L 184.319687 21.89625 
L 48.194688 21.89625 
z
" style="fill:#ffffff;"/>
   </g>
   <g id="matplotlib.axis_1"/>
   <g id="matplotlib.axis_2">
    <g id="ytick_1">
     <g id="line2d_1">
      <path clip-path="url(#pcac37c4837)" d="M 48.194688 168.19625 
L 184.319687 168.19625 
" style="fill:none;stroke:#cccccc;stroke-linecap:round;"/>
     </g>
     <g id="line2d_2"/>
     <g id="text_1">
      <!-- −0.4 -->
      <defs>
       <path d="M 4.9375 29.6875 
L 4.9375 36.8125 
L 53.515625 36.8125 
L 53.515625 29.6875 
z
" id="LiberationSans-2212"/>
       <path d="M 51.703125 34.421875 
Q 51.703125 24.515625 49.828125 17.75 
Q 47.953125 10.984375 44.703125 6.8125 
Q 41.453125 2.640625 37.0625 0.828125 
Q 32.671875 -0.984375 27.6875 -0.984375 
Q 22.65625 -0.984375 18.3125 0.828125 
Q 13.96875 2.640625 10.765625 6.78125 
Q 7.5625 10.9375 5.734375 17.703125 
Q 3.90625 24.46875 3.90625 34.421875 
Q 3.90625 44.828125 5.734375 51.640625 
Q 7.5625 58.453125 10.78125 62.5 
Q 14.015625 66.546875 18.40625 68.1875 
Q 22.796875 69.828125 27.984375 69.828125 
Q 32.90625 69.828125 37.21875 68.1875 
Q 41.546875 66.546875 44.765625 62.5 
Q 48 58.453125 49.84375 51.640625 
Q 51.703125 44.828125 51.703125 34.421875 
z
M 42.78125 34.421875 
Q 42.78125 42.625 41.796875 48.0625 
Q 40.828125 53.515625 38.921875 56.765625 
Q 37.015625 60.015625 34.25 61.359375 
Q 31.5 62.703125 27.984375 62.703125 
Q 24.265625 62.703125 21.4375 61.328125 
Q 18.609375 59.96875 16.671875 56.71875 
Q 14.75 53.46875 13.765625 48.015625 
Q 12.796875 42.578125 12.796875 34.421875 
Q 12.796875 26.515625 13.796875 21.09375 
Q 14.796875 15.671875 16.71875 12.375 
Q 18.65625 9.078125 21.4375 7.640625 
Q 24.21875 6.203125 27.78125 6.203125 
Q 31.25 6.203125 34.03125 7.640625 
Q 36.8125 9.078125 38.734375 12.375 
Q 40.671875 15.671875 41.71875 21.09375 
Q 42.78125 26.515625 42.78125 34.421875 
z
" id="LiberationSans-30"/>
       <path d="M 9.125 0 
L 9.125 10.6875 
L 18.65625 10.6875 
L 18.65625 0 
z
" id="LiberationSans-2e"/>
       <path d="M 43.015625 15.578125 
L 43.015625 0 
L 34.71875 0 
L 34.71875 15.578125 
L 2.296875 15.578125 
L 2.296875 22.40625 
L 33.796875 68.796875 
L 43.015625 68.796875 
L 43.015625 22.515625 
L 52.6875 22.515625 
L 52.6875 15.578125 
z
M 34.71875 58.890625 
Q 34.625 58.640625 34.234375 57.9375 
Q 33.84375 57.234375 33.34375 56.34375 
Q 32.859375 55.46875 32.34375 54.5625 
Q 31.84375 53.65625 31.453125 53.078125 
L 13.8125 27.09375 
Q 13.578125 26.703125 13.109375 26.0625 
Q 12.640625 25.4375 12.15625 24.78125 
Q 11.671875 24.125 11.171875 23.484375 
Q 10.6875 22.859375 10.40625 22.515625 
L 34.71875 22.515625 
z
" id="LiberationSans-34"/>
      </defs>
      <g style="fill:#262626;" transform="translate(21.454063 171.819688)scale(0.1 -0.1)">
       <use xlink:href="#LiberationSans-2212"/>
       <use x="58.398438" xlink:href="#LiberationSans-30"/>
       <use x="114.013672" xlink:href="#LiberationSans-2e"/>
       <use x="141.796875" xlink:href="#LiberationSans-34"/>
      </g>
     </g>
    </g>
    <g id="ytick_2">
     <g id="line2d_3">
      <path clip-path="url(#pcac37c4837)" d="M 48.194688 127.903951 
L 184.319687 127.903951 
" style="fill:none;stroke:#cccccc;stroke-linecap:round;"/>
     </g>
     <g id="line2d_4"/>
     <g id="text_2">
      <!-- 0.0 -->
      <g style="fill:#262626;" transform="translate(27.294688 131.527388)scale(0.1 -0.1)">
       <use xlink:href="#LiberationSans-30"/>
       <use x="55.615234" xlink:href="#LiberationSans-2e"/>
       <use x="83.398438" xlink:href="#LiberationSans-30"/>
      </g>
     </g>
    </g>
    <g id="ytick_3">
     <g id="line2d_5">
      <path clip-path="url(#pcac37c4837)" d="M 48.194688 87.611652 
L 184.319687 87.611652 
" style="fill:none;stroke:#cccccc;stroke-linecap:round;"/>
     </g>
     <g id="line2d_6"/>
     <g id="text_3">
      <!-- 0.4 -->
      <g style="fill:#262626;" transform="translate(27.294688 91.235089)scale(0.1 -0.1)">
       <use xlink:href="#LiberationSans-30"/>
       <use x="55.615234" xlink:href="#LiberationSans-2e"/>
       <use x="83.398438" xlink:href="#LiberationSans-34"/>
      </g>
     </g>
    </g>
    <g id="ytick_4">
     <g id="line2d_7">
      <path clip-path="url(#pcac37c4837)" d="M 48.194688 47.319353 
L 184.319687 47.319353 
" style="fill:none;stroke:#cccccc;stroke-linecap:round;"/>
     </g>
     <g id="line2d_8"/>
     <g id="text_4">
      <!-- 0.8 -->
      <defs>
       <path d="M 51.265625 19.1875 
Q 51.265625 14.796875 49.875 11.109375 
Q 48.484375 7.421875 45.625 4.734375 
Q 42.78125 2.046875 38.328125 0.53125 
Q 33.890625 -0.984375 27.828125 -0.984375 
Q 21.78125 -0.984375 17.359375 0.53125 
Q 12.9375 2.046875 10.03125 4.703125 
Q 7.125 7.375 5.734375 11.0625 
Q 4.34375 14.75 4.34375 19.09375 
Q 4.34375 22.859375 5.484375 25.78125 
Q 6.640625 28.71875 8.5625 30.828125 
Q 10.5 32.953125 12.96875 34.25 
Q 15.4375 35.546875 18.0625 35.984375 
L 18.0625 36.1875 
Q 15.1875 36.859375 12.90625 38.375 
Q 10.640625 39.890625 9.09375 42.015625 
Q 7.5625 44.140625 6.75 46.71875 
Q 5.953125 49.3125 5.953125 52.203125 
Q 5.953125 55.8125 7.34375 59 
Q 8.734375 62.203125 11.46875 64.625 
Q 14.203125 67.046875 18.25 68.4375 
Q 22.3125 69.828125 27.640625 69.828125 
Q 33.25 69.828125 37.375 68.40625 
Q 41.5 67 44.203125 64.578125 
Q 46.921875 62.15625 48.234375 58.9375 
Q 49.5625 55.71875 49.5625 52.09375 
Q 49.5625 49.265625 48.75 46.671875 
Q 47.953125 44.09375 46.40625 41.96875 
Q 44.875 39.84375 42.59375 38.34375 
Q 40.328125 36.859375 37.359375 36.28125 
L 37.359375 36.078125 
Q 40.328125 35.59375 42.859375 34.296875 
Q 45.40625 33.015625 47.265625 30.890625 
Q 49.125 28.765625 50.1875 25.828125 
Q 51.265625 22.90625 51.265625 19.1875 
z
M 40.4375 51.609375 
Q 40.4375 54.203125 39.765625 56.34375 
Q 39.109375 58.5 37.59375 60.03125 
Q 36.078125 61.578125 33.640625 62.421875 
Q 31.203125 63.28125 27.640625 63.28125 
Q 24.171875 63.28125 21.78125 62.421875 
Q 19.390625 61.578125 17.84375 60.03125 
Q 16.3125 58.5 15.625 56.34375 
Q 14.9375 54.203125 14.9375 51.609375 
Q 14.9375 49.5625 15.46875 47.40625 
Q 16.015625 45.265625 17.421875 43.5 
Q 18.84375 41.75 21.328125 40.625 
Q 23.828125 39.5 27.734375 39.5 
Q 31.890625 39.5 34.40625 40.625 
Q 36.921875 41.75 38.25 43.5 
Q 39.59375 45.265625 40.015625 47.40625 
Q 40.4375 49.5625 40.4375 51.609375 
z
M 42.140625 20.015625 
Q 42.140625 22.515625 41.453125 24.828125 
Q 40.765625 27.15625 39.109375 28.9375 
Q 37.453125 30.71875 34.640625 31.8125 
Q 31.84375 32.90625 27.640625 32.90625 
Q 23.78125 32.90625 21.0625 31.8125 
Q 18.359375 30.71875 16.671875 28.90625 
Q 14.984375 27.09375 14.203125 24.71875 
Q 13.421875 22.359375 13.421875 19.828125 
Q 13.421875 16.65625 14.203125 14.03125 
Q 14.984375 11.421875 16.6875 9.546875 
Q 18.40625 7.671875 21.1875 6.640625 
Q 23.96875 5.609375 27.9375 5.609375 
Q 31.9375 5.609375 34.671875 6.640625 
Q 37.40625 7.671875 39.0625 9.546875 
Q 40.71875 11.421875 41.421875 14.078125 
Q 42.140625 16.75 42.140625 20.015625 
z
" id="LiberationSans-38"/>
      </defs>
      <g style="fill:#262626;" transform="translate(27.294688 50.94279)scale(0.1 -0.1)">
       <use xlink:href="#LiberationSans-30"/>
       <use x="55.615234" xlink:href="#LiberationSans-2e"/>
       <use x="83.398438" xlink:href="#LiberationSans-38"/>
      </g>
     </g>
    </g>
    <g id="text_5">
     <!-- CHMC autocorrelation -->
     <defs>
      <path d="M 38.671875 62.203125 
Q 32.8125 62.203125 28.296875 60.25 
Q 23.78125 58.296875 20.71875 54.6875 
Q 17.671875 51.078125 16.109375 46 
Q 14.546875 40.921875 14.546875 34.71875 
Q 14.546875 28.515625 16.234375 23.359375 
Q 17.921875 18.21875 21.0625 14.5 
Q 24.21875 10.796875 28.78125 8.734375 
Q 33.34375 6.6875 39.0625 6.6875 
Q 43.0625 6.6875 46.359375 7.734375 
Q 49.65625 8.796875 52.3125 10.6875 
Q 54.984375 12.59375 57.078125 15.203125 
Q 59.1875 17.828125 60.796875 21 
L 68.40625 17.1875 
Q 66.546875 13.328125 63.8125 10 
Q 61.078125 6.6875 57.390625 4.25 
Q 53.71875 1.8125 49.046875 0.40625 
Q 44.390625 -0.984375 38.625 -0.984375 
Q 30.28125 -0.984375 24 1.671875 
Q 17.71875 4.34375 13.5 9.109375 
Q 9.28125 13.875 7.171875 20.40625 
Q 5.078125 26.953125 5.078125 34.71875 
Q 5.078125 42.78125 7.296875 49.265625 
Q 9.515625 55.765625 13.78125 60.328125 
Q 18.0625 64.890625 24.3125 67.359375 
Q 30.5625 69.828125 38.578125 69.828125 
Q 49.5625 69.828125 56.9375 65.53125 
Q 64.3125 61.234375 67.78125 52.78125 
L 58.9375 49.859375 
Q 57.953125 52.296875 56.296875 54.515625 
Q 54.640625 56.734375 52.140625 58.4375 
Q 49.65625 60.15625 46.3125 61.171875 
Q 42.96875 62.203125 38.671875 62.203125 
z
" id="LiberationSans-43"/>
      <path d="M 54.734375 0 
L 54.734375 31.890625 
L 17.53125 31.890625 
L 17.53125 0 
L 8.203125 0 
L 8.203125 68.796875 
L 17.53125 68.796875 
L 17.53125 39.703125 
L 54.734375 39.703125 
L 54.734375 68.796875 
L 64.0625 68.796875 
L 64.0625 0 
z
" id="LiberationSans-48"/>
      <path d="M 66.703125 0 
L 66.703125 45.90625 
Q 66.703125 48.390625 66.75 50.96875 
Q 66.796875 53.5625 66.890625 55.71875 
Q 67 58.203125 67.140625 60.546875 
Q 66.453125 58.0625 65.71875 55.609375 
Q 65.09375 53.515625 64.328125 51.140625 
Q 63.578125 48.78125 62.84375 46.875 
L 45.0625 0 
L 38.53125 0 
L 20.515625 46.875 
Q 20.21875 47.609375 19.890625 48.578125 
Q 19.578125 49.5625 19.203125 50.65625 
Q 18.84375 51.765625 18.46875 52.90625 
Q 18.109375 54.046875 17.78125 55.171875 
Q 16.9375 57.765625 16.15625 60.546875 
Q 16.21875 57.8125 16.3125 55.125 
Q 16.40625 52.828125 16.453125 50.3125 
Q 16.5 47.796875 16.5 45.90625 
L 16.5 0 
L 8.203125 0 
L 8.203125 68.796875 
L 20.453125 68.796875 
L 38.765625 21.09375 
Q 39.109375 20.125 39.59375 18.578125 
Q 40.09375 17.046875 40.53125 15.421875 
Q 40.96875 13.8125 41.328125 12.375 
Q 41.703125 10.9375 41.84375 10.15625 
Q 42 10.9375 42.390625 12.40625 
Q 42.78125 13.875 43.28125 15.484375 
Q 43.796875 17.09375 44.28125 18.609375 
Q 44.78125 20.125 45.171875 21.09375 
L 63.140625 68.796875 
L 75.09375 68.796875 
L 75.09375 0 
z
" id="LiberationSans-4d"/>
      <path id="LiberationSans-20"/>
      <path d="M 20.21875 -0.984375 
Q 12.25 -0.984375 8.25 3.21875 
Q 4.25 7.421875 4.25 14.75 
Q 4.25 19.96875 6.21875 23.3125 
Q 8.203125 26.65625 11.390625 28.5625 
Q 14.59375 30.46875 18.6875 31.203125 
Q 22.796875 31.9375 27.046875 32.03125 
L 38.921875 32.234375 
L 38.921875 35.109375 
Q 38.921875 38.375 38.234375 40.671875 
Q 37.546875 42.96875 36.125 44.375 
Q 34.71875 45.796875 32.59375 46.453125 
Q 30.46875 47.125 27.59375 47.125 
Q 25.046875 47.125 23 46.75 
Q 20.953125 46.390625 19.4375 45.4375 
Q 17.921875 44.484375 16.984375 42.84375 
Q 16.0625 41.21875 15.765625 38.71875 
L 6.59375 39.546875 
Q 7.078125 42.671875 8.4375 45.28125 
Q 9.8125 47.90625 12.328125 49.796875 
Q 14.84375 51.703125 18.625 52.75 
Q 22.40625 53.8125 27.78125 53.8125 
Q 37.75 53.8125 42.765625 49.234375 
Q 47.796875 44.671875 47.796875 36.03125 
L 47.796875 13.28125 
Q 47.796875 9.375 48.828125 7.390625 
Q 49.859375 5.421875 52.734375 5.421875 
Q 53.46875 5.421875 54.203125 5.515625 
Q 54.9375 5.609375 55.609375 5.765625 
L 55.609375 0.296875 
Q 53.953125 -0.09375 52.3125 -0.28125 
Q 50.6875 -0.484375 48.828125 -0.484375 
Q 46.34375 -0.484375 44.5625 0.171875 
Q 42.78125 0.828125 41.65625 2.171875 
Q 40.53125 3.515625 39.9375 5.484375 
Q 39.359375 7.46875 39.203125 10.109375 
L 38.921875 10.109375 
Q 37.5 7.5625 35.8125 5.515625 
Q 34.125 3.46875 31.875 2.03125 
Q 29.640625 0.59375 26.78125 -0.1875 
Q 23.921875 -0.984375 20.21875 -0.984375 
z
M 22.21875 5.609375 
Q 26.421875 5.609375 29.5625 7.140625 
Q 32.71875 8.6875 34.78125 11.078125 
Q 36.859375 13.484375 37.890625 16.3125 
Q 38.921875 19.140625 38.921875 21.734375 
L 38.921875 26.078125 
L 29.296875 25.875 
Q 26.078125 25.828125 23.171875 25.40625 
Q 20.265625 25 18.0625 23.78125 
Q 15.875 22.5625 14.578125 20.359375 
Q 13.28125 18.171875 13.28125 14.59375 
Q 13.28125 10.296875 15.59375 7.953125 
Q 17.921875 5.609375 22.21875 5.609375 
z
" id="LiberationSans-61"/>
      <path d="M 15.328125 52.828125 
L 15.328125 19.34375 
Q 15.328125 15.484375 15.890625 12.890625 
Q 16.453125 10.296875 17.71875 8.703125 
Q 19 7.125 21.0625 6.46875 
Q 23.140625 5.8125 26.21875 5.8125 
Q 29.34375 5.8125 31.859375 6.90625 
Q 34.375 8.015625 36.15625 10.078125 
Q 37.9375 12.15625 38.90625 15.203125 
Q 39.890625 18.265625 39.890625 22.21875 
L 39.890625 52.828125 
L 48.6875 52.828125 
L 48.6875 11.28125 
Q 48.6875 9.625 48.703125 7.78125 
Q 48.734375 5.953125 48.78125 4.3125 
Q 48.828125 2.6875 48.875 1.515625 
Q 48.921875 0.34375 48.96875 0 
L 40.671875 0 
Q 40.625 0.25 40.578125 1.3125 
Q 40.53125 2.390625 40.453125 3.78125 
Q 40.375 5.171875 40.328125 6.609375 
Q 40.28125 8.0625 40.28125 9.03125 
L 40.140625 9.03125 
Q 38.875 6.734375 37.359375 4.875 
Q 35.84375 3.03125 33.84375 1.734375 
Q 31.84375 0.4375 29.25 -0.265625 
Q 26.65625 -0.984375 23.25 -0.984375 
Q 18.84375 -0.984375 15.671875 0.09375 
Q 12.5 1.171875 10.453125 3.421875 
Q 8.40625 5.671875 7.453125 9.1875 
Q 6.5 12.703125 6.5 17.625 
L 6.5 52.828125 
z
" id="LiberationSans-75"/>
      <path d="M 27.046875 0.390625 
Q 25.046875 -0.140625 22.96875 -0.453125 
Q 20.90625 -0.78125 18.171875 -0.78125 
Q 7.625 -0.78125 7.625 11.1875 
L 7.625 46.4375 
L 1.515625 46.4375 
L 1.515625 52.828125 
L 7.953125 52.828125 
L 10.546875 64.65625 
L 16.40625 64.65625 
L 16.40625 52.828125 
L 26.171875 52.828125 
L 26.171875 46.4375 
L 16.40625 46.4375 
L 16.40625 13.09375 
Q 16.40625 9.28125 17.640625 7.734375 
Q 18.890625 6.203125 21.96875 6.203125 
Q 23.25 6.203125 24.4375 6.390625 
Q 25.640625 6.59375 27.046875 6.890625 
z
" id="LiberationSans-74"/>
      <path d="M 51.421875 26.46875 
Q 51.421875 12.59375 45.3125 5.796875 
Q 39.203125 -0.984375 27.59375 -0.984375 
Q 22.078125 -0.984375 17.71875 0.671875 
Q 13.375 2.34375 10.375 5.765625 
Q 7.375 9.1875 5.78125 14.328125 
Q 4.203125 19.484375 4.203125 26.46875 
Q 4.203125 53.8125 27.875 53.8125 
Q 34.03125 53.8125 38.5 52.09375 
Q 42.96875 50.390625 45.828125 46.96875 
Q 48.6875 43.5625 50.046875 38.421875 
Q 51.421875 33.296875 51.421875 26.46875 
z
M 42.1875 26.46875 
Q 42.1875 32.625 41.234375 36.625 
Q 40.28125 40.625 38.453125 43.015625 
Q 36.625 45.40625 33.984375 46.359375 
Q 31.34375 47.3125 28.03125 47.3125 
Q 24.65625 47.3125 21.9375 46.3125 
Q 19.234375 45.3125 17.328125 42.890625 
Q 15.4375 40.484375 14.421875 36.46875 
Q 13.421875 32.46875 13.421875 26.46875 
Q 13.421875 20.3125 14.5 16.28125 
Q 15.578125 12.25 17.453125 9.859375 
Q 19.34375 7.46875 21.90625 6.484375 
Q 24.46875 5.515625 27.484375 5.515625 
Q 30.859375 5.515625 33.59375 6.46875 
Q 36.328125 7.421875 38.234375 9.8125 
Q 40.140625 12.203125 41.15625 16.25 
Q 42.1875 20.3125 42.1875 26.46875 
z
" id="LiberationSans-6f"/>
      <path d="M 13.421875 26.65625 
Q 13.421875 22.125 14.078125 18.3125 
Q 14.75 14.5 16.3125 11.734375 
Q 17.875 8.984375 20.4375 7.46875 
Q 23 5.953125 26.765625 5.953125 
Q 31.453125 5.953125 34.59375 8.484375 
Q 37.75 11.03125 38.484375 16.3125 
L 47.359375 15.71875 
Q 46.921875 12.453125 45.453125 9.421875 
Q 44 6.390625 41.484375 4.09375 
Q 38.96875 1.8125 35.34375 0.40625 
Q 31.734375 -0.984375 27 -0.984375 
Q 20.796875 -0.984375 16.453125 1.109375 
Q 12.109375 3.21875 9.390625 6.90625 
Q 6.6875 10.59375 5.46875 15.59375 
Q 4.25 20.609375 4.25 26.46875 
Q 4.25 31.78125 5.125 35.859375 
Q 6 39.9375 7.59375 42.984375 
Q 9.1875 46.046875 11.328125 48.125 
Q 13.484375 50.203125 15.984375 51.4375 
Q 18.5 52.6875 21.28125 53.25 
Q 24.078125 53.8125 26.90625 53.8125 
Q 31.34375 53.8125 34.8125 52.59375 
Q 38.28125 51.375 40.796875 49.25 
Q 43.3125 47.125 44.875 44.234375 
Q 46.4375 41.359375 47.078125 38.03125 
L 38.03125 37.359375 
Q 37.359375 41.75 34.5625 44.328125 
Q 31.78125 46.921875 26.65625 46.921875 
Q 22.90625 46.921875 20.390625 45.671875 
Q 17.875 44.4375 16.3125 41.921875 
Q 14.75 39.40625 14.078125 35.59375 
Q 13.421875 31.78125 13.421875 26.65625 
z
" id="LiberationSans-63"/>
      <path d="M 6.9375 0 
L 6.9375 40.53125 
Q 6.9375 42.1875 6.90625 43.921875 
Q 6.890625 45.65625 6.828125 47.265625 
Q 6.78125 48.875 6.734375 50.28125 
Q 6.6875 51.703125 6.640625 52.828125 
L 14.9375 52.828125 
Q 14.984375 51.703125 15.0625 50.265625 
Q 15.140625 48.828125 15.203125 47.3125 
Q 15.28125 45.796875 15.296875 44.40625 
Q 15.328125 43.015625 15.328125 42.046875 
L 15.53125 42.046875 
Q 16.453125 45.0625 17.5 47.28125 
Q 18.5625 49.515625 19.96875 50.953125 
Q 21.390625 52.390625 23.34375 53.09375 
Q 25.296875 53.8125 28.078125 53.8125 
Q 29.15625 53.8125 30.125 53.640625 
Q 31.109375 53.46875 31.640625 53.328125 
L 31.640625 45.265625 
Q 30.765625 45.515625 29.59375 45.625 
Q 28.421875 45.75 26.953125 45.75 
Q 23.921875 45.75 21.796875 44.375 
Q 19.671875 43.015625 18.328125 40.59375 
Q 17 38.1875 16.359375 34.84375 
Q 15.71875 31.5 15.71875 27.546875 
L 15.71875 0 
z
" id="LiberationSans-72"/>
      <path d="M 13.484375 24.5625 
Q 13.484375 20.40625 14.328125 16.90625 
Q 15.1875 13.421875 16.96875 10.90625 
Q 18.75 8.40625 21.53125 7 
Q 24.3125 5.609375 28.21875 5.609375 
Q 33.9375 5.609375 37.375 7.90625 
Q 40.828125 10.203125 42.046875 13.71875 
L 49.75 11.53125 
Q 48.921875 9.328125 47.4375 7.109375 
Q 45.953125 4.890625 43.453125 3.09375 
Q 40.96875 1.3125 37.234375 0.15625 
Q 33.5 -0.984375 28.21875 -0.984375 
Q 16.5 -0.984375 10.375 6 
Q 4.25 12.984375 4.25 26.765625 
Q 4.25 34.1875 6.09375 39.328125 
Q 7.953125 44.484375 11.171875 47.703125 
Q 14.40625 50.921875 18.703125 52.359375 
Q 23 53.8125 27.875 53.8125 
Q 34.515625 53.8125 38.984375 51.65625 
Q 43.453125 49.515625 46.15625 45.71875 
Q 48.875 41.9375 50.015625 36.8125 
Q 51.171875 31.6875 51.171875 25.734375 
L 51.171875 24.5625 
z
M 42.09375 31.296875 
Q 41.359375 39.65625 37.84375 43.484375 
Q 34.328125 47.3125 27.734375 47.3125 
Q 25.53125 47.3125 23.109375 46.609375 
Q 20.703125 45.90625 18.65625 44.09375 
Q 16.609375 42.28125 15.1875 39.171875 
Q 13.765625 36.078125 13.578125 31.296875 
z
" id="LiberationSans-65"/>
      <path d="M 6.734375 0 
L 6.734375 72.46875 
L 15.53125 72.46875 
L 15.53125 0 
z
" id="LiberationSans-6c"/>
      <path d="M 6.6875 64.0625 
L 6.6875 72.46875 
L 15.484375 72.46875 
L 15.484375 64.0625 
z
M 6.6875 0 
L 6.6875 52.828125 
L 15.484375 52.828125 
L 15.484375 0 
z
" id="LiberationSans-69"/>
      <path d="M 40.28125 0 
L 40.28125 33.5 
Q 40.28125 37.359375 39.71875 39.9375 
Q 39.15625 42.53125 37.890625 44.109375 
Q 36.625 45.703125 34.546875 46.359375 
Q 32.46875 47.015625 29.390625 47.015625 
Q 26.265625 47.015625 23.75 45.921875 
Q 21.234375 44.828125 19.453125 42.75 
Q 17.671875 40.671875 16.6875 37.625 
Q 15.71875 34.578125 15.71875 30.609375 
L 15.71875 0 
L 6.9375 0 
L 6.9375 41.546875 
Q 6.9375 43.21875 6.90625 45.046875 
Q 6.890625 46.875 6.828125 48.5 
Q 6.78125 50.140625 6.734375 51.3125 
Q 6.6875 52.484375 6.640625 52.828125 
L 14.9375 52.828125 
Q 14.984375 52.59375 15.03125 51.515625 
Q 15.09375 50.4375 15.15625 49.046875 
Q 15.234375 47.65625 15.28125 46.21875 
Q 15.328125 44.78125 15.328125 43.796875 
L 15.484375 43.796875 
Q 16.75 46.09375 18.265625 47.953125 
Q 19.78125 49.8125 21.78125 51.09375 
Q 23.78125 52.390625 26.359375 53.09375 
Q 28.953125 53.8125 32.375 53.8125 
Q 36.765625 53.8125 39.9375 52.734375 
Q 43.109375 51.65625 45.15625 49.40625 
Q 47.21875 47.171875 48.171875 43.625 
Q 49.125 40.09375 49.125 35.203125 
L 49.125 0 
z
" id="LiberationSans-6e"/>
     </defs>
     <g style="fill:#262626;" transform="translate(15.171563 149.452422)rotate(-90)scale(0.11 -0.11)">
      <use xlink:href="#LiberationSans-43"/>
      <use x="72.216797" xlink:href="#LiberationSans-48"/>
      <use x="144.433594" xlink:href="#LiberationSans-4d"/>
      <use x="227.734375" xlink:href="#LiberationSans-43"/>
      <use x="299.951172" xlink:href="#LiberationSans-20"/>
      <use x="327.734375" xlink:href="#LiberationSans-61"/>
      <use x="383.349609" xlink:href="#LiberationSans-75"/>
      <use x="438.964844" xlink:href="#LiberationSans-74"/>
      <use x="466.748047" xlink:href="#LiberationSans-6f"/>
      <use x="522.363281" xlink:href="#LiberationSans-63"/>
      <use x="572.363281" xlink:href="#LiberationSans-6f"/>
      <use x="627.978516" xlink:href="#LiberationSans-72"/>
      <use x="661.279297" xlink:href="#LiberationSans-72"/>
      <use x="694.580078" xlink:href="#LiberationSans-65"/>
      <use x="750.195312" xlink:href="#LiberationSans-6c"/>
      <use x="772.412109" xlink:href="#LiberationSans-61"/>
      <use x="828.027344" xlink:href="#LiberationSans-74"/>
      <use x="855.810547" xlink:href="#LiberationSans-69"/>
      <use x="878.027344" xlink:href="#LiberationSans-6f"/>
      <use x="933.642578" xlink:href="#LiberationSans-6e"/>
     </g>
    </g>
   </g>
   <g id="line2d_9">
    <path clip-path="url(#pcac37c4837)" d="M 54.382188 27.173203 
L 55.632188 132.712268 
L 56.882188 125.862207 
L 58.132188 126.821842 
L 59.382188 129.138878 
L 60.632188 127.634602 
L 61.882188 129.68496 
L 63.132188 126.238466 
L 64.382188 128.809117 
L 65.632188 128.294989 
L 66.882188 127.478271 
L 68.132188 127.889286 
L 69.382188 126.872115 
L 70.632188 128.243244 
L 71.882188 128.321937 
L 73.132188 128.137086 
L 74.382188 126.744363 
L 75.632188 128.490752 
L 76.882188 125.61127 
L 78.132188 129.589861 
L 79.382188 124.276291 
L 80.632188 129.943581 
L 81.882188 126.752394 
L 83.132188 126.742577 
L 84.382188 127.190655 
L 85.632188 129.216392 
L 86.882188 126.703785 
L 88.132188 127.989772 
L 89.382188 127.195948 
L 90.632188 127.320104 
L 91.882188 129.132882 
L 93.132188 126.825466 
L 94.382188 129.558256 
L 95.632188 126.841974 
L 96.882188 128.884585 
L 98.132188 127.73043 
L 99.382188 126.05116 
L 100.632188 129.561872 
L 101.882188 127.008092 
L 103.132188 130.424853 
L 104.382188 126.216144 
L 105.632188 129.984377 
L 106.882188 127.157132 
L 108.132188 129.00638 
L 109.382188 127.143199 
L 110.632188 128.009445 
L 111.882188 127.658101 
L 113.132188 127.492263 
L 114.382187 130.649638 
L 115.632187 126.067351 
L 116.882187 129.147954 
L 118.132187 126.564153 
L 119.382187 128.722205 
L 120.632187 127.443843 
L 121.882187 127.663285 
L 123.132187 128.661165 
L 124.382187 125.517513 
L 125.632187 128.96938 
L 126.882187 126.556928 
L 128.132187 127.785115 
L 129.382187 127.407973 
L 130.632187 128.130082 
L 131.882187 127.498252 
L 133.132187 128.41445 
L 134.382187 127.192475 
L 135.632187 129.31783 
L 136.882187 128.125224 
L 138.132187 126.091603 
L 139.382187 129.73136 
L 140.632187 125.631387 
L 141.882187 128.564462 
L 143.132187 126.983365 
L 144.382187 128.336077 
L 145.632187 128.806018 
L 146.882187 127.098075 
L 148.132187 130.28433 
L 149.382187 126.342488 
L 150.632187 127.864094 
L 151.882187 127.61078 
L 153.132187 127.607366 
L 154.382187 129.129646 
L 155.632187 127.111069 
L 156.882187 128.685502 
L 158.132187 127.545827 
L 159.382187 129.519496 
L 160.632187 127.913572 
L 161.882187 127.625494 
L 163.132187 127.390772 
L 164.382187 128.507062 
L 165.632187 126.6113 
L 166.882187 128.662702 
L 168.132187 127.423317 
L 169.382187 127.214976 
L 170.632187 128.156152 
L 171.882187 127.981723 
L 173.132187 128.859367 
L 174.382187 126.76936 
L 175.632187 128.377898 
L 176.882187 127.172464 
L 178.132187 128.059506 
" style="fill:none;stroke:#4c72b0;stroke-linecap:round;stroke-width:1.75;"/>
   </g>
   <g id="patch_3">
    <path d="M 48.194688 168.19625 
L 48.194688 21.89625 
" style="fill:none;stroke:#cccccc;stroke-linecap:square;stroke-linejoin:miter;"/>
   </g>
   <g id="patch_4">
    <path d="M 184.319687 168.19625 
L 184.319687 21.89625 
" style="fill:none;stroke:#cccccc;stroke-linecap:square;stroke-linejoin:miter;"/>
   </g>
   <g id="patch_5">
    <path d="M 48.194688 168.19625 
L 184.319687 168.19625 
" style="fill:none;stroke:#cccccc;stroke-linecap:square;stroke-linejoin:miter;"/>
   </g>
   <g id="patch_6">
    <path d="M 48.194688 21.89625 
L 184.319687 21.89625 
" style="fill:none;stroke:#cccccc;stroke-linecap:square;stroke-linejoin:miter;"/>
   </g>
   <g id="text_6">
    <!-- $z_0$ -->
    <defs>
     <path d="M 11.625 54.6875 
L 54.296875 54.6875 
L 52.6875 46.484375 
L 11.53125 7.171875 
L 45.515625 7.171875 
L 44.09375 0 
L -0.296875 0 
L 1.3125 8.203125 
L 42.484375 47.515625 
L 10.203125 47.515625 
z
" id="DejaVuSans-Oblique-7a"/>
     <path d="M 31.78125 66.40625 
Q 24.171875 66.40625 20.328125 58.90625 
Q 16.5 51.421875 16.5 36.375 
Q 16.5 21.390625 20.328125 13.890625 
Q 24.171875 6.390625 31.78125 6.390625 
Q 39.453125 6.390625 43.28125 13.890625 
Q 47.125 21.390625 47.125 36.375 
Q 47.125 51.421875 43.28125 58.90625 
Q 39.453125 66.40625 31.78125 66.40625 
z
M 31.78125 74.21875 
Q 44.046875 74.21875 50.515625 64.515625 
Q 56.984375 54.828125 56.984375 36.375 
Q 56.984375 17.96875 50.515625 8.265625 
Q 44.046875 -1.421875 31.78125 -1.421875 
Q 19.53125 -1.421875 13.0625 8.265625 
Q 6.59375 17.96875 6.59375 36.375 
Q 6.59375 54.828125 13.0625 64.515625 
Q 19.53125 74.21875 31.78125 74.21875 
z
" id="DejaVuSans-30"/>
    </defs>
    <g style="fill:#262626;" transform="translate(110.257187 15.89625)scale(0.12 -0.12)">
     <use transform="translate(0 0.3125)" xlink:href="#DejaVuSans-Oblique-7a"/>
     <use transform="translate(52.490234 -16.09375)scale(0.7)" xlink:href="#DejaVuSans-30"/>
    </g>
   </g>
  </g>
  <g id="axes_2">
   <g id="patch_7">
    <path d="M 221.994687 168.19625 
L 358.119688 168.19625 
L 358.119688 21.89625 
L 221.994687 21.89625 
z
" style="fill:#ffffff;"/>
   </g>
   <g id="matplotlib.axis_3"/>
   <g id="matplotlib.axis_4">
    <g id="ytick_5">
     <g id="line2d_10">
      <path clip-path="url(#pb72b9b8107)" d="M 221.994687 168.19625 
L 358.119688 168.19625 
" style="fill:none;stroke:#cccccc;stroke-linecap:round;"/>
     </g>
     <g id="line2d_11"/>
     <g id="text_7">
      <!-- −0.4 -->
      <g style="fill:#262626;" transform="translate(195.254063 171.819688)scale(0.1 -0.1)">
       <use xlink:href="#LiberationSans-2212"/>
       <use x="58.398438" xlink:href="#LiberationSans-30"/>
       <use x="114.013672" xlink:href="#LiberationSans-2e"/>
       <use x="141.796875" xlink:href="#LiberationSans-34"/>
      </g>
     </g>
    </g>
    <g id="ytick_6">
     <g id="line2d_12">
      <path clip-path="url(#pb72b9b8107)" d="M 221.994687 127.86947 
L 358.119688 127.86947 
" style="fill:none;stroke:#cccccc;stroke-linecap:round;"/>
     </g>
     <g id="line2d_13"/>
     <g id="text_8">
      <!-- 0.0 -->
      <g style="fill:#262626;" transform="translate(201.094687 131.492907)scale(0.1 -0.1)">
       <use xlink:href="#LiberationSans-30"/>
       <use x="55.615234" xlink:href="#LiberationSans-2e"/>
       <use x="83.398438" xlink:href="#LiberationSans-30"/>
      </g>
     </g>
    </g>
    <g id="ytick_7">
     <g id="line2d_14">
      <path clip-path="url(#pb72b9b8107)" d="M 221.994687 87.54269 
L 358.119688 87.54269 
" style="fill:none;stroke:#cccccc;stroke-linecap:round;"/>
     </g>
     <g id="line2d_15"/>
     <g id="text_9">
      <!-- 0.4 -->
      <g style="fill:#262626;" transform="translate(201.094687 91.166127)scale(0.1 -0.1)">
       <use xlink:href="#LiberationSans-30"/>
       <use x="55.615234" xlink:href="#LiberationSans-2e"/>
       <use x="83.398438" xlink:href="#LiberationSans-34"/>
      </g>
     </g>
    </g>
    <g id="ytick_8">
     <g id="line2d_16">
      <path clip-path="url(#pb72b9b8107)" d="M 221.994687 47.21591 
L 358.119688 47.21591 
" style="fill:none;stroke:#cccccc;stroke-linecap:round;"/>
     </g>
     <g id="line2d_17"/>
     <g id="text_10">
      <!-- 0.8 -->
      <g style="fill:#262626;" transform="translate(201.094687 50.839347)scale(0.1 -0.1)">
       <use xlink:href="#LiberationSans-30"/>
       <use x="55.615234" xlink:href="#LiberationSans-2e"/>
       <use x="83.398438" xlink:href="#LiberationSans-38"/>
      </g>
     </g>
    </g>
   </g>
   <g id="line2d_18">
    <path clip-path="url(#pb72b9b8107)" d="M 228.182187 27.05252 
L 229.432187 128.436111 
L 230.682187 129.167977 
L 231.932187 124.7719 
L 233.182187 130.168468 
L 234.432187 127.537114 
L 235.682187 125.905383 
L 236.932187 128.423641 
L 238.182187 127.504213 
L 239.432187 126.918585 
L 240.682187 128.053561 
L 241.932187 128.335618 
L 243.182187 125.750467 
L 244.432187 128.249908 
L 245.682187 128.209009 
L 246.932187 127.155696 
L 248.182187 130.042012 
L 249.432187 127.139754 
L 250.682187 126.303268 
L 251.932187 128.355835 
L 253.182187 126.451816 
L 254.432187 129.685212 
L 255.682187 128.232182 
L 256.932187 126.624742 
L 258.182187 128.883402 
L 259.432187 127.406234 
L 260.682187 126.809724 
L 261.932187 128.513931 
L 263.182187 126.641381 
L 264.432187 130.070855 
L 265.682187 128.172785 
L 266.932187 126.931012 
L 268.182187 130.177915 
L 269.432187 125.643712 
L 270.682187 129.012446 
L 271.932187 127.439323 
L 273.182187 127.629614 
L 274.432187 127.778869 
L 275.682187 128.500477 
L 276.932187 127.455288 
L 278.182187 126.859283 
L 279.432187 128.868946 
L 280.682187 127.019416 
L 281.932187 128.15961 
L 283.182187 129.465935 
L 284.432187 126.205473 
L 285.682187 128.691994 
L 286.932187 128.731699 
L 288.182187 126.232156 
L 289.432187 127.883937 
L 290.682187 128.341774 
L 291.932187 128.015311 
L 293.182188 127.300782 
L 294.432188 126.812728 
L 295.682188 129.414017 
L 296.932188 126.543823 
L 298.182188 126.346799 
L 299.432188 127.497855 
L 300.682188 128.088307 
L 301.932188 127.242752 
L 303.182188 129.472961 
L 304.432188 127.350102 
L 305.682188 128.431824 
L 306.932188 129.380883 
L 308.182188 127.291131 
L 309.432188 126.490593 
L 310.682188 129.614024 
L 311.932188 128.617402 
L 313.182188 125.761139 
L 314.432188 129.681349 
L 315.682188 127.431061 
L 316.932188 127.248087 
L 318.182188 130.038314 
L 319.432188 126.595774 
L 320.682188 128.102441 
L 321.932188 129.101502 
L 323.182188 124.87806 
L 324.432188 129.146954 
L 325.682188 127.675992 
L 326.932188 127.184675 
L 328.182188 129.244596 
L 329.432188 127.671942 
L 330.682188 128.051929 
L 331.932188 127.050348 
L 333.182188 129.108108 
L 334.432188 127.730931 
L 335.682188 128.26711 
L 336.932188 127.818641 
L 338.182188 125.319901 
L 339.432188 129.407459 
L 340.682188 127.368575 
L 341.932188 127.840342 
L 343.182188 128.79154 
L 344.432188 127.38214 
L 345.682188 127.312689 
L 346.932188 128.627549 
L 348.182188 128.576178 
L 349.432188 127.146478 
L 350.682188 127.670522 
L 351.932188 127.128284 
" style="fill:none;stroke:#4c72b0;stroke-linecap:round;stroke-width:1.75;"/>
   </g>
   <g id="patch_8">
    <path d="M 221.994687 168.19625 
L 221.994687 21.89625 
" style="fill:none;stroke:#cccccc;stroke-linecap:square;stroke-linejoin:miter;"/>
   </g>
   <g id="patch_9">
    <path d="M 358.119688 168.19625 
L 358.119688 21.89625 
" style="fill:none;stroke:#cccccc;stroke-linecap:square;stroke-linejoin:miter;"/>
   </g>
   <g id="patch_10">
    <path d="M 221.994687 168.19625 
L 358.119688 168.19625 
" style="fill:none;stroke:#cccccc;stroke-linecap:square;stroke-linejoin:miter;"/>
   </g>
   <g id="patch_11">
    <path d="M 221.994687 21.89625 
L 358.119688 21.89625 
" style="fill:none;stroke:#cccccc;stroke-linecap:square;stroke-linejoin:miter;"/>
   </g>
   <g id="text_11">
    <!-- $z_1$ -->
    <defs>
     <path d="M 12.40625 8.296875 
L 28.515625 8.296875 
L 28.515625 63.921875 
L 10.984375 60.40625 
L 10.984375 69.390625 
L 28.421875 72.90625 
L 38.28125 72.90625 
L 38.28125 8.296875 
L 54.390625 8.296875 
L 54.390625 0 
L 12.40625 0 
z
" id="DejaVuSans-31"/>
    </defs>
    <g style="fill:#262626;" transform="translate(284.057188 15.89625)scale(0.12 -0.12)">
     <use transform="translate(0 0.3125)" xlink:href="#DejaVuSans-Oblique-7a"/>
     <use transform="translate(52.490234 -16.09375)scale(0.7)" xlink:href="#DejaVuSans-31"/>
    </g>
   </g>
  </g>
  <g id="axes_3">
   <g id="patch_12">
    <path d="M 395.794688 168.19625 
L 531.919688 168.19625 
L 531.919688 21.89625 
L 395.794688 21.89625 
z
" style="fill:#ffffff;"/>
   </g>
   <g id="matplotlib.axis_5"/>
   <g id="matplotlib.axis_6">
    <g id="ytick_9">
     <g id="line2d_19">
      <path clip-path="url(#pcb4aa0e822)" d="M 395.794688 168.19625 
L 531.919688 168.19625 
" style="fill:none;stroke:#cccccc;stroke-linecap:round;"/>
     </g>
     <g id="line2d_20"/>
     <g id="text_12">
      <!-- −0.4 -->
      <g style="fill:#262626;" transform="translate(369.054062 171.819688)scale(0.1 -0.1)">
       <use xlink:href="#LiberationSans-2212"/>
       <use x="58.398438" xlink:href="#LiberationSans-30"/>
       <use x="114.013672" xlink:href="#LiberationSans-2e"/>
       <use x="141.796875" xlink:href="#LiberationSans-34"/>
      </g>
     </g>
    </g>
    <g id="ytick_10">
     <g id="line2d_21">
      <path clip-path="url(#pcb4aa0e822)" d="M 395.794688 127.888874 
L 531.919688 127.888874 
" style="fill:none;stroke:#cccccc;stroke-linecap:round;"/>
     </g>
     <g id="line2d_22"/>
     <g id="text_13">
      <!-- 0.0 -->
      <g style="fill:#262626;" transform="translate(374.894688 131.512312)scale(0.1 -0.1)">
       <use xlink:href="#LiberationSans-30"/>
       <use x="55.615234" xlink:href="#LiberationSans-2e"/>
       <use x="83.398438" xlink:href="#LiberationSans-30"/>
      </g>
     </g>
    </g>
    <g id="ytick_11">
     <g id="line2d_23">
      <path clip-path="url(#pcb4aa0e822)" d="M 395.794688 87.581499 
L 531.919688 87.581499 
" style="fill:none;stroke:#cccccc;stroke-linecap:round;"/>
     </g>
     <g id="line2d_24"/>
     <g id="text_14">
      <!-- 0.4 -->
      <g style="fill:#262626;" transform="translate(374.894688 91.204936)scale(0.1 -0.1)">
       <use xlink:href="#LiberationSans-30"/>
       <use x="55.615234" xlink:href="#LiberationSans-2e"/>
       <use x="83.398438" xlink:href="#LiberationSans-34"/>
      </g>
     </g>
    </g>
    <g id="ytick_12">
     <g id="line2d_25">
      <path clip-path="url(#pcb4aa0e822)" d="M 395.794688 47.274123 
L 531.919688 47.274123 
" style="fill:none;stroke:#cccccc;stroke-linecap:round;"/>
     </g>
     <g id="line2d_26"/>
     <g id="text_15">
      <!-- 0.8 -->
      <g style="fill:#262626;" transform="translate(374.894688 50.897561)scale(0.1 -0.1)">
       <use xlink:href="#LiberationSans-30"/>
       <use x="55.615234" xlink:href="#LiberationSans-2e"/>
       <use x="83.398438" xlink:href="#LiberationSans-38"/>
      </g>
     </g>
    </g>
   </g>
   <g id="line2d_27">
    <path clip-path="url(#pcb4aa0e822)" d="M 401.982188 27.120435 
L 403.232188 131.604142 
L 404.482188 124.279701 
L 405.732188 125.314159 
L 406.982188 129.930209 
L 408.232188 126.141821 
L 409.482188 130.069301 
L 410.732188 127.05814 
L 411.982188 129.754524 
L 413.232188 126.030667 
L 414.482188 127.658224 
L 415.732188 126.563496 
L 416.982188 126.466497 
L 418.232188 127.657479 
L 419.482188 130.095152 
L 420.732188 127.523438 
L 421.982188 129.707289 
L 423.232188 127.759923 
L 424.482188 125.108459 
L 425.732188 129.343297 
L 426.982188 125.20925 
L 428.232188 129.978504 
L 429.482188 127.629511 
L 430.732188 126.752881 
L 431.982188 128.757664 
L 433.232188 126.263574 
L 434.482188 129.002414 
L 435.732188 127.251905 
L 436.982188 127.674315 
L 438.232188 130.985575 
L 439.482188 128.261365 
L 440.732188 126.864812 
L 441.982188 129.255841 
L 443.232188 126.232076 
L 444.482188 129.383439 
L 445.732188 126.688091 
L 446.982188 128.814632 
L 448.232188 126.893508 
L 449.482188 128.427144 
L 450.732188 128.420759 
L 451.982188 124.105339 
L 453.232188 130.457794 
L 454.482188 125.064861 
L 455.732188 129.675295 
L 456.982188 129.669897 
L 458.232188 127.386666 
L 459.482188 128.580249 
L 460.732188 127.349651 
L 461.982188 127.460664 
L 463.232188 127.026301 
L 464.482188 129.068256 
L 465.732188 128.014388 
L 466.982188 129.418096 
L 468.232188 126.805842 
L 469.482188 128.601238 
L 470.732188 127.236391 
L 471.982188 125.610025 
L 473.232188 128.71693 
L 474.482188 126.733397 
L 475.732188 129.182294 
L 476.982188 128.093341 
L 478.232188 129.061869 
L 479.482188 127.135737 
L 480.732188 129.39589 
L 481.982188 127.032817 
L 483.232188 126.734055 
L 484.482188 129.112557 
L 485.732188 127.609954 
L 486.982188 127.781388 
L 488.232188 127.871051 
L 489.482188 128.409905 
L 490.732188 126.697452 
L 491.982188 128.771098 
L 493.232188 127.942612 
L 494.482188 126.364395 
L 495.732188 129.990252 
L 496.982188 124.631935 
L 498.232188 129.082876 
L 499.482188 128.051322 
L 500.732188 127.417139 
L 501.982188 129.663116 
L 503.232188 127.698886 
L 504.482188 128.238418 
L 505.732188 125.968077 
L 506.982188 127.898677 
L 508.232188 128.157081 
L 509.482188 127.220917 
L 510.732188 128.636069 
L 511.982188 126.148533 
L 513.232188 127.9066 
L 514.482188 128.362991 
L 515.732188 126.743489 
L 516.982188 129.685993 
L 518.232188 125.84749 
L 519.482188 127.537933 
L 520.732188 128.953244 
L 521.982188 129.075417 
L 523.232188 127.889868 
L 524.482188 127.674185 
L 525.732188 126.22523 
" style="fill:none;stroke:#4c72b0;stroke-linecap:round;stroke-width:1.75;"/>
   </g>
   <g id="patch_13">
    <path d="M 395.794688 168.19625 
L 395.794688 21.89625 
" style="fill:none;stroke:#cccccc;stroke-linecap:square;stroke-linejoin:miter;"/>
   </g>
   <g id="patch_14">
    <path d="M 531.919688 168.19625 
L 531.919688 21.89625 
" style="fill:none;stroke:#cccccc;stroke-linecap:square;stroke-linejoin:miter;"/>
   </g>
   <g id="patch_15">
    <path d="M 395.794688 168.19625 
L 531.919688 168.19625 
" style="fill:none;stroke:#cccccc;stroke-linecap:square;stroke-linejoin:miter;"/>
   </g>
   <g id="patch_16">
    <path d="M 395.794688 21.89625 
L 531.919688 21.89625 
" style="fill:none;stroke:#cccccc;stroke-linecap:square;stroke-linejoin:miter;"/>
   </g>
   <g id="text_16">
    <!-- $z_2$ -->
    <defs>
     <path d="M 19.1875 8.296875 
L 53.609375 8.296875 
L 53.609375 0 
L 7.328125 0 
L 7.328125 8.296875 
Q 12.9375 14.109375 22.625 23.890625 
Q 32.328125 33.6875 34.8125 36.53125 
Q 39.546875 41.84375 41.421875 45.53125 
Q 43.3125 49.21875 43.3125 52.78125 
Q 43.3125 58.59375 39.234375 62.25 
Q 35.15625 65.921875 28.609375 65.921875 
Q 23.96875 65.921875 18.8125 64.3125 
Q 13.671875 62.703125 7.8125 59.421875 
L 7.8125 69.390625 
Q 13.765625 71.78125 18.9375 73 
Q 24.125 74.21875 28.421875 74.21875 
Q 39.75 74.21875 46.484375 68.546875 
Q 53.21875 62.890625 53.21875 53.421875 
Q 53.21875 48.921875 51.53125 44.890625 
Q 49.859375 40.875 45.40625 35.40625 
Q 44.1875 33.984375 37.640625 27.21875 
Q 31.109375 20.453125 19.1875 8.296875 
z
" id="DejaVuSans-32"/>
    </defs>
    <g style="fill:#262626;" transform="translate(457.857188 15.89625)scale(0.12 -0.12)">
     <use transform="translate(0 0.3125)" xlink:href="#DejaVuSans-Oblique-7a"/>
     <use transform="translate(52.490234 -16.09375)scale(0.7)" xlink:href="#DejaVuSans-32"/>
    </g>
   </g>
  </g>
  <g id="axes_4">
   <g id="patch_17">
    <path d="M 569.594687 168.19625 
L 705.719688 168.19625 
L 705.719688 21.89625 
L 569.594687 21.89625 
z
" style="fill:#ffffff;"/>
   </g>
   <g id="matplotlib.axis_7"/>
   <g id="matplotlib.axis_8">
    <g id="ytick_13">
     <g id="line2d_28">
      <path clip-path="url(#pebeae0b31a)" d="M 569.594687 168.19625 
L 705.719688 168.19625 
" style="fill:none;stroke:#cccccc;stroke-linecap:round;"/>
     </g>
     <g id="line2d_29"/>
     <g id="text_17">
      <!-- −0.4 -->
      <g style="fill:#262626;" transform="translate(542.854062 171.819688)scale(0.1 -0.1)">
       <use xlink:href="#LiberationSans-2212"/>
       <use x="58.398438" xlink:href="#LiberationSans-30"/>
       <use x="114.013672" xlink:href="#LiberationSans-2e"/>
       <use x="141.796875" xlink:href="#LiberationSans-34"/>
      </g>
     </g>
    </g>
    <g id="ytick_14">
     <g id="line2d_30">
      <path clip-path="url(#pebeae0b31a)" d="M 569.594687 127.865667 
L 705.719688 127.865667 
" style="fill:none;stroke:#cccccc;stroke-linecap:round;"/>
     </g>
     <g id="line2d_31"/>
     <g id="text_18">
      <!-- 0.0 -->
      <g style="fill:#262626;" transform="translate(548.694687 131.489105)scale(0.1 -0.1)">
       <use xlink:href="#LiberationSans-30"/>
       <use x="55.615234" xlink:href="#LiberationSans-2e"/>
       <use x="83.398438" xlink:href="#LiberationSans-30"/>
      </g>
     </g>
    </g>
    <g id="ytick_15">
     <g id="line2d_32">
      <path clip-path="url(#pebeae0b31a)" d="M 569.594687 87.535084 
L 705.719688 87.535084 
" style="fill:none;stroke:#cccccc;stroke-linecap:round;"/>
     </g>
     <g id="line2d_33"/>
     <g id="text_19">
      <!-- 0.4 -->
      <g style="fill:#262626;" transform="translate(548.694687 91.158522)scale(0.1 -0.1)">
       <use xlink:href="#LiberationSans-30"/>
       <use x="55.615234" xlink:href="#LiberationSans-2e"/>
       <use x="83.398438" xlink:href="#LiberationSans-34"/>
      </g>
     </g>
    </g>
    <g id="ytick_16">
     <g id="line2d_34">
      <path clip-path="url(#pebeae0b31a)" d="M 569.594687 47.204501 
L 705.719688 47.204501 
" style="fill:none;stroke:#cccccc;stroke-linecap:round;"/>
     </g>
     <g id="line2d_35"/>
     <g id="text_20">
      <!-- 0.8 -->
      <g style="fill:#262626;" transform="translate(548.694687 50.827939)scale(0.1 -0.1)">
       <use xlink:href="#LiberationSans-30"/>
       <use x="55.615234" xlink:href="#LiberationSans-2e"/>
       <use x="83.398438" xlink:href="#LiberationSans-38"/>
      </g>
     </g>
    </g>
   </g>
   <g id="line2d_36">
    <path clip-path="url(#pebeae0b31a)" d="M 575.782187 27.03921 
L 577.032187 128.450513 
L 578.282187 127.218695 
L 579.532187 128.218253 
L 580.782187 129.170151 
L 582.032187 125.873916 
L 583.282187 127.737992 
L 584.532187 127.614666 
L 585.782187 128.556563 
L 587.032187 125.848168 
L 588.282187 127.976331 
L 589.532187 129.898401 
L 590.782187 125.860663 
L 592.032187 129.004041 
L 593.282187 127.736729 
L 594.532187 129.533031 
L 595.782187 126.064515 
L 597.032187 128.233333 
L 598.282187 126.928764 
L 599.532187 127.673313 
L 600.782187 127.66586 
L 602.032187 127.4116 
L 603.282187 128.51249 
L 604.532187 127.358836 
L 605.782187 127.345143 
L 607.032187 126.01694 
L 608.282187 129.089927 
L 609.532187 127.599623 
L 610.782187 127.864639 
L 612.032187 128.959725 
L 613.282187 129.866242 
L 614.532187 128.377673 
L 615.782187 127.710869 
L 617.032187 126.621384 
L 618.282187 128.602996 
L 619.532187 129.564145 
L 620.782187 125.34119 
L 622.032187 126.716023 
L 623.282187 127.455132 
L 624.532187 129.025197 
L 625.782187 126.76652 
L 627.032187 129.508603 
L 628.282187 126.214572 
L 629.532187 129.864349 
L 630.782187 126.785408 
L 632.032187 129.124792 
L 633.282187 127.099002 
L 634.532187 129.504851 
L 635.782187 127.90133 
L 637.032187 126.984338 
L 638.282187 126.318113 
L 639.532187 127.76229 
L 640.782187 129.154858 
L 642.032187 126.531396 
L 643.282187 127.595141 
L 644.532187 127.949666 
L 645.782187 125.853067 
L 647.032187 128.734588 
L 648.282188 127.929554 
L 649.532188 128.262586 
L 650.782188 127.964889 
L 652.032188 128.890199 
L 653.282188 126.951949 
L 654.532188 128.700205 
L 655.782188 125.921964 
L 657.032188 127.273445 
L 658.282188 128.552228 
L 659.532188 128.124444 
L 660.782188 127.693649 
L 662.032188 128.052039 
L 663.282188 128.162844 
L 664.532188 127.917532 
L 665.782188 128.399661 
L 667.032188 127.322353 
L 668.282188 128.589459 
L 669.532188 127.616278 
L 670.782188 126.600057 
L 672.032188 128.809199 
L 673.282188 128.226381 
L 674.532188 128.4785 
L 675.782188 127.649525 
L 677.032188 128.787707 
L 678.282188 128.288296 
L 679.532188 127.380293 
L 680.782188 125.997905 
L 682.032188 128.879147 
L 683.282188 126.627614 
L 684.532188 128.736865 
L 685.782188 127.334107 
L 687.032188 128.534604 
L 688.282188 128.247235 
L 689.532188 127.210949 
L 690.782188 127.471611 
L 692.032188 129.12661 
L 693.282188 129.609991 
L 694.532188 126.457022 
L 695.782188 128.056435 
L 697.032188 128.086851 
L 698.282188 127.945279 
L 699.532188 126.875844 
" style="fill:none;stroke:#4c72b0;stroke-linecap:round;stroke-width:1.75;"/>
   </g>
   <g id="patch_18">
    <path d="M 569.594687 168.19625 
L 569.594687 21.89625 
" style="fill:none;stroke:#cccccc;stroke-linecap:square;stroke-linejoin:miter;"/>
   </g>
   <g id="patch_19">
    <path d="M 705.719688 168.19625 
L 705.719688 21.89625 
" style="fill:none;stroke:#cccccc;stroke-linecap:square;stroke-linejoin:miter;"/>
   </g>
   <g id="patch_20">
    <path d="M 569.594687 168.19625 
L 705.719688 168.19625 
" style="fill:none;stroke:#cccccc;stroke-linecap:square;stroke-linejoin:miter;"/>
   </g>
   <g id="patch_21">
    <path d="M 569.594687 21.89625 
L 705.719688 21.89625 
" style="fill:none;stroke:#cccccc;stroke-linecap:square;stroke-linejoin:miter;"/>
   </g>
   <g id="text_21">
    <!-- $z_3$ -->
    <defs>
     <path d="M 40.578125 39.3125 
Q 47.65625 37.796875 51.625 33 
Q 55.609375 28.21875 55.609375 21.1875 
Q 55.609375 10.40625 48.1875 4.484375 
Q 40.765625 -1.421875 27.09375 -1.421875 
Q 22.515625 -1.421875 17.65625 -0.515625 
Q 12.796875 0.390625 7.625 2.203125 
L 7.625 11.71875 
Q 11.71875 9.328125 16.59375 8.109375 
Q 21.484375 6.890625 26.8125 6.890625 
Q 36.078125 6.890625 40.9375 10.546875 
Q 45.796875 14.203125 45.796875 21.1875 
Q 45.796875 27.640625 41.28125 31.265625 
Q 36.765625 34.90625 28.71875 34.90625 
L 20.21875 34.90625 
L 20.21875 43.015625 
L 29.109375 43.015625 
Q 36.375 43.015625 40.234375 45.921875 
Q 44.09375 48.828125 44.09375 54.296875 
Q 44.09375 59.90625 40.109375 62.90625 
Q 36.140625 65.921875 28.71875 65.921875 
Q 24.65625 65.921875 20.015625 65.03125 
Q 15.375 64.15625 9.8125 62.3125 
L 9.8125 71.09375 
Q 15.4375 72.65625 20.34375 73.4375 
Q 25.25 74.21875 29.59375 74.21875 
Q 40.828125 74.21875 47.359375 69.109375 
Q 53.90625 64.015625 53.90625 55.328125 
Q 53.90625 49.265625 50.4375 45.09375 
Q 46.96875 40.921875 40.578125 39.3125 
z
" id="DejaVuSans-33"/>
    </defs>
    <g style="fill:#262626;" transform="translate(631.657187 15.89625)scale(0.12 -0.12)">
     <use transform="translate(0 0.3125)" xlink:href="#DejaVuSans-Oblique-7a"/>
     <use transform="translate(52.490234 -16.09375)scale(0.7)" xlink:href="#DejaVuSans-33"/>
    </g>
   </g>
  </g>
  <g id="axes_5">
   <g id="patch_22">
    <path d="M 48.194688 331.29625 
L 184.319687 331.29625 
L 184.319687 184.99625 
L 48.194688 184.99625 
z
" style="fill:#ffffff;"/>
   </g>
   <g id="matplotlib.axis_9">
    <g id="text_22">
     <!-- Cost scaled lag -->
     <defs>
      <path d="M 46.390625 14.59375 
Q 46.390625 10.890625 44.9375 7.984375 
Q 43.5 5.078125 40.765625 3.09375 
Q 38.03125 1.125 34.046875 0.0625 
Q 30.078125 -0.984375 24.953125 -0.984375 
Q 20.359375 -0.984375 16.671875 -0.265625 
Q 12.984375 0.4375 10.203125 2 
Q 7.421875 3.5625 5.53125 6.125 
Q 3.65625 8.6875 2.78125 12.40625 
L 10.546875 13.921875 
Q 11.671875 9.671875 15.1875 7.6875 
Q 18.703125 5.71875 24.953125 5.71875 
Q 27.78125 5.71875 30.140625 6.109375 
Q 32.515625 6.5 34.21875 7.453125 
Q 35.9375 8.40625 36.890625 9.984375 
Q 37.84375 11.578125 37.84375 13.921875 
Q 37.84375 16.3125 36.71875 17.84375 
Q 35.59375 19.390625 33.59375 20.40625 
Q 31.59375 21.4375 28.734375 22.1875 
Q 25.875 22.953125 22.46875 23.875 
Q 19.28125 24.703125 16.15625 25.734375 
Q 13.03125 26.765625 10.515625 28.4375 
Q 8.015625 30.125 6.453125 32.609375 
Q 4.890625 35.109375 4.890625 38.875 
Q 4.890625 46.09375 10.03125 49.875 
Q 15.1875 53.65625 25.046875 53.65625 
Q 33.796875 53.65625 38.9375 50.578125 
Q 44.09375 47.515625 45.453125 40.71875 
L 37.546875 39.75 
Q 37.109375 41.796875 35.9375 43.1875 
Q 34.765625 44.578125 33.109375 45.4375 
Q 31.453125 46.296875 29.375 46.65625 
Q 27.296875 47.015625 25.046875 47.015625 
Q 19.09375 47.015625 16.25 45.203125 
Q 13.421875 43.40625 13.421875 39.75 
Q 13.421875 37.59375 14.46875 36.203125 
Q 15.53125 34.8125 17.40625 33.859375 
Q 19.28125 32.90625 21.921875 32.203125 
Q 24.5625 31.5 27.734375 30.71875 
Q 29.828125 30.171875 32.03125 29.5625 
Q 34.234375 28.953125 36.296875 28.09375 
Q 38.375 27.25 40.203125 26.09375 
Q 42.046875 24.953125 43.40625 23.34375 
Q 44.78125 21.734375 45.578125 19.578125 
Q 46.390625 17.4375 46.390625 14.59375 
z
" id="LiberationSans-73"/>
      <path d="M 40.09375 8.5 
Q 37.640625 3.421875 33.609375 1.21875 
Q 29.59375 -0.984375 23.640625 -0.984375 
Q 13.625 -0.984375 8.90625 5.75 
Q 4.203125 12.5 4.203125 26.171875 
Q 4.203125 53.8125 23.640625 53.8125 
Q 29.640625 53.8125 33.640625 51.609375 
Q 37.640625 49.421875 40.09375 44.625 
L 40.1875 44.625 
Q 40.1875 45.125 40.15625 46.171875 
Q 40.140625 47.21875 40.109375 48.359375 
Q 40.09375 49.515625 40.09375 50.53125 
Q 40.09375 51.5625 40.09375 52 
L 40.09375 72.46875 
L 48.875 72.46875 
L 48.875 10.890625 
Q 48.875 8.984375 48.890625 7.21875 
Q 48.921875 5.46875 48.96875 4 
Q 49.03125 2.546875 49.078125 1.484375 
Q 49.125 0.4375 49.171875 0 
L 40.765625 0 
Q 40.671875 0.484375 40.59375 1.390625 
Q 40.53125 2.296875 40.453125 3.46875 
Q 40.375 4.640625 40.328125 5.9375 
Q 40.28125 7.234375 40.28125 8.5 
z
M 13.421875 26.46875 
Q 13.421875 21 14.109375 17.09375 
Q 14.796875 13.1875 16.3125 10.671875 
Q 17.828125 8.15625 20.171875 6.984375 
Q 22.515625 5.8125 25.875 5.8125 
Q 29.34375 5.8125 32 6.9375 
Q 34.671875 8.0625 36.453125 10.578125 
Q 38.234375 13.09375 39.15625 17.140625 
Q 40.09375 21.1875 40.09375 27.046875 
Q 40.09375 32.671875 39.15625 36.546875 
Q 38.234375 40.4375 36.421875 42.828125 
Q 34.625 45.21875 32 46.265625 
Q 29.390625 47.3125 25.984375 47.3125 
Q 22.75 47.3125 20.40625 46.1875 
Q 18.0625 45.0625 16.5 42.578125 
Q 14.9375 40.09375 14.171875 36.109375 
Q 13.421875 32.125 13.421875 26.46875 
z
" id="LiberationSans-64"/>
      <path d="M 26.765625 -20.75 
Q 22.21875 -20.75 18.703125 -19.8125 
Q 15.1875 -18.890625 12.6875 -17.15625 
Q 10.203125 -15.4375 8.640625 -13.03125 
Q 7.078125 -10.640625 6.390625 -7.71875 
L 15.234375 -6.453125 
Q 16.109375 -10.109375 19.109375 -12.078125 
Q 22.125 -14.0625 27 -14.0625 
Q 29.984375 -14.0625 32.421875 -13.234375 
Q 34.859375 -12.40625 36.5625 -10.5625 
Q 38.28125 -8.734375 39.203125 -5.796875 
Q 40.140625 -2.875 40.140625 1.3125 
L 40.140625 9.8125 
L 40.046875 9.8125 
Q 39.0625 7.8125 37.625 5.984375 
Q 36.1875 4.15625 34.109375 2.734375 
Q 32.03125 1.3125 29.296875 0.453125 
Q 26.5625 -0.390625 23.046875 -0.390625 
Q 18.015625 -0.390625 14.421875 1.296875 
Q 10.84375 2.984375 8.5625 6.34375 
Q 6.296875 9.71875 5.25 14.71875 
Q 4.203125 19.734375 4.203125 26.3125 
Q 4.203125 32.671875 5.25 37.75 
Q 6.296875 42.828125 8.65625 46.359375 
Q 11.03125 49.90625 14.8125 51.78125 
Q 18.609375 53.65625 24.03125 53.65625 
Q 29.640625 53.65625 33.765625 51.09375 
Q 37.890625 48.53125 40.140625 43.796875 
L 40.234375 43.796875 
Q 40.234375 45.015625 40.296875 46.53125 
Q 40.375 48.046875 40.453125 49.390625 
Q 40.53125 50.734375 40.625 51.703125 
Q 40.71875 52.6875 40.828125 52.828125 
L 49.171875 52.828125 
Q 49.125 52.390625 49.078125 51.34375 
Q 49.03125 50.296875 48.96875 48.828125 
Q 48.921875 47.359375 48.890625 45.578125 
Q 48.875 43.796875 48.875 41.890625 
L 48.875 1.515625 
Q 48.875 -9.578125 43.421875 -15.15625 
Q 37.984375 -20.75 26.765625 -20.75 
z
M 40.140625 26.421875 
Q 40.140625 31.9375 38.9375 35.859375 
Q 37.75 39.796875 35.796875 42.28125 
Q 33.84375 44.78125 31.328125 45.953125 
Q 28.8125 47.125 26.171875 47.125 
Q 22.796875 47.125 20.375 45.953125 
Q 17.96875 44.78125 16.375 42.265625 
Q 14.796875 39.75 14.03125 35.8125 
Q 13.28125 31.890625 13.28125 26.421875 
Q 13.28125 20.703125 14.03125 16.8125 
Q 14.796875 12.9375 16.359375 10.546875 
Q 17.921875 8.15625 20.3125 7.125 
Q 22.703125 6.109375 26.03125 6.109375 
Q 28.65625 6.109375 31.171875 7.21875 
Q 33.6875 8.34375 35.6875 10.78125 
Q 37.703125 13.234375 38.921875 17.09375 
Q 40.140625 20.953125 40.140625 26.421875 
z
" id="LiberationSans-67"/>
     </defs>
     <g style="fill:#262626;" transform="translate(78.656094 343.267812)scale(0.11 -0.11)">
      <use xlink:href="#LiberationSans-43"/>
      <use x="72.216797" xlink:href="#LiberationSans-6f"/>
      <use x="127.832031" xlink:href="#LiberationSans-73"/>
      <use x="177.832031" xlink:href="#LiberationSans-74"/>
      <use x="205.615234" xlink:href="#LiberationSans-20"/>
      <use x="233.398438" xlink:href="#LiberationSans-73"/>
      <use x="283.398438" xlink:href="#LiberationSans-63"/>
      <use x="333.398438" xlink:href="#LiberationSans-61"/>
      <use x="389.013672" xlink:href="#LiberationSans-6c"/>
      <use x="411.230469" xlink:href="#LiberationSans-65"/>
      <use x="466.845703" xlink:href="#LiberationSans-64"/>
      <use x="522.460938" xlink:href="#LiberationSans-20"/>
      <use x="550.244141" xlink:href="#LiberationSans-6c"/>
      <use x="572.460938" xlink:href="#LiberationSans-61"/>
      <use x="628.076172" xlink:href="#LiberationSans-67"/>
     </g>
    </g>
   </g>
   <g id="matplotlib.axis_10">
    <g id="ytick_17">
     <g id="line2d_37">
      <path clip-path="url(#p33c13c5723)" d="M 48.194688 331.29625 
L 184.319687 331.29625 
" style="fill:none;stroke:#cccccc;stroke-linecap:round;"/>
     </g>
     <g id="line2d_38"/>
     <g id="text_23">
      <!-- −0.4 -->
      <g style="fill:#262626;" transform="translate(21.454063 334.919688)scale(0.1 -0.1)">
       <use xlink:href="#LiberationSans-2212"/>
       <use x="58.398438" xlink:href="#LiberationSans-30"/>
       <use x="114.013672" xlink:href="#LiberationSans-2e"/>
       <use x="141.796875" xlink:href="#LiberationSans-34"/>
      </g>
     </g>
    </g>
    <g id="ytick_18">
     <g id="line2d_39">
      <path clip-path="url(#p33c13c5723)" d="M 48.194688 291.140077 
L 184.319687 291.140077 
" style="fill:none;stroke:#cccccc;stroke-linecap:round;"/>
     </g>
     <g id="line2d_40"/>
     <g id="text_24">
      <!-- 0.0 -->
      <g style="fill:#262626;" transform="translate(27.294688 294.763515)scale(0.1 -0.1)">
       <use xlink:href="#LiberationSans-30"/>
       <use x="55.615234" xlink:href="#LiberationSans-2e"/>
       <use x="83.398438" xlink:href="#LiberationSans-30"/>
      </g>
     </g>
    </g>
    <g id="ytick_19">
     <g id="line2d_41">
      <path clip-path="url(#p33c13c5723)" d="M 48.194688 250.983904 
L 184.319687 250.983904 
" style="fill:none;stroke:#cccccc;stroke-linecap:round;"/>
     </g>
     <g id="line2d_42"/>
     <g id="text_25">
      <!-- 0.4 -->
      <g style="fill:#262626;" transform="translate(27.294688 254.607342)scale(0.1 -0.1)">
       <use xlink:href="#LiberationSans-30"/>
       <use x="55.615234" xlink:href="#LiberationSans-2e"/>
       <use x="83.398438" xlink:href="#LiberationSans-34"/>
      </g>
     </g>
    </g>
    <g id="ytick_20">
     <g id="line2d_43">
      <path clip-path="url(#p33c13c5723)" d="M 48.194688 210.827731 
L 184.319687 210.827731 
" style="fill:none;stroke:#cccccc;stroke-linecap:round;"/>
     </g>
     <g id="line2d_44"/>
     <g id="text_26">
      <!-- 0.8 -->
      <g style="fill:#262626;" transform="translate(27.294688 214.451169)scale(0.1 -0.1)">
       <use xlink:href="#LiberationSans-30"/>
       <use x="55.615234" xlink:href="#LiberationSans-2e"/>
       <use x="83.398438" xlink:href="#LiberationSans-38"/>
      </g>
     </g>
    </g>
    <g id="text_27">
     <!-- ABC autocorrelation -->
     <defs>
      <path d="M 56.984375 0 
L 49.125 20.125 
L 17.78125 20.125 
L 9.859375 0 
L 0.203125 0 
L 28.265625 68.796875 
L 38.875 68.796875 
L 66.5 0 
z
M 37.5 50.09375 
Q 36.71875 52.046875 36 54.046875 
Q 35.296875 56.0625 34.765625 57.6875 
Q 34.234375 59.328125 33.859375 60.421875 
Q 33.5 61.53125 33.453125 61.765625 
Q 33.34375 61.53125 33 60.40625 
Q 32.671875 59.28125 32.109375 57.609375 
Q 31.546875 55.953125 30.828125 53.953125 
Q 30.125 51.953125 29.390625 50 
L 20.609375 27.390625 
L 46.34375 27.390625 
z
" id="LiberationSans-41"/>
      <path d="M 61.421875 19.390625 
Q 61.421875 14.15625 59.375 10.46875 
Q 57.328125 6.78125 53.859375 4.46875 
Q 50.390625 2.15625 45.796875 1.078125 
Q 41.21875 0 36.140625 0 
L 8.203125 0 
L 8.203125 68.796875 
L 33.203125 68.796875 
Q 38.921875 68.796875 43.40625 67.84375 
Q 47.90625 66.890625 51.03125 64.84375 
Q 54.15625 62.796875 55.78125 59.640625 
Q 57.421875 56.5 57.421875 52.09375 
Q 57.421875 49.21875 56.609375 46.671875 
Q 55.8125 44.140625 54.171875 42.0625 
Q 52.546875 39.984375 50.078125 38.5 
Q 47.609375 37.015625 44.34375 36.28125 
Q 48.484375 35.796875 51.6875 34.375 
Q 54.890625 32.953125 57.03125 30.75 
Q 59.1875 28.5625 60.296875 25.65625 
Q 61.421875 22.75 61.421875 19.390625 
z
M 48.046875 50.984375 
Q 48.046875 56.546875 44.234375 58.9375 
Q 40.4375 61.328125 33.203125 61.328125 
L 17.53125 61.328125 
L 17.53125 39.546875 
L 33.203125 39.546875 
Q 37.3125 39.546875 40.140625 40.34375 
Q 42.96875 41.15625 44.71875 42.640625 
Q 46.484375 44.140625 47.265625 46.234375 
Q 48.046875 48.34375 48.046875 50.984375 
z
M 52 20.125 
Q 52 23.390625 50.796875 25.6875 
Q 49.609375 27.984375 47.359375 29.4375 
Q 45.125 30.90625 41.96875 31.59375 
Q 38.8125 32.28125 34.90625 32.28125 
L 17.53125 32.28125 
L 17.53125 7.46875 
L 35.640625 7.46875 
Q 39.203125 7.46875 42.203125 8.046875 
Q 45.21875 8.640625 47.390625 10.109375 
Q 49.5625 11.578125 50.78125 14.015625 
Q 52 16.453125 52 20.125 
z
" id="LiberationSans-42"/>
     </defs>
     <g style="fill:#262626;" transform="translate(15.171563 307.364375)rotate(-90)scale(0.11 -0.11)">
      <use xlink:href="#LiberationSans-41"/>
      <use x="66.699219" xlink:href="#LiberationSans-42"/>
      <use x="133.398438" xlink:href="#LiberationSans-43"/>
      <use x="205.615234" xlink:href="#LiberationSans-20"/>
      <use x="233.398438" xlink:href="#LiberationSans-61"/>
      <use x="289.013672" xlink:href="#LiberationSans-75"/>
      <use x="344.628906" xlink:href="#LiberationSans-74"/>
      <use x="372.412109" xlink:href="#LiberationSans-6f"/>
      <use x="428.027344" xlink:href="#LiberationSans-63"/>
      <use x="478.027344" xlink:href="#LiberationSans-6f"/>
      <use x="533.642578" xlink:href="#LiberationSans-72"/>
      <use x="566.943359" xlink:href="#LiberationSans-72"/>
      <use x="600.244141" xlink:href="#LiberationSans-65"/>
      <use x="655.859375" xlink:href="#LiberationSans-6c"/>
      <use x="678.076172" xlink:href="#LiberationSans-61"/>
      <use x="733.691406" xlink:href="#LiberationSans-74"/>
      <use x="761.474609" xlink:href="#LiberationSans-69"/>
      <use x="783.691406" xlink:href="#LiberationSans-6f"/>
      <use x="839.306641" xlink:href="#LiberationSans-6e"/>
     </g>
    </g>
   </g>
   <g id="line2d_45">
    <path clip-path="url(#p33c13c5723)" d="M 54.382188 190.749645 
L 55.632188 284.401011 
L 56.882188 292.763526 
L 58.132188 295.841458 
L 59.382188 287.002113 
L 60.632188 293.410773 
L 61.882188 287.926472 
L 63.132188 285.111949 
L 64.382188 290.625786 
L 65.632188 290.478523 
L 66.882188 290.072754 
L 68.132188 282.987474 
L 69.382188 299.152635 
L 70.632188 301.887353 
L 71.882188 300.872115 
L 73.132188 302.909838 
L 74.382188 301.797227 
L 75.632188 287.523171 
L 76.882188 279.075245 
L 78.132188 278.187326 
L 79.382188 285.224751 
L 80.632188 292.532329 
L 81.882188 305.673177 
L 83.132188 291.819476 
L 84.382188 295.254991 
L 85.632188 288.229317 
L 86.882188 294.365557 
L 88.132188 295.834568 
L 89.382188 294.909373 
L 90.632188 294.495644 
L 91.882188 291.167399 
L 93.132188 292.176455 
L 94.382188 294.223379 
L 95.632188 298.568691 
L 96.882188 302.767553 
L 98.132188 295.310919 
L 99.382188 293.574368 
L 100.632188 280.525439 
L 101.882188 283.801555 
L 103.132188 287.048517 
L 104.382188 285.922111 
L 105.632188 289.79106 
L 106.882188 298.542876 
L 108.132188 293.216522 
L 109.382188 285.154156 
L 110.632188 285.102411 
L 111.882188 295.670653 
L 113.132188 304.184225 
L 114.382187 291.93828 
L 115.632187 286.594331 
L 116.882187 282.249006 
L 118.132187 291.706922 
L 119.382187 282.937864 
L 120.632187 293.579603 
L 121.882187 295.236077 
L 123.132187 296.494793 
L 124.382187 286.964771 
L 125.632187 291.819518 
L 126.882187 282.758916 
L 128.132187 292.953334 
L 129.382187 289.792873 
L 130.632187 293.087101 
L 131.882187 290.189334 
L 133.132187 298.547062 
L 134.382187 292.790992 
L 135.632187 301.294547 
L 136.882187 303.651362 
L 138.132187 299.825277 
L 139.382187 291.853987 
L 140.632187 286.465293 
L 141.882187 288.345999 
L 143.132187 300.388778 
L 144.382187 296.012346 
L 145.632187 295.835155 
L 146.882187 296.502655 
L 148.132187 291.564521 
L 149.382187 282.844377 
L 150.632187 281.639121 
L 151.882187 279.250244 
L 153.132187 282.763188 
L 154.382187 289.229831 
L 155.632187 289.229309 
L 156.882187 281.558691 
L 158.132187 288.404442 
L 159.382187 291.993121 
L 160.632187 294.074519 
L 161.882187 287.895962 
L 163.132187 292.782109 
L 164.382187 291.820258 
L 165.632187 286.040874 
L 166.882187 288.297239 
L 168.132187 289.930927 
L 169.382187 305.817537 
L 170.632187 294.561985 
L 171.882187 289.981701 
L 173.132187 297.374887 
L 174.382187 277.862277 
L 175.632187 287.482 
L 176.882187 287.930597 
L 178.132187 291.748924 
" style="fill:none;stroke:#4c72b0;stroke-linecap:round;stroke-width:1.75;"/>
   </g>
   <g id="patch_23">
    <path d="M 48.194688 331.29625 
L 48.194688 184.99625 
" style="fill:none;stroke:#cccccc;stroke-linecap:square;stroke-linejoin:miter;"/>
   </g>
   <g id="patch_24">
    <path d="M 184.319687 331.29625 
L 184.319687 184.99625 
" style="fill:none;stroke:#cccccc;stroke-linecap:square;stroke-linejoin:miter;"/>
   </g>
   <g id="patch_25">
    <path d="M 48.194688 331.29625 
L 184.319687 331.29625 
" style="fill:none;stroke:#cccccc;stroke-linecap:square;stroke-linejoin:miter;"/>
   </g>
   <g id="patch_26">
    <path d="M 48.194688 184.99625 
L 184.319687 184.99625 
" style="fill:none;stroke:#cccccc;stroke-linecap:square;stroke-linejoin:miter;"/>
   </g>
  </g>
  <g id="axes_6">
   <g id="patch_27">
    <path d="M 221.994687 331.29625 
L 358.119688 331.29625 
L 358.119688 184.99625 
L 221.994687 184.99625 
z
" style="fill:#ffffff;"/>
   </g>
   <g id="matplotlib.axis_11">
    <g id="text_28">
     <!-- Cost scaled lag -->
     <g style="fill:#262626;" transform="translate(252.456094 343.267812)scale(0.11 -0.11)">
      <use xlink:href="#LiberationSans-43"/>
      <use x="72.216797" xlink:href="#LiberationSans-6f"/>
      <use x="127.832031" xlink:href="#LiberationSans-73"/>
      <use x="177.832031" xlink:href="#LiberationSans-74"/>
      <use x="205.615234" xlink:href="#LiberationSans-20"/>
      <use x="233.398438" xlink:href="#LiberationSans-73"/>
      <use x="283.398438" xlink:href="#LiberationSans-63"/>
      <use x="333.398438" xlink:href="#LiberationSans-61"/>
      <use x="389.013672" xlink:href="#LiberationSans-6c"/>
      <use x="411.230469" xlink:href="#LiberationSans-65"/>
      <use x="466.845703" xlink:href="#LiberationSans-64"/>
      <use x="522.460938" xlink:href="#LiberationSans-20"/>
      <use x="550.244141" xlink:href="#LiberationSans-6c"/>
      <use x="572.460938" xlink:href="#LiberationSans-61"/>
      <use x="628.076172" xlink:href="#LiberationSans-67"/>
     </g>
    </g>
   </g>
   <g id="matplotlib.axis_12">
    <g id="ytick_21">
     <g id="line2d_46">
      <path clip-path="url(#pf344a23ef6)" d="M 221.994687 331.29625 
L 358.119688 331.29625 
" style="fill:none;stroke:#cccccc;stroke-linecap:round;"/>
     </g>
     <g id="line2d_47"/>
     <g id="text_29">
      <!-- −0.4 -->
      <g style="fill:#262626;" transform="translate(195.254063 334.919688)scale(0.1 -0.1)">
       <use xlink:href="#LiberationSans-2212"/>
       <use x="58.398438" xlink:href="#LiberationSans-30"/>
       <use x="114.013672" xlink:href="#LiberationSans-2e"/>
       <use x="141.796875" xlink:href="#LiberationSans-34"/>
      </g>
     </g>
    </g>
    <g id="ytick_22">
     <g id="line2d_48">
      <path clip-path="url(#pf344a23ef6)" d="M 221.994687 291.172657 
L 358.119688 291.172657 
" style="fill:none;stroke:#cccccc;stroke-linecap:round;"/>
     </g>
     <g id="line2d_49"/>
     <g id="text_30">
      <!-- 0.0 -->
      <g style="fill:#262626;" transform="translate(201.094687 294.796095)scale(0.1 -0.1)">
       <use xlink:href="#LiberationSans-30"/>
       <use x="55.615234" xlink:href="#LiberationSans-2e"/>
       <use x="83.398438" xlink:href="#LiberationSans-30"/>
      </g>
     </g>
    </g>
    <g id="ytick_23">
     <g id="line2d_50">
      <path clip-path="url(#pf344a23ef6)" d="M 221.994687 251.049065 
L 358.119688 251.049065 
" style="fill:none;stroke:#cccccc;stroke-linecap:round;"/>
     </g>
     <g id="line2d_51"/>
     <g id="text_31">
      <!-- 0.4 -->
      <g style="fill:#262626;" transform="translate(201.094687 254.672502)scale(0.1 -0.1)">
       <use xlink:href="#LiberationSans-30"/>
       <use x="55.615234" xlink:href="#LiberationSans-2e"/>
       <use x="83.398438" xlink:href="#LiberationSans-34"/>
      </g>
     </g>
    </g>
    <g id="ytick_24">
     <g id="line2d_52">
      <path clip-path="url(#pf344a23ef6)" d="M 221.994687 210.925472 
L 358.119688 210.925472 
" style="fill:none;stroke:#cccccc;stroke-linecap:round;"/>
     </g>
     <g id="line2d_53"/>
     <g id="text_32">
      <!-- 0.8 -->
      <g style="fill:#262626;" transform="translate(201.094687 214.548909)scale(0.1 -0.1)">
       <use xlink:href="#LiberationSans-30"/>
       <use x="55.615234" xlink:href="#LiberationSans-2e"/>
       <use x="83.398438" xlink:href="#LiberationSans-38"/>
      </g>
     </g>
    </g>
   </g>
   <g id="line2d_54">
    <path clip-path="url(#pf344a23ef6)" d="M 228.182187 190.863675 
L 229.432187 197.985198 
L 230.682187 203.360637 
L 231.932187 208.888727 
L 233.182187 213.812828 
L 234.432187 218.481465 
L 235.682187 222.601122 
L 236.932187 226.629355 
L 238.182187 230.259262 
L 239.432187 233.702646 
L 240.682187 236.890161 
L 241.932187 239.905357 
L 243.182187 242.106165 
L 244.432187 243.929113 
L 245.682187 245.818166 
L 246.932187 248.275648 
L 248.182187 251.959533 
L 249.432187 256.004534 
L 250.682187 260.116826 
L 251.932187 264.335987 
L 253.182187 268.381416 
L 254.432187 272.241342 
L 255.682187 275.224741 
L 256.932187 277.031695 
L 258.182187 278.56247 
L 259.432187 279.555867 
L 260.682187 281.090261 
L 261.932187 282.826803 
L 263.182187 283.645433 
L 264.432187 284.211307 
L 265.682187 284.765363 
L 266.932187 285.189439 
L 268.182187 285.450365 
L 269.432187 285.286895 
L 270.682187 285.518931 
L 271.932187 286.271007 
L 273.182187 286.396572 
L 274.432187 286.431758 
L 275.682187 286.034791 
L 276.932187 285.697231 
L 278.182187 285.803118 
L 279.432187 285.466139 
L 280.682187 284.544136 
L 281.932187 282.94317 
L 283.182187 280.989823 
L 284.432187 279.047735 
L 285.682187 276.820841 
L 286.932187 274.730769 
L 288.182187 272.662023 
L 289.432187 271.386334 
L 290.682187 271.135695 
L 291.932187 271.226784 
L 293.182188 271.564292 
L 294.432188 272.152904 
L 295.682188 272.792045 
L 296.932188 273.706015 
L 298.182188 275.184322 
L 299.432188 275.979068 
L 300.682188 276.492516 
L 301.932188 276.668543 
L 303.182188 277.120854 
L 304.432188 277.40883 
L 305.682188 277.218043 
L 306.932188 277.319171 
L 308.182188 277.749188 
L 309.432188 278.771238 
L 310.682188 280.216173 
L 311.932188 281.954498 
L 313.182188 284.050875 
L 314.432188 286.388671 
L 315.682188 288.439039 
L 316.932188 289.963823 
L 318.182188 290.985438 
L 319.432188 291.762912 
L 320.682188 292.186739 
L 321.932188 292.579299 
L 323.182188 292.845685 
L 324.432188 292.872115 
L 325.682188 292.825303 
L 326.932188 293.327831 
L 328.182188 294.102428 
L 329.432188 294.62236 
L 330.682188 295.006212 
L 331.932188 295.509313 
L 333.182188 296.302727 
L 334.432188 297.281034 
L 335.682188 298.389351 
L 336.932188 299.452658 
L 338.182188 300.332797 
L 339.432188 301.361752 
L 340.682188 302.550873 
L 341.932188 303.265385 
L 343.182188 303.49786 
L 344.432188 303.546069 
L 345.682188 303.729093 
L 346.932188 304.560331 
L 348.182188 305.305201 
L 349.432188 305.901236 
L 350.682188 306.93508 
L 351.932188 308.212185 
" style="fill:none;stroke:#4c72b0;stroke-linecap:round;stroke-width:1.75;"/>
   </g>
   <g id="patch_28">
    <path d="M 221.994687 331.29625 
L 221.994687 184.99625 
" style="fill:none;stroke:#cccccc;stroke-linecap:square;stroke-linejoin:miter;"/>
   </g>
   <g id="patch_29">
    <path d="M 358.119688 331.29625 
L 358.119688 184.99625 
" style="fill:none;stroke:#cccccc;stroke-linecap:square;stroke-linejoin:miter;"/>
   </g>
   <g id="patch_30">
    <path d="M 221.994687 331.29625 
L 358.119688 331.29625 
" style="fill:none;stroke:#cccccc;stroke-linecap:square;stroke-linejoin:miter;"/>
   </g>
   <g id="patch_31">
    <path d="M 221.994687 184.99625 
L 358.119688 184.99625 
" style="fill:none;stroke:#cccccc;stroke-linecap:square;stroke-linejoin:miter;"/>
   </g>
  </g>
  <g id="axes_7">
   <g id="patch_32">
    <path d="M 395.794688 331.29625 
L 531.919688 331.29625 
L 531.919688 184.99625 
L 395.794688 184.99625 
z
" style="fill:#ffffff;"/>
   </g>
   <g id="matplotlib.axis_13">
    <g id="text_33">
     <!-- Cost scaled lag -->
     <g style="fill:#262626;" transform="translate(426.256094 343.267812)scale(0.11 -0.11)">
      <use xlink:href="#LiberationSans-43"/>
      <use x="72.216797" xlink:href="#LiberationSans-6f"/>
      <use x="127.832031" xlink:href="#LiberationSans-73"/>
      <use x="177.832031" xlink:href="#LiberationSans-74"/>
      <use x="205.615234" xlink:href="#LiberationSans-20"/>
      <use x="233.398438" xlink:href="#LiberationSans-73"/>
      <use x="283.398438" xlink:href="#LiberationSans-63"/>
      <use x="333.398438" xlink:href="#LiberationSans-61"/>
      <use x="389.013672" xlink:href="#LiberationSans-6c"/>
      <use x="411.230469" xlink:href="#LiberationSans-65"/>
      <use x="466.845703" xlink:href="#LiberationSans-64"/>
      <use x="522.460938" xlink:href="#LiberationSans-20"/>
      <use x="550.244141" xlink:href="#LiberationSans-6c"/>
      <use x="572.460938" xlink:href="#LiberationSans-61"/>
      <use x="628.076172" xlink:href="#LiberationSans-67"/>
     </g>
    </g>
   </g>
   <g id="matplotlib.axis_14">
    <g id="ytick_25">
     <g id="line2d_55">
      <path clip-path="url(#pff73cb58ea)" d="M 395.794688 331.29625 
L 531.919688 331.29625 
" style="fill:none;stroke:#cccccc;stroke-linecap:round;"/>
     </g>
     <g id="line2d_56"/>
     <g id="text_34">
      <!-- −0.4 -->
      <g style="fill:#262626;" transform="translate(369.054062 334.919688)scale(0.1 -0.1)">
       <use xlink:href="#LiberationSans-2212"/>
       <use x="58.398438" xlink:href="#LiberationSans-30"/>
       <use x="114.013672" xlink:href="#LiberationSans-2e"/>
       <use x="141.796875" xlink:href="#LiberationSans-34"/>
      </g>
     </g>
    </g>
    <g id="ytick_26">
     <g id="line2d_57">
      <path clip-path="url(#pff73cb58ea)" d="M 395.794688 291.077212 
L 531.919688 291.077212 
" style="fill:none;stroke:#cccccc;stroke-linecap:round;"/>
     </g>
     <g id="line2d_58"/>
     <g id="text_35">
      <!-- 0.0 -->
      <g style="fill:#262626;" transform="translate(374.894688 294.70065)scale(0.1 -0.1)">
       <use xlink:href="#LiberationSans-30"/>
       <use x="55.615234" xlink:href="#LiberationSans-2e"/>
       <use x="83.398438" xlink:href="#LiberationSans-30"/>
      </g>
     </g>
    </g>
    <g id="ytick_27">
     <g id="line2d_59">
      <path clip-path="url(#pff73cb58ea)" d="M 395.794688 250.858174 
L 531.919688 250.858174 
" style="fill:none;stroke:#cccccc;stroke-linecap:round;"/>
     </g>
     <g id="line2d_60"/>
     <g id="text_36">
      <!-- 0.4 -->
      <g style="fill:#262626;" transform="translate(374.894688 254.481612)scale(0.1 -0.1)">
       <use xlink:href="#LiberationSans-30"/>
       <use x="55.615234" xlink:href="#LiberationSans-2e"/>
       <use x="83.398438" xlink:href="#LiberationSans-34"/>
      </g>
     </g>
    </g>
    <g id="ytick_28">
     <g id="line2d_61">
      <path clip-path="url(#pff73cb58ea)" d="M 395.794688 210.639136 
L 531.919688 210.639136 
" style="fill:none;stroke:#cccccc;stroke-linecap:round;"/>
     </g>
     <g id="line2d_62"/>
     <g id="text_37">
      <!-- 0.8 -->
      <g style="fill:#262626;" transform="translate(374.894688 214.262574)scale(0.1 -0.1)">
       <use xlink:href="#LiberationSans-30"/>
       <use x="55.615234" xlink:href="#LiberationSans-2e"/>
       <use x="83.398438" xlink:href="#LiberationSans-38"/>
      </g>
     </g>
    </g>
   </g>
   <g id="line2d_63">
    <path clip-path="url(#pff73cb58ea)" d="M 401.982188 190.529617 
L 403.232188 248.172035 
L 404.482188 256.286366 
L 405.732188 262.214182 
L 406.982188 257.520375 
L 408.232188 260.294772 
L 409.482188 259.562525 
L 410.732188 260.117835 
L 411.982188 265.331242 
L 413.232188 267.248538 
L 414.482188 269.483493 
L 415.732188 269.630179 
L 416.982188 276.615139 
L 418.232188 275.335151 
L 419.482188 273.386184 
L 420.732188 273.956945 
L 421.982188 277.747234 
L 423.232188 271.702045 
L 424.482188 270.883338 
L 425.732188 271.118064 
L 426.982188 278.195242 
L 428.232188 285.289139 
L 429.482188 290.881979 
L 430.732188 288.27064 
L 431.982188 288.882151 
L 433.232188 286.843552 
L 434.482188 291.895284 
L 435.732188 294.385374 
L 436.982188 294.114954 
L 438.232188 297.118381 
L 439.482188 292.392728 
L 440.732188 291.032147 
L 441.982188 291.867976 
L 443.232188 291.842475 
L 444.482188 296.079615 
L 445.732188 294.954149 
L 446.982188 292.481746 
L 448.232188 288.452806 
L 449.482188 285.401859 
L 450.732188 289.421868 
L 451.982188 293.203862 
L 453.232188 296.563419 
L 454.482188 298.288252 
L 455.732188 294.329762 
L 456.982188 291.458331 
L 458.232188 287.998241 
L 459.482188 295.237051 
L 460.732188 296.201716 
L 461.982188 288.194885 
L 463.232188 289.115677 
L 464.482188 287.534575 
L 465.732188 291.629376 
L 466.982188 287.267571 
L 468.232188 288.228159 
L 469.482188 290.617307 
L 470.732188 286.873329 
L 471.982188 281.88507 
L 473.232188 283.166077 
L 474.482188 279.97801 
L 475.732188 286.467049 
L 476.982188 284.739615 
L 478.232188 286.933467 
L 479.482188 282.228991 
L 480.732188 284.757556 
L 481.982188 283.461891 
L 483.232188 290.380759 
L 484.482188 293.570011 
L 485.732188 289.273789 
L 486.982188 285.866832 
L 488.232188 282.813277 
L 489.482188 284.302099 
L 490.732188 286.791673 
L 491.982188 286.737011 
L 493.232188 287.993908 
L 494.482188 290.854604 
L 495.732188 287.409653 
L 496.982188 280.500076 
L 498.232188 280.995603 
L 499.482188 279.018523 
L 500.732188 282.072974 
L 501.982188 285.598806 
L 503.232188 283.197548 
L 504.482188 282.469084 
L 505.732188 287.580742 
L 506.982188 291.431753 
L 508.232188 291.532844 
L 509.482188 290.015641 
L 510.732188 293.389654 
L 511.982188 293.714683 
L 513.232188 291.155649 
L 514.482188 294.157395 
L 515.732188 293.715291 
L 516.982188 301.196962 
L 518.232188 297.311216 
L 519.482188 294.603912 
L 520.732188 295.498085 
L 521.982188 285.20921 
L 523.232188 289.781474 
L 524.482188 293.552415 
L 525.732188 299.226534 
" style="fill:none;stroke:#4c72b0;stroke-linecap:round;stroke-width:1.75;"/>
   </g>
   <g id="patch_33">
    <path d="M 395.794688 331.29625 
L 395.794688 184.99625 
" style="fill:none;stroke:#cccccc;stroke-linecap:square;stroke-linejoin:miter;"/>
   </g>
   <g id="patch_34">
    <path d="M 531.919688 331.29625 
L 531.919688 184.99625 
" style="fill:none;stroke:#cccccc;stroke-linecap:square;stroke-linejoin:miter;"/>
   </g>
   <g id="patch_35">
    <path d="M 395.794688 331.29625 
L 531.919688 331.29625 
" style="fill:none;stroke:#cccccc;stroke-linecap:square;stroke-linejoin:miter;"/>
   </g>
   <g id="patch_36">
    <path d="M 395.794688 184.99625 
L 531.919688 184.99625 
" style="fill:none;stroke:#cccccc;stroke-linecap:square;stroke-linejoin:miter;"/>
   </g>
  </g>
  <g id="axes_8">
   <g id="patch_37">
    <path d="M 569.594687 331.29625 
L 705.719688 331.29625 
L 705.719688 184.99625 
L 569.594687 184.99625 
z
" style="fill:#ffffff;"/>
   </g>
   <g id="matplotlib.axis_15">
    <g id="text_38">
     <!-- Cost scaled lag -->
     <g style="fill:#262626;" transform="translate(600.056094 343.267812)scale(0.11 -0.11)">
      <use xlink:href="#LiberationSans-43"/>
      <use x="72.216797" xlink:href="#LiberationSans-6f"/>
      <use x="127.832031" xlink:href="#LiberationSans-73"/>
      <use x="177.832031" xlink:href="#LiberationSans-74"/>
      <use x="205.615234" xlink:href="#LiberationSans-20"/>
      <use x="233.398438" xlink:href="#LiberationSans-73"/>
      <use x="283.398438" xlink:href="#LiberationSans-63"/>
      <use x="333.398438" xlink:href="#LiberationSans-61"/>
      <use x="389.013672" xlink:href="#LiberationSans-6c"/>
      <use x="411.230469" xlink:href="#LiberationSans-65"/>
      <use x="466.845703" xlink:href="#LiberationSans-64"/>
      <use x="522.460938" xlink:href="#LiberationSans-20"/>
      <use x="550.244141" xlink:href="#LiberationSans-6c"/>
      <use x="572.460938" xlink:href="#LiberationSans-61"/>
      <use x="628.076172" xlink:href="#LiberationSans-67"/>
     </g>
    </g>
   </g>
   <g id="matplotlib.axis_16">
    <g id="ytick_29">
     <g id="line2d_64">
      <path clip-path="url(#p1166178405)" d="M 569.594687 331.29625 
L 705.719688 331.29625 
" style="fill:none;stroke:#cccccc;stroke-linecap:round;"/>
     </g>
     <g id="line2d_65"/>
     <g id="text_39">
      <!-- −0.4 -->
      <g style="fill:#262626;" transform="translate(542.854062 334.919688)scale(0.1 -0.1)">
       <use xlink:href="#LiberationSans-2212"/>
       <use x="58.398438" xlink:href="#LiberationSans-30"/>
       <use x="114.013672" xlink:href="#LiberationSans-2e"/>
       <use x="141.796875" xlink:href="#LiberationSans-34"/>
      </g>
     </g>
    </g>
    <g id="ytick_30">
     <g id="line2d_66">
      <path clip-path="url(#p1166178405)" d="M 569.594687 291.175867 
L 705.719688 291.175867 
" style="fill:none;stroke:#cccccc;stroke-linecap:round;"/>
     </g>
     <g id="line2d_67"/>
     <g id="text_40">
      <!-- 0.0 -->
      <g style="fill:#262626;" transform="translate(548.694687 294.799304)scale(0.1 -0.1)">
       <use xlink:href="#LiberationSans-30"/>
       <use x="55.615234" xlink:href="#LiberationSans-2e"/>
       <use x="83.398438" xlink:href="#LiberationSans-30"/>
      </g>
     </g>
    </g>
    <g id="ytick_31">
     <g id="line2d_68">
      <path clip-path="url(#p1166178405)" d="M 569.594687 251.055483 
L 705.719688 251.055483 
" style="fill:none;stroke:#cccccc;stroke-linecap:round;"/>
     </g>
     <g id="line2d_69"/>
     <g id="text_41">
      <!-- 0.4 -->
      <g style="fill:#262626;" transform="translate(548.694687 254.678921)scale(0.1 -0.1)">
       <use xlink:href="#LiberationSans-30"/>
       <use x="55.615234" xlink:href="#LiberationSans-2e"/>
       <use x="83.398438" xlink:href="#LiberationSans-34"/>
      </g>
     </g>
    </g>
    <g id="ytick_32">
     <g id="line2d_70">
      <path clip-path="url(#p1166178405)" d="M 569.594687 210.9351 
L 705.719688 210.9351 
" style="fill:none;stroke:#cccccc;stroke-linecap:round;"/>
     </g>
     <g id="line2d_71"/>
     <g id="text_42">
      <!-- 0.8 -->
      <g style="fill:#262626;" transform="translate(548.694687 214.558537)scale(0.1 -0.1)">
       <use xlink:href="#LiberationSans-30"/>
       <use x="55.615234" xlink:href="#LiberationSans-2e"/>
       <use x="83.398438" xlink:href="#LiberationSans-38"/>
      </g>
     </g>
    </g>
   </g>
   <g id="line2d_72">
    <path clip-path="url(#p1166178405)" d="M 575.782187 190.874908 
L 577.032187 265.565167 
L 578.282187 283.622965 
L 579.532187 290.649539 
L 580.782187 283.095361 
L 582.032187 280.471307 
L 583.282187 278.097218 
L 584.532187 280.057615 
L 585.782187 286.697149 
L 587.032187 297.530255 
L 588.282187 302.120719 
L 589.532187 295.51666 
L 590.782187 283.846897 
L 592.032187 276.257583 
L 593.282187 277.520184 
L 594.532187 287.337993 
L 595.782187 289.516674 
L 597.032187 278.192594 
L 598.282187 280.177266 
L 599.532187 286.465494 
L 600.782187 292.81236 
L 602.032187 300.609434 
L 603.282187 301.351535 
L 604.532187 299.492736 
L 605.782187 304.658574 
L 607.032187 308.448064 
L 608.282187 300.856608 
L 609.532187 298.428967 
L 610.782187 300.021362 
L 612.032187 303.69182 
L 613.282187 305.549318 
L 614.532187 294.545135 
L 615.782187 289.484802 
L 617.032187 296.380827 
L 618.282187 295.991922 
L 619.532187 298.804101 
L 620.782187 302.768374 
L 622.032187 303.073603 
L 623.282187 302.543818 
L 624.532187 296.227756 
L 625.782187 290.955958 
L 627.032187 296.29274 
L 628.282187 300.701107 
L 629.532187 303.517086 
L 630.782187 296.856664 
L 632.032187 291.715254 
L 633.282187 291.839264 
L 634.532187 293.033127 
L 635.782187 292.298449 
L 637.032187 290.135629 
L 638.282187 291.921781 
L 639.532187 297.021542 
L 640.782187 291.199562 
L 642.032187 290.220214 
L 643.282187 294.092505 
L 644.532187 298.367805 
L 645.782187 293.519781 
L 647.032187 284.746867 
L 648.282188 284.113872 
L 649.532188 288.98748 
L 650.782188 291.451119 
L 652.032188 293.937246 
L 653.282188 297.095761 
L 654.532188 295.485872 
L 655.782188 288.503806 
L 657.032188 286.162098 
L 658.282188 289.548354 
L 659.532188 289.161166 
L 660.782188 289.883209 
L 662.032188 292.023232 
L 663.282188 290.451139 
L 664.532188 282.749095 
L 665.782188 274.268829 
L 667.032188 285.933661 
L 668.282188 285.044519 
L 669.532188 290.995831 
L 670.782188 293.793858 
L 672.032188 288.416751 
L 673.282188 291.170014 
L 674.532188 291.065713 
L 675.782188 288.355885 
L 677.032188 288.935349 
L 678.282188 291.513613 
L 679.532188 294.742483 
L 680.782188 293.346058 
L 682.032188 288.806416 
L 683.282188 287.458312 
L 684.532188 286.915853 
L 685.782188 284.366303 
L 687.032188 278.601703 
L 688.282188 281.519441 
L 689.532188 288.80644 
L 690.782188 287.337037 
L 692.032188 290.056372 
L 693.282188 286.331998 
L 694.532188 289.458232 
L 695.782188 291.950151 
L 697.032188 291.466228 
L 698.282188 290.044605 
L 699.532188 293.388519 
" style="fill:none;stroke:#4c72b0;stroke-linecap:round;stroke-width:1.75;"/>
   </g>
   <g id="patch_38">
    <path d="M 569.594687 331.29625 
L 569.594687 184.99625 
" style="fill:none;stroke:#cccccc;stroke-linecap:square;stroke-linejoin:miter;"/>
   </g>
   <g id="patch_39">
    <path d="M 705.719688 331.29625 
L 705.719688 184.99625 
" style="fill:none;stroke:#cccccc;stroke-linecap:square;stroke-linejoin:miter;"/>
   </g>
   <g id="patch_40">
    <path d="M 569.594687 331.29625 
L 705.719688 331.29625 
" style="fill:none;stroke:#cccccc;stroke-linecap:square;stroke-linejoin:miter;"/>
   </g>
   <g id="patch_41">
    <path d="M 569.594687 184.99625 
L 705.719688 184.99625 
" style="fill:none;stroke:#cccccc;stroke-linecap:square;stroke-linejoin:miter;"/>
   </g>
  </g>
 </g>
 <defs>
  <clipPath id="pcac37c4837">
   <rect height="146.3" width="136.125" x="48.194688" y="21.89625"/>
  </clipPath>
  <clipPath id="pb72b9b8107">
   <rect height="146.3" width="136.125" x="221.994687" y="21.89625"/>
  </clipPath>
  <clipPath id="pcb4aa0e822">
   <rect height="146.3" width="136.125" x="395.794688" y="21.89625"/>
  </clipPath>
  <clipPath id="pebeae0b31a">
   <rect height="146.3" width="136.125" x="569.594687" y="21.89625"/>
  </clipPath>
  <clipPath id="p33c13c5723">
   <rect height="146.3" width="136.125" x="48.194688" y="184.99625"/>
  </clipPath>
  <clipPath id="pf344a23ef6">
   <rect height="146.3" width="136.125" x="221.994687" y="184.99625"/>
  </clipPath>
  <clipPath id="pff73cb58ea">
   <rect height="146.3" width="136.125" x="395.794688" y="184.99625"/>
  </clipPath>
  <clipPath id="p1166178405">
   <rect height="146.3" width="136.125" x="569.594687" y="184.99625"/>
  </clipPath>
 </defs>
</svg>
