<?xml version="1.0" encoding="utf-8" standalone="no"?>
<!DOCTYPE svg PUBLIC "-//W3C//DTD SVG 1.1//EN"
  "http://www.w3.org/Graphics/SVG/1.1/DTD/svg11.dtd">
<!-- Created with matplotlib (http://matplotlib.org/) -->
<svg height="288pt" version="1.1" viewBox="0 0 288 288" width="288pt" xmlns="http://www.w3.org/2000/svg" xmlns:xlink="http://www.w3.org/1999/xlink">
 <defs>
  <style type="text/css">
*{stroke-linecap:butt;stroke-linejoin:round;}
  </style>
 </defs>
 <g id="figure_1">
  <g id="patch_1">
   <path d="M 0 288 
L 288 288 
L 288 0 
L 0 0 
z
" style="fill:#ffffff;"/>
  </g>
  <g id="axes_1">
   <g id="patch_2">
    <path d="M 14.3 273.7 
L 273.7 273.7 
L 273.7 14.3 
L 14.3 14.3 
z
" style="fill:#ffffff;"/>
   </g>
   <g id="matplotlib.axis_1"/>
   <g id="matplotlib.axis_2"/>
   <g id="line2d_1">
    <defs>
     <path d="M 0 1.5 
C 0.397805 1.5 0.77937 1.341951 1.06066 1.06066 
C 1.341951 0.77937 1.5 0.397805 1.5 0 
C 1.5 -0.397805 1.341951 -0.77937 1.06066 -1.06066 
C 0.77937 -1.341951 0.397805 -1.5 0 -1.5 
C -0.397805 -1.5 -0.77937 -1.341951 -1.06066 -1.06066 
C -1.341951 -0.77937 -1.5 -0.397805 -1.5 0 
C -1.5 0.397805 -1.341951 0.77937 -1.06066 1.06066 
C -0.77937 1.341951 -0.397805 1.5 0 1.5 
z
" id="m3e91e45ee8" style="stroke:#ff0000;"/>
    </defs>
    <g clip-path="url(#p48d394dc2f)">
     <use style="fill:#ff0000;stroke:#ff0000;" x="112.473126" xlink:href="#m3e91e45ee8" y="146.734059"/>
     <use style="fill:#ff0000;stroke:#ff0000;" x="110.528383" xlink:href="#m3e91e45ee8" y="99.592123"/>
     <use style="fill:#ff0000;stroke:#ff0000;" x="106.509955" xlink:href="#m3e91e45ee8" y="88.00098"/>
     <use style="fill:#ff0000;stroke:#ff0000;" x="94.230006" xlink:href="#m3e91e45ee8" y="113.48601"/>
     <use style="fill:#ff0000;stroke:#ff0000;" x="81.260021" xlink:href="#m3e91e45ee8" y="146.33121"/>
     <use style="fill:#ff0000;stroke:#ff0000;" x="72.827754" xlink:href="#m3e91e45ee8" y="173.702947"/>
     <use style="fill:#ff0000;stroke:#ff0000;" x="72.104795" xlink:href="#m3e91e45ee8" y="185.524543"/>
     <use style="fill:#ff0000;stroke:#ff0000;" x="124.181897" xlink:href="#m3e91e45ee8" y="100.594215"/>
     <use style="fill:#ff0000;stroke:#ff0000;" x="147.759526" xlink:href="#m3e91e45ee8" y="82.432958"/>
     <use style="fill:#ff0000;stroke:#ff0000;" x="133.157625" xlink:href="#m3e91e45ee8" y="56.03853"/>
     <use style="fill:#ff0000;stroke:#ff0000;" x="132.39584" xlink:href="#m3e91e45ee8" y="43.345496"/>
     <use style="fill:#ff0000;stroke:#ff0000;" x="102.2781" xlink:href="#m3e91e45ee8" y="165.57209"/>
     <use style="fill:#ff0000;stroke:#ff0000;" x="101.805857" xlink:href="#m3e91e45ee8" y="213.98668"/>
     <use style="fill:#ff0000;stroke:#ff0000;" x="101.864216" xlink:href="#m3e91e45ee8" y="260.144831"/>
     <use style="fill:#ff0000;stroke:#ff0000;" x="93.758782" xlink:href="#m3e91e45ee8" y="267.621974"/>
     <use style="fill:#ff0000;stroke:#ff0000;" x="121.919482" xlink:href="#m3e91e45ee8" y="166.553017"/>
     <use style="fill:#ff0000;stroke:#ff0000;" x="120.972779" xlink:href="#m3e91e45ee8" y="215.057183"/>
     <use style="fill:#ff0000;stroke:#ff0000;" x="120.935948" xlink:href="#m3e91e45ee8" y="259.891576"/>
     <use style="fill:#ff0000;stroke:#ff0000;" x="123.974033" xlink:href="#m3e91e45ee8" y="269.127194"/>
    </g>
   </g>
   <g id="line2d_2">
    <path clip-path="url(#p48d394dc2f)" d="M 112.473126 146.734059 
L 110.528383 99.592123 
" style="fill:none;stroke:#ff0000;stroke-linecap:square;"/>
   </g>
   <g id="line2d_3">
    <path clip-path="url(#p48d394dc2f)" d="M 110.528383 99.592123 
L 106.509955 88.00098 
" style="fill:none;stroke:#ff0000;stroke-linecap:square;"/>
   </g>
   <g id="line2d_4">
    <path clip-path="url(#p48d394dc2f)" d="M 110.528383 99.592123 
L 94.230006 113.48601 
" style="fill:none;stroke:#ff0000;stroke-linecap:square;"/>
   </g>
   <g id="line2d_5">
    <path clip-path="url(#p48d394dc2f)" d="M 94.230006 113.48601 
L 81.260021 146.33121 
" style="fill:none;stroke:#ff0000;stroke-linecap:square;"/>
   </g>
   <g id="line2d_6">
    <path clip-path="url(#p48d394dc2f)" d="M 81.260021 146.33121 
L 72.827754 173.702947 
" style="fill:none;stroke:#ff0000;stroke-linecap:square;"/>
   </g>
   <g id="line2d_7">
    <path clip-path="url(#p48d394dc2f)" d="M 72.827754 173.702947 
L 72.104795 185.524543 
" style="fill:none;stroke:#ff0000;stroke-linecap:square;"/>
   </g>
   <g id="line2d_8">
    <path clip-path="url(#p48d394dc2f)" d="M 110.528383 99.592123 
L 124.181897 100.594215 
" style="fill:none;stroke:#ff0000;stroke-linecap:square;"/>
   </g>
   <g id="line2d_9">
    <path clip-path="url(#p48d394dc2f)" d="M 124.181897 100.594215 
L 147.759526 82.432958 
" style="fill:none;stroke:#ff0000;stroke-linecap:square;"/>
   </g>
   <g id="line2d_10">
    <path clip-path="url(#p48d394dc2f)" d="M 147.759526 82.432958 
L 133.157625 56.03853 
" style="fill:none;stroke:#ff0000;stroke-linecap:square;"/>
   </g>
   <g id="line2d_11">
    <path clip-path="url(#p48d394dc2f)" d="M 133.157625 56.03853 
L 132.39584 43.345496 
" style="fill:none;stroke:#ff0000;stroke-linecap:square;"/>
   </g>
   <g id="line2d_12">
    <path clip-path="url(#p48d394dc2f)" d="M 112.473126 146.734059 
L 102.2781 165.57209 
" style="fill:none;stroke:#ff0000;stroke-linecap:square;"/>
   </g>
   <g id="line2d_13">
    <path clip-path="url(#p48d394dc2f)" d="M 102.2781 165.57209 
L 101.805857 213.98668 
" style="fill:none;stroke:#ff0000;stroke-linecap:square;"/>
   </g>
   <g id="line2d_14">
    <path clip-path="url(#p48d394dc2f)" d="M 101.805857 213.98668 
L 101.864216 260.144831 
" style="fill:none;stroke:#ff0000;stroke-linecap:square;"/>
   </g>
   <g id="line2d_15">
    <path clip-path="url(#p48d394dc2f)" d="M 101.864216 260.144831 
L 93.758782 267.621974 
" style="fill:none;stroke:#ff0000;stroke-linecap:square;"/>
   </g>
   <g id="line2d_16">
    <path clip-path="url(#p48d394dc2f)" d="M 112.473126 146.734059 
L 121.919482 166.553017 
" style="fill:none;stroke:#ff0000;stroke-linecap:square;"/>
   </g>
   <g id="line2d_17">
    <path clip-path="url(#p48d394dc2f)" d="M 121.919482 166.553017 
L 120.972779 215.057183 
" style="fill:none;stroke:#ff0000;stroke-linecap:square;"/>
   </g>
   <g id="line2d_18">
    <path clip-path="url(#p48d394dc2f)" d="M 120.972779 215.057183 
L 120.935948 259.891576 
" style="fill:none;stroke:#ff0000;stroke-linecap:square;"/>
   </g>
   <g id="line2d_19">
    <path clip-path="url(#p48d394dc2f)" d="M 120.935948 259.891576 
L 123.974033 269.127194 
" style="fill:none;stroke:#ff0000;stroke-linecap:square;"/>
   </g>
   <g id="patch_3">
    <path d="M 14.3 273.7 
L 14.3 14.3 
" style="fill:none;stroke:#000000;stroke-linecap:square;stroke-linejoin:miter;stroke-width:0.8;"/>
   </g>
   <g id="patch_4">
    <path d="M 273.7 273.7 
L 273.7 14.3 
" style="fill:none;stroke:#000000;stroke-linecap:square;stroke-linejoin:miter;stroke-width:0.8;"/>
   </g>
   <g id="patch_5">
    <path d="M 14.3 273.7 
L 273.7 273.7 
" style="fill:none;stroke:#000000;stroke-linecap:square;stroke-linejoin:miter;stroke-width:0.8;"/>
   </g>
   <g id="patch_6">
    <path d="M 14.3 14.3 
L 273.7 14.3 
" style="fill:none;stroke:#000000;stroke-linecap:square;stroke-linejoin:miter;stroke-width:0.8;"/>
   </g>
  </g>
 </g>
 <defs>
  <clipPath id="p48d394dc2f">
   <rect height="259.4" width="259.4" x="14.3" y="14.3"/>
  </clipPath>
 </defs>
</svg>
