<?xml version="1.0" encoding="UTF-8" standalone="no"?>
<!-- Created with Inkscape (http://www.inkscape.org/) -->

<svg
   xmlns:dc="http://purl.org/dc/elements/1.1/"
   xmlns:cc="http://creativecommons.org/ns#"
   xmlns:rdf="http://www.w3.org/1999/02/22-rdf-syntax-ns#"
   xmlns:svg="http://www.w3.org/2000/svg"
   xmlns="http://www.w3.org/2000/svg"
   xmlns:sodipodi="http://sodipodi.sourceforge.net/DTD/sodipodi-0.dtd"
   xmlns:inkscape="http://www.inkscape.org/namespaces/inkscape"
   width="82.252296mm"
   height="37.634289mm"
   viewBox="0 0 82.252296 37.634289"
   version="1.1"
   id="svg921"
   inkscape:version="0.92.2 (unknown)"
   sodipodi:docname="nus-logo.svg">
  <defs
     id="defs915" />
  <sodipodi:namedview
     id="base"
     pagecolor="#ffffff"
     bordercolor="#666666"
     borderopacity="1.0"
     inkscape:pageopacity="0.0"
     inkscape:pageshadow="2"
     inkscape:zoom="0.35"
     inkscape:cx="-360.27688"
     inkscape:cy="-206.02295"
     inkscape:document-units="mm"
     inkscape:current-layer="layer1"
     showgrid="false"
     fit-margin-top="0"
     fit-margin-left="0"
     fit-margin-right="0"
     fit-margin-bottom="0"
     inkscape:window-width="1366"
     inkscape:window-height="746"
     inkscape:window-x="0"
     inkscape:window-y="22"
     inkscape:window-maximized="1" />
  <metadata
     id="metadata918">
    <rdf:RDF>
      <cc:Work
         rdf:about="">
        <dc:format>image/svg+xml</dc:format>
        <dc:type
           rdf:resource="http://purl.org/dc/dcmitype/StillImage" />
        <dc:title></dc:title>
      </cc:Work>
    </rdf:RDF>
  </metadata>
  <g
     inkscape:label="Layer 1"
     inkscape:groupmode="layer"
     id="layer1"
     transform="translate(-71.510757,-56.688807)">
    <g
       id="g898"
       transform="translate(5.3207257,-72.039137)">
      <path
         style="fill:#ea7902;stroke-width:1"
         d="m 79.774588,166.03069 c -1.731051,-0.65911 -3.696416,-1.76572 -5.322349,-2.9968 -0.871262,-0.65967 -2.532149,-2.27706 -3.23011,-3.14551 -2.27308,-2.82831 -4.094986,-6.79984 -4.788268,-10.43783 -0.187573,-0.98429 -0.189291,-1.06829 -0.21645,-10.58067 l -0.02738,-9.5885 h 14.527837 14.527837 l -0.02744,9.5885 -0.02744,9.5885 -0.229366,1.15563 c -0.587494,2.95999 -1.92623,6.17164 -3.662288,8.78588 -1.92747,2.90249 -4.772108,5.34857 -8.041609,6.91493 -0.850613,0.40752 -2.511713,1.07356 -2.610246,1.04662 -0.0079,-0.002 -0.400663,-0.15101 -0.872738,-0.33075 z m 1.929147,-0.9665 c 2.580174,-1.05411 4.995316,-2.6792 6.891092,-4.63682 2.725724,-2.81465 4.778833,-6.87702 5.642583,-11.16465 0.187664,-0.93156 0.196147,-1.1376 0.196154,-4.76415 l 7e-6,-3.79048 -13.758332,-1.7e-4 -13.758333,-1.7e-4 -0.02445,3.07099 c -0.03219,4.04187 0.08159,5.24293 0.699969,7.38898 0.743794,2.58131 2.251297,5.62757 3.809431,7.69784 1.507248,2.00267 3.959572,4.03938 6.452038,5.35857 0.929973,0.4922 2.602099,1.20837 2.821349,1.20837 0.06985,0 0.532673,-0.16574 1.028496,-0.3683 z m -8.025999,-5.81157 c -0.10001,-0.0396 -0.207097,-0.11291 -0.237972,-0.16287 -0.03987,-0.0645 -0.106122,-0.0641 -0.228694,0.002 -0.158624,0.0849 -0.168478,0.0729 -0.122013,-0.14794 0.07144,-0.3396 -0.04545,-0.497 -0.277051,-0.37305 -0.145882,0.0781 -0.1801,0.0726 -0.1801,-0.0286 0,-0.0687 0.0381,-0.14853 0.08467,-0.17731 0.113201,-0.07 0.108657,-0.381 -0.0056,-0.381 -0.04963,0 -0.163656,0.0393 -0.253395,0.0873 -0.150873,0.0808 -0.155701,0.071 -0.06411,-0.13007 0.05611,-0.12316 0.285237,-0.31396 0.528562,-0.44017 0.35855,-0.18597 0.57153,-0.22896 1.28915,-0.26022 l 0.859642,-0.0375 0.185059,-0.47753 c 0.101782,-0.26264 0.333226,-1.06301 0.514318,-1.7786 l 0.329261,-1.30106 -0.294057,-0.34354 c -0.38896,-0.45441 -0.62161,-0.95198 -0.651503,-1.39338 -0.0134,-0.19784 -0.04899,-0.35976 -0.07909,-0.35983 -0.0301,-7e-5 -0.168814,0.12981 -0.308253,0.28862 l -0.253523,0.28875 -0.1555,-0.28875 c -0.08553,-0.15881 -0.156363,-0.28825 -0.157414,-0.28765 -0.155605,0.0888 -1.160723,0.33757 -1.364123,0.33757 -0.223105,0 -0.364363,0.0756 -0.621049,0.33226 -0.182741,0.18274 -0.417239,0.37774 -0.521105,0.43333 -0.187822,0.10052 -0.188562,0.0983 -0.136284,-0.40184 0.07239,-0.69255 -0.0071,-1.15255 -0.186332,-1.07833 -0.433758,0.17962 -0.432687,0.18079 -0.432687,-0.47511 0,-1.04202 -0.138828,-1.59189 -0.599982,-2.37637 -0.229422,-0.39028 -0.521656,-0.9001 -0.649408,-1.13294 -0.127752,-0.23283 -0.410638,-0.59478 -0.628635,-0.80433 -0.431186,-0.41448 -0.612387,-0.7721 -0.527201,-1.0405 0.03845,-0.12115 -0.0023,-0.21425 -0.13893,-0.3173 -0.183749,-0.1386 -0.185286,-0.14841 -0.03095,-0.19739 0.212933,-0.0676 0.405197,-0.6394 0.236723,-0.70405 -0.187998,-0.0721 -0.04301,-0.19609 0.229367,-0.19609 0.310944,0 0.405568,-0.20062 0.201158,-0.42649 -0.145851,-0.16116 -0.143605,-0.16618 0.0744,-0.16618 0.123634,0 0.300989,0.0762 0.394122,0.16933 0.09313,0.0931 0.263605,0.16934 0.378826,0.16934 0.266431,0 0.361919,0.18575 0.74917,1.45734 0.166103,0.54543 0.34177,1.06599 0.390371,1.1568 0.08531,0.1594 0.951222,0.94186 1.042318,0.94186 0.02462,0 0.06275,-0.10478 0.08473,-0.23284 0.02198,-0.12806 0.06716,-0.29606 0.100399,-0.37335 0.04379,-0.10181 0.0063,-0.15734 -0.136192,-0.20161 -0.432916,-0.1345 -0.845872,-0.54687 -0.547653,-0.54687 0.06305,0 0.218959,-0.0967 0.346464,-0.21485 l 0.231827,-0.21485 -0.282378,-0.19029 c -0.329662,-0.22216 -0.397564,-0.43762 -0.200356,-0.63575 0.07733,-0.0777 0.214825,-0.26724 0.305539,-0.42121 0.09071,-0.15398 0.288011,-0.33346 0.438434,-0.39886 0.150425,-0.0654 0.2354,-0.12159 0.188833,-0.12489 -0.04657,-0.003 -0.193692,-0.10186 -0.326945,-0.21904 -0.233896,-0.20568 -0.237078,-0.2188 -0.09195,-0.37917 0.18034,-0.19927 0.874425,-0.41842 1.325211,-0.41842 h 0.325252 l -0.139397,-0.21275 -0.139396,-0.21274 0.370278,0.013 c 0.203653,0.007 0.565124,-0.0143 0.80327,-0.0476 0.577675,-0.0808 1.065705,0.059 1.338827,0.38355 l 0.217847,0.2589 0.217109,-0.25802 c 0.294382,-0.34985 0.665004,-0.43338 1.655298,-0.37305 0.777123,0.0473 0.963971,0.10624 0.75226,0.23708 -0.188775,0.11667 -0.05881,0.19025 0.425456,0.24086 0.528137,0.0552 0.904921,0.20317 1.092319,0.42897 0.0915,0.11026 0.06673,0.16576 -0.158538,0.35532 l -0.266982,0.22465 0.252802,0.15373 c 0.139042,0.0846 0.297989,0.24151 0.353217,0.34877 0.05523,0.10727 0.192005,0.29341 0.303947,0.41364 l 0.203531,0.2186 -0.173752,0.22089 c -0.09556,0.12149 -0.248928,0.24475 -0.340812,0.27392 -0.227616,0.0722 -0.09206,0.32075 0.252909,0.46364 0.14148,0.0586 0.257236,0.13744 0.257236,0.17518 0,0.0901 -0.416242,0.38128 -0.647676,0.45307 -0.163459,0.0507 -0.172305,0.0822 -0.08679,0.30872 0.112729,0.29865 0.299078,0.36426 1.581131,0.55671 0.608819,0.0914 1.342627,0.12628 2.328334,0.11071 2.185118,-0.0345 3.666064,-0.0275 4.275666,0.0203 0.648705,0.0509 2.030471,-0.11452 2.689937,-0.32195 0.90935,-0.28602 1.204849,-0.80098 0.731342,-1.27449 -0.208054,-0.20806 -0.252885,-0.21697 -0.867833,-0.17256 -0.386578,0.0279 -1.024555,0.16557 -1.579779,0.34087 -1.613137,0.50931 -3.067883,0.73043 -4.548246,0.69131 -2.061188,-0.0545 -2.927356,-0.64791 -2.844514,-1.9489 0.03983,-0.62558 0.306328,-1.04059 0.84452,-1.31515 0.325768,-0.1662 1.275214,-0.32053 1.753273,-0.28499 0.122632,0.009 0.575709,0.0262 1.006839,0.038 0.711365,0.0194 0.813175,0.002 1.100666,-0.18781 0.174238,-0.11507 0.463235,-0.25741 0.642218,-0.3163 0.320238,-0.10537 1.437009,-0.13449 1.587631,-0.0414 0.188476,0.11649 0.966613,0.17692 1.316669,0.10226 0.448505,-0.0957 0.537496,-0.0443 0.326747,0.18858 -0.15175,0.16768 -0.148748,0.16985 0.234896,0.16985 0.467007,0 0.762571,0.10346 1.095237,0.38338 l 0.248722,0.20929 h -0.402297 c -0.221263,0 -0.685803,0.0978 -1.032309,0.21745 -0.481476,0.16618 -0.712081,0.20358 -0.978107,0.15864 -0.323911,-0.0547 -0.339609,-0.0486 -0.22596,0.0883 0.06718,0.0809 0.199659,0.17642 0.294408,0.21218 0.310365,0.11713 -0.516933,0.28389 -1.436393,0.28953 -0.90874,0.006 -1.530299,-0.14524 -1.945915,-0.47216 -0.204367,-0.16076 -0.313656,-0.17082 -1.553744,-0.14296 -1.476045,0.0332 -1.675312,0.0942 -1.873957,0.57374 -0.13858,0.33456 -0.009,0.67834 0.331593,0.87952 0.777957,0.45955 3.469616,0.29831 5.423023,-0.32486 1.829109,-0.58352 2.574665,-0.67772 3.310111,-0.41824 0.676221,0.23859 1.087153,0.8306 1.090696,1.57132 0.0055,1.14874 -1.1444,1.91159 -3.321981,2.20383 -0.708424,0.0951 -0.8183,0.13084 -0.779323,0.25364 0.133146,0.41951 0.207569,1.26622 0.208006,2.36648 5.93e-4,1.5121 0.112397,1.97317 0.572904,2.36278 0.174123,0.14731 0.398157,0.3414 0.497854,0.4313 0.0997,0.0899 0.233046,0.1636 0.296333,0.16377 0.177961,5.1e-4 0.679439,0.33181 0.628057,0.41494 -0.02515,0.0407 -0.145156,0.0989 -0.266684,0.12945 -0.121528,0.0305 -0.331385,0.13709 -0.466349,0.23688 -0.244099,0.18047 -0.244523,0.18234 -0.08064,0.35679 l 0.164747,0.17536 -0.578761,0.35863 c -0.573194,0.35519 -0.582214,0.36658 -0.93775,1.18464 -0.602786,1.38695 -0.747907,1.66882 -0.910993,1.76942 -0.08627,0.0532 -0.521478,0.19608 -0.967138,0.3175 -0.847184,0.23079 -1.541829,0.28535 -1.638647,0.1287 -0.03129,-0.0506 -0.132248,-0.0723 -0.224357,-0.0482 -0.139943,0.0366 -0.159383,0.0116 -0.118263,-0.15227 0.06707,-0.26723 -0.12998,-0.42989 -0.367076,-0.303 -0.209876,0.11232 -0.22361,0.0257 -0.03795,-0.2394 0.174995,-0.24984 0.04895,-0.41042 -0.212375,-0.27057 -0.140825,0.0754 -0.178423,0.0712 -0.178423,-0.0197 0,-0.13857 0.351173,-0.4834 0.49229,-0.4834 0.05521,0 0.100377,-0.0335 0.100377,-0.0744 0,-0.18687 0.693256,-0.31949 1.797446,-0.34384 0.179866,-0.004 0.267367,-0.0762 0.394617,-0.32559 0.191412,-0.3752 0.77127,-2.01443 0.77127,-2.18034 0,-0.0626 -0.257175,-0.39266 -0.5715,-0.73351 -0.314325,-0.34086 -0.749621,-0.82498 -0.967324,-1.07583 l -0.395824,-0.45608 -0.138835,0.32996 c -0.339741,0.80744 -0.204674,1.31963 0.429207,1.62759 0.445403,0.21639 0.470595,0.31535 0.09911,0.38931 -0.151341,0.0301 -0.389466,0.14993 -0.529166,0.26623 -0.229948,0.19143 -0.23997,0.2196 -0.105834,0.29751 0.22983,0.1335 0.177011,0.27789 -0.168471,0.46057 -0.550431,0.29103 -0.9149,0.68869 -1.201895,1.31133 -0.15176,0.32925 -0.36133,0.65459 -0.465713,0.72299 -0.259296,0.16989 -1.707083,0.54256 -2.115421,0.54451 -0.185768,8.9e-4 -0.397095,-0.0573 -0.479789,-0.13216 -0.116276,-0.10523 -0.185402,-0.11362 -0.324167,-0.0394 -0.20146,0.10782 -0.233413,0.0146 -0.08806,-0.25705 0.110561,-0.20658 -0.07723,-0.30438 -0.327391,-0.1705 -0.144824,0.0775 -0.161618,0.0667 -0.123397,-0.0795 0.02433,-0.093 0.07774,-0.18988 0.11869,-0.21519 0.04095,-0.0253 0.07445,-0.10567 0.07445,-0.1786 0,-0.10216 -0.05828,-0.12093 -0.254,-0.0818 -0.143282,0.0286 -0.254,0.0148 -0.254,-0.0318 0,-0.10992 0.315399,-0.42122 0.426761,-0.42122 0.04845,0 0.191595,-0.0765 0.318095,-0.17005 0.219703,-0.16243 0.389543,-0.18647 1.721824,-0.2437 0.201915,-0.009 0.263997,-0.10507 0.656167,-1.01882 0.238234,-0.55507 0.433153,-1.07335 0.433153,-1.15172 0,-0.0784 -0.170735,-0.33239 -0.379409,-0.56449 -0.208676,-0.2321 -0.552881,-0.68293 -0.764903,-1.00186 -0.377025,-0.56713 -0.391006,-0.57794 -0.63659,-0.49233 -0.293951,0.10247 -0.284167,0.0728 -0.124801,0.37879 l 0.126296,0.24251 -0.528463,0.0487 c -0.290655,0.0268 -0.642764,0.11113 -0.782463,0.1874 -0.510014,0.27847 -0.50838,0.27555 -0.301288,0.53872 l 0.189766,0.24116 -0.332342,0.0964 c -0.439232,0.12739 -0.792549,0.31439 -0.975086,0.51609 -0.142761,0.15775 -0.140279,0.16791 0.0637,0.26085 0.116737,0.0532 0.21225,0.13235 0.21225,0.1759 0,0.0436 -0.238797,0.21274 -0.53066,0.37596 -1.171617,0.65521 -1.85386,1.46279 -2.342657,2.77303 -0.25054,0.67159 -0.429825,0.80448 -1.406637,1.04262 -1.056222,0.2575 -1.470549,0.31092 -1.701549,0.2194 z M 86.978139,139.3319 c 0.405939,-0.14093 0.441926,-0.22646 0.176559,-0.41962 -0.164782,-0.11994 -0.248743,-0.1308 -0.441628,-0.0571 -0.437779,0.16722 -1.19271,0.10745 -1.685005,-0.13341 -0.812661,-0.3976 -1.252219,-1.11089 -1.252219,-2.03203 0,-0.63396 0.151916,-1.0393 0.580332,-1.54845 0.567115,-0.67398 1.761905,-0.89959 2.626727,-0.49601 0.398511,0.18597 1.058333,0.80092 1.058333,0.98637 0,0.12014 0.194303,0.10441 0.379067,-0.0307 0.152717,-0.11167 0.152101,-0.12371 -0.02057,-0.40216 -0.709631,-1.1444 -2.28716,-1.63054 -3.495689,-1.07726 -0.978619,0.44803 -1.574102,1.28799 -1.662752,2.34541 -0.114066,1.36057 0.812012,2.65383 2.125349,2.96804 0.421614,0.10087 1.160142,0.0536 1.611491,-0.10306 z m 3.603099,-0.21502 c 0.538467,-0.27913 1.142511,-0.89787 1.370046,-1.40338 0.154297,-0.3428 0.193514,-0.57854 0.191446,-1.15078 -0.0022,-0.62077 -0.03621,-0.78704 -0.24713,-1.20993 -0.224676,-0.45046 -0.866497,-1.16074 -1.048861,-1.16074 -0.04232,0 -0.09477,0.12143 -0.116554,0.26985 -0.03232,0.22023 0.0056,0.30788 0.206219,0.47669 0.418659,0.35228 0.690948,0.99182 0.691487,1.62413 0.0017,2.03855 -2.409258,3.04812 -3.846647,1.61073 -0.672381,-0.67238 -0.85716,-1.72024 -0.452375,-2.56536 0.151598,-0.3165 0.151233,-0.32145 -0.03746,-0.508 -0.188951,-0.18679 -0.191405,-0.18695 -0.29186,-0.019 -0.676854,1.13136 -0.511412,2.56427 0.40147,3.47715 0.604553,0.60456 1.138893,0.8042 2.079557,0.777 0.560328,-0.0162 0.804023,-0.0645 1.100667,-0.21832 z m -2.026671,-1.23416 c 0.09083,-0.20533 0.189401,-0.55033 0.219053,-0.76666 l 0.05391,-0.39333 -0.24498,0.0589 c -0.13474,0.0324 -0.245214,0.0631 -0.245499,0.0682 -2.54e-4,0.005 -0.08946,0.27395 -0.198175,0.59745 -0.188316,0.5604 -0.190528,0.5934 -0.0468,0.6985 0.23167,0.1694 0.284496,0.13936 0.462487,-0.26302 z m -14.164687,-3.11792 -0.02231,-2.81392 -0.550333,-0.1491 c -0.875998,-0.23733 -1.657949,-0.30007 -2.794,-0.22416 -0.582083,0.0389 -1.14457,0.0915 -1.249972,0.11681 l -0.19164,0.0461 0.02231,2.81327 0.02231,2.81327 0.465667,-0.0423 c 0.931909,-0.0847 3.07931,-0.0183 3.556,0.10996 0.849035,0.22848 0.767284,0.52265 0.741974,-2.66988 z m -1.334641,1.57136 c -0.349686,-0.11486 -0.6191,-0.12517 -2.114815,-0.081 -0.293389,0.009 -0.38551,-0.021 -0.407275,-0.13125 -0.04604,-0.23318 0.279765,-0.33306 1.236948,-0.37923 0.735655,-0.0355 0.99871,-0.014 1.411621,0.11536 0.514325,0.1611 0.701762,0.38562 0.453351,0.54305 -0.135566,0.0859 -0.103021,0.0897 -0.57983,-0.0669 z m -0.296333,-1.18607 c -0.412681,-0.10351 -0.647682,-0.11079 -1.252428,-0.0388 -0.823165,0.098 -0.991239,0.0701 -0.991239,-0.16472 0,-0.18814 0.152835,-0.23442 1.060579,-0.32113 1.064938,-0.10172 2.202903,0.15078 2.14138,0.47515 -0.03704,0.19528 -0.318974,0.20984 -0.958292,0.0495 z m 0.169333,-1.08945 c -0.465321,-0.13116 -1.13477,-0.14868 -1.758634,-0.046 -0.448792,0.0738 -0.718393,-0.0416 -0.630721,-0.27006 0.108825,-0.28359 1.900396,-0.36024 2.712229,-0.11604 0.424095,0.12757 0.488535,0.17388 0.465666,0.33463 -0.0329,0.23125 -0.228294,0.25541 -0.78854,0.0975 z m 0.08467,-1.10985 c -0.264061,-0.10032 -0.568153,-0.11876 -1.380401,-0.0837 -0.899949,0.0389 -1.048747,0.0267 -1.093257,-0.0893 -0.08863,-0.23096 0.209512,-0.34641 1.061482,-0.41107 0.992216,-0.0753 2.065506,0.13655 2.118529,0.41814 0.02936,0.1559 -0.114972,0.30849 -0.28302,0.29922 -0.04657,-0.003 -0.237067,-0.0626 -0.423333,-0.13333 z m 3.047999,4.40322 c 0.57364,-0.10107 1.055006,-0.12181 1.947334,-0.0839 0.651933,0.0277 1.271058,0.0748 1.375833,0.10469 l 0.1905,0.0543 v -2.84459 -2.8446 l -0.198879,-0.0499 c -0.39432,-0.099 -2.143913,-0.16367 -2.805323,-0.10374 -0.371727,0.0337 -0.933702,0.13955 -1.248833,0.23527 l -0.572965,0.17403 v 2.80215 2.80214 l 0.275167,-0.0558 c 0.151341,-0.0307 0.618066,-0.11623 1.037166,-0.19007 z m -0.45283,-0.9509 c -0.24849,-0.15748 -0.06099,-0.38195 0.453351,-0.54275 0.406802,-0.12718 0.685115,-0.15099 1.402884,-0.12003 0.945117,0.0408 1.292266,0.14767 1.245685,0.3836 -0.02181,0.11044 -0.113322,0.13968 -0.407275,0.13013 -1.382747,-0.0449 -1.77024,-0.0286 -2.157148,0.0912 -0.232833,0.072 -0.423333,0.13083 -0.423333,0.13062 0,-1.7e-4 -0.05137,-0.0329 -0.114164,-0.0727 z m -0.06533,-1.23334 c -0.07535,-0.19635 0.03044,-0.28711 0.500631,-0.42948 0.415271,-0.12575 1.593345,-0.17767 2.028705,-0.0894 0.616788,0.12503 0.655824,0.14263 0.655824,0.29572 0,0.23155 -0.134847,0.25275 -0.996083,0.1566 -0.644667,-0.072 -0.868653,-0.0633 -1.325409,0.0515 -0.675336,0.16964 -0.803512,0.17188 -0.863668,0.0151 z m 0.02427,-1.03416 c -0.325659,-0.32566 0.488361,-0.66101 1.594555,-0.6569 0.91368,0.003 1.479387,0.10088 1.542688,0.26584 0.08767,0.22847 -0.181929,0.34391 -0.63072,0.27006 -0.633072,-0.10416 -1.293924,-0.0857 -1.800968,0.0504 -0.525092,0.14094 -0.625163,0.15095 -0.705555,0.0706 z m -0.02583,-1.17123 c -0.09879,-0.25744 0.05157,-0.3689 0.688997,-0.51071 0.49643,-0.11044 0.828854,-0.12989 1.438671,-0.0842 0.828457,0.0621 1.123154,0.1787 1.03465,0.40934 -0.0451,0.11754 -0.184622,0.12861 -1.063663,0.0844 -0.813517,-0.0409 -1.095317,-0.0235 -1.438254,0.0886 -0.524609,0.17159 -0.598814,0.173 -0.660401,0.0125 z m 13.255304,3.41749 c 0.58031,-0.24973 1.049018,-0.68606 1.366998,-1.27256 0.269957,-0.49792 0.290746,-0.59075 0.290746,-1.29826 0,-0.66187 -0.03093,-0.82498 -0.235355,-1.24126 -0.727231,-1.48088 -2.636513,-2.01559 -4.037999,-1.13087 -0.661703,0.41772 -1.272312,1.41334 -1.272312,2.07457 0,0.23615 0.01041,0.24279 0.249994,0.15927 0.206449,-0.072 0.273402,-0.16767 0.384382,-0.54943 0.483973,-1.66481 2.696673,-2.12979 3.857789,-0.8107 1.19255,1.35481 0.372072,3.53463 -1.399236,3.71745 -0.401054,0.0414 -0.478323,0.0776 -0.519963,0.24348 -0.0269,0.10718 -0.02344,0.23607 0.0077,0.28643 0.07841,0.12686 0.839585,0.0231 1.307276,-0.17812 z m -2.45454,-0.64465 c 0.0033,-0.10478 -0.03293,-0.1905 -0.08046,-0.1905 -0.04753,0 -0.208631,-0.1734 -0.358012,-0.38533 -0.232707,-0.33014 -0.302148,-0.37765 -0.484915,-0.33178 -0.117322,0.0294 -0.225726,0.0659 -0.240897,0.0811 -0.07476,0.0748 0.303852,0.63482 0.648529,0.95932 0.341227,0.32124 0.395775,0.34695 0.449104,0.21166 0.03339,-0.0847 0.06338,-0.23972 0.06665,-0.34449 z m 2.772098,-1.26582 c 0.375147,-0.0387 0.445201,-0.0746 0.489423,-0.25084 0.08173,-0.32563 -0.01499,-0.39208 -0.480759,-0.33029 -0.39057,0.0518 -1.081478,0.27752 -1.081478,0.35331 0,0.13475 0.323445,0.35554 0.465667,0.31787 0.09313,-0.0247 0.366349,-0.0652 0.607147,-0.0901 z m 25.06802,27.64849 c -0.27339,-0.0769 -0.3175,-0.12345 -0.3175,-0.33492 0,-0.26305 0.0809,-0.29888 0.34984,-0.15494 0.27283,0.14601 0.95928,0.128 1.20281,-0.0316 0.12326,-0.0808 0.25512,-0.27961 0.30534,-0.46045 0.14507,-0.52237 0.12268,-0.56439 -0.19582,-0.36754 -0.19407,0.11994 -0.42713,0.17624 -0.72962,0.17624 -0.40078,0 -0.47571,-0.0312 -0.7622,-0.31773 -0.86574,-0.86574 -0.2896,-2.55948 0.87102,-2.56062 0.3452,-3.4e-4 0.77869,0.18225 0.8493,0.35773 0.0238,0.0592 0.0463,0.0219 0.05,-0.0829 0.005,-0.15459 0.0555,-0.1905 0.26571,-0.1905 h 0.25904 l -0.0262,1.64507 c -0.0241,1.51308 -0.0404,1.66422 -0.20315,1.88383 -0.0973,0.13132 -0.28224,0.29036 -0.41094,0.35342 -0.30925,0.15153 -1.11032,0.19662 -1.50761,0.0848 z m 1.1966,-1.73457 c 0.59912,-0.41964 0.49586,-1.53784 -0.16738,-1.81256 -0.68029,-0.28179 -1.27946,0.75685 -0.88106,1.52729 0.22159,0.42849 0.66983,0.55046 1.04844,0.28527 z m 4.91546,1.68323 c -0.003,-0.0349 -0.003,-0.92075 -6.8e-4,-1.9685 l 0.004,-1.905 h 0.23351 c 0.15087,0 0.22508,0.0403 0.2097,0.11377 -0.0131,0.0626 0.006,0.0987 0.0423,0.0802 0.5251,-0.26648 0.77762,-0.33437 1.10603,-0.29736 0.65514,0.0739 1.03445,0.60849 1.03445,1.45806 0,0.88353 -0.38172,1.39345 -1.09439,1.46193 -0.32783,0.0315 -0.48981,9.4e-4 -0.72243,-0.13631 l -0.29984,-0.17691 v 0.71681 0.71681 h -0.254 c -0.1397,0 -0.2563,-0.0286 -0.25911,-0.0635 z m 1.72621,-1.6335 c 0.23735,-0.18671 0.36286,-0.61049 0.32489,-1.097 -0.0609,-0.78022 -0.78626,-1.08015 -1.29713,-0.53635 -0.16624,0.17695 -0.19853,0.30087 -0.19853,0.76178 0,0.5147 0.018,0.56651 0.2765,0.79751 0.32534,0.2907 0.5909,0.31269 0.89427,0.0741 z m -22.24642,0.40933 c -0.963453,-0.56245 -0.944062,-2.09325 0.03275,-2.58583 0.20777,-0.10478 0.51257,-0.18966 0.67733,-0.18864 0.4235,0.003 0.95974,0.26946 1.18924,0.59176 0.42754,0.60043 0.27116,1.64575 -0.31285,2.0912 -0.42125,0.32131 -1.12347,0.36181 -1.586475,0.0915 z m 1.27212,-0.5242 c 0.24838,-0.24838 0.28782,-0.34418 0.28755,-0.6985 -7.6e-4,-1.04266 -0.97071,-1.49545 -1.508529,-0.70423 -0.165408,0.24333 -0.193265,0.37213 -0.162722,0.75232 0.03087,0.38419 0.08046,0.49768 0.305211,0.6985 0.37499,0.33505 0.7103,0.3201 1.07849,-0.0481 z m 5.13503,0.6239 c -0.19322,-0.0777 -0.24465,-0.28893 -0.11868,-0.48748 0.0522,-0.0822 0.1262,-0.0875 0.30055,-0.0212 0.59196,0.22506 1.2363,-0.0335 1.2363,-0.49611 0,-0.28169 -0.22994,-0.50703 -0.81715,-0.8008 -0.58722,-0.29378 -0.79152,-0.56817 -0.79152,-1.06306 0,-0.46405 0.14173,-0.69685 0.53903,-0.88538 0.29266,-0.13888 0.94472,-0.18053 1.30703,-0.0835 0.15063,0.0403 0.18919,0.10274 0.16933,0.27401 -0.0249,0.21465 -0.0414,0.22081 -0.51457,0.19218 -0.57024,-0.0345 -0.90815,0.12924 -0.90815,0.44011 0,0.2436 0.25488,0.48137 0.81807,0.76313 0.57827,0.28931 0.79059,0.5955 0.79059,1.14008 0,0.73462 -0.50188,1.12147 -1.43933,1.10942 -0.20955,-0.003 -0.46672,-0.0394 -0.5715,-0.0815 z m 11.21443,-0.0478 c -0.41284,-0.22385 -0.52934,-0.86073 -0.22761,-1.24432 0.20975,-0.26665 0.63028,-0.41278 1.23382,-0.42876 0.50056,-0.0132 0.5706,-0.11029 0.32876,-0.45557 -0.17813,-0.25431 -0.61395,-0.32165 -1.01022,-0.15607 -0.41063,0.17157 -0.40025,0.17435 -0.3688,-0.099 0.0215,-0.18723 0.0931,-0.2549 0.36545,-0.3455 0.47485,-0.15798 1.09801,-0.0861 1.35614,0.15638 0.24679,0.23185 0.28213,0.41935 0.31492,1.67079 l 0.025,0.9525 h -0.27652 c -0.15208,0 -0.272,-0.0286 -0.26648,-0.0635 0.0284,-0.17974 -0.0305,-0.18665 -0.23311,-0.0273 -0.26938,0.2119 -0.88785,0.232 -1.24132,0.0404 z m 1.07008,-0.3822 c 0.35346,-0.16105 0.54575,-0.82476 0.24616,-0.84964 -0.35097,-0.0292 -0.75455,0.0351 -0.93134,0.14826 -0.24646,0.15778 -0.24764,0.49176 -0.002,0.66358 0.22256,0.15588 0.40619,0.16598 0.68751,0.0378 z m 5.71544,0.35129 c -0.66392,-0.36107 -0.93125,-1.32465 -0.56466,-2.03529 0.33642,-0.65215 1.16387,-0.93289 1.87448,-0.63597 0.9777,0.4085 1.10519,1.95802 0.21335,2.59307 -0.37849,0.26951 -1.103,0.3067 -1.52317,0.0782 z m 1.10583,-0.3803 c 0.7108,-0.36757 0.53546,-1.77963 -0.2422,-1.95043 -0.59598,-0.1309 -1.05091,0.38787 -0.99548,1.13516 0.0286,0.38617 0.0765,0.49665 0.30238,0.6985 0.29816,0.26641 0.5783,0.30139 0.9353,0.11677 z m 4.41207,0.39804 c -0.57652,-0.28965 -0.87578,-1.0683 -0.68413,-1.78003 0.1896,-0.70413 0.76513,-1.10299 1.45754,-1.01012 0.62957,0.0845 0.93346,0.42784 1.04666,1.18273 l 0.0601,0.40106 h -1.02561 c -0.57969,0 -1.02562,0.0344 -1.02562,0.0791 0,0.2292 0.19675,0.53272 0.44239,0.68249 0.32065,0.1955 0.5734,0.20765 1.01811,0.049 l 0.3175,-0.11331 v 0.24612 c 0,0.18629 -0.0528,0.26619 -0.21718,0.32869 -0.34483,0.13111 -1.0659,0.097 -1.3898,-0.0657 z m 1.26832,-1.76321 c 0,-0.17025 -0.45422,-0.62849 -0.62298,-0.62849 -0.27425,0 -0.56005,0.17328 -0.6853,0.41549 -0.0721,0.13939 -0.13106,0.27438 -0.13106,0.29998 0,0.0256 0.32385,0.0465 0.71967,0.0465 0.59886,0 0.71967,-0.0224 0.71967,-0.13351 z m -28.02467,0.64151 v -1.18533 h -0.33867 c -0.3048,0 -0.33866,-0.0212 -0.33866,-0.21167 0,-0.18937 0.0346,-0.21166 0.32818,-0.21166 h 0.32818 l 0.0391,-0.47117 c 0.0294,-0.35488 0.0895,-0.51952 0.24332,-0.66709 0.25782,-0.24731 0.78912,-0.33911 0.96203,-0.1662 0.17707,0.17707 0.0688,0.37312 -0.20614,0.37312 -0.30268,0 -0.44359,0.17654 -0.45657,0.57198 -0.0103,0.31433 -0.007,0.31724 0.34943,0.34306 0.31547,0.0228 0.35983,0.0509 0.35983,0.22796 0,0.17533 -0.0452,0.20536 -0.34344,0.22797 l -0.34344,0.026 -0.006,1.05704 c -0.003,0.58137 -0.024,1.10525 -0.0466,1.16417 -0.0226,0.0589 -0.15134,0.10713 -0.28606,0.10713 h -0.24494 z m 6.01133,-0.21166 v -1.40773 l 0.25582,0.0265 0.25581,0.0265 0.0153,1.35467 0.0153,1.35466 -0.27113,0.0265 -0.27113,0.0265 z m 1.45085,0 -0.0233,-1.397 h 0.30223 c 0.24926,0 0.30223,0.0307 0.30223,0.17538 0,0.1632 0.01,0.16565 0.14014,0.0352 0.31256,-0.31256 0.8832,-0.38341 1.31007,-0.16267 0.39425,0.20388 0.49713,0.56133 0.49713,1.72733 v 1.01872 h -0.254 -0.254 l -0.005,-0.86784 c -0.003,-0.47731 -0.0503,-0.99832 -0.10583,-1.1578 -0.18716,-0.53706 -0.82813,-0.53003 -1.15903,0.0127 -0.13987,0.2294 -0.16911,0.42714 -0.16938,1.14511 l -3.2e-4,0.86784 h -0.27892 -0.27892 z m 16.58315,0 v -1.397 h 0.254 c 0.20116,0 0.254,0.0368 0.254,0.17686 0,0.17019 0.01,0.1686 0.2605,-0.0423 0.16923,-0.14239 0.36204,-0.21919 0.55033,-0.21919 0.2656,0 0.28984,0.0212 0.28984,0.254 0,0.2313 -0.0252,0.254 -0.28158,0.254 -0.30895,0 -0.58437,0.23433 -0.69657,0.59267 -0.0365,0.11641 -0.0581,0.4904 -0.0481,0.83108 0.0238,0.81394 -0.0231,0.94692 -0.33409,0.94692 h -0.2483 z m -18.01794,-2.30717 c 0.024,-0.29049 0.0479,-0.3175 0.28028,-0.3175 0.23239,0 0.25623,0.027 0.28027,0.3175 0.0259,0.31327 0.0222,0.3175 -0.28027,0.3175 -0.30247,0 -0.30621,-0.004 -0.28028,-0.3175 z m 36.27772,-1.60161 c -0.031,-0.031 -0.0565,-0.14979 -0.0565,-0.26388 0,-0.17012 0.0325,-0.19892 0.18079,-0.16015 0.21795,0.057 0.66588,-0.34897 0.66588,-0.6035 0,-0.12932 -0.62386,-1.94006 -0.97566,-2.83186 -0.049,-0.12421 -0.01,-0.14817 0.24108,-0.14817 h 0.29953 l 0.36211,1.0972 c 0.19916,0.60345 0.38277,1.07705 0.40803,1.05243 0.0252,-0.0246 0.20127,-0.50883 0.39114,-1.07603 0.33869,-1.01173 0.35032,-1.03177 0.61383,-1.05779 0.14774,-0.0146 0.26861,-0.009 0.26861,0.0113 0,0.10184 -1.14169,3.18894 -1.28093,3.46361 -0.088,0.17366 -0.2721,0.37369 -0.40904,0.4445 -0.25894,0.1339 -0.61137,0.16985 -0.70892,0.0723 z m -41.80659,-1.25586 c -0.47026,-0.25558 -0.53117,-1.05653 -0.10578,-1.39114 0.23238,-0.18279 0.62169,-0.28062 1.1698,-0.29395 0.42191,-0.0103 0.49138,-0.20572 0.1828,-0.5143 -0.24413,-0.24413 -0.51769,-0.26897 -0.95407,-0.0866 -0.38547,0.16106 -0.36794,0.1653 -0.36794,-0.089 0,-0.26572 0.40511,-0.46197 0.94978,-0.4601 0.42987,0.001 0.71022,0.13046 0.93139,0.42847 0.13782,0.18571 0.16414,0.38345 0.17749,1.33355 l 0.0157,1.11551 -0.23284,-5e-5 c -0.15062,-4e-5 -0.23283,-0.045 -0.23283,-0.12722 0,-0.10555 -0.0537,-0.0984 -0.31625,0.0423 -0.36646,0.19642 -0.8998,0.21505 -1.21723,0.0425 z m 1.05449,-0.39037 c 0.23381,-0.10652 0.39432,-0.4021 0.39432,-0.7261 0,-0.21434 -0.0102,-0.21828 -0.43404,-0.16807 -0.23872,0.0283 -0.52447,0.11065 -0.635,0.18307 -0.25641,0.16801 -0.26268,0.49827 -0.0128,0.67331 0.22255,0.15588 0.40618,0.16597 0.6875,0.0378 z m 2.28781,0.31744 c -0.23843,-0.2049 -0.24296,-0.22549 -0.27074,-1.23191 l -0.0283,-1.02352 h -0.28924 c -0.25208,0 -0.28925,-0.0272 -0.28925,-0.21167 0,-0.18546 0.0367,-0.21167 0.29634,-0.21167 0.28804,0 0.29633,-0.009 0.29633,-0.33038 0,-0.29445 0.029,-0.34049 0.26663,-0.42333 0.14665,-0.0511 0.28,-0.093 0.29634,-0.093 0.0163,0 0.0297,0.1905 0.0297,0.42333 v 0.42333 h 0.36406 c 0.3319,0 0.36407,0.0187 0.36407,0.21167 0,0.19296 -0.0322,0.21167 -0.36407,0.21167 h -0.36406 v 0.88295 c 0,1.00993 0.0912,1.20278 0.52738,1.11554 0.22746,-0.0455 0.24369,-0.0319 0.21898,0.18268 -0.0243,0.2111 -0.0618,0.2341 -0.41921,0.25724 -0.31731,0.0205 -0.43897,-0.0145 -0.635,-0.18298 z m 3.94851,0.13881 c -0.53453,-0.20085 -0.93133,-0.80026 -0.93133,-1.40686 0,-1.00289 0.72063,-1.61841 1.70961,-1.46027 0.46466,0.0743 0.81662,0.34003 1.00773,0.76084 0.46656,1.02733 -0.21218,2.1741 -1.27801,2.1593 -0.20955,-0.003 -0.43815,-0.0268 -0.508,-0.053 z m 0.91298,-0.49438 c 0.83704,-0.58628 0.37119,-2.14986 -0.57839,-1.9413 -0.4004,0.0879 -0.61594,0.40701 -0.65683,0.97234 -0.0351,0.48557 -0.025,0.51684 0.26138,0.80317 0.33127,0.33126 0.65814,0.38691 0.97384,0.16579 z m 5.37846,0.46999 c -0.499,-0.201 -0.6249,-0.96355 -0.22507,-1.36317 0.26135,-0.26121 0.90832,-0.43503 1.3208,-0.35486 0.21223,0.0412 0.23283,0.0228 0.23283,-0.20825 0,-0.13943 -0.0537,-0.29812 -0.11944,-0.35264 -0.20485,-0.17 -0.67404,-0.2001 -0.99951,-0.0641 -0.32783,0.13697 -0.40505,0.11478 -0.40505,-0.11642 0,-0.1796 0.55826,-0.41841 0.9781,-0.41841 0.16354,0 0.43084,0.0558 0.594,0.12395 0.44116,0.18432 0.54457,0.51399 0.54457,1.73599 v 1.01872 h -0.254 c -0.16822,0 -0.254,-0.0425 -0.254,-0.12575 0,-0.10261 -0.0506,-0.0949 -0.27517,0.042 -0.28819,0.17572 -0.81281,0.21394 -1.13806,0.0829 z m 0.98392,-0.44494 c 0.28136,-0.14306 0.45886,-0.58214 0.31491,-0.779 -0.0852,-0.11654 -0.18074,-0.13409 -0.48275,-0.0887 -0.64585,0.0971 -0.92248,0.47114 -0.59251,0.8011 0.19678,0.19679 0.4591,0.21976 0.76035,0.0666 z m 5.51099,0.33992 c -0.6353,-0.32458 -0.72135,-0.59975 -0.72135,-2.3069 v -1.43907 l 0.26996,-2.5e-4 0.26996,-2.6e-4 0.0264,1.46764 0.0264,1.46764 0.2765,0.24686 c 0.32061,0.28624 0.79143,0.33236 1.1106,0.1088 0.35595,-0.24932 0.43323,-0.60179 0.43323,-1.97588 0,-0.7 0.0286,-1.27725 0.0635,-1.28279 0.0349,-0.006 0.15875,-0.0151 0.27517,-0.0212 l 0.21167,-0.0111 v 1.43934 c 0,1.28668 -0.0185,1.47525 -0.17424,1.778 -0.21825,0.42421 -0.75501,0.71966 -1.30743,0.71966 -0.23488,0 -0.53428,-0.075 -0.76032,-0.1905 z m 11.38323,0.0214 c -0.4427,-0.21914 -0.64393,-0.57262 -0.69248,-1.21642 -0.0326,-0.43211 -0.006,-0.582 0.16081,-0.89152 0.33545,-0.62415 1.03312,-0.8516 1.72519,-0.56244 0.34629,0.14469 0.62475,0.66255 0.62771,1.16735 l 0.002,0.3175 h -0.97367 c -0.90427,0 -0.97366,0.0116 -0.97366,0.16284 0,0.26374 0.40325,0.67239 0.72264,0.73231 0.26026,0.0488 0.43762,0.0144 0.90719,-0.17588 0.12159,-0.0493 0.14817,-0.0144 0.14817,0.19473 0,0.20964 -0.0472,0.27124 -0.26664,0.34772 -0.41246,0.14378 -1.00892,0.11102 -1.38712,-0.0762 z m 1.27162,-1.79936 c -0.0786,-0.27279 -0.4379,-0.5715 -0.68743,-0.5715 -0.23806,0 -0.70843,0.4173 -0.70843,0.62849 0,0.11118 0.12131,0.13351 0.72537,0.13351 0.71205,0 0.72436,-0.004 0.67049,-0.1905 z m 3.36664,1.90875 c -0.1477,-0.0285 -0.1905,-0.0945 -0.1905,-0.29386 0,-0.21124 0.0265,-0.2465 0.14816,-0.19744 0.36116,0.14561 0.7535,0.14529 0.89951,-7.6e-4 0.23882,-0.23882 0.13679,-0.4842 -0.29905,-0.71923 -0.5913,-0.31884 -0.74862,-0.4916 -0.74862,-0.82202 0,-0.37751 0.1181,-0.58547 0.42164,-0.74244 0.25084,-0.12971 0.80877,-0.17024 1.0531,-0.0765 0.078,0.0299 0.13392,0.15038 0.13392,0.28841 0,0.23163 -0.007,0.23495 -0.29553,0.14631 -0.39735,-0.12195 -0.72047,0.0194 -0.72047,0.31519 0,0.17434 0.0902,0.25778 0.50481,0.46709 0.53006,0.26757 0.68053,0.44366 0.68053,0.79639 0,0.68557 -0.63663,1.02194 -1.5875,0.8388 z m 4.20565,-0.18774 c -0.24489,-0.24488 -0.24749,-0.25774 -0.24749,-1.22255 v -0.97507 l -0.3175,-0.0263 c -0.2523,-0.0209 -0.3175,-0.061 -0.3175,-0.19561 0,-0.13456 0.0652,-0.17473 0.3175,-0.19561 0.30723,-0.0254 0.3175,-0.0368 0.3175,-0.35155 0,-0.28402 0.0317,-0.33631 0.24961,-0.41229 l 0.24959,-0.087 0.0256,0.39623 0.0256,0.39623 0.35984,0.026 c 0.31801,0.023 0.35983,0.0501 0.35983,0.23284 0,0.18926 -0.033,0.2068 -0.3887,0.2068 h -0.38871 l 0.0289,0.89596 c 0.0251,0.7782 0.0511,0.91243 0.19821,1.02126 0.10084,0.0746 0.26351,0.1069 0.40216,0.0798 0.20126,-0.0393 0.23284,-0.0183 0.23284,0.15501 0,0.39638 -0.72982,0.43315 -1.10718,0.0558 z m -44.443488,-1.78451 v -1.94733 h 0.332902 c 0.405896,0 0.409796,0.005 1.370436,1.76818 l 0.70966,1.30252 0.0231,-1.48369 0.0231,-1.48369 0.25581,-0.0376 c 0.1407,-0.0206 0.26969,-0.0151 0.28664,0.0123 0.017,0.0274 0.0248,0.88786 0.0174,1.91205 l -0.0134,1.86217 h -0.381 -0.381 l -0.79627,-1.4605 c -0.43795,-0.80328 -0.818952,-1.46055 -0.846669,-1.46061 -0.02772,-5e-5 -0.03917,0.6667 -0.02545,1.48167 l 0.02494,1.48177 h -0.300108 -0.300109 z m 9.228668,0.55033 v -1.397 h 0.254 0.254 v 1.397 1.397 h -0.254 -0.254 z m 4.826,0 v -1.397 h 0.254 c 0.20434,0 0.254,0.036 0.254,0.18409 0,0.18355 6.8e-4,0.18348 0.21849,-0.0212 0.18024,-0.16933 0.30589,-0.20526 0.71774,-0.20526 0.87248,0 1.09538,0.40631 1.06831,1.94733 l -0.0149,0.84667 -0.27517,0.0265 -0.27517,0.0265 v -1.02521 c 0,-0.98773 -0.008,-1.03316 -0.21728,-1.24249 -0.17465,-0.17465 -0.26907,-0.20692 -0.48127,-0.16448 -0.5665,0.1133 -0.73956,0.50618 -0.74031,1.68062 l -4.7e-4,0.74083 h -0.254 -0.254 z m 6.51933,-0.67733 v -2.07433 h 0.254 0.254 v 2.07433 2.07433 h -0.254 -0.254 z m 6.78485,0.67733 0.0233,-1.397 h 0.27892 c 0.22568,0 0.27892,0.0335 0.27892,0.17538 0,0.16321 0.01,0.16565 0.14014,0.0352 0.31012,-0.31012 0.88297,-0.38353 1.30197,-0.16686 0.42031,0.21735 0.50523,0.501 0.50523,1.6877 v 1.06253 h -0.254 -0.254 v -0.89172 c 0,-1.33473 -0.26712,-1.76773 -0.90393,-1.46529 -0.39457,0.18739 -0.53513,0.58954 -0.53528,1.53151 l -1.3e-4,0.8255 h -0.30223 -0.30224 z m 3.45982,0 v -1.397 l 0.27517,-5e-5 0.27516,-5e-5 v 1.39698 1.39698 l -0.27516,7e-5 -0.27517,7e-5 z m 2.07134,1.29117 c -0.022,-0.0582 -0.24546,-0.67733 -0.49655,-1.37583 l -0.45654,-1.27 0.21002,-0.0275 c 0.11552,-0.0151 0.25466,-0.0104 0.30921,0.0106 0.0546,0.0209 0.24958,0.50003 0.43341,1.06465 0.18382,0.56463 0.35707,1.02659 0.385,1.02659 0.0279,0 0.13917,-0.27623 0.2472,-0.61383 0.44454,-1.38919 0.50309,-1.50284 0.77432,-1.50284 0.13636,0 0.24792,0.0215 0.24792,0.0479 0,0.0263 -0.21512,0.65496 -0.47804,1.397 l -0.47805,1.34915 h -0.32894 c -0.18538,0 -0.34641,-0.0462 -0.36896,-0.10583 z m 5.26644,0.0494 c -0.0705,-0.0705 -0.0751,-2.42106 -0.005,-2.60363 0.0651,-0.16971 0.44599,-0.17544 0.51037,-0.008 0.0409,0.10661 0.0818,0.10002 0.26275,-0.0423 0.11788,-0.0927 0.34253,-0.16859 0.49924,-0.16859 0.25868,0 0.28491,0.0229 0.28491,0.24834 0,0.22045 -0.0282,0.24754 -0.25107,0.2412 -0.55231,-0.0157 -0.76493,0.41186 -0.76493,1.53826 v 0.85087 h -0.23988 c -0.13195,0 -0.2653,-0.0254 -0.29634,-0.0564 z m 4.34622,-1.34056 v -1.397 h 0.254 0.254 v 1.397 1.397 h -0.254 -0.254 z m -33.25283,-2.05049 c -0.11232,-0.0403 -0.15008,-0.52431 -0.0423,-0.54265 0.29549,-0.0503 0.45509,-0.0361 0.52362,0.0464 0.0821,0.0989 0.0771,0.34436 -0.009,0.43023 -0.0703,0.0703 -0.3512,0.10948 -0.47251,0.066 z m 21.67466,0.006 c -0.11245,-0.047 -0.14983,-0.53118 -0.0423,-0.54823 0.42344,-0.0671 0.48683,-0.0328 0.48683,0.26407 0,0.23454 -0.0353,0.29968 -0.16933,0.31238 -0.0931,0.009 -0.21696,-0.004 -0.27517,-0.0282 z m 11.62108,-0.0292 c -0.10674,-0.17271 -0.10527,-0.49938 0.002,-0.54071 0.0582,-0.0223 0.17654,-0.0272 0.26305,-0.0109 0.0865,0.0163 0.18585,0.0326 0.22077,0.0362 0.12295,0.0125 0.0677,0.51448 -0.0566,0.51448 -0.066,0 -0.17649,0.0216 -0.24544,0.0481 -0.069,0.0265 -0.15186,0.005 -0.18425,-0.0472 z m -18.5138,-4.10903 c -1.98478,-0.31422 -3.46255,-1.08356 -4.35064,-2.26498 -0.63529,-0.84512 -0.97571,-1.68815 -1.13601,-2.81325 -0.0496,-0.34818 -0.0851,-3.05772 -0.0861,-6.56819 l -0.002,-5.97553 1.778,-0.0148 1.778,-0.0148 0.003,5.65167 c 0.002,3.10842 0.0242,5.88028 0.05,6.15968 0.11636,1.25797 0.50973,2.20006 1.18552,2.83918 0.71903,0.68004 1.50635,0.94676 2.78306,0.94284 1.65735,-0.005 2.78543,-0.66697 3.39094,-1.98957 0.44828,-0.97917 0.45833,-1.14448 0.45992,-7.56108 l 0.001,-5.93797 0.23283,-0.0446 c 0.34733,-0.0666 2.93506,-0.0754 3.19192,-0.011 l 0.22255,0.0559 -0.0301,6.19182 c -0.0295,6.06247 -0.034,6.20669 -0.21683,6.90341 -0.67648,2.57833 -2.5327,4.07439 -5.55934,4.48069 -0.88218,0.11842 -2.86237,0.10269 -3.69656,-0.0294 z m 15.88856,0.0401 c -0.4191,-0.0425 -1.0668,-0.13609 -1.43934,-0.20795 -0.76837,-0.14821 -2.49492,-0.67917 -2.7028,-0.83117 -0.11951,-0.0874 -0.13472,-0.28913 -0.11451,-1.51881 l 0.0233,-1.41805 0.42334,0.30638 c 2.43378,1.76141 6.94947,2.10965 8.6627,0.66806 0.40945,-0.34452 0.70123,-1.02458 0.70418,-1.64121 0.003,-0.65075 -0.22844,-1.16195 -0.71716,-1.58332 -0.46458,-0.40056 -1.75572,-1.0175 -3.27339,-1.56413 -2.74545,-0.98884 -3.89886,-1.66642 -4.74369,-2.78673 -0.96056,-1.27379 -1.15592,-3.30532 -0.46051,-4.7889 0.33707,-0.7191 1.19749,-1.54722 2.01724,-1.9415 1.28035,-0.61583 2.9064,-0.9002 4.83796,-0.84607 1.76538,0.0495 3.7142,0.42616 4.63496,0.89589 l 0.33029,0.1685 -0.0395,1.15933 c -0.0217,0.63762 -0.0435,1.16849 -0.0485,1.1797 -0.005,0.0112 -0.19401,-0.0935 -0.42017,-0.23264 -0.74219,-0.45667 -1.88419,-0.87537 -2.99814,-1.09924 -0.58752,-0.11807 -2.56071,-0.12406 -3.15516,-0.01 -1.057,0.20356 -1.83725,0.69646 -2.06645,1.30542 -0.14378,0.38203 -0.10574,0.98739 0.0871,1.3857 0.35453,0.73235 1.15513,1.21831 3.67556,2.23098 2.49418,1.00213 3.57841,1.59363 4.47351,2.44049 1.09768,1.03855 1.53714,2.07616 1.52916,3.61049 -0.007,1.30857 -0.31576,2.21376 -1.05827,3.10059 -0.71942,0.85927 -2.22257,1.59811 -3.85601,1.89534 -0.8976,0.16333 -3.24453,0.23006 -4.30572,0.12243 z m -39.920338,-9.06012 v -8.64929 l 1.629838,0.0319 c 1.62233,0.0318 1.63195,0.0331 2.08967,0.28419 0.54891,0.30114 0.12559,-0.26644 5.00116,6.70552 l 3.85233,5.50876 0.0423,-6.235 0.0423,-6.235 h 1.18533 1.18534 l 0.0216,8.57079 0.0216,8.57078 -0.2097,0.0526 c -0.11534,0.029 -0.84894,0.0375 -1.63024,0.0191 -1.55602,-0.0368 -1.94499,-0.14042 -2.41355,-0.64318 -0.20073,-0.21538 -1.45058,-1.98614 -6.22752,-8.82308 -1.08996,-1.55998 -2.0353,-2.89212 -2.10077,-2.96031 -0.10231,-0.10656 -0.11903,0.75161 -0.11903,6.10811 0,5.00054 -0.0215,6.24034 -0.10888,6.27386 -0.0599,0.023 -0.59328,0.048 -1.18533,0.0557 l -1.076458,0.0139 z"
         id="path902"
         inkscape:connector-curvature="0" />
      <path
         style="fill:#013c7a;stroke-width:1"
         d="m 79.774588,166.03069 c -1.731051,-0.65911 -3.696416,-1.76572 -5.322349,-2.9968 -0.871262,-0.65967 -2.532149,-2.27706 -3.23011,-3.14551 -2.27308,-2.82831 -4.094986,-6.79984 -4.788268,-10.43783 -0.187573,-0.98429 -0.189291,-1.06829 -0.21645,-10.58067 l -0.02738,-9.5885 h 14.527837 14.527837 l -0.02744,9.5885 -0.02744,9.5885 -0.229366,1.15563 c -0.587494,2.95999 -1.92623,6.17164 -3.662288,8.78588 -1.92747,2.90249 -4.772108,5.34857 -8.041609,6.91493 -0.850613,0.40752 -2.511713,1.07356 -2.610246,1.04662 -0.0079,-0.002 -0.400663,-0.15101 -0.872738,-0.33075 z m 1.929147,-0.9665 c 2.580174,-1.05411 4.995316,-2.6792 6.891092,-4.63682 2.725724,-2.81465 4.778833,-6.87702 5.642583,-11.16465 0.187664,-0.93156 0.196147,-1.1376 0.196154,-4.76415 l 7e-6,-3.79048 -13.758332,-1.7e-4 -13.758333,-1.7e-4 -0.02445,3.07099 c -0.03219,4.04187 0.08159,5.24293 0.699969,7.38898 0.743794,2.58131 2.251297,5.62757 3.809431,7.69784 1.507248,2.00267 3.959572,4.03938 6.452038,5.35857 0.929973,0.4922 2.602099,1.20837 2.821349,1.20837 0.06985,0 0.532673,-0.16574 1.028496,-0.3683 z m -8.025999,-5.81157 c -0.10001,-0.0396 -0.207097,-0.11291 -0.237972,-0.16287 -0.03987,-0.0645 -0.106122,-0.0641 -0.228694,0.002 -0.158624,0.0849 -0.168478,0.0729 -0.122013,-0.14794 0.07144,-0.3396 -0.04545,-0.497 -0.277051,-0.37305 -0.145882,0.0781 -0.1801,0.0726 -0.1801,-0.0286 0,-0.0687 0.0381,-0.14853 0.08467,-0.17731 0.113201,-0.07 0.108657,-0.381 -0.0056,-0.381 -0.04963,0 -0.163656,0.0393 -0.253395,0.0873 -0.150873,0.0808 -0.155701,0.071 -0.06411,-0.13007 0.05611,-0.12316 0.285237,-0.31396 0.528562,-0.44017 0.35855,-0.18597 0.57153,-0.22896 1.28915,-0.26022 l 0.859642,-0.0375 0.185059,-0.47753 c 0.101782,-0.26264 0.333226,-1.06301 0.514318,-1.7786 l 0.329261,-1.30106 -0.294057,-0.34354 c -0.38896,-0.45441 -0.62161,-0.95198 -0.651503,-1.39338 -0.0134,-0.19784 -0.04899,-0.35976 -0.07909,-0.35983 -0.0301,-7e-5 -0.168814,0.12981 -0.308253,0.28862 l -0.253523,0.28875 -0.1555,-0.28875 c -0.08553,-0.15881 -0.156363,-0.28825 -0.157414,-0.28765 -0.155605,0.0888 -1.160723,0.33757 -1.364123,0.33757 -0.223105,0 -0.364363,0.0756 -0.621049,0.33226 -0.182741,0.18274 -0.417239,0.37774 -0.521105,0.43333 -0.187822,0.10052 -0.188562,0.0983 -0.136284,-0.40184 0.07239,-0.69255 -0.0071,-1.15255 -0.186332,-1.07833 -0.433758,0.17962 -0.432687,0.18079 -0.432687,-0.47511 0,-1.04202 -0.138828,-1.59189 -0.599982,-2.37637 -0.229422,-0.39028 -0.521656,-0.9001 -0.649408,-1.13294 -0.127752,-0.23283 -0.410638,-0.59478 -0.628635,-0.80433 -0.431186,-0.41448 -0.612387,-0.7721 -0.527201,-1.0405 0.03845,-0.12115 -0.0023,-0.21425 -0.13893,-0.3173 -0.183749,-0.1386 -0.185286,-0.14841 -0.03095,-0.19739 0.212933,-0.0676 0.405197,-0.6394 0.236723,-0.70405 -0.187998,-0.0721 -0.04301,-0.19609 0.229367,-0.19609 0.310944,0 0.405568,-0.20062 0.201158,-0.42649 -0.145851,-0.16116 -0.143605,-0.16618 0.0744,-0.16618 0.123634,0 0.300989,0.0762 0.394122,0.16933 0.09313,0.0931 0.263605,0.16934 0.378826,0.16934 0.266431,0 0.361919,0.18575 0.74917,1.45734 0.166103,0.54543 0.34177,1.06599 0.390371,1.1568 0.08531,0.1594 0.951222,0.94186 1.042318,0.94186 0.02462,0 0.06275,-0.10478 0.08473,-0.23284 0.02198,-0.12806 0.06716,-0.29606 0.100399,-0.37335 0.04379,-0.10181 0.0063,-0.15734 -0.136192,-0.20161 -0.432916,-0.1345 -0.845872,-0.54687 -0.547653,-0.54687 0.06305,0 0.218959,-0.0967 0.346464,-0.21485 l 0.231827,-0.21485 -0.282378,-0.19029 c -0.329662,-0.22216 -0.397564,-0.43762 -0.200356,-0.63575 0.07733,-0.0777 0.214825,-0.26724 0.305539,-0.42121 0.09071,-0.15398 0.288011,-0.33346 0.438434,-0.39886 0.150425,-0.0654 0.2354,-0.12159 0.188833,-0.12489 -0.04657,-0.003 -0.193692,-0.10186 -0.326945,-0.21904 -0.233896,-0.20568 -0.237078,-0.2188 -0.09195,-0.37917 0.18034,-0.19927 0.874425,-0.41842 1.325211,-0.41842 h 0.325252 l -0.139397,-0.21275 -0.139396,-0.21274 0.370278,0.013 c 0.203653,0.007 0.565124,-0.0143 0.80327,-0.0476 0.577675,-0.0808 1.065705,0.059 1.338827,0.38355 l 0.217847,0.2589 0.217109,-0.25802 c 0.294382,-0.34985 0.665004,-0.43338 1.655298,-0.37305 0.777123,0.0473 0.963971,0.10624 0.75226,0.23708 -0.188775,0.11667 -0.05881,0.19025 0.425456,0.24086 0.528137,0.0552 0.904921,0.20317 1.092319,0.42897 0.0915,0.11026 0.06673,0.16576 -0.158538,0.35532 l -0.266982,0.22465 0.252802,0.15373 c 0.139042,0.0846 0.297989,0.24151 0.353217,0.34877 0.05523,0.10727 0.192005,0.29341 0.303947,0.41364 l 0.203531,0.2186 -0.173752,0.22089 c -0.09556,0.12149 -0.248928,0.24475 -0.340812,0.27392 -0.227616,0.0722 -0.09206,0.32075 0.252909,0.46364 0.14148,0.0586 0.257236,0.13744 0.257236,0.17518 0,0.0901 -0.416242,0.38128 -0.647676,0.45307 -0.163459,0.0507 -0.172305,0.0822 -0.08679,0.30872 0.112729,0.29865 0.299078,0.36426 1.581131,0.55671 0.608819,0.0914 1.342627,0.12628 2.328334,0.11071 2.185118,-0.0345 3.666064,-0.0275 4.275666,0.0203 0.648705,0.0509 2.030471,-0.11452 2.689937,-0.32195 0.90935,-0.28602 1.204849,-0.80098 0.731342,-1.27449 -0.208054,-0.20806 -0.252885,-0.21697 -0.867833,-0.17256 -0.386578,0.0279 -1.024555,0.16557 -1.579779,0.34087 -1.613137,0.50931 -3.067883,0.73043 -4.548246,0.69131 -2.061188,-0.0545 -2.927356,-0.64791 -2.844514,-1.9489 0.03983,-0.62558 0.306328,-1.04059 0.84452,-1.31515 0.325768,-0.1662 1.275214,-0.32053 1.753273,-0.28499 0.122632,0.009 0.575709,0.0262 1.006839,0.038 0.711365,0.0194 0.813175,0.002 1.100666,-0.18781 0.174238,-0.11507 0.463235,-0.25741 0.642218,-0.3163 0.320238,-0.10537 1.437009,-0.13449 1.587631,-0.0414 0.188476,0.11649 0.966613,0.17692 1.316669,0.10226 0.448505,-0.0957 0.537496,-0.0443 0.326747,0.18858 -0.15175,0.16768 -0.148748,0.16985 0.234896,0.16985 0.467007,0 0.762571,0.10346 1.095237,0.38338 l 0.248722,0.20929 h -0.402297 c -0.221263,0 -0.685803,0.0978 -1.032309,0.21745 -0.481476,0.16618 -0.712081,0.20358 -0.978107,0.15864 -0.323911,-0.0547 -0.339609,-0.0486 -0.22596,0.0883 0.06718,0.0809 0.199659,0.17642 0.294408,0.21218 0.310365,0.11713 -0.516933,0.28389 -1.436393,0.28953 -0.90874,0.006 -1.530299,-0.14524 -1.945915,-0.47216 -0.204367,-0.16076 -0.313656,-0.17082 -1.553744,-0.14296 -1.476045,0.0332 -1.675312,0.0942 -1.873957,0.57374 -0.13858,0.33456 -0.009,0.67834 0.331593,0.87952 0.777957,0.45955 3.469616,0.29831 5.423023,-0.32486 1.829109,-0.58352 2.574665,-0.67772 3.310111,-0.41824 0.676221,0.23859 1.087153,0.8306 1.090696,1.57132 0.0055,1.14874 -1.1444,1.91159 -3.321981,2.20383 -0.708424,0.0951 -0.8183,0.13084 -0.779323,0.25364 0.133146,0.41951 0.207569,1.26622 0.208006,2.36648 5.93e-4,1.5121 0.112397,1.97317 0.572904,2.36278 0.174123,0.14731 0.398157,0.3414 0.497854,0.4313 0.0997,0.0899 0.233046,0.1636 0.296333,0.16377 0.177961,5.1e-4 0.679439,0.33181 0.628057,0.41494 -0.02515,0.0407 -0.145156,0.0989 -0.266684,0.12945 -0.121528,0.0305 -0.331385,0.13709 -0.466349,0.23688 -0.244099,0.18047 -0.244523,0.18234 -0.08064,0.35679 l 0.164747,0.17536 -0.578761,0.35863 c -0.573194,0.35519 -0.582214,0.36658 -0.93775,1.18464 -0.602786,1.38695 -0.747907,1.66882 -0.910993,1.76942 -0.08627,0.0532 -0.521478,0.19608 -0.967138,0.3175 -0.847184,0.23079 -1.541829,0.28535 -1.638647,0.1287 -0.03129,-0.0506 -0.132248,-0.0723 -0.224357,-0.0482 -0.139943,0.0366 -0.159383,0.0116 -0.118263,-0.15227 0.06707,-0.26723 -0.12998,-0.42989 -0.367076,-0.303 -0.209876,0.11232 -0.22361,0.0257 -0.03795,-0.2394 0.174995,-0.24984 0.04895,-0.41042 -0.212375,-0.27057 -0.140825,0.0754 -0.178423,0.0712 -0.178423,-0.0197 0,-0.13857 0.351173,-0.4834 0.49229,-0.4834 0.05521,0 0.100377,-0.0335 0.100377,-0.0744 0,-0.18687 0.693256,-0.31949 1.797446,-0.34384 0.179866,-0.004 0.267367,-0.0762 0.394617,-0.32559 0.191412,-0.3752 0.77127,-2.01443 0.77127,-2.18034 0,-0.0626 -0.257175,-0.39266 -0.5715,-0.73351 -0.314325,-0.34086 -0.749621,-0.82498 -0.967324,-1.07583 l -0.395824,-0.45608 -0.138835,0.32996 c -0.339741,0.80744 -0.204674,1.31963 0.429207,1.62759 0.445403,0.21639 0.470595,0.31535 0.09911,0.38931 -0.151341,0.0301 -0.389466,0.14993 -0.529166,0.26623 -0.229948,0.19143 -0.23997,0.2196 -0.105834,0.29751 0.22983,0.1335 0.177011,0.27789 -0.168471,0.46057 -0.550431,0.29103 -0.9149,0.68869 -1.201895,1.31133 -0.15176,0.32925 -0.36133,0.65459 -0.465713,0.72299 -0.259296,0.16989 -1.707083,0.54256 -2.115421,0.54451 -0.185768,8.9e-4 -0.397095,-0.0573 -0.479789,-0.13216 -0.116276,-0.10523 -0.185402,-0.11362 -0.324167,-0.0394 -0.20146,0.10782 -0.233413,0.0146 -0.08806,-0.25705 0.110561,-0.20658 -0.07723,-0.30438 -0.327391,-0.1705 -0.144824,0.0775 -0.161618,0.0667 -0.123397,-0.0795 0.02433,-0.093 0.07774,-0.18988 0.11869,-0.21519 0.04095,-0.0253 0.07445,-0.10567 0.07445,-0.1786 0,-0.10216 -0.05828,-0.12093 -0.254,-0.0818 -0.143282,0.0286 -0.254,0.0148 -0.254,-0.0318 0,-0.10992 0.315399,-0.42122 0.426761,-0.42122 0.04845,0 0.191595,-0.0765 0.318095,-0.17005 0.219703,-0.16243 0.389543,-0.18647 1.721824,-0.2437 0.201915,-0.009 0.263997,-0.10507 0.656167,-1.01882 0.238234,-0.55507 0.433153,-1.07335 0.433153,-1.15172 0,-0.0784 -0.170735,-0.33239 -0.379409,-0.56449 -0.208676,-0.2321 -0.552881,-0.68293 -0.764903,-1.00186 -0.377025,-0.56713 -0.391006,-0.57794 -0.63659,-0.49233 -0.293951,0.10247 -0.284167,0.0728 -0.124801,0.37879 l 0.126296,0.24251 -0.528463,0.0487 c -0.290655,0.0268 -0.642764,0.11113 -0.782463,0.1874 -0.510014,0.27847 -0.50838,0.27555 -0.301288,0.53872 l 0.189766,0.24116 -0.332342,0.0964 c -0.439232,0.12739 -0.792549,0.31439 -0.975086,0.51609 -0.142761,0.15775 -0.140279,0.16791 0.0637,0.26085 0.116737,0.0532 0.21225,0.13235 0.21225,0.1759 0,0.0436 -0.238797,0.21274 -0.53066,0.37596 -1.171617,0.65521 -1.85386,1.46279 -2.342657,2.77303 -0.25054,0.67159 -0.429825,0.80448 -1.406637,1.04262 -1.056222,0.2575 -1.470549,0.31092 -1.701549,0.2194 z m 1.618808,-0.47734 c 0.464368,-0.11386 0.904912,-0.26187 0.978987,-0.32891 0.07408,-0.067 0.198071,-0.32298 0.275546,-0.56876 0.07748,-0.24578 0.583005,-1.17025 1.123398,-2.05438 1.581516,-2.5875 1.591072,-2.60685 1.526805,-3.09132 l -0.05505,-0.41501 0.489339,-0.14168 c 2.387357,-0.69125 4.951664,-1.46227 4.989654,-1.50026 0.02564,-0.0256 -0.01441,-0.13377 -0.08901,-0.24027 -0.163135,-0.23291 -0.175196,-0.40997 -0.02793,-0.40997 0.214486,0 0.766348,0.54902 1.141738,1.13587 0.542518,0.84812 1.040102,1.48057 1.984941,2.52295 l 0.822271,0.90716 -0.132841,0.44751 c -0.215839,0.7271 -0.54373,1.60422 -0.760743,2.03501 -0.194534,0.38616 -0.217697,0.40258 -0.582169,0.41275 -0.208765,0.006 -0.417673,0.0201 -0.46424,0.0317 -0.04657,0.0116 -0.265641,0.0265 -0.486833,0.033 -0.484116,0.0143 -0.570134,0.0643 -0.646439,0.37588 -0.05133,0.20959 -0.03831,0.23312 0.103937,0.18798 0.187767,-0.0596 0.326481,0.18215 0.185444,0.32319 -0.160812,0.16081 -0.09004,0.21268 0.221263,0.16216 0.297464,-0.0483 0.307141,-0.0419 0.26574,0.17466 -0.03552,0.18584 -0.01201,0.22474 0.135796,0.22469 0.333944,-8e-5 1.786736,-0.43575 1.927638,-0.57802 0.07712,-0.0779 0.320471,-0.56068 0.540787,-1.07292 0.402821,-0.93656 1.173687,-2.50108 1.454208,-2.9514 0.15041,-0.24145 0.150159,-0.24253 -0.09873,-0.42333 -0.836132,-0.60741 -0.907649,-0.8204 -0.984813,-2.93293 -0.03886,-1.06385 -0.111258,-1.91033 -0.187045,-2.18692 -0.08845,-0.3228 -0.09656,-0.45887 -0.02847,-0.47804 0.05235,-0.0148 0.474684,-0.0726 0.93852,-0.12852 1.409812,-0.17004 2.358364,-0.52363 2.822334,-1.05206 0.322849,-0.3677 0.415454,-0.8047 0.278844,-1.31585 -0.133152,-0.49821 -0.356644,-0.72702 -0.879831,-0.9008 -0.629136,-0.20896 -1.415374,-0.11351 -2.848896,0.34586 -0.657392,0.21067 -1.584479,0.44421 -2.060191,0.51898 -1.210359,0.19023 -2.845856,0.19366 -3.462877,0.007 -0.769111,-0.23236 -1.044937,-0.71246 -0.791131,-1.37704 0.229884,-0.60194 0.415469,-0.66188 2.161409,-0.69803 0.814917,-0.0169 1.514332,-0.062 1.554256,-0.10024 0.183437,-0.17579 -0.334055,-0.24418 -1.730283,-0.22865 -1.69938,0.0189 -1.999079,0.10846 -2.346308,0.70122 -0.28428,0.48529 -0.231781,1.20201 0.114744,1.56649 0.49887,0.52472 1.118183,0.67975 2.703924,0.67685 1.350353,-0.002 2.680548,-0.21766 4.021667,-0.65061 0.834075,-0.26926 1.091619,-0.31546 1.796401,-0.32227 0.733418,-0.007 0.842432,0.0117 1.004165,0.17307 0.249942,0.24937 0.314661,0.86533 0.121842,1.15961 -0.355546,0.54264 -1.892393,0.9382 -3.515075,0.90474 -1.352858,-0.0279 -2.928405,-0.0305 -4.572,-0.008 -1.399479,0.0195 -2.412448,-0.066 -3.322911,-0.28046 l -0.48658,-0.11462 -0.09294,0.34515 c -0.05112,0.18983 -0.265074,0.68789 -0.47546,1.10679 -0.242745,0.48334 -0.385144,0.8809 -0.389699,1.08799 -0.0067,0.30566 -0.02088,0.3231 -0.223295,0.27504 -0.118864,-0.0282 -0.320891,-0.12685 -0.44895,-0.21918 l -0.232833,-0.16787 -0.0019,0.70103 c -0.0014,0.51889 -0.04619,0.79876 -0.172489,1.07716 -0.282012,0.62166 -0.315339,0.63548 -0.628451,0.26071 -0.152751,-0.18283 -0.30131,-0.30884 -0.330131,-0.28002 -0.02882,0.0288 -0.0524,0.22927 -0.0524,0.44544 0,0.30014 -0.07138,0.51193 -0.302018,0.89606 -0.166109,0.27666 -0.393491,0.59908 -0.505293,0.71649 -0.1492,0.15669 -0.284988,0.53959 -0.510431,1.43934 -0.168936,0.67422 -0.420573,1.52113 -0.559194,1.88202 l -0.252038,0.65617 h -0.792668 c -0.899652,0 -1.227021,0.0879 -1.227021,0.32952 0,0.0904 -0.04762,0.18359 -0.105833,0.20708 -0.05821,0.0235 0.0032,0.0457 0.136422,0.0494 0.227789,0.006 0.239099,0.0235 0.189385,0.28851 -0.05171,0.27565 -0.04711,0.28099 0.209705,0.2433 0.234108,-0.0344 0.260753,-0.0167 0.245744,0.16267 -0.0093,0.11066 -0.01262,0.22882 -0.0075,0.26258 0.0116,0.076 0.321037,0.0224 1.404011,-0.24315 z m 7.749361,-0.83789 c 0.442383,-0.11819 0.868396,-0.28002 0.946696,-0.35962 0.0783,-0.0796 0.441579,-0.72438 0.807287,-1.43285 0.365707,-0.70847 0.749318,-1.39302 0.852469,-1.52121 0.224038,-0.27843 0.225773,-0.30015 0.051,-0.63813 -0.166314,-0.32162 -0.113148,-0.84674 0.13497,-1.33309 0.094,-0.18427 0.170916,-0.38576 0.170916,-0.44777 0,-0.062 -0.168995,-0.2786 -0.375545,-0.48132 l -0.375545,-0.36857 -0.717252,0.0447 c -0.8702,0.0543 -0.944973,0.09 -0.764645,0.36522 0.07469,0.11399 0.102839,0.21025 0.06256,0.21392 -0.04028,0.004 -0.311362,0.001 -0.602404,-0.006 -0.291042,-0.007 -0.529024,0.0187 -0.52885,0.0568 7.62e-4,0.17399 1.121929,1.70369 1.353599,1.84687 0.178421,0.11027 0.07076,0.59891 -0.351363,1.59473 -0.24023,0.56672 -0.463327,1.06109 -0.495771,1.0986 -0.03244,0.0375 -0.359767,0.0677 -0.727386,0.0671 -0.768521,-0.001 -1.303396,0.11544 -1.303396,0.28436 0,0.0642 -0.02206,0.1743 -0.04902,0.24456 -0.03675,0.0958 -0.0052,0.11629 0.125972,0.082 0.221637,-0.058 0.325721,0.17482 0.165355,0.36981 -0.104422,0.12697 -0.08843,0.13488 0.169441,0.0838 0.277758,-0.055 0.283832,-0.0502 0.247497,0.19739 -0.03317,0.22597 -0.01333,0.25377 0.18092,0.25358 0.119994,-8e-5 0.58012,-0.0969 1.022503,-0.21511 z m -9.482666,-6.46035 c 0.256117,-0.0803 0.461857,-0.19227 0.4572,-0.24883 -0.0047,-0.0566 -0.01418,-0.42553 -0.02117,-0.81994 l -0.0127,-0.71712 -0.308148,0.20912 c -0.456502,0.30979 -0.578679,0.27857 -0.591927,-0.15124 -0.0077,-0.25146 -0.141075,-0.6111 -0.444155,-1.19812 -0.361094,-0.69938 -0.521095,-0.91204 -0.962592,-1.27943 -0.843187,-0.70166 -0.895058,-0.78366 -1.318889,-2.08483 -0.346977,-1.06524 -0.416901,-1.21224 -0.565289,-1.18845 -0.09313,0.0149 -0.264583,0.0386 -0.381,0.0526 -0.116416,0.014 -0.227096,0.0303 -0.245955,0.0363 -0.01886,0.006 0.0325,0.0847 0.114127,0.17492 0.193902,0.21426 0.09013,0.36953 -0.216864,0.32447 -0.297031,-0.0436 -0.335758,0.16422 -0.07464,0.40053 0.226108,0.20462 0.213767,0.36662 -0.03264,0.42847 -0.281073,0.0705 -0.204267,0.29201 0.244841,0.70598 0.199619,0.184 0.471661,0.52679 0.604538,0.76175 0.411522,0.72766 1.894735,3.23015 2.376302,4.0093 0.516623,0.83587 0.542368,0.84678 1.378961,0.58449 z m 3.208272,-2.60621 c 0.227634,-0.0455 0.2792,-0.10522 0.356674,-0.4129 0.05737,-0.22782 0.177879,-0.42423 0.32873,-0.53576 0.198754,-0.14695 0.234312,-0.22922 0.214901,-0.49727 -0.02834,-0.39127 0.03872,-0.52948 0.546058,-1.12552 0.544867,-0.64012 0.545578,-0.64216 0.33948,-0.97563 l -0.182452,-0.29522 0.218835,-0.26007 c 0.273682,-0.32525 0.274407,-0.4532 0.0041,-0.72351 -0.180412,-0.18042 -0.265139,-0.20623 -0.530002,-0.16148 -0.246644,0.0417 -0.434863,-0.002 -0.86476,-0.19983 l -0.549497,-0.2531 -0.223672,0.26647 -0.223673,0.26647 -0.224128,-0.26636 -0.224128,-0.26636 -0.567407,0.25458 c -0.426772,0.19148 -0.637541,0.24142 -0.850368,0.20149 -0.602972,-0.11311 -0.933074,0.49434 -0.512126,0.94241 l 0.180163,0.19178 -0.182802,0.30983 c -0.205797,0.3488 -0.246793,0.25258 0.477839,1.12152 0.402951,0.4832 0.445303,0.57312 0.445303,0.94544 0,0.34494 0.03538,0.43722 0.218895,0.5709 0.125808,0.0917 0.244226,0.28331 0.278462,0.45071 0.03835,0.18751 0.133785,0.3288 0.267938,0.39669 0.225135,0.11393 0.830017,0.14024 1.257643,0.0547 z m -1.387061,-0.70736 c -0.02225,-0.036 0.07911,-0.0894 0.22526,-0.11861 0.364613,-0.0729 0.493529,-0.19952 0.493529,-0.48464 0,-0.19092 -0.07531,-0.29217 -0.354419,-0.47647 l -0.35442,-0.23403 0.650753,-0.0247 0.650752,-0.0247 v -0.8431 -0.84311 l 0.486834,0.002 0.486833,0.002 -0.403528,0.25339 c -0.325276,0.20426 -0.395918,0.29014 -0.364286,0.44289 0.02158,0.10423 0.06161,0.39905 0.08896,0.65517 l 0.04971,0.46566 -0.383929,0.23075 c -0.284872,0.17122 -0.38393,0.28323 -0.38393,0.43414 0,0.25384 0.133427,0.36717 0.556964,0.47308 0.330415,0.0826 0.329968,0.0829 -0.0913,0.0464 -0.232834,-0.0202 -0.461434,-0.0421 -0.508,-0.0487 -0.04657,-0.007 -0.246815,0.0264 -0.444996,0.0734 -0.198182,0.047 -0.378539,0.0561 -0.400793,0.0201 z m -0.254878,-2.84434 c -0.354598,-0.21181 -0.350677,-0.21912 0.127,-0.23658 0.332729,-0.0122 0.421965,0.0608 0.360748,0.29487 -0.05114,0.19554 -0.06571,0.1938 -0.487748,-0.0583 z m 12.086166,-5.75101 0.486833,-0.19172 0.511313,0.20653 c 1.526934,0.61675 3.335007,-0.10137 4.026741,-1.59934 0.216478,-0.46878 0.245613,-0.62728 0.245613,-1.33621 0,-0.69213 -0.03112,-0.87071 -0.223111,-1.28016 -0.250764,-0.5348 -0.714661,-1.08685 -1.127944,-1.34227 -0.249751,-0.15436 -0.280719,-0.21891 -0.321668,-0.6705 -0.08746,-0.96458 -0.795933,-1.95339 -1.74371,-2.43371 -0.435987,-0.22095 -0.556765,-0.24236 -1.367234,-0.24236 -0.806766,0 -0.933535,0.0222 -1.370463,0.24014 -0.582851,0.29072 -1.278408,1.00354 -1.517894,1.55558 -0.09678,0.22309 -0.19665,0.62486 -0.221932,0.89283 -0.04123,0.437 -0.07445,0.50483 -0.322322,0.65802 -0.77969,0.48187 -1.317513,1.44391 -1.376458,2.46215 -0.05965,1.03032 0.257478,1.80103 1.035801,2.51733 0.89477,0.82347 2.101311,1.03041 3.286435,0.56369 z m -1.81168,-1.08611 c -0.878838,-0.32834 -1.401347,-1.19774 -1.260912,-2.09804 0.06855,-0.43944 0.252487,-0.81523 0.513519,-1.04912 0.188693,-0.16907 0.188797,-0.16907 0.283505,1.7e-4 0.05211,0.0931 0.349422,0.42265 0.660695,0.73225 0.507288,0.50457 0.574999,0.61186 0.653229,1.03505 0.048,0.25966 0.170137,0.66473 0.271412,0.90015 0.101274,0.23542 0.163905,0.44826 0.139181,0.47299 -0.109325,0.10933 -0.973488,0.11379 -1.260629,0.007 z m 3.505013,0.0577 c -0.234342,-0.051 -0.234735,-0.0318 0.01348,-0.65806 0.112188,-0.28305 0.216963,-0.68609 0.232834,-0.89564 0.02434,-0.32134 0.07526,-0.41529 0.325187,-0.59996 0.309233,-0.22849 0.820637,-0.77818 0.984072,-1.05775 0.09345,-0.15985 0.09836,-0.15973 0.287459,0.007 0.486927,0.42858 0.673605,1.48486 0.374001,2.11623 -0.174253,0.36721 -0.549933,0.75926 -0.902043,0.94134 -0.26602,0.13757 -0.987929,0.21834 -1.314989,0.14713 z m -1.36755,-1.31233 c -0.119954,-0.3441 -0.126533,-0.32604 0.118717,-0.32604 0.21691,0 0.273813,0.16287 0.160275,0.45874 -0.07924,0.2065 -0.176949,0.16002 -0.278992,-0.1327 z m -1.273182,-2.15802 -0.191486,-0.24235 0.218034,-0.0266 c 0.119918,-0.0146 0.273821,0.005 0.342006,0.0428 0.106528,0.0596 0.102792,0.0975 -0.02655,0.26893 l -0.150519,0.19955 z m 2.47085,-0.0291 c -0.09351,-0.14974 -0.07976,-0.17327 0.1278,-0.21874 0.12792,-0.028 0.280207,-0.0656 0.338416,-0.0836 0.139842,-0.0431 0.133511,0.0105 -0.0309,0.26139 -0.165386,0.25241 -0.295585,0.26465 -0.435312,0.0409 z m -1.252518,-1.17563 c -0.161066,-0.14701 -0.924924,-0.34992 -1.317271,-0.34992 h -0.402341 l 0.07371,-0.25701 c 0.201175,-0.70145 0.736635,-1.19252 1.482277,-1.35939 0.830283,-0.18581 1.803749,0.30761 2.12533,1.07726 0.197174,0.47191 0.168029,0.51158 -0.412303,0.56122 -0.291041,0.0249 -0.700616,0.12452 -0.910166,0.2214 -0.425509,0.19671 -0.522615,0.21288 -0.639234,0.10644 z m -12.201872,5.05985 c 1.130148,-0.29132 2.580245,-0.33223 4.226273,-0.11925 l 0.486833,0.063 v -3.72603 c 0,-3.05895 -0.02056,-3.73392 -0.114863,-3.77011 -0.06318,-0.0242 -0.56722,-0.0907 -1.1201,-0.14772 -1.327096,-0.13682 -2.588993,-0.0639 -3.499133,0.20209 -0.661927,0.19349 -0.736949,0.19953 -1.058333,0.0852 -0.648425,-0.23063 -1.498811,-0.36763 -2.277606,-0.36694 -0.732393,6.8e-4 -2.070385,0.11469 -2.492131,0.2124 l -0.1905,0.0441 v 3.75013 3.75014 l 0.613833,-0.10944 c 1.23122,-0.21951 3.602781,-0.0987 4.405629,0.2244 0.26172,0.10533 0.250573,0.10633 1.020098,-0.092 z m -2.22956,-2.58833 c -0.349686,-0.11486 -0.6191,-0.12517 -2.114815,-0.081 -0.293389,0.009 -0.38551,-0.021 -0.407275,-0.13125 -0.04604,-0.23318 0.279765,-0.33306 1.236948,-0.37923 0.735655,-0.0355 0.99871,-0.014 1.411621,0.11536 0.514325,0.1611 0.701762,0.38562 0.453351,0.54305 -0.135566,0.0859 -0.103021,0.0897 -0.57983,-0.0669 z m 2.552836,0.0669 c -0.24849,-0.15748 -0.06099,-0.38195 0.453351,-0.54275 0.406802,-0.12718 0.685115,-0.15099 1.402884,-0.12003 0.945117,0.0408 1.292266,0.14767 1.245685,0.3836 -0.02181,0.11044 -0.113322,0.13968 -0.407275,0.13013 -1.382747,-0.0449 -1.77024,-0.0286 -2.157148,0.0912 -0.232833,0.072 -0.423333,0.13083 -0.423333,0.13062 0,-1.7e-4 -0.05137,-0.0329 -0.114164,-0.0727 z m -2.849169,-1.25302 c -0.412681,-0.10351 -0.647682,-0.11079 -1.252428,-0.0388 -0.823165,0.098 -0.991239,0.0701 -0.991239,-0.16472 0,-0.18814 0.152835,-0.23442 1.060579,-0.32113 1.064938,-0.10172 2.202903,0.15078 2.14138,0.47515 -0.03704,0.19528 -0.318974,0.20984 -0.958292,0.0495 z m 2.783839,0.0197 c -0.07535,-0.19635 0.03044,-0.28711 0.500631,-0.42948 0.415271,-0.12575 1.593345,-0.17767 2.028705,-0.0894 0.616788,0.12503 0.655824,0.14263 0.655824,0.29572 0,0.23155 -0.134847,0.25275 -0.996083,0.1566 -0.644667,-0.072 -0.868653,-0.0633 -1.325409,0.0515 -0.675336,0.16964 -0.803512,0.17188 -0.863668,0.0151 z m -2.614506,-1.10913 c -0.465321,-0.13116 -1.13477,-0.14868 -1.758634,-0.046 -0.448792,0.0738 -0.718393,-0.0416 -0.630721,-0.27006 0.108825,-0.28359 1.900396,-0.36024 2.712229,-0.11604 0.424095,0.12757 0.488535,0.17388 0.465666,0.33463 -0.0329,0.23125 -0.228294,0.25541 -0.78854,0.0975 z m 2.638778,0.075 c -0.325659,-0.32566 0.488361,-0.66101 1.594555,-0.6569 0.91368,0.003 1.479387,0.10088 1.542688,0.26584 0.08767,0.22847 -0.181929,0.34391 -0.63072,0.27006 -0.633072,-0.10416 -1.293924,-0.0857 -1.800968,0.0504 -0.525092,0.14094 -0.625163,0.15095 -0.705555,0.0706 z m -2.554111,-1.18482 c -0.264061,-0.10032 -0.568153,-0.11876 -1.380401,-0.0837 -0.899949,0.0389 -1.048747,0.0267 -1.093257,-0.0893 -0.08863,-0.23096 0.209512,-0.34641 1.061482,-0.41107 0.992216,-0.0753 2.065506,0.13655 2.118529,0.41814 0.02936,0.1559 -0.114972,0.30849 -0.28302,0.29922 -0.04657,-0.003 -0.237067,-0.0626 -0.423333,-0.13333 z m 2.528284,0.0136 c -0.09879,-0.25744 0.05157,-0.3689 0.688997,-0.51071 0.49643,-0.11044 0.828854,-0.12989 1.438671,-0.0842 0.828457,0.0621 1.123154,0.1787 1.03465,0.40934 -0.0451,0.11754 -0.184622,0.12861 -1.063663,0.0844 -0.813517,-0.0409 -1.095317,-0.0235 -1.438254,0.0886 -0.524609,0.17159 -0.598814,0.173 -0.660401,0.0125 z m 38.64088,29.15551 c -0.27339,-0.0769 -0.3175,-0.12345 -0.3175,-0.33492 0,-0.26305 0.0809,-0.29888 0.34984,-0.15494 0.27283,0.14601 0.95928,0.128 1.20281,-0.0316 0.12326,-0.0808 0.25512,-0.27961 0.30534,-0.46045 0.14507,-0.52237 0.12268,-0.56439 -0.19582,-0.36754 -0.19407,0.11994 -0.42713,0.17624 -0.72962,0.17624 -0.40078,0 -0.47571,-0.0312 -0.7622,-0.31773 -0.86574,-0.86574 -0.2896,-2.55948 0.87102,-2.56062 0.3452,-3.4e-4 0.77869,0.18225 0.8493,0.35773 0.0238,0.0592 0.0463,0.0219 0.05,-0.0829 0.005,-0.15459 0.0555,-0.1905 0.26571,-0.1905 h 0.25904 l -0.0262,1.64507 c -0.0241,1.51308 -0.0404,1.66422 -0.20315,1.88383 -0.0973,0.13132 -0.28224,0.29036 -0.41094,0.35342 -0.30925,0.15153 -1.11032,0.19662 -1.50761,0.0848 z m 1.1966,-1.73457 c 0.59912,-0.41964 0.49586,-1.53784 -0.16738,-1.81256 -0.68029,-0.28179 -1.27946,0.75685 -0.88106,1.52729 0.22159,0.42849 0.66983,0.55046 1.04844,0.28527 z m 4.91546,1.68323 c -0.003,-0.0349 -0.003,-0.92075 -6.8e-4,-1.9685 l 0.004,-1.905 h 0.23351 c 0.15087,0 0.22508,0.0403 0.2097,0.11377 -0.0131,0.0626 0.006,0.0987 0.0423,0.0802 0.5251,-0.26648 0.77762,-0.33437 1.10603,-0.29736 0.65514,0.0739 1.03445,0.60849 1.03445,1.45806 0,0.88353 -0.38172,1.39345 -1.09439,1.46193 -0.32783,0.0315 -0.48981,9.4e-4 -0.72243,-0.13631 l -0.29984,-0.17691 v 0.71681 0.71681 h -0.254 c -0.1397,0 -0.2563,-0.0286 -0.25911,-0.0635 z m 1.72621,-1.6335 c 0.23735,-0.18671 0.36286,-0.61049 0.32489,-1.097 -0.0609,-0.78022 -0.78626,-1.08015 -1.29713,-0.53635 -0.16624,0.17695 -0.19853,0.30087 -0.19853,0.76178 0,0.5147 0.018,0.56651 0.2765,0.79751 0.32534,0.2907 0.5909,0.31269 0.89427,0.0741 z m -22.246418,0.40933 c -0.963453,-0.56245 -0.944062,-2.09325 0.03275,-2.58583 0.207768,-0.10478 0.512568,-0.18966 0.677328,-0.18864 0.42351,0.003 0.95974,0.26946 1.18924,0.59176 0.42754,0.60043 0.27116,1.64575 -0.31285,2.0912 -0.42125,0.32131 -1.12346,0.36181 -1.586473,0.0915 z m 1.272118,-0.5242 c 0.24838,-0.24838 0.28782,-0.34418 0.28755,-0.6985 -7.6e-4,-1.04266 -0.97071,-1.49545 -1.508527,-0.70423 -0.165408,0.24333 -0.193265,0.37213 -0.162722,0.75232 0.03087,0.38419 0.08046,0.49768 0.305211,0.6985 0.374988,0.33505 0.710298,0.3201 1.078488,-0.0481 z m 5.13503,0.6239 c -0.19322,-0.0777 -0.24465,-0.28893 -0.11868,-0.48748 0.0522,-0.0822 0.1262,-0.0875 0.30055,-0.0212 0.59196,0.22506 1.2363,-0.0335 1.2363,-0.49611 0,-0.28169 -0.22994,-0.50703 -0.81715,-0.8008 -0.58722,-0.29378 -0.79152,-0.56817 -0.79152,-1.06306 0,-0.46405 0.14173,-0.69685 0.53903,-0.88538 0.29266,-0.13888 0.94472,-0.18053 1.30703,-0.0835 0.15063,0.0403 0.18919,0.10274 0.16933,0.27401 -0.0249,0.21465 -0.0414,0.22081 -0.51457,0.19218 -0.57024,-0.0345 -0.90815,0.12924 -0.90815,0.44011 0,0.2436 0.25488,0.48137 0.81807,0.76313 0.57827,0.28931 0.79059,0.5955 0.79059,1.14008 0,0.73462 -0.50188,1.12147 -1.43933,1.10942 -0.20955,-0.003 -0.46672,-0.0394 -0.5715,-0.0815 z m 11.21443,-0.0478 c -0.41284,-0.22385 -0.52934,-0.86073 -0.22761,-1.24432 0.20975,-0.26665 0.63028,-0.41278 1.23382,-0.42876 0.50056,-0.0132 0.5706,-0.11029 0.32876,-0.45557 -0.17813,-0.25431 -0.61395,-0.32165 -1.01022,-0.15607 -0.41063,0.17157 -0.40025,0.17435 -0.3688,-0.099 0.0215,-0.18723 0.0931,-0.2549 0.36545,-0.3455 0.47485,-0.15798 1.09801,-0.0861 1.35614,0.15638 0.24679,0.23185 0.28213,0.41935 0.31492,1.67079 l 0.025,0.9525 h -0.27652 c -0.15208,0 -0.272,-0.0286 -0.26648,-0.0635 0.0284,-0.17974 -0.0305,-0.18665 -0.23311,-0.0273 -0.26938,0.2119 -0.88785,0.232 -1.24132,0.0404 z m 1.07008,-0.3822 c 0.35346,-0.16105 0.54575,-0.82476 0.24616,-0.84964 -0.35097,-0.0292 -0.75455,0.0351 -0.93134,0.14826 -0.24646,0.15778 -0.24764,0.49176 -0.002,0.66358 0.22256,0.15588 0.40619,0.16598 0.68751,0.0378 z m 5.71544,0.35129 c -0.66392,-0.36107 -0.93125,-1.32465 -0.56466,-2.03529 0.33642,-0.65215 1.16387,-0.93289 1.87448,-0.63597 0.9777,0.4085 1.10519,1.95802 0.21335,2.59307 -0.37849,0.26951 -1.103,0.3067 -1.52317,0.0782 z m 1.10583,-0.3803 c 0.7108,-0.36757 0.53546,-1.77963 -0.2422,-1.95043 -0.59598,-0.1309 -1.05091,0.38787 -0.99548,1.13516 0.0286,0.38617 0.0765,0.49665 0.30238,0.6985 0.29816,0.26641 0.5783,0.30139 0.9353,0.11677 z m 4.41207,0.39804 c -0.57652,-0.28965 -0.87578,-1.0683 -0.68413,-1.78003 0.1896,-0.70413 0.76513,-1.10299 1.45754,-1.01012 0.62957,0.0845 0.93346,0.42784 1.04666,1.18273 l 0.0601,0.40106 h -1.02561 c -0.57969,0 -1.02562,0.0344 -1.02562,0.0791 0,0.2292 0.19675,0.53272 0.44239,0.68249 0.32065,0.1955 0.5734,0.20765 1.01811,0.049 l 0.3175,-0.11331 v 0.24612 c 0,0.18629 -0.0528,0.26619 -0.21718,0.32869 -0.34483,0.13111 -1.0659,0.097 -1.3898,-0.0657 z m 1.26832,-1.76321 c 0,-0.17025 -0.45422,-0.62849 -0.62298,-0.62849 -0.27425,0 -0.56005,0.17328 -0.6853,0.41549 -0.0721,0.13939 -0.13106,0.27438 -0.13106,0.29998 0,0.0256 0.32385,0.0465 0.71967,0.0465 0.59886,0 0.71967,-0.0224 0.71967,-0.13351 z m -28.02467,0.64151 v -1.18533 h -0.33867 c -0.3048,0 -0.33866,-0.0212 -0.33866,-0.21167 0,-0.18937 0.0346,-0.21166 0.32818,-0.21166 h 0.32818 l 0.0391,-0.47117 c 0.0294,-0.35488 0.0895,-0.51952 0.24332,-0.66709 0.25782,-0.24731 0.78912,-0.33911 0.96203,-0.1662 0.17707,0.17707 0.0688,0.37312 -0.20614,0.37312 -0.30268,0 -0.44359,0.17654 -0.45657,0.57198 -0.0103,0.31433 -0.007,0.31724 0.34943,0.34306 0.31547,0.0228 0.35983,0.0509 0.35983,0.22796 0,0.17533 -0.0452,0.20536 -0.34344,0.22797 l -0.34344,0.026 -0.006,1.05704 c -0.003,0.58137 -0.024,1.10525 -0.0466,1.16417 -0.0226,0.0589 -0.15134,0.10713 -0.28606,0.10713 h -0.24494 z m 6.01133,-0.21166 v -1.40773 l 0.25582,0.0265 0.25581,0.0265 0.0153,1.35467 0.0153,1.35466 -0.27113,0.0265 -0.27113,0.0265 z m 1.45085,0 -0.0233,-1.397 h 0.30223 c 0.24926,0 0.30223,0.0307 0.30223,0.17538 0,0.1632 0.01,0.16565 0.14014,0.0352 0.31256,-0.31256 0.8832,-0.38341 1.31007,-0.16267 0.39425,0.20388 0.49713,0.56133 0.49713,1.72733 v 1.01872 h -0.254 -0.254 l -0.005,-0.86784 c -0.003,-0.47731 -0.0503,-0.99832 -0.10583,-1.1578 -0.18716,-0.53706 -0.82813,-0.53003 -1.15903,0.0127 -0.13987,0.2294 -0.16911,0.42714 -0.16938,1.14511 l -3.2e-4,0.86784 h -0.27892 -0.27892 z m 16.58315,0 v -1.397 h 0.254 c 0.20116,0 0.254,0.0368 0.254,0.17686 0,0.17019 0.01,0.1686 0.2605,-0.0423 0.16923,-0.14239 0.36204,-0.21919 0.55033,-0.21919 0.2656,0 0.28984,0.0212 0.28984,0.254 0,0.2313 -0.0252,0.254 -0.28158,0.254 -0.30895,0 -0.58437,0.23433 -0.69657,0.59267 -0.0365,0.11641 -0.0581,0.4904 -0.0481,0.83108 0.0238,0.81394 -0.0231,0.94692 -0.33409,0.94692 h -0.2483 z m -18.01794,-2.30717 c 0.024,-0.29049 0.0479,-0.3175 0.28028,-0.3175 0.23239,0 0.25623,0.027 0.28027,0.3175 0.0259,0.31327 0.0222,0.3175 -0.28027,0.3175 -0.30247,0 -0.30621,-0.004 -0.28028,-0.3175 z m 36.27772,-1.60161 c -0.031,-0.031 -0.0565,-0.14979 -0.0565,-0.26388 0,-0.17012 0.0325,-0.19892 0.18079,-0.16015 0.21795,0.057 0.66588,-0.34897 0.66588,-0.6035 0,-0.12932 -0.62386,-1.94006 -0.97566,-2.83186 -0.049,-0.12421 -0.01,-0.14817 0.24108,-0.14817 h 0.29953 l 0.36211,1.0972 c 0.19916,0.60345 0.38277,1.07705 0.40803,1.05243 0.0252,-0.0246 0.20127,-0.50883 0.39114,-1.07603 0.33869,-1.01173 0.35032,-1.03177 0.61383,-1.05779 0.14774,-0.0146 0.26861,-0.009 0.26861,0.0113 0,0.10184 -1.14169,3.18894 -1.28093,3.46361 -0.088,0.17366 -0.2721,0.37369 -0.40904,0.4445 -0.25894,0.1339 -0.61137,0.16985 -0.70892,0.0723 z m -41.80659,-1.25586 c -0.47026,-0.25558 -0.53117,-1.05653 -0.10578,-1.39114 0.23238,-0.18279 0.62169,-0.28062 1.1698,-0.29395 0.42191,-0.0103 0.49138,-0.20572 0.1828,-0.5143 -0.24413,-0.24413 -0.51769,-0.26897 -0.95407,-0.0866 -0.38547,0.16106 -0.36794,0.1653 -0.36794,-0.089 0,-0.26572 0.40511,-0.46197 0.94978,-0.4601 0.42987,0.001 0.71022,0.13046 0.93139,0.42847 0.13782,0.18571 0.16414,0.38345 0.17749,1.33355 l 0.0157,1.11551 -0.23284,-5e-5 c -0.15062,-4e-5 -0.23283,-0.045 -0.23283,-0.12722 0,-0.10555 -0.0537,-0.0984 -0.31625,0.0423 -0.36646,0.19642 -0.8998,0.21505 -1.21723,0.0425 z m 1.05449,-0.39037 c 0.23381,-0.10652 0.39432,-0.4021 0.39432,-0.7261 0,-0.21434 -0.0102,-0.21828 -0.43404,-0.16807 -0.23872,0.0283 -0.52447,0.11065 -0.635,0.18307 -0.25641,0.16801 -0.26268,0.49827 -0.0128,0.67331 0.22255,0.15588 0.40618,0.16597 0.6875,0.0378 z m 2.28781,0.31744 c -0.23843,-0.2049 -0.24296,-0.22549 -0.27074,-1.23191 l -0.0283,-1.02352 h -0.28924 c -0.25208,0 -0.28925,-0.0272 -0.28925,-0.21167 0,-0.18546 0.0367,-0.21167 0.29634,-0.21167 0.28804,0 0.29633,-0.009 0.29633,-0.33038 0,-0.29445 0.029,-0.34049 0.26663,-0.42333 0.14665,-0.0511 0.28,-0.093 0.29634,-0.093 0.0163,0 0.0297,0.1905 0.0297,0.42333 v 0.42333 h 0.36406 c 0.3319,0 0.36407,0.0187 0.36407,0.21167 0,0.19296 -0.0322,0.21167 -0.36407,0.21167 h -0.36406 v 0.88295 c 0,1.00993 0.0912,1.20278 0.52738,1.11554 0.22746,-0.0455 0.24369,-0.0319 0.21898,0.18268 -0.0243,0.2111 -0.0618,0.2341 -0.41921,0.25724 -0.31731,0.0205 -0.43897,-0.0145 -0.635,-0.18298 z m 3.94851,0.13881 c -0.53453,-0.20085 -0.93133,-0.80026 -0.93133,-1.40686 0,-1.00289 0.72063,-1.61841 1.70961,-1.46027 0.46466,0.0743 0.81662,0.34003 1.00773,0.76084 0.46656,1.02733 -0.21218,2.1741 -1.27801,2.1593 -0.20955,-0.003 -0.43815,-0.0268 -0.508,-0.053 z m 0.91298,-0.49438 c 0.83704,-0.58628 0.37119,-2.14986 -0.57839,-1.9413 -0.4004,0.0879 -0.61594,0.40701 -0.65683,0.97234 -0.0351,0.48557 -0.025,0.51684 0.26138,0.80317 0.33127,0.33126 0.65814,0.38691 0.97384,0.16579 z m 5.37846,0.46999 c -0.499,-0.201 -0.6249,-0.96355 -0.22507,-1.36317 0.26135,-0.26121 0.90832,-0.43503 1.3208,-0.35486 0.21223,0.0412 0.23283,0.0228 0.23283,-0.20825 0,-0.13943 -0.0537,-0.29812 -0.11944,-0.35264 -0.20485,-0.17 -0.67404,-0.2001 -0.99951,-0.0641 -0.32783,0.13697 -0.40505,0.11478 -0.40505,-0.11642 0,-0.1796 0.55826,-0.41841 0.9781,-0.41841 0.16354,0 0.43084,0.0558 0.594,0.12395 0.44116,0.18432 0.54457,0.51399 0.54457,1.73599 v 1.01872 h -0.254 c -0.16822,0 -0.254,-0.0425 -0.254,-0.12575 0,-0.10261 -0.0506,-0.0949 -0.27517,0.042 -0.28819,0.17572 -0.81281,0.21394 -1.13806,0.0829 z m 0.98392,-0.44494 c 0.28136,-0.14306 0.45886,-0.58214 0.31491,-0.779 -0.0852,-0.11654 -0.18074,-0.13409 -0.48275,-0.0887 -0.64585,0.0971 -0.92248,0.47114 -0.59251,0.8011 0.19678,0.19679 0.4591,0.21976 0.76035,0.0666 z m 5.51099,0.33992 c -0.6353,-0.32458 -0.72135,-0.59975 -0.72135,-2.3069 v -1.43907 l 0.26996,-2.5e-4 0.26996,-2.6e-4 0.0264,1.46764 0.0264,1.46764 0.2765,0.24686 c 0.32061,0.28624 0.79143,0.33236 1.1106,0.1088 0.35595,-0.24932 0.43323,-0.60179 0.43323,-1.97588 0,-0.7 0.0286,-1.27725 0.0635,-1.28279 0.0349,-0.006 0.15875,-0.0151 0.27517,-0.0212 l 0.21167,-0.0111 v 1.43934 c 0,1.28668 -0.0185,1.47525 -0.17424,1.778 -0.21825,0.42421 -0.75501,0.71966 -1.30743,0.71966 -0.23488,0 -0.53428,-0.075 -0.76032,-0.1905 z m 11.38323,0.0214 c -0.4427,-0.21914 -0.64393,-0.57262 -0.69248,-1.21642 -0.0326,-0.43211 -0.006,-0.582 0.16081,-0.89152 0.33545,-0.62415 1.03312,-0.8516 1.72519,-0.56244 0.34629,0.14469 0.62475,0.66255 0.62771,1.16735 l 0.002,0.3175 h -0.97367 c -0.90427,0 -0.97366,0.0116 -0.97366,0.16284 0,0.26374 0.40325,0.67239 0.72264,0.73231 0.26026,0.0488 0.43762,0.0144 0.90719,-0.17588 0.12159,-0.0493 0.14817,-0.0144 0.14817,0.19473 0,0.20964 -0.0472,0.27124 -0.26664,0.34772 -0.41246,0.14378 -1.00892,0.11102 -1.38712,-0.0762 z m 1.27162,-1.79936 c -0.0786,-0.27279 -0.4379,-0.5715 -0.68743,-0.5715 -0.23806,0 -0.70843,0.4173 -0.70843,0.62849 0,0.11118 0.12131,0.13351 0.72537,0.13351 0.71205,0 0.72436,-0.004 0.67049,-0.1905 z m 3.36664,1.90875 c -0.1477,-0.0285 -0.1905,-0.0945 -0.1905,-0.29386 0,-0.21124 0.0265,-0.2465 0.14816,-0.19744 0.36116,0.14561 0.7535,0.14529 0.89951,-7.6e-4 0.23882,-0.23882 0.13679,-0.4842 -0.29905,-0.71923 -0.5913,-0.31884 -0.74862,-0.4916 -0.74862,-0.82202 0,-0.37751 0.1181,-0.58547 0.42164,-0.74244 0.25084,-0.12971 0.80877,-0.17024 1.0531,-0.0765 0.078,0.0299 0.13392,0.15038 0.13392,0.28841 0,0.23163 -0.007,0.23495 -0.29553,0.14631 -0.39735,-0.12195 -0.72047,0.0194 -0.72047,0.31519 0,0.17434 0.0902,0.25778 0.50481,0.46709 0.53006,0.26757 0.68053,0.44366 0.68053,0.79639 0,0.68557 -0.63663,1.02194 -1.5875,0.8388 z m 4.20565,-0.18774 c -0.24489,-0.24488 -0.24749,-0.25774 -0.24749,-1.22255 v -0.97507 l -0.3175,-0.0263 c -0.2523,-0.0209 -0.3175,-0.061 -0.3175,-0.19561 0,-0.13456 0.0652,-0.17473 0.3175,-0.19561 0.30723,-0.0254 0.3175,-0.0368 0.3175,-0.35155 0,-0.28402 0.0317,-0.33631 0.24961,-0.41229 l 0.24959,-0.087 0.0256,0.39623 0.0256,0.39623 0.35984,0.026 c 0.31801,0.023 0.35983,0.0501 0.35983,0.23284 0,0.18926 -0.033,0.2068 -0.3887,0.2068 h -0.38871 l 0.0289,0.89596 c 0.0251,0.7782 0.0511,0.91243 0.19821,1.02126 0.10084,0.0746 0.26351,0.1069 0.40216,0.0798 0.20126,-0.0393 0.23284,-0.0183 0.23284,0.15501 0,0.39638 -0.72982,0.43315 -1.10718,0.0558 z m -44.443486,-1.78451 v -1.94733 h 0.332902 c 0.405894,0 0.409794,0.005 1.370434,1.76818 l 0.70966,1.30252 0.0231,-1.48369 0.0231,-1.48369 0.25581,-0.0376 c 0.1407,-0.0206 0.26969,-0.0151 0.28664,0.0123 0.017,0.0274 0.0248,0.88786 0.0174,1.91205 l -0.0134,1.86217 h -0.381 -0.381 l -0.79627,-1.4605 c -0.43795,-0.80328 -0.81895,-1.46055 -0.846667,-1.46061 -0.02772,-5e-5 -0.03917,0.6667 -0.02545,1.48167 l 0.02494,1.48177 h -0.300108 -0.300109 z m 9.228666,0.55033 v -1.397 h 0.254 0.254 v 1.397 1.397 h -0.254 -0.254 z m 4.826,0 v -1.397 h 0.254 c 0.20434,0 0.254,0.036 0.254,0.18409 0,0.18355 6.8e-4,0.18348 0.21849,-0.0212 0.18024,-0.16933 0.30589,-0.20526 0.71774,-0.20526 0.87248,0 1.09538,0.40631 1.06831,1.94733 l -0.0149,0.84667 -0.27517,0.0265 -0.27517,0.0265 v -1.02521 c 0,-0.98773 -0.008,-1.03316 -0.21728,-1.24249 -0.17465,-0.17465 -0.26907,-0.20692 -0.48127,-0.16448 -0.5665,0.1133 -0.73956,0.50618 -0.74031,1.68062 l -4.7e-4,0.74083 h -0.254 -0.254 z m 6.51933,-0.67733 v -2.07433 h 0.254 0.254 v 2.07433 2.07433 h -0.254 -0.254 z m 6.78485,0.67733 0.0233,-1.397 h 0.27892 c 0.22568,0 0.27892,0.0335 0.27892,0.17538 0,0.16321 0.01,0.16565 0.14014,0.0352 0.31012,-0.31012 0.88297,-0.38353 1.30197,-0.16686 0.42031,0.21735 0.50523,0.501 0.50523,1.6877 v 1.06253 h -0.254 -0.254 v -0.89172 c 0,-1.33473 -0.26712,-1.76773 -0.90393,-1.46529 -0.39457,0.18739 -0.53513,0.58954 -0.53528,1.53151 l -1.3e-4,0.8255 h -0.30223 -0.30224 z m 3.45982,0 v -1.397 l 0.27517,-5e-5 0.27516,-5e-5 v 1.39698 1.39698 l -0.27516,7e-5 -0.27517,7e-5 z m 2.07134,1.29117 c -0.022,-0.0582 -0.24546,-0.67733 -0.49655,-1.37583 l -0.45654,-1.27 0.21002,-0.0275 c 0.11552,-0.0151 0.25466,-0.0104 0.30921,0.0106 0.0546,0.0209 0.24958,0.50003 0.43341,1.06465 0.18382,0.56463 0.35707,1.02659 0.385,1.02659 0.0279,0 0.13917,-0.27623 0.2472,-0.61383 0.44454,-1.38919 0.50309,-1.50284 0.77432,-1.50284 0.13636,0 0.24792,0.0215 0.24792,0.0479 0,0.0263 -0.21512,0.65496 -0.47804,1.397 l -0.47805,1.34915 h -0.32894 c -0.18538,0 -0.34641,-0.0462 -0.36896,-0.10583 z m 5.26644,0.0494 c -0.0705,-0.0705 -0.0751,-2.42106 -0.005,-2.60363 0.0651,-0.16971 0.44599,-0.17544 0.51037,-0.008 0.0409,0.10661 0.0818,0.10002 0.26275,-0.0423 0.11788,-0.0927 0.34253,-0.16859 0.49924,-0.16859 0.25868,0 0.28491,0.0229 0.28491,0.24834 0,0.22045 -0.0282,0.24754 -0.25107,0.2412 -0.55231,-0.0157 -0.76493,0.41186 -0.76493,1.53826 v 0.85087 h -0.23988 c -0.13195,0 -0.2653,-0.0254 -0.29634,-0.0564 z m 4.34622,-1.34056 v -1.397 h 0.254 0.254 v 1.397 1.397 h -0.254 -0.254 z m -33.25283,-2.05049 c -0.11232,-0.0403 -0.15008,-0.52431 -0.0423,-0.54265 0.29549,-0.0503 0.45509,-0.0361 0.52362,0.0464 0.0821,0.0989 0.0771,0.34436 -0.009,0.43023 -0.0703,0.0703 -0.3512,0.10948 -0.47251,0.066 z m 21.67466,0.006 c -0.11245,-0.047 -0.14983,-0.53118 -0.0423,-0.54823 0.42344,-0.0671 0.48683,-0.0328 0.48683,0.26407 0,0.23454 -0.0353,0.29968 -0.16933,0.31238 -0.0931,0.009 -0.21696,-0.004 -0.27517,-0.0282 z m 11.62108,-0.0292 c -0.10674,-0.17271 -0.10527,-0.49938 0.002,-0.54071 0.0582,-0.0223 0.17654,-0.0272 0.26305,-0.0109 0.0865,0.0163 0.18585,0.0326 0.22077,0.0362 0.12295,0.0125 0.0677,0.51448 -0.0566,0.51448 -0.066,0 -0.17649,0.0216 -0.24544,0.0481 -0.069,0.0265 -0.15186,0.005 -0.18425,-0.0472 z m -18.5138,-4.10903 c -1.98478,-0.31422 -3.46255,-1.08356 -4.35064,-2.26498 -0.63529,-0.84512 -0.97571,-1.68815 -1.13601,-2.81325 -0.0496,-0.34818 -0.0851,-3.05772 -0.0861,-6.56819 l -0.002,-5.97553 1.778,-0.0148 1.778,-0.0148 0.003,5.65167 c 0.002,3.10842 0.0242,5.88028 0.05,6.15968 0.11636,1.25797 0.50973,2.20006 1.18552,2.83918 0.71903,0.68004 1.50635,0.94676 2.78306,0.94284 1.65735,-0.005 2.78543,-0.66697 3.39094,-1.98957 0.44828,-0.97917 0.45833,-1.14448 0.45992,-7.56108 l 0.001,-5.93797 0.23283,-0.0446 c 0.34733,-0.0666 2.93506,-0.0754 3.19192,-0.011 l 0.22255,0.0559 -0.0301,6.19182 c -0.0295,6.06247 -0.034,6.20669 -0.21683,6.90341 -0.67648,2.57833 -2.5327,4.07439 -5.55934,4.48069 -0.88218,0.11842 -2.86237,0.10269 -3.69656,-0.0294 z m 15.88856,0.0401 c -0.4191,-0.0425 -1.0668,-0.13609 -1.43934,-0.20795 -0.76837,-0.14821 -2.49492,-0.67917 -2.7028,-0.83117 -0.11951,-0.0874 -0.13472,-0.28913 -0.11451,-1.51881 l 0.0233,-1.41805 0.42334,0.30638 c 2.43378,1.76141 6.94947,2.10965 8.6627,0.66806 0.40945,-0.34452 0.70123,-1.02458 0.70418,-1.64121 0.003,-0.65075 -0.22844,-1.16195 -0.71716,-1.58332 -0.46458,-0.40056 -1.75572,-1.0175 -3.27339,-1.56413 -2.74545,-0.98884 -3.89886,-1.66642 -4.74369,-2.78673 -0.96056,-1.27379 -1.15592,-3.30532 -0.46051,-4.7889 0.33707,-0.7191 1.19749,-1.54722 2.01724,-1.9415 1.28035,-0.61583 2.9064,-0.9002 4.83796,-0.84607 1.76538,0.0495 3.7142,0.42616 4.63496,0.89589 l 0.33029,0.1685 -0.0395,1.15933 c -0.0217,0.63762 -0.0435,1.16849 -0.0485,1.1797 -0.005,0.0112 -0.19401,-0.0935 -0.42017,-0.23264 -0.74219,-0.45667 -1.88419,-0.87537 -2.99814,-1.09924 -0.58752,-0.11807 -2.56071,-0.12406 -3.15516,-0.01 -1.057,0.20356 -1.83725,0.69646 -2.06645,1.30542 -0.14378,0.38203 -0.10574,0.98739 0.0871,1.3857 0.35453,0.73235 1.15513,1.21831 3.67556,2.23098 2.49418,1.00213 3.57841,1.59363 4.47351,2.44049 1.09768,1.03855 1.53714,2.07616 1.52916,3.61049 -0.007,1.30857 -0.31576,2.21376 -1.05827,3.10059 -0.71942,0.85927 -2.22257,1.59811 -3.85601,1.89534 -0.8976,0.16333 -3.24453,0.23006 -4.30572,0.12243 z m -39.920336,-9.06012 v -8.64929 l 1.629836,0.0319 c 1.62233,0.0318 1.63195,0.0331 2.08967,0.28419 0.54891,0.30114 0.12559,-0.26644 5.00116,6.70552 l 3.85233,5.50876 0.0423,-6.235 0.0423,-6.235 h 1.18533 1.18534 l 0.0216,8.57079 0.0216,8.57078 -0.2097,0.0526 c -0.11534,0.029 -0.84894,0.0375 -1.63024,0.0191 -1.55602,-0.0368 -1.94499,-0.14042 -2.41355,-0.64318 -0.20073,-0.21538 -1.45058,-1.98614 -6.22752,-8.82308 -1.08996,-1.55998 -2.0353,-2.89212 -2.10077,-2.96031 -0.10231,-0.10656 -0.11903,0.75161 -0.11903,6.10811 0,5.00054 -0.0215,6.24034 -0.10888,6.27386 -0.0599,0.023 -0.59328,0.048 -1.18533,0.0557 l -1.076456,0.0139 z"
         id="path900"
         inkscape:connector-curvature="0" />
    </g>
  </g>
</svg>
