<?xml version="1.0" encoding="UTF-8" standalone="no"?>
<!-- Created with Inkscape (http://www.inkscape.org/) -->

<svg
   xmlns:dc="http://purl.org/dc/elements/1.1/"
   xmlns:cc="http://creativecommons.org/ns#"
   xmlns:rdf="http://www.w3.org/1999/02/22-rdf-syntax-ns#"
   xmlns:svg="http://www.w3.org/2000/svg"
   xmlns="http://www.w3.org/2000/svg"
   xmlns:sodipodi="http://sodipodi.sourceforge.net/DTD/sodipodi-0.dtd"
   xmlns:inkscape="http://www.inkscape.org/namespaces/inkscape"
   width="94.074074mm"
   height="94.074081mm"
   viewBox="0 0 94.074074 94.074081"
   version="1.1"
   id="svg8"
   inkscape:version="0.92.1 unknown"
   sodipodi:docname="stan-logo.svg">
  <defs
     id="defs2" />
  <sodipodi:namedview
     id="base"
     pagecolor="#ffffff"
     bordercolor="#666666"
     borderopacity="1.0"
     inkscape:pageopacity="0.0"
     inkscape:pageshadow="2"
     inkscape:zoom="0.49497475"
     inkscape:cx="5.2368942"
     inkscape:cy="-43.481131"
     inkscape:document-units="mm"
     inkscape:current-layer="layer1"
     showgrid="false"
     fit-margin-top="0"
     fit-margin-left="0"
     fit-margin-right="0"
     fit-margin-bottom="0"
     inkscape:window-width="1440"
     inkscape:window-height="854"
     inkscape:window-x="653"
     inkscape:window-y="0"
     inkscape:window-maximized="1" />
  <metadata
     id="metadata5">
    <rdf:RDF>
      <cc:Work
         rdf:about="">
        <dc:format>image/svg+xml</dc:format>
        <dc:type
           rdf:resource="http://purl.org/dc/dcmitype/StillImage" />
        <dc:title></dc:title>
      </cc:Work>
    </rdf:RDF>
  </metadata>
  <g
     inkscape:label="Layer 1"
     inkscape:groupmode="layer"
     id="layer1"
     transform="translate(-54.094013,-91.949133)">
    <g
       id="g4496"
       transform="translate(-5.3453909,1.3363481)">
      <path
         style="fill:#fdfafa;stroke-width:1"
         d="M 59.439404,137.64983 V 90.612785 h 47.037036 47.03704 v 47.037045 47.03704 H 106.47644 59.439404 Z"
         id="path4502"
         inkscape:connector-curvature="0" />
      <path
         style="fill:#b1021e;stroke-width:1"
         d="m 103.30144,184.55045 c -10.033721,-0.97517 -17.715958,-3.8364 -24.919199,-9.28112 -3.101082,-2.34401 -4.287155,-3.4437 -4.008577,-3.71661 0.129352,-0.12673 2.722269,-0.724 5.762038,-1.32728 23.356868,-4.63545 33.847348,-7.4201 40.824128,-10.83657 1.21191,-0.59346 2.44837,-1.37006 2.74768,-1.72578 0.59774,-0.71036 3.57545,-7.51662 3.37583,-7.71624 -0.0683,-0.0683 -0.71204,0.39968 -1.43048,1.04001 -1.48045,1.31951 -6.41784,3.96333 -10.23938,5.48288 -6.45062,2.56495 -12.39306,4.40615 -26.105555,8.08851 -4.591991,1.23313 -10.356102,2.82695 -12.809134,3.54182 -2.453033,0.71487 -4.520002,1.29976 -4.593264,1.29976 -0.274755,0 -3.050099,-3.49514 -4.559851,-5.74247 -3.671827,-5.46565 -6.250999,-12.12531 -7.343251,-18.96093 -0.553486,-3.46387 -0.559531,-11.04412 -0.01133,-14.20965 1.420429,-8.20216 4.326742,-14.98728 9.171513,-21.41196 1.822144,-2.41635 6.322483,-6.91669 8.738836,-8.73883 6.444971,-4.860079 13.23084,-7.765361 21.411955,-9.167253 3.293201,-0.564315 10.604851,-0.575288 14.120961,-0.02119 5.15286,0.812027 9.1796,2.091559 13.85597,4.402863 3.44153,1.700979 5.11963,2.751641 4.99449,3.12706 -0.0518,0.155458 -5.19914,1.73309 -11.4385,3.50584 -11.72366,3.33099 -15.68797,4.59117 -20.71988,6.58648 -5.636953,2.23522 -9.818047,4.79294 -11.478876,7.02202 -1.019001,1.36765 -7.785425,16.54803 -7.502252,16.8312 0.061,0.061 0.784832,-0.35935 1.608519,-0.93411 4.03848,-2.81801 11.01467,-5.02017 25.721689,-8.11953 9.09404,-1.91648 39.27847,-7.35078 39.77374,-7.16073 0.32076,0.12309 1.65325,2.98478 2.53016,5.43389 0.79456,2.21909 1.67227,5.69721 2.18139,8.64425 0.56273,3.2574 0.56273,11.06869 0,14.32609 -1.80769,10.46384 -6.04826,18.75237 -13.30861,26.01271 -7.224,7.22401 -15.73509,11.58687 -25.88829,13.27056 -2.17165,0.36012 -8.572,0.63805 -10.46247,0.45431 z"
         id="path4500"
         inkscape:connector-curvature="0" />
      <path
         style="fill:#590714;stroke-width:1"
         d="m 119.882,151.60862 c -2.70545,-1.37537 -7.98545,-3.29113 -17.4037,-6.31464 -9.238965,-2.96594 -12.898471,-4.2603 -16.086665,-5.68982 -4.000959,-1.79394 -6.017525,-3.46804 -6.019869,-4.99753 -0.0024,-1.56773 4.912497,-4.55244 10.656616,-6.47153 5.034443,-1.682 4.481257,-1.73263 9.694648,0.88727 2.45294,1.23268 6.25906,2.94654 8.45804,3.80858 7.47705,2.93113 12.87289,5.94889 16.1974,9.0588 2.50785,2.34597 3.45674,4.48692 2.66544,6.01395 -0.97253,1.87678 -4.51415,4.84966 -5.67013,4.75958 -0.27099,-0.0211 -1.39229,-0.49571 -2.49178,-1.05466 z"
         id="path4498"
         inkscape:connector-curvature="0" />
    </g>
  </g>
</svg>
