<?xml version="1.0" encoding="UTF-8" standalone="no"?>
<!-- Created with Inkscape (http://www.inkscape.org/) -->

<svg
   xmlns:ns0="http://www.iki.fi/pav/software/textext/"
   xmlns:dc="http://purl.org/dc/elements/1.1/"
   xmlns:cc="http://creativecommons.org/ns#"
   xmlns:rdf="http://www.w3.org/1999/02/22-rdf-syntax-ns#"
   xmlns:svg="http://www.w3.org/2000/svg"
   xmlns="http://www.w3.org/2000/svg"
   xmlns:xlink="http://www.w3.org/1999/xlink"
   xmlns:sodipodi="http://sodipodi.sourceforge.net/DTD/sodipodi-0.dtd"
   xmlns:inkscape="http://www.inkscape.org/namespaces/inkscape"
   width="20.636854mm"
   height="48.988415mm"
   viewBox="0 0 20.636854 48.988415"
   version="1.1"
   id="svg10136"
   inkscape:version="0.92.1 unknown"
   sodipodi:docname="undirected-model-gm.svg">
  <defs
     id="defs10130">
    <g
       id="g8432">
      <symbol
         id="textext-94f2e017-0"
         overflow="visible"
         style="overflow:visible">
        <path
           id="path8420"
           d=""
           style="stroke:none"
           inkscape:connector-curvature="0" />
      </symbol>
      <symbol
         id="textext-94f2e017-1"
         overflow="visible"
         style="overflow:visible">
        <path
           id="path8423"
           d="m 5.359375,-0.203125 v -0.21875 c -0.4375,-0.03125 -0.5625,-0.1875 -0.5625,-0.625 V -4.59375 h -2 v 0.234375 c 0.5,0.046875 0.609375,0.1875 0.609375,0.625 v 2.75 c -0.3125,0.34375 -0.53125,0.46875 -0.8125,0.46875 -0.359375,0 -0.5625,-0.1875 -0.5625,-0.75 V -4.59375 h -1.875 v 0.234375 c 0.40625,0.078125 0.484375,0.1875 0.484375,0.65625 V -1.3125 c 0,0.9375 0.5,1.453125 1.328125,1.453125 0.546875,0 0.9375,-0.171875 1.453125,-0.65625 V 0.125 c 0.421875,-0.140625 0.671875,-0.1875 1.3125,-0.25 z m 0,0"
           style="stroke:none"
           inkscape:connector-curvature="0" />
      </symbol>
      <symbol
         id="textext-94f2e017-2"
         overflow="visible"
         style="overflow:visible">
        <path
           id="path8426"
           d="M 4.1875,-1.59375 H 3.90625 C 3.8125,-1.28125 3.734375,-1.109375 3.59375,-0.90625 3.265625,-0.453125 2.9375,-0.3125 2.140625,-0.3125 H 1.84375 l 2.296875,-4.03125 v -0.25 h -3.6875 L 0.375,-3.1875 h 0.265625 c 0.25,-0.9375 0.484375,-1.09375 1.90625,-1.09375 L 0.203125,-0.25 V 0 H 4.03125 Z m 0,0"
           style="stroke:none"
           inkscape:connector-curvature="0" />
      </symbol>
      <symbol
         id="textext-94f2e017-3"
         overflow="visible"
         style="overflow:visible">
        <path
           id="path8429"
           d="M 4.8125,-4.59375 H 3.296875 v 0.234375 c 0.421875,0.015625 0.53125,0.09375 0.53125,0.328125 0,0.125 -0.015625,0.234375 -0.109375,0.5 l -0.671875,1.859375 -0.71875,-1.84375 C 2.21875,-3.796875 2.125,-4.0625 2.125,-4.09375 c 0,-0.15625 0.109375,-0.234375 0.359375,-0.25 l 0.15625,-0.015625 V -4.59375 H 0.15625 v 0.234375 c 0.21875,0.03125 0.28125,0.0625 0.34375,0.140625 0.09375,0.125 0.46875,0.953125 0.671875,1.453125 L 2.359375,0.125 2.171875,0.65625 C 2,1.15625 1.75,1.46875 1.515625,1.46875 1.421875,1.46875 1.34375,1.390625 1.34375,1.3125 c 0,0 0,-0.03125 0.015625,-0.0625 C 1.359375,1.203125 1.375,1.140625 1.375,1.109375 1.375,0.8125 1.109375,0.59375 0.78125,0.59375 c -0.375,0 -0.625,0.28125 -0.625,0.65625 0,0.46875 0.40625,0.796875 0.96875,0.796875 0.34375,0 0.625,-0.109375 0.84375,-0.328125 C 2.171875,1.484375 2.375,1.09375 2.734375,0.15625 L 4.203125,-3.8125 C 4.359375,-4.234375 4.5,-4.3125 4.8125,-4.359375 Z m 0,0"
           style="stroke:none"
           inkscape:connector-curvature="0" />
      </symbol>
    </g>
    <g
       id="g9156">
      <symbol
         id="textext-0c7952f6-0"
         overflow="visible"
         style="overflow:visible">
        <path
           id="path9135"
           d=""
           style="stroke:none"
           inkscape:connector-curvature="0" />
      </symbol>
      <symbol
         id="textext-0c7952f6-1"
         overflow="visible"
         style="overflow:visible">
        <path
           id="path9138"
           d="m 5.359375,-0.203125 v -0.21875 c -0.4375,-0.03125 -0.5625,-0.1875 -0.5625,-0.625 V -4.59375 h -2 v 0.234375 c 0.5,0.046875 0.609375,0.1875 0.609375,0.625 v 2.75 c -0.3125,0.34375 -0.53125,0.46875 -0.8125,0.46875 -0.359375,0 -0.5625,-0.1875 -0.5625,-0.75 V -4.59375 h -1.875 v 0.234375 c 0.40625,0.078125 0.484375,0.1875 0.484375,0.65625 V -1.3125 c 0,0.9375 0.5,1.453125 1.328125,1.453125 0.546875,0 0.9375,-0.171875 1.453125,-0.65625 V 0.125 c 0.421875,-0.140625 0.671875,-0.1875 1.3125,-0.25 z m 0,0"
           style="stroke:none"
           inkscape:connector-curvature="0" />
      </symbol>
      <symbol
         id="textext-0c7952f6-2"
         overflow="visible"
         style="overflow:visible">
        <path
           id="path9141"
           d="M 4.1875,-1.59375 H 3.90625 C 3.8125,-1.28125 3.734375,-1.109375 3.59375,-0.90625 3.265625,-0.453125 2.9375,-0.3125 2.140625,-0.3125 H 1.84375 l 2.296875,-4.03125 v -0.25 h -3.6875 L 0.375,-3.1875 h 0.265625 c 0.25,-0.9375 0.484375,-1.09375 1.90625,-1.09375 L 0.203125,-0.25 V 0 H 4.03125 Z m 0,0"
           style="stroke:none"
           inkscape:connector-curvature="0" />
      </symbol>
      <symbol
         id="textext-0c7952f6-3"
         overflow="visible"
         style="overflow:visible">
        <path
           id="path9144"
           d="M 4.8125,-4.59375 H 3.296875 v 0.234375 c 0.421875,0.015625 0.53125,0.09375 0.53125,0.328125 0,0.125 -0.015625,0.234375 -0.109375,0.5 l -0.671875,1.859375 -0.71875,-1.84375 C 2.21875,-3.796875 2.125,-4.0625 2.125,-4.09375 c 0,-0.15625 0.109375,-0.234375 0.359375,-0.25 l 0.15625,-0.015625 V -4.59375 H 0.15625 v 0.234375 c 0.21875,0.03125 0.28125,0.0625 0.34375,0.140625 0.09375,0.125 0.46875,0.953125 0.671875,1.453125 L 2.359375,0.125 2.171875,0.65625 C 2,1.15625 1.75,1.46875 1.515625,1.46875 1.421875,1.46875 1.34375,1.390625 1.34375,1.3125 c 0,0 0,-0.03125 0.015625,-0.0625 C 1.359375,1.203125 1.375,1.140625 1.375,1.109375 1.375,0.8125 1.109375,0.59375 0.78125,0.59375 c -0.375,0 -0.625,0.28125 -0.625,0.65625 0,0.46875 0.40625,0.796875 0.96875,0.796875 0.34375,0 0.625,-0.109375 0.84375,-0.328125 C 2.171875,1.484375 2.375,1.09375 2.734375,0.15625 L 4.203125,-3.8125 C 4.359375,-4.234375 4.5,-4.3125 4.8125,-4.359375 Z m 0,0"
           style="stroke:none"
           inkscape:connector-curvature="0" />
      </symbol>
      <symbol
         id="textext-0c7952f6-4"
         overflow="visible"
         style="overflow:visible">
        <path
           id="path9147"
           d=""
           style="stroke:none"
           inkscape:connector-curvature="0" />
      </symbol>
      <symbol
         id="textext-0c7952f6-5"
         overflow="visible"
         style="overflow:visible">
        <path
           id="path9150"
           d="m 3.140625,-1.1875 h -0.21875 c -0.0625,0.234375 -0.125,0.34375 -0.21875,0.515625 -0.25,0.328125 -0.5,0.4375 -1.109375,0.4375 H 1.375 L 3.109375,-3.25 V -3.4375 H 0.34375 l -0.0625,1.0625 h 0.203125 c 0.1875,-0.71875 0.359375,-0.828125 1.421875,-0.828125 l -1.75,3.015625 V 0 h 2.859375 z m 0,0"
           style="stroke:none"
           inkscape:connector-curvature="0" />
      </symbol>
      <symbol
         id="textext-0c7952f6-6"
         overflow="visible"
         style="overflow:visible">
        <path
           id="path9153"
           d="m 3.59375,-3.4375 h -1.125 v 0.171875 c 0.3125,0.015625 0.40625,0.0625 0.40625,0.25 0,0.09375 -0.015625,0.171875 -0.09375,0.359375 L 2.28125,-1.25 1.734375,-2.640625 C 1.65625,-2.84375 1.59375,-3.046875 1.59375,-3.0625 c 0,-0.125 0.078125,-0.171875 0.265625,-0.1875 l 0.125,-0.015625 V -3.4375 H 0.125 v 0.171875 c 0.15625,0.03125 0.203125,0.046875 0.25,0.109375 0.0625,0.09375 0.34375,0.71875 0.5,1.09375 L 1.765625,0.09375 1.625,0.5 C 1.5,0.859375 1.3125,1.109375 1.140625,1.109375 c -0.078125,0 -0.125,-0.0625 -0.125,-0.125 0,0 0,-0.03125 0,-0.046875 0,-0.046875 0.015625,-0.078125 0.015625,-0.109375 0,-0.21875 -0.1875,-0.390625 -0.453125,-0.390625 -0.28125,0 -0.453125,0.21875 -0.453125,0.5 0,0.359375 0.296875,0.59375 0.71875,0.59375 0.25,0 0.46875,-0.078125 0.625,-0.25 C 1.625,1.109375 1.78125,0.828125 2.046875,0.125 L 3.15625,-2.859375 c 0.109375,-0.3125 0.21875,-0.375 0.4375,-0.40625 z m 0,0"
           style="stroke:none"
           inkscape:connector-curvature="0" />
      </symbol>
    </g>
    <g
       id="g8742">
      <symbol
         style="overflow:visible"
         id="textext-bfec4557-0"
         overflow="visible">
        <path
           inkscape:connector-curvature="0"
           id="path8733"
           d=""
           style="stroke:none" />
      </symbol>
      <symbol
         style="overflow:visible"
         id="textext-bfec4557-1"
         overflow="visible">
        <path
           inkscape:connector-curvature="0"
           id="path8736"
           d="M 4.1875,-1.59375 H 3.90625 C 3.8125,-1.28125 3.734375,-1.109375 3.59375,-0.90625 3.265625,-0.453125 2.9375,-0.3125 2.140625,-0.3125 H 1.84375 l 2.296875,-4.03125 v -0.25 h -3.6875 L 0.375,-3.1875 h 0.265625 c 0.25,-0.9375 0.484375,-1.09375 1.90625,-1.09375 L 0.203125,-0.25 V 0 H 4.03125 Z m 0,0"
           style="stroke:none" />
      </symbol>
      <symbol
         style="overflow:visible"
         id="textext-bfec4557-2"
         overflow="visible">
        <path
           inkscape:connector-curvature="0"
           id="path8739"
           d="M 4.8125,-4.59375 H 3.296875 v 0.234375 c 0.421875,0.015625 0.53125,0.09375 0.53125,0.328125 0,0.125 -0.015625,0.234375 -0.109375,0.5 l -0.671875,1.859375 -0.71875,-1.84375 C 2.21875,-3.796875 2.125,-4.0625 2.125,-4.09375 c 0,-0.15625 0.109375,-0.234375 0.359375,-0.25 l 0.15625,-0.015625 V -4.59375 H 0.15625 v 0.234375 c 0.21875,0.03125 0.28125,0.0625 0.34375,0.140625 0.09375,0.125 0.46875,0.953125 0.671875,1.453125 L 2.359375,0.125 2.171875,0.65625 C 2,1.15625 1.75,1.46875 1.515625,1.46875 1.421875,1.46875 1.34375,1.390625 1.34375,1.3125 c 0,0 0,-0.03125 0.015625,-0.0625 C 1.359375,1.203125 1.375,1.140625 1.375,1.109375 1.375,0.8125 1.109375,0.59375 0.78125,0.59375 c -0.375,0 -0.625,0.28125 -0.625,0.65625 0,0.46875 0.40625,0.796875 0.96875,0.796875 0.34375,0 0.625,-0.109375 0.84375,-0.328125 C 2.171875,1.484375 2.375,1.09375 2.734375,0.15625 L 4.203125,-3.8125 C 4.359375,-4.234375 4.5,-4.3125 4.8125,-4.359375 Z m 0,0"
           style="stroke:none" />
      </symbol>
    </g>
  </defs>
  <sodipodi:namedview
     id="base"
     pagecolor="#ffffff"
     bordercolor="#666666"
     borderopacity="1.0"
     inkscape:pageopacity="0.0"
     inkscape:pageshadow="2"
     inkscape:zoom="0.98994949"
     inkscape:cx="37.383412"
     inkscape:cy="43.340754"
     inkscape:document-units="mm"
     inkscape:current-layer="layer1"
     showgrid="false"
     fit-margin-top="0"
     fit-margin-left="0"
     fit-margin-right="0"
     fit-margin-bottom="0"
     inkscape:window-width="1056"
     inkscape:window-height="792"
     inkscape:window-x="1593"
     inkscape:window-y="120"
     inkscape:window-maximized="0"
     showguides="false" />
  <metadata
     id="metadata10133">
    <rdf:RDF>
      <cc:Work
         rdf:about="">
        <dc:format>image/svg+xml</dc:format>
        <dc:type
           rdf:resource="http://purl.org/dc/dcmitype/StillImage" />
        <dc:title></dc:title>
      </cc:Work>
    </rdf:RDF>
  </metadata>
  <g
     inkscape:label="Layer 1"
     inkscape:groupmode="layer"
     id="layer1"
     transform="translate(-118.51099,-84.133383)">
    <g
       id="g8761"
       ns0:preamble="/home/matt/Projects/constrained-hmc-paper/preamble.tex"
       ns0:text="\\begin{tikzpicture}\n  \\node at (0, 1) [stochastic] (z_gm) {$\\rvct{z}$};\n  \\node at (0, 0) [stochastic, observed] (y_gm) {$\\rvct{y}$};\n  \\path (z_gm) edge [undirected] (y_gm);\n\\end{tikzpicture}"
       transform="translate(-104.92254,-40.667331)">
      <defs
         id="defs8744">
        <g
           id="g15134">
          <symbol
             style="overflow:visible"
             id="symbol15124"
             overflow="visible">
            <path
               inkscape:connector-curvature="0"
               id="path15122"
               d=""
               style="stroke:none" />
          </symbol>
          <symbol
             style="overflow:visible"
             id="symbol15128"
             overflow="visible">
            <path
               inkscape:connector-curvature="0"
               id="path15126"
               d="M 4.1875,-1.59375 H 3.90625 C 3.8125,-1.28125 3.734375,-1.109375 3.59375,-0.90625 3.265625,-0.453125 2.9375,-0.3125 2.140625,-0.3125 H 1.84375 l 2.296875,-4.03125 v -0.25 h -3.6875 L 0.375,-3.1875 h 0.265625 c 0.25,-0.9375 0.484375,-1.09375 1.90625,-1.09375 L 0.203125,-0.25 V 0 H 4.03125 Z m 0,0"
               style="stroke:none" />
          </symbol>
          <symbol
             style="overflow:visible"
             id="symbol15132"
             overflow="visible">
            <path
               inkscape:connector-curvature="0"
               id="path15130"
               d="M 4.8125,-4.59375 H 3.296875 v 0.234375 c 0.421875,0.015625 0.53125,0.09375 0.53125,0.328125 0,0.125 -0.015625,0.234375 -0.109375,0.5 l -0.671875,1.859375 -0.71875,-1.84375 C 2.21875,-3.796875 2.125,-4.0625 2.125,-4.09375 c 0,-0.15625 0.109375,-0.234375 0.359375,-0.25 l 0.15625,-0.015625 V -4.59375 H 0.15625 v 0.234375 c 0.21875,0.03125 0.28125,0.0625 0.34375,0.140625 0.09375,0.125 0.46875,0.953125 0.671875,1.453125 L 2.359375,0.125 2.171875,0.65625 C 2,1.15625 1.75,1.46875 1.515625,1.46875 1.421875,1.46875 1.34375,1.390625 1.34375,1.3125 c 0,0 0,-0.03125 0.015625,-0.0625 C 1.359375,1.203125 1.375,1.140625 1.375,1.109375 1.375,0.8125 1.109375,0.59375 0.78125,0.59375 c -0.375,0 -0.625,0.28125 -0.625,0.65625 0,0.46875 0.40625,0.796875 0.96875,0.796875 0.34375,0 0.625,-0.109375 0.84375,-0.328125 C 2.171875,1.484375 2.375,1.09375 2.734375,0.15625 L 4.203125,-3.8125 C 4.359375,-4.234375 4.5,-4.3125 4.8125,-4.359375 Z m 0,0"
               style="stroke:none" />
          </symbol>
        </g>
      </defs>
      <g
         id="textext-bfec4557-3">
        <path
           inkscape:connector-curvature="0"
           id="path8746"
           transform="matrix(1,0,0,-1,233.752,163.468)"
           d="m 9.919875,28.346906 c 0,5.480469 -4.441406,9.921875 -9.91796875,9.921875 -5.48046925,0 -9.92187525,-4.441406 -9.92187525,-9.921875 0,-5.480468 4.441406,-9.921875 9.92187525,-9.921875 5.47656275,0 9.91796875,4.441407 9.91796875,9.921875 z m 0,0"
           style="fill:none;stroke:#303030;stroke-width:0.79701;stroke-linecap:butt;stroke-linejoin:miter;stroke-miterlimit:10;stroke-opacity:1" />
        <g
           id="g8750"
           style="fill:#000000;fill-opacity:1">
          <use
             style="fill:#4682b4;fill-opacity:1"
             height="100%"
             width="100%"
             id="use8748"
             y="137.513"
             x="231.44099"
             xlink:href="#textext-bfec4557-1" />
        </g>
        <path
           inkscape:connector-curvature="0"
           id="path8752"
           transform="matrix(1,0,0,-1,233.752,163.468)"
           d="m 9.919875,-7.5e-4 c 0,5.480469 -4.441406,9.921875 -9.91796875,9.921875 -5.48046925,0 -9.92187525,-4.441406 -9.92187525,-9.921875 0,-5.480469 4.441406,-9.921875 9.92187525,-9.921875 5.47656275,0 9.91796875,4.441406 9.91796875,9.921875 z m 0,0"
           style="fill:#e6e6e6;fill-opacity:1;fill-rule:nonzero;stroke:#303030;stroke-width:0.79701;stroke-linecap:butt;stroke-linejoin:miter;stroke-miterlimit:10;stroke-opacity:1" />
        <g
           id="g8756"
           style="fill:#ff0000;fill-opacity:1">
          <use
             style="fill:#ff0000"
             height="100%"
             width="100%"
             id="use8754"
             y="164.836"
             x="231.162"
             xlink:href="#textext-bfec4557-2" />
        </g>
        <path
           inkscape:connector-curvature="0"
           id="path8758"
           transform="matrix(1,0,0,-1,233.752,163.468)"
           d="M 0.00190625,18.026594 V 10.319563"
           style="fill:none;stroke:#000000;stroke-width:0.79701;stroke-linecap:butt;stroke-linejoin:miter;stroke-miterlimit:10;stroke-opacity:1" />
      </g>
    </g>
  </g>
</svg>
