<?xml version="1.0" encoding="UTF-8" standalone="no"?>
<!-- Created with Inkscape (http://www.inkscape.org/) -->

<svg
   xmlns:dc="http://purl.org/dc/elements/1.1/"
   xmlns:cc="http://creativecommons.org/ns#"
   xmlns:rdf="http://www.w3.org/1999/02/22-rdf-syntax-ns#"
   xmlns:svg="http://www.w3.org/2000/svg"
   xmlns="http://www.w3.org/2000/svg"
   xmlns:sodipodi="http://sodipodi.sourceforge.net/DTD/sodipodi-0.dtd"
   xmlns:inkscape="http://www.inkscape.org/namespaces/inkscape"
   width="805.65588mm"
   height="353.18555mm"
   viewBox="0 0 805.65588 353.18555"
   version="1.1"
   id="svg2794"
   inkscape:version="0.92.5 (2060ec1f9f, 2020-04-08)"
   sodipodi:docname="alan-turing-institute-logo.svg">
  <defs
     id="defs2788" />
  <sodipodi:namedview
     id="base"
     pagecolor="#ffffff"
     bordercolor="#666666"
     borderopacity="1.0"
     inkscape:pageopacity="0.0"
     inkscape:pageshadow="2"
     inkscape:zoom="0.12374369"
     inkscape:cx="32.436814"
     inkscape:cy="1339.373"
     inkscape:document-units="mm"
     inkscape:current-layer="layer1"
     showgrid="false"
     fit-margin-top="0"
     fit-margin-left="0"
     fit-margin-right="0"
     fit-margin-bottom="0"
     inkscape:window-width="1440"
     inkscape:window-height="876"
     inkscape:window-x="0"
     inkscape:window-y="180"
     inkscape:window-maximized="1" />
  <metadata
     id="metadata2791">
    <rdf:RDF>
      <cc:Work
         rdf:about="">
        <dc:format>image/svg+xml</dc:format>
        <dc:type
           rdf:resource="http://purl.org/dc/dcmitype/StillImage" />
        <dc:title></dc:title>
      </cc:Work>
    </rdf:RDF>
  </metadata>
  <g
     inkscape:label="Layer 1"
     inkscape:groupmode="layer"
     id="layer1"
     transform="translate(377.88171,-103.00372)">
    <path
       style="fill:#1d1d1b;fill-opacity:1;stroke-width:1"
       d="m -234.21296,455.94063 c -16.22189,-1.79432 -25.50884,-9.64316 -27.24606,-23.02695 -0.13985,-1.07741 -0.25794,-2.34725 -0.26244,-2.82189 l -0.008,-0.86296 10.38489,0.0692 10.3849,0.0692 0.16894,1.98437 c 0.24042,2.82379 1.05347,4.76578 2.69897,6.4465 2.38251,2.4335 5.27649,3.39677 10.19991,3.395 6.88371,-0.003 11.15371,-2.76831 11.13574,-7.21305 -0.0142,-3.51959 -2.36191,-5.78734 -7.93169,-7.66159 -0.94588,-0.31829 -4.04151,-1.10482 -6.87916,-1.74781 -7.33353,-1.66177 -10.85231,-2.6302 -13.94876,-3.839 -9.06765,-3.53983 -14.35319,-10.71279 -14.3598,-19.48757 -0.009,-11.76856 8.18646,-20.04978 22.48417,-22.71974 3.56275,-0.6653 12.00168,-0.78338 15.95582,-0.22323 7.34755,1.04084 12.91633,3.44395 17.02498,7.34676 4.26575,4.05204 6.55733,9.10432 6.89905,15.2105 l 0.15178,2.71198 h -9.91866 -9.91865 l -0.30511,-2.15754 c -0.86984,-6.1508 -4.48857,-8.93543 -11.63134,-8.95035 -6.4758,-0.0136 -10.37098,2.67615 -10.37098,7.16139 0,1.62145 0.35415,2.5386 1.40529,3.6394 1.73879,1.82092 3.14425,2.33931 13.80146,5.09048 4.51488,1.16551 9.51857,2.54725 11.11929,3.07054 9.55117,3.12224 14.62907,7.53504 16.84158,14.63567 0.53264,1.70939 0.61819,2.53433 0.61734,5.95312 -7.9e-4,3.0349 -0.11725,4.40455 -0.49509,5.82083 -1.09522,4.10523 -2.95526,7.1755 -6.1807,10.20218 -4.11254,3.8591 -9.86204,6.37341 -17.26542,7.55031 -3.07257,0.48842 -11.48704,0.69326 -14.55208,0.35422 z m 325.064314,-0.009 c -19.52906,-2.05864 -31.81205,-16.1472 -32.61739,-37.41211 -0.83082,-21.93737 11.50446,-37.72728 31.53537,-40.36727 3.44165,-0.45357 10.929726,-0.17264 14.219736,0.53351 13.99186,3.00313 23.4927,13.09306 26.52075,28.16521 0.98557,4.90564 1.52479,13.00097 1.03061,15.47194 l -0.16537,0.82682 H 105.21438 79.053714 l 0.003,0.7276 c 0.008,1.75281 1.07529,5.75824 2.09489,7.86474 1.89029,3.90531 5.40014,6.7536 9.80789,7.95925 2.32468,0.63587 6.67234,0.77253 8.97094,0.28199 4.257826,-0.90863 7.578476,-3.34502 9.189026,-6.74208 l 0.75774,-1.59827 10.78177,-0.0132 c 5.92997,-0.007 10.78177,0.0254 10.78177,0.0727 0,0.0473 -0.28165,0.91048 -0.6259,1.91822 -3.30599,9.67801 -10.3487,16.86576 -19.76202,20.16911 -5.86832,2.05936 -13.405086,2.85846 -20.201936,2.14196 z m 19.687766,-48.4822 c 0,-1.44229 -0.98282,-4.85187 -1.90465,-6.6077 -1.26217,-2.40398 -3.87062,-4.91755 -6.29743,-6.06835 -2.524676,-1.19721 -4.122706,-1.52149 -7.498046,-1.52149 -6.56831,0 -11.11383,2.72415 -13.76125,8.2472 -1.07283,2.23813 -2.02403,5.2402 -2.02403,6.38794 0,0.41344 1.15329,0.44611 15.74271,0.44611 h 15.742696 z m -275.8951,47.97092 c -10.38616,-1.30916 -16.21693,-7.57981 -17.24405,-18.54488 -0.16928,-1.80708 -0.28232,-10.70264 -0.28286,-22.25847 l -9.1e-4,-19.24844 h -5.42396 -5.42395 v -7.67292 -7.67292 h 5.42395 5.42396 v -8.99583 -8.99583 h 10.18646 10.18646 v 8.99583 8.99583 h 5.95313 5.95312 v 7.67292 7.67292 h -5.96311 -5.96311 l 0.0776,18.85156 c 0.0761,18.49236 0.0884,18.88323 0.64622,20.51331 0.77735,2.27155 1.72706,3.42849 3.46901,4.22597 1.35832,0.62185 1.65272,0.65612 4.59635,0.53489 l 3.14508,-0.12952 -0.0701,7.56907 -0.0701,7.56909 -2.24895,0.46996 c -2.6526,0.55432 -9.54456,0.80362 -12.37011,0.44746 z m 78.795891,-0.004 c -5.015653,-0.63014 -8.647086,-2.25327 -11.524747,-5.15115 -2.754764,-2.77416 -4.336304,-5.72347 -5.317964,-9.91714 -0.41807,-1.78594 -0.47448,-4.13398 -0.56409,-23.48177 l -0.0996,-21.4974 h -5.4097 -5.40972 v -7.67291 -7.67292 h 5.42395 5.42396 v -8.99583 -8.99584 h 10.18646 10.186459 v 8.99584 8.99583 h 5.953125 5.953125 v 7.67292 7.67291 h -5.953125 -5.953125 l 0.004,18.3224 c 0.0032,15.24725 0.06967,18.60135 0.395738,19.98438 0.520091,2.20596 1.231318,3.54121 2.398924,4.50363 1.434915,1.18279 2.845091,1.47759 6.217073,1.29971 l 2.898643,-0.15293 -0.07017,7.5886 -0.07017,7.58859 -2.248958,0.46535 c -2.680653,0.55467 -9.587098,0.80364 -12.420045,0.44773 z m 45.096086,-0.006 c -10.538857,-1.44602 -18.364437,-8.36141 -20.338415,-17.9733 -0.822166,-4.00331 -0.960543,-8.77382 -0.960543,-33.11134 v -24.30325 h 10.186458 10.186459 l 0.0093,24.27553 c 0.01005,26.27683 0.04421,26.99033 1.430126,29.82309 0.864288,1.76649 3.155077,3.94091 5.080476,4.8224 4.220898,1.93238 9.492377,1.25516 13.205698,-1.69659 1.6383,-1.30225 3.629131,-4.16271 4.379251,-6.29213 1.298364,-3.68581 1.334268,-4.37497 1.478095,-28.37657 l 0.135176,-22.55573 h 10.1606313 10.16067 l -0.0671,36.97553 -0.0671,36.97552 -9.72344,0.0694 -9.7234343,0.0694 v -4.51874 -4.51877 l -2.166434,2.28867 c -3.668766,3.87581 -7.489958,6.13839 -12.517941,7.41207 -3.028315,0.7671 -7.832037,1.04801 -10.847916,0.63434 z m 80.366372,0.0103 c -4.801,-0.60515 -8.65953,-2.25763 -11.28454,-4.8328 -2.95616,-2.90004 -4.76345,-6.2984 -5.62242,-10.57216 -0.38036,-1.89249 -0.45254,-4.99161 -0.5453,-23.41401 l -0.10695,-21.23282 h -5.40827 -5.40827 v -7.67291 -7.67292 h 5.42396 5.42396 v -8.99583 -8.99584 h 10.18646 10.186465 v 8.99584 8.99583 h 5.95312 5.95313 v 7.67292 7.67291 h -5.96458 -5.96459 l 0.0846,18.98386 c 0.0762,17.08433 0.12999,19.1185 0.53801,20.32963 0.71054,2.10904 1.86449,3.49514 3.55356,4.26844 1.38113,0.6323 1.66249,0.66543 4.61587,0.5438 l 3.14508,-0.12951 -0.0701,7.56906 -0.0701,7.5691 -2.24895,0.46995 c -2.65261,0.55433 -9.54456,0.80362 -12.370095,0.44746 z M -362.53588,402.90577 v -51.20001 l 10.12032,0.0693 10.12031,0.0693 0.0668,51.13073 0.0668,51.13073 h -10.18713 -10.18713 z m 29.10417,14.16151 v -37.04482 h 9.65104 9.65105 l 0.0724,4.52179 0.0724,4.52181 1.40341,-1.75189 c 2.8704,-3.58315 8.18785,-6.89406 13.01639,-8.10464 3.50373,-0.87844 9.35568,-0.99367 12.96458,-0.25527 4.73139,0.96809 8.52179,2.86957 11.80962,5.92445 3.6376,3.37984 5.84288,7.51173 6.86943,12.87084 0.44188,2.30687 0.48885,4.72744 0.57126,29.43804 l 0.0898,26.92453 -10.13307,-0.0693 -10.13307,-0.0693 -0.13245,-25.4 -0.13246,-25.4 -0.60055,-1.76901 c -1.55638,-4.58451 -5.76274,-7.36335 -11.13481,-7.35597 -7.02746,0.01 -10.86613,3.61439 -12.81643,12.03539 -0.52926,2.28524 -0.55747,3.29864 -0.69969,25.13542 l -0.1482,22.75417 -10.12031,0.0693 -10.12031,0.0693 z m 191.02917,-0.003 v -37.04167 h 10.18645 10.18646 v 37.04167 37.04166 h -10.18646 -10.18645 z m 0,-55.56565 v -9.79273 l 10.12031,0.0693 10.12031,0.0693 0.0694,9.72344 0.0694,9.72344 h -10.18972 -10.18971 z m 531.8125,-3.85354 c -8.45246,-0.9634 -14.07073,-2.78541 -18.63736,-6.04408 -2.05674,-1.46765 -5.28942,-4.89861 -6.45959,-6.85575 -1.53829,-2.57284 -2.84353,-6.42805 -3.30708,-9.76796 l -0.13772,-0.99219 h 10.16985 10.16981 v 0.65153 c 0,1.21644 1.08244,3.55137 2.24663,4.84623 2.2955,2.55315 5.82139,3.82827 10.58566,3.82827 4.88199,0 7.77635,-1.06953 10.31508,-3.81168 3.21558,-3.4732 4.3693,-8.51501 4.3693,-19.09428 v -3.97812 l -2.39382,2.55059 c -5.41287,5.76739 -10.91885,7.85921 -19.79887,7.52194 -5.95337,-0.22611 -10.18575,-1.52736 -14.65009,-4.50419 -2.45464,-1.63678 -5.92058,-5.07096 -7.52607,-7.45714 -4.76507,-7.08213 -7.13396,-17.19681 -6.41205,-27.37811 1.29887,-18.31868 11.50009,-30.88956 26.83611,-33.06996 5.93238,-0.84343 12.35506,0.34221 16.78355,3.09828 1.95718,1.21804 5.14353,4.14719 6.98101,6.4175 l 0.96363,1.19062 0.005,-4.56405 0.005,-4.56407 h 9.12813 9.12812 v 34.59427 c 0,21.1333 -0.10623,35.98412 -0.27199,38.16614 -0.6586,8.66914 -3.23252,15.24231 -7.89252,20.15556 -5.73508,6.04674 -13.34926,8.85053 -24.64318,9.07443 -2.54662,0.0505 -5.04693,0.0443 -5.55625,-0.0138 z m 7.73028,-47.46858 c 5.41144,-1.67142 9.24253,-6.76748 10.54504,-14.02682 0.43276,-2.41196 0.36092,-8.66655 -0.13107,-11.41296 -1.43523,-8.01157 -5.59393,-13.26166 -11.47654,-14.4884 -6.47025,-1.34929 -12.53792,2.27082 -15.3697,9.1699 -2.19842,5.35603 -2.63189,12.88571 -1.09315,18.98858 1.11601,4.42628 4.0699,8.86203 7.07369,10.62238 2.90962,1.70515 7.1416,2.16971 10.45173,1.14732 z m -489.056104,20.87688 c -11.740516,-1.24348 -20.280576,-8.04111 -22.351466,-17.79112 -0.62527,-2.94385 -0.36534,-8.4047 0.53118,-11.15962 2.03583,-6.25591 7.10149,-10.90967 14.940167,-13.72534 6.283695,-2.25713 21.143965,-4.84817 31.667397,-5.52153 l 1.058333,-0.0677 -0.05778,-2.17162 c -0.187139,-7.03506 -3.12293,-11.35226 -8.488045,-12.48208 -1.931458,-0.40673 -5.647055,-0.36218 -7.797429,0.0935 -2.203874,0.46701 -4.701487,1.76541 -5.797762,3.01399 -1.16713,1.32929 -2.307299,3.91259 -2.536322,5.74658 l -0.195607,1.56631 -10.468662,0.0691 -10.46866,0.0691 0.22577,-1.92122 c 1.00232,-8.52937 5.97537,-15.46782 13.871174,-19.35321 5.617262,-2.76416 11.160283,-3.88719 19.14562,-3.87893 8.282914,0.009 14.082077,1.34189 19.783479,4.54853 3.032256,1.70543 7.518372,6.24678 8.986122,9.09671 1.286193,2.49745 2.04007,5.02789 2.638531,8.8563 0.367374,2.35017 0.440637,5.52927 0.475615,20.6375 0.04278,18.49443 0.232436,23.01616 1.207188,28.78026 0.277468,1.64086 0.578432,3.27797 0.668787,3.63802 l 0.164306,0.65464 h -8.726863 -8.726858 l -0.158273,-0.79137 c -0.154279,-0.77138 -0.64016,-6.51644 -0.769356,-9.09675 l -0.06456,-1.28916 -1.266164,1.85702 c -2.494994,3.65929 -6.349894,6.84019 -10.389446,8.57293 -4.363588,1.87172 -11.125253,2.68195 -17.100418,2.04911 z m 13.779791,-14.67315 c 7.135204,-1.68191 11.518292,-8.16649 12.120007,-17.93092 l 0.159914,-2.59499 -0.636217,0.13244 c -2.623291,0.54609 -3.715094,0.73886 -6.986217,1.23353 -14.965601,2.26317 -19.978,5.01637 -19.967654,10.96776 0.0066,3.8761 2.349844,6.63837 6.870779,8.10003 1.84994,0.59809 6.096317,0.64446 8.439388,0.0922 z m 223.665523,14.66698 c -5.55469,-0.64613 -10.47197,-2.85549 -14.27663,-6.41457 -3.96965,-3.7134 -5.99583,-7.86655 -6.99013,-14.32792 -0.18256,-1.18624 -0.32917,-11.34032 -0.40785,-28.24427 l -0.12282,-26.39218 h 10.19328 10.19331 l 0.0919,25.06926 c 0.10036,27.38871 0.0469,26.44168 1.65841,29.40248 2.51325,4.61767 8.71612,6.70904 14.25081,4.80484 4.17562,-1.43663 7.40563,-5.15325 8.62623,-9.92582 0.88771,-3.47082 1.05855,-8.17727 1.05923,-29.17629 v -20.17447 h 10.18739 10.18738 l -0.0671,36.97551 -0.0671,36.97552 h -9.65729 -9.65729 l -0.0726,-4.44254 -0.0726,-4.44254 -2.15998,2.28187 c -2.56627,2.71108 -4.66042,4.2597 -7.66291,5.66672 -4.70572,2.20518 -9.80263,2.99623 -15.23432,2.3644 z m -391.90675,-1.49109 c 0.004,-0.11076 7.96682,-23.1209 17.69611,-51.13367 l 17.68961,-50.93228 14.0247,-0.0685 c 13.17437,-0.0643 14.03574,-0.0402 14.20686,0.39687 0.62041,1.58477 35.17062,100.85503 35.26978,101.33772 l 0.1223,0.59531 h -11.12155 -11.12155 l -3.96398,-12.10469 c -2.18019,-6.65757 -4.04349,-12.37257 -4.14067,-12.7 l -0.17669,-0.59531 h -19.27912 -19.27912 l -1.72472,5.35781 c -0.94859,2.9468 -2.78157,8.63204 -4.07329,12.63386 l -2.34859,7.27604 -10.89328,0.0691 c -5.99131,0.038 -10.89037,-0.0215 -10.8868,-0.13229 z m 62.43517,-43.7528 c 0,-0.3419 -12.94289,-41.21912 -13.20814,-41.71495 -0.14143,-0.26437 -7.00084,20.66921 -12.87601,39.29502 l -0.85545,2.71198 h 13.4698 c 9.64817,0 13.4698,-0.0829 13.4698,-0.29205 z m 41.53959,-7.24857 V 227.3516 l 10.12031,0.0693 10.12031,0.0693 v 51.06458 51.06458 l -10.12031,0.0693 -10.12031,0.0693 z m 105.833329,14.1552 V 255.6683 h 9.651047 9.651048 l 0.07239,4.5218 0.07239,4.52179 1.403403,-1.75188 c 2.836598,-3.54095 8.0080923,-6.79617 12.8840923,-8.10997 3.18113999,-0.85712 9.68526,-1.00424 13.0968797,-0.29624 8.64555,1.79417 15.38544,7.47065 17.81612,15.00512 1.43219,4.43947 1.81199,13.60678 1.70457,41.14271 l -0.0738,18.91771 -10.10017,0.0693 -10.1001797,0.0693 -0.1116,-24.80781 c -0.122,-27.12023 -0.10499,-26.81983 -1.68185,-29.71702 -1.57107,-2.88658 -5.07669,-5.15698 -8.49114001,-5.49921 -7.57878099,-0.75964 -12.49262229,2.946 -14.34245729,10.81599 -1.002956,4.26702 -1.077806,6.20885 -1.077806,27.96205 v 21.23975 h -10.186479 -10.186458 z m 119.503485,36.86528 c -0.097,-0.097 -0.1764,-19.08748 -0.1764,-42.20104 v -42.02465 h -16.53646 -16.53645 v -8.99583 -8.99583 h 43.78854 43.788536 v 8.99583 8.99583 h -16.53646 -16.53646 v 42.20104 42.20104 H 93.649904 c -5.7966,0 -10.61863,-0.0794 -10.71563,-0.17639 z M 199.96829,292.70996 V 255.6683 h 9.65729 9.65729 l 0.0116,4.69636 c 0.0106,4.23196 0.051,4.64402 0.40805,4.16718 0.21793,-0.29104 0.99189,-1.33463 1.71989,-2.31908 2.65245,-3.58682 7.15428,-6.44919 12.0155,-7.63975 2.84083,-0.69575 9.02465,-0.85642 10.91406,-0.28357 l 1.12448,0.34093 v 8.67695 c 0,4.77232 -0.0675,8.74451 -0.15012,8.82709 -0.0826,0.0826 -0.5886,0.018 -1.12448,-0.1436 -1.50461,-0.45357 -8.29419,-0.34529 -10.62234,0.16941 -5.9214,1.30909 -9.71499,4.9442 -11.62753,11.1418 -1.40618,4.55673 -1.4419,5.17063 -1.54374,26.53972 l -0.0949,19.90989 h -10.17256 -10.17262 v -37.04167 z m 53.975,0 V 255.6683 h 10.18646 10.18646 v 37.04166 37.04167 h -10.18646 -10.18646 z m 29.89792,0.003 v -37.04465 h 9.65104 9.65105 l 0.0724,4.52179 0.0724,4.52179 1.4034,-1.75187 c 2.83716,-3.54166 8.01132,-6.7982 12.8841,-8.10908 2.99426,-0.80552 9.39673,-1.00157 12.66624,-0.38784 9.49566,1.78246 16.64433,8.22219 18.6668,16.81562 1.06294,4.51642 1.16073,7.26443 1.18624,33.3375 l 0.0246,25.00313 -10.09822,0.0693 -10.09819,0.0693 -0.11599,-24.80781 c -0.12671,-27.10781 -0.1111,-26.83187 -1.6814,-29.71701 -1.5712,-2.88681 -5.04577,-5.13778 -8.475,-5.49045 -2.82996,-0.29105 -5.38303,0.0399 -7.32743,0.94977 -3.85818,1.80546 -5.97897,4.99762 -7.35205,11.06606 -0.58092,2.5675 -0.595,3.04633 -0.74071,25.23903 l -0.14851,22.62188 -10.12031,0.0693 -10.12031,0.0693 v -37.04491 z m -29.89792,-55.56549 v -9.78958 h 10.18646 10.18646 v 9.78958 9.78958 H 264.12975 253.94329 Z M -179.59285,206.8426 c -8.23843,-1.20298 -14.96913,-4.40834 -20.23407,-9.63608 -5.03547,-4.99989 -8.25157,-11.22223 -9.97488,-19.29885 -0.66544,-3.1187 -0.71169,-3.77016 -0.7157,-10.08103 -0.005,-7.3074 0.23846,-9.17036 1.87384,-14.35985 3.80998,-12.09005 13.2965,-20.77228 25.75986,-23.57588 6.82267,-1.53474 15.69726,-1.12543 22.10211,1.01937 9.98927,3.34514 17.45514,11.10684 21.00284,21.83511 1.70453,5.15448 2.39797,10.02548 2.40122,16.86718 l 0.002,4.56407 h -26.23258 -26.23257 l 0.16493,1.95114 c 0.35906,4.24768 2.27396,8.35478 5.15042,11.04668 2.9899,2.79806 6.89663,4.19888 11.69563,4.19364 6.28134,-0.007 10.57483,-2.31071 12.98224,-6.9662 l 0.90839,-1.75664 10.77433,-0.001 10.77433,-0.001 -0.81674,2.3151 c -3.81703,10.81972 -11.83411,18.09561 -23.10365,20.9677 -5.0028,1.27498 -13.06068,1.67893 -18.28212,0.9165 z m 21.31531,-47.89066 c 0,-0.22442 -0.18918,-1.32574 -0.42041,-2.44739 -0.64357,-3.12194 -1.91307,-5.60373 -3.94093,-7.70422 -2.89963,-3.0035 -5.74776,-4.22825 -10.32304,-4.43912 -8.1707,-0.37657 -13.72091,3.47637 -16.07942,11.1623 -0.35724,1.16417 -0.7223,2.50362 -0.81125,2.97657 l -0.16173,0.85989 h 15.86839 c 14.12164,0 15.86839,-0.0449 15.86839,-0.40803 z m -186.53125,4.1122 v -42.06875 h -16.53646 -16.53646 v -8.99584 -8.99583 h 43.78854 43.78854 v 8.99583 8.99584 h -16.40416 -16.40417 v 42.06875 42.06875 h -10.84792 -10.84791 z m 60.85416,-8.99584 v -51.06458 h 10.18646 10.18646 v 18.36964 18.36965 l 2.18281,-2.17846 c 2.43041,-2.42557 4.55867,-3.96315 7.57129,-5.46995 6.19122,-3.09662 13.53262,-3.47354 20.20759,-1.03747 7.7278,2.8203 12.8497,8.25946 14.73146,15.64395 1.15351,4.52666 1.16703,4.86876 1.2718,32.17191 l 0.10077,26.2599 h -10.18782 -10.18782 l -0.0964,-24.40782 c -0.0873,-22.1202 -0.13979,-24.59063 -0.55959,-26.35848 -1.00412,-4.22847 -2.80267,-6.75566 -5.78981,-8.13537 -1.56384,-0.72231 -1.83497,-0.76143 -5.22137,-0.7533 -4.47864,0.0107 -5.82749,0.46387 -8.31901,2.79457 -2.48506,2.32465 -3.85172,5.15023 -4.97881,10.29373 -0.52832,2.41105 -0.55491,3.41167 -0.65189,24.5401 l -0.10111,22.02657 h -10.1725 -10.17252 z"
       id="path3350"
       inkscape:connector-curvature="0" />
  </g>
</svg>
