<?xml version="1.0" encoding="utf-8" standalone="no"?>
<!DOCTYPE svg PUBLIC "-//W3C//DTD SVG 1.1//EN"
  "http://www.w3.org/Graphics/SVG/1.1/DTD/svg11.dtd">
<!-- Created with matplotlib (https://matplotlib.org/) -->
<svg height="216pt" version="1.1" viewBox="0 0 468 216" width="468pt" xmlns="http://www.w3.org/2000/svg" xmlns:xlink="http://www.w3.org/1999/xlink">
 <defs>
  <style type="text/css">
*{stroke-linecap:butt;stroke-linejoin:round;}
  </style>
 </defs>
 <g id="figure_1">
  <g id="patch_1">
   <path d="M 0 216 
L 468 216 
L 468 0 
L 0 0 
z
" style="fill:#ffffff;"/>
  </g>
  <g id="axes_1">
   <g id="patch_2">
    <path d="M 47.865501 186.620046 
L 210.380547 186.620046 
L 210.380547 24.105 
L 47.865501 24.105 
z
" style="fill:#ffffff;"/>
   </g>
   <g id="matplotlib.axis_1">
    <g id="xtick_1">
     <g id="line2d_1">
      <defs>
       <path d="M 0 0 
L 0 3.5 
" id="m89831c6349" style="stroke:#000000;stroke-width:0.8;"/>
      </defs>
      <g>
       <use style="stroke:#000000;stroke-width:0.8;" x="47.865501" xlink:href="#m89831c6349" y="186.620046"/>
      </g>
     </g>
     <g id="text_1">
      <!-- −2 -->
      <defs>
       <path d="M 49.171875 39.9375 
L 49.171875 30.375 
L 7.765625 30.375 
L 7.765625 39.9375 
z
" id="Roboto-Medium-8722"/>
       <path d="M 53.171875 9.515625 
L 53.171875 0 
L 5.328125 0 
L 5.328125 8.203125 
L 28.46875 33.40625 
Q 34.328125 39.890625 36.421875 43.765625 
Q 38.53125 47.65625 38.53125 51.265625 
Q 38.53125 56.15625 35.765625 59.34375 
Q 33.015625 62.546875 27.9375 62.546875 
Q 21.875 62.546875 18.84375 58.859375 
Q 15.828125 55.171875 15.828125 49.46875 
L 3.953125 49.46875 
Q 3.953125 58.796875 10.25 65.4375 
Q 16.546875 72.078125 28.078125 72.078125 
Q 38.71875 72.078125 44.546875 66.75 
Q 50.390625 61.421875 50.390625 52.546875 
Q 50.390625 46 46.40625 39.671875 
Q 42.4375 33.34375 36.078125 26.609375 
L 20.125 9.515625 
z
" id="Roboto-Medium-50"/>
      </defs>
      <g transform="translate(43.336126 199.620046)scale(0.08 -0.08)">
       <use xlink:href="#Roboto-Medium-8722"/>
       <use x="56.396484" xlink:href="#Roboto-Medium-50"/>
      </g>
     </g>
    </g>
    <g id="xtick_2">
     <g id="line2d_2">
      <g>
       <use style="stroke:#000000;stroke-width:0.8;" x="88.494263" xlink:href="#m89831c6349" y="186.620046"/>
      </g>
     </g>
     <g id="text_2">
      <!-- −1 -->
      <defs>
       <path d="M 37.5 71.34375 
L 37.5 0 
L 25.640625 0 
L 25.640625 57.125 
L 8.203125 51.171875 
L 8.203125 61.1875 
L 35.984375 71.34375 
z
" id="Roboto-Medium-49"/>
      </defs>
      <g transform="translate(83.964888 199.620046)scale(0.08 -0.08)">
       <use xlink:href="#Roboto-Medium-8722"/>
       <use x="56.396484" xlink:href="#Roboto-Medium-49"/>
      </g>
     </g>
    </g>
    <g id="xtick_3">
     <g id="line2d_3">
      <g>
       <use style="stroke:#000000;stroke-width:0.8;" x="129.123024" xlink:href="#m89831c6349" y="186.620046"/>
      </g>
     </g>
     <g id="text_3">
      <!-- 0 -->
      <defs>
       <path d="M 51.65625 29.984375 
Q 51.65625 13.09375 45.328125 6.046875 
Q 39.015625 -0.984375 28.46875 -0.984375 
Q 18.171875 -0.984375 11.75 5.859375 
Q 5.328125 12.703125 5.125 28.953125 
L 5.125 41.453125 
Q 5.125 58.40625 11.515625 65.234375 
Q 17.921875 72.078125 28.375 72.078125 
Q 38.875 72.078125 45.234375 65.28125 
Q 51.609375 58.5 51.65625 41.75 
z
M 39.84375 43.265625 
Q 39.84375 54 36.859375 58.265625 
Q 33.890625 62.546875 28.375 62.546875 
Q 23 62.546875 20.015625 58.34375 
Q 17.046875 54.15625 17 43.65625 
L 17 28.265625 
Q 17 17.484375 20 13.015625 
Q 23 8.546875 28.46875 8.546875 
Q 33.9375 8.546875 36.859375 12.9375 
Q 39.796875 17.328125 39.84375 27.875 
z
" id="Roboto-Medium-48"/>
      </defs>
      <g transform="translate(126.849274 199.620046)scale(0.08 -0.08)">
       <use xlink:href="#Roboto-Medium-48"/>
      </g>
     </g>
    </g>
    <g id="xtick_4">
     <g id="line2d_4">
      <g>
       <use style="stroke:#000000;stroke-width:0.8;" x="169.751786" xlink:href="#m89831c6349" y="186.620046"/>
      </g>
     </g>
     <g id="text_4">
      <!-- 1 -->
      <g transform="translate(167.478036 199.620046)scale(0.08 -0.08)">
       <use xlink:href="#Roboto-Medium-49"/>
      </g>
     </g>
    </g>
    <g id="xtick_5">
     <g id="line2d_5">
      <g>
       <use style="stroke:#000000;stroke-width:0.8;" x="210.380547" xlink:href="#m89831c6349" y="186.620046"/>
      </g>
     </g>
     <g id="text_5">
      <!-- 2 -->
      <g transform="translate(208.106797 199.620046)scale(0.08 -0.08)">
       <use xlink:href="#Roboto-Medium-50"/>
      </g>
     </g>
    </g>
    <g id="text_6">
     <!-- $\theta_0$ -->
     <defs>
      <path d="M 49.40625 51.09375 
Q 49.40625 39.59375 45.703125 29.09375 
Q 42 18.59375 36 10.59375 
Q 27.203125 -1.09375 15.5 -1.09375 
Q 9.5 -1.09375 6.09375 3.5 
Q 2.703125 8.09375 2.703125 16.09375 
Q 2.703125 31.203125 9.25 43.953125 
Q 15.796875 56.703125 24.90625 63.59375 
Q 30.5 67.796875 37.09375 67.796875 
Q 42.703125 67.796875 46.046875 63.6875 
Q 49.40625 59.59375 49.40625 51.09375 
z
M 14.703125 34.703125 
L 38 34.703125 
Q 41 44.90625 41 55.203125 
Q 41 65.703125 35.703125 65.703125 
Q 31.703125 65.703125 27 59.59375 
Q 22.296875 53.5 19.25 46.75 
Q 16.203125 40 14.703125 34.703125 
z
M 37.296875 31.5 
L 14 31.5 
Q 11.09375 23.90625 11.09375 15 
Q 11.09375 1 16.703125 1 
Q 20.09375 1 23.59375 4.296875 
Q 27.09375 7.59375 29.75 12.59375 
Q 32.40625 17.59375 34.34375 22.5 
Q 36.296875 27.40625 37.296875 31.5 
z
" id="STIXGeneral-Italic-952"/>
      <path d="M 47.59375 33 
Q 47.59375 26.296875 46.296875 20.34375 
Q 45 14.40625 42.453125 9.40625 
Q 39.90625 4.40625 35.40625 1.5 
Q 30.90625 -1.40625 25 -1.40625 
Q 18.90625 -1.40625 14.296875 1.6875 
Q 9.703125 4.796875 7.203125 10 
Q 4.703125 15.203125 3.546875 21.09375 
Q 2.40625 27 2.40625 33.59375 
Q 2.40625 42.90625 4.703125 50.34375 
Q 7 57.796875 12.34375 62.6875 
Q 17.703125 67.59375 25.40625 67.59375 
Q 35.203125 67.59375 41.390625 58 
Q 47.59375 48.40625 47.59375 33 
z
M 38 32.5 
Q 38 48.296875 34.640625 56.640625 
Q 31.296875 65 24.796875 65 
Q 18.59375 65 15.296875 56.59375 
Q 12 48.203125 12 32.90625 
Q 12 17.5 15.296875 9.34375 
Q 18.59375 1.203125 25 1.203125 
Q 31.296875 1.203125 34.640625 9.34375 
Q 38 17.5 38 32.5 
z
" id="STIXGeneral-Regular-48"/>
     </defs>
     <g transform="translate(123.843024 212.245046)scale(0.12 -0.12)">
      <use transform="translate(0 0.203125)" xlink:href="#STIXGeneral-Italic-952"/>
      <use transform="translate(47.999985 -13.025)scale(0.7)" xlink:href="#STIXGeneral-Regular-48"/>
     </g>
    </g>
   </g>
   <g id="matplotlib.axis_2">
    <g id="ytick_1">
     <g id="line2d_6">
      <defs>
       <path d="M 0 0 
L -3.5 0 
" id="m341ae51228" style="stroke:#000000;stroke-width:0.8;"/>
      </defs>
      <g>
       <use style="stroke:#000000;stroke-width:0.8;" x="47.865501" xlink:href="#m341ae51228" y="186.620046"/>
      </g>
     </g>
     <g id="text_7">
      <!-- −2 -->
      <g transform="translate(31.806751 189.620046)scale(0.08 -0.08)">
       <use xlink:href="#Roboto-Medium-8722"/>
       <use x="56.396484" xlink:href="#Roboto-Medium-50"/>
      </g>
     </g>
    </g>
    <g id="ytick_2">
     <g id="line2d_7">
      <g>
       <use style="stroke:#000000;stroke-width:0.8;" x="47.865501" xlink:href="#m341ae51228" y="145.991284"/>
      </g>
     </g>
     <g id="text_8">
      <!-- −1 -->
      <g transform="translate(31.806751 148.991284)scale(0.08 -0.08)">
       <use xlink:href="#Roboto-Medium-8722"/>
       <use x="56.396484" xlink:href="#Roboto-Medium-49"/>
      </g>
     </g>
    </g>
    <g id="ytick_3">
     <g id="line2d_8">
      <g>
       <use style="stroke:#000000;stroke-width:0.8;" x="47.865501" xlink:href="#m341ae51228" y="105.362523"/>
      </g>
     </g>
     <g id="text_9">
      <!-- 0 -->
      <g transform="translate(36.318001 108.362523)scale(0.08 -0.08)">
       <use xlink:href="#Roboto-Medium-48"/>
      </g>
     </g>
    </g>
    <g id="ytick_4">
     <g id="line2d_9">
      <g>
       <use style="stroke:#000000;stroke-width:0.8;" x="47.865501" xlink:href="#m341ae51228" y="64.733761"/>
      </g>
     </g>
     <g id="text_10">
      <!-- 1 -->
      <g transform="translate(36.318001 67.733761)scale(0.08 -0.08)">
       <use xlink:href="#Roboto-Medium-49"/>
      </g>
     </g>
    </g>
    <g id="ytick_5">
     <g id="line2d_10">
      <g>
       <use style="stroke:#000000;stroke-width:0.8;" x="47.865501" xlink:href="#m341ae51228" y="24.105"/>
      </g>
     </g>
     <g id="text_11">
      <!-- 2 -->
      <g transform="translate(36.318001 27.105)scale(0.08 -0.08)">
       <use xlink:href="#Roboto-Medium-50"/>
      </g>
     </g>
    </g>
    <g id="text_12">
     <!-- $\theta_1$ -->
     <defs>
      <path d="M 39.40625 0 
L 11.796875 0 
L 11.796875 1.5 
Q 17.296875 1.796875 19.296875 3.546875 
Q 21.296875 5.296875 21.296875 9.5 
L 21.296875 54.40625 
Q 21.296875 59.296875 18.296875 59.296875 
Q 16.90625 59.296875 13.796875 58.09375 
L 11.09375 57.09375 
L 11.09375 58.5 
L 29 67.59375 
L 29.90625 67.296875 
L 29.90625 7.59375 
Q 29.90625 4.296875 31.90625 2.890625 
Q 33.90625 1.5 39.40625 1.5 
z
" id="STIXGeneral-Regular-49"/>
     </defs>
     <g transform="translate(27.369251 110.642523)rotate(-90)scale(0.12 -0.12)">
      <use transform="translate(0 0.203125)" xlink:href="#STIXGeneral-Italic-952"/>
      <use transform="translate(47.999985 -13.025)scale(0.7)" xlink:href="#STIXGeneral-Regular-49"/>
     </g>
    </g>
   </g>
   <g id="patch_3">
    <path d="M 47.865501 186.620046 
L 47.865501 24.105 
" style="fill:none;stroke:#000000;stroke-linecap:square;stroke-linejoin:miter;stroke-width:0.5;"/>
   </g>
   <g id="patch_4">
    <path d="M 210.380547 186.620046 
L 210.380547 24.105 
" style="fill:none;stroke:#000000;stroke-linecap:square;stroke-linejoin:miter;stroke-width:0.5;"/>
   </g>
   <g id="patch_5">
    <path d="M 47.865501 186.620046 
L 210.380547 186.620046 
" style="fill:none;stroke:#000000;stroke-linecap:square;stroke-linejoin:miter;stroke-width:0.5;"/>
   </g>
   <g id="patch_6">
    <path d="M 47.865501 24.105 
L 210.380547 24.105 
" style="fill:none;stroke:#000000;stroke-linecap:square;stroke-linejoin:miter;stroke-width:0.5;"/>
   </g>
   <g id="text_13">
    <!-- $\Theta$ -->
    <defs>
     <path d="M 50.09375 23.59375 
L 47.59375 23.59375 
Q 46.90625 26.703125 45.59375 28.25 
Q 44.296875 29.796875 41.796875 29.796875 
L 31.296875 29.796875 
Q 28.59375 29.796875 27.390625 28.390625 
Q 26.203125 27 25 23.59375 
L 22.5 23.59375 
Q 23.5 27.296875 23.5 32.296875 
Q 23.5 39.09375 22.40625 44.09375 
L 24.90625 44.09375 
Q 26 40.796875 27.203125 39.546875 
Q 28.40625 38.296875 31.203125 38.296875 
L 41.796875 38.296875 
Q 46.40625 38.296875 47.59375 44.09375 
L 50.09375 44.09375 
Q 49 39.703125 49 36.09375 
Q 49 28.5 50.09375 23.59375 
z
M 68.796875 33.09375 
Q 68.796875 17.703125 59.6875 8.140625 
Q 50.59375 -1.40625 36.09375 -1.40625 
Q 21.5 -1.40625 12.453125 8.1875 
Q 3.40625 17.796875 3.40625 33.40625 
Q 3.40625 48.59375 12.453125 58.09375 
Q 21.5 67.59375 36.09375 67.59375 
Q 50.703125 67.59375 59.75 57.84375 
Q 68.796875 48.09375 68.796875 33.09375 
z
M 57.40625 33.703125 
Q 57.40625 42.203125 55 48.953125 
Q 52.59375 55.703125 48.296875 59.296875 
Q 42.703125 64 36 64 
Q 27.5 64 21.703125 57.296875 
Q 18.5 53.703125 16.640625 47.046875 
Q 14.796875 40.40625 14.796875 33.203125 
Q 14.796875 15 23.796875 6.703125 
Q 28.703125 2.203125 36.203125 2.203125 
Q 44 2.203125 49.09375 7 
Q 57.40625 15 57.40625 33.703125 
z
" id="STIXGeneral-Regular-920"/>
    </defs>
    <g transform="translate(124.743024 14.105)scale(0.12 -0.12)">
     <use transform="translate(0 0.40625)" xlink:href="#STIXGeneral-Regular-920"/>
    </g>
   </g>
  </g>
  <g id="axes_2">
   <g id="patch_7">
    <path d="M 274.201951 186.620046 
L 463 186.620046 
L 463 24.105 
L 274.201951 24.105 
z
" style="fill:#ffffff;"/>
   </g>
   <g id="patch_8">
    <path d="M 463 105.362523 
L 453.560098 109.425399 
L 456.392068 105.403152 
L 274.201951 105.403152 
L 274.201951 105.321894 
L 456.392068 105.321894 
L 453.560098 101.299647 
z
" style="stroke:#000000;stroke-linejoin:miter;stroke-width:0.5;"/>
   </g>
   <g id="matplotlib.axis_3">
    <g id="xtick_6">
     <g id="line2d_11">
      <g>
       <use style="stroke:#000000;stroke-width:0.8;" x="297.801707" xlink:href="#m89831c6349" y="105.362523"/>
      </g>
     </g>
     <g id="text_14">
      <!-- −1.5 -->
      <defs>
       <path d="M 6.640625 3.171875 
Q 6.640625 8.734375 8.4375 10.640625 
Q 10.25 12.546875 13.515625 12.546875 
Q 16.796875 12.546875 18.625 10.640625 
Q 20.453125 8.734375 20.453125 5.953125 
Q 20.453125 3.171875 18.625 1.28125 
Q 16.796875 -0.59375 13.515625 -0.59375 
Q 10.25 -0.59375 8.4375 1.28125 
Q 6.640625 3.171875 6.640625 8.734375 
z
" id="Roboto-Medium-46"/>
       <path d="M 17.96875 32.90625 
L 8.546875 35.25 
L 12.359375 71.09375 
L 50.53125 71.09375 
L 50.53125 60.890625 
L 22.21875 60.890625 
L 20.3125 43.890625 
Q 25.296875 46.6875 31.390625 46.6875 
Q 41.5 46.6875 47.15625 40.265625 
Q 52.828125 33.84375 52.828125 22.75 
Q 52.828125 12.890625 47.0625 5.953125 
Q 41.3125 -0.984375 29.4375 -0.984375 
Q 20.5625 -0.984375 13.75 4.171875 
Q 6.9375 9.328125 6.296875 19.234375 
L 17.828125 19.234375 
Q 19.1875 8.546875 29.4375 8.546875 
Q 35.203125 8.546875 38.109375 12.625 
Q 41.015625 16.703125 41.015625 23.09375 
Q 41.015625 29.203125 37.796875 33.15625 
Q 34.578125 37.109375 28.375 37.109375 
Q 24.21875 37.109375 22.0625 35.90625 
Q 19.921875 34.71875 17.96875 32.90625 
z
" id="Roboto-Medium-53"/>
      </defs>
      <g transform="translate(289.881082 118.362523)scale(0.08 -0.08)">
       <use xlink:href="#Roboto-Medium-8722"/>
       <use x="56.396484" xlink:href="#Roboto-Medium-49"/>
       <use x="113.232422" xlink:href="#Roboto-Medium-46"/>
       <use x="141.162109" xlink:href="#Roboto-Medium-53"/>
      </g>
     </g>
    </g>
    <g id="xtick_7">
     <g id="line2d_12">
      <g>
       <use style="stroke:#000000;stroke-width:0.8;" x="321.401463" xlink:href="#m89831c6349" y="105.362523"/>
      </g>
     </g>
     <g id="text_15">
      <!-- −1.0 -->
      <g transform="translate(313.480838 118.362523)scale(0.08 -0.08)">
       <use xlink:href="#Roboto-Medium-8722"/>
       <use x="56.396484" xlink:href="#Roboto-Medium-49"/>
       <use x="113.232422" xlink:href="#Roboto-Medium-46"/>
       <use x="141.162109" xlink:href="#Roboto-Medium-48"/>
      </g>
     </g>
    </g>
    <g id="xtick_8">
     <g id="line2d_13">
      <g>
       <use style="stroke:#000000;stroke-width:0.8;" x="345.00122" xlink:href="#m89831c6349" y="105.362523"/>
      </g>
     </g>
     <g id="text_16">
      <!-- −0.5 -->
      <g transform="translate(337.080595 118.362523)scale(0.08 -0.08)">
       <use xlink:href="#Roboto-Medium-8722"/>
       <use x="56.396484" xlink:href="#Roboto-Medium-48"/>
       <use x="113.232422" xlink:href="#Roboto-Medium-46"/>
       <use x="141.162109" xlink:href="#Roboto-Medium-53"/>
      </g>
     </g>
    </g>
    <g id="xtick_9">
     <g id="line2d_14">
      <g>
       <use style="stroke:#000000;stroke-width:0.8;" x="368.600976" xlink:href="#m89831c6349" y="105.362523"/>
      </g>
     </g>
     <g id="text_17">
      <!-- 0.0 -->
      <g transform="translate(362.935976 118.362523)scale(0.08 -0.08)">
       <use xlink:href="#Roboto-Medium-48"/>
       <use x="56.835938" xlink:href="#Roboto-Medium-46"/>
       <use x="84.765625" xlink:href="#Roboto-Medium-48"/>
      </g>
     </g>
    </g>
    <g id="xtick_10">
     <g id="line2d_15">
      <g>
       <use style="stroke:#000000;stroke-width:0.8;" x="392.200732" xlink:href="#m89831c6349" y="105.362523"/>
      </g>
     </g>
     <g id="text_18">
      <!-- 0.5 -->
      <g transform="translate(386.535732 118.362523)scale(0.08 -0.08)">
       <use xlink:href="#Roboto-Medium-48"/>
       <use x="56.835938" xlink:href="#Roboto-Medium-46"/>
       <use x="84.765625" xlink:href="#Roboto-Medium-53"/>
      </g>
     </g>
    </g>
    <g id="xtick_11">
     <g id="line2d_16">
      <g>
       <use style="stroke:#000000;stroke-width:0.8;" x="415.800488" xlink:href="#m89831c6349" y="105.362523"/>
      </g>
     </g>
     <g id="text_19">
      <!-- 1.0 -->
      <g transform="translate(410.135488 118.362523)scale(0.08 -0.08)">
       <use xlink:href="#Roboto-Medium-49"/>
       <use x="56.835938" xlink:href="#Roboto-Medium-46"/>
       <use x="84.765625" xlink:href="#Roboto-Medium-48"/>
      </g>
     </g>
    </g>
    <g id="xtick_12">
     <g id="line2d_17">
      <g>
       <use style="stroke:#000000;stroke-width:0.8;" x="439.400244" xlink:href="#m89831c6349" y="105.362523"/>
      </g>
     </g>
     <g id="text_20">
      <!-- 1.5 -->
      <g transform="translate(433.735244 118.362523)scale(0.08 -0.08)">
       <use xlink:href="#Roboto-Medium-49"/>
       <use x="56.835938" xlink:href="#Roboto-Medium-46"/>
       <use x="84.765625" xlink:href="#Roboto-Medium-53"/>
      </g>
     </g>
    </g>
   </g>
   <g id="matplotlib.axis_4"/>
   <g id="patch_9">
    <path d="M 274.201951 105.362523 
L 463 105.362523 
" style="fill:none;stroke:#000000;stroke-linecap:square;stroke-linejoin:miter;stroke-width:0.5;"/>
   </g>
   <g id="text_21">
    <!-- $y$ -->
    <defs>
     <path d="M 24.296875 18.59375 
L 26.40625 7.59375 
Q 33.09375 18.59375 35.84375 24.34375 
Q 38.59375 30.09375 38.59375 33.296875 
Q 38.59375 34.90625 36 36.5 
Q 33.40625 38.203125 33.40625 40.40625 
Q 33.40625 42 34.546875 43.046875 
Q 35.703125 44.09375 37.40625 44.09375 
Q 39.59375 44.09375 41.09375 42.5 
Q 42.59375 40.90625 42.59375 38.59375 
Q 42.59375 29.90625 29.5 8.09375 
Q 21.703125 -4.796875 14.34375 -12.6875 
Q 7 -20.59375 2.703125 -20.59375 
Q 0.40625 -20.59375 -1 -19.390625 
Q -2.40625 -18.203125 -2.40625 -16.296875 
Q -2.40625 -14.59375 -1.25 -13.4375 
Q -0.09375 -12.296875 1.5 -12.296875 
Q 3.40625 -12.296875 4.90625 -13.6875 
Q 6.40625 -15.09375 7.59375 -15.09375 
Q 9.40625 -15.09375 12.40625 -11.796875 
Q 13.703125 -10.5 16.25 -7.140625 
Q 18.796875 -3.796875 19.5 -2.703125 
Q 20.5 -0.703125 20.5 0.796875 
Q 20.5 3.796875 17.390625 16.34375 
Q 14.296875 28.90625 12.296875 34 
Q 10.90625 37.703125 9.25 39.046875 
Q 7.59375 40.40625 4.59375 40.40625 
Q 3 40.40625 1.5 40 
L 1.5 41.703125 
Q 3.703125 42.09375 4.703125 42.296875 
Q 8.796875 43.09375 15.40625 44.09375 
L 15.796875 44.09375 
Q 16.90625 44.09375 19.953125 34.796875 
Q 23 25.5 24.296875 18.59375 
z
" id="STIXGeneral-Italic-121"/>
    </defs>
    <g transform="translate(366.241 125.676904)scale(0.14 -0.14)">
     <use transform="translate(0 0.90625)" xlink:href="#STIXGeneral-Italic-121"/>
    </g>
   </g>
   <g id="text_22">
    <!-- $\mathcal{Y}$ -->
    <defs>
     <path d="M 46.203125 11.90625 
L 46.5 11.5 
Q 48.796875 13 53.046875 17.703125 
Q 57.296875 22.40625 61.546875 28.203125 
Q 65.796875 34 68.9375 40.34375 
Q 72.09375 46.703125 72.09375 50.796875 
Q 72.09375 55.296875 70.5 57.796875 
Q 68.90625 60.296875 66.203125 60.296875 
Q 64.90625 60.296875 63.40625 57.9375 
Q 61.90625 55.59375 59.59375 55.59375 
Q 57.296875 55.59375 56.09375 57 
Q 54.90625 58.40625 54.90625 60.59375 
Q 54.90625 63.5 57.203125 65.5 
Q 59.5 67.5 62.703125 67.5 
Q 68.59375 67.5 72.4375 63.640625 
Q 76.296875 59.796875 76.296875 52.203125 
Q 76.296875 46.59375 72.390625 38.140625 
Q 68.5 29.703125 61.890625 20.953125 
Q 55.296875 12.203125 47.640625 4.453125 
Q 40 -3.296875 31.5 -8.1875 
Q 23 -13.09375 16.296875 -13.09375 
Q 4.09375 -13.09375 3.40625 1.296875 
L 5.59375 2.296875 
Q 8.796875 -5 17.59375 -5 
Q 26.5 -5 36.296875 3.5 
Q 36.296875 18.796875 34.703125 32.5 
Q 31.40625 61.796875 19.59375 61.796875 
Q 15.09375 61.796875 11.90625 59.5 
L 10.296875 61.296875 
Q 15.40625 66.203125 23 66.203125 
Q 27 66.203125 30.25 64.84375 
Q 33.5 63.5 35.703125 60.703125 
Q 37.90625 57.90625 39.5 54.90625 
Q 41.09375 51.90625 42.1875 47.34375 
Q 43.296875 42.796875 43.890625 39.390625 
Q 44.5 36 45.203125 30.90625 
Q 46.203125 23.40625 46.203125 11.90625 
z
" id="STIXNonUnicode-Italic-57925"/>
    </defs>
    <g transform="translate(364.280976 14.105)scale(0.12 -0.12)">
     <use transform="translate(0 0.5)" xlink:href="#STIXNonUnicode-Italic-57925"/>
    </g>
   </g>
  </g>
 </g>
</svg>
