<?xml version="1.0" encoding="UTF-8" standalone="no"?>
<!-- Created with matplotlib (https://matplotlib.org/) -->

<svg
   xmlns:dc="http://purl.org/dc/elements/1.1/"
   xmlns:cc="http://creativecommons.org/ns#"
   xmlns:rdf="http://www.w3.org/1999/02/22-rdf-syntax-ns#"
   xmlns:svg="http://www.w3.org/2000/svg"
   xmlns="http://www.w3.org/2000/svg"
   xmlns:xlink="http://www.w3.org/1999/xlink"
   xmlns:sodipodi="http://sodipodi.sourceforge.net/DTD/sodipodi-0.dtd"
   xmlns:inkscape="http://www.inkscape.org/namespaces/inkscape"
   height="234.27759pt"
   version="1.1"
   viewBox="0 0 227.67548 234.27758"
   width="227.67549pt"
   id="svg181"
   sodipodi:docname="toy-example-lifting-1.svg"
   inkscape:version="0.92.5 (2060ec1f9f, 2020-04-08)">
  <metadata
     id="metadata185">
    <rdf:RDF>
      <cc:Work
         rdf:about="">
        <dc:format>image/svg+xml</dc:format>
        <dc:type
           rdf:resource="http://purl.org/dc/dcmitype/StillImage" />
        <dc:title></dc:title>
      </cc:Work>
    </rdf:RDF>
  </metadata>
  <sodipodi:namedview
     pagecolor="#ffffff"
     bordercolor="#666666"
     borderopacity="1"
     objecttolerance="10"
     gridtolerance="10"
     guidetolerance="10"
     inkscape:pageopacity="0"
     inkscape:pageshadow="2"
     inkscape:window-width="1440"
     inkscape:window-height="876"
     id="namedview183"
     showgrid="false"
     fit-margin-top="0"
     fit-margin-left="0"
     fit-margin-right="0"
     fit-margin-bottom="0"
     inkscape:zoom="1.3657407"
     inkscape:cx="45.711452"
     inkscape:cy="206.8043"
     inkscape:window-x="0"
     inkscape:window-y="180"
     inkscape:window-maximized="1"
     inkscape:current-layer="svg181" />
  <defs
     id="defs4"
     style="stroke-linecap:butt;stroke-linejoin:round">
    <style
       type="text/css"
       id="style2">
*{stroke-linecap:butt;stroke-linejoin:round;}
  </style>
  </defs>
  <g
     id="figure_1"
     style="stroke-linecap:butt;stroke-linejoin:round"
     transform="translate(-28.695057,-15.966346)">
    <g
       id="pane3d_1"
       style="stroke-linecap:butt;stroke-linejoin:round">
      <g
         id="patch_2"
         style="stroke-linecap:butt;stroke-linejoin:round">
        <path
           d="M 34.360965,201.92593 108.54536,138.37597 107.31027,16.942411 28.989608,74.04075"
           style="opacity:0.5;fill:none;stroke:#ffffff;stroke-linecap:butt;stroke-linejoin:miter"
           id="path9"
           inkscape:connector-curvature="0" />
      </g>
    </g>
    <g
       id="pane3d_2"
       style="stroke-linecap:butt;stroke-linejoin:round">
      <g
         id="patch_3"
         style="stroke-linecap:butt;stroke-linejoin:round">
        <path
           d="M 108.54536,138.37597 228.71711,173.9045 233.74495,48.809164 107.31027,16.942411"
           style="opacity:0.5;fill:none;stroke:#ffffff;stroke-linecap:butt;stroke-linejoin:miter"
           id="path13"
           inkscape:connector-curvature="0" />
      </g>
    </g>
    <g
       id="pane3d_3"
       style="stroke-linecap:butt;stroke-linejoin:round">
      <g
         id="patch_4"
         style="stroke-linecap:butt;stroke-linejoin:round">
        <path
           d="M 34.360965,201.92593 160.79788,243.3047 228.71711,173.9045 108.54536,138.37597"
           style="opacity:0.5;fill:none;stroke:#ffffff;stroke-linecap:butt;stroke-linejoin:miter"
           id="path17"
           inkscape:connector-curvature="0" />
      </g>
    </g>
    <g
       id="axis3d_1"
       style="stroke-linecap:butt;stroke-linejoin:round">
      <g
         id="line2d_1"
         style="stroke-linecap:butt;stroke-linejoin:round">
        <path
           d="M 34.360965,201.92593 160.79788,243.3047"
           style="fill:none;stroke:#000000;stroke-width:0.5;stroke-linecap:square;stroke-linejoin:round"
           id="path21"
           inkscape:connector-curvature="0" />
      </g>
      <g
         id="text_1"
         style="stroke-linecap:butt;stroke-linejoin:round">
        <!-- $\theta_0$ -->
        <defs
           id="defs26">
          <path
             d="m 49.40625,51.09375 q 0,-11.5 -3.703125,-22 Q 42,18.59375 36,10.59375 27.203125,-1.09375 15.5,-1.09375 q -6,0 -9.40625,4.59375 -3.390625,4.59375 -3.390625,12.59375 0,15.109375 6.546875,27.859375 6.546875,12.75 15.65625,19.640625 5.59375,4.203125 12.1875,4.203125 5.609375,0 8.953125,-4.109375 3.359375,-4.09375 3.359375,-12.59375 z M 14.703125,34.703125 H 38 q 3,10.203125 3,20.5 0,10.5 -5.296875,10.5 -4,0 -8.703125,-6.109375 Q 22.296875,53.5 19.25,46.75 16.203125,40 14.703125,34.703125 Z M 37.296875,31.5 H 14 Q 11.09375,23.90625 11.09375,15 q 0,-14 5.609375,-14 3.390625,0 6.890625,3.296875 3.5,3.296875 6.15625,8.296875 2.65625,5 4.59375,9.90625 1.953125,4.90625 2.953125,9 z"
             id="STIXGeneral-Italic-952"
             inkscape:connector-curvature="0"
             style="stroke-linecap:butt;stroke-linejoin:round" />
          <path
             d="m 47.59375,33 q 0,-6.703125 -1.296875,-12.65625 Q 45,14.40625 42.453125,9.40625 39.90625,4.40625 35.40625,1.5 30.90625,-1.40625 25,-1.40625 q -6.09375,0 -10.703125,3.09375 -4.59375,3.109375 -7.09375,8.3125 -2.5,5.203125 -3.65625,11.09375 Q 2.40625,27 2.40625,33.59375 q 0,9.3125 2.296875,16.75 Q 7,57.796875 12.34375,62.6875 q 5.359375,4.90625 13.0625,4.90625 9.796875,0 15.984375,-9.59375 6.203125,-9.59375 6.203125,-25 z M 38,32.5 Q 38,48.296875 34.640625,56.640625 31.296875,65 24.796875,65 q -6.203125,0 -9.5,-8.40625 Q 12,48.203125 12,32.90625 12,17.5 15.296875,9.34375 18.59375,1.203125 25,1.203125 q 6.296875,0 9.640625,8.140625 Q 38,17.5 38,32.5 Z"
             id="STIXGeneral-Regular-48"
             inkscape:connector-curvature="0"
             style="stroke-linecap:butt;stroke-linejoin:round" />
        </defs>
        <g
           transform="matrix(0.12,0,0,-0.12,81.948663,248.5628)"
           id="g32"
           style="stroke-linecap:butt;stroke-linejoin:round">
          <use
             transform="translate(0,0.203125)"
             xlink:href="#STIXGeneral-Italic-952"
             id="use28"
             style="stroke-linecap:butt;stroke-linejoin:round"
             x="0"
             y="0"
             width="100%"
             height="100%" />
          <use
             transform="matrix(0.7,0,0,0.7,47.999985,-13.025)"
             xlink:href="#STIXGeneral-Regular-48"
             id="use30"
             style="stroke-linecap:butt;stroke-linejoin:round"
             x="0"
             y="0"
             width="100%"
             height="100%" />
        </g>
      </g>
      <g
         id="xtick_1"
         style="stroke-linecap:butt;stroke-linejoin:round">
        <g
           id="line2d_2"
           style="stroke-linecap:butt;stroke-linejoin:round">
          <path
             d="m 69.460786,212.64681 -1.879003,1.68647"
             style="fill:none;stroke:#000000;stroke-width:0.80000001;stroke-linecap:square;stroke-linejoin:round"
             id="path35"
             inkscape:connector-curvature="0" />
        </g>
        <g
           id="text_2"
           style="stroke-linecap:butt;stroke-linejoin:round">
          <!-- −1 -->
          <defs
             id="defs40">
            <path
               d="M 49.171875,39.9375 V 30.375 H 7.765625 v 9.5625 z"
               id="Roboto-Medium-8722"
               inkscape:connector-curvature="0"
               style="stroke-linecap:butt;stroke-linejoin:round" />
            <path
               d="M 37.5,71.34375 V 0 H 25.640625 V 57.125 L 8.203125,51.171875 V 61.1875 l 27.78125,10.15625 z"
               id="Roboto-Medium-49"
               inkscape:connector-curvature="0"
               style="stroke-linecap:butt;stroke-linejoin:round" />
          </defs>
          <g
             transform="matrix(0.08,0,0,-0.08,60.973784,227.77242)"
             id="g46"
             style="stroke-linecap:butt;stroke-linejoin:round">
            <use
               xlink:href="#Roboto-Medium-8722"
               id="use42"
               style="stroke-linecap:butt;stroke-linejoin:round"
               x="0"
               y="0"
               width="100%"
               height="100%" />
            <use
               x="56.396484"
               xlink:href="#Roboto-Medium-49"
               id="use44"
               style="stroke-linecap:butt;stroke-linejoin:round"
               y="0"
               width="100%"
               height="100%" />
          </g>
        </g>
      </g>
      <g
         id="xtick_2"
         style="stroke-linecap:butt;stroke-linejoin:round">
        <g
           id="line2d_3"
           style="stroke-linecap:butt;stroke-linejoin:round">
          <path
             d="m 96.74937,221.56986 -1.845856,1.72028"
             style="fill:none;stroke:#000000;stroke-width:0.80000001;stroke-linecap:square;stroke-linejoin:round"
             id="path50"
             inkscape:connector-curvature="0" />
        </g>
        <g
           id="text_3"
           style="stroke-linecap:butt;stroke-linejoin:round">
          <!-- 0 -->
          <defs
             id="defs54">
            <path
               d="m 51.65625,29.984375 q 0,-16.890625 -6.328125,-23.9375 -6.3125,-7.03125 -16.859375,-7.03125 -10.296875,0 -16.71875,6.84375 -6.421875,6.84375 -6.625,23.09375 v 12.5 q 0,16.953125 6.390625,23.78125 6.40625,6.84375 16.859375,6.84375 10.5,0 16.859375,-6.796875 Q 51.609375,58.5 51.65625,41.75 Z m -11.8125,13.28125 q 0,10.734375 -2.984375,15 -2.96875,4.28125 -8.484375,4.28125 -5.375,0 -8.359375,-4.203125 Q 17.046875,54.15625 17,43.65625 V 28.265625 q 0,-10.78125 3,-15.25 3,-4.46875 8.46875,-4.46875 5.46875,0 8.390625,4.390625 2.9375,4.390625 2.984375,14.9375 z"
               id="Roboto-Medium-48"
               inkscape:connector-curvature="0"
               style="stroke-linecap:butt;stroke-linejoin:round" />
          </defs>
          <g
             transform="matrix(0.08,0,0,-0.08,90.527824,236.8027)"
             id="g58"
             style="stroke-linecap:butt;stroke-linejoin:round">
            <use
               xlink:href="#Roboto-Medium-48"
               id="use56"
               style="stroke-linecap:butt;stroke-linejoin:round"
               x="0"
               y="0"
               width="100%"
               height="100%" />
          </g>
        </g>
      </g>
      <g
         id="xtick_3"
         style="stroke-linecap:butt;stroke-linejoin:round">
        <g
           id="line2d_4"
           style="stroke-linecap:butt;stroke-linejoin:round">
          <path
             d="m 124.58727,230.67253 -1.81098,1.75511"
             style="fill:none;stroke:#000000;stroke-width:0.80000001;stroke-linecap:square;stroke-linejoin:round"
             id="path62"
             inkscape:connector-curvature="0" />
        </g>
        <g
           id="text_4"
           style="stroke-linecap:butt;stroke-linejoin:round">
          <!-- 1 -->
          <g
             transform="matrix(0.08,0,0,-0.08,118.37676,246.01509)"
             id="g67"
             style="stroke-linecap:butt;stroke-linejoin:round">
            <use
               xlink:href="#Roboto-Medium-49"
               id="use65"
               style="stroke-linecap:butt;stroke-linejoin:round"
               x="0"
               y="0"
               width="100%"
               height="100%" />
          </g>
        </g>
      </g>
    </g>
    <g
       id="axis3d_2"
       style="stroke-linecap:butt;stroke-linejoin:round">
      <g
         id="line2d_5"
         style="stroke-linecap:butt;stroke-linejoin:round">
        <path
           d="m 228.71711,173.9045 -67.91923,69.4002"
           style="fill:none;stroke:#000000;stroke-width:0.5;stroke-linecap:square;stroke-linejoin:round"
           id="path72"
           inkscape:connector-curvature="0" />
      </g>
      <g
         id="text_5"
         style="stroke-linecap:butt;stroke-linejoin:round">
        <!-- $\theta_1$ -->
        <defs
           id="defs76">
          <path
             d="M 39.40625,0 H 11.796875 v 1.5 q 5.5,0.296875 7.5,2.046875 2,1.75 2,5.953125 v 44.90625 q 0,4.890625 -3,4.890625 -1.390625,0 -4.5,-1.203125 l -2.703125,-1 V 58.5 L 29,67.59375 29.90625,67.296875 V 7.59375 q 0,-3.296875 2,-4.703125 2,-1.390625 7.5,-1.390625 z"
             id="STIXGeneral-Regular-49"
             inkscape:connector-curvature="0"
             style="stroke-linecap:butt;stroke-linejoin:round" />
        </defs>
        <g
           transform="matrix(0.12,0,0,-0.12,205.6631,229.68953)"
           id="g82"
           style="stroke-linecap:butt;stroke-linejoin:round">
          <use
             transform="translate(0,0.203125)"
             xlink:href="#STIXGeneral-Italic-952"
             id="use78"
             style="stroke-linecap:butt;stroke-linejoin:round"
             x="0"
             y="0"
             width="100%"
             height="100%" />
          <use
             transform="matrix(0.7,0,0,0.7,47.999985,-13.025)"
             xlink:href="#STIXGeneral-Regular-49"
             id="use80"
             style="stroke-linecap:butt;stroke-linejoin:round"
             x="0"
             y="0"
             width="100%"
             height="100%" />
        </g>
      </g>
      <g
         id="xtick_4"
         style="stroke-linecap:butt;stroke-linejoin:round">
        <g
           id="line2d_6"
           style="stroke-linecap:butt;stroke-linejoin:round">
          <path
             d="m 179.98528,222.30291 3.12886,0.99402"
             style="fill:none;stroke:#000000;stroke-width:0.80000001;stroke-linecap:square;stroke-linejoin:round"
             id="path85"
             inkscape:connector-curvature="0" />
        </g>
        <g
           id="text_6"
           style="stroke-linecap:butt;stroke-linejoin:round">
          <!-- −1 -->
          <g
             transform="matrix(0.08,0,0,-0.08,182.1759,235.93993)"
             id="g92"
             style="stroke-linecap:butt;stroke-linejoin:round">
            <use
               xlink:href="#Roboto-Medium-8722"
               id="use88"
               style="stroke-linecap:butt;stroke-linejoin:round"
               x="0"
               y="0"
               width="100%"
               height="100%" />
            <use
               x="56.396484"
               xlink:href="#Roboto-Medium-49"
               id="use90"
               style="stroke-linecap:butt;stroke-linejoin:round"
               y="0"
               width="100%"
               height="100%" />
          </g>
        </g>
      </g>
      <g
         id="xtick_5"
         style="stroke-linecap:butt;stroke-linejoin:round">
        <g
           id="line2d_7"
           style="stroke-linecap:butt;stroke-linejoin:round">
          <path
             d="m 195.04953,206.93389 3.09193,0.96053"
             style="fill:none;stroke:#000000;stroke-width:0.80000001;stroke-linecap:square;stroke-linejoin:round"
             id="path96"
             inkscape:connector-curvature="0" />
        </g>
        <g
           id="text_7"
           style="stroke-linecap:butt;stroke-linejoin:round">
          <!-- 0 -->
          <g
             transform="matrix(0.08,0,0,-0.08,199.38242,220.44045)"
             id="g101"
             style="stroke-linecap:butt;stroke-linejoin:round">
            <use
               xlink:href="#Roboto-Medium-48"
               id="use99"
               style="stroke-linecap:butt;stroke-linejoin:round"
               x="0"
               y="0"
               width="100%"
               height="100%" />
          </g>
        </g>
      </g>
      <g
         id="xtick_6"
         style="stroke-linecap:butt;stroke-linejoin:round">
        <g
           id="line2d_8"
           style="stroke-linecap:butt;stroke-linejoin:round">
          <path
             d="m 209.61073,192.0781 3.05571,0.9287"
             style="fill:none;stroke:#000000;stroke-width:0.80000001;stroke-linecap:square;stroke-linejoin:round"
             id="path105"
             inkscape:connector-curvature="0" />
        </g>
        <g
           id="text_8"
           style="stroke-linecap:butt;stroke-linejoin:round">
          <!-- 1 -->
          <g
             transform="matrix(0.08,0,0,-0.08,213.83404,205.45858)"
             id="g110"
             style="stroke-linecap:butt;stroke-linejoin:round">
            <use
               xlink:href="#Roboto-Medium-49"
               id="use108"
               style="stroke-linecap:butt;stroke-linejoin:round"
               x="0"
               y="0"
               width="100%"
               height="100%" />
          </g>
        </g>
      </g>
    </g>
    <g
       id="axis3d_3"
       style="stroke-linecap:butt;stroke-linejoin:round">
      <g
         id="line2d_9"
         style="stroke-linecap:butt;stroke-linejoin:round">
        <path
           d="M 228.71711,173.9045 233.74495,48.809164"
           style="fill:none;stroke:#000000;stroke-width:0.5;stroke-linecap:square;stroke-linejoin:round"
           id="path115"
           inkscape:connector-curvature="0" />
      </g>
      <g
         id="text_9"
         style="stroke-linecap:butt;stroke-linejoin:round">
        <!-- $\eta$ -->
        <defs
           id="defs119">
          <path
             d="M 14.796875,22.796875 15,22.703125 q 13.296875,21.390625 22.09375,21.390625 3.109375,0 5.109375,-1.453125 2,-1.4375 2,-4.234375 0,-2.40625 -1,-6.3125 L 34.5,0 q -3,-10.90625 -3,-17.09375 0,-1.5 0.796875,-3.40625 H 25 q -1.09375,1.296875 -1.09375,4.40625 0,5 3.296875,17 l 7.5,27.390625 Q 36.09375,33 36.09375,35.5 q 0,3.5 -2.5,3.5 -4,0 -11.296875,-9.359375 Q 15,20.296875 12.09375,10.59375 L 8.90625,0 h -7.5 l 8.1875,30.5 Q 11,35.5 11,36.703125 11,38.40625 9.59375,38.40625 9.203125,38.40625 8.75,38.203125 8.296875,38 7.796875,37.546875 7.296875,37.09375 6.84375,36.6875 q -0.4375,-0.390625 -1,-1.046875 Q 5.296875,35 4.9375,34.546875 4.59375,34.09375 4.046875,33.4375 3.5,32.796875 3.296875,32.59375 l -1.203125,1 Q 3.40625,35.796875 5,37.703125 q 4.90625,6.09375 9.703125,6.09375 4,0 4,-4.5 0,-4.09375 -3.90625,-16.5 z"
             id="STIXGeneral-Italic-951"
             inkscape:connector-curvature="0"
             style="stroke-linecap:butt;stroke-linejoin:round" />
        </defs>
        <g
           transform="matrix(0.12,0,0,-0.12,251.06618,113.10609)"
           id="g123"
           style="stroke-linecap:butt;stroke-linejoin:round">
          <use
             transform="translate(0,0.90625)"
             xlink:href="#STIXGeneral-Italic-951"
             id="use121"
             style="stroke-linecap:butt;stroke-linejoin:round"
             x="0"
             y="0"
             width="100%"
             height="100%" />
        </g>
      </g>
      <g
         id="xtick_7"
         style="stroke-linecap:butt;stroke-linejoin:round">
        <g
           id="line2d_10"
           style="stroke-linecap:butt;stroke-linejoin:round">
          <path
             d="m 229.34872,132.51162 3.06371,0.86183"
             style="fill:none;stroke:#000000;stroke-width:0.80000001;stroke-linecap:square;stroke-linejoin:round"
             id="path126"
             inkscape:connector-curvature="0" />
        </g>
        <g
           id="text_10"
           style="stroke-linecap:butt;stroke-linejoin:round">
          <!-- −2 -->
          <defs
             id="defs130">
            <path
               d="M 53.171875,9.515625 V 0 H 5.328125 V 8.203125 L 28.46875,33.40625 q 5.859375,6.484375 7.953125,10.359375 2.109375,3.890625 2.109375,7.5 0,4.890625 -2.765625,8.078125 -2.75,3.203125 -7.828125,3.203125 -6.0625,0 -9.09375,-3.6875 -3.015625,-3.6875 -3.015625,-9.390625 h -11.875 q 0,9.328125 6.296875,15.96875 6.296875,6.640625 17.828125,6.640625 10.640625,0 16.46875,-5.328125 5.84375,-5.328125 5.84375,-14.203125 0,-6.546875 -3.984375,-12.875 Q 42.4375,33.34375 36.078125,26.609375 L 20.125,9.515625 Z"
               id="Roboto-Medium-50"
               inkscape:connector-curvature="0"
               style="stroke-linecap:butt;stroke-linejoin:round" />
          </defs>
          <g
             transform="matrix(0.08,0,0,-0.08,234.33433,137.63244)"
             id="g136"
             style="stroke-linecap:butt;stroke-linejoin:round">
            <use
               xlink:href="#Roboto-Medium-8722"
               id="use132"
               style="stroke-linecap:butt;stroke-linejoin:round"
               x="0"
               y="0"
               width="100%"
               height="100%" />
            <use
               x="56.396484"
               xlink:href="#Roboto-Medium-50"
               id="use134"
               style="stroke-linecap:butt;stroke-linejoin:round"
               y="0"
               width="100%"
               height="100%" />
          </g>
        </g>
      </g>
      <g
         id="xtick_8"
         style="stroke-linecap:butt;stroke-linejoin:round">
        <g
           id="line2d_11"
           style="stroke-linecap:butt;stroke-linejoin:round">
          <path
             d="m 230.13746,112.67684 3.08969,0.84776"
             style="fill:none;stroke:#000000;stroke-width:0.80000001;stroke-linecap:square;stroke-linejoin:round"
             id="path140"
             inkscape:connector-curvature="0" />
        </g>
        <g
           id="text_11"
           style="stroke-linecap:butt;stroke-linejoin:round">
          <!-- −1 -->
          <g
             transform="matrix(0.08,0,0,-0.08,235.20011,117.81202)"
             id="g147"
             style="stroke-linecap:butt;stroke-linejoin:round">
            <use
               xlink:href="#Roboto-Medium-8722"
               id="use143"
               style="stroke-linecap:butt;stroke-linejoin:round"
               x="0"
               y="0"
               width="100%"
               height="100%" />
            <use
               x="56.396484"
               xlink:href="#Roboto-Medium-49"
               id="use145"
               style="stroke-linecap:butt;stroke-linejoin:round"
               y="0"
               width="100%"
               height="100%" />
          </g>
        </g>
      </g>
      <g
         id="xtick_9"
         style="stroke-linecap:butt;stroke-linejoin:round">
        <g
           id="line2d_12"
           style="stroke-linecap:butt;stroke-linejoin:round">
          <path
             d="m 230.93924,92.514268 3.11611,0.833111"
             style="fill:none;stroke:#000000;stroke-width:0.80000001;stroke-linecap:square;stroke-linejoin:round"
             id="path151"
             inkscape:connector-curvature="0" />
        </g>
        <g
           id="text_12"
           style="stroke-linecap:butt;stroke-linejoin:round">
          <!-- 0 -->
          <g
             transform="matrix(0.08,0,0,-0.08,238.3358,97.664413)"
             id="g156"
             style="stroke-linecap:butt;stroke-linejoin:round">
            <use
               xlink:href="#Roboto-Medium-48"
               id="use154"
               style="stroke-linecap:butt;stroke-linejoin:round"
               x="0"
               y="0"
               width="100%"
               height="100%" />
          </g>
        </g>
      </g>
      <g
         id="xtick_10"
         style="stroke-linecap:butt;stroke-linejoin:round">
        <g
           id="line2d_13"
           style="stroke-linecap:butt;stroke-linejoin:round">
          <path
             d="m 231.75438,72.015726 3.14298,0.81785"
             style="fill:none;stroke:#000000;stroke-width:0.80000001;stroke-linecap:square;stroke-linejoin:round"
             id="path160"
             inkscape:connector-curvature="0" />
        </g>
        <g
           id="text_13"
           style="stroke-linecap:butt;stroke-linejoin:round">
          <!-- 1 -->
          <g
             transform="matrix(0.08,0,0,-0.08,239.23052,77.181454)"
             id="g165"
             style="stroke-linecap:butt;stroke-linejoin:round">
            <use
               xlink:href="#Roboto-Medium-49"
               id="use163"
               style="stroke-linecap:butt;stroke-linejoin:round"
               x="0"
               y="0"
               width="100%"
               height="100%" />
          </g>
        </g>
      </g>
      <g
         id="xtick_11"
         style="stroke-linecap:butt;stroke-linejoin:round">
        <g
           id="line2d_14"
           style="stroke-linecap:butt;stroke-linejoin:round">
          <path
             d="m 232.58321,51.172742 3.17033,0.801955"
             style="fill:none;stroke:#000000;stroke-width:0.80000001;stroke-linecap:square;stroke-linejoin:round"
             id="path169"
             inkscape:connector-curvature="0" />
        </g>
        <g
           id="text_14"
           style="stroke-linecap:butt;stroke-linejoin:round">
          <!-- 2 -->
          <g
             transform="matrix(0.08,0,0,-0.08,240.14025,56.354698)"
             id="g174"
             style="stroke-linecap:butt;stroke-linejoin:round">
            <use
               xlink:href="#Roboto-Medium-50"
               id="use172"
               style="stroke-linecap:butt;stroke-linejoin:round"
               x="0"
               y="0"
               width="100%"
               height="100%" />
          </g>
        </g>
      </g>
    </g>
    <g
       id="axes_1"
       style="stroke-linecap:butt;stroke-linejoin:round" />
  </g>
</svg>
